<?xml version="1.0" encoding="utf-8"?>
<!-- Generator: Adobe Illustrator 16.0.0, SVG Export Plug-In . SVG Version: 6.00 Build 0)  -->
<!DOCTYPE svg PUBLIC "-//W3C//DTD SVG 1.1//EN" "http://www.w3.org/Graphics/SVG/1.1/DTD/svg11.dtd">
<svg version="1.1" id="Layer_1" xmlns="http://www.w3.org/2000/svg" xmlns:xlink="http://www.w3.org/1999/xlink" x="0px" y="0px"
	 width="1000px" height="1000px" viewBox="0 0 1000 1000" enable-background="new 0 0 1000 1000" xml:space="preserve">
<circle fill="#FAAC40" cx="500" cy="500" r="473.937"/>
<circle fill="#FFC388" cx="500" cy="500" r="418.439"/>
<g display="none">
	<path display="inline" fill="#1F80AA" d="M500.004,26.059C378.713,26.06,257.42,72.33,164.878,164.873
		c-185.087,185.086-185.087,485.17,0,670.253c92.541,92.543,213.835,138.813,335.126,138.815V26.059z"/>
	<path display="inline" fill="#29A7DF" d="M500.006,918.443l-0.002-836.888c-107.09,0-214.179,40.853-295.884,122.56
		c-163.414,163.412-163.413,428.355,0,591.769C285.825,877.59,392.914,918.443,500.006,918.443z"/>
</g>
<g>
	<path opacity="0.9" fill="#E5AE7C" d="M330.358,626.19v146.043H508V247.767H330.358v72.117l-56.154-32.495l-0.022,23.858
		l-49.68-0.046v209.257h129.942l142.964,59.218v46.515H330.358z M352.281,501.297H243.663V330.378l30.502,0.029l-0.023,23.859
		l56.216-32.393v71.938h167.16v47.327L352.281,501.297z"/>
	<polygon opacity="0.9" fill="#B28760" points="516.678,441.138 516.678,393.811 683.834,393.811 683.834,247.767 508,247.767 
		508,772.233 683.834,772.233 683.834,626.19 516.57,626.19 516.57,579.764 667.457,517.262 772.338,517.262 772.338,688.182 
		741.836,688.154 741.857,664.295 683.92,697.681 741.799,731.172 741.818,707.316 791.498,707.36 791.498,498.103 654.201,498.103 
			"/>
</g>
<text transform="matrix(1 0 0 1 112.4277 548.5635)" display="none" fill="#FFFFFF" font-family="'FranklinGothic-Medium'" font-size="131.7857">Korektnost</text>
<g>
	<path fill="#FFFFFF" d="M191.77,548.563h-17.696l-18.532-44.723l-16.988,22.522v22.2h-15.83v-87.835h15.83v46.137
		c2.016-3.131,3.475-5.297,4.376-6.499l29.149-39.639h16.023l-20.849,28.892L191.77,548.563z"/>
	<path fill="#FFFFFF" d="M232.695,549.915c-11.669,0-20.752-4.376-27.251-13.127c-6.5-8.752-9.749-19.563-9.749-32.432
		c0-12.784,3.453-23.477,10.36-32.078c6.906-8.601,16.022-12.902,27.348-12.902c11.411,0,20.431,4.301,27.059,12.902
		c6.627,8.602,9.941,19.359,9.941,32.271c0,13.557-3.442,24.507-10.328,32.851S244.063,549.915,232.695,549.915z M232.824,537.174
		c5.705,0,10.531-2.358,14.478-7.078c3.947-4.719,5.92-13.277,5.92-25.675c0-10.081-1.631-17.986-4.891-23.713
		c-3.261-5.727-8.323-8.59-15.186-8.59c-13.557,0-20.334,10.918-20.334,32.753c0,10.596,1.727,18.629,5.18,24.099
		C221.444,534.439,226.389,537.174,232.824,537.174z"/>
	<path fill="#FFFFFF" d="M353.606,548.563h-16.73l-13.642-36.1h-22.265v36.1h-15.83v-87.835h38.094
		c10.595,0,18.381,2.392,23.358,7.175c4.976,4.784,7.464,10.971,7.464,18.564c0,11.283-5.276,19.047-15.83,23.294L353.606,548.563z
		 M300.969,499.787h19.691c5.705,0,9.952-1.2,12.741-3.604c2.788-2.402,4.183-5.705,4.183-9.91c0-3.861-1.374-6.981-4.118-9.362
		c-2.746-2.381-6.586-3.571-11.519-3.571h-20.978V499.787z"/>
	<path fill="#FFFFFF" d="M426.899,548.563h-57.077v-87.835h56.498v13.063h-40.668V497.6h32.689v12.741h-32.689v24.581h41.248
		V548.563z"/>
	<path fill="#FFFFFF" d="M509.586,548.563h-17.695l-18.532-44.723l-16.988,22.522v22.2h-15.83v-87.835h15.83v46.137
		c2.016-3.131,3.475-5.297,4.376-6.499l29.149-39.639h16.022L485.07,489.62L509.586,548.563z"/>
	<path fill="#FFFFFF" d="M554.116,548.563h-16.988v-74.258H513.77v-13.577h63.705v13.577h-23.358V548.563z"/>
	<path fill="#FFFFFF" d="M653.47,548.563h-15.379l-33.332-56.112c-0.516-0.858-1.352-2.252-2.51-4.183
		c-0.515-0.858-1.31-2.209-2.381-4.054v64.349h-12.741v-87.835h17.503l30.759,51.736c0.257,0.43,2.123,3.582,5.598,9.459v-61.195
		h12.483V548.563z"/>
	<path fill="#FFFFFF" d="M705.142,549.915c-11.669,0-20.752-4.376-27.252-13.127c-6.499-8.752-9.748-19.563-9.748-32.432
		c0-12.784,3.452-23.477,10.359-32.078c6.907-8.601,16.023-12.902,27.349-12.902c11.41,0,20.431,4.301,27.059,12.902
		c6.628,8.602,9.941,19.359,9.941,32.271c0,13.557-3.442,24.507-10.328,32.851C725.637,545.743,716.509,549.915,705.142,549.915z
		 M705.271,537.174c5.705,0,10.531-2.358,14.479-7.078c3.946-4.719,5.92-13.277,5.92-25.675c0-10.081-1.631-17.986-4.891-23.713
		c-3.261-5.727-8.323-8.59-15.187-8.59c-13.556,0-20.334,10.918-20.334,32.753c0,10.596,1.727,18.629,5.181,24.099
		C693.891,534.439,698.836,537.174,705.271,537.174z"/>
	<path fill="#FFFFFF" d="M748.384,527.393l15.38-3.281c1.844,8.709,8.922,13.063,21.234,13.063c5.62,0,9.942-1.115,12.967-3.346
		s4.536-4.997,4.536-8.302c0-2.401-0.687-4.622-2.059-6.66c-1.374-2.036-4.312-3.635-8.816-4.794l-16.795-4.375
		c-5.749-1.501-9.996-3.207-12.741-5.116c-2.745-1.908-4.944-4.601-6.596-8.076c-1.651-3.475-2.477-7.185-2.477-11.132
		c0-7.85,2.916-14.146,8.751-18.886c5.834-4.739,13.298-7.11,22.394-7.11c7.55,0,14.295,1.652,20.237,4.955
		c5.941,3.304,9.727,7.979,11.357,14.028l-15.058,3.732c-2.316-6.649-7.722-9.974-16.216-9.974c-4.934,0-8.698,1.029-11.293,3.088
		c-2.596,2.059-3.894,4.676-3.894,7.851c0,5.019,4.075,8.537,12.227,10.553l14.929,3.732c9.051,2.274,15.122,5.63,18.211,10.071
		c3.089,4.439,4.633,9.341,4.633,14.703c0,8.623-3.249,15.411-9.749,20.366c-6.499,4.955-14.918,7.433-25.257,7.433
		c-8.709,0-16.334-1.823-22.875-5.47C754.872,540.8,750.528,535.114,748.384,527.393z"/>
	<path fill="#FFFFFF" d="M863.567,548.563h-16.988v-74.258h-23.358v-13.577h63.705v13.577h-23.358V548.563z"/>
</g>
</svg>
