<?xml version="1.0" encoding="utf-8"?>
<!-- Generator: Adobe Illustrator 16.0.0, SVG Export Plug-In . SVG Version: 6.00 Build 0)  -->
<!DOCTYPE svg PUBLIC "-//W3C//DTD SVG 1.1//EN" "http://www.w3.org/Graphics/SVG/1.1/DTD/svg11.dtd">
<svg version="1.1" id="Layer_1" xmlns="http://www.w3.org/2000/svg" xmlns:xlink="http://www.w3.org/1999/xlink" x="0px" y="0px"
	 width="1000px" height="1000px" viewBox="0 0 1000 1000" enable-background="new 0 0 1000 1000" xml:space="preserve">
<circle fill="#2080AA" cx="500" cy="500" r="473.937"/>
<circle fill="#28A8E0" cx="500" cy="500" r="418.439"/>
<g display="none">
	<path display="inline" fill="#1F80AA" d="M500.004,26.059C378.713,26.06,257.42,72.33,164.878,164.873
		c-185.087,185.086-185.087,485.17,0,670.253c92.541,92.543,213.835,138.813,335.126,138.815V26.059z"/>
	<path display="inline" fill="#29A7DF" d="M500.006,918.443l-0.002-836.888c-107.09,0-214.179,40.853-295.884,122.56
		c-163.414,163.412-163.413,428.355,0,591.769C285.825,877.59,392.914,918.443,500.006,918.443z"/>
</g>
<g>
	<polygon fill="#2080AA" points="220.767,541.438 154.976,563.903 223.977,579.95 	"/>
	<path fill="#2080AA" d="M512.817,517.365c0,0,46.537,9.627,62.582-9.625c16.05-19.258-21.546-119.433,85.586-154.587
		c102.699-33.699,155.119,48.675,172.77,92c17.651,43.329,11.232,69.001,3.209,75.421c-8.023,6.418-48.142,6.418-48.142,6.418
		s0,35.305-22.465,40.121c-22.465,4.812-219.841,11.23-243.911,6.418C498.377,568.715,512.817,517.365,512.817,517.365"/>
	<path fill="#002F3F" d="M703.847,445.155c0-10.596,8.589-19.185,19.185-19.185s19.188,8.589,19.188,19.185
		s-8.592,19.186-19.188,19.186S703.847,455.75,703.847,445.155"/>
	<path fill="#2AADDB" d="M554.54,498.109c0,0-19.256,9.627-22.466,33.7c-3.21,24.068-3.21,59.372-3.21,59.372l-319.329,3.21
		c0,0-44.931-239.1,144.421-264.773C543.308,303.943,554.54,498.109,554.54,498.109"/>
	<path fill="#1D586D" d="M468.383,515.17c-33.063,8.112-65.363,12.799-99.648,11.252c-24.684-1.118-50.292-2.734-75.182-6.544
		c3.357-21.841,7.479-43.611,12.795-65.374c0.508-2.087,1.032-4.177,1.549-6.266c22.177,2.437,44.797,2.305,66.607,1.351
		c26.812-1.176,52.351-5.771,77.384-13.458C459.922,461.761,465.343,488.228,468.383,515.17"/>
	<path fill="#1D586D" d="M432.499,349.639c-1.8,0.425-3.609,0.827-5.418,1.222c-4.801-7.563-9.981-14.922-15.477-22.094
		c16.549,2.056,31.192,6.179,44.143,11.835C447.797,345.074,438.588,348.201,432.499,349.639"/>
	<path fill="#1D586D" d="M299.499,345.295c12.451-5.935,26.522-10.565,42.337-13.642c-4.567,7.594-8.857,15.294-12.869,23.109
		C318.451,352.906,308.292,349.923,299.499,345.295"/>
	<path fill="#1D586D" d="M520.755,499.754c-13.089,4.893-26.527,8.751-40.038,12.292c-3.017-27.198-8.382-54.079-16.457-79.987
		c6.471-2.268,12.922-4.676,19.354-7.365c13.823-5.783,28.877-12.451,40.542-22.284c18.235,30.418,25.656,62.595,28.574,80.808
		C543.948,491.193,531.277,495.819,520.755,499.754"/>
	<path fill="#1D586D" d="M379.019,357.297c-11.399,0.46-25.001,0.524-38.635-0.911c4.866-9.155,10.123-18.084,15.422-26.988
		c14.855-1.914,28.603-2.465,41.329-1.858c6.197,8.419,12.02,17.011,17.387,25.806C402.785,355.42,390.923,356.816,379.019,357.297"
		/>
	<path fill="#1D586D" d="M377.251,437.097c-21.782,0.734-44.158,0.719-66.052-1.838c5.812-22.223,12.571-44.313,22.247-65.081
		c0.489-1.052,1.021-2.075,1.523-3.116c22.642,3.068,45.642,2.369,68.269-0.939c5.337-0.782,11.2-1.588,17.248-2.611
		c11.313,19.976,20.614,40.796,28.006,62.26C425.34,432.522,401.827,436.267,377.251,437.097"/>
	<path fill="#1D586D" d="M481.875,523.943c7.58-2.186,15.124-4.523,22.63-6.968c15.023-4.89,35.375-11.054,49.762-22.105
		c0.207,2.089,0.273,3.24,0.273,3.24s-19.256,9.625-22.466,33.694c-3.21,24.072-3.21,59.376-3.21,59.376l-45.621,0.458
		C484.191,569.182,483.815,546.495,481.875,523.943"/>
	<path fill="#1D586D" d="M206.448,505.719c17.011,10.039,34.776,17.563,54.055,21.995c5.319,1.223,10.717,2.315,16.158,3.331
		c-3.261,20.841-5.605,41.826-6.789,62.741l-60.336,0.604c0,0-7.494-39.917-3.451-88.879
		C206.203,505.58,206.331,505.65,206.448,505.719"/>
	<path fill="#1D586D" d="M471.219,418.147c-3.431,1.304-6.864,2.516-10.304,3.687c-7.255-21.136-16.408-41.534-27.658-60.836
		c12.584-2.891,24.951-7.223,34.177-14.635c22.308,12.287,38.939,29.327,51.321,47.584
		C505.582,405.466,487.567,411.933,471.219,418.147"/>
	<path fill="#1D586D" d="M207.699,490.318c2.92-22.365,8.498-45.877,18.363-67.879c13.289,7.643,27.829,13.393,34.633,15.719
		c10.957,3.746,22.292,6.412,33.816,8.278c-0.172,0.651-0.355,1.296-0.524,1.95c-5.823,22.545-10.965,45.643-15.059,68.979
		c-4.873-0.946-9.714-1.967-14.488-3.128C246.289,509.822,225.423,501.61,207.699,490.318"/>
	<path fill="#1D586D" d="M322.428,365.001c0.449,0.09,0.905,0.148,1.354,0.237c-10.379,21.767-18.797,44.438-25.666,68.156
		c-5.065-0.862-10.102-1.825-15.076-3.034c-13.301-3.242-26.244-7.895-38.262-14.49c-3.275-1.795-7.574-4.143-12.014-6.9
		c11.95-21.672,28.747-41.159,52.108-55.66C296.632,359.966,312.64,363.032,322.428,365.001"/>
	<path fill="#1D586D" d="M291.556,533.558c29.722,4.515,60.523,6.308,89.819,6.363c30,0.057,59.376-5.002,88.207-12.601
		c1.832,21.283,2.212,42.825,1.267,64.444l-186.202,1.87C286.593,573.506,288.776,553.489,291.556,533.558"/>
	<path fill="#2080AA" d="M436.87,672.722h9.081c21.773,0,39.587-17.813,39.587-39.59v-64.943c0-21.774-17.814-39.589-39.587-39.589
		h-9.081c-21.774,0-39.588,17.814-39.588,39.589v64.943C397.282,654.908,415.096,672.722,436.87,672.722"/>
	<path fill="#2080AA" d="M292.439,672.722h9.081c21.773,0,39.588-17.813,39.588-39.59v-64.943c0-21.774-17.815-39.589-39.588-39.589
		h-9.081c-21.773,0-39.588,17.814-39.588,39.589v64.943C252.852,654.908,270.667,672.722,292.439,672.722"/>
</g>
<text transform="matrix(1 0 0 1 297.2744 362.8379)" display="none"><tspan x="0" y="0" display="inline" fill="#FFFFFF" font-family="'FranklinGothic-Medium'" font-size="152.931">Želvy</tspan><tspan x="-194.748" y="180" display="inline" fill="#FFFFFF" font-family="'FranklinGothic-Medium'" font-size="152.931">gramatiky</tspan><tspan x="-74.263" y="360" display="inline" fill="#FFFFFF" font-family="'FranklinGothic-Medium'" font-size="152.931">a pláže</tspan></text>
<g>
	<path fill="#FFFFFF" d="M378.464,345.43v16.023h-76.263V346.79l52.833-73.769h-49.129v-14.739h71.048v14.739l-52.228,72.408
		H378.464z M341.957,250.498l-26.303-21.768l13.68-1.511l12.623,9.901l12.623-9.901l13.605,1.511L341.957,250.498z"/>
	<path fill="#FFFFFF" d="M459.942,361.453H392.9v-103.17h66.361v15.343h-47.768v27.966h38.396v14.965h-38.396v28.873h48.448V361.453
		z"/>
	<path fill="#FFFFFF" d="M539.455,361.453h-63.489v-103.17h19.576v86.315h43.914V361.453z"/>
	<path fill="#FFFFFF" d="M584.125,361.453h-18.896l-31.82-103.17h19.651l23.657,79.06l24.187-79.06h15.494L584.125,361.453z"/>
	<path fill="#FFFFFF" d="M669.608,361.453h-19.727v-43.536l-35.146-59.635h22.523l24.489,42.553l23.431-42.553h17.838
		l-33.408,59.635V361.453z"/>
	<path fill="#FFFFFF" d="M191.472,490.889v52.757h-8.238l-5.669-13.907c-5.997,10.33-15.294,15.495-27.89,15.495
		c-14.059,0-24.552-5.341-31.48-16.024c-6.929-10.682-10.393-23.053-10.393-37.11c0-14.865,3.866-27.449,11.602-37.754
		c7.735-10.304,18.556-15.457,32.463-15.457c10.38,0,18.92,3.012,25.623,9.032c6.701,6.021,10.934,13.518,12.698,22.486
		l-16.174,2.873c-3.023-12.597-10.254-18.896-21.692-18.896c-7.307,0-13.265,2.975-17.875,8.919
		c-4.611,5.947-6.916,15.092-6.916,27.437c0,26.052,8.163,39.077,24.489,39.077c6.349,0,11.602-2.192,15.759-6.576
		c4.157-4.384,6.236-10.178,6.236-17.385h-21.314v-14.965H191.472z"/>
	<path fill="#FFFFFF" d="M292.979,543.646h-19.651l-16.023-42.401h-26.151v42.401H212.56V440.475h44.745
		c12.445,0,21.59,2.81,27.437,8.428c5.845,5.619,8.768,12.887,8.768,21.806c0,13.253-6.198,22.373-18.594,27.36L292.979,543.646z
		 M231.153,486.354h23.128c6.701,0,11.689-1.41,14.965-4.232c3.274-2.821,4.913-6.701,4.913-11.64c0-4.535-1.613-8.2-4.837-10.997
		c-3.225-2.797-7.735-4.195-13.529-4.195h-24.64V486.354z"/>
	<path fill="#FFFFFF" d="M392.976,543.646h-19.878l-8.239-24.564h-39.681l-8.087,24.564h-15.872l34.238-103.171h22.902
		L392.976,543.646z M359.871,504.191l-15.041-46.03l-15.041,46.03H359.871z"/>
	<path fill="#FFFFFF" d="M506.577,543.646h-18.971v-90.322l-28.57,90.322h-9.75l-28.721-90.322v90.322h-15.192V440.475h29.099
		l21.617,66.438l21.239-66.438h29.251V543.646z"/>
	<path fill="#FFFFFF" d="M610.276,543.646h-19.878l-8.238-24.564h-39.681l-8.088,24.564h-15.873l34.239-103.171h22.901
		L610.276,543.646z M577.171,504.191l-15.04-46.03l-15.042,46.03H577.171z"/>
	<path fill="#FFFFFF" d="M650.336,543.646h-19.954v-87.223h-27.437v-15.948h74.827v15.948h-27.437V543.646z"/>
	<path fill="#FFFFFF" d="M707.702,543.646h-18.593V440.475h18.593V543.646z"/>
	<path fill="#FFFFFF" d="M811.478,543.646h-20.785l-21.768-52.53l-19.954,26.454v26.076h-18.593V440.475h18.593v54.193
		c2.368-3.677,4.081-6.222,5.14-7.634l34.239-46.559h18.82l-24.489,33.938L811.478,543.646z"/>
	<path fill="#FFFFFF" d="M866.88,543.646h-19.727V500.11l-35.146-59.635h22.523l24.489,42.554l23.431-42.554h17.837L866.88,500.11
		V543.646z"/>
	<path fill="#FFFFFF" d="M311.875,725.838h-19.878l-8.239-24.564h-39.681l-8.087,24.564h-15.872l34.239-103.17h22.901
		L311.875,725.838z M278.77,686.384l-15.041-46.029l-15.042,46.029H278.77z"/>
	<path fill="#FFFFFF" d="M381.563,725.838h-18.593v-103.17h42.251c12.042,0,20.974,3.035,26.794,9.107
		c5.82,6.072,8.73,13.239,8.73,21.503c0,9.423-3.15,17.057-9.448,22.901c-6.299,5.846-14.285,8.768-23.959,8.768h-25.774V725.838z
		 M381.563,669h21.995c5.744,0,10.127-1.411,13.151-4.233c3.023-2.82,4.534-6.576,4.534-11.261c0-4.233-1.398-7.861-4.194-10.885
		c-2.797-3.023-7.849-4.534-15.154-4.534h-20.332V669z"/>
	<path fill="#FFFFFF" d="M519.2,725.838h-63.49v-103.17h19.576v86.314H519.2V725.838z"/>
	<path fill="#FFFFFF" d="M613.829,725.838h-19.878l-8.239-24.564h-39.681l-8.087,24.564h-15.873l34.239-103.17h22.901
		L613.829,725.838z M580.724,686.384l-15.04-46.029l-15.042,46.029H580.724z M587.526,589.789l4.988,11.337l-31.518,13.303
		l-3.175-8.087L587.526,589.789z"/>
	<path fill="#FFFFFF" d="M694.25,709.814v16.023h-76.264v-14.663l52.832-73.77H621.69v-14.737h71.047v14.737l-52.228,72.409H694.25z
		 M657.743,614.883l-26.303-21.768l13.68-1.513l12.623,9.901l12.622-9.901l13.604,1.513L657.743,614.883z"/>
	<path fill="#FFFFFF" d="M775.728,725.838h-67.042v-103.17h66.361v15.343h-47.769v27.965h38.396v14.966h-38.396v28.873h48.449
		V725.838z"/>
</g>
</svg>
