<?xml version="1.0" encoding="utf-8"?>
<!-- Generator: Adobe Illustrator 16.0.0, SVG Export Plug-In . SVG Version: 6.00 Build 0)  -->
<!DOCTYPE svg PUBLIC "-//W3C//DTD SVG 1.1//EN" "http://www.w3.org/Graphics/SVG/1.1/DTD/svg11.dtd">
<svg version="1.1" id="Layer_1" xmlns="http://www.w3.org/2000/svg" xmlns:xlink="http://www.w3.org/1999/xlink" x="0px" y="0px"
	 width="1000px" height="1000px" viewBox="0 0 1000 1000" enable-background="new 0 0 1000 1000" xml:space="preserve">
<circle fill="#2080AA" cx="500" cy="500" r="473.937"/>
<circle fill="#28A8E0" cx="500" cy="500" r="418.439"/>
<g display="none">
	<path display="inline" fill="#1F80AA" d="M500.004,26.059C378.713,26.06,257.42,72.33,164.878,164.873
		c-185.087,185.086-185.087,485.17,0,670.253c92.541,92.543,213.835,138.813,335.126,138.815V26.059z"/>
	<path display="inline" fill="#29A7DF" d="M500.006,918.443l-0.002-836.888c-107.09,0-214.179,40.853-295.884,122.56
		c-163.414,163.412-163.413,428.355,0,591.769C285.825,877.59,392.914,918.443,500.006,918.443z"/>
</g>
<g>
	<polygon fill="#2080AA" points="220.767,541.438 154.976,563.903 223.977,579.95 	"/>
	<path fill="#2080AA" d="M512.817,517.365c0,0,46.537,9.627,62.582-9.625c16.05-19.258-21.546-119.433,85.586-154.587
		c102.699-33.699,155.119,48.675,172.77,92c17.651,43.329,11.232,69.001,3.209,75.421c-8.023,6.418-48.142,6.418-48.142,6.418
		s0,35.305-22.465,40.121c-22.465,4.812-219.841,11.23-243.911,6.418C498.377,568.715,512.817,517.365,512.817,517.365"/>
	<path fill="#002F3F" d="M703.847,445.155c0-10.596,8.589-19.185,19.185-19.185s19.188,8.589,19.188,19.185
		s-8.592,19.186-19.188,19.186S703.847,455.75,703.847,445.155"/>
	<path fill="#2AADDB" d="M554.54,498.109c0,0-19.256,9.627-22.466,33.7c-3.21,24.068-3.21,59.372-3.21,59.372l-319.329,3.21
		c0,0-44.931-239.1,144.421-264.773C543.308,303.943,554.54,498.109,554.54,498.109"/>
	<path fill="#1D586D" d="M468.383,515.17c-33.063,8.112-65.363,12.799-99.648,11.252c-24.684-1.118-50.292-2.734-75.182-6.544
		c3.357-21.841,7.479-43.611,12.795-65.374c0.508-2.087,1.032-4.177,1.549-6.266c22.177,2.437,44.797,2.305,66.607,1.351
		c26.812-1.176,52.351-5.771,77.384-13.458C459.922,461.761,465.343,488.228,468.383,515.17"/>
	<path fill="#1D586D" d="M432.499,349.639c-1.8,0.425-3.609,0.827-5.418,1.222c-4.801-7.563-9.981-14.922-15.477-22.094
		c16.549,2.056,31.192,6.179,44.143,11.835C447.797,345.074,438.588,348.201,432.499,349.639"/>
	<path fill="#1D586D" d="M299.499,345.295c12.451-5.935,26.522-10.565,42.337-13.642c-4.567,7.594-8.857,15.294-12.869,23.109
		C318.451,352.906,308.292,349.923,299.499,345.295"/>
	<path fill="#1D586D" d="M520.755,499.754c-13.089,4.893-26.527,8.751-40.038,12.292c-3.017-27.198-8.382-54.079-16.457-79.987
		c6.471-2.268,12.922-4.676,19.354-7.365c13.823-5.783,28.877-12.451,40.542-22.284c18.235,30.418,25.656,62.595,28.574,80.808
		C543.948,491.193,531.277,495.819,520.755,499.754"/>
	<path fill="#1D586D" d="M379.019,357.297c-11.399,0.46-25.001,0.524-38.635-0.911c4.866-9.155,10.123-18.084,15.422-26.988
		c14.855-1.914,28.603-2.465,41.329-1.858c6.197,8.419,12.02,17.011,17.387,25.806C402.785,355.42,390.923,356.816,379.019,357.297"
		/>
	<path fill="#1D586D" d="M377.251,437.097c-21.782,0.734-44.158,0.719-66.052-1.838c5.812-22.223,12.571-44.313,22.247-65.081
		c0.489-1.052,1.021-2.075,1.523-3.116c22.642,3.068,45.642,2.369,68.269-0.939c5.337-0.782,11.2-1.588,17.248-2.611
		c11.313,19.976,20.614,40.796,28.006,62.26C425.34,432.522,401.827,436.267,377.251,437.097"/>
	<path fill="#1D586D" d="M481.875,523.943c7.58-2.186,15.124-4.523,22.63-6.968c15.023-4.89,35.375-11.054,49.762-22.105
		c0.207,2.089,0.273,3.24,0.273,3.24s-19.256,9.625-22.466,33.694c-3.21,24.072-3.21,59.376-3.21,59.376l-45.621,0.458
		C484.191,569.182,483.815,546.495,481.875,523.943"/>
	<path fill="#1D586D" d="M206.448,505.719c17.011,10.039,34.776,17.563,54.055,21.995c5.319,1.223,10.717,2.315,16.158,3.331
		c-3.261,20.841-5.605,41.826-6.789,62.741l-60.336,0.604c0,0-7.494-39.917-3.451-88.879
		C206.203,505.58,206.331,505.65,206.448,505.719"/>
	<path fill="#1D586D" d="M471.219,418.147c-3.431,1.304-6.864,2.516-10.304,3.687c-7.255-21.136-16.408-41.534-27.658-60.836
		c12.584-2.891,24.951-7.223,34.177-14.635c22.308,12.287,38.939,29.327,51.321,47.584
		C505.582,405.466,487.567,411.933,471.219,418.147"/>
	<path fill="#1D586D" d="M207.699,490.318c2.92-22.365,8.498-45.877,18.363-67.879c13.289,7.643,27.829,13.393,34.633,15.719
		c10.957,3.746,22.292,6.412,33.816,8.278c-0.172,0.651-0.355,1.296-0.524,1.95c-5.823,22.545-10.965,45.643-15.059,68.979
		c-4.873-0.946-9.714-1.967-14.488-3.128C246.289,509.822,225.423,501.61,207.699,490.318"/>
	<path fill="#1D586D" d="M322.428,365.001c0.449,0.09,0.905,0.148,1.354,0.237c-10.379,21.767-18.797,44.438-25.666,68.156
		c-5.065-0.862-10.102-1.825-15.076-3.034c-13.301-3.242-26.244-7.895-38.262-14.49c-3.275-1.795-7.574-4.143-12.014-6.9
		c11.95-21.672,28.747-41.159,52.108-55.66C296.632,359.966,312.64,363.032,322.428,365.001"/>
	<path fill="#1D586D" d="M291.556,533.558c29.722,4.515,60.523,6.308,89.819,6.363c30,0.057,59.376-5.002,88.207-12.601
		c1.832,21.283,2.212,42.825,1.267,64.444l-186.202,1.87C286.593,573.506,288.776,553.489,291.556,533.558"/>
	<path fill="#2080AA" d="M436.87,672.722h9.081c21.773,0,39.587-17.813,39.587-39.59v-64.943c0-21.774-17.814-39.589-39.587-39.589
		h-9.081c-21.774,0-39.588,17.814-39.588,39.589v64.943C397.282,654.908,415.096,672.722,436.87,672.722"/>
	<path fill="#2080AA" d="M292.439,672.722h9.081c21.773,0,39.588-17.813,39.588-39.59v-64.943c0-21.774-17.815-39.589-39.588-39.589
		h-9.081c-21.773,0-39.588,17.814-39.588,39.589v64.943C252.852,654.908,270.667,672.722,292.439,672.722"/>
</g>
<text transform="matrix(1 0 0 1 292.7192 362.8379)" display="none"><tspan x="0" y="0" display="inline" fill="#FFFFFF" font-family="'FranklinGothic-Medium'" font-size="152.931">Želva</tspan><tspan x="161.22" y="180" display="inline" fill="#FFFFFF" font-family="'FranklinGothic-Medium'" font-size="152.931">a</tspan><tspan x="-58.917" y="360" display="inline" fill="#FFFFFF" font-family="'FranklinGothic-Medium'" font-size="152.931">funkce</tspan></text>
<g>
	<path fill="#FFFFFF" d="M368.944,337.388v17h-80.908v-15.557l56.05-78.261h-52.121v-15.636h75.375v15.636l-55.408,76.818H368.944z
		 M330.215,236.675l-27.905-23.093l14.513-1.604l13.392,10.504l13.391-10.504l14.434,1.604L330.215,236.675z"/>
	<path fill="#FFFFFF" d="M455.384,354.388H384.26V244.934h70.402v16.278h-50.677v29.669h40.734v15.876h-40.734v30.631h51.398
		V354.388z"/>
	<path fill="#FFFFFF" d="M539.74,354.388h-67.356V244.934h20.768v91.572h46.588V354.388z"/>
	<path fill="#FFFFFF" d="M587.13,354.388h-20.046l-33.759-109.454h20.849l25.098,83.874l25.66-83.874h16.438L587.13,354.388z"/>
	<path fill="#FFFFFF" d="M713.742,354.388h-21.088l-8.74-26.061h-42.098l-8.58,26.061h-16.839l36.324-109.454h24.296
		L713.742,354.388z M678.621,312.531l-15.956-48.833l-15.957,48.833H678.621z"/>
	<path fill="#FFFFFF" d="M548.199,547.675h-21.088l-8.742-26.06h-42.096l-8.58,26.06h-16.839l36.324-109.453h24.296L548.199,547.675
		z M513.078,505.818l-15.957-48.833l-15.957,48.833H513.078z"/>
	<path fill="#FFFFFF" d="M248.104,740.962h-20.287V631.51h69.2v16.919h-48.914v29.908h38.489v16.438h-38.489V740.962z"/>
	<path fill="#FFFFFF" d="M386.344,631.51v70.322c0,9.516-1.07,16.839-3.208,21.97c-2.139,5.133-6.268,9.557-12.389,13.271
		c-6.122,3.716-13.591,5.573-22.412,5.573c-8.928,0-16.265-1.604-22.011-4.812c-5.747-3.208-9.877-7.604-12.389-13.19
		c-2.513-5.585-3.769-12.71-3.769-21.37V631.51h20.126v70.322c0,9.622,2.017,15.944,6.054,18.964
		c4.035,3.021,8.727,4.53,14.072,4.53c6.147,0,11.065-1.616,14.754-4.852c3.688-3.233,5.533-9.448,5.533-18.643V631.51H386.344z"/>
	<path fill="#FFFFFF" d="M491.548,740.962h-19.165l-41.536-69.922c-0.642-1.068-1.685-2.806-3.128-5.212
		c-0.641-1.068-1.631-2.752-2.967-5.052v80.186h-15.876V631.51h21.811l38.329,64.469c0.321,0.535,2.646,4.464,6.976,11.787V631.51
		h15.556V740.962z"/>
	<path fill="#FFFFFF" d="M601.643,740.962h-22.051l-23.094-55.729l-21.169,28.065v27.664h-19.725V631.51h19.725v57.492
		c2.513-3.901,4.33-6.602,5.453-8.099l36.324-49.394h19.967l-25.98,36.003L601.643,740.962z"/>
	<path fill="#FFFFFF" d="M673.81,702.954l18.282,2.005c-1.176,10.959-5.412,19.98-12.709,27.063
		c-7.297,7.084-16.879,10.625-28.747,10.625c-9.997,0-18.109-2.513-24.336-7.538c-6.228-5.023-11.025-11.84-14.393-20.447
		c-3.368-8.606-5.053-18.095-5.053-28.466c0-16.679,3.956-30.242,11.868-40.693c7.91-10.451,18.789-15.677,32.636-15.677
		c10.852,0,19.886,3.341,27.103,10.023s11.76,16.251,13.631,28.706l-18.282,1.925c-3.368-16.519-10.799-24.777-22.291-24.777
		c-7.377,0-13.111,3.435-17.2,10.304c-4.089,6.87-6.134,16.826-6.134,29.869c0,13.258,2.191,23.268,6.575,30.03
		c4.383,6.763,10.183,10.143,17.399,10.143c5.774,0,10.691-2.271,14.755-6.815C670.976,714.689,673.275,709.263,673.81,702.954z"/>
	<path fill="#FFFFFF" d="M778.854,740.962h-71.125V631.51h70.403v16.276h-50.678v29.669h40.734v15.877h-40.734v30.631h51.399
		V740.962z"/>
</g>
</svg>
