<?xml version="1.0" encoding="utf-8"?>
<!-- Generator: Adobe Illustrator 16.0.0, SVG Export Plug-In . SVG Version: 6.00 Build 0)  -->
<!DOCTYPE svg PUBLIC "-//W3C//DTD SVG 1.1//EN" "http://www.w3.org/Graphics/SVG/1.1/DTD/svg11.dtd">
<svg version="1.1" id="Layer_1" xmlns="http://www.w3.org/2000/svg" xmlns:xlink="http://www.w3.org/1999/xlink" x="0px" y="0px"
	 width="1000px" height="1000px" viewBox="0 0 1000 1000" enable-background="new 0 0 1000 1000" xml:space="preserve">
<circle fill="#007F3D" cx="500" cy="500" r="473.937"/>
<circle fill="#00A54F" cx="500" cy="500" r="418.439"/>
<g>
	<g>
		<g>
			<path fill="#007F3D" d="M545.866,328.473c0,139.935,57.937,155.167,72.759,156.768V830.5h53.019V171.515h-53.019
				C618.625,171.515,545.866,171.515,545.866,328.473"/>
			<path fill="#00933F" d="M545.866,328.473c0,139.928,57.937,155.159,72.759,156.761V171.508
				C618.625,171.508,545.866,171.508,545.866,328.473"/>
		</g>
		<g>
			<path fill="#007F3D" d="M315.293,237.243c-8.178,22.774-17.373,45.644-20.238,69.844c-2.711,22.745,2.595,39.285,13.727,58.749
				c11.256,19.697,31.063,48.633,54.816,61.606V830.5h53.004V427.127c23.491-13.134,43.057-41.755,54.217-61.291
				c11.139-19.464,16.416-36.004,13.733-58.749c-2.865-24.2-12.06-47.069-20.246-69.844c-6.438-17.913-19.28-62.453-42.99-65.209
				l14.136,130.821h-17.666L403.65,171.5H389.8h-13.836l-14.143,131.355h-17.665l14.128-130.821
				C334.581,174.79,321.74,219.33,315.293,237.243"/>
			<path fill="#00933F" d="M390.641,171.529h-13.835l-14.144,131.355h-17.665l14.128-130.821
				c-23.71,2.763-36.553,47.295-42.991,65.217l-0.841-0.066c-8.178,22.768-17.373,45.637-20.238,69.837
				c-2.711,22.737,2.595,39.285,13.727,58.748c11.256,19.697,31.063,48.633,54.816,61.606v403.051h28.432V427.091L390.641,171.529z"
				/>
		</g>
	</g>
</g>
<g display="none">
	<path display="inline" fill="#1F80AA" d="M500.004,26.059C378.713,26.06,257.42,72.33,164.878,164.873
		c-185.087,185.086-185.087,485.17,0,670.253c92.541,92.543,213.835,138.813,335.126,138.815V26.059z"/>
	<path display="inline" fill="#29A7DF" d="M500.006,918.443l-0.002-836.888c-107.09,0-214.179,40.853-295.884,122.56
		c-163.414,163.412-163.413,428.355,0,591.769C285.825,877.59,392.914,918.443,500.006,918.443z"/>
</g>
<text transform="matrix(1 0 0 1 196.3296 454.1143)" display="none"><tspan x="0" y="0" display="inline" fill="#FFFFFF" font-family="'FranklinGothic-Medium'" font-size="146.9913">Hladové</tspan><tspan x="-73.926" y="175.915" display="inline" fill="#FFFFFF" font-family="'FranklinGothic-Medium'" font-size="146.9913">algoritmy</tspan></text>
<g>
	<path fill="#FFFFFF" d="M281.058,454.114h-17.656v-42.562h-37.394v42.562h-17.656v-97.97h17.656v40.265h37.394v-40.265h17.656
		V454.114z"/>
	<path fill="#FFFFFF" d="M362.878,454.114h-60.289v-97.97h18.589v81.965h41.7V454.114z"/>
	<path fill="#FFFFFF" d="M452.739,454.114h-18.876l-7.823-23.326h-37.681l-7.68,23.326h-15.072l32.513-97.97h21.747L452.739,454.114
		z M421.302,416.649l-14.283-43.71l-14.283,43.71H421.302z"/>
	<path fill="#FFFFFF" d="M464.007,454.114v-97.97h36.102c13.349,0,24.068,4.726,32.154,14.175
		c8.086,9.45,12.131,21.113,12.131,34.989c0,13.877-4.164,25.479-12.488,34.81c-8.326,9.331-20.24,13.996-35.744,13.996H464.007z
		 M482.166,439.688h14.713c7.895,0,14.594-2.966,20.096-8.9c5.502-5.933,8.254-14.761,8.254-26.484
		c0-9.569-2.404-17.667-7.213-24.295c-4.809-6.627-11.16-9.941-19.056-9.941h-16.794V439.688z"/>
	<path fill="#FFFFFF" d="M596.859,455.622c-13.016,0-23.147-4.881-30.396-14.642c-7.249-9.761-10.873-21.819-10.873-36.174
		c0-14.258,3.851-26.185,11.555-35.779c7.704-9.593,17.872-14.391,30.504-14.391c12.728,0,22.788,4.798,30.181,14.391
		c7.393,9.594,11.089,21.592,11.089,35.994c0,15.121-3.84,27.334-11.52,36.64C619.719,450.969,609.538,455.622,596.859,455.622z
		 M597.003,441.411c6.362,0,11.746-2.631,16.148-7.895c4.402-5.263,6.604-14.809,6.604-28.638c0-11.244-1.819-20.061-5.455-26.448
		c-3.637-6.388-9.283-9.582-16.938-9.582c-15.12,0-22.681,12.178-22.681,36.533c0,11.819,1.926,20.778,5.778,26.879
		C584.31,438.36,589.825,441.411,597.003,441.411z"/>
	<path fill="#FFFFFF" d="M690.523,454.114H672.58l-30.217-97.97h18.661l22.465,75.075l22.968-75.075h14.713L690.523,454.114z"/>
	<path fill="#FFFFFF" d="M795.957,454.114h-63.663v-97.97h63.018v14.57H749.95v26.556h36.461v14.211H749.95v27.417h46.007V454.114z
		 M781.961,324.923l4.737,10.766l-29.93,12.632l-3.014-7.68L781.961,324.923z"/>
	<path fill="#FFFFFF" d="M211.15,630.029h-18.876l-7.823-23.326H146.77l-7.68,23.326h-15.072l32.513-97.971h21.747L211.15,630.029z
		 M179.714,592.563l-14.283-43.71l-14.283,43.71H179.714z"/>
	<path fill="#FFFFFF" d="M283.21,630.029h-60.289v-97.971h18.589v81.965h41.7V630.029z"/>
	<path fill="#FFFFFF" d="M368.334,579.932v50.098h-7.823l-5.383-13.206c-5.695,9.81-14.523,14.713-26.484,14.713
		c-13.35,0-23.315-5.071-29.893-15.216c-6.58-10.144-9.869-21.891-9.869-35.24c0-14.114,3.672-26.064,11.017-35.851
		c7.345-9.785,17.621-14.678,30.827-14.678c9.856,0,17.967,2.859,24.331,8.577c6.363,5.718,10.382,12.836,12.058,21.353
		l-15.359,2.728c-2.871-11.962-9.738-17.943-20.599-17.943c-6.938,0-12.596,2.823-16.974,8.469
		c-4.378,5.646-6.567,14.331-6.567,26.054c0,24.738,7.751,37.106,23.254,37.106c6.029,0,11.017-2.081,14.965-6.244
		c3.947-4.163,5.921-9.664,5.921-16.508h-20.24v-14.211H368.334z"/>
	<path fill="#FFFFFF" d="M424.46,631.536c-13.016,0-23.146-4.88-30.396-14.642c-7.249-9.761-10.874-21.818-10.874-36.173
		c0-14.259,3.851-26.186,11.556-35.779c7.703-9.593,17.872-14.391,30.503-14.391c12.728,0,22.788,4.798,30.181,14.391
		c7.393,9.594,11.089,21.593,11.089,35.994c0,15.12-3.84,27.334-11.52,36.641S437.139,631.536,424.46,631.536z M424.604,617.325
		c6.363,0,11.746-2.631,16.149-7.895c4.402-5.264,6.604-14.809,6.604-28.638c0-11.244-1.819-20.061-5.455-26.448
		c-3.637-6.388-9.283-9.582-16.938-9.582c-15.121,0-22.68,12.178-22.68,36.532c0,11.819,1.925,20.778,5.778,26.88
		C411.911,614.275,417.426,617.325,424.604,617.325z"/>
	<path fill="#FFFFFF" d="M559.322,630.029h-18.661l-15.216-40.265h-24.833v40.265h-17.657v-97.971h42.49
		c11.817,0,20.502,2.668,26.054,8.003c5.55,5.336,8.325,12.237,8.325,20.707c0,12.585-5.885,21.244-17.656,25.981L559.322,630.029z
		 M500.612,575.625h21.962c6.363,0,11.1-1.339,14.211-4.019c3.109-2.68,4.665-6.363,4.665-11.054c0-4.307-1.531-7.787-4.593-10.442
		c-3.063-2.656-7.346-3.983-12.848-3.983h-23.397V575.625z"/>
	<path fill="#FFFFFF" d="M595.064,630.029h-17.656v-97.971h17.656V630.029z"/>
	<path fill="#FFFFFF" d="M650.833,630.029h-18.948v-82.826h-26.054v-15.145h71.056v15.145h-26.054V630.029z"/>
	<path fill="#FFFFFF" d="M783.756,630.029h-18.015v-85.769l-27.131,85.769h-9.259l-27.273-85.769v85.769h-14.427v-97.971h27.633
		l20.527,63.089l20.168-63.089h27.776V630.029z"/>
	<path fill="#FFFFFF" d="M844.763,630.029H826.03v-41.341l-33.374-56.63h21.388l23.255,40.409l22.25-40.409h16.938l-31.725,56.63
		V630.029z"/>
</g>
</svg>
