<?xml version="1.0" encoding="utf-8"?>
<!-- Generator: Adobe Illustrator 16.0.0, SVG Export Plug-In . SVG Version: 6.00 Build 0)  -->
<!DOCTYPE svg PUBLIC "-//W3C//DTD SVG 1.1//EN" "http://www.w3.org/Graphics/SVG/1.1/DTD/svg11.dtd">
<svg version="1.1" id="Layer_1" xmlns="http://www.w3.org/2000/svg" xmlns:xlink="http://www.w3.org/1999/xlink" x="0px" y="0px"
	 width="1000px" height="1000px" viewBox="0 0 1000 1000" enable-background="new 0 0 1000 1000" xml:space="preserve">
<circle fill="#007F3D" cx="500" cy="500" r="473.937"/>
<circle fill="#00A54F" cx="500" cy="500" r="418.439"/>
<g display="none">
	<path display="inline" fill="#1F80AA" d="M500.004,26.059C378.713,26.06,257.42,72.33,164.878,164.873
		c-185.087,185.086-185.087,485.17,0,670.253c92.541,92.543,213.835,138.813,335.126,138.815V26.059z"/>
	<path display="inline" fill="#29A7DF" d="M500.006,918.443l-0.002-836.888c-107.09,0-214.179,40.853-295.884,122.56
		c-163.414,163.412-163.413,428.355,0,591.769C285.825,877.59,392.914,918.443,500.006,918.443z"/>
</g>
<g>
	<rect x="537.859" y="456.919" fill="#FAAC40" width="18.707" height="45.563"/>
	<path fill="#213228" d="M614.355,512.699c-0.663-3.622,1.432-5.127,4.655-3.342l165.068,91.422
		c3.226,1.785,8.875,3.117,12.559,2.958l14.261-0.609c3.682-0.157,7.46,1.509,8.395,3.711c0.936,2.195-1.274,4.466-4.917,5.042
		l-170.166,26.84c-3.64,0.576-7.163-1.926-7.826-5.55L614.355,512.699z"/>
	<polygon fill="#05211C" points="473.965,335.441 444.485,335.441 492.727,491.34 522.208,491.34 	"/>
	<path fill="#05211C" d="M487.595,314.455h-188.73c-8.386,0-15.183,6.796-15.183,15.186V518.37c0,8.387,6.797,15.184,15.183,15.184
		c8.384,0,15.184-6.797,15.184-15.184V344.823h173.547c8.384,0,15.186-6.8,15.186-15.183
		C502.78,321.251,495.979,314.455,487.595,314.455z"/>
	<path fill="#EE3B3F" d="M265.81,572.188c0,3.687-3.015,6.702-6.699,6.702h-54.499c-3.685,0-6.702-3.016-6.702-6.702V446.221
		c0-3.687,3.018-6.701,6.702-6.701h54.499c3.684,0,6.699,3.015,6.699,6.701V572.188z"/>
	<path fill="#BE222A" d="M265.81,598.097c0,3.685-3.015,6.702-6.699,6.702h-71.919c-3.684,0-6.7-3.018-6.7-6.702v-24.122
		c0-3.684,3.016-6.698,6.7-6.698h71.919c3.684,0,6.699,3.015,6.699,6.698V598.097z"/>
	<path fill="#FAAC40" d="M590.552,488.658H331.026v-16.527c0-3.686-3.014-6.701-6.701-6.701h-54.497
		c-3.683,0-6.697,3.016-6.697,6.701v125.966c0,3.685,3.014,6.702,6.697,6.702h21.623c-1.555-4.433-2.412-9.17-2.412-14.072
		c0-23.745,19.81-43.551,43.552-43.551c1.868,0,3.709,0.135,5.52,0.372c3.795-1.107,7.785-1.713,11.9-1.713
		c23.742,0,43.553,19.807,43.553,43.551c0,5.403-1.037,10.597-2.905,15.413h83.404c1.42-22.537,20.614-40.875,43.458-40.875
		c22.84,0,42.034,18.338,43.455,40.875h29.575c3.685,0,6.701-3.018,6.701-6.702v-102.74
		C597.253,491.672,594.236,488.658,590.552,488.658z"/>
	<path fill="#FAAC40" d="M650.868,581.344c-5.231,0-10.388-2.443-13.654-7.03l-68.785-96.554
		c-125.573-16.147-308.296-39.525-318.565-40.504c-8.794-0.507-15.768-7.799-15.768-16.718c0-9.253,7.501-16.752,16.752-16.752
		c1.394,0,5.094,0,329.11,41.681c4.631,0.594,8.799,3.092,11.507,6.894l73.032,102.513c5.37,7.537,3.611,17.993-3.923,23.362
		C657.624,580.339,654.232,581.344,650.868,581.344z M249.977,437.264c0.422,0.028,0.715,0.021,0.872,0.024
		C250.555,437.288,250.265,437.281,249.977,437.264z"/>
	<path fill="#213228" d="M270.276,427.124c0,13.876-11.25,25.129-25.126,25.129c-13.876,0-25.126-11.253-25.126-25.129
		c0-13.875,11.25-25.124,25.126-25.124C259.026,402,270.276,413.249,270.276,427.124z"/>
	<path fill="#213228" d="M349.27,495.107c-52.585,0-95.218,42.632-95.218,95.223c0,52.583,42.632,95.215,95.218,95.215
		c52.586,0,95.216-42.632,95.216-95.215C444.485,537.739,401.855,495.107,349.27,495.107z M349.27,629.147
		c-21.442,0-38.824-17.376-38.824-38.817c0-21.439,17.382-38.828,38.824-38.828c21.442,0,38.819,17.389,38.819,38.828
		C388.089,611.771,370.712,629.147,349.27,629.147z"/>
	<path fill="#213228" d="M522.208,546.223c-38.473,0-69.66,31.187-69.66,69.661c0,38.471,31.188,69.661,69.66,69.661
		c38.472,0,69.664-31.19,69.664-69.661C591.872,577.409,560.68,546.223,522.208,546.223z M522.208,644.285
		c-15.684,0-28.401-12.714-28.401-28.401c0-15.685,12.718-28.407,28.401-28.407c15.687,0,28.401,12.723,28.401,28.407
		C550.609,631.571,537.895,644.285,522.208,644.285z"/>
</g>
<text transform="matrix(1 0 0 1 112.0664 542.0713)" display="none" fill="#FFFFFF" font-family="'FranklinGothic-Medium'" font-size="146.9913">Hrubá síla</text>
<g>
	<path fill="#FFFFFF" d="M195.897,542.071h-17.656V499.51h-37.394v42.562h-17.656v-97.97h17.656v40.265h37.394v-40.265h17.656
		V542.071z"/>
	<path fill="#FFFFFF" d="M293.796,542.071h-18.661l-15.216-40.265h-24.833v40.265H217.43v-97.97h42.49
		c11.818,0,20.502,2.668,26.053,8.002c5.55,5.336,8.326,12.237,8.326,20.707c0,12.585-5.885,21.245-17.656,25.982L293.796,542.071z
		 M235.086,487.667h21.962c6.363,0,11.1-1.339,14.211-4.02c3.11-2.679,4.666-6.363,4.666-11.053c0-4.306-1.532-7.787-4.594-10.443
		c-3.063-2.655-7.346-3.983-12.847-3.983h-23.398V487.667z"/>
	<path fill="#FFFFFF" d="M378.417,444.101v62.945c0,8.518-0.958,15.072-2.871,19.666c-1.915,4.594-5.611,8.554-11.089,11.879
		c-5.479,3.326-12.166,4.988-20.061,4.988c-7.992,0-14.559-1.436-19.702-4.307c-5.145-2.871-8.841-6.807-11.089-11.807
		c-2.25-5-3.373-11.376-3.373-19.128v-64.237h18.015v62.945c0,8.613,1.805,14.272,5.418,16.975
		c3.612,2.704,7.811,4.056,12.596,4.056c5.502,0,9.905-1.447,13.207-4.343c3.301-2.895,4.952-8.457,4.952-16.688v-62.945H378.417z"
		/>
	<path fill="#FFFFFF" d="M398.585,542.071v-97.97h38.183c6.459,0,11.818,0.67,16.077,2.01c4.258,1.34,7.942,4.139,11.053,8.397
		c3.11,4.259,4.665,9.259,4.665,15c0,5.408-1.579,10.109-4.737,14.104c-3.158,3.996-7.513,6.543-13.063,7.644
		c6.89,1.197,12.105,3.996,15.646,8.397c3.541,4.403,5.312,9.618,5.312,15.646c0,7.562-2.476,13.913-7.429,19.056
		c-4.952,5.145-12.573,7.716-22.86,7.716H398.585z M415.308,485.227h21.532c4.402,0,7.883-1.315,10.443-3.948
		c2.559-2.631,3.84-5.98,3.84-10.048c0-4.497-1.46-7.811-4.378-9.941c-2.919-2.128-6.341-3.194-10.264-3.194h-21.173V485.227z
		 M415.308,527.358h22.824c4.833,0,8.648-1.268,11.448-3.805c2.799-2.535,4.199-5.957,4.199-10.263c0-4.115-1.424-7.488-4.271-10.12
		c-2.847-2.631-6.615-3.948-11.304-3.948h-22.896V527.358z"/>
	<path fill="#FFFFFF" d="M564.738,542.071h-18.875l-7.824-23.326h-37.68l-7.68,23.326h-15.072l32.512-97.97h21.748L564.738,542.071z
		 M533.303,504.606l-14.283-43.71l-14.283,43.71H533.303z M539.762,412.88l4.736,10.766l-29.928,12.632l-3.016-7.68L539.762,412.88z
		"/>
	<path fill="#FFFFFF" d="M602.994,518.458l17.154-3.66c2.057,9.714,9.951,14.57,23.684,14.57c6.27,0,11.09-1.244,14.463-3.732
		c3.373-2.487,5.061-5.574,5.061-9.259c0-2.68-0.766-5.155-2.297-7.429c-1.531-2.272-4.809-4.055-9.832-5.347l-18.734-4.881
		c-6.412-1.674-11.148-3.576-14.211-5.706c-3.063-2.128-5.516-5.131-7.355-9.007c-1.844-3.875-2.764-8.014-2.764-12.417
		c0-8.756,3.254-15.778,9.762-21.065c6.506-5.287,14.832-7.931,24.977-7.931c8.42,0,15.945,1.843,22.572,5.526
		c6.627,3.686,10.85,8.9,12.668,15.647l-16.795,4.163c-2.584-7.416-8.613-11.125-18.086-11.125c-5.504,0-9.703,1.148-12.598,3.445
		s-4.342,5.216-4.342,8.756c0,5.598,4.545,9.522,13.637,11.771l16.652,4.163c10.094,2.537,16.865,6.28,20.311,11.232
		c3.445,4.953,5.168,10.419,5.168,16.401c0,9.617-3.625,17.189-10.873,22.716c-7.25,5.526-16.641,8.29-28.172,8.29
		c-9.713,0-18.219-2.033-25.516-6.101C610.23,533.412,605.387,527.071,602.994,518.458z"/>
	<path fill="#FFFFFF" d="M725.225,412.88l4.736,10.766l-29.93,12.632l-3.014-7.68L725.225,412.88z M714.889,542.071h-17.656v-97.97
		h17.656V542.071z"/>
	<path fill="#FFFFFF" d="M796.711,542.071H736.42v-97.97h18.59v81.965h41.701V542.071z"/>
	<path fill="#FFFFFF" d="M886.57,542.071h-18.877l-7.822-23.326h-37.682l-7.68,23.326h-15.072l32.514-97.97h21.746L886.57,542.071z
		 M855.133,504.606l-14.283-43.71l-14.281,43.71H855.133z"/>
</g>
</svg>
