<?xml version="1.0" encoding="utf-8"?>
<!-- Generator: Adobe Illustrator 16.0.0, SVG Export Plug-In . SVG Version: 6.00 Build 0)  -->
<!DOCTYPE svg PUBLIC "-//W3C//DTD SVG 1.1//EN" "http://www.w3.org/Graphics/SVG/1.1/DTD/svg11.dtd">
<svg version="1.1" id="Layer_1" xmlns="http://www.w3.org/2000/svg" xmlns:xlink="http://www.w3.org/1999/xlink" x="0px" y="0px"
	 width="1000px" height="1000px" viewBox="0 0 1000 1000" enable-background="new 0 0 1000 1000" xml:space="preserve">
<circle fill="#FFC82A" cx="500" cy="500" r="481.376"/>
<g>
	<path fill="#F9E385" d="M895.979,603.671c-9.382,4.744-16.271,9.655-22.1,16.146c4.866-16.79,8.735-34.529,11.555-53.235
		c20.335,2.252,35.012-2.407,51.647-16.242c14.396-11.979,21.142-22.836,25.911-41.7c-21.637-2.207-36.295,2.289-53.587,16.406
		c-10.701,8.742-17.258,16.803-22.104,27.913c2.158-17.896,3.39-36.642,3.596-56.269c0.021-1.831,0.008-3.646,0.008-5.468
		c20.891-2.186,34.558-9.985,48.354-27.496c11.771-14.925,16.266-27.05,17.261-46.561c-21.586,2.653-35.053,10.308-49.234,27.984
		c-9.185,11.447-14.065,21.162-16.551,33.957c-0.643-21.865-2.908-43.025-6.713-63.382c19.178-6.824,30.706-17.463,40.582-37.208
		c8.614-17.228,10.656-30.076,7.851-49.394c-20.596,7.425-32.293,17.913-42.729,38.34c-5.678,11.119-8.618,20.36-9.397,30.762
		c-4.523-19.221-10.444-37.671-17.671-55.256c16.524-10.763,25.397-23.601,31.072-44.521c5.086-18.772,4.593-31.816-1.889-50.077
		c-18.711,11.853-28.115,24.705-34.361,47.025c-2.929,10.462-4.15,19.11-3.623,27.919c-7.904-16.288-16.981-31.753-27.149-46.313
		c13.748-14.065,19.83-28.521,21.295-50.016c1.343-19.491-1.66-32.127-11.557-48.551c-16.011,15.759-22.71,30.447-24.486,53.664
		c-0.819,10.628-0.357,19.202,1.726,27.519c-10.91-13.62-22.869-26.327-35.771-38.055c11.029-17.053,14.275-32.674,11.524-54.279
		c-2.473-19.354-7.875-31.05-20.728-44.895c-12.609,18.983-16.311,34.818-13.551,57.939c1.384,11.556,3.765,20.382,8.091,28.657
		c-13.73-11.094-28.394-21.162-43.931-30.124c7.99-19.701,8.276-35.953,1.236-56.901c-6.168-18.401-13.714-28.631-28.977-39.313
		c-8.652,21.364-9.199,37.707-2.017,59.702c4.048,12.368,8.652,21.075,15.743,28.859c-16.238-8.404-33.334-15.651-51.212-21.662
		c4.156-21.361,1.365-37.454-9.7-56.59c-9.595-16.598-18.964-24.939-35.97-31.985c-4.307,22.829-1.678,38.937,9.603,58.84
		c6.53,11.513,12.882,19.103,21.69,25.219c-5.792-1.695-11.64-3.279-17.581-4.714l-14.193,3.263
		c9.296,2.248,18.451,4.858,27.441,7.792c-14.353,2.708-25.541,9.643-37.201,22.498c-12.71,14.019-17.979,25.774-20.256,45.152
		c21.714-1.037,35.65-7.656,50.938-24.218c11.437-12.392,17.007-22.915,20.117-38.708c16.081,5.946,31.603,12.97,46.487,20.994
		c-12.463,0.517-23.497,4.883-35.806,13.714c-15.152,10.872-22.589,21.186-28.574,39.639c21.438,3.828,36.355,0.455,54.526-12.341
		c13.011-9.154,20.433-17.849,26.399-31.533c14.212,8.665,27.765,18.29,40.561,28.783c-11.704-1.825-22.92,0.079-36.06,5.719
		c-16.929,7.244-26.211,15.682-35.638,32.415c20.226,8.518,35.474,8.542,55.721,0.061c14.345-5.985,23.243-12.749,31.643-24.542
		c12.382,11.434,23.928,23.746,34.559,36.864c-11.152-4.46-22.535-5.123-36.549-2.541c-17.954,3.325-28.67,9.514-41.141,23.771
		c18.137,12.853,33.047,16.27,54.496,12.497c15.269-2.68,25.301-7.337,35.874-17.101c9.992,13.959,18.996,28.71,26.91,44.181
		c-10.147-7.049-21.266-10.318-35.684-10.91c-18.206-0.742-29.885,2.911-44.856,14.085c15.259,16.598,29.174,23.254,50.89,24.369
		c15.509,0.778,26.264-1.564,38.551-8.831c6.903,15.718,12.721,32.089,17.36,49.043c-8.513-9.001-18.687-14.605-32.522-18.356
		c-17.686-4.784-29.817-3.809-46.615,3.768c11.697,19.646,24.012,29.274,45.04,35.175c14.898,4.196,25.808,4.335,39.071,0.084
		c3.45,16.342,5.812,33.167,7.018,50.418c-6.496-10.037-15.162-17.415-27.457-23.908c-16.356-8.626-28.417-10.371-46.327-6.698
		c7.645,21.816,17.824,33.983,37.244,44.45c13.512,7.293,24.016,9.898,37.474,8.846c0.026,2.779,0.026,5.563,0,8.36
		c-0.164,14.689-0.899,28.843-2.185,42.472c-4.407-11.267-11.452-20.423-22.224-29.508c-14.327-12.085-25.79-16.479-44.012-16.87
		c3.239,23.021,10.845,37.201,27.805,51.772c12.049,10.337,21.97,15.223,35.749,17.119c-2.83,19.589-6.858,38.021-11.99,55.334
		c-1.327-14.689-6.578-26.847-16.829-40.032c-11.673-15.021-22.022-21.879-39.783-26.333c-1.302,23.262,3.396,38.83,17.17,56.848
		c10.4,13.634,19.659,20.667,34.237,25.638c-7.06,20.135-15.704,38.65-25.749,55.643c2.844-16.812,0.318-31.083-8.003-48.011
		c-8.501-17.286-17.304-26.307-33.809-34.611c-5.781,22.459-4.203,38.709,5.765,59.432c7.747,16.101,15.665,25.104,29.696,33.424
		c-10.683,16.467-22.75,31.404-36.038,44.869c4.929-14.638,4.908-28.468,0.369-45.655c-4.965-18.816-11.827-29.588-26.354-41.391
		c-10.018,20.684-11.632,36.934-5.894,59.411c4.28,16.771,9.98,27.192,21.137,37.946c-12.094,11.042-25.066,21.007-38.819,29.933
		c4.802-11.003,6.416-22.705,5.504-37.277c-1.197-19.518-5.823-31.578-17.747-46.357c-13.806,17.98-18.53,33.53-17.285,56.778
		c0.845,15.682,3.819,26.539,10.869,38.066c-15.69,8.737-32.246,16.284-49.513,22.698c7.176-9.876,11.188-21.155,13.188-36.017
		c2.594-19.347,0.422-32.188-8.381-49.285c-16.999,14.506-24.644,28.665-27.928,51.692c-2.25,15.795-1.387,27.195,3.507,40.337
		c-21.638,6.804-44.237,11.967-67.562,15.646c17.363-9.182,27.252-21.149,34.609-41.476c6.59-18.222,7.156-31.266,2.18-50.072
		c-19.606,10.063-30.018,22.009-38.059,43.646c-6.569,17.723-7.501,30.446-3.475,48.636c-1.098,0.169-2.211,0.313-3.315,0.469
		c-0.157,0-0.313-0.006-0.481-0.006l0.012,0.073c-12.726,1.796-25.645,3.165-38.735,4.108c-14.102,1.017-27.089,5.024-39.332,10.878
		c-12.166-5.797-25.067-9.757-39.073-10.76c-13.09-0.937-26.01-2.317-38.734-4.109l0.014-0.074c-0.163,0-0.313,0.008-0.478,0.008
		c-1.107-0.156-2.217-0.301-3.321-0.47c4.029-18.188,3.095-30.914-3.478-48.636c-8.041-21.637-18.45-33.589-38.059-43.646
		c-4.973,18.808-4.408,31.832,2.183,50.073c7.357,20.325,17.25,32.294,34.609,41.474c-23.318-3.677-45.926-8.839-67.558-15.646
		c4.894-13.142,5.755-24.54,3.501-40.335c-3.293-23.031-10.927-37.187-27.927-51.712c-8.794,17.121-10.974,29.955-8.376,49.305
		c1.998,14.856,6.007,26.139,13.188,36.016c-17.27-6.43-33.825-13.961-49.518-22.699c7.053-11.526,10.025-22.387,10.865-38.063
		c1.256-23.251-3.475-38.801-17.28-56.782c-11.923,14.781-16.548,26.85-17.754,46.359c-0.903,14.587,0.71,26.278,5.519,37.285
		c-13.76-8.933-26.732-18.898-38.826-29.934c11.161-10.759,16.853-21.182,21.136-37.954c5.735-22.476,4.123-38.721-5.893-59.408
		c-14.531,11.799-21.389,22.573-26.355,41.382c-4.54,17.202-4.563,31.023,0.379,45.67c-13.295-13.475-25.367-28.411-36.05-44.883
		c14.034-8.314,21.948-17.317,29.7-33.419c9.969-20.722,11.547-36.973,5.762-59.43c-16.503,8.302-25.307,17.324-33.81,34.603
		c-8.319,16.915-10.841,31.2-8.007,48.019c-10.045-16.992-18.685-35.507-25.742-55.643c14.578-4.971,23.836-12.003,34.24-25.625
		c13.767-18.033,18.464-33.6,17.159-56.854c-17.754,4.452-28.106,11.304-39.778,26.318c-10.249,13.195-15.503,25.354-16.83,40.049
		c-5.133-17.325-9.15-35.757-11.986-55.345c13.78-1.897,23.71-6.776,35.748-17.117c16.967-14.568,24.569-28.748,27.801-51.771
		c-18.225,0.386-29.682,4.783-44.01,16.871c-10.77,9.082-17.818,18.237-22.225,29.507c-1.277-13.631-2.021-27.782-2.174-42.472
		c-0.029-2.797-0.029-5.583,0-8.359c13.453,1.052,23.952-1.556,37.469-8.849c19.416-10.467,29.604-22.636,37.235-44.449
		c-17.903-3.673-29.966-1.936-46.32,6.698c-12.295,6.493-20.965,13.87-27.46,23.907c1.21-17.253,3.576-34.076,7.016-50.419
		c13.274,4.253,24.182,4.109,39.077-0.086c21.02-5.918,33.344-15.527,45.038-35.171c-16.794-7.578-28.932-8.573-46.605-3.771
		c-13.839,3.751-24.014,9.356-32.528,18.356c4.631-16.95,10.46-33.321,17.355-49.04c12.289,7.269,23.044,9.609,38.554,8.832
		c21.715-1.117,35.63-7.773,50.886-24.377c-14.963-11.169-26.644-14.842-44.856-14.081c-14.409,0.591-25.528,3.86-35.677,10.91
		c7.911-15.471,16.918-30.222,26.915-44.184c10.563,9.764,20.6,14.424,35.867,17.104c21.447,3.772,36.36,0.331,54.494-12.497
		c-12.47-14.254-23.182-20.451-41.147-23.766c-14.01-2.603-25.392-1.934-36.539,2.523c10.635-13.111,22.182-25.423,34.555-36.853
		c8.403,11.794,17.299,18.557,31.641,24.542c20.252,8.477,35.498,8.457,55.725-0.076c-9.435-16.718-18.714-25.155-35.639-32.399
		c-13.141-5.642-24.354-7.545-36.064-5.716c12.804-10.497,26.351-20.114,40.569-28.787c5.97,13.681,13.382,22.379,26.399,31.531
		c18.167,12.797,33.086,16.174,54.521,12.343c-5.983-18.457-13.419-28.785-28.572-39.639c-12.297-8.832-23.338-13.197-35.811-13.715
		c14.889-8.021,30.415-15.048,46.496-20.994c3.106,15.792,8.68,26.315,20.112,38.703c15.295,16.57,29.229,23.187,50.939,24.221
		c-2.278-19.394-7.548-31.147-20.26-45.15c-11.664-12.854-22.844-19.791-37.194-22.502c8.993-2.924,18.144-5.536,27.438-7.794
		l-14.2-3.254c-5.936,1.437-11.784,3.02-17.574,4.711c8.802-6.112,15.158-13.707,21.689-25.218
		c11.287-19.901,13.908-36.016,9.597-58.843c-17.003,7.047-26.361,15.388-35.964,31.99c-11.06,19.131-13.854,35.226-9.693,56.587
		c-17.877,6.008-34.974,13.256-51.221,21.663c7.094-7.784,11.7-16.485,15.746-28.86c7.188-21.991,6.631-38.337-2.014-59.7
		c-15.263,10.682-22.807,20.915-28.979,39.31c-7.035,20.951-6.743,37.202,1.236,56.907c-15.538,8.958-30.209,19.029-43.942,30.13
		c4.33-8.278,6.724-17.102,8.107-28.66c2.753-23.128-0.948-38.988-13.552-57.944c-12.858,13.843-18.259,25.541-20.725,44.895
		c-2.758,21.605,0.485,37.228,11.521,54.271c-12.907,11.731-24.861,24.439-35.777,38.063c2.088-8.319,2.547-16.89,1.73-27.514
		c-1.782-23.225-8.48-37.911-24.497-53.67c-9.883,16.426-12.895,29.061-11.557,48.551c1.472,21.495,7.552,35.951,21.306,50.019
		c-10.175,14.555-19.247,30.021-27.151,46.311c0.523-8.808-0.689-17.458-3.621-27.919c-6.241-22.317-15.649-35.168-34.362-47.026
		c-6.486,18.262-6.98,31.306-1.89,50.074c5.67,20.926,14.544,33.758,31.073,44.524c-7.23,17.579-13.147,36.028-17.672,55.246
		c-0.78-10.399-3.719-19.64-9.395-30.752c-10.435-20.427-22.131-30.915-42.734-38.338c-2.805,19.315-0.759,32.164,7.861,49.391
		c9.868,19.738,21.394,30.38,40.566,37.206c-3.797,20.356-6.067,41.515-6.701,63.378c-2.495-12.789-7.367-22.504-16.558-33.954
		c-14.179-17.673-27.647-25.327-49.234-27.981c1.002,19.509,5.497,31.636,17.261,46.554c13.803,17.52,27.47,25.302,48.355,27.5
		c-0.007,1.814-0.014,3.627,0.007,5.452c0.212,19.637,1.438,38.39,3.601,56.299c-4.851-11.127-11.407-19.191-22.109-27.924
		c-17.286-14.123-31.949-18.61-53.587-16.408c4.769,18.867,11.518,29.723,25.916,41.695c16.637,13.84,31.301,18.505,51.645,16.253
		c2.83,18.703,6.696,36.454,11.56,53.239c-5.831-6.493-12.717-11.405-22.105-16.153c-19.654-9.965-34.863-11.076-55.601-4.102
		c8.317,17.397,17.024,26.5,33.438,35.008c17.985,9.33,32.639,10.956,50.722,5.336c5.672,16.081,12.306,31.208,19.803,45.428
		c-5.73-3.35-12.126-5.77-19.988-7.753c-21.149-5.368-36.246-3.065-55.171,8.385c11.505,15.145,21.798,22.119,39.496,26.788
		c18.631,4.898,32.88,3.567,48.688-4.982c8.814,13.845,18.534,26.701,29.066,38.605c-5.955-1.784-12.366-2.635-19.984-2.824
		c-21.724-0.532-36.048,5.075-52.348,20.506c14.205,12.244,25.62,16.771,43.838,17.396c19.314,0.65,33.049-3.889,46.951-15.965
		c12.353,11.724,25.58,22.354,39.587,31.918c-7.396-1.04-14.955-0.547-24.055,1.295c-21.354,4.312-34.281,13.003-47.229,31.714
		c16.272,8.828,28.314,10.723,46.257,7.268c19.846-3.834,32.648-11.861,44.289-28.085c14.573,8.56,29.859,16.095,45.732,22.628
		c-5.665,1.054-11.441,2.989-17.934,5.905c-20.051,9.003-31.009,20.369-40.045,41.559c17.62,5.021,29.771,4.176,46.648-3.202
		c17.799-7.793,28.605-17.877,36.711-34.817c13.03,4.359,26.384,8.105,40.016,11.26c-1.77,1.205-3.571,2.52-5.433,3.951
		c-17.649,13.59-25.937,27.323-30.296,50.146c18.223,0.631,29.885-3.123,44.775-14.392c12.786-9.653,20.72-19.699,25.583-33.048
		c14.123,2.192,28.472,3.811,42.995,4.852c6.871,0.496,13.247,1.732,19.258,3.521c-28.001,18.552-52.725,44.388-79.35,61.316
		l21.244,9.509c29.656-18.852,50.494-46.28,78.206-62.127c27.827,15.833,48.689,43.353,78.412,62.245l21.255-9.511
		c-26.705-16.98-51.499-42.909-79.594-61.473c6.081-1.841,12.535-3.103,19.502-3.596c14.515-1.05,28.864-2.662,42.989-4.854
		c4.859,13.349,12.795,23.393,25.58,33.074c14.89,11.241,26.549,14.996,44.778,14.363c-4.358-22.819-12.647-36.553-30.297-50.144
		c-1.86-1.432-3.665-2.747-5.438-3.944c13.635-3.16,26.992-6.908,40.016-11.267c8.106,16.94,18.912,27.024,36.716,34.819
		c16.877,7.376,29.029,8.224,46.648,3.2c-9.03-21.188-19.988-32.554-40.042-41.558c-6.495-2.916-12.271-4.854-17.938-5.907
		c15.88-6.532,31.16-14.065,45.74-22.627c11.64,16.224,24.442,24.254,44.283,28.077c17.942,3.464,29.985,1.569,46.256-7.259
		c-12.952-18.71-25.867-27.403-47.229-31.714c-9.096-1.845-16.655-2.329-24.053-1.297c14.007-9.563,27.24-20.193,39.587-31.915
		c13.903,12.073,27.636,16.62,46.952,15.964c18.215-0.626,29.624-5.153,43.828-17.396c-16.285-15.432-30.616-21.039-52.344-20.507
		c-7.613,0.183-14.021,1.042-19.973,2.811c10.532-11.892,20.245-24.746,29.074-38.591c15.795,8.55,30.041,9.884,48.666,4.984
		c17.716-4.671,27.994-11.646,39.503-26.797c-18.919-11.444-34.03-13.748-55.174-8.371c-7.854,1.975-14.247,4.396-19.979,7.739
		c7.502-14.214,14.138-29.34,19.802-45.421c18.074,5.619,32.729,3.992,50.713-5.328c16.418-8.516,25.118-17.612,33.439-35.016
		C930.843,592.596,915.631,593.71,895.979,603.671"/>
</g>
<circle fill="#007F3D" cx="500" cy="500" r="355.558"/>
<circle fill="#00A54F" cx="500" cy="497.75" r="313.922"/>
<g>
	<circle opacity="0.1" fill="#1CA5B0" cx="500.289" cy="500" r="216.694"/>
	<g>
		<g>
			<path fill="#1CA5B0" d="M725.566,364.034c-38.418-8.464-77.125-12.754-115.993-12.754c-37.753,0-74.493,4.081-109.432,12.105
				c-37.44-8.024-75.468-12.105-113.309-12.105c-38.85,0-77.001,4.307-112.84,12.804l-10.493,2.458v289.624l14.592-1.043
				c36.727-2.648,73.202-3.994,109.828-3.994c32.471,0,59.58,1.062,92.58,3.149v1.888c0,0,3.763,4.132,18.963,4.132
				c15.2,0,19.037-4.132,19.037-4.132v-1.895c33-2.082,60.535-3.143,92.982-3.143c36.625,0,73.408,1.346,110.134,3.994l13.884,1.043
				v-289.8L725.566,364.034z"/>
		</g>
		<g>
			<g>
				<path fill="#C9E7D1" d="M723.312,641.679c-74.442-5.37-148.581-5.37-223.022,0c0-88.157,0-176.32,0-264.482
					c72.463-17.177,150.466-15.984,223.022,0C723.312,465.358,723.312,553.521,723.312,641.679z"/>
			</g>
			<g>
				<path fill="#C9E7D1" d="M500.289,641.679c-74.442-5.37-148.581-5.37-223.023,0c0-88.157,0-176.32,0-264.482
					c72.463-17.177,150.466-15.984,223.023,0C500.289,465.358,500.289,553.521,500.289,641.679z"/>
			</g>
			<g>
				<g>
					<path fill="#FFFFFF" d="M500.29,641.679c-70.913-20.014-138.631-20.01-209.544,0c0-87.884,0-175.764,0-263.646
						c70.96-31.107,138.444-30.262,209.544,0C500.29,465.915,500.293,553.795,500.29,641.679z"/>
				</g>
			</g>
			<g>
				<g>
					<path fill="#EAF5ED" d="M498.604,641.679c70.914-20.014,138.63-20.01,209.544,0c-0.004-87.884,0-175.764,0-263.646
						c-70.961-31.107-138.441-30.262-209.544,0C498.606,465.915,498.606,553.795,498.604,641.679z"/>
				</g>
			</g>
			<g>
				<g>
					<g>
						<path fill="#ED8E22" d="M682.764,401.863c-0.259,0-0.521-0.032-0.783-0.099c-54.762-14.023-105.771-14.024-160.537,0
							c-1.685,0.433-3.396-0.584-3.826-2.266c-0.431-1.683,0.584-3.396,2.266-3.827c55.83-14.295,107.833-14.295,163.658,0
							c1.683,0.431,2.697,2.145,2.266,3.827C685.442,400.919,684.165,401.863,682.764,401.863z"/>
					</g>
					<g>
						<path fill="#ED8E22" d="M682.764,420.732c-0.259,0-0.521-0.031-0.783-0.099c-54.765-14.025-105.775-14.025-160.537,0
							c-1.685,0.434-3.396-0.584-3.826-2.267c-0.431-1.682,0.583-3.396,2.266-3.827c55.827-14.296,107.831-14.296,163.658,0
							c1.683,0.431,2.697,2.145,2.266,3.827C685.442,419.788,684.165,420.732,682.764,420.732z"/>
					</g>
					<g>
						<path fill="#ED8E22" d="M682.764,439.603c-0.259,0-0.521-0.032-0.783-0.099c-54.765-14.022-105.776-14.021-160.537,0
							c-1.685,0.429-3.396-0.585-3.826-2.267c-0.431-1.683,0.584-3.396,2.266-3.827c55.821-14.295,107.828-14.293,163.658,0
							c1.681,0.431,2.697,2.145,2.266,3.827C685.442,438.658,684.165,439.603,682.764,439.603z"/>
					</g>
					<g>
						<path fill="#ED8E22" d="M520.66,458.474c-1.401,0-2.679-0.944-3.043-2.364c-0.431-1.684,0.583-3.397,2.266-3.828
							c55.815-14.298,107.821-14.297,163.658,0c1.681,0.431,2.697,2.144,2.266,3.827c-0.431,1.682-2.145,2.699-3.826,2.267
							c-54.772-14.027-105.784-14.025-160.537,0C521.183,458.442,520.919,458.474,520.66,458.474z"/>
					</g>
					<g>
						<path fill="#ED8E22" d="M520.662,477.342c-1.358,0-2.61-0.887-3.014-2.255c-0.492-1.666,0.459-3.415,2.125-3.907
							c19.61-5.79,39.884-9.502,60.25-11.034c1.735-0.136,3.242,1.167,3.371,2.9c0.131,1.731-1.169,3.241-2.898,3.372
							c-19.925,1.499-39.755,5.132-58.942,10.795C521.257,477.3,520.957,477.342,520.662,477.342z"/>
					</g>
					<g>
						<path fill="#ED8E22" d="M520.66,496.213c-1.401,0-2.679-0.944-3.043-2.365c-0.431-1.683,0.584-3.396,2.266-3.827
							c55.822-14.293,107.825-14.294,163.658,0c1.681,0.431,2.697,2.144,2.266,3.827c-0.431,1.682-2.145,2.698-3.826,2.267
							c-54.768-14.022-105.778-14.023-160.537,0C521.183,496.182,520.919,496.213,520.66,496.213z"/>
					</g>
					<g>
						<path fill="#ED8E22" d="M682.764,515.084c-0.259,0-0.521-0.032-0.783-0.1c-54.759-14.026-105.77-14.025-160.537-0.001
							c-1.685,0.433-3.396-0.585-3.826-2.267c-0.431-1.683,0.583-3.396,2.266-3.827c55.83-14.296,107.833-14.297,163.658,0.002
							c1.683,0.43,2.697,2.144,2.266,3.826C685.442,514.139,684.165,515.084,682.764,515.084z"/>
					</g>
					<g>
						<path fill="#ED8E22" d="M682.764,533.953c-0.259,0-0.521-0.032-0.783-0.099c-54.756-14.022-105.768-14.022-160.537-0.001
							c-1.685,0.432-3.396-0.584-3.826-2.267c-0.431-1.682,0.584-3.396,2.266-3.827c55.834-14.294,107.836-14.295,163.658,0.001
							c1.683,0.431,2.697,2.145,2.266,3.827C685.442,533.007,684.165,533.953,682.764,533.953z"/>
					</g>
					<g>
						<path fill="#ED8E22" d="M520.662,552.822c-1.358,0-2.61-0.887-3.014-2.257c-0.492-1.666,0.459-3.414,2.125-3.906
							c18.044-5.328,36.696-8.903,55.439-10.631c1.727-0.169,3.26,1.114,3.42,2.844c0.16,1.729-1.114,3.26-2.844,3.42
							c-18.336,1.689-36.583,5.188-54.235,10.4C521.257,552.78,520.957,552.822,520.662,552.822z"/>
					</g>
					<g>
						<path fill="#ED8E22" d="M682.764,571.691c-0.259,0-0.521-0.032-0.783-0.099c-54.758-14.024-105.769-14.024-160.537,0
							c-1.685,0.432-3.396-0.586-3.826-2.268c-0.431-1.682,0.584-3.395,2.266-3.826c55.834-14.297,107.836-14.297,163.658,0
							c1.683,0.432,2.697,2.145,2.266,3.826C685.442,570.747,684.165,571.691,682.764,571.691z"/>
					</g>
					<g>
						<path fill="#ED8E22" d="M520.66,590.561c-1.398,0-2.675-0.943-3.042-2.362c-0.434-1.681,0.578-3.396,2.26-3.829
							c30.434-7.843,59.213-11.557,90.565-11.687c1.766,0.048,3.15,1.396,3.159,3.133c0.005,1.737-1.397,3.151-3.134,3.159
							c-30.819,0.126-59.105,3.775-89.02,11.485C521.186,590.527,520.921,590.561,520.66,590.561z"/>
					</g>
				</g>
			</g>
			<g>
				<g>
					<g>
						<path fill="#ED8E22" d="M475.207,401.816c-0.275,0-0.556-0.036-0.833-0.112c-54.728-15.004-105.711-15.005-160.449-0.001
							c-1.67,0.46-3.405-0.526-3.865-2.202c-0.459-1.675,0.527-3.406,2.202-3.865c55.872-15.313,107.912-15.313,163.775,0.001
							c1.676,0.459,2.661,2.189,2.202,3.865C477.855,400.898,476.588,401.816,475.207,401.816z"/>
					</g>
					<g>
						<path fill="#ED8E22" d="M313.09,420.684c-1.381,0-2.648-0.917-3.031-2.313c-0.459-1.675,0.527-3.406,2.202-3.865
							c55.87-15.313,107.909-15.313,163.775,0c1.675,0.459,2.661,2.19,2.202,3.865c-0.459,1.676-2.19,2.663-3.864,2.202
							c-54.731-15.002-105.715-15.002-160.449,0C313.645,420.648,313.365,420.684,313.09,420.684z"/>
					</g>
					<g>
						<path fill="#ED8E22" d="M475.207,439.555c-0.275,0-0.556-0.036-0.833-0.113c-54.729-15.005-105.713-15.005-160.449,0
							c-1.67,0.459-3.405-0.526-3.865-2.202c-0.459-1.675,0.527-3.406,2.202-3.865c55.874-15.314,107.914-15.314,163.775,0.001
							c1.676,0.459,2.661,2.189,2.202,3.865C477.855,438.638,476.588,439.555,475.207,439.555z"/>
					</g>
					<g>
						<path fill="#ED8E22" d="M475.207,458.426c-0.275,0-0.556-0.036-0.833-0.113c-54.72-15.006-105.704-15.009-160.449-0.001
							c-1.67,0.461-3.405-0.525-3.865-2.202c-0.459-1.675,0.527-3.405,2.202-3.864c55.881-15.318,107.921-15.318,163.775,0.002
							c1.676,0.459,2.661,2.189,2.201,3.864C477.854,457.508,476.588,458.426,475.207,458.426z"/>
					</g>
					<g>
						<path fill="#ED8E22" d="M313.09,477.292c-1.381,0-2.648-0.917-3.031-2.314c-0.459-1.675,0.527-3.405,2.203-3.864
							c23.413-6.412,45.561-10.285,69.702-12.187c1.738-0.136,3.247,1.157,3.382,2.888c0.136,1.732-1.157,3.246-2.888,3.382
							c-23.737,1.871-45.514,5.678-68.535,11.983C313.644,477.256,313.365,477.292,313.09,477.292z"/>
					</g>
					<g>
						<path fill="#ED8E22" d="M475.207,496.165c-0.275,0-0.556-0.037-0.833-0.114c-54.725-15.006-105.709-15.007-160.449,0
							c-1.67,0.461-3.405-0.525-3.865-2.202c-0.459-1.675,0.526-3.405,2.202-3.864c55.876-15.318,107.917-15.319,163.775,0.001
							c1.676,0.459,2.661,2.189,2.201,3.864C477.854,495.248,476.588,496.165,475.207,496.165z"/>
					</g>
					<g>
						<path fill="#ED8E22" d="M313.09,515.034c-1.381,0-2.647-0.917-3.03-2.313c-0.46-1.676,0.525-3.405,2.201-3.866
							c55.87-15.322,107.911-15.321,163.775,0.002c1.676,0.459,2.661,2.188,2.201,3.864c-0.458,1.675-2.189,2.665-3.864,2.2
							c-54.73-15.008-105.713-15.008-160.449,0C313.645,514.999,313.365,515.034,313.09,515.034z"/>
					</g>
					<g>
						<path fill="#ED8E22" d="M475.207,533.9c-0.275,0-0.556-0.035-0.833-0.11c-54.724-15.006-105.707-15.006-160.449-0.002
							c-1.666,0.464-3.405-0.526-3.864-2.201c-0.459-1.677,0.527-3.406,2.202-3.865c55.879-15.314,107.92-15.313,163.774,0.002
							c1.676,0.459,2.661,2.189,2.202,3.864C477.855,532.985,476.588,533.9,475.207,533.9z"/>
					</g>
					<g>
						<path fill="#ED8E22" d="M313.09,552.771c-1.385,0-2.654-0.923-3.033-2.324c-0.455-1.678,0.537-3.404,2.214-3.856
							c49.056-13.282,95.114-14.912,144.948-5.134c1.705,0.335,2.815,1.988,2.481,3.692c-0.335,1.703-1.991,2.81-3.692,2.48
							c-48.854-9.59-94.005-7.989-142.094,5.031C313.639,552.734,313.362,552.771,313.09,552.771z"/>
					</g>
					<g>
						<path fill="#ED8E22" d="M475.207,573.214c-0.275,0-0.556-0.034-0.833-0.111c-54.732-15.006-105.717-15.006-160.449,0
							c-1.67,0.46-3.405-0.525-3.865-2.202c-0.459-1.675,0.526-3.405,2.202-3.864c55.868-15.316,107.909-15.316,163.775,0
							c1.676,0.459,2.661,2.189,2.202,3.864C477.855,572.298,476.588,573.214,475.207,573.214z"/>
					</g>
					<g>
						<path fill="#ED8E22" d="M313.09,592.085c-1.384,0-2.653-0.921-3.033-2.321c-0.456-1.677,0.533-3.404,2.21-3.86
							c41.833-11.369,81.337-14.28,124.316-9.166c1.725,0.205,2.956,1.771,2.751,3.495c-0.206,1.723-1.774,2.947-3.495,2.751
							c-42.155-5.018-80.895-2.161-121.924,8.989C313.641,592.048,313.363,592.085,313.09,592.085z"/>
					</g>
				</g>
			</g>
		</g>
	</g>
</g>
</svg>
