<?xml version="1.0" encoding="utf-8"?>
<!-- Generator: Adobe Illustrator 16.0.0, SVG Export Plug-In . SVG Version: 6.00 Build 0)  -->
<!DOCTYPE svg PUBLIC "-//W3C//DTD SVG 1.1//EN" "http://www.w3.org/Graphics/SVG/1.1/DTD/svg11.dtd">
<svg version="1.1" id="Layer_1" xmlns="http://www.w3.org/2000/svg" xmlns:xlink="http://www.w3.org/1999/xlink" x="0px" y="0px"
	 width="1000px" height="1000px" viewBox="0 0 1000 1000" enable-background="new 0 0 1000 1000" xml:space="preserve">
<circle fill="#FAAC40" cx="500" cy="500" r="473.937"/>
<circle fill="#FFC388" cx="500" cy="500" r="418.439"/>
<g display="none">
	<path display="inline" fill="#1F80AA" d="M500.004,26.059C378.713,26.06,257.42,72.33,164.878,164.873
		c-185.087,185.086-185.087,485.17,0,670.253c92.541,92.543,213.835,138.813,335.126,138.815V26.059z"/>
	<path display="inline" fill="#29A7DF" d="M500.006,918.443l-0.002-836.888c-107.09,0-214.179,40.853-295.884,122.56
		c-163.414,163.412-163.413,428.355,0,591.769C285.825,877.59,392.914,918.443,500.006,918.443z"/>
</g>
<g>
	<path opacity="0.9" fill="#E5AE7C" d="M330.358,626.19v146.043H508V247.767H330.358v72.117l-56.154-32.495l-0.022,23.858
		l-49.68-0.046v209.257h129.942l142.964,59.218v46.515H330.358z M352.281,501.297H243.663V330.378l30.502,0.029l-0.023,23.859
		l56.216-32.393v71.938h167.16v47.327L352.281,501.297z"/>
	<polygon opacity="0.9" fill="#B28760" points="516.678,441.138 516.678,393.811 683.834,393.811 683.834,247.767 508,247.767 
		508,772.233 683.834,772.233 683.834,626.19 516.57,626.19 516.57,579.764 667.457,517.262 772.338,517.262 772.338,688.182 
		741.836,688.154 741.857,664.295 683.92,697.681 741.799,731.172 741.818,707.316 791.498,707.36 791.498,498.103 654.201,498.103 
			"/>
</g>
<text transform="matrix(1 0 0 1 102.2637 487.8638)" display="none"><tspan x="0" y="0" display="inline" fill="#FFFFFF" font-family="'FranklinGothic-Medium'" font-size="131.1799">Algoritmika</tspan><tspan x="164.68" y="157.416" display="inline" fill="#FFFFFF" font-family="'FranklinGothic-Medium'" font-size="131.1799">obecně</tspan></text>
<g>
	<path fill="#FFFFFF" d="M181.465,487.864h-16.846l-6.981-20.817h-33.628l-6.854,20.817h-13.451l29.016-87.432h19.408
		L181.465,487.864z M153.41,454.428l-12.747-39.008l-12.747,39.008H153.41z"/>
	<path fill="#FFFFFF" d="M245.773,487.864h-53.804v-87.432h16.59v73.148h37.214V487.864z"/>
	<path fill="#FFFFFF" d="M321.74,443.155v44.709h-6.981l-4.804-11.786c-5.082,8.754-12.96,13.131-23.635,13.131
		c-11.914,0-20.807-4.526-26.678-13.579c-5.872-9.053-8.807-19.536-8.807-31.45c0-12.596,3.277-23.261,9.832-31.994
		c6.555-8.732,15.725-13.099,27.511-13.099c8.796,0,16.034,2.552,21.714,7.654c5.679,5.103,9.266,11.455,10.761,19.056
		l-13.707,2.434c-2.562-10.674-8.69-16.013-18.383-16.013c-6.192,0-11.241,2.521-15.148,7.559
		c-3.907,5.039-5.861,12.79-5.861,23.251c0,22.077,6.918,33.115,20.753,33.115c5.381,0,9.833-1.857,13.355-5.573
		c3.523-3.715,5.285-8.625,5.285-14.732h-18.063v-12.683H321.74z"/>
	<path fill="#FFFFFF" d="M371.83,489.209c-11.616,0-20.657-4.355-27.126-13.067c-6.469-8.711-9.704-19.472-9.704-32.283
		c0-12.724,3.437-23.368,10.313-31.93c6.875-8.561,15.949-12.842,27.222-12.842c11.358,0,20.337,4.281,26.935,12.842
		c6.597,8.562,9.896,19.27,9.896,32.123c0,13.494-3.427,24.394-10.28,32.699C392.23,485.057,383.145,489.209,371.83,489.209z
		 M371.958,476.526c5.679,0,10.482-2.348,14.412-7.046c3.928-4.697,5.893-13.216,5.893-25.557c0-10.035-1.624-17.903-4.868-23.604
		c-3.246-5.701-8.285-8.551-15.116-8.551c-13.494,0-20.241,10.868-20.241,32.603c0,10.547,1.718,18.543,5.156,23.988
		C360.63,473.804,365.552,476.526,371.958,476.526z"/>
	<path fill="#FFFFFF" d="M492.184,487.864h-16.653l-13.579-35.934h-22.163v35.934h-15.757v-87.432h37.919
		c10.546,0,18.297,2.381,23.251,7.142c4.953,4.762,7.43,10.921,7.43,18.479c0,11.231-5.252,18.96-15.757,23.187L492.184,487.864z
		 M439.789,439.312h19.6c5.679,0,9.906-1.195,12.683-3.587c2.775-2.391,4.164-5.679,4.164-9.864c0-3.843-1.367-6.95-4.1-9.32
		c-2.733-2.37-6.555-3.555-11.465-3.555h-20.881V439.312z"/>
	<path fill="#FFFFFF" d="M524.083,487.864h-15.758v-87.432h15.758V487.864z"/>
	<path fill="#FFFFFF" d="M573.852,487.864h-16.91v-73.917H533.69v-13.515h63.412v13.515h-23.251V487.864z"/>
	<path fill="#FFFFFF" d="M692.477,487.864h-16.077v-76.543l-24.212,76.543h-8.263l-24.34-76.543v76.543H606.71v-87.432h24.661
		l18.318,56.303l17.999-56.303h24.788V487.864z"/>
	<path fill="#FFFFFF" d="M727.515,487.864h-15.758v-87.432h15.758V487.864z"/>
	<path fill="#FFFFFF" d="M815.459,487.864h-17.615l-18.447-44.517l-16.909,22.418v22.098h-15.758v-87.432h15.758v45.926
		c2.006-3.116,3.458-5.273,4.355-6.469l29.016-39.457h15.949l-20.753,28.76L815.459,487.864z"/>
	<path fill="#FFFFFF" d="M895.845,487.864h-16.846l-6.981-20.817H838.39l-6.854,20.817h-13.451l29.016-87.432h19.408
		L895.845,487.864z M867.79,454.428l-12.746-39.008l-12.747,39.008H867.79z"/>
	<path fill="#FFFFFF" d="M308.77,646.624c-11.616,0-20.657-4.355-27.126-13.066s-9.704-19.472-9.704-32.282
		c0-12.725,3.437-23.368,10.313-31.931c6.875-8.561,15.949-12.843,27.222-12.843c11.358,0,20.337,4.282,26.935,12.843
		c6.597,8.563,9.896,19.27,9.896,32.122c0,13.494-3.427,24.395-10.28,32.699C329.17,642.472,320.085,646.624,308.77,646.624z
		 M308.898,633.942c5.679,0,10.482-2.349,14.412-7.046c3.928-4.697,5.893-13.216,5.893-25.558c0-10.034-1.624-17.902-4.868-23.604
		c-3.246-5.7-8.285-8.551-15.116-8.551c-13.494,0-20.241,10.868-20.241,32.603c0,10.548,1.718,18.544,5.156,23.988
		C297.571,631.22,302.493,633.942,308.898,633.942z"/>
	<path fill="#FFFFFF" d="M360.973,645.279v-87.432h34.076c5.765,0,10.546,0.599,14.348,1.793c3.8,1.196,7.088,3.694,9.864,7.494
		c2.775,3.802,4.163,8.263,4.163,13.388c0,4.825-1.409,9.021-4.227,12.586c-2.818,3.565-6.705,5.84-11.658,6.821
		c6.149,1.068,10.803,3.566,13.963,7.494c3.16,3.93,4.74,8.583,4.74,13.964c0,6.747-2.209,12.416-6.629,17.006
		c-4.419,4.591-11.22,6.886-20.401,6.886H360.973z M375.897,594.55h19.216c3.928,0,7.035-1.174,9.32-3.523
		c2.284-2.348,3.427-5.337,3.427-8.967c0-4.014-1.303-6.971-3.907-8.872c-2.605-1.899-5.659-2.85-9.16-2.85h-18.896V594.55z
		 M375.897,632.148h20.369c4.313,0,7.718-1.131,10.216-3.395c2.498-2.263,3.747-5.316,3.747-9.16c0-3.672-1.271-6.682-3.811-9.031
		c-2.541-2.348-5.904-3.522-10.088-3.522h-20.433V632.148z"/>
	<path fill="#FFFFFF" d="M497.469,645.279h-56.815v-87.432h56.238v13.002h-40.481v23.7h32.539v12.683h-32.539V631.7h41.058V645.279z
		"/>
	<path fill="#FFFFFF" d="M559.921,614.918l14.604,1.602c-0.939,8.754-4.323,15.96-10.152,21.618s-13.483,8.486-22.963,8.486
		c-7.985,0-14.466-2.006-19.439-6.021c-4.976-4.014-8.808-9.458-11.498-16.334c-2.69-6.874-4.035-14.453-4.035-22.738
		c0-13.323,3.159-24.158,9.479-32.507c6.319-8.348,15.01-12.522,26.069-12.522c8.669,0,15.886,2.67,21.65,8.007
		c5.765,5.339,9.394,12.981,10.889,22.931l-14.604,1.537c-2.69-13.194-8.626-19.792-17.807-19.792
		c-5.894,0-10.473,2.744-13.739,8.23c-3.268,5.488-4.9,13.441-4.9,23.86c0,10.591,1.75,18.586,5.252,23.987
		c3.501,5.402,8.135,8.103,13.899,8.103c4.612,0,8.54-1.814,11.786-5.444C557.656,624.292,559.493,619.957,559.921,614.918z"/>
	<path fill="#FFFFFF" d="M653.054,645.279h-15.309l-33.18-55.854c-0.513-0.854-1.345-2.242-2.498-4.164
		c-0.513-0.854-1.303-2.198-2.37-4.035v64.053h-12.683v-87.432h17.423l30.617,51.498c0.256,0.428,2.113,3.566,5.572,9.416v-60.914
		h12.427V645.279z"/>
	<path fill="#FFFFFF" d="M729.084,645.279h-56.815v-87.432h56.238v13.002h-40.48v23.7h32.538v12.683h-32.538V631.7h41.058V645.279z
		 M701.157,551.25l-22.291-18.447l11.594-1.281l10.697,8.391l10.696-8.391l11.529,1.281L701.157,551.25z"/>
</g>
</svg>
