<?xml version="1.0" encoding="utf-8"?>
<!-- Generator: Adobe Illustrator 16.0.0, SVG Export Plug-In . SVG Version: 6.00 Build 0)  -->
<!DOCTYPE svg PUBLIC "-//W3C//DTD SVG 1.1//EN" "http://www.w3.org/Graphics/SVG/1.1/DTD/svg11.dtd">
<svg version="1.1" id="Layer_1" xmlns="http://www.w3.org/2000/svg" xmlns:xlink="http://www.w3.org/1999/xlink" x="0px" y="0px"
	 width="1000px" height="1000px" viewBox="0 0 1000 1000" enable-background="new 0 0 1000 1000" xml:space="preserve">
<circle fill="#007F3D" cx="500" cy="500" r="473.937"/>
<circle fill="#00A54F" cx="500" cy="500" r="418.439"/>
<g>
	<path fill="#1F80AA" d="M500.004,26.059C378.713,26.06,257.42,72.33,164.878,164.873c-185.087,185.086-185.087,485.17,0,670.253
		c92.541,92.543,213.835,138.813,335.126,138.815V26.059z"/>
	<path fill="#29A7DF" d="M500.006,918.443l-0.002-836.888c-107.09,0-214.179,40.853-295.884,122.56
		c-163.414,163.412-163.413,428.355,0,591.769C285.825,877.59,392.914,918.443,500.006,918.443z"/>
</g>
<g>
	<rect x="537.859" y="456.919" fill="#FAAC40" width="18.707" height="45.563"/>
	<path fill="#213228" d="M614.355,512.699c-0.663-3.622,1.432-5.127,4.655-3.342l165.068,91.422
		c3.226,1.785,8.875,3.117,12.559,2.958l14.261-0.609c3.682-0.157,7.46,1.509,8.395,3.711c0.936,2.195-1.274,4.466-4.917,5.042
		l-170.166,26.84c-3.64,0.576-7.163-1.926-7.826-5.55L614.355,512.699z"/>
	<polygon fill="#05211C" points="473.965,335.441 444.485,335.441 492.727,491.34 522.208,491.34 	"/>
	<path fill="#05211C" d="M487.595,314.456h-188.73c-8.386,0-15.183,6.796-15.183,15.185V518.37c0,8.387,6.797,15.184,15.183,15.184
		c8.384,0,15.184-6.797,15.184-15.184V344.823h173.547c8.384,0,15.186-6.799,15.186-15.183
		C502.78,321.251,495.979,314.456,487.595,314.456z"/>
	<path fill="#EE3B3F" d="M265.81,572.188c0,3.687-3.015,6.702-6.699,6.702h-54.499c-3.685,0-6.702-3.016-6.702-6.702V446.221
		c0-3.687,3.018-6.701,6.702-6.701h54.499c3.684,0,6.699,3.014,6.699,6.701V572.188z"/>
	<path fill="#BE222A" d="M265.81,598.097c0,3.685-3.015,6.702-6.699,6.702h-71.919c-3.684,0-6.7-3.018-6.7-6.702v-24.122
		c0-3.684,3.016-6.698,6.7-6.698h71.919c3.684,0,6.699,3.015,6.699,6.698V598.097z"/>
	<path fill="#FAAC40" d="M590.552,488.659H331.026v-16.528c0-3.685-3.014-6.701-6.701-6.701h-54.497
		c-3.683,0-6.697,3.016-6.697,6.701v125.966c0,3.685,3.014,6.702,6.697,6.702h21.623c-1.555-4.433-2.412-9.17-2.412-14.072
		c0-23.745,19.81-43.551,43.552-43.551c1.868,0,3.709,0.135,5.52,0.372c3.795-1.107,7.785-1.713,11.9-1.713
		c23.742,0,43.553,19.807,43.553,43.551c0,5.403-1.037,10.597-2.905,15.413h83.404c1.42-22.537,20.614-40.875,43.458-40.875
		c22.84,0,42.034,18.338,43.455,40.875h29.575c3.685,0,6.701-3.018,6.701-6.702v-102.74
		C597.253,491.672,594.236,488.659,590.552,488.659z"/>
	<path fill="#FAAC40" d="M650.868,581.344c-5.231,0-10.388-2.443-13.654-7.03l-68.785-96.554
		c-125.573-16.147-308.296-39.525-318.565-40.503c-8.794-0.507-15.768-7.799-15.768-16.718c0-9.253,7.501-16.752,16.752-16.752
		c1.394,0,5.094,0,329.11,41.681c4.631,0.594,8.799,3.091,11.507,6.893l73.032,102.513c5.37,7.537,3.611,17.993-3.923,23.362
		C657.624,580.339,654.232,581.344,650.868,581.344z M249.977,437.264c0.422,0.028,0.715,0.021,0.872,0.025
		C250.555,437.289,250.265,437.281,249.977,437.264z"/>
	<path fill="#213228" d="M270.276,427.125c0,13.876-11.25,25.129-25.126,25.129c-13.876,0-25.126-11.253-25.126-25.129
		c0-13.875,11.25-25.124,25.126-25.124C259.026,402,270.276,413.249,270.276,427.125z"/>
	<path fill="#213228" d="M349.27,495.107c-52.585,0-95.218,42.632-95.218,95.223c0,52.583,42.632,95.215,95.218,95.215
		c52.586,0,95.216-42.632,95.216-95.215C444.485,537.739,401.855,495.107,349.27,495.107z M349.27,629.147
		c-21.442,0-38.824-17.376-38.824-38.817c0-21.439,17.382-38.828,38.824-38.828c21.442,0,38.819,17.389,38.819,38.828
		C388.089,611.771,370.712,629.147,349.27,629.147z"/>
	<path fill="#213228" d="M522.208,546.223c-38.473,0-69.66,31.187-69.66,69.661c0,38.471,31.188,69.661,69.66,69.661
		c38.472,0,69.664-31.19,69.664-69.661C591.872,577.409,560.68,546.223,522.208,546.223z M522.208,644.285
		c-15.684,0-28.401-12.714-28.401-28.401c0-15.685,12.718-28.407,28.401-28.407c15.687,0,28.401,12.723,28.401,28.407
		C550.609,631.571,537.895,644.285,522.208,644.285z"/>
</g>
<text transform="matrix(1 0 0 1 193.0024 448.8643)"><tspan x="0" y="0" fill="#FFFFFF" font-family="'FranklinGothic-Medium'" font-size="153.7069">Úvod do</tspan><tspan x="-89.95" y="183.952" fill="#FFFFFF" font-family="'FranklinGothic-Medium'" font-size="153.7069">hrubé síly</tspan></text>
<text transform="matrix(1 0 0 1 193.0024 448.8643)"><tspan x="0" y="0" fill="#FFFFFF" font-family="'FranklinGothic-Medium'" font-size="153.7069">Úvod do</tspan><tspan x="-89.95" y="183.952" fill="#FFFFFF" font-family="'FranklinGothic-Medium'" font-size="153.7069">hrubé síly</tspan></text>
</svg>
