<?xml version="1.0" encoding="utf-8"?>
<!-- Generator: Adobe Illustrator 16.0.0, SVG Export Plug-In . SVG Version: 6.00 Build 0)  -->
<!DOCTYPE svg PUBLIC "-//W3C//DTD SVG 1.1//EN" "http://www.w3.org/Graphics/SVG/1.1/DTD/svg11.dtd">
<svg version="1.1" id="Layer_1" xmlns="http://www.w3.org/2000/svg" xmlns:xlink="http://www.w3.org/1999/xlink" x="0px" y="0px"
	 width="1000px" height="1000px" viewBox="0 0 1000 1000" enable-background="new 0 0 1000 1000" xml:space="preserve">
<circle fill="#FAAC40" cx="500" cy="500" r="473.937"/>
<circle fill="#FFC388" cx="500" cy="500" r="418.439"/>
<g display="none">
	<path display="inline" fill="#1F80AA" d="M500.004,26.059C378.713,26.06,257.42,72.33,164.878,164.873
		c-185.087,185.086-185.087,485.17,0,670.253c92.541,92.543,213.835,138.813,335.126,138.815V26.059z"/>
	<path display="inline" fill="#29A7DF" d="M500.006,918.443l-0.002-836.888c-107.09,0-214.179,40.853-295.884,122.56
		c-163.414,163.412-163.413,428.355,0,591.769C285.825,877.59,392.914,918.443,500.006,918.443z"/>
</g>
<g>
	<path opacity="0.9" fill="#E5AE7C" d="M330.358,626.19v146.043H508V247.767H330.358v72.117l-56.154-32.495l-0.022,23.858
		l-49.68-0.046v209.257h129.942l142.964,59.218v46.515H330.358z M352.281,501.297H243.663V330.378l30.502,0.029l-0.023,23.859
		l56.216-32.393v71.938h167.16v47.327L352.281,501.297z"/>
	<polygon opacity="0.9" fill="#B28760" points="516.678,441.138 516.678,393.811 683.834,393.811 683.834,247.767 508,247.767 
		508,772.233 683.834,772.233 683.834,626.19 516.57,626.19 516.57,579.764 667.457,517.262 772.338,517.262 772.338,688.182 
		741.836,688.154 741.857,664.295 683.92,697.681 741.799,731.172 741.818,707.316 791.498,707.36 791.498,498.103 654.201,498.103 
			"/>
</g>
<text transform="matrix(1 0 0 1 116.5713 556.8848)" display="none" fill="#FFFFFF" font-family="'FranklinGothic-Medium'" font-size="163.3575">SloŽitost</text>
<g>
	<path fill="#FFFFFF" d="M119.762,530.643l19.063-4.068c2.286,10.796,11.06,16.192,26.322,16.192c6.966,0,12.324-1.382,16.072-4.147
		c3.749-2.765,5.624-6.194,5.624-10.29c0-2.978-0.851-5.729-2.552-8.256c-1.703-2.524-5.344-4.507-10.928-5.942l-20.819-5.424
		c-7.126-1.86-12.391-3.975-15.793-6.341c-3.404-2.366-6.129-5.704-8.176-10.011c-2.048-4.308-3.071-8.906-3.071-13.799
		c0-9.731,3.616-17.535,10.848-23.411c7.231-5.875,16.484-8.814,27.758-8.814c9.359,0,17.72,2.048,25.086,6.142
		c7.365,4.095,12.057,9.891,14.079,17.389l-18.665,4.626c-2.872-8.242-9.572-12.364-20.101-12.364
		c-6.116,0-10.782,1.276-13.999,3.829c-3.218,2.553-4.826,5.797-4.826,9.731c0,6.222,5.051,10.583,15.155,13.082l18.505,4.626
		c11.219,2.819,18.745,6.979,22.573,12.483c3.829,5.504,5.743,11.58,5.743,18.227c0,10.688-4.028,19.104-12.084,25.245
		c-8.056,6.143-18.493,9.213-31.308,9.213c-10.795,0-20.248-2.26-28.356-6.779C127.805,547.261,122.42,540.214,119.762,530.643z"/>
	<path fill="#FFFFFF" d="M291.495,556.885h-67.002V448.006h20.659v91.091h46.343V556.885z"/>
	<path fill="#FFFFFF" d="M343.102,558.56c-14.464,0-25.724-5.424-33.78-16.271c-8.057-10.849-12.084-24.249-12.084-40.201
		c0-15.846,4.28-29.101,12.842-39.763c8.561-10.661,19.861-15.993,33.9-15.993c14.145,0,25.325,5.332,33.541,15.993
		c8.216,10.662,12.324,23.997,12.324,40.002c0,16.804-4.268,30.378-12.802,40.72C368.507,553.389,357.193,558.56,343.102,558.56z
		 M343.262,542.767c7.072,0,13.054-2.924,17.947-8.774c4.892-5.849,7.338-16.457,7.338-31.826c0-12.495-2.022-22.294-6.063-29.393
		c-4.042-7.099-10.317-10.648-18.824-10.648c-16.804,0-25.206,13.534-25.206,40.6c0,13.135,2.14,23.092,6.421,29.872
		C329.156,539.377,335.285,542.767,343.262,542.767z"/>
	<path fill="#FFFFFF" d="M479.898,539.975v16.91h-80.482V541.41l55.755-77.85h-51.847v-15.554h74.979v15.554l-55.117,76.414H479.898
		z M441.372,439.791l-27.758-22.972l14.438-1.595l13.321,10.449l13.32-10.449l14.358,1.595L441.372,439.791z"/>
	<path fill="#FFFFFF" d="M514.756,556.885h-19.622V448.006h19.622V556.885z"/>
	<path fill="#FFFFFF" d="M576.732,556.885h-21.059v-92.048H526.72v-16.83h78.967v16.83h-28.954V556.885z"/>
	<path fill="#FFFFFF" d="M655.46,558.56c-14.465,0-25.724-5.424-33.78-16.271c-8.056-10.849-12.084-24.249-12.084-40.201
		c0-15.846,4.28-29.101,12.842-39.763c8.562-10.661,19.861-15.993,33.9-15.993c14.145,0,25.325,5.332,33.541,15.993
		c8.216,10.662,12.323,23.997,12.323,40.002c0,16.804-4.268,30.378-12.802,40.72C680.865,553.389,669.551,558.56,655.46,558.56z
		 M655.62,542.767c7.071,0,13.054-2.924,17.946-8.774c4.893-5.849,7.339-16.457,7.339-31.826c0-12.495-2.021-22.294-6.063-29.393
		c-4.042-7.099-10.316-10.648-18.824-10.648c-16.804,0-25.206,13.534-25.206,40.6c0,13.135,2.141,23.092,6.422,29.872
		C641.514,539.377,647.644,542.767,655.62,542.767z"/>
	<path fill="#FFFFFF" d="M709.062,530.643l19.063-4.068c2.286,10.796,11.06,16.192,26.322,16.192c6.966,0,12.323-1.382,16.072-4.147
		c3.749-2.765,5.624-6.194,5.624-10.29c0-2.978-0.852-5.729-2.553-8.256c-1.702-2.524-5.345-4.507-10.928-5.942l-20.818-5.424
		c-7.127-1.86-12.392-3.975-15.794-6.341c-3.403-2.366-6.129-5.704-8.176-10.011c-2.048-4.308-3.07-8.906-3.07-13.799
		c0-9.731,3.615-17.535,10.848-23.411c7.231-5.875,16.483-8.814,27.758-8.814c9.358,0,17.721,2.048,25.086,6.142
		c7.364,4.095,12.057,9.891,14.078,17.389l-18.664,4.626c-2.872-8.242-9.572-12.364-20.101-12.364
		c-6.116,0-10.782,1.276-13.999,3.829c-3.218,2.553-4.826,5.797-4.826,9.731c0,6.222,5.052,10.583,15.155,13.082l18.506,4.626
		c11.219,2.819,18.744,6.979,22.573,12.483c3.828,5.504,5.743,11.58,5.743,18.227c0,10.688-4.028,19.104-12.085,25.245
		c-8.056,6.143-18.492,9.213-31.307,9.213c-10.796,0-20.248-2.26-28.356-6.779C717.104,547.261,711.72,540.214,709.062,530.643z"/>
	<path fill="#FFFFFF" d="M851.841,556.885h-21.059v-92.048h-28.954v-16.83h78.967v16.83h-28.954V556.885z"/>
</g>
</svg>
