<?xml version="1.0" encoding="utf-8"?>
<!-- Generator: Adobe Illustrator 16.0.0, SVG Export Plug-In . SVG Version: 6.00 Build 0)  -->
<!DOCTYPE svg PUBLIC "-//W3C//DTD SVG 1.1//EN" "http://www.w3.org/Graphics/SVG/1.1/DTD/svg11.dtd">
<svg version="1.1" id="Layer_1" xmlns="http://www.w3.org/2000/svg" xmlns:xlink="http://www.w3.org/1999/xlink" x="0px" y="0px"
	 width="1000px" height="1000px" viewBox="0 0 1000 1000" enable-background="new 0 0 1000 1000" xml:space="preserve">
<circle fill="#2080AA" cx="500" cy="500" r="473.937"/>
<circle fill="#28A8E0" cx="500" cy="500" r="418.439"/>
<g display="none">
	<path display="inline" fill="#1F80AA" d="M500.004,26.059C378.713,26.06,257.42,72.33,164.878,164.873
		c-185.087,185.086-185.087,485.17,0,670.253c92.541,92.543,213.835,138.813,335.126,138.815V26.059z"/>
	<path display="inline" fill="#29A7DF" d="M500.006,918.443l-0.002-836.888c-107.09,0-214.179,40.853-295.884,122.56
		c-163.414,163.412-163.413,428.355,0,591.769C285.825,877.59,392.914,918.443,500.006,918.443z"/>
</g>
<g>
	<polygon fill="#2080AA" points="220.767,541.438 154.976,563.903 223.977,579.95 	"/>
	<path fill="#2080AA" d="M512.817,517.365c0,0,46.537,9.627,62.582-9.625c16.05-19.258-21.546-119.433,85.586-154.587
		c102.699-33.699,155.119,48.675,172.77,92c17.651,43.329,11.232,69.001,3.209,75.421c-8.023,6.418-48.142,6.418-48.142,6.418
		s0,35.305-22.465,40.121c-22.465,4.812-219.841,11.23-243.911,6.418C498.377,568.715,512.817,517.365,512.817,517.365"/>
	<path fill="#002F3F" d="M703.847,445.155c0-10.596,8.589-19.185,19.185-19.185s19.188,8.589,19.188,19.185
		s-8.592,19.186-19.188,19.186S703.847,455.75,703.847,445.155"/>
	<path fill="#2AADDB" d="M554.54,498.109c0,0-19.256,9.627-22.466,33.7c-3.21,24.068-3.21,59.372-3.21,59.372l-319.329,3.21
		c0,0-44.931-239.1,144.421-264.773C543.308,303.943,554.54,498.109,554.54,498.109"/>
	<path fill="#1D586D" d="M468.383,515.17c-33.063,8.112-65.363,12.799-99.648,11.252c-24.684-1.118-50.292-2.734-75.182-6.544
		c3.357-21.841,7.479-43.611,12.795-65.374c0.508-2.087,1.032-4.177,1.549-6.266c22.177,2.437,44.797,2.305,66.607,1.351
		c26.812-1.176,52.351-5.771,77.384-13.458C459.922,461.761,465.343,488.228,468.383,515.17"/>
	<path fill="#1D586D" d="M432.499,349.639c-1.8,0.425-3.609,0.827-5.418,1.222c-4.801-7.563-9.981-14.922-15.477-22.094
		c16.549,2.056,31.192,6.179,44.143,11.835C447.797,345.074,438.588,348.201,432.499,349.639"/>
	<path fill="#1D586D" d="M299.499,345.295c12.451-5.935,26.522-10.565,42.337-13.642c-4.567,7.594-8.857,15.294-12.869,23.109
		C318.451,352.906,308.292,349.923,299.499,345.295"/>
	<path fill="#1D586D" d="M520.755,499.754c-13.089,4.893-26.527,8.751-40.038,12.292c-3.017-27.198-8.382-54.079-16.457-79.987
		c6.471-2.268,12.922-4.676,19.354-7.365c13.823-5.783,28.877-12.451,40.542-22.284c18.235,30.418,25.656,62.595,28.574,80.808
		C543.948,491.193,531.277,495.819,520.755,499.754"/>
	<path fill="#1D586D" d="M379.019,357.297c-11.399,0.46-25.001,0.524-38.635-0.911c4.866-9.155,10.123-18.084,15.422-26.988
		c14.855-1.914,28.603-2.465,41.329-1.858c6.197,8.419,12.02,17.011,17.387,25.806C402.785,355.42,390.923,356.816,379.019,357.297"
		/>
	<path fill="#1D586D" d="M377.251,437.097c-21.782,0.734-44.158,0.719-66.052-1.838c5.812-22.223,12.571-44.313,22.247-65.081
		c0.489-1.052,1.021-2.075,1.523-3.116c22.642,3.068,45.642,2.369,68.269-0.939c5.337-0.782,11.2-1.588,17.248-2.611
		c11.313,19.976,20.614,40.796,28.006,62.26C425.34,432.522,401.827,436.267,377.251,437.097"/>
	<path fill="#1D586D" d="M481.875,523.943c7.58-2.186,15.124-4.523,22.63-6.968c15.023-4.89,35.375-11.054,49.762-22.105
		c0.207,2.089,0.273,3.24,0.273,3.24s-19.256,9.625-22.466,33.694c-3.21,24.072-3.21,59.376-3.21,59.376l-45.621,0.458
		C484.191,569.182,483.815,546.495,481.875,523.943"/>
	<path fill="#1D586D" d="M206.448,505.719c17.011,10.039,34.776,17.563,54.055,21.995c5.319,1.223,10.717,2.315,16.158,3.331
		c-3.261,20.841-5.605,41.826-6.789,62.741l-60.336,0.604c0,0-7.494-39.917-3.451-88.879
		C206.203,505.58,206.331,505.65,206.448,505.719"/>
	<path fill="#1D586D" d="M471.219,418.147c-3.431,1.304-6.864,2.516-10.304,3.687c-7.255-21.136-16.408-41.534-27.658-60.836
		c12.584-2.891,24.951-7.223,34.177-14.635c22.308,12.287,38.939,29.327,51.321,47.584
		C505.582,405.466,487.567,411.933,471.219,418.147"/>
	<path fill="#1D586D" d="M207.699,490.318c2.92-22.365,8.498-45.877,18.363-67.879c13.289,7.643,27.829,13.393,34.633,15.719
		c10.957,3.746,22.292,6.412,33.816,8.278c-0.172,0.651-0.355,1.296-0.524,1.95c-5.823,22.545-10.965,45.643-15.059,68.979
		c-4.873-0.946-9.714-1.967-14.488-3.128C246.289,509.822,225.423,501.61,207.699,490.318"/>
	<path fill="#1D586D" d="M322.428,365.001c0.449,0.09,0.905,0.148,1.354,0.237c-10.379,21.767-18.797,44.438-25.666,68.156
		c-5.065-0.862-10.102-1.825-15.076-3.034c-13.301-3.242-26.244-7.895-38.262-14.49c-3.275-1.795-7.574-4.143-12.014-6.9
		c11.95-21.672,28.747-41.159,52.108-55.66C296.632,359.966,312.64,363.032,322.428,365.001"/>
	<path fill="#1D586D" d="M291.556,533.558c29.722,4.515,60.523,6.308,89.819,6.363c30,0.057,59.376-5.002,88.207-12.601
		c1.832,21.283,2.212,42.825,1.267,64.444l-186.202,1.87C286.593,573.506,288.776,553.489,291.556,533.558"/>
	<path fill="#2080AA" d="M436.87,672.722h9.081c21.773,0,39.587-17.813,39.587-39.59v-64.943c0-21.774-17.814-39.589-39.587-39.589
		h-9.081c-21.774,0-39.588,17.814-39.588,39.589v64.943C397.282,654.908,415.096,672.722,436.87,672.722"/>
	<path fill="#2080AA" d="M292.439,672.722h9.081c21.773,0,39.588-17.813,39.588-39.59v-64.943c0-21.774-17.815-39.589-39.588-39.589
		h-9.081c-21.773,0-39.588,17.814-39.588,39.589v64.943C252.852,654.908,270.667,672.722,292.439,672.722"/>
</g>
<text transform="matrix(1 0 0 1 169.2544 402.6904)" display="none"><tspan x="0" y="0" display="inline" fill="#FFFFFF" font-family="'FranklinGothic-Medium'" font-size="179.649">klikatá</tspan><tspan x="-17.675" y="297.455" display="inline" fill="#FFFFFF" font-family="'FranklinGothic-Medium'" font-size="179.649">grafika</tspan></text>
<g>
	<path fill="#FFFFFF" d="M281.404,402.69h-24.123l-25.263-60.965l-23.158,30.702v30.263h-21.579V282.954h21.579v62.895
		c2.748-4.268,4.737-7.222,5.965-8.859l39.737-54.035h21.842l-28.421,39.386L281.404,402.69z"/>
	<path fill="#FFFFFF" d="M371.229,402.69h-73.685V282.954h22.719v100.175h50.965V402.69z"/>
	<path fill="#FFFFFF" d="M408.684,402.69h-21.579V282.954h21.579V402.69z"/>
	<path fill="#FFFFFF" d="M529.123,402.69H505l-25.263-60.965l-23.158,30.702v30.263H435V282.954h21.579v62.895
		c2.748-4.268,4.737-7.222,5.965-8.859l39.737-54.035h21.842l-28.421,39.386L529.123,402.69z"/>
	<path fill="#FFFFFF" d="M639.211,402.69h-23.07l-9.562-28.509h-46.053l-9.386,28.509H532.72l39.736-119.737h26.579L639.211,402.69z
		 M600.79,356.901l-17.456-53.421l-17.457,53.421H600.79z"/>
	<path fill="#FFFFFF" d="M685.702,402.69h-23.158V301.462h-31.842v-18.509h86.842v18.509h-31.842V402.69z"/>
	<path fill="#FFFFFF" d="M824.649,402.69h-23.07l-9.562-28.509h-46.053l-9.386,28.509h-18.421l39.736-119.737h26.579L824.649,402.69
		z M786.229,356.901l-17.456-53.421l-17.457,53.421H786.229z M794.123,244.796l5.789,13.158l-36.579,15.438l-3.684-9.386
		L794.123,244.796z"/>
	<path fill="#FFFFFF" d="M255.614,638.917v61.229h-9.562l-6.579-16.141c-6.96,11.989-17.75,17.982-32.368,17.982
		c-16.316,0-28.495-6.197-36.535-18.596c-8.042-12.397-12.062-26.755-12.062-43.07c0-17.251,4.487-31.856,13.465-43.816
		c8.977-11.958,21.535-17.938,37.676-17.938c12.046,0,21.958,3.495,29.737,10.482c7.777,6.989,12.689,15.688,14.737,26.097
		l-18.772,3.333c-3.509-14.618-11.901-21.93-25.175-21.93c-8.48,0-15.395,3.451-20.746,10.352c-5.351,6.9-8.026,17.515-8.026,31.842
		c0,30.234,9.474,45.351,28.421,45.351c7.368,0,13.465-2.544,18.29-7.632c4.824-5.087,7.237-11.812,7.237-20.175h-24.737v-17.369
		H255.614z"/>
	<path fill="#FFFFFF" d="M373.421,700.146h-22.807l-18.596-49.211h-30.351v49.211h-21.579V580.409h51.93
		c14.443,0,25.057,3.26,31.842,9.78c6.783,6.521,10.175,14.956,10.175,25.307c0,15.382-7.193,25.965-21.579,31.755L373.421,700.146z
		 M301.667,633.654h26.842c7.777,0,13.566-1.637,17.368-4.912c3.801-3.274,5.702-7.777,5.702-13.509
		c0-5.264-1.872-9.518-5.614-12.764c-3.743-3.245-8.978-4.868-15.702-4.868h-28.597V633.654z"/>
	<path fill="#FFFFFF" d="M489.474,700.146h-23.07l-9.562-28.509H410.79l-9.386,28.509h-18.421l39.737-119.736h26.579
		L489.474,700.146z M451.053,654.356l-17.456-53.422l-17.456,53.422H451.053z"/>
	<path fill="#FFFFFF" d="M526.053,700.146h-22.193V580.409h75.701v18.509h-53.508v32.719h42.105v17.982h-42.105V700.146z"/>
	<path fill="#FFFFFF" d="M616.667,700.146h-21.579V580.409h21.579V700.146z"/>
	<path fill="#FFFFFF" d="M737.104,700.146h-24.122l-25.264-60.965l-23.157,30.702v30.263h-21.579V580.409h21.579v62.895
		c2.748-4.269,4.736-7.222,5.965-8.86l39.736-54.034h21.842l-28.421,39.386L737.104,700.146z"/>
	<path fill="#FFFFFF" d="M847.193,700.146h-23.07l-9.562-28.509h-46.053l-9.386,28.509h-18.421l39.736-119.736h26.579
		L847.193,700.146z M808.772,654.356l-17.456-53.422l-17.457,53.422H808.772z"/>
</g>
</svg>
