<?xml version="1.0" encoding="utf-8"?>
<!-- Generator: Adobe Illustrator 16.0.0, SVG Export Plug-In . SVG Version: 6.00 Build 0)  -->
<!DOCTYPE svg PUBLIC "-//W3C//DTD SVG 1.1//EN" "http://www.w3.org/Graphics/SVG/1.1/DTD/svg11.dtd">
<svg version="1.1" id="Layer_1" xmlns="http://www.w3.org/2000/svg" xmlns:xlink="http://www.w3.org/1999/xlink" x="0px" y="0px"
	 width="1000px" height="1000px" viewBox="0 0 1000 1000" enable-background="new 0 0 1000 1000" xml:space="preserve">
<path fill="#C44E1A" d="M1000.002,500c0,276.142-223.854,500-500,500C223.855,1000-0.002,776.142-0.002,500
	c0-276.146,223.857-500,500.004-500C776.147,0,1000.002,223.854,1000.002,500z"/>
<g>
	<path fill="#F79B72" d="M500.011,851.647c-175.694,0-318.619-143.074-318.619-318.719c0-175.671,142.924-318.671,318.619-318.671
		c11.668,0,23.465,0.671,35.182,1.99v-51.506c0-6.618,4.083-12.64,10.104-15.204c6.271-2.438,13.213-1.069,17.989,3.683
		l112.893,113.141c6.419,6.419,6.419,16.671,0,23.19l-112.842,113.39c-4.803,4.678-11.769,6.121-18.04,3.558
		c-6.021-2.587-10.104-8.56-10.104-15.153v-57.129c-11.668-2.141-23.412-3.11-35.182-3.11
		c-111.299,0-201.871,90.547-201.871,201.822c0,111.248,90.597,201.871,201.871,201.871c111.275,0,201.823-90.647,201.823-201.871
		c0-9.033,7.34-16.423,16.471-16.423h83.829c9.082,0,16.474,7.39,16.474,16.423C818.607,708.573,675.58,851.647,500.011,851.647z"/>
</g>
</svg>
