<?xml version="1.0" encoding="utf-8"?>
<!-- Generator: Adobe Illustrator 16.0.0, SVG Export Plug-In . SVG Version: 6.00 Build 0)  -->
<!DOCTYPE svg PUBLIC "-//W3C//DTD SVG 1.1//EN" "http://www.w3.org/Graphics/SVG/1.1/DTD/svg11.dtd">
<svg version="1.1" id="Layer_1" xmlns="http://www.w3.org/2000/svg" xmlns:xlink="http://www.w3.org/1999/xlink" x="0px" y="0px"
	 width="1000px" height="1000px" viewBox="0 0 1000 1000" enable-background="new 0 0 1000 1000" xml:space="preserve">
<g>
	<path fill="#90D12A" d="M1000.002,500c0,276.142-223.854,500-500,500C223.855,1000-0.002,776.142-0.002,500
		c0-276.146,223.857-500,500.004-500C776.147,0,1000.002,223.854,1000.002,500z"/>
	<path fill="#C9E29F" d="M876.471,164.942c-13.234-15.075-27.352-29.34-42.283-42.725c-31.947,24.244-62.07,50.204-88.945,77.812
		C552.729,397.818,389.886,664.175,389.886,664.175s-15.892-30.49-63.29-145.047c-31.646-76.481-203.063-42.197-203.063-42.197
		c89.669-10.553,210.972,400.852,210.972,400.852l116.041-65.93c0,0,26.367-110.759,147.674-284.808
		C691.748,392.861,762.55,277.092,876.471,164.942z"/>
</g>
</svg>
