<?xml version="1.0" encoding="utf-8"?>
<!-- Generator: Adobe Illustrator 16.0.0, SVG Export Plug-In . SVG Version: 6.00 Build 0)  -->
<!DOCTYPE svg PUBLIC "-//W3C//DTD SVG 1.1//EN" "http://www.w3.org/Graphics/SVG/1.1/DTD/svg11.dtd">
<svg version="1.1" id="Layer_1" xmlns="http://www.w3.org/2000/svg" xmlns:xlink="http://www.w3.org/1999/xlink" x="0px" y="0px"
	 width="1000px" height="1000px" viewBox="0 0 1000 1000" enable-background="new 0 0 1000 1000" xml:space="preserve">
<g>
	<circle fill="#FAAC40" cx="500.749" cy="500" r="500"/>
	<circle fill="#FFC388" cx="500.749" cy="500" r="441.45"/>
</g>
<g>
	<circle fill="#90D12A" cx="825.875" cy="820.439" r="126"/>
	<path fill="#C9E29F" d="M920.745,736.005c-3.335-3.799-6.893-7.394-10.655-10.767c-8.051,6.109-15.642,12.651-22.414,19.608
		c-48.514,49.843-89.55,116.965-89.55,116.965s-4.005-7.684-15.949-36.552c-7.975-19.273-51.172-10.634-51.172-10.634
		c22.597-2.659,53.165,101.015,53.165,101.015l29.242-16.614c0,0,6.645-27.911,37.214-71.771
		C874.195,793.44,892.037,764.267,920.745,736.005z"/>
</g>
</svg>
