<?xml version="1.0" encoding="utf-8"?>
<!-- Generator: Adobe Illustrator 16.0.0, SVG Export Plug-In . SVG Version: 6.00 Build 0)  -->
<!DOCTYPE svg PUBLIC "-//W3C//DTD SVG 1.1//EN" "http://www.w3.org/Graphics/SVG/1.1/DTD/svg11.dtd">
<svg version="1.1" id="Layer_1" xmlns="http://www.w3.org/2000/svg" xmlns:xlink="http://www.w3.org/1999/xlink" x="0px" y="0px"
	 width="1000px" height="1000px" viewBox="0 0 1000 1000" enable-background="new 0 0 1000 1000" xml:space="preserve">
<circle fill="#A56028" cx="500" cy="502.999" r="473.937"/>
<circle fill="#E48A38" cx="500" cy="500" r="418.439"/>
<g>
	<path fill="#A56028" d="M472.412,658.408c-24.328-18.688-36.487-40.937-36.487-66.744c0-17.5,4.297-34.041,12.904-49.615
		c8.599-15.572,27.879-40.116,57.847-73.642c23.727-26.398,41.227-49.239,52.506-68.524c11.27-19.279,16.906-38.413,16.906-57.401
		c0-29.368-10.83-53.765-32.479-73.197c-21.659-19.426-48.058-29.145-79.205-29.145c-17.507,0-36.488,4.004-56.957,12.014
		c-8.309,8.01-15.726,19.134-22.248,33.372l-16.909,33.818l-5.34,3.56l-19.578-2.225l-2.669-6.23l34.262-103.232
		c34.708-22.541,72.53-33.817,113.468-33.817c31.439,0,60.294,5.715,86.547,17.131c26.252,11.425,46.864,28.409,61.85,50.949
		c14.975,22.548,22.47,47.911,22.47,76.09c0,18.688-3.047,36.194-9.12,52.505c-6.086,16.319-14.983,32.261-26.698,47.836
		c-11.724,15.572-34.193,38.196-67.412,67.856c-21.068,18.689-37.156,33.971-48.281,45.832
		c-11.124,11.868-19.509,23.359-25.139,34.484c-5.642,11.123-8.456,21.288-8.456,30.479c0,15.431,5.931,29.668,17.799,42.719
		l-0.89,6.228l-11.569,8.9H472.412z M480.867,716.255c14.83,0,27.435,5.192,37.822,15.572
		c10.379,10.386,15.574,22.993,15.574,37.822c0,14.54-5.195,26.999-15.574,37.377c-10.388,10.38-22.992,15.575-37.822,15.575
		c-14.539,0-27.075-5.195-37.601-15.575c-10.534-10.378-15.796-22.837-15.796-37.377c0-15.129,5.341-27.809,16.019-38.044
		C454.169,721.372,466.628,716.255,480.867,716.255z"/>
</g>
</svg>
