<?xml version="1.0" encoding="utf-8"?>
<!-- Generator: Adobe Illustrator 16.0.0, SVG Export Plug-In . SVG Version: 6.00 Build 0)  -->
<!DOCTYPE svg PUBLIC "-//W3C//DTD SVG 1.1//EN" "http://www.w3.org/Graphics/SVG/1.1/DTD/svg11.dtd">
<svg version="1.1" id="Layer_1" xmlns="http://www.w3.org/2000/svg" xmlns:xlink="http://www.w3.org/1999/xlink" x="0px" y="0px"
	 width="1000px" height="1000px" viewBox="0 0 1000 1000" enable-background="new 0 0 1000 1000" xml:space="preserve">
<circle fill="#007F3D" cx="500" cy="500" r="473.937"/>
<circle fill="#00A54F" cx="500" cy="500" r="418.439"/>
<g>
	<g>
		<g>
			<path fill="#007F3D" d="M545.866,328.473c0,139.935,57.937,155.167,72.759,156.768V830.5h53.019V171.515h-53.019
				C618.625,171.515,545.866,171.515,545.866,328.473"/>
			<path fill="#00933F" d="M545.866,328.473c0,139.928,57.937,155.159,72.759,156.761V171.508
				C618.625,171.508,545.866,171.508,545.866,328.473"/>
		</g>
		<g>
			<path fill="#007F3D" d="M315.293,237.243c-8.178,22.774-17.373,45.644-20.238,69.844c-2.711,22.745,2.595,39.285,13.727,58.749
				c11.256,19.697,31.063,48.633,54.816,61.606V830.5h53.004V427.127c23.491-13.134,43.057-41.755,54.217-61.291
				c11.139-19.464,16.416-36.004,13.733-58.749c-2.865-24.2-12.06-47.069-20.246-69.844c-6.438-17.913-19.28-62.453-42.99-65.209
				l14.136,130.821h-17.666L403.65,171.5H389.8h-13.836l-14.143,131.355h-17.665l14.128-130.821
				C334.581,174.79,321.74,219.33,315.293,237.243"/>
			<path fill="#00933F" d="M390.641,171.529h-13.835l-14.144,131.355h-17.665l14.128-130.821
				c-23.71,2.763-36.553,47.295-42.991,65.217l-0.841-0.066c-8.178,22.768-17.373,45.637-20.238,69.837
				c-2.711,22.737,2.595,39.285,13.727,58.748c11.256,19.697,31.063,48.633,54.816,61.606v403.051h28.432V427.091L390.641,171.529z"
				/>
		</g>
	</g>
</g>
<g display="none">
	<path display="inline" fill="#1F80AA" d="M500.004,26.059C378.713,26.06,257.42,72.33,164.878,164.873
		c-185.087,185.086-185.087,485.17,0,670.253c92.541,92.543,213.835,138.813,335.126,138.815V26.059z"/>
	<path display="inline" fill="#29A7DF" d="M500.006,918.443l-0.002-836.888c-107.09,0-214.179,40.853-295.884,122.56
		c-163.414,163.412-163.413,428.355,0,591.769C285.825,877.59,392.914,918.443,500.006,918.443z"/>
</g>
<text transform="matrix(1 0 0 1 196.3296 454.1143)" display="none"><tspan x="0" y="0" display="inline" fill="#FFFFFF" font-family="'FranklinGothic-Medium'" font-size="146.9913">Hladové</tspan><tspan x="-73.926" y="175.915" display="inline" fill="#FFFFFF" font-family="'FranklinGothic-Medium'" font-size="146.9913">algoritmy</tspan></text>
</svg>
