<?xml version="1.0" encoding="utf-8"?>
<!-- Generator: Adobe Illustrator 16.0.0, SVG Export Plug-In . SVG Version: 6.00 Build 0)  -->
<!DOCTYPE svg PUBLIC "-//W3C//DTD SVG 1.1//EN" "http://www.w3.org/Graphics/SVG/1.1/DTD/svg11.dtd">
<svg version="1.1" id="Layer_1" xmlns="http://www.w3.org/2000/svg" xmlns:xlink="http://www.w3.org/1999/xlink" x="0px" y="0px"
	 width="1000px" height="1000px" viewBox="0 0 1000 1000" enable-background="new 0 0 1000 1000" xml:space="preserve">
<circle fill="#2080AA" cx="500" cy="500" r="473.937"/>
<circle fill="#28A8E0" cx="500" cy="500" r="418.439"/>
<g display="none">
	<path display="inline" fill="#1F80AA" d="M500.004,26.059C378.713,26.06,257.42,72.33,164.878,164.873
		c-185.087,185.086-185.087,485.17,0,670.253c92.541,92.543,213.835,138.813,335.126,138.815V26.059z"/>
	<path display="inline" fill="#29A7DF" d="M500.006,918.443l-0.002-836.888c-107.09,0-214.179,40.853-295.884,122.56
		c-163.414,163.412-163.413,428.355,0,591.769C285.825,877.59,392.914,918.443,500.006,918.443z"/>
</g>
<text transform="matrix(1 0 0 1 198.7607 402.2539)" display="none"><tspan x="0" y="0" display="inline" fill="#FFFFFF" font-family="'FranklinGothic-Medium'" font-size="160.327">Co je to</tspan><tspan x="167.373" y="140" display="inline" fill="#FFFFFF" font-family="'FranklinGothic-Medium'" font-size="160.327">ten</tspan><tspan x="-24.386" y="280" display="inline" fill="#FFFFFF" font-family="'FranklinGothic-Medium'" font-size="160.327">python?</tspan></text>
<g display="none">
	<path display="inline" fill="#FFFFFF" d="M271.37,365.147l17.849,1.957c-1.148,10.699-5.284,19.506-12.408,26.421
		c-7.124,6.916-16.479,10.373-28.065,10.373c-9.76,0-17.68-2.453-23.759-7.359c-6.081-4.905-10.764-11.559-14.052-19.962
		c-3.288-8.402-4.932-17.666-4.932-27.791c0-16.283,3.861-29.526,11.586-39.729c7.723-10.203,18.344-15.305,31.862-15.305
		c10.594,0,19.415,3.262,26.46,9.786c7.045,6.524,11.48,15.866,13.308,28.026l-17.849,1.879
		c-3.288-16.127-10.543-24.19-21.763-24.19c-7.202,0-12.8,3.354-16.792,10.06c-3.992,6.707-5.989,16.427-5.989,29.161
		c0,12.944,2.14,22.716,6.419,29.318c4.279,6.603,9.942,9.903,16.988,9.903c5.637,0,10.438-2.218,14.404-6.654
		C268.603,376.604,270.848,371.306,271.37,365.147z"/>
	<path display="inline" fill="#FFFFFF" d="M343.862,403.898c-14.197,0-25.247-5.323-33.154-15.97
		c-7.907-10.646-11.86-23.798-11.86-39.456c0-15.552,4.2-28.56,12.604-39.025c8.402-10.463,19.493-15.696,33.271-15.696
		c13.882,0,24.855,5.233,32.919,15.696c8.063,10.465,12.095,23.552,12.095,39.26c0,16.493-4.188,29.814-12.564,39.964
		C368.795,398.823,357.691,403.898,343.862,403.898z M344.018,388.397c6.94,0,12.812-2.87,17.614-8.611
		c4.801-5.74,7.202-16.152,7.202-31.235c0-12.264-1.984-21.881-5.95-28.848c-3.967-6.967-10.125-10.451-18.475-10.451
		c-16.493,0-24.738,13.283-24.738,39.847c0,12.891,2.101,22.664,6.302,29.317C330.174,385.07,336.189,388.397,344.018,388.397z"/>
	<path display="inline" fill="#FFFFFF" d="M484.852,295.396v73.744c0,12.265-2.649,21.125-7.946,26.578
		c-5.298,5.454-13.739,8.181-25.325,8.181c-6.681,0-11.874-0.548-15.579-1.644v-15.5c5.844,0.418,9.968,0.626,12.369,0.626
		c6.419,0,10.803-1.2,13.152-3.601c2.348-2.4,3.522-7.281,3.522-14.639v-73.744H484.852z"/>
	<path display="inline" fill="#FFFFFF" d="M576.759,402.254H507.32V295.396h68.733v15.892h-49.476v28.965h39.769v15.5h-39.769
		v29.905h50.181V402.254z"/>
	<path display="inline" fill="#FFFFFF" d="M670.778,402.254H650.11v-90.34h-28.417v-16.518h77.502v16.518h-28.417V402.254z"/>
	<path display="inline" fill="#FFFFFF" d="M748.045,403.898c-14.196,0-25.247-5.323-33.153-15.97
		c-7.907-10.646-11.86-23.798-11.86-39.456c0-15.552,4.2-28.56,12.604-39.025c8.402-10.463,19.493-15.696,33.271-15.696
		c13.882,0,24.854,5.233,32.918,15.696c8.063,10.465,12.096,23.552,12.096,39.26c0,16.493-4.188,29.814-12.565,39.964
		C772.979,398.823,761.874,403.898,748.045,403.898z M748.201,388.397c6.94,0,12.812-2.87,17.614-8.611
		c4.801-5.74,7.202-16.152,7.202-31.235c0-12.264-1.984-21.881-5.95-28.848c-3.967-6.967-10.125-10.451-18.475-10.451
		c-16.492,0-24.738,13.283-24.738,39.847c0,12.891,2.101,22.664,6.302,29.317C734.357,385.07,740.373,388.397,748.201,388.397z"/>
	<path display="inline" fill="#FFFFFF" d="M415.218,542.254h-20.667v-90.34h-28.417v-16.518h77.502v16.518h-28.417V542.254z"/>
	<path display="inline" fill="#FFFFFF" d="M524.816,542.254h-69.438V435.396h68.733v15.892h-49.476v28.965h39.769v15.5h-39.769
		v29.905h50.181V542.254z"/>
	<path display="inline" fill="#FFFFFF" d="M622.124,542.254h-18.71l-40.552-68.264c-0.626-1.043-1.644-2.74-3.053-5.088
		c-0.626-1.043-1.593-2.688-2.896-4.932v78.285h-15.5V435.396h21.293l37.42,62.941c0.313,0.522,2.584,4.358,6.811,11.507v-74.448
		h15.188V542.254z"/>
	<path display="inline" fill="#FFFFFF" d="M201.853,682.254h-19.258V575.396h43.761c12.473,0,21.724,3.145,27.752,9.434
		s9.042,13.713,9.042,22.271c0,9.76-3.263,17.667-9.786,23.721c-6.525,6.055-14.796,9.081-24.816,9.081h-26.695V682.254z
		 M201.853,623.384h22.781c5.949,0,10.49-1.46,13.622-4.384c3.131-2.922,4.697-6.811,4.697-11.664c0-4.385-1.448-8.142-4.345-11.273
		s-8.129-4.697-15.696-4.697h-21.059V623.384z"/>
	<path display="inline" fill="#FFFFFF" d="M321.628,682.254h-20.433v-45.092l-36.402-61.767h23.329l25.364,44.074l24.268-44.074
		h18.475l-34.602,61.767V682.254z"/>
	<path display="inline" fill="#FFFFFF" d="M410.168,682.254h-20.667v-90.341h-28.417v-16.518h77.502v16.518h-28.417V682.254z"/>
	<path display="inline" fill="#FFFFFF" d="M529.631,682.254h-19.258v-46.423h-40.787v46.423h-19.258V575.396h19.258v43.918h40.787
		v-43.918h19.258V682.254z"/>
	<path display="inline" fill="#FFFFFF" d="M592.493,683.897c-14.196,0-25.247-5.323-33.153-15.97
		c-7.907-10.646-11.86-23.799-11.86-39.455c0-15.552,4.2-28.561,12.604-39.025c8.402-10.463,19.493-15.696,33.271-15.696
		c13.882,0,24.854,5.233,32.918,15.696c8.063,10.465,12.096,23.552,12.096,39.26c0,16.492-4.188,29.814-12.565,39.965
		C617.427,678.823,606.322,683.897,592.493,683.897z M592.649,668.397c6.94,0,12.812-2.869,17.614-8.611
		c4.801-5.74,7.202-16.152,7.202-31.235c0-12.264-1.984-21.881-5.95-28.848c-3.967-6.968-10.125-10.451-18.475-10.451
		c-16.492,0-24.738,13.282-24.738,39.847c0,12.892,2.101,22.663,6.302,29.317S584.821,668.397,592.649,668.397z"/>
	<path display="inline" fill="#FFFFFF" d="M737.007,682.254h-18.71l-40.552-68.265c-0.626-1.043-1.644-2.739-3.053-5.088
		c-0.626-1.044-1.593-2.688-2.896-4.932v78.284h-15.5V575.396h21.293l37.42,62.94c0.313,0.522,2.584,4.358,6.811,11.508v-74.448
		h15.188V682.254z"/>
	<path display="inline" fill="#FFFFFF" d="M795.72,651.566h-15.266v-10.568c0-3.549,0.717-6.341,2.153-8.377
		c1.435-2.035,4.579-4.932,9.433-8.689c7.41-5.688,11.117-11.716,11.117-18.084c0-4.801-1.448-8.611-4.345-11.429
		c-2.896-2.818-6.668-4.228-11.313-4.228c-10.752,0-17.093,7.437-19.023,22.311l-17.065-3.053
		c1.043-11.116,5.153-19.845,12.329-26.187c7.176-6.341,15.774-9.512,25.795-9.512c9.968,0,18.214,2.963,24.738,8.886
		c6.523,5.924,9.785,13.296,9.785,22.115c0,4.384-0.9,8.547-2.7,12.486c-1.801,3.941-3.85,6.994-6.146,9.159
		c-2.297,2.167-7.151,5.964-14.562,11.391c-2.088,1.515-3.418,2.988-3.992,4.423C796.084,643.647,795.771,646.766,795.72,651.566z
		 M798.852,662.683v19.571h-18.397v-19.571H798.852z"/>
</g>
<g>
	<path fill="#2080AA" d="M496.431,197.229c-24.698,0.116-48.281,2.221-69.033,5.894c-61.13,10.802-72.233,33.406-72.233,75.094
		v55.059h144.465v18.353H355.166h-54.216c-41.982,0-78.746,25.234-90.248,73.243c-13.259,55.026-13.849,89.367,0,146.825
		c10.271,42.772,34.795,73.242,76.778,73.242h49.67v-66.003c0-47.681,41.262-89.746,90.249-89.746h144.297
		c40.167,0,72.232-33.069,72.232-73.411V278.216c0-39.147-33.023-68.56-72.232-75.094
		C546.882,198.991,521.129,197.113,496.431,197.229z"/>
	<path fill="#FFFFFF" d="M418.307,241.511c14.921,0,27.108,12.386,27.108,27.613c0,15.175-12.187,27.445-27.108,27.445
		c-14.975,0-27.109-12.27-27.109-27.445C391.198,253.897,403.332,241.511,418.307,241.511z"/>
	<path fill="#FAAC40" d="M661.943,351.627v64.15c0,49.738-42.167,91.598-90.248,91.598H427.398
		c-39.526,0-72.233,33.827-72.233,73.412v137.561c0,39.151,34.044,62.182,72.233,73.41c45.734,13.449,89.585,15.881,144.297,0
		c36.368-10.528,72.232-31.723,72.232-73.41V663.29H499.631v-18.353h144.297h72.23c41.989,0,57.638-29.286,72.233-73.242
		c15.085-45.251,14.442-88.773,0-146.825c-10.376-41.794-30.191-73.243-72.233-73.243H661.943z"/>
	<path fill="#FFFFFF" d="M580.788,699.995c14.974,0,27.107,12.271,27.107,27.446c0,15.227-12.134,27.613-27.107,27.613
		c-14.924,0-27.109-12.387-27.109-27.613C553.679,712.266,565.864,699.995,580.788,699.995z"/>
</g>
</svg>
