<?xml version="1.0" encoding="utf-8"?>
<!-- Generator: Adobe Illustrator 16.0.0, SVG Export Plug-In . SVG Version: 6.00 Build 0)  -->
<!DOCTYPE svg PUBLIC "-//W3C//DTD SVG 1.1//EN" "http://www.w3.org/Graphics/SVG/1.1/DTD/svg11.dtd">
<svg version="1.1" id="Layer_1" xmlns="http://www.w3.org/2000/svg" xmlns:xlink="http://www.w3.org/1999/xlink" x="0px" y="0px"
	 width="1000px" height="1000px" viewBox="0 0 1000 1000" enable-background="new 0 0 1000 1000" xml:space="preserve">
<circle display="none" fill="#465A6E" cx="500" cy="500" r="473.937"/>
<circle display="none" fill="#8FB2CC" cx="500" cy="500" r="418.439"/>
<circle fill="#007F3D" cx="500" cy="500" r="473.937"/>
<circle fill="#00A54F" cx="500" cy="500" r="418.439"/>
<g>
	<path fill="#1F80AA" d="M500.004,26.059C378.713,26.06,257.42,72.33,164.878,164.873c-185.087,185.086-185.087,485.17,0,670.253
		c92.541,92.543,213.835,138.813,335.126,138.815V26.059z"/>
	<path fill="#29A7DF" d="M500.006,918.443l-0.002-836.888c-107.09,0-214.179,40.853-295.884,122.56
		c-163.414,163.412-163.413,428.355,0,591.769C285.825,877.59,392.914,918.443,500.006,918.443z"/>
</g>
<g>
	<rect x="541.621" y="452.638" fill="#2187AA" width="20.566" height="50.091"/>
	<path fill="#0D3442" d="M625.719,513.961c-0.729-3.982,1.574-5.637,5.118-3.674l181.471,100.507
		c3.546,1.962,9.757,3.427,13.807,3.251l15.678-0.67c4.048-0.173,8.201,1.659,9.229,4.08c1.027,2.414-1.402,4.909-5.406,5.544
		l-187.076,29.506c-4.001,0.633-7.874-2.117-8.604-6.102L625.719,513.961z"/>
	<polygon fill="#0D3442" points="471.378,319.089 438.969,319.089 492.004,490.479 524.415,490.479 	"/>
	<path fill="#0D3442" d="M486.362,296.019H278.878c-9.22,0-16.692,7.471-16.692,16.693v207.483c0,9.221,7.473,16.692,16.692,16.692
		c9.217,0,16.692-7.472,16.692-16.692V329.403h190.792c9.216,0,16.694-7.475,16.694-16.691
		C503.057,303.489,495.579,296.019,486.362,296.019z"/>
	<path fill="#1B708E" d="M242.539,579.361c0,4.052-3.314,7.367-7.365,7.367h-59.914c-4.051,0-7.368-3.315-7.368-7.367V440.877
		c0-4.053,3.317-7.367,7.368-7.367h59.914c4.05,0,7.365,3.314,7.365,7.367V579.361z"/>
	<path fill="#11485B" d="M242.539,607.844c0,4.052-3.314,7.369-7.365,7.369h-79.065c-4.05,0-7.366-3.317-7.366-7.369v-26.519
		c0-4.049,3.316-7.363,7.366-7.363h79.065c4.05,0,7.365,3.314,7.365,7.363V607.844z"/>
	<path fill="#2187AA" d="M599.55,487.532H314.235v-18.17c0-4.051-3.314-7.367-7.367-7.367h-59.913c-4.049,0-7.362,3.316-7.362,7.367
		v138.482c0,4.052,3.313,7.369,7.362,7.369h23.772c-1.709-4.873-2.651-10.081-2.651-15.471c0-26.105,21.778-47.878,47.879-47.878
		c2.054,0,4.078,0.147,6.068,0.408c4.172-1.218,8.559-1.883,13.082-1.883c26.101,0,47.881,21.774,47.881,47.878
		c0,5.94-1.139,11.649-3.193,16.945h91.692c1.561-24.777,22.663-44.937,47.776-44.937c25.108,0,46.211,20.159,47.772,44.937h32.515
		c4.05,0,7.367-3.317,7.367-7.369V494.896C606.917,490.845,603.6,487.532,599.55,487.532z"/>
	<path fill="#2187AA" d="M665.86,589.427c-5.752,0-11.42-2.687-15.012-7.729L575.228,475.55
		c-138.05-17.752-338.93-43.453-350.22-44.528c-9.668-0.558-17.334-8.574-17.334-18.379c0-10.172,8.246-18.417,18.417-18.417
		c1.533,0,5.6,0,361.813,45.823c5.091,0.653,9.673,3.398,12.649,7.578l80.29,112.7c5.904,8.285,3.971,19.781-4.313,25.684
		C673.287,588.322,669.558,589.427,665.86,589.427z M225.132,431.03c0.464,0.031,0.787,0.023,0.958,0.027
		C225.768,431.057,225.449,431.049,225.132,431.03z"/>
	<path fill="#0D3442" d="M247.449,419.883c0,15.255-12.368,27.626-27.623,27.626c-15.256,0-27.623-12.371-27.623-27.626
		c0-15.254,12.367-27.621,27.623-27.621C235.081,392.262,247.449,404.628,247.449,419.883z"/>
	<circle fill="#2187AA" cx="334.291" cy="599.302" r="56.876"/>
	<path fill="#0D3442" d="M334.292,494.621c-57.811,0-104.679,46.868-104.679,104.685c0,57.809,46.869,104.677,104.679,104.677
		c57.812,0,104.678-46.868,104.678-104.677C438.969,541.489,392.103,494.621,334.292,494.621z M334.292,641.98
		c-23.572,0-42.682-19.103-42.682-42.675c0-23.569,19.109-42.687,42.682-42.687c23.573,0,42.677,19.117,42.677,42.687
		C376.968,622.878,357.865,641.98,334.292,641.98z"/>
	<circle fill="#2187AA" cx="524.417" cy="627.398" r="56.876"/>
	<path fill="#0D3442" d="M524.415,550.815c-42.296,0-76.583,34.285-76.583,76.584c0,42.293,34.287,76.583,76.583,76.583
		c42.294,0,76.587-34.29,76.587-76.583C601.002,585.101,566.709,550.815,524.415,550.815z M524.415,658.622
		c-17.242,0-31.224-13.977-31.224-31.223c0-17.244,13.982-31.23,31.224-31.23c17.245,0,31.224,13.986,31.224,31.23
		C555.639,644.646,541.66,658.622,524.415,658.622z"/>
</g>
<g id="done" display="none">
	<circle display="inline" fill="#90D12A" cx="806.875" cy="809.439" r="126"/>
	<path display="inline" fill="#C9E29F" d="M901.328,726.005c-3.335-3.799-6.893-7.394-10.655-10.767
		c-8.051,6.109-15.642,12.651-22.414,19.608c-48.514,49.843-89.55,116.965-89.55,116.965s-4.005-7.684-15.949-36.552
		c-7.975-19.273-51.172-10.634-51.172-10.634c22.597-2.659,53.165,101.015,53.165,101.015l29.242-16.614
		c0,0,6.645-27.911,37.214-71.771C854.778,783.44,872.62,754.267,901.328,726.005z"/>
</g>
<g id="correcting" display="none">
	<circle display="inline" fill="#C44E1A" cx="806.875" cy="809.439" r="126"/>
	<g display="inline">
		<path fill="#F79B72" d="M806.879,898.055c-44.275,0-80.293-36.056-80.293-80.316c0-44.27,36.018-80.306,80.293-80.306
			c2.939,0,5.913,0.17,8.864,0.502v-12.98c0-1.667,1.03-3.186,2.547-3.83c1.58-0.615,3.329-0.27,4.533,0.927l28.449,28.512
			c1.616,1.618,1.616,4.201,0,5.845l-28.437,28.573c-1.211,1.179-2.966,1.543-4.546,0.897c-1.517-0.652-2.547-2.157-2.547-3.819
			v-14.396c-2.94-0.539-5.898-0.783-8.864-0.783c-28.048,0-50.872,22.817-50.872,50.859c0,28.034,22.83,50.87,50.872,50.87
			c28.04,0,50.857-22.843,50.857-50.87c0-2.276,1.851-4.14,4.151-4.14h21.125c2.288,0,4.151,1.863,4.151,4.14
			C887.164,861.999,851.121,898.055,806.879,898.055z"/>
	</g>
</g>
</svg>
