<?xml version="1.0" encoding="utf-8"?>
<!-- Generator: Adobe Illustrator 16.0.0, SVG Export Plug-In . SVG Version: 6.00 Build 0)  -->
<!DOCTYPE svg PUBLIC "-//W3C//DTD SVG 1.1//EN" "http://www.w3.org/Graphics/SVG/1.1/DTD/svg11.dtd">
<svg version="1.1" id="Layer_1" xmlns="http://www.w3.org/2000/svg" xmlns:xlink="http://www.w3.org/1999/xlink" x="0px" y="0px"
	 width="250px" height="50px" viewBox="0 0 250 50" enable-background="new 0 0 250 50" xml:space="preserve">
<g>
	<polygon fill="#FFFFFF" stroke="#000000" stroke-miterlimit="10" points="106.297,28.174 105.939,18.141 103.72,17.813 
		94.947,15.027 90.179,13.513 88.388,3.785 84.239,3.902 83.212,34.459 69.17,39.705 101.253,46.271 100.027,40.656 102.643,35.449 
			"/>
	<path fill="#FFFFFF" stroke="#000000" stroke-miterlimit="10" d="M74.444,25.409l-2.478-5.696c0,0-2.218-1.196-5.166-2.786
		c-5.537-2.987-13.656-7.366-14.543-7.844c-0.568-0.307-2.823-1.702-5.25-3.218l0.01,0.052L37.212,6.83L24.377,3.728l-8.261,4.47
		L5.713,13.827l2.243,24.026l6.155-12.972l47.514,3.347l-4.461,15.184L74.444,25.409z"/>
	<polygon fill="#FFFFFF" stroke="#000000" stroke-miterlimit="10" points="164.589,16.148 162.893,12.06 159.916,4.884 
		156.828,9.597 151.439,8.201 144.35,6.362 138.522,12.299 142.851,15.814 144.627,17.255 147.892,23.984 150.023,28.377 
		149.042,31.367 146.887,37.936 158.194,42.049 165.309,38.047 172.09,34.229 	"/>
	<polygon fill="#FFFFFF" stroke="#000000" stroke-miterlimit="10" points="136.295,22.472 134.553,18.31 131.114,14.789 
		128.263,11.866 124.924,8.311 121.067,4.202 115.278,4.049 121.562,11.245 124.707,14.845 118.495,28.311 112.697,36.381 
		109.217,41.227 117.019,45.182 120.64,42.639 127.301,37.963 138.29,27.234 	"/>
	<polygon fill="#FFFFFF" stroke="#000000" stroke-miterlimit="10" points="206.17,28.963 206.466,21.599 206.69,16.003 
		188.025,8.841 182.556,6.742 178.165,39.326 208.219,43.377 211.156,37.568 213.253,33.426 	"/>
	<polygon fill="#FFFFFF" stroke="#000000" stroke-miterlimit="10" points="235.368,9.246 228.286,12.067 218.233,8.354 
		210.242,8.165 211.172,20.352 211.059,25.133 211.58,25.117 215.477,26.518 219.938,28.121 220.329,40.389 228.292,38.656 
		234.629,40.529 239.164,41.871 243.473,40.084 244.287,5.69 	"/>
</g>
</svg>
