<?xml version="1.0" encoding="utf-8"?>
<!-- Generator: Adobe Illustrator 16.0.0, SVG Export Plug-In . SVG Version: 6.00 Build 0)  -->
<!DOCTYPE svg PUBLIC "-//W3C//DTD SVG 1.1//EN" "http://www.w3.org/Graphics/SVG/1.1/DTD/svg11.dtd">
<svg version="1.1" id="Layer_1" xmlns="http://www.w3.org/2000/svg" xmlns:xlink="http://www.w3.org/1999/xlink" x="0px" y="0px"
	 width="1000px" height="1000px" viewBox="0 0 1000 1000" enable-background="new 0 0 1000 1000" xml:space="preserve">
<circle display="none" fill="#465A6E" cx="500" cy="500" r="473.937"/>
<circle display="none" fill="#8FB2CC" cx="500" cy="500" r="418.439"/>
<circle fill="#FAAC40" cx="500" cy="500" r="473.937"/>
<circle fill="#FFC388" cx="500" cy="500" r="418.439"/>
<g display="none">
	<path display="inline" fill="#1F80AA" d="M500.004,26.059C378.713,26.06,257.42,72.33,164.878,164.873
		c-185.087,185.086-185.087,485.17,0,670.253c92.541,92.543,213.835,138.813,335.126,138.815V26.059z"/>
	<path display="inline" fill="#29A7DF" d="M500.006,918.443l-0.002-836.888c-107.09,0-214.179,40.853-295.884,122.56
		c-163.414,163.412-163.413,428.355,0,591.769C285.825,877.59,392.914,918.443,500.006,918.443z"/>
</g>
<g>
	<path opacity="0.9" fill="#E5AE7C" d="M330.358,626.19v146.043H508V247.767H330.358v72.117l-56.154-32.495l-0.022,23.858
		l-49.68-0.046v209.257h129.942l142.964,59.218v46.515H330.358z M352.281,501.297H243.663V330.378l30.502,0.029l-0.023,23.859
		l56.216-32.393v71.938h167.16v47.327L352.281,501.297z"/>
	<polygon opacity="0.9" fill="#B28760" points="516.678,441.138 516.678,393.811 683.834,393.811 683.834,247.767 508,247.767 
		508,772.233 683.834,772.233 683.834,626.19 516.57,626.19 516.57,579.764 667.457,517.262 772.338,517.262 772.338,688.182 
		741.836,688.154 741.857,664.295 683.92,697.681 741.799,731.172 741.818,707.316 791.498,707.36 791.498,498.103 654.201,498.103 
			"/>
</g>
<g id="done" display="none">
	<circle display="inline" fill="#90D12A" cx="806.875" cy="809.439" r="126"/>
	<path display="inline" fill="#C9E29F" d="M901.328,726.005c-3.335-3.799-6.893-7.394-10.655-10.767
		c-8.051,6.109-15.642,12.651-22.414,19.608c-48.514,49.843-89.55,116.965-89.55,116.965s-4.005-7.684-15.949-36.552
		c-7.975-19.273-51.172-10.634-51.172-10.634c22.597-2.659,53.165,101.015,53.165,101.015l29.242-16.614
		c0,0,6.645-27.911,37.214-71.771C854.778,783.44,872.62,754.267,901.328,726.005z"/>
</g>
<g id="correcting" display="none">
	<circle display="inline" fill="#C44E1A" cx="806.875" cy="809.439" r="126"/>
	<g display="inline">
		<path fill="#F79B72" d="M806.879,898.055c-44.275,0-80.293-36.056-80.293-80.316c0-44.27,36.018-80.306,80.293-80.306
			c2.939,0,5.913,0.17,8.864,0.502v-12.98c0-1.667,1.03-3.186,2.547-3.83c1.58-0.615,3.329-0.27,4.533,0.927l28.449,28.512
			c1.616,1.618,1.616,4.201,0,5.845l-28.437,28.573c-1.211,1.179-2.966,1.543-4.546,0.897c-1.517-0.652-2.547-2.157-2.547-3.819
			v-14.396c-2.94-0.539-5.898-0.783-8.864-0.783c-28.048,0-50.872,22.817-50.872,50.859c0,28.034,22.83,50.87,50.872,50.87
			c28.04,0,50.857-22.843,50.857-50.87c0-2.276,1.851-4.14,4.151-4.14h21.125c2.288,0,4.151,1.863,4.151,4.14
			C887.164,861.999,851.121,898.055,806.879,898.055z"/>
	</g>
</g>
</svg>
