<?xml version="1.0" encoding="utf-8"?>
<!-- Generator: Adobe Illustrator 16.0.0, SVG Export Plug-In . SVG Version: 6.00 Build 0)  -->
<!DOCTYPE svg PUBLIC "-//W3C//DTD SVG 1.1//EN" "http://www.w3.org/Graphics/SVG/1.1/DTD/svg11.dtd">
<svg version="1.1" id="Layer_1" xmlns="http://www.w3.org/2000/svg" xmlns:xlink="http://www.w3.org/1999/xlink" x="0px" y="0px"
	 width="1000px" height="1000px" viewBox="0 0 1000 1000" enable-background="new 0 0 1000 1000" xml:space="preserve">
<circle display="none" fill="#465A6E" cx="500" cy="500" r="355.558"/>
<circle display="none" fill="#8FB2CC" cx="500" cy="499.999" r="313.922"/>
<circle fill="#FFC82A" cx="500" cy="500" r="481.376"/>
<g>
	<path fill="#F9E385" d="M895.979,603.671c-9.382,4.744-16.271,9.655-22.1,16.146c4.866-16.79,8.735-34.529,11.555-53.235
		c20.335,2.252,35.012-2.407,51.647-16.242c14.396-11.979,21.142-22.836,25.911-41.7c-21.637-2.207-36.295,2.289-53.587,16.406
		c-10.701,8.742-17.258,16.803-22.104,27.913c2.158-17.896,3.39-36.642,3.596-56.269c0.021-1.831,0.008-3.646,0.008-5.468
		c20.891-2.186,34.558-9.985,48.354-27.496c11.771-14.925,16.266-27.05,17.261-46.561c-21.586,2.653-35.053,10.308-49.234,27.984
		c-9.185,11.447-14.065,21.162-16.551,33.957c-0.643-21.865-2.908-43.025-6.713-63.382c19.178-6.824,30.706-17.463,40.582-37.208
		c8.614-17.228,10.656-30.076,7.851-49.394c-20.596,7.425-32.293,17.913-42.729,38.34c-5.678,11.119-8.618,20.36-9.397,30.762
		c-4.523-19.221-10.444-37.671-17.671-55.256c16.524-10.763,25.397-23.601,31.072-44.521c5.086-18.772,4.593-31.816-1.889-50.077
		c-18.711,11.853-28.115,24.705-34.361,47.025c-2.929,10.462-4.15,19.11-3.623,27.919c-7.904-16.288-16.981-31.753-27.149-46.313
		c13.748-14.065,19.83-28.521,21.295-50.016c1.343-19.491-1.66-32.127-11.557-48.551c-16.011,15.759-22.71,30.447-24.486,53.664
		c-0.819,10.628-0.357,19.202,1.726,27.519c-10.91-13.62-22.869-26.327-35.771-38.055c11.029-17.053,14.275-32.674,11.524-54.279
		c-2.473-19.354-7.875-31.05-20.728-44.895c-12.609,18.983-16.311,34.818-13.551,57.939c1.384,11.556,3.765,20.382,8.091,28.657
		c-13.73-11.094-28.394-21.162-43.931-30.124c7.99-19.701,8.276-35.953,1.236-56.901c-6.168-18.401-13.714-28.631-28.977-39.313
		c-8.652,21.364-9.199,37.707-2.017,59.702c4.048,12.368,8.652,21.075,15.743,28.859c-16.238-8.404-33.334-15.651-51.212-21.662
		c4.156-21.361,1.365-37.454-9.7-56.59c-9.595-16.598-18.964-24.939-35.97-31.985c-4.307,22.829-1.678,38.937,9.603,58.84
		c6.53,11.513,12.882,19.103,21.69,25.219c-5.792-1.695-11.64-3.279-17.581-4.714l-14.193,3.263
		c9.296,2.248,18.451,4.858,27.441,7.792c-14.353,2.708-25.541,9.643-37.201,22.498c-12.71,14.019-17.979,25.774-20.256,45.152
		c21.714-1.037,35.65-7.656,50.938-24.218c11.437-12.392,17.007-22.915,20.117-38.708c16.081,5.946,31.603,12.97,46.487,20.994
		c-12.463,0.517-23.497,4.883-35.806,13.714c-15.152,10.872-22.589,21.186-28.574,39.639c21.438,3.828,36.355,0.455,54.526-12.341
		c13.011-9.154,20.433-17.849,26.399-31.533c14.212,8.665,27.765,18.29,40.561,28.783c-11.704-1.825-22.92,0.079-36.06,5.719
		c-16.929,7.244-26.211,15.682-35.638,32.415c20.226,8.518,35.474,8.542,55.721,0.061c14.345-5.985,23.243-12.749,31.643-24.542
		c12.382,11.434,23.928,23.746,34.559,36.864c-11.152-4.46-22.535-5.123-36.549-2.541c-17.954,3.325-28.67,9.514-41.141,23.771
		c18.137,12.853,33.047,16.27,54.496,12.497c15.269-2.68,25.301-7.337,35.874-17.101c9.992,13.959,18.996,28.71,26.91,44.181
		c-10.147-7.049-21.266-10.318-35.684-10.91c-18.206-0.742-29.885,2.911-44.856,14.085c15.259,16.598,29.174,23.254,50.89,24.369
		c15.509,0.778,26.264-1.564,38.551-8.831c6.903,15.718,12.721,32.089,17.36,49.043c-8.513-9.001-18.687-14.605-32.522-18.356
		c-17.686-4.784-29.817-3.809-46.615,3.768c11.697,19.646,24.012,29.274,45.04,35.175c14.898,4.196,25.808,4.335,39.071,0.084
		c3.45,16.342,5.812,33.167,7.018,50.418c-6.496-10.037-15.162-17.415-27.457-23.908c-16.356-8.626-28.417-10.371-46.327-6.698
		c7.645,21.816,17.824,33.983,37.244,44.45c13.512,7.293,24.016,9.898,37.474,8.846c0.026,2.779,0.026,5.563,0,8.36
		c-0.164,14.689-0.899,28.843-2.185,42.472c-4.407-11.267-11.452-20.423-22.224-29.508c-14.327-12.085-25.79-16.479-44.012-16.87
		c3.239,23.021,10.845,37.201,27.805,51.772c12.049,10.337,21.97,15.223,35.749,17.119c-2.83,19.589-6.858,38.021-11.99,55.334
		c-1.327-14.689-6.578-26.847-16.829-40.032c-11.673-15.021-22.022-21.879-39.783-26.333c-1.302,23.262,3.396,38.83,17.17,56.848
		c10.4,13.634,19.659,20.667,34.237,25.638c-7.06,20.135-15.704,38.65-25.749,55.643c2.844-16.812,0.318-31.083-8.003-48.011
		c-8.501-17.286-17.304-26.307-33.809-34.611c-5.781,22.459-4.203,38.709,5.765,59.432c7.747,16.101,15.665,25.104,29.696,33.424
		c-10.683,16.467-22.75,31.404-36.038,44.869c4.929-14.638,4.908-28.468,0.369-45.655c-4.965-18.816-11.827-29.588-26.354-41.391
		c-10.018,20.684-11.632,36.934-5.894,59.411c4.28,16.771,9.98,27.192,21.137,37.946c-12.094,11.042-25.066,21.007-38.819,29.933
		c4.802-11.003,6.416-22.705,5.504-37.277c-1.197-19.518-5.823-31.578-17.747-46.357c-13.806,17.98-18.53,33.53-17.285,56.778
		c0.845,15.682,3.819,26.539,10.869,38.066c-15.69,8.737-32.246,16.284-49.513,22.698c7.176-9.876,11.188-21.155,13.188-36.017
		c2.594-19.347,0.422-32.188-8.381-49.285c-16.999,14.506-24.644,28.665-27.928,51.692c-2.25,15.795-1.387,27.195,3.507,40.337
		c-21.638,6.804-44.237,11.967-67.562,15.646c17.363-9.182,27.252-21.149,34.609-41.476c6.59-18.222,7.156-31.266,2.18-50.072
		c-19.606,10.063-30.018,22.009-38.059,43.646c-6.569,17.723-7.501,30.446-3.475,48.636c-1.098,0.169-2.211,0.313-3.315,0.469
		c-0.157,0-0.313-0.006-0.481-0.006l0.012,0.073c-12.726,1.796-25.645,3.165-38.735,4.108c-14.102,1.017-27.089,5.024-39.332,10.878
		c-12.166-5.797-25.067-9.757-39.073-10.76c-13.09-0.937-26.01-2.317-38.734-4.109l0.014-0.074c-0.163,0-0.313,0.008-0.478,0.008
		c-1.107-0.156-2.217-0.301-3.321-0.47c4.029-18.188,3.095-30.914-3.478-48.636c-8.041-21.637-18.45-33.589-38.059-43.646
		c-4.973,18.808-4.408,31.832,2.183,50.073c7.357,20.325,17.25,32.294,34.609,41.474c-23.318-3.677-45.926-8.839-67.558-15.646
		c4.894-13.142,5.755-24.54,3.501-40.335c-3.293-23.031-10.927-37.187-27.927-51.712c-8.794,17.121-10.974,29.955-8.376,49.305
		c1.998,14.856,6.007,26.139,13.188,36.016c-17.27-6.43-33.825-13.961-49.518-22.699c7.053-11.526,10.025-22.387,10.865-38.063
		c1.256-23.251-3.475-38.801-17.28-56.782c-11.923,14.781-16.548,26.85-17.754,46.359c-0.903,14.587,0.71,26.278,5.519,37.285
		c-13.76-8.933-26.732-18.898-38.826-29.934c11.161-10.759,16.853-21.182,21.136-37.954c5.735-22.476,4.123-38.721-5.893-59.408
		c-14.531,11.799-21.389,22.573-26.355,41.382c-4.54,17.202-4.563,31.023,0.379,45.67c-13.295-13.475-25.367-28.411-36.05-44.883
		c14.034-8.314,21.948-17.317,29.7-33.419c9.969-20.722,11.547-36.973,5.762-59.43c-16.503,8.302-25.307,17.324-33.81,34.603
		c-8.319,16.915-10.841,31.2-8.007,48.019c-10.045-16.992-18.685-35.507-25.742-55.643c14.578-4.971,23.836-12.003,34.24-25.625
		c13.767-18.033,18.464-33.6,17.159-56.854c-17.754,4.452-28.106,11.304-39.778,26.318c-10.249,13.195-15.503,25.354-16.83,40.049
		c-5.133-17.325-9.15-35.757-11.986-55.345c13.78-1.897,23.71-6.776,35.748-17.117c16.967-14.568,24.569-28.748,27.801-51.771
		c-18.225,0.386-29.682,4.783-44.01,16.871c-10.77,9.082-17.818,18.237-22.225,29.507c-1.277-13.631-2.021-27.782-2.174-42.472
		c-0.029-2.797-0.029-5.583,0-8.359c13.453,1.052,23.952-1.556,37.469-8.849c19.416-10.467,29.604-22.636,37.235-44.449
		c-17.903-3.673-29.966-1.936-46.32,6.698c-12.295,6.493-20.965,13.87-27.46,23.907c1.21-17.253,3.576-34.076,7.016-50.419
		c13.274,4.253,24.182,4.109,39.077-0.086c21.02-5.918,33.344-15.527,45.038-35.171c-16.794-7.578-28.932-8.573-46.605-3.771
		c-13.839,3.751-24.014,9.356-32.528,18.356c4.631-16.95,10.46-33.321,17.355-49.04c12.289,7.269,23.044,9.609,38.554,8.832
		c21.715-1.117,35.63-7.773,50.886-24.377c-14.963-11.169-26.644-14.842-44.856-14.081c-14.409,0.591-25.528,3.86-35.677,10.91
		c7.911-15.471,16.918-30.222,26.915-44.184c10.563,9.764,20.6,14.424,35.867,17.104c21.447,3.772,36.36,0.331,54.494-12.497
		c-12.47-14.254-23.182-20.451-41.147-23.766c-14.01-2.603-25.392-1.934-36.539,2.523c10.635-13.111,22.182-25.423,34.555-36.853
		c8.403,11.794,17.299,18.557,31.641,24.542c20.252,8.477,35.498,8.457,55.725-0.076c-9.435-16.718-18.714-25.155-35.639-32.399
		c-13.141-5.642-24.354-7.545-36.064-5.716c12.804-10.497,26.351-20.114,40.569-28.787c5.97,13.681,13.382,22.379,26.399,31.531
		c18.167,12.797,33.086,16.174,54.521,12.343c-5.983-18.457-13.419-28.785-28.572-39.639c-12.297-8.832-23.338-13.197-35.811-13.715
		c14.889-8.021,30.415-15.048,46.496-20.994c3.106,15.792,8.68,26.315,20.112,38.703c15.295,16.57,29.229,23.187,50.939,24.221
		c-2.278-19.394-7.548-31.147-20.26-45.15c-11.664-12.854-22.844-19.791-37.194-22.502c8.993-2.924,18.144-5.536,27.438-7.794
		l-14.2-3.254c-5.936,1.437-11.784,3.02-17.574,4.711c8.802-6.112,15.158-13.707,21.689-25.218
		c11.287-19.901,13.908-36.016,9.597-58.843c-17.003,7.047-26.361,15.388-35.964,31.99c-11.06,19.131-13.854,35.226-9.693,56.587
		c-17.877,6.008-34.974,13.256-51.221,21.663c7.094-7.784,11.7-16.485,15.746-28.86c7.188-21.991,6.631-38.337-2.014-59.7
		c-15.263,10.682-22.807,20.915-28.979,39.31c-7.035,20.951-6.743,37.202,1.236,56.907c-15.538,8.958-30.209,19.029-43.942,30.13
		c4.33-8.278,6.724-17.102,8.107-28.66c2.753-23.128-0.948-38.988-13.552-57.944c-12.858,13.843-18.259,25.541-20.725,44.895
		c-2.758,21.605,0.485,37.228,11.521,54.271c-12.907,11.731-24.861,24.439-35.777,38.063c2.088-8.319,2.547-16.89,1.73-27.514
		c-1.782-23.225-8.48-37.911-24.497-53.67c-9.883,16.426-12.895,29.061-11.557,48.551c1.472,21.495,7.552,35.951,21.306,50.019
		c-10.175,14.555-19.247,30.021-27.151,46.311c0.523-8.808-0.689-17.458-3.621-27.919c-6.241-22.317-15.649-35.168-34.362-47.026
		c-6.486,18.262-6.98,31.306-1.89,50.074c5.67,20.926,14.544,33.758,31.073,44.524c-7.23,17.579-13.147,36.028-17.672,55.246
		c-0.78-10.399-3.719-19.64-9.395-30.752c-10.435-20.427-22.131-30.915-42.734-38.338c-2.805,19.315-0.759,32.164,7.861,49.391
		c9.868,19.738,21.394,30.38,40.566,37.206c-3.797,20.356-6.067,41.515-6.701,63.378c-2.495-12.789-7.367-22.504-16.558-33.954
		c-14.179-17.673-27.647-25.327-49.234-27.981c1.002,19.509,5.497,31.636,17.261,46.554c13.803,17.52,27.47,25.302,48.355,27.5
		c-0.007,1.814-0.014,3.627,0.007,5.452c0.212,19.637,1.438,38.39,3.601,56.299c-4.851-11.127-11.407-19.191-22.109-27.924
		c-17.286-14.123-31.949-18.61-53.587-16.408c4.769,18.867,11.518,29.723,25.916,41.695c16.637,13.84,31.301,18.505,51.645,16.253
		c2.83,18.703,6.696,36.454,11.56,53.239c-5.831-6.493-12.717-11.405-22.105-16.153c-19.654-9.965-34.863-11.076-55.601-4.102
		c8.317,17.397,17.024,26.5,33.438,35.008c17.985,9.33,32.639,10.956,50.722,5.336c5.672,16.081,12.306,31.208,19.803,45.428
		c-5.73-3.35-12.126-5.77-19.988-7.753c-21.149-5.368-36.246-3.065-55.171,8.385c11.505,15.145,21.798,22.119,39.496,26.788
		c18.631,4.898,32.88,3.567,48.688-4.982c8.814,13.845,18.534,26.701,29.066,38.605c-5.955-1.784-12.366-2.635-19.984-2.824
		c-21.724-0.532-36.048,5.075-52.348,20.506c14.205,12.244,25.62,16.771,43.838,17.396c19.314,0.65,33.049-3.889,46.951-15.965
		c12.353,11.724,25.58,22.354,39.587,31.918c-7.396-1.04-14.955-0.547-24.055,1.295c-21.354,4.312-34.281,13.003-47.229,31.714
		c16.272,8.828,28.314,10.723,46.257,7.268c19.846-3.834,32.648-11.861,44.289-28.085c14.573,8.56,29.859,16.095,45.732,22.628
		c-5.665,1.054-11.441,2.989-17.934,5.905c-20.051,9.003-31.009,20.369-40.045,41.559c17.62,5.021,29.771,4.176,46.648-3.202
		c17.799-7.793,28.605-17.877,36.711-34.817c13.03,4.359,26.384,8.105,40.016,11.26c-1.77,1.205-3.571,2.52-5.433,3.951
		c-17.649,13.59-25.937,27.323-30.296,50.146c18.223,0.631,29.885-3.123,44.775-14.392c12.786-9.653,20.72-19.699,25.583-33.048
		c14.123,2.192,28.472,3.811,42.995,4.852c6.871,0.496,13.247,1.732,19.258,3.521c-28.001,18.552-52.725,44.388-79.35,61.316
		l21.244,9.509c29.656-18.852,50.494-46.28,78.206-62.127c27.827,15.833,48.689,43.353,78.412,62.245l21.255-9.511
		c-26.705-16.98-51.499-42.909-79.594-61.473c6.081-1.841,12.535-3.103,19.502-3.596c14.515-1.05,28.864-2.662,42.989-4.854
		c4.859,13.349,12.795,23.393,25.58,33.074c14.89,11.241,26.549,14.996,44.778,14.363c-4.358-22.819-12.647-36.553-30.297-50.144
		c-1.86-1.432-3.665-2.747-5.438-3.944c13.635-3.16,26.992-6.908,40.016-11.267c8.106,16.94,18.912,27.024,36.716,34.819
		c16.877,7.376,29.029,8.224,46.648,3.2c-9.03-21.188-19.988-32.554-40.042-41.558c-6.495-2.916-12.271-4.854-17.938-5.907
		c15.88-6.532,31.16-14.065,45.74-22.627c11.64,16.224,24.442,24.254,44.283,28.077c17.942,3.464,29.985,1.569,46.256-7.259
		c-12.952-18.71-25.867-27.403-47.229-31.714c-9.096-1.845-16.655-2.329-24.053-1.297c14.007-9.563,27.24-20.193,39.587-31.915
		c13.903,12.073,27.636,16.62,46.952,15.964c18.215-0.626,29.624-5.153,43.828-17.396c-16.285-15.432-30.616-21.039-52.344-20.507
		c-7.613,0.183-14.021,1.042-19.973,2.811c10.532-11.892,20.245-24.746,29.074-38.591c15.795,8.55,30.041,9.884,48.666,4.984
		c17.716-4.671,27.994-11.646,39.503-26.797c-18.919-11.444-34.03-13.748-55.174-8.371c-7.854,1.975-14.247,4.396-19.979,7.739
		c7.502-14.214,14.138-29.34,19.802-45.421c18.074,5.619,32.729,3.992,50.713-5.328c16.418-8.516,25.118-17.612,33.439-35.016
		C930.843,592.596,915.631,593.71,895.979,603.671"/>
</g>
<circle fill="#007F3D" cx="500" cy="500" r="355.558"/>
<circle fill="#00A54F" cx="500" cy="497.75" r="313.922"/>
<g>
	<g>
		<g>
			<path fill="#667D47" d="M505.853,281.81c-0.258-0.005-0.532-0.016-0.79-0.016c-120.743,0-218.614,97.793-218.614,218.414
				c0,120.629,97.871,218.411,218.614,218.411c0.258,0,0.532-0.006,0.79-0.006c120.371-0.427,217.813-98.044,217.813-218.405
				S626.224,282.232,505.853,281.81z"/>
			<polygon fill="#004346" points="505.837,611.362 505.853,611.408 505.853,611.343 			"/>
			<path fill="#96DCE0" d="M709.35,420.992l-11.408,0.191l-5.723-6.269l-1.087-10.093l-5.861,3.194l-3.148,12.341l-8.456-8.999
				l-0.346-8.512l-8.157-7.028l-3.025-2.997h-9.482l3.003,8.445l11.403,6.357l1.981,2.094l-2.471,1.233l0.092,6.692l-5.535,2.312
				l-4.747-1.042l-2.957-4.2l7.704,0.418l2.085-2.807l-17.094-11.521l-1.297-4.911l-6.934,6.274l-7.049-1.44l-10.716,13.916
				l-2.095,5.454l-6.847,0.624l-10.144,0.063l-6.052-2.827l-1.78-12.042l2.178-5.738l10.304-2.25l11.258,2.25l1.362-6.223
				l-4.783-1.129l1.646-9.685l11.309-1.774l7.91-11.176l8.184-1.372l7.373,1.093h2.707l-1.48-10.499l-8.971,3.616l-3.154-7.842
				l-5.19-0.727l-0.985-5.382l4.258-4.623l10.093-3.953l2.6-4.643c-38.459-33.877-88.843-54.537-143.972-54.66
				c-0.166,0-0.325-0.01-0.496-0.01c-48.009,0-92.421,15.591-128.559,41.905l11.042-0.083l4.911,2.714l9.267,2.002l0.718,3.642
				l14.74,0.547l-1.997-4.725l-13.09-0.372l3.08-2.9l-1.078-3.462H392.56l12.909-9.632h12.369l5.814,8.007l9.653,0.537l5.805-5.64
				l4.375,2.182l-8.008,7.822c0,0-11.098,0.186-10.536,0.186c0.542,0,0.913,7.63,0.913,7.63l13.431-0.371l1.476-3.627l9.256-0.546
				l1.094-5.449l-5.443-0.923l1.816-4.907l4.173-1.259l14.556,0.712l-8.023,7.28l1.289,5.629l8.369,1.274l-0.552-10.174l8.003-4.184
				l14.193-1.64l16.361,7.249l4.169,1.847v7.816l6.558,1.641l-3.275,6.182h-7.451h-1.826l-2.735,7.089l-21.195-5.005l16.65-8.874
				l-6.356-5.397l-14.364,1.816l-1.264,1.3l-0.042-0.021l-0.238,0.31l-4.122,4.298l-6.837,0.572l0.547,3.411l2.383,0.986
				l-0.092,1.125l-5.563,0.794l-0.403,3.23l-5.324,0.273l-0.965-6.408l-9.54,2.905l-19.502,11.414l2.192,8.038l5.45,3.56
				l10.907,1.497v12.403l5.035-0.815l4.649-9.685l11.599-3.673v-14.875l6.444-4.86l15.597,3.673l-1.104,9.824h4.199l11.45-5.634
				l0.546,12.909l3.824,2.328l4.521,2.755l-0.353,7.651l-4.169,1.419v5.324l6.352,2.896l-0.192,5.267l-2.785,0.238
				c-0.016-0.088-0.031-0.145-0.031-0.145l-3.343-1.037l-8.807-2.714l-0.516-3.895h-0.016l3.55-2.441v-3.56l-3.823-0.95
				l-0.944,3.282l-6.697,1.032l-0.666-0.227v0.335l-2.327,0.356l-1.898-3.828l-2.188-0.95h-4.778l-2.168,1.77v3.957l4.082,1.363
				l4.03,0.567l-0.892,0.392l-3.679,4.076l-1.635-2.038l-3.544-0.939l-9.69,9.117l1.264,1.042l-14.302,7.92l-13.466,13.998
				l-0.908,6.232l-13.508,8.864l-6.666,6.729l0.727,13.451l-9.282-4.318l0.072-7.873l-25.808,0.01l-13.353,6.774l-5.819,10.695
				l-2.291,8.483l3.761,8.229l10.515,1.285l16.737-11.191l1.476,5.546l-5.119,9.647l12.755,2.178l1.258,19.667l17.471,2.967
				l11.083-12.826l13.456,2.735l4.737,6.578l12.897-0.763l0.362-3.813l7.089,3.457l8.002,12.531l13.812,0.197l5.099,8.91
				l0.722,10.903l9.834,3.744l5.448,2.075l19.271,0.185l5.655,9.258l8.533,2.733l-1.646,7.647l-9.364,11.901l-2.741,26.329
				l-8.441,6.687l-12.547-0.381l-4.169,7.244v0.065l3.09,13.607l-3.09,3.962l-10.556,13.497l-4.355,8.002l-13.001,6.249l-8.565,1.3
				l-0.346,3.626l5.996,1.729l-0.727,3.902l-5.376,5.181l3.266,4.105l6.47,0.188l-0.356,4.993l-1.723,4.907l-0.552,3.998
				l9.566,8.061l-1.275,4.184l-13.017-0.243l-12.956-11.314l-10.102-17.739l1.413-17.124l-7.635-10.188l3.09-17.265l-4.546-1.279
				v-37.449c0,0-12.723-9.652-13.445-9.652s-6.733-1.63-6.733-1.63l-1.274-7.089l-16.541-20.731l1.64-7.451l0.532-12.188
				l11.443-8.001l-1.63-13.643l-16.721-1.253l-13.085-14.921l-9.277-2.539l-5.99-1.1l0.717-5.453l-7.636-1.088v3.09l-19.096-4.726
				l-7.677-11.76l3.122-5.695l-12.094-17.647l-2.074-12.904h-4.912l1.636,12.539l8.363,12.908l-0.913,5.104l-7.084-1.094
				l-8.729-14.87v-17.311l-9.082-4.375v-12.445c-11.242,26.314-17.475,55.253-17.475,85.628
				c0,120.649,98.155,218.813,218.81,218.813c0.171,0,0.33-0.01,0.496-0.01c68.198-0.155,129.162-31.686,169.212-80.875h-7.223
				v-14.545l-8.338-11.248v-17.49l-6.387-6.352l-0.544-7.28l8.092-15.458l-15.366-27.097l1.83-18.379l-13.82-1.435l-5.087-5.094
				h-9.284l-4.719,4.36h-16.361l-0.551,1.456h-9.098l-20.905-23.812l0.169-18.549l3.453-1.268l1.283-7.094h-4.905l-2.009-7.456
				l24.188-17.45v-12.363l11.845-6.573l4.783,0.474h9.743l7.625-4.096l24.548-1.909v12.548l19.37,4.911l3.813,2.73h3.555v-6.832
				l11.175-1.083l10.649,7.915h17.442l1.229-1.121C713.523,432.451,711.551,426.673,709.35,420.992z M606.024,358.722l2.008-3.085
				l7.182-1.455l1.811,8.73l3.824,6.181l2.542,2.921l4.635,1.806l-4.351,5.19l-8.461,0.815h-6.361l0.717-7.542l5.282-1.1
				l-0.444-3.545l-4.931-3.09l-3.452-2.358V358.722z M594.208,372.369l4.378-7.002l5.892-1.366l4.198,1.82l-0.386,4.726
				l-8.988,6.367h-5.094V372.369z M475.333,399.276l-4.551,0.381l0.243-3.168l2.038-2.539l2.735,2.152L475.333,399.276z
				 M491.318,393.683l-3.121,0.269l-0.63,3.013l-2.394,1.491l-3.84,0.32c-0.128-0.903-0.226-1.583-0.226-1.583h-1.481v-3.241h6.264
				l1.294-3.333l2.488-0.052l2.854,0.588L491.318,393.683z"/>
			<polygon fill="#004346" points="502.028,379.732 502.571,382.26 505.853,383.75 505.853,378.426 			"/>
		</g>
	</g>
	<g>
		<path fill="#C1272D" d="M700.165,396.273c7.172-4.51,11.103-7.399,11.263-7.518l-8.116-10.014
			c-0.036,0.03-3.746,2.75-10.451,6.965L700.165,396.273z"/>
		<path fill="#C1272D" d="M510.585,453.069c6.994-0.006,14.13-0.253,21.199-0.743l-0.949-12.621
			c-8.235,0.567-16.434,0.784-24.658,0.671l-0.217,12.651C507.514,453.059,509.051,453.069,510.585,453.069z M480.157,451.511
			l1.424-12.59c-8.156-0.835-16.339-2.059-24.322-3.621l-2.672,12.397C462.982,449.339,471.578,450.623,480.157,451.511z
			 M557.422,449.524c8.348-1.243,16.856-2.847,25.286-4.762l-3.084-12.312c-8.087,1.837-16.254,3.375-24.261,4.572L557.422,449.524z
			 M607.51,438.189c8.098-2.457,16.242-5.222,24.221-8.23l-4.883-11.768c-7.691,2.899-15.55,5.572-23.351,7.936L607.51,438.189z
			 M655.305,420.198c7.744-3.503,15.426-7.28,22.835-11.223l-6.46-11.052c-7.162,3.808-14.587,7.457-22.066,10.841L655.305,420.198z
			"/>
		<path fill="#C1272D" d="M429.455,441.583l3.886-12.104c-4.081-1.186-8.173-2.486-12.28-3.9l-4.505,11.903
			C420.871,438.963,425.174,440.336,429.455,441.583z"/>
	</g>
	<g>
		<path fill="#F9BB14" d="M296.799,334.859l24.694,16.794l0.092-0.144l27.108,18.182l-0.072,0.113l-0.119,0.181l55.919,36.875
			c2.204,1.362,4.149,2.776,5.589,4.298l0.376-0.19l13.683,12.853l-5.263,7.714l-17.908-7.859l0.015-0.181
			c-1.878-0.661-3.843-1.692-5.84-2.925l-58.05-33.759l-0.175,0.257l-28.471-16.18l0.103-0.144l-26.122-14.694
			c-6.129-3.808-7.868-11.62-3.88-17.47C282.461,332.733,290.665,331.063,296.799,334.859z"/>
		<polygon fill="#E2AA15" points="344.205,339.266 361.66,330.36 361.634,330.335 369.574,326.32 369.595,326.326 390.599,315.63 
			410.53,327.981 350.144,367.576 348.522,369.986 321.493,351.638 322.359,350.375 336.254,343.294 336.182,343.244 
			344.123,339.219 		"/>
		<polygon fill="#E2AA15" points="308.438,370.702 337.038,386.826 335.697,388.751 319.764,461.201 299.822,448.849 
			301.68,431.022 301.618,430.981 302.382,422.494 302.547,422.597 302.573,422.612 304.956,399.9 304.853,399.838 305.714,391.402 
			305.838,391.485 307.928,371.549 		"/>
		<polygon fill="#E2AA15" points="432.222,399.828 443.624,403.682 424.125,423.738 424.069,423.82 410.01,411.071 		"/>
		<polygon fill="#E2AA15" points="418.708,431.683 406.475,458.203 398.142,449.839 400.851,423.484 418.806,431.534 		"/>
		<path fill="#F9BB14" d="M287.073,421.973c-1.827-1.13-2.332-3.451-1.141-5.201c1.183-1.733,3.612-2.234,5.444-1.104l11.176,6.929
			l-0.934,8.385L287.073,421.973z"/>
		<path fill="#F9BB14" d="M294.101,384.216l11.712,7.259l-0.857,8.457l-15.148-9.417c-1.821-1.125-2.321-3.447-1.135-5.18
			C289.854,383.597,292.29,383.085,294.101,384.216z"/>
		<path fill="#F9BB14" d="M330.506,330.778l13.714,8.488l-8.003,4.014l-9.994-6.207c-1.826-1.125-2.327-3.447-1.129-5.19
			C326.281,330.144,328.69,329.653,330.506,330.778z"/>
		<path fill="#F9BB14" d="M350.845,323.658c-1.827-1.125-2.343-3.468-1.171-5.201c1.197-1.734,3.632-2.219,5.454-1.094l14.446,8.957
			l-7.946,4.056L350.845,323.658z"/>
	</g>
</g>
<g id="done" display="none">
	<path display="inline" fill="#90D12A" d="M824.75,732.149c0,52.205-42.319,94.527-94.526,94.527s-94.526-42.322-94.526-94.527
		c0-52.209,42.319-94.53,94.526-94.53S824.75,679.94,824.75,732.149z"/>
	<path display="inline" fill="#C9E29F" d="M801.086,669.556c-2.502-2.852-5.173-5.55-7.996-8.079
		c-6.038,4.582-11.732,9.49-16.814,14.71c-36.395,37.395-67.181,87.751-67.181,87.751s-3.006-5.765-11.966-27.425
		c-5.984-14.456-38.393-7.975-38.393-7.975c16.955-1.995,39.886,75.783,39.886,75.783l21.939-12.465c0,0,4.984-20.94,27.919-53.845
		C766.164,712.644,779.549,690.756,801.086,669.556z"/>
</g>
<g id="correcting">
	<path fill="#C44E1A" d="M824.75,732.149c0,52.205-42.319,94.527-94.526,94.527s-94.525-42.322-94.525-94.527
		c0-52.209,42.318-94.53,94.525-94.53S824.75,679.94,824.75,732.149z"/>
	<g>
		<path fill="#F79B72" d="M730.227,798.63c-33.215,0-60.239-27.05-60.239-60.258s27.024-60.247,60.239-60.247
			c2.206,0,4.437,0.13,6.65,0.379v-9.737c0-1.25,0.774-2.393,1.911-2.872c1.188-0.463,2.497-0.205,3.402,0.695l21.343,21.388
			c1.215,1.215,1.215,3.152,0,4.386l-21.334,21.436c-0.911,0.886-2.224,1.158-3.411,0.673c-1.137-0.489-1.911-1.619-1.911-2.865
			v-10.799c-2.207-0.407-4.424-0.59-6.65-0.59c-21.039,0-38.164,17.119-38.164,38.154c0,21.034,17.13,38.167,38.164,38.167
			c21.037,0,38.154-17.139,38.154-38.167c0-1.705,1.39-3.104,3.115-3.104h15.849c1.715,0,3.112,1.398,3.112,3.104
			C790.457,771.58,763.418,798.63,730.227,798.63z"/>
	</g>
</g>
</svg>
