<?xml version="1.0" encoding="utf-8"?>
<!-- Generator: Adobe Illustrator 16.0.0, SVG Export Plug-In . SVG Version: 6.00 Build 0)  -->
<!DOCTYPE svg PUBLIC "-//W3C//DTD SVG 1.1//EN" "http://www.w3.org/Graphics/SVG/1.1/DTD/svg11.dtd">
<svg version="1.1" id="Layer_1" xmlns="http://www.w3.org/2000/svg" xmlns:xlink="http://www.w3.org/1999/xlink" x="0px" y="0px"
	 width="1000px" height="1000px" viewBox="0 0 1000 1000" enable-background="new 0 0 1000 1000" xml:space="preserve">
<circle fill="#006853" cx="500" cy="500" r="473.937"/>
<circle fill="#68A284" cx="500" cy="500" r="418.439"/>
<g>
	<path fill="#006853" d="M775.027,352.576v-57.585H416.961v57.579h17.545v25.188h-17.545v57.58h358.066v-57.58h-20.24V352.57h20.24
		V352.576z M480.826,411.747h-24.889v-24.348h24.889V411.747z M480.826,377.011h-24.889v-24.345h24.889V377.011z M480.826,342.921
		h-24.889v-24.346h24.889V342.921z M517.621,411.747h-24.886v-24.348h24.886V411.747z M517.621,377.011h-24.886v-24.345h24.886
		V377.011z M517.621,342.921h-24.886v-24.346h24.886V342.921z M553.872,411.747h-24.884v-24.348h24.884V411.747z M553.872,377.011
		h-24.884v-24.345h24.884V377.011z M553.872,342.921h-24.884v-24.346h24.884V342.921z M589.753,411.747h-24.887v-24.348h24.887
		V411.747z M589.753,377.011h-24.887v-24.345h24.887V377.011z M589.753,342.921h-24.887v-24.346h24.887V342.921z M626.545,411.747
		h-24.883v-24.348h24.883V411.747z M626.545,377.011h-24.883v-24.345h24.883V377.011z M626.545,342.921h-24.883v-24.346h24.883
		V342.921z M662.796,411.747h-24.887v-24.348h24.887V411.747z M662.796,377.011h-24.887v-24.345h24.887V377.011z M662.796,342.921
		h-24.887v-24.346h24.887V342.921z M718.479,411.047h-32.134v-14.848h32.134V411.047z M702.292,369.369
		c-14.171,0-25.652-11.483-25.652-25.636c0-14.154,11.481-25.641,25.652-25.641c14.156,0,25.639,11.48,25.639,25.641
		C727.93,357.892,716.454,369.369,702.292,369.369z M718.479,343.572c0,8.875-7.189,16.07-16.062,16.07
		c-8.876,0-16.071-7.195-16.071-16.07c0-8.871,7.195-16.062,16.071-16.062C711.29,327.511,718.479,334.701,718.479,343.572z
		 M416.961,510.347h17.545v25.188h-17.545v57.582h358.066v-57.588h-20.24v-25.183h20.24v-57.579H416.961V510.347z M718.479,568.822
		h-32.134v-14.848h32.134V568.822z M702.292,475.87c14.156,0,25.639,11.482,25.639,25.636c0,14.16-11.477,25.639-25.639,25.639
		c-14.171,0-25.652-11.479-25.652-25.639C676.649,487.354,688.121,475.87,702.292,475.87z M637.909,476.346h24.887V500.7h-24.887
		V476.346z M637.909,510.437h24.887v24.354h-24.887V510.437z M637.909,545.182h24.887v24.352h-24.887V545.182z M601.662,476.346
		h24.883V500.7h-24.883V476.346z M601.662,510.437h24.883v24.354h-24.883V510.437z M601.662,545.182h24.883v24.352h-24.883V545.182z
		 M564.865,476.346h24.887V500.7h-24.887V476.346z M564.865,510.437h24.887v24.354h-24.887V510.437z M564.865,545.182h24.887v24.352
		h-24.887V545.182z M528.988,476.346h24.884V500.7h-24.884V476.346z M528.988,510.437h24.884v24.354h-24.884V510.437z
		 M528.988,545.182h24.884v24.352h-24.884V545.182z M492.729,476.346h24.888V500.7h-24.888V476.346z M492.729,510.437h24.888v24.354
		h-24.888V510.437z M492.729,545.182h24.888v24.352h-24.888V545.182z M455.938,476.346h24.889V500.7h-24.889V476.346z
		 M455.938,510.437h24.889v24.354h-24.889V510.437z M455.938,545.182h24.889v24.352h-24.889V545.182z M686.346,501.349
		c0-8.871,7.195-16.059,16.071-16.059c8.872,0,16.062,7.188,16.062,16.059c0,8.869-7.189,16.071-16.062,16.071
		C693.542,517.414,686.346,510.219,686.346,501.349z M416.961,665.238h17.545v25.191h-17.545v57.578h358.066V690.43h-20.24v-25.191
		h20.24V607.66H416.961V665.238z M718.479,723.711h-32.134v-14.84h32.134V723.711z M702.292,630.764
		c14.156,0,25.639,11.48,25.639,25.643c0,14.15-11.477,25.643-25.639,25.643c-14.171,0-25.652-11.48-25.652-25.643
		C676.649,642.244,688.121,630.764,702.292,630.764z M637.909,631.248h24.887v24.35h-24.887V631.248z M637.909,665.332h24.887
		v24.344h-24.887V665.332z M637.909,700.072h24.887v24.346h-24.887V700.072z M601.662,631.248h24.883v24.35h-24.883V631.248z
		 M601.662,665.332h24.883v24.344h-24.883V665.332z M601.662,700.072h24.883v24.346h-24.883V700.072z M564.865,631.248h24.887v24.35
		h-24.887V631.248z M564.865,665.332h24.887v24.344h-24.887V665.332z M564.865,700.072h24.887v24.346h-24.887V700.072z
		 M528.988,631.248h24.884v24.35h-24.884V631.248z M528.988,665.332h24.884v24.344h-24.884V665.332z M528.988,700.072h24.884v24.346
		h-24.884V700.072z M492.729,631.248h24.888v24.35h-24.888V631.248z M492.729,665.332h24.888v24.344h-24.888V665.332z
		 M492.729,700.072h24.888v24.346h-24.888V700.072z M455.938,631.248h24.889v24.35h-24.889V631.248z M455.938,665.332h24.889v24.344
		h-24.889V665.332z M455.938,700.072h24.889v24.346h-24.889V700.072z M686.346,656.242c0-8.871,7.195-16.055,16.071-16.055
		c8.872,0,16.062,7.184,16.062,16.055s-7.189,16.07-16.062,16.07C693.542,672.313,686.346,665.113,686.346,656.242z"/>
</g>
<g>
	<g>
		<path fill="#FFFFFF" stroke="#000000" d="M550.624,538.654c-11.198-16.785-61.271-54.063-68.543-65.17
			c-7.268-11.109-6.415-15.359-6.48-21.929c0.505-27.33,17.318-55.571,17.318-80.102c0-12.736-0.643-25.4-4.76-37.426
			c-11.44-33.434-33.49-63.51-66.253-74.74c-9.254-3.175-23.394-3.494-33.739-3.513v-0.003c-0.133,0-0.27,0-0.401,0
			c-0.131,0-0.27,0-0.401,0v0.003c-10.346,0.019-24.483,0.338-33.743,3.513c-32.76,11.23-54.809,41.306-66.252,74.74
			c-4.115,12.026-4.757,24.69-4.757,37.426c0,24.531,16.813,52.772,17.32,80.102c-0.066,6.569,0.784,10.819-6.485,21.929
			c-7.268,11.106-57.342,48.385-68.539,65.17c-16.978,25.453-13.33,38.002,5.634,31.803c6.933-2.264,25.813-7.771,25.813-7.771
			s9.422,47.352,9.422,70.385c0,95.996,49.692,122.756,121.586,123.074v0.008c0.135,0,0.269-0.006,0.401-0.006
			c0.134,0,0.267,0.006,0.401,0.006v-0.008c71.892-0.318,127.015-27.078,127.015-123.074c0-23.033,3.993-70.385,3.993-70.385
			s18.882,5.508,25.812,7.771C563.952,576.656,567.6,564.107,550.624,538.654z"/>
		<path fill="#FBB041" d="M393.164,425.942c-2.97,4.05-7.828,4.051-10.797,0l-11.78-16.072c-2.97-4.052-1.29-7.366,3.732-7.366
			h26.893c5.022,0,6.702,3.315,3.732,7.366L393.164,425.942z"/>
		<g>
			<circle cx="427.106" cy="363.022" r="10.225"/>
			<circle cx="349.256" cy="363.022" r="10.223"/>
			<path d="M479.895,342.886c-8.103,2.981-16.202,5.96-24.304,8.941c-3.285-10.782-14.352-18.066-25.599-18.672
				c-11.104-0.598-19.902,6.684-24.028,16.109c-4.63-3.995-10.951-5.113-17.367-5.221c-0.149-0.002-0.279,0.022-0.416,0.034
				c-0.138-0.012-0.268-0.037-0.416-0.034c-6.396,0.108-12.694,1.217-17.322,5.178c-4.075-9.321-12.855-15.462-24.074-16.065
				c-12.168-0.655-21.579,8.14-25.092,18.86c-8.27-3.043-16.54-6.086-24.81-9.129c-4.154-1.528-5.929,5.093-1.822,6.605
				c8.422,3.099,16.846,6.197,25.268,9.296c-0.027,0.304-0.075,0.607-0.091,0.912c-0.806,14.994,12.74,25.803,26.547,26.545
				c14.624,0.788,25.237-12.078,26.445-25.524c0.074-0.312,0.121-0.645,0.102-1.021c0.02-0.37-0.025-0.696-0.098-1.004
				c-0.045-0.522-0.127-1.025-0.195-1.536c3.215-5.473,9.308-6.168,15.142-6.267c0.147-0.003,0.278-0.031,0.416-0.048
				c0.137,0.017,0.267,0.045,0.416,0.048c5.813,0.098,11.884,0.79,15.106,6.216c-0.075,0.522-0.109,1.047-0.155,1.571
				c-0.075,0.313-0.121,0.644-0.102,1.02c-0.019,0.37,0.025,0.697,0.096,1.004c1.229,14.49,11.766,24.752,26.45,25.541
				c14.993,0.809,25.801-12.738,26.544-26.545c0.019-0.32-0.009-0.628-0.006-0.943c8.396-3.088,16.79-6.177,25.185-9.265
				C485.823,347.979,484.049,341.358,479.895,342.886z M326.671,359.699c-0.6-11.145,9.43-19.142,19.699-19.695
				c11.144-0.601,19.145,9.427,19.698,19.695C364.699,385.085,328.039,385.085,326.671,359.699z M429.992,379.396
				c-11.143,0.601-19.145-9.429-19.697-19.697c1.368-25.383,38.026-25.385,39.393,0
				C450.286,370.842,440.262,378.843,429.992,379.396z"/>
		</g>
		<path d="M557.11,539.847c-11.604-17.398-63.502-56.036-71.039-67.549c-7.536-11.51-6.649-15.921-6.72-22.727
			c0.525-28.326,17.95-57.601,17.95-83.024c0-13.2-0.666-26.327-4.93-38.791c-11.858-34.655-27.469-82.37-104.058-82.469
			c-0.18-0.001-0.354,0.005-0.528,0.008c-0.173-0.003-0.346-0.009-0.527-0.008c-76.588,0.1-92.199,47.814-104.058,82.469
			c-4.267,12.464-4.932,25.592-4.932,38.791c0,25.425,17.429,54.698,17.951,83.024c-0.067,6.808,0.815,11.217-6.72,22.727
			c-7.534,11.514-59.435,50.151-71.04,67.549c-17.596,26.382-13.815,39.388,5.841,32.964c7.182-2.35,26.753-8.055,26.753-8.055
			s5.663,49.074,5.663,72.951c0,47.533,32.063,88.193,18.359,94.076c-13.705,5.881-14.962,5.965-24.017,11.115
			c-9.054,5.15-13.544,21.617,10.445,21.568c23.988-0.049,29.535-0.098,29.535-0.098s63.11,0.525,72.589,1.352
			c11.158,0.973,21.449-0.053,24.158-0.357c2.709,0.305,13.001,1.33,24.156,0.357c9.481-0.826,72.589-1.352,72.589-1.352
			s5.546,0.049,29.534,0.098c23.99,0.049,19.502-16.418,10.446-21.568s-10.313-5.234-24.016-11.115
			c-13.706-5.883,18.356-46.543,18.356-94.076c0-23.877,5.666-72.951,5.666-72.951s19.57,5.705,26.752,8.055
			C570.928,579.234,574.71,566.229,557.11,539.847z M466.452,728.777c-33.551,28.252-78.389,25.461-78.553,25.467
			c-0.003,0-0.066,0.002-0.113,0.002s-0.109-0.002-0.112-0.002c-0.164-0.006-45.003,2.785-78.553-25.467
			c-20.455-17.232-31.284-46.002-30.655-93.986c1.66-126.684,26.555-129.176,32.783-175.695c0,0,0.416-18.276-0.83-27.83
			c-0.79-6.06-12.254-33.644-10.386-67.701c1.871-34.06,14.746-53.789,35.723-66.457c18.965-11.455,46.416-11.704,51.501-11.645
			v0.009c0.137,0.001,0.228,0.004,0.228,0.004s0.107-0.003,0.28-0.007c0.207,0.004,0.324,0.008,0.324,0.008s0.089-0.004,0.227-0.005
			v-0.012c5.083-0.058,32.533,0.192,51.503,11.647c20.972,12.668,33.848,32.397,35.717,66.456
			c1.871,34.06-9.593,61.641-10.382,67.702c-1.245,9.554-0.83,27.831-0.83,27.831c6.23,46.518,31.121,49.01,32.783,175.694
			C497.736,682.775,486.908,711.545,466.452,728.777z"/>
		<g>
			<g>
				<path fill="#FBB041" d="M351.217,595.742c3.013,0,5.479-2.465,5.479-5.479v-0.238c0-3.014,2.465-5.479,5.479-5.479h51.178
					c3.015,0,5.479,2.465,5.479,5.479v0.238c0,3.014,2.465,5.479,5.479,5.479h3.663c3.014,0,5.479-2.465,5.479-5.479v-14.855
					c0-3.014-2.466-5.479-5.479-5.479h-80.418c-3.014,0-5.479,2.465-5.479,5.479v14.855c0,3.014,2.465,5.479,5.479,5.479H351.217z"
					/>
			</g>
			<g>
				<path fill="#FBB041" d="M424.312,635.492c-3.015,0-5.479,2.465-5.479,5.479v0.234c0,3.016-2.464,5.48-5.479,5.48h-51.178
					c-3.014,0-5.479-2.465-5.479-5.48v-0.234c0-3.014-2.466-5.479-5.479-5.479h-3.661c-3.014,0-5.479,2.465-5.479,5.479v14.857
					c0,3.014,2.465,5.477,5.479,5.477h80.418c3.014,0,5.479-2.463,5.479-5.477v-14.857c0-3.014-2.466-5.479-5.479-5.479H424.312z"/>
			</g>
		</g>
		<path fill="#FBB041" d="M409.674,617.447c0,3.016-2.465,5.479-5.479,5.479h-32.861c-3.012,0-5.479-2.463-5.479-5.479v-3.664
			c0-3.014,2.466-5.477,5.479-5.477h32.861c3.014,0,5.479,2.463,5.479,5.477V617.447z"/>
	</g>
	<path fill="#FBAF41" d="M623.68,453.472c-8.288,1.85-16.644-1.48-25.066-9.994c-7.654-2.884-18.643-6.112-32.973-9.68l-4.564,0.656
		c-24.908,7.494-39.148,17.32-42.717,29.476c0.179-0.282,0.473-0.589,0.881-0.922c6.877-4.919,15.79-7.755,26.736-8.506
		c12.382-0.831,16.913,3.234,13.596,12.192l-35.747,100.33l-4.018,53.77l13.87,4.314c4.145,1.248,6.741,0.428,7.787-2.465
		l39.109-144.686c3.268-4.838,7.065-7.318,11.388-7.436c4.321-0.12,8.348,0.855,12.071,2.924c3.725,2.069,5.818,4.14,6.28,6.211
		c4.863,2.299,9.179,1.879,12.948-1.259c3.771-3.138,5.857-7.591,6.262-13.362C629.926,459.269,627.979,455.413,623.68,453.472z"/>
	<path fill="#FBAE41" d="M255.53,610.783c-2.451-1.455-3.729-4.424-2.915-7.301c0.353-1.246,1.051-2.297,1.957-3.088l-4.321-46.848
		l-34.86-62.407l-0.497-0.764c6.506-10.663,7.233-24.438,0.713-36.119c-6.49-11.583-18.438-18.153-30.832-18.299l13.971,25.011
		l-10.519,17.649l-20.543-0.303l-13.986-25.003c-6.355,10.629-7.034,24.253-0.551,35.859c6.79,12.165,19.652,18.81,32.689,18.303
		l0.075,0.144l57.49,102.908c2.271,4.064,5.968,6.844,10.125,8.021c0.906,0.256,1.833,0.432,2.77,0.533L255.53,610.783z"/>
</g>
</svg>
