<?xml version="1.0" encoding="utf-8"?>
<!-- Generator: Adobe Illustrator 16.0.0, SVG Export Plug-In . SVG Version: 6.00 Build 0)  -->
<!DOCTYPE svg PUBLIC "-//W3C//DTD SVG 1.1//EN" "http://www.w3.org/Graphics/SVG/1.1/DTD/svg11.dtd">
<svg version="1.1" id="Layer_1" xmlns="http://www.w3.org/2000/svg" xmlns:xlink="http://www.w3.org/1999/xlink" x="0px" y="0px"
	 width="1000px" height="1000px" viewBox="0 0 1000 1000" enable-background="new 0 0 1000 1000" xml:space="preserve">
<circle fill="#FBAD41" cx="500" cy="500" r="473.937"/>
<circle fill="#F8DDBD" cx="500" cy="500" r="418.439"/>
<g>
	<rect x="541.178" y="463.312" fill="#FBAD41" width="20.346" height="49.556"/>
	<path fill="#223228" d="M624.377,523.981c-0.721-3.94,1.557-5.577,5.063-3.635l179.534,99.434c3.508,1.94,9.652,3.391,13.659,3.217
		l15.51-0.662c4.005-0.173,8.114,1.641,9.131,4.034c1.018,2.39-1.387,4.858-5.349,5.485l-185.078,29.19
		c-3.959,0.628-7.791-2.093-8.512-6.035L624.377,523.981z"/>
	<polygon fill="#158A78" points="471.683,331.189 439.621,331.189 492.09,500.75 524.154,500.75 	"/>
	<path fill="#158A78" d="M486.508,308.364h-205.27c-9.121,0-16.514,7.391-16.514,16.516v205.27c0,9.121,7.393,16.513,16.514,16.513
		c9.119,0,16.514-7.392,16.514-16.513V341.393h188.756c9.118,0,16.517-7.395,16.517-16.513
		C503.024,315.755,495.626,308.364,486.508,308.364z"/>
	<path fill="#EF3C40" d="M245.287,588.682c0,4.011-3.279,7.289-7.286,7.289h-59.274c-4.007,0-7.29-3.278-7.29-7.289V451.676
		c0-4.009,3.282-7.288,7.29-7.288h59.274c4.007,0,7.286,3.278,7.286,7.288V588.682z"/>
	<path fill="#BE232B" d="M245.287,616.861c0,4.008-3.279,7.289-7.286,7.289H159.78c-4.007,0-7.288-3.281-7.288-7.289v-26.236
		c0-4.006,3.28-7.284,7.288-7.284h78.221c4.007,0,7.286,3.278,7.286,7.284V616.861z"/>
	<path fill="#FBAD41" d="M598.487,497.833h-282.27v-17.977c0-4.007-3.278-7.288-7.288-7.288h-59.273
		c-4.006,0-7.284,3.28-7.284,7.288v137.004c0,4.008,3.278,7.289,7.284,7.289h23.518c-1.69-4.82-2.623-9.973-2.623-15.304
		c0-25.826,21.546-47.368,47.369-47.368c2.032,0,4.034,0.147,6.003,0.404c4.128-1.204,8.467-1.863,12.943-1.863
		c25.822,0,47.37,21.544,47.37,47.367c0,5.877-1.127,11.526-3.159,16.764h90.713c1.544-24.511,22.421-44.457,47.266-44.457
		c24.842,0,45.718,19.946,47.264,44.457h32.167c4.008,0,7.288-3.281,7.288-7.289V505.119
		C605.775,501.111,602.495,497.833,598.487,497.833z"/>
	<path fill="#FBAD41" d="M664.09,598.641c-5.69,0-11.298-2.658-14.852-7.646l-74.813-105.016
		c-136.578-17.562-335.314-42.989-346.483-44.052c-9.565-0.552-17.149-8.483-17.149-18.184c0-10.063,8.158-18.22,18.22-18.22
		c1.516,0,5.54,0,357.951,45.334c5.037,0.646,9.57,3.362,12.516,7.497l79.433,111.496c5.841,8.197,3.928,19.57-4.267,25.411
		C671.438,597.547,667.749,598.641,664.09,598.641z M228.066,441.934c0.458,0.031,0.778,0.023,0.948,0.027
		C228.695,441.961,228.379,441.954,228.066,441.934z"/>
	<path fill="#223228" d="M250.144,430.907c0,15.091-12.236,27.331-27.328,27.331c-15.093,0-27.328-12.24-27.328-27.331
		c0-15.092,12.235-27.326,27.328-27.326C237.908,403.581,250.144,415.815,250.144,430.907z"/>
	<path fill="#223228" d="M336.061,504.848c-57.194,0-103.563,46.368-103.563,103.566c0,57.192,46.369,103.559,103.563,103.559
		s103.56-46.366,103.56-103.559C439.621,551.216,393.254,504.848,336.061,504.848z M336.061,650.634
		c-23.321,0-42.227-18.899-42.227-42.22c0-23.318,18.906-42.23,42.227-42.23s42.221,18.912,42.221,42.23
		C378.282,631.734,359.382,650.634,336.061,650.634z"/>
	<path fill="#223228" d="M524.154,560.441c-41.844,0-75.765,33.921-75.765,75.766c0,41.843,33.92,75.766,75.765,75.766
		c41.843,0,75.769-33.923,75.769-75.766C599.923,594.362,565.997,560.441,524.154,560.441z M524.154,667.099
		c-17.058,0-30.89-13.828-30.89-30.892c0-17.059,13.833-30.896,30.89-30.896c17.062,0,30.89,13.838,30.89,30.896
		C555.044,653.271,541.216,667.099,524.154,667.099z"/>
</g>
</svg>
