<?xml version="1.0" encoding="utf-8"?>
<!-- Generator: Adobe Illustrator 16.0.0, SVG Export Plug-In . SVG Version: 6.00 Build 0)  -->
<!DOCTYPE svg PUBLIC "-//W3C//DTD SVG 1.1//EN" "http://www.w3.org/Graphics/SVG/1.1/DTD/svg11.dtd">
<svg version="1.1" id="Layer_1" xmlns="http://www.w3.org/2000/svg" xmlns:xlink="http://www.w3.org/1999/xlink" x="0px" y="0px"
	 width="1000px" height="1000px" viewBox="0 0 1000 1000" enable-background="new 0 0 1000 1000" xml:space="preserve">
<g>
	<circle fill="#FDB515" cx="500" cy="500" r="473.937"/>
	<g>
		<g>
			<path fill="#E58B39" d="M943.042,669.773c93.759-244.685-28.588-519.042-273.268-612.81
				C425.085-36.799,150.721,85.545,56.96,330.23c-93.765,244.677,28.585,519.041,273.268,612.805
				C574.912,1036.8,849.283,914.454,943.042,669.773"/>
		</g>
		<g>
			<path fill="#FBDF65" d="M894.526,607.125c-9.209,4.656-15.971,9.477-21.692,15.849c4.776-16.479,8.575-33.893,11.341-52.253
				c19.961,2.21,34.367-2.363,50.695-15.942c14.13-11.757,20.751-22.414,25.433-40.93c-21.237-2.166-35.625,2.246-52.599,16.104
				c-10.503,8.58-16.938,16.492-21.696,27.398c2.119-17.567,3.327-35.967,3.53-55.231c0.021-1.797,0.007-3.579,0.007-5.367
				c20.505-2.146,33.92-9.801,47.463-26.988c11.552-14.648,15.965-26.55,16.941-45.7c-21.188,2.604-34.405,10.117-48.325,27.467
				c-9.016,11.235-13.806,20.771-16.245,33.329c-0.631-21.461-2.854-42.23-6.589-62.211c18.822-6.698,30.14-17.142,39.832-36.521
				c8.456-16.909,10.46-29.521,7.707-48.482c-20.217,7.289-31.698,17.583-41.941,37.633c-5.573,10.914-8.46,19.984-9.225,30.194
				c-4.439-18.866-10.25-36.976-17.344-54.236c16.219-10.564,24.929-23.165,30.497-43.698c4.993-18.426,4.509-31.229-1.853-49.152
				c-18.365,11.634-27.597,24.249-33.728,46.157c-2.873,10.269-4.073,18.758-3.557,27.404
				c-7.758-15.987-16.667-31.168-26.647-45.459c13.494-13.806,19.464-27.994,20.901-49.092c1.32-19.131-1.629-31.534-11.343-47.655
				c-15.715,15.469-22.29,29.885-24.034,52.674c-0.804,10.432-0.351,18.847,1.693,27.011c-10.709-13.368-22.445-25.842-35.11-37.353
				c10.824-16.738,14.012-32.07,11.311-53.277c-2.426-18.996-7.728-30.477-20.344-44.065c-12.377,18.633-16.01,34.175-13.301,56.869
				c1.359,11.343,3.695,20.006,7.941,28.128c-13.478-10.89-27.87-20.771-43.12-29.568c7.843-19.338,8.124-35.289,1.214-55.851
				c-6.054-18.062-13.461-28.103-28.441-38.588c-8.492,20.97-9.029,37.011-1.979,58.6c3.973,12.14,8.493,20.687,15.452,28.326
				c-15.938-8.249-32.718-15.362-50.267-21.263c4.08-20.967,1.341-36.762-9.521-55.545c-9.418-16.292-18.613-24.479-35.306-31.395
				c-4.228,22.407-1.647,38.218,9.426,57.754c6.41,11.3,12.643,18.751,21.289,24.754c-5.685-1.664-11.424-3.219-17.255-4.627
				l-13.932,3.203c9.124,2.206,18.109,4.769,26.934,7.648c-14.087,2.657-25.069,9.464-36.514,22.082
				c-12.476,13.761-17.647,25.299-19.883,44.318c21.313-1.018,34.992-7.515,49.998-23.771
				c11.225-12.164,16.692-22.492,19.744-37.993c15.785,5.836,31.021,12.729,45.63,20.605c-12.233,0.508-23.063,4.793-35.145,13.461
				c-14.872,10.671-22.171,20.795-28.046,38.907c21.04,3.758,35.684,0.447,53.519-12.113c12.771-8.985,20.056-17.519,25.913-30.95
				c13.949,8.505,27.252,17.952,39.811,28.252c-11.486-1.791-22.495,0.077-35.393,5.613c-16.616,7.11-25.728,15.393-34.98,31.816
				c19.853,8.36,34.819,8.384,54.691,0.06c14.081-5.874,22.815-12.513,31.059-24.089c12.153,11.223,23.486,23.307,33.921,36.184
				c-10.945-4.378-22.119-5.028-35.874-2.494c-17.623,3.264-28.141,9.339-40.381,23.333c17.802,12.615,32.437,15.97,53.49,12.267
				c14.986-2.631,24.834-7.202,35.211-16.785c9.808,13.701,18.646,28.18,26.414,43.365c-9.96-6.919-20.873-10.128-35.024-10.709
				c-17.871-0.728-29.333,2.858-44.028,13.825c14.976,16.292,28.634,22.825,49.949,23.919c15.223,0.764,25.779-1.535,37.84-8.668
				c6.776,15.428,12.485,31.497,17.038,48.137c-8.354-8.834-18.34-14.335-31.921-18.017c-17.358-4.695-29.267-3.738-45.754,3.698
				c11.48,19.284,23.568,28.734,44.208,34.526c14.623,4.118,25.331,4.255,38.351,0.083c3.385,16.04,5.703,32.554,6.889,49.487
				c-6.377-9.853-14.883-17.094-26.951-23.467c-16.054-8.467-27.893-10.179-45.473-6.574c7.504,21.414,17.496,33.355,36.557,43.63
				c13.264,7.158,23.572,9.716,36.782,8.683c0.025,2.728,0.025,5.461,0,8.206c-0.161,14.418-0.883,28.309-2.145,41.688
				c-4.325-11.06-11.241-20.047-21.813-28.963c-14.062-11.863-25.313-16.176-43.199-16.559c3.18,22.597,10.645,36.515,27.292,50.815
				c11.826,10.146,21.563,14.942,35.089,16.803c-2.778,19.229-6.731,37.319-11.769,54.313c-1.304-14.418-6.458-26.35-16.519-39.293
				c-11.458-14.743-21.616-21.475-39.05-25.846c-1.276,22.832,3.334,38.112,16.854,55.797
				c10.208,13.384,19.296,20.286,33.605,25.166c-6.929,19.763-15.414,37.937-25.274,54.615c2.792-16.502,0.313-30.509-7.854-47.126
				c-8.345-16.966-16.985-25.821-33.185-33.971c-5.676,22.043-4.126,37.994,5.657,58.333c7.604,15.803,15.376,24.641,29.148,32.808
				c-10.485,16.162-22.33,30.823-35.374,44.04c4.84-14.367,4.819-27.942,0.363-44.812c-4.872-18.469-11.609-29.043-25.868-40.626
				c-9.833,20.301-11.416,36.251-5.785,58.313c4.202,16.462,9.797,26.69,20.747,37.245c-11.87,10.838-24.604,20.62-38.103,29.38
				c4.714-10.799,6.297-22.285,5.402-36.589c-1.175-19.157-5.716-30.995-17.419-45.502c-13.551,17.649-18.188,32.911-16.967,55.731
				c0.829,15.391,3.749,26.049,10.669,37.363c-15.401,8.575-31.651,15.982-48.599,22.278c7.043-9.692,10.982-20.765,12.943-35.352
				c2.548-18.988,0.414-31.593-8.225-48.375c-16.686,14.239-24.189,28.136-27.413,50.739c-2.209,15.503-1.361,26.691,3.442,39.591
				c-21.239,6.679-43.422,11.747-66.314,15.356c17.043-9.012,26.749-20.759,33.971-40.709c6.468-17.886,7.024-30.688,2.139-49.147
				c-19.244,9.877-29.462,21.602-37.355,42.839c-6.448,17.395-7.361,29.885-3.41,47.738c-1.078,0.166-2.17,0.307-3.255,0.46
				c-0.154,0-0.307-0.006-0.473-0.006l0.012,0.071c-12.489,1.762-25.171,3.107-38.02,4.033c-13.842,0.998-26.59,4.931-38.606,10.677
				c-11.941-5.688-24.603-9.577-38.351-10.562c-12.848-0.918-25.53-2.273-38.02-4.033l0.013-0.072c-0.16,0-0.307,0.007-0.469,0.007
				c-1.086-0.153-2.175-0.295-3.26-0.46c3.956-17.854,3.039-30.344-3.414-47.737c-7.892-21.238-18.108-32.97-37.354-42.841
				c-4.882,18.46-4.327,31.245,2.142,49.148c7.222,19.95,16.932,31.697,33.972,40.709c-22.89-3.609-45.079-8.677-66.311-15.357
				c4.802-12.898,5.648-24.087,3.435-39.59c-3.231-22.606-10.724-36.501-27.409-50.758c-8.633,16.805-10.772,29.402-8.222,48.395
				c1.961,14.583,5.895,25.656,12.945,35.351c-16.951-6.311-33.202-13.703-48.604-22.28c6.922-11.313,9.84-21.973,10.664-37.361
				c1.232-22.82-3.41-38.084-16.96-55.732c-11.704,14.508-16.244,26.353-17.426,45.503c-0.887,14.316,0.696,25.793,5.416,36.597
				c-13.506-8.768-26.238-18.55-38.109-29.381c10.955-10.561,16.542-20.791,20.747-37.254c5.629-22.061,4.046-38.006-5.785-58.311
				c-14.263,11.582-20.993,22.156-25.869,40.618c-4.456,16.884-4.479,30.451,0.372,44.825
				c-13.049-13.225-24.898-27.885-35.383-44.054c13.774-8.16,21.542-16.998,29.151-32.802c9.786-20.338,11.334-36.289,5.657-58.332
				c-16.2,8.148-24.84,17.005-33.186,33.964c-8.167,16.603-10.641,30.624-7.86,47.132c-9.859-16.679-18.339-34.852-25.267-54.615
				c14.31-4.879,23.396-11.781,33.61-25.151c13.511-17.701,18.122-32.979,16.841-55.806c-17.426,4.37-27.588,11.096-39.044,25.834
				c-10.061,12.95-15.217,24.885-16.52,39.308c-5.038-17.004-8.981-35.096-11.765-54.322c13.525-1.862,23.272-6.651,35.089-16.801
				c16.653-14.3,24.114-28.218,27.288-50.815c-17.889,0.379-29.133,4.695-43.197,16.561c-10.572,8.914-17.49,17.899-21.816,28.961
				c-1.252-13.379-1.983-27.27-2.132-41.688c-0.029-2.745-0.029-5.479,0-8.205c13.205,1.032,23.51-1.527,36.776-8.686
				c19.058-10.273,29.057-22.218,36.547-43.628c-17.572-3.604-29.411-1.899-45.464,6.574c-12.068,6.373-20.577,13.614-26.953,23.467
				c1.188-16.935,3.509-33.447,6.886-49.488c13.03,4.174,23.735,4.032,38.355-0.085c20.631-5.809,32.729-15.24,44.207-34.521
				c-16.484-7.438-28.397-8.415-45.746-3.7c-13.582,3.682-23.57,9.183-31.928,18.017c4.546-16.637,10.268-32.706,17.036-48.134
				c12.063,7.134,22.618,9.432,37.841,8.669c21.314-1.096,34.974-7.631,49.947-23.927c-14.687-10.964-26.152-14.568-44.028-13.821
				c-14.144,0.581-25.057,3.789-35.018,10.709c7.764-15.186,16.605-29.664,26.417-43.368c10.37,9.584,20.219,14.157,35.206,16.788
				c21.05,3.703,35.689,0.325,53.488-12.267c-12.241-13.99-22.755-20.073-40.388-23.326c-13.752-2.555-24.922-1.897-35.864,2.477
				c10.437-12.869,21.771-24.954,33.916-36.173c8.247,11.576,16.979,18.214,31.056,24.089c19.878,8.32,34.842,8.301,54.696-0.074
				c-9.26-16.41-18.368-24.691-34.981-31.802c-12.898-5.537-23.903-7.405-35.397-5.61c12.567-10.303,25.864-19.743,39.82-28.255
				c5.859,13.428,13.135,21.966,25.913,30.949c17.832,12.561,32.474,15.875,53.513,12.114
				c-5.874-18.116-13.172-28.253-28.044-38.907c-12.071-8.669-22.908-12.953-35.149-13.461c14.613-7.873,29.853-14.77,45.636-20.606
				c3.05,15.501,8.52,25.829,19.742,37.988c15.012,16.264,28.689,22.758,49.999,23.773c-2.235-19.035-7.407-30.571-19.885-44.316
				c-11.448-12.617-22.422-19.425-36.508-22.087c8.827-2.87,17.809-5.435,26.93-7.65l-13.937-3.194
				c-5.827,1.41-11.566,2.965-17.25,4.625c8.639-5.999,14.878-13.454,21.289-24.753c11.079-19.534,13.652-35.351,9.418-57.757
				c-16.688,6.918-25.875,15.104-35.299,31.399c-10.855,18.777-13.598,34.575-9.515,55.543
				c-17.546,5.896-34.327,13.012-50.275,21.263c6.962-7.64,11.484-16.181,15.456-28.326c7.056-21.586,6.51-37.63-1.977-58.599
				c-14.98,10.484-22.385,20.529-28.444,38.584c-6.906,20.564-6.618,36.515,1.213,55.856c-15.25,8.792-29.651,18.678-43.13,29.574
				c4.25-8.125,6.599-16.786,7.957-28.131c2.703-22.701-0.93-38.269-13.301-56.875c-12.621,13.588-17.921,25.069-20.342,44.066
				c-2.707,21.206,0.476,36.54,11.309,53.27c-12.668,11.515-24.401,23.988-35.117,37.36c2.05-8.165,2.5-16.578,1.699-27.006
				c-1.75-22.796-8.324-37.211-24.045-52.68c-9.7,16.123-12.656,28.524-11.344,47.654c1.446,21.099,7.413,35.287,20.913,49.096
				c-9.987,14.285-18.892,29.466-26.651,45.455c0.515-8.646-0.676-17.136-3.554-27.403c-6.126-21.905-15.36-34.52-33.727-46.158
				c-6.367,17.925-6.852,30.728-1.856,49.149c5.566,20.539,14.275,33.135,30.501,43.703c-7.097,17.254-12.905,35.362-17.346,54.226
				c-0.766-10.207-3.649-19.277-9.22-30.185c-10.242-20.05-21.724-30.344-41.947-37.63c-2.752,18.959-0.744,31.57,7.717,48.479
				c9.687,19.374,20.998,29.82,39.817,36.52c-3.726,19.98-5.955,40.749-6.577,62.208c-2.449-12.553-7.232-22.088-16.252-33.326
				c-13.917-17.347-27.138-24.859-48.325-27.465c0.984,19.149,5.396,31.053,16.941,45.694
				c13.549,17.196,26.963,24.834,47.463,26.992c-0.006,1.781-0.013,3.561,0.007,5.352c0.208,19.274,1.411,37.681,3.534,55.26
				c-4.761-10.921-11.197-18.837-21.702-27.409c-16.966-13.861-31.359-18.266-52.597-16.104
				c4.68,18.519,11.306,29.174,25.437,40.927c16.331,13.584,30.723,18.161,50.691,15.951c2.777,18.358,6.573,35.781,11.347,52.257
				c-5.724-6.373-12.483-11.194-21.698-15.855c-19.29-9.78-34.219-10.87-54.573-4.025c8.164,17.076,16.71,26.011,32.822,34.362
				c17.653,9.156,32.036,10.753,49.784,5.236c5.568,15.785,12.079,30.632,19.438,44.59c-5.625-3.289-11.902-5.664-19.619-7.61
				c-20.76-5.27-35.577-3.009-54.153,8.229c11.293,14.865,21.396,21.711,38.767,26.295c18.288,4.808,32.272,3.5,47.788-4.892
				c8.652,13.589,18.193,26.208,28.531,37.894c-5.846-1.752-12.138-2.586-19.616-2.772c-21.322-0.522-35.382,4.981-51.381,20.127
				c13.943,12.019,25.146,16.462,43.029,17.075c18.958,0.638,32.438-3.818,46.084-15.67c12.124,11.507,25.108,21.941,38.856,31.327
				c-7.26-1.021-14.679-0.537-23.611,1.271c-20.959,4.232-33.647,12.764-46.355,31.129c15.97,8.665,27.79,10.524,45.401,7.133
				c19.479-3.763,32.045-11.642,43.472-27.566c14.304,8.402,29.307,15.798,44.888,22.21c-5.56,1.034-11.229,2.935-17.602,5.797
				c-19.68,8.837-30.436,19.993-39.306,40.791c17.295,4.93,29.221,4.099,45.787-3.143c17.471-7.649,28.078-17.547,36.034-34.175
				c12.79,4.278,25.897,7.956,39.277,11.052c-1.737,1.183-3.505,2.473-5.331,3.878c-17.325,13.34-25.459,26.819-29.738,49.22
				c17.886,0.619,29.333-3.065,43.949-14.126c12.55-9.474,20.338-19.335,25.11-32.438c13.863,2.152,27.947,3.741,42.202,4.763
				c6.744,0.486,13.002,1.7,18.901,3.455c-27.483,18.211-51.751,43.568-77.884,60.185l20.852,9.335
				c29.108-18.505,49.562-45.427,76.762-60.98c27.313,15.54,47.791,42.552,76.965,61.096l20.862-9.335
				c-26.212-16.667-50.548-42.118-78.125-60.339c5.969-1.807,12.305-3.045,19.143-3.529c14.246-1.029,28.331-2.613,42.194-4.765
				c4.771,13.103,12.561,22.961,25.108,32.465c14.616,11.033,26.06,14.718,43.952,14.098c-4.278-22.398-12.414-35.879-29.737-49.219
				c-1.827-1.405-3.597-2.695-5.338-3.87c13.384-3.104,26.493-6.781,39.277-11.06c7.956,16.628,18.563,26.525,36.038,34.177
				c16.565,7.239,28.493,8.07,45.786,3.141c-8.863-20.798-19.618-31.953-39.303-40.791c-6.373-2.861-12.045-4.763-17.606-5.797
				c15.588-6.411,30.586-13.806,44.896-22.21c11.425,15.925,23.991,23.807,43.466,27.56c17.611,3.398,29.431,1.539,45.401-7.126
				c-12.713-18.364-25.389-26.896-46.357-31.128c-8.928-1.81-16.349-2.286-23.608-1.272c13.748-9.387,26.737-19.82,38.856-31.326
				c13.646,11.851,27.126,16.314,46.085,15.669c17.878-0.613,29.078-5.058,43.019-17.074c-15.984-15.146-30.05-20.65-51.377-20.128
				c-7.473,0.18-13.762,1.023-19.604,2.759c10.338-11.673,19.872-24.289,28.537-37.879c15.503,8.393,29.487,9.701,47.769,4.893
				c17.389-4.584,27.478-11.43,38.773-26.303c-18.569-11.232-33.402-13.493-54.156-8.217c-7.707,1.939-13.982,4.315-19.608,7.598
				c7.363-13.952,13.876-28.799,19.436-44.583c17.74,5.517,32.126,3.92,49.776-5.229c16.116-8.358,24.654-17.287,32.822-34.368
				C928.746,596.254,913.816,597.348,894.526,607.125"/>
		</g>
		<g>
			<path fill="#CD7F2F" d="M510.808,25.544v271.097v425.508v130.877c10.522-4.496,21.621-7.521,33.529-8.379
				c12.849-0.926,25.53-2.271,38.02-4.033l-0.012-0.071c0.166,0,0.318,0.006,0.473,0.006c1.085-0.153,2.177-0.294,3.255-0.46
				c-3.951-17.854-3.038-30.344,3.41-47.738c7.894-21.237,18.111-32.962,37.355-42.839c4.886,18.459,4.329,31.27-2.144,49.147
				c-7.217,19.95-16.923,31.697-33.966,40.709c22.893-3.609,45.075-8.678,66.314-15.356c-4.804-12.899-5.651-24.088-3.442-39.591
				c3.224-22.604,10.734-36.5,27.413-50.739c8.639,16.786,10.772,29.387,8.225,48.375c-1.967,14.587-5.894,25.659-12.943,35.352
				c16.947-6.296,33.197-13.703,48.599-22.278c-6.92-11.314-9.84-21.973-10.669-37.35c-1.222-22.834,3.416-38.096,16.967-55.745
				c11.703,14.507,16.244,26.345,17.419,45.502c0.895,14.304-0.688,25.79-5.402,36.589c13.499-8.76,26.232-18.542,38.103-29.373
				c-10.95-10.562-16.545-20.79-20.747-37.252c-5.631-22.063-4.048-38.008,5.785-58.313c14.266,11.583,20.996,22.157,25.868,40.626
				c4.456,16.869,4.477,30.444-0.363,44.812c13.044-13.217,24.889-27.878,35.374-44.04c-13.772-8.167-21.544-17.005-29.148-32.808
				c-9.783-20.339-11.333-36.29-5.657-58.333c16.199,8.149,24.84,17.005,33.185,33.971c8.167,16.617,10.646,30.624,7.854,47.126
				c9.86-16.679,18.346-34.853,25.274-54.615c-14.314-4.88-23.397-11.782-33.605-25.166c-13.52-17.685-18.13-32.965-16.854-55.797
				c17.434,4.371,27.592,11.103,39.05,25.846c10.061,12.941,15.215,24.875,16.519,39.293c5.037-16.993,8.99-35.091,11.769-54.313
				c-13.525-1.86-23.263-6.656-35.089-16.803c-16.647-14.301-24.112-28.219-27.292-50.815c17.886,0.383,29.138,4.695,43.199,16.559
				c10.572,8.916,17.488,17.903,21.813,28.968c1.262-13.384,1.983-27.274,2.145-41.695c0.025-2.739,0.025-5.476,0-8.203
				c-1.866,0.145-3.672,0.222-5.428,0.222c-10.741,0-19.955-2.759-31.354-8.904c-19.061-10.274-29.053-22.216-36.55-43.63
				c5.71-1.171,10.817-1.777,15.644-1.777c10.064,0,18.985,2.631,29.822,8.352c12.068,6.376,20.574,13.62,26.951,23.467
				c-1.186-16.934-3.504-33.447-6.889-49.483c-6.416,2.052-12.272,3.063-18.325,3.063c-6.207,0-12.611-1.066-20.025-3.15
				c-20.64-5.792-32.728-15.242-44.213-34.526c9.841-4.438,18.051-6.567,26.754-6.567c5.882,0,12.005,0.974,19.005,2.869
				c13.581,3.679,23.566,9.183,31.921,18.015c-4.553-16.638-10.262-32.707-17.038-48.135c-10.604,6.274-20.051,8.809-32.526,8.809
				c-1.712,0-3.481-0.047-5.313-0.141c-21.315-1.094-34.974-7.627-49.949-23.919c13.487-10.067,24.247-13.915,39.758-13.915
				c1.379,0,2.81,0.032,4.271,0.09c14.151,0.577,25.064,3.79,35.024,10.709c-7.769-15.186-16.606-29.664-26.414-43.368
				c-10.377,9.586-20.225,14.157-35.211,16.788c-5.313,0.935-10.216,1.418-14.865,1.418c-13.773,0-25.318-4.253-38.625-13.685
				c12.24-13.994,22.758-20.069,40.381-23.326c5.301-0.98,10.218-1.481,14.893-1.481c7.437,0,14.249,1.28,20.981,3.965
				c-10.435-12.873-21.768-24.957-33.921-36.18c-8.243,11.576-16.978,18.212-31.059,24.089c-9.91,4.154-18.6,6.227-27.291,6.227
				c-8.723,0-17.452-2.095-27.4-6.286c9.253-16.422,18.372-24.706,34.98-31.816c9.736-4.18,18.402-6.271,27.009-6.268
				c2.79,0,5.576,0.221,8.384,0.654c-12.559-10.3-25.861-19.747-39.811-28.252c-5.857,13.432-13.143,21.965-25.913,30.95
				c-13.277,9.349-24.776,13.573-38.473,13.573c-4.708,0-9.663-0.499-15.046-1.46c5.875-18.112,13.174-28.236,28.046-38.907
				c12.082-8.668,22.911-12.953,35.145-13.461c-14.609-7.876-29.845-14.77-45.63-20.605c-3.052,15.505-8.52,25.829-19.744,37.993
				c-15.006,16.256-28.685,22.756-49.998,23.771c2.235-19.02,7.407-30.558,19.883-44.318c11.444-12.618,22.427-19.425,36.514-22.087
				c-8.824-2.875-17.81-5.438-26.934-7.644l13.932-3.203c5.831,1.408,11.57,2.963,17.255,4.627
				c-8.646-5.996-14.879-13.454-21.281-24.754c-11.081-19.536-13.661-35.347-9.434-57.754c16.692,6.919,25.881,15.103,35.306,31.395
				c10.861,18.783,13.601,34.578,9.521,55.545c17.549,5.9,34.328,13.014,50.267,21.263c-6.959-7.64-11.479-16.187-15.452-28.326
				c-7.05-21.585-6.513-37.63,1.979-58.6c14.98,10.485,22.388,20.526,28.441,38.588c6.91,20.562,6.629,36.513-1.214,55.858
				c15.25,8.789,29.643,18.667,43.12,29.561c-4.246-8.122-6.582-16.785-7.941-28.128c-2.714-22.694,0.924-38.236,13.301-56.869
				c12.616,13.589,17.918,25.069,20.344,44.065c2.701,21.207-0.486,36.539-11.311,53.277c12.665,11.511,24.401,23.984,35.11,37.353
				c-2.044-8.164-2.497-16.579-1.693-27.011c1.744-22.789,8.319-37.205,24.034-52.674c9.714,16.121,12.663,28.524,11.343,47.655
				c-1.438,21.098-7.407,35.286-20.906,49.095c9.985,14.288,18.895,29.469,26.652,45.456c-0.517-8.652,0.684-17.136,3.557-27.404
				c6.131-21.908,15.362-34.52,33.728-46.157c6.361,17.924,6.846,30.727,1.853,49.152c-5.556,20.536-14.278,33.134-30.497,43.698
				c7.094,17.261,12.904,35.37,17.344,54.236c0.765-10.208,3.651-19.28,9.225-30.194c10.243-20.05,21.725-30.344,41.941-37.633
				c2.753,18.962,0.749,31.573-7.707,48.482c-9.692,19.38-21.01,29.823-39.826,36.521c3.729,19.98,5.952,40.753,6.583,62.211
				c2.439-12.558,7.229-22.094,16.245-33.329c13.92-17.346,27.138-24.859,48.325-27.467c-0.977,19.15-5.39,31.052-16.941,45.7
				c-13.543,17.188-26.958,24.843-47.463,26.992c0,1.78,0.014,3.566-0.007,5.363c-0.203,19.262-1.411,37.664-3.53,55.239
				c4.758-10.914,11.193-18.826,21.696-27.406c14.267-11.657,26.719-16.627,42.938-16.627c3.071,0,6.282,0.18,9.66,0.521
				c-4.682,18.521-11.303,29.176-25.433,40.933c-13.743,11.422-26.11,16.473-41.577,16.473c-2.924,0-5.95-0.178-9.118-0.53
				c-2.766,18.36-6.564,35.773-11.341,52.253c5.722-6.372,12.483-11.192,21.692-15.849c11.137-5.641,20.822-8.394,30.93-8.394
				c7.41,0,15.045,1.476,23.641,4.364c-8.168,17.088-16.706,26.017-32.822,34.375c-10.888,5.638-20.529,8.409-30.49,8.409
				c-6.182,0-12.489-1.066-19.286-3.175c-5.56,15.779-12.072,30.619-19.436,44.578c5.626-3.282,11.901-5.658,19.608-7.598
				c7.038-1.79,13.386-2.714,19.438-2.714c11.801,0.005,22.444,3.504,34.718,10.931c-11.296,14.878-21.385,21.719-38.773,26.303
				c-6.971,1.838-13.318,2.776-19.373,2.776c-9.801,0-18.805-2.483-28.396-7.669c-8.665,13.59-18.199,26.206-28.537,37.879
				c5.843-1.735,12.132-2.579,19.604-2.759c0.898-0.025,1.792-0.036,2.675-0.036c19.846,0,33.389,5.663,48.702,20.164
				c-13.94,12.017-25.141,16.461-43.019,17.074c-1.175,0.046-2.324,0.064-3.449,0.064c-17.175,0-29.827-4.617-42.636-15.733
				c-12.119,11.506-25.108,21.939-38.856,31.326c2.517-0.351,5.039-0.522,7.649-0.522c4.924,0,10.121,0.612,15.959,1.795
				c20.969,4.231,33.645,12.764,46.357,31.128c-11.041,5.99-20.088,8.729-30.446,8.729c-4.622,0-9.514-0.549-14.955-1.597
				c-19.475-3.76-32.041-11.642-43.466-27.566c-14.311,8.404-29.309,15.799-44.896,22.21c5.562,1.034,11.233,2.936,17.606,5.797
				c19.685,8.838,30.439,19.993,39.303,40.791c-7.229,2.057-13.526,3.117-19.611,3.117c-8.467,0-16.537-2.044-26.175-6.258
				c-17.475-7.651-28.082-17.549-36.038-34.177c-12.784,4.278-25.894,7.956-39.277,11.06c1.741,1.175,3.511,2.465,5.338,3.87
				c17.323,13.34,25.459,26.82,29.737,49.219c-1.244,0.046-2.466,0.071-3.652,0.071c-15.848,0-26.705-3.902-40.3-14.169
				c-12.548-9.504-20.337-19.362-25.108-32.465c-13.863,2.151-27.948,3.735-42.194,4.765c-6.838,0.484-13.174,1.723-19.143,3.529
				c27.577,18.221,51.913,43.672,78.125,60.339l-20.862,9.335c-27.348-17.389-47.053-42.209-71.912-58.045v96.205
				c3.122-0.064,6.214-0.173,9.317-0.307c111.872-4.804,218.768-49.297,300.953-124.685
				c52.412-48.089,94.782-108.745,121.964-179.688c93.759-244.68-28.581-519.049-273.268-612.81
				C617.452,36.92,563.789,26.75,510.808,25.544"/>
		</g>
		<g>
			<path fill="#F6BB3C" d="M612.279,74.443c-4.228,22.407-1.647,38.218,9.426,57.754c6.41,11.3,12.643,18.758,21.289,24.754
				c-5.685-1.664-11.431-3.219-17.255-4.627l-13.932,3.203c9.124,2.206,18.109,4.769,26.934,7.648
				c-14.087,2.657-25.069,9.464-36.514,22.082c-12.476,13.761-17.647,25.299-19.883,44.318c21.313-1.018,34.992-7.515,49.998-23.771
				c11.225-12.164,16.692-22.492,19.744-37.993c15.785,5.836,31.021,12.729,45.637,20.605c-12.248,0.508-23.076,4.793-35.158,13.461
				c-14.865,10.671-22.164,20.795-28.039,38.907c5.383,0.961,10.338,1.46,15.046,1.46c13.696,0,25.195-4.225,38.473-13.573
				c12.775-8.985,20.056-17.519,25.917-30.95c13.945,8.505,27.248,17.952,39.807,28.252c-2.808-0.434-5.594-0.654-8.384-0.654
				c-8.606,0-17.272,2.085-27.009,6.268c-16.616,7.11-25.728,15.393-34.98,31.816c9.948,4.191,18.678,6.286,27.4,6.286
				c8.691,0,17.381-2.078,27.291-6.227c14.081-5.874,22.815-12.513,31.059-24.089c12.153,11.223,23.486,23.307,33.921,36.184
				c-6.725-2.688-13.545-3.969-20.981-3.969c-4.675,0-9.592,0.501-14.893,1.475c-17.623,3.264-28.141,9.339-40.381,23.333
				c13.307,9.432,24.852,13.685,38.625,13.685c4.649,0,9.553-0.483,14.865-1.418c14.986-2.631,24.834-7.202,35.211-16.788
				c9.808,13.704,18.646,28.183,26.414,43.368c-9.967-6.919-20.866-10.128-35.017-10.709c-1.469-0.058-2.899-0.086-4.278-0.086
				c-15.511,0-26.271,3.844-39.758,13.911c14.976,16.292,28.634,22.825,49.949,23.919c1.832,0.094,3.602,0.141,5.313,0.141
				c12.476,0,21.922-2.534,32.526-8.809c6.776,15.428,12.485,31.497,17.038,48.137c-8.354-8.834-18.34-14.335-31.921-18.017
				c-7-1.896-13.109-2.866-19.005-2.866c-8.703,0-16.913,2.126-26.749,6.564c11.48,19.284,23.575,28.734,44.215,34.526
				c7.407,2.084,13.812,3.147,20.019,3.147c6.053,0,11.909-1.009,18.325-3.061c3.385,16.036,5.703,32.55,6.889,49.483
				c-6.377-9.853-14.883-17.091-26.951-23.467c-10.837-5.721-19.758-8.352-29.822-8.352c-4.826,0-9.94,0.606-15.65,1.777
				c7.504,21.414,17.496,33.355,36.557,43.63c11.399,6.146,20.613,8.904,31.354,8.904c1.756,0,3.562-0.077,5.428-0.222
				c0.025,2.728,0.025,5.464,0,8.206c-0.161,14.418-0.883,28.309-2.145,41.692c-4.325-11.064-11.241-20.052-21.813-28.968
				c-14.062-11.863-25.301-16.176-43.199-16.559c3.18,22.597,10.645,36.515,27.292,50.815
				c11.826,10.146,21.563,14.942,35.089,16.803c-2.778,19.222-6.731,37.319-11.769,54.313c-1.304-14.418-6.458-26.35-16.519-39.293
				c-11.458-14.743-21.616-21.471-39.05-25.846c-1.276,22.832,3.334,38.112,16.854,55.797
				c10.208,13.384,19.296,20.286,33.605,25.166c-6.929,19.763-15.414,37.937-25.274,54.615c2.792-16.502,0.313-30.509-7.854-47.126
				c-8.345-16.966-16.985-25.821-33.185-33.971c-5.676,22.043-4.126,37.994,5.657,58.333c7.604,15.803,15.376,24.641,29.148,32.802
				c-10.485,16.168-22.33,30.829-35.381,44.046c4.847-14.367,4.833-27.942,0.37-44.812c-4.872-18.469-11.609-29.043-25.868-40.626
				c-9.833,20.306-11.416,36.251-5.785,58.313c4.202,16.462,9.797,26.69,20.747,37.252c-11.87,10.831-24.604,20.613-38.103,29.373
				c4.714-10.799,6.297-22.285,5.402-36.589c-1.175-19.157-5.716-30.995-17.419-45.502c-13.551,17.649-18.188,32.911-16.967,55.745
				c0.829,15.377,3.749,26.035,10.669,37.35c-15.401,8.575-31.651,15.982-48.599,22.278c7.043-9.692,10.982-20.765,12.943-35.352
				c2.548-18.988,0.407-31.593-8.225-48.375c-16.686,14.239-24.189,28.136-27.413,50.739c-2.209,15.503-1.361,26.691,3.442,39.591
				c-21.239,6.679-43.43,11.747-66.314,15.356c17.043-9.012,26.749-20.759,33.971-40.709c6.468-17.878,7.024-30.688,2.139-49.147
				c-19.244,9.877-29.462,21.602-37.355,42.839c-6.448,17.395-7.361,29.885-3.41,47.738c-1.078,0.166-2.17,0.307-3.255,0.46
				c-0.159,0-0.307-0.006-0.473-0.006l0.012,0.071c-12.489,1.762-25.171,3.107-38.02,4.033c-11.908,0.857-23.007,3.883-33.529,8.379
				v25.223c24.859,15.836,44.564,40.656,71.92,58.045l20.854-9.335c-26.212-16.667-50.548-42.118-78.125-60.339
				c5.969-1.807,12.305-3.045,19.143-3.529c14.246-1.029,28.331-2.613,42.194-4.765c4.771,13.103,12.561,22.961,25.108,32.465
				c13.595,10.267,24.452,14.169,40.3,14.169c1.187,0,2.401-0.021,3.652-0.071c-4.278-22.398-12.414-35.879-29.737-49.219
				c-1.827-1.405-3.597-2.695-5.338-3.87c13.384-3.104,26.493-6.781,39.277-11.06c7.956,16.628,18.563,26.525,36.038,34.177
				c9.638,4.214,17.708,6.258,26.175,6.258c6.085,0,12.382-1.061,19.611-3.117c-8.863-20.798-19.618-31.953-39.303-40.791
				c-6.373-2.861-12.045-4.763-17.606-5.797c15.588-6.411,30.586-13.806,44.896-22.21c11.425,15.925,23.984,23.807,43.466,27.566
				c5.441,1.048,10.333,1.59,14.955,1.59c10.358,0,19.405-2.732,30.446-8.723c-12.706-18.364-25.389-26.896-46.357-31.128
				c-5.838-1.183-11.035-1.795-15.959-1.795c-2.61,0-5.133,0.172-7.649,0.522c13.748-9.387,26.737-19.82,38.856-31.326
				c12.809,11.116,25.461,15.733,42.636,15.733c1.125,0,2.274-0.026,3.449-0.064c17.885-0.613,29.078-5.058,43.019-17.074
				c-15.313-14.508-28.856-20.164-48.702-20.164c-0.883,0-1.776,0.011-2.675,0.036c-7.473,0.18-13.762,1.023-19.604,2.759
				c10.338-11.673,19.872-24.289,28.537-37.879c9.591,5.186,18.595,7.669,28.396,7.669c6.048,0,12.402-0.944,19.381-2.776
				c17.381-4.584,27.47-11.425,38.766-26.303c-12.273-7.427-22.917-10.926-34.718-10.931c-6.053,0-12.407,0.924-19.438,2.714
				c-7.707,1.939-13.982,4.315-19.608,7.598c7.363-13.952,13.876-28.799,19.436-44.578c6.802,2.108,13.099,3.175,19.286,3.175
				c9.961,0,19.603-2.771,30.49-8.409c16.116-8.358,24.654-17.287,32.822-34.368c-8.596-2.896-16.23-4.371-23.641-4.371
				c-10.107,0-19.793,2.753-30.93,8.394c-9.209,4.656-15.971,9.477-21.692,15.849c4.776-16.479,8.575-33.893,11.341-52.253
				c3.168,0.353,6.194,0.53,9.118,0.53c15.467,0,27.834-5.051,41.577-16.473c14.13-11.757,20.751-22.411,25.433-40.93
				c-3.378-0.344-6.589-0.523-9.66-0.523c-16.22,0-28.672,4.974-42.938,16.627c-10.503,8.58-16.938,16.492-21.696,27.406
				c2.119-17.575,3.327-35.975,3.53-55.239c0.021-1.797,0.007-3.579,0.007-5.367c20.505-2.146,33.92-9.801,47.463-26.988
				c11.552-14.648,15.965-26.55,16.941-45.7c-21.188,2.604-34.412,10.121-48.325,27.467c-9.016,11.235-13.806,20.771-16.245,33.329
				c-0.631-21.458-2.854-42.23-6.589-62.211c18.822-6.704,30.14-17.142,39.832-36.521c8.456-16.909,10.46-29.521,7.707-48.477
				c-20.217,7.283-31.698,17.577-41.941,37.627c-5.573,10.914-8.46,19.984-9.225,30.194c-4.439-18.866-10.25-36.976-17.344-54.236
				c16.213-10.564,24.929-23.162,30.497-43.698c4.993-18.426,4.509-31.229-1.853-49.152c-18.365,11.634-27.597,24.249-33.728,46.157
				c-2.873,10.269-4.073,18.758-3.557,27.404c-7.758-15.987-16.667-31.168-26.652-45.459c13.499-13.806,19.469-27.994,20.906-49.092
				c1.32-19.131-1.629-31.534-11.343-47.655c-15.715,15.469-22.283,29.888-24.034,52.674c-0.804,10.432-0.351,18.847,1.693,27.011
				c-10.709-13.371-22.445-25.842-35.114-37.353c10.828-16.738,14.016-32.07,11.314-53.277
				c-2.426-18.996-7.728-30.477-20.344-44.065c-12.377,18.633-16.015,34.175-13.301,56.869c1.353,11.343,3.703,20.006,7.941,28.128
				c-13.478-10.89-27.87-20.771-43.113-29.568c7.829-19.338,8.117-35.289,1.207-55.851c-6.054-18.062-13.461-28.103-28.441-38.588
				c-8.492,20.97-9.029,37.011-1.979,58.6c3.973,12.14,8.493,20.687,15.452,28.326c-15.938-8.249-32.725-15.362-50.267-21.263
				c4.08-20.967,1.334-36.762-9.521-55.541C638.167,89.546,628.972,81.359,612.279,74.443"/>
		</g>
	</g>
</g>
<g>
	<path fill="#E7E5D3" d="M494.941,277c-56.945,0-109.444,15.185-135.396,31.003l21.521,81.612
		c16.445-8.86,53.151-23.403,87.931-23.403c35.446,0,55.056,13.91,55.056,34.794c0,28.465-36.062,37.321-64.55,37.321h-40.478
		v80.983h42.391c37.958,0,72.76,15.814,72.76,49.35c0,29.098-26.583,43.653-67.068,43.653c-39.219,0-80.35-15.814-98.062-24.679
		l-21.513,85.411c0.125,0.078,0.259,0.159,0.392,0.237c26.013,15.711,72.642,28.865,128.668,28.865
		c106.288,0,175.876-51.246,175.876-127.163c0-52.51-39.219-89.206-87.938-97.432v-1.264c50.616-17.712,75.296-51.246,75.296-94.9
		c0-20.739-6.686-39.833-19.336-55.863C597.271,296.098,553.933,277,494.941,277"/>
</g>
</svg>
