<?xml version="1.0" encoding="utf-8"?>
<!-- Generator: Adobe Illustrator 16.0.0, SVG Export Plug-In . SVG Version: 6.00 Build 0)  -->
<!DOCTYPE svg PUBLIC "-//W3C//DTD SVG 1.1//EN" "http://www.w3.org/Graphics/SVG/1.1/DTD/svg11.dtd">
<svg version="1.1" id="Layer_1" xmlns="http://www.w3.org/2000/svg" xmlns:xlink="http://www.w3.org/1999/xlink" x="0px" y="0px"
	 width="1000px" height="1000px" viewBox="0 0 1000 1000" enable-background="new 0 0 1000 1000" xml:space="preserve">
<g>
	<path fill="#475A70" d="M974.068,825.566c0,82.5-67.5,150-150,150H174.615c-82.5,0-150-67.5-150-150V174.615
		c0-82.5,67.5-150,150-150h649.454c82.5,0,150,67.5,150,150V825.566z"/>
</g>
<g>
	<path fill="#90B2CC" d="M974.721,825.317c0,82.5-67.5,150-150,150H175.279c-82.5,0-150-67.5-150-150V174.683
		c0-82.5,67.5-150,150-150h649.441c82.5,0,150,67.5,150,150V825.317z"/>
</g>
<g>
	<path fill="#FFFFFF" stroke="#000000" d="M770.492,554.727c-18.603-27.882-101.779-89.806-113.857-108.255
		c-12.072-18.453-10.656-25.513-10.766-36.426c0.838-45.398,28.768-92.311,28.768-133.059c0-21.156-1.067-42.192-7.905-62.169
		C647.727,159.278,611.1,109.319,556.678,90.665c-15.373-5.275-38.861-5.804-56.047-5.836v-0.005c-0.219,0-0.447,0-0.667,0
		c-0.216,0-0.448,0-0.667,0v0.005c-17.187,0.032-40.668,0.561-56.051,5.836c-54.417,18.655-91.044,68.614-110.053,124.153
		c-6.834,19.977-7.901,41.013-7.901,62.169c0,40.748,27.929,87.66,28.771,133.059c-0.109,10.913,1.303,17.973-10.772,36.426
		c-12.073,18.45-95.252,80.374-113.851,108.255c-28.202,42.282-22.143,63.124,9.359,52.829c11.516-3.762,42.878-12.91,42.878-12.91
		s15.651,78.655,15.651,116.92c0,159.461,82.545,203.91,201.97,204.44v0.012c0.225,0,0.447-0.009,0.667-0.009
		c0.222,0,0.444,0.009,0.667,0.009v-0.012c119.422-0.53,210.988-44.979,210.988-204.44c0-38.265,6.633-116.92,6.633-116.92
		s31.365,9.148,42.875,12.91C792.632,617.851,798.691,597.009,770.492,554.727z"/>
	<path fill="#FBB041" d="M508.933,367.499c-4.934,6.729-13.004,6.729-17.937,0l-19.568-26.698
		c-4.933-6.729-2.142-12.234,6.201-12.234H522.3c8.343,0,11.134,5.506,6.2,12.234L508.933,367.499z"/>
	<g>
		<path d="M548.329,262.981c0,9.38,7.605,16.982,16.988,16.982c9.377,0,16.981-7.602,16.981-16.982
			c0-9.379-7.604-16.985-16.981-16.985C555.935,245.996,548.329,253.602,548.329,262.981z"/>
		<circle cx="435.995" cy="262.981" r="16.982"/>
		<path d="M653.002,229.533c-13.459,4.951-26.915,9.901-40.371,14.852c-5.457-17.911-23.84-30.011-42.523-31.017
			c-18.444-0.993-33.06,11.104-39.912,26.759c-7.691-6.636-18.191-8.493-28.85-8.672c-0.247-0.005-0.463,0.035-0.691,0.056
			c-0.229-0.021-0.444-0.061-0.69-0.056c-10.624,0.179-21.085,2.022-28.773,8.601c-6.77-15.484-21.354-25.685-39.99-26.688
			c-20.214-1.087-35.845,13.523-41.682,31.329c-13.738-5.054-27.475-10.109-41.213-15.163c-6.9-2.539-9.848,8.46-3.025,10.971
			c13.99,5.147,27.982,10.293,41.972,15.441c-0.044,0.505-0.125,1.009-0.151,1.515c-1.338,24.907,21.163,42.861,44.099,44.096
			c24.291,1.309,41.921-20.064,43.927-42.399c0.125-0.518,0.202-1.071,0.169-1.696c0.033-0.615-0.042-1.157-0.163-1.668
			c-0.074-0.867-0.21-1.703-0.323-2.552c5.342-9.091,15.462-10.247,25.153-10.41c0.246-0.004,0.462-0.052,0.69-0.08
			c0.228,0.028,0.444,0.076,0.691,0.08c9.657,0.163,19.742,1.313,25.093,10.325c-0.124,0.868-0.181,1.739-0.258,2.61
			c-0.124,0.519-0.201,1.069-0.169,1.694c-0.032,0.613,0.041,1.157,0.16,1.668c2.042,24.07,19.544,41.116,43.936,42.428
			c24.907,1.343,42.858-21.16,44.094-44.096c0.029-0.532-0.015-1.043-0.009-1.567c13.944-5.13,27.89-10.26,41.833-15.389
			C662.851,237.993,659.902,226.994,653.002,229.533z M398.479,257.46c-0.995-18.514,15.664-31.798,32.723-32.716
			c18.511-0.997,31.801,15.659,32.72,32.716C461.648,299.629,400.751,299.629,398.479,257.46z M570.107,290.179
			c-18.51,0.998-31.801-15.662-32.719-32.719c2.272-42.166,63.166-42.167,65.436,0C603.819,275.971,587.167,289.261,570.107,290.179
			z"/>
	</g>
	<path d="M781.268,556.708c-19.275-28.901-105.485-93.083-118.006-112.208c-12.517-19.12-11.045-26.447-11.162-37.753
		c0.873-47.053,29.818-95.681,29.818-137.913c0-21.928-1.105-43.733-8.188-64.437C654.03,146.832,628.1,67.571,500.877,67.406
		c-0.299-0.001-0.59,0.008-0.877,0.013c-0.288-0.005-0.575-0.014-0.877-0.013c-127.222,0.165-153.154,79.426-172.853,136.992
		c-7.086,20.704-8.191,42.511-8.191,64.437c0,42.234,28.951,90.86,29.819,137.913c-0.112,11.309,1.354,18.633-11.163,37.753
		c-12.514,19.125-98.728,83.306-118.005,112.208c-29.23,43.823-22.949,65.427,9.703,54.756c11.93-3.902,44.439-13.38,44.439-13.38
		s9.406,81.521,9.406,121.182c0,78.96,53.26,146.499,30.498,156.273c-22.766,9.768-24.854,9.907-39.896,18.463
		c-15.041,8.557-22.498,35.91,17.35,35.827c39.847-0.08,49.061-0.159,49.061-0.159s104.833,0.871,120.58,2.242
		c18.534,1.617,35.629-0.086,40.129-0.595c4.5,0.509,21.597,2.212,40.126,0.595c15.749-1.371,120.579-2.242,120.579-2.242
		s9.214,0.079,49.063,0.159c39.85,0.083,32.393-27.271,17.352-35.827c-15.044-8.556-17.133-8.695-39.895-18.463
		c-22.766-9.774,30.494-77.313,30.494-156.273c0-39.661,9.412-121.182,9.412-121.182s32.507,9.478,44.438,13.38
		C804.219,622.135,810.503,600.531,781.268,556.708z M630.673,870.545c-55.732,46.93-130.214,42.294-130.486,42.303
		c-0.006,0-0.11,0.003-0.187,0.006c-0.077-0.003-0.181-0.006-0.187-0.006c-0.272-0.009-74.756,4.627-130.487-42.303
		c-33.978-28.626-51.967-76.413-50.921-156.124c2.758-210.436,44.11-214.577,54.456-291.85c0,0,0.69-30.358-1.378-46.229
		c-1.312-10.065-20.356-55.886-17.251-112.459c3.107-56.577,24.495-89.35,59.338-110.394c31.505-19.028,77.103-19.441,85.55-19.343
		v0.015c0.228,0.002,0.379,0.007,0.379,0.007s0.178-0.005,0.465-0.012c0.344,0.006,0.539,0.014,0.539,0.014s0.148-0.006,0.376-0.009
		v-0.018c8.444-0.096,54.042,0.318,85.553,19.346c34.837,21.043,56.225,53.816,59.33,110.391
		c3.107,56.578-15.935,102.393-17.246,112.461c-2.068,15.871-1.378,46.231-1.378,46.231c10.349,77.271,51.695,81.413,54.456,291.848
		C682.639,794.132,664.651,841.919,630.673,870.545z"/>
	<g>
		<g>
			<path fill="#FBB041" d="M439.253,649.557c5.004,0,9.102-4.093,9.102-9.1v-0.395c0-5.007,4.095-9.102,9.102-9.102h85.013
				c5.007,0,9.101,4.095,9.101,9.102v0.395c0,5.007,4.095,9.1,9.102,9.1h6.085c5.007,0,9.102-4.093,9.102-9.1V615.78
				c0-5.007-4.095-9.101-9.102-9.101H433.171c-5.007,0-9.101,4.094-9.101,9.101v24.677c0,5.007,4.094,9.1,9.101,9.1H439.253z"/>
		</g>
		<g>
			<path fill="#FBB041" d="M560.672,715.586c-5.007,0-9.102,4.094-9.102,9.101v0.392c0,5.007-4.094,9.102-9.101,9.102h-85.013
				c-5.007,0-9.102-4.095-9.102-9.102v-0.392c0-5.007-4.097-9.101-9.102-9.101h-6.082c-5.007,0-9.101,4.094-9.101,9.101v24.68
				c0,5.007,4.094,9.101,9.101,9.101h133.585c5.007,0,9.102-4.094,9.102-9.101v-24.68c0-5.007-4.095-9.101-9.102-9.101H560.672z"/>
		</g>
	</g>
	<path fill="#FBB041" d="M536.357,685.612c0,5.007-4.095,9.102-9.102,9.102h-54.586c-5.004,0-9.102-4.095-9.102-9.102v-6.085
		c0-5.007,4.098-9.102,9.102-9.102h54.586c5.007,0,9.102,4.095,9.102,9.102V685.612z"/>
</g>
<path fill="#FBAF41" d="M891.846,413.229c-13.765,3.072-27.645-2.46-41.637-16.602c-12.714-4.791-30.968-10.151-54.771-16.079
	l-7.584,1.091c-41.375,12.449-65.028,28.77-70.957,48.963c0.297-0.469,0.785-0.978,1.465-1.531
	c11.423-8.172,26.228-12.882,44.411-14.13c20.567-1.379,28.096,5.372,22.585,20.252l-59.381,166.661l-6.673,89.317l23.038,7.167
	c6.887,2.075,11.199,0.712,12.937-4.092l64.966-240.342c5.429-8.037,11.735-12.156,18.916-12.353
	c7.18-0.198,13.866,1.42,20.053,4.858c6.186,3.437,9.663,6.877,10.432,10.318c8.078,3.818,15.247,3.12,21.509-2.091
	c6.264-5.212,9.73-12.61,10.401-22.195C902.224,422.857,898.989,416.453,891.846,413.229z"/>
<path fill="#FBAE41" d="M280.305,674.541c-4.072-2.414-6.196-7.348-4.843-12.127c0.586-2.069,1.746-3.815,3.251-5.129l-7.177-77.818
	l-57.907-103.666l-0.825-1.269c10.807-17.713,12.015-40.595,1.185-59.998c-10.78-19.24-30.628-30.155-51.216-30.396l23.207,41.546
	l-17.473,29.317l-34.125-0.503l-23.232-41.533c-10.558,17.656-11.684,40.287-0.915,59.567c11.278,20.206,32.645,31.244,54.3,30.403
	l0.124,0.237l95.498,170.945c3.772,6.752,9.914,11.366,16.82,13.322c1.504,0.426,3.043,0.718,4.6,0.887L280.305,674.541z"/>
</svg>
