<?xml version="1.0" encoding="UTF-8" standalone="no"?>
<svg
   xmlns:dc="http://purl.org/dc/elements/1.1/"
   xmlns:cc="http://creativecommons.org/ns#"
   xmlns:rdf="http://www.w3.org/1999/02/22-rdf-syntax-ns#"
   xmlns:svg="http://www.w3.org/2000/svg"
   xmlns="http://www.w3.org/2000/svg"
   xml:space="preserve"
   enable-background="new 0 0 1000 1000"
   viewBox="0 0 1000 1000"
   height="1000px"
   width="1000px"
   y="0px"
   x="0px"
   id="Layer_1"
   version="1.1"><metadata
     id="metadata13"><rdf:RDF><cc:Work
         rdf:about=""><dc:format>image/svg+xml</dc:format><dc:type
           rdf:resource="http://purl.org/dc/dcmitype/StillImage" /><dc:title></dc:title></cc:Work></rdf:RDF></metadata><defs
     id="defs11" /><g
     transform="matrix(1.0519284,0,0,1.0519284,-25.298855,-26.262422)"
     id="g4" /><rect
     y="0"
     x="0"
     height="1000"
     width="1000"
     id="rect4498"
     style="fill:#90b2cc;fill-opacity:1;stroke:none;stroke-width:8.85426903;stroke-miterlimit:4;stroke-dasharray:none" /><path
     id="path6"
     d="M 730.457,780.59088 C 705.75036,741.97985 603.29253,704.4765 583.91917,697.65895 l -1.08875,-1.10558 -0.19987,0.082 v -64.7241 c 24.45944,-17.01178 45.7631,-35.83184 52.85625,-44.87947 10.42566,-13.30479 32.76021,-40.56552 46.93494,-89.28242 1.58315,0.51754 3.20207,0.94673 4.87359,1.1771 21.43409,2.93068 41.41337,-19.81517 44.62069,-50.81445 2.36684,-22.81107 -5.02611,-43.69711 -17.61769,-54.33315 11.30823,-26.78736 17.55879,-56.22663 17.55879,-87.12913 0,-123.84984 -100.39605,-224.2522 -224.24694,-224.2522 -22.53441,0 -44.27672,3.360912 -64.79459,9.545199 C 402.82548,48.611764 314.28677,-19.122958 211.79424,81.008003 71.945614,217.64929 233.59019,470.7054 149.33073,510.55139 241.29557,498.65514 263.9762,368.4548 254.96117,253.85351 c -6.58087,-83.70299 52.86887,-131.61412 112.72359,-122.3845 -51.38144,41.09463 -84.32889,104.27345 -84.32889,175.18184 0,30.90145 6.25372,60.34388 17.55879,87.13123 -12.59158,10.6371 -19.98138,31.51998 -17.6219,54.33105 3.21469,30.99928 23.19712,53.74513 44.63332,50.81446 1.48006,-0.20618 2.92226,-0.54806 4.33605,-0.97725 14.17158,48.58647 36.45563,75.79565 46.86972,89.08256 7.15206,9.11812 28.73868,28.1738 53.45164,45.29709 v 64.22549 c 0,0 -0.43024,0.14622 -1.13293,0.38816 l -0.96883,-0.38816 -1.0919,1.10557 c -19.3944,6.82912 -121.82698,44.32722 -146.53362,82.93194 C 260.11562,848.27827 253.88505,1000 253.88505,1000 h 252.77313 252.77314 c -10e-4,-0.002 -6.22847,-151.72384 -28.97432,-219.40912 z"
     style="fill:#475a6d;stroke-width:1.0519284" /></svg>