<?xml version="1.0" encoding="utf-8"?>
<!-- Generator: Adobe Illustrator 16.0.0, SVG Export Plug-In . SVG Version: 6.00 Build 0)  -->
<!DOCTYPE svg PUBLIC "-//W3C//DTD SVG 1.1//EN" "http://www.w3.org/Graphics/SVG/1.1/DTD/svg11.dtd">
<svg version="1.1" id="Layer_1" xmlns="http://www.w3.org/2000/svg" xmlns:xlink="http://www.w3.org/1999/xlink" x="0px" y="0px"
	 width="1000px" height="1000px" viewBox="0 0 1000 1000" enable-background="new 0 0 1000 1000" xml:space="preserve">
<g>
	<path opacity="0.5" fill="#475A70" d="M974.068,825.566c0,82.5-67.5,150-150,150H174.615c-82.5,0-150-67.5-150-150V174.615
		c0-82.5,67.5-150,150-150h649.454c82.5,0,150,67.5,150,150V825.566z"/>
</g>
<path fill="#475A6E" d="M731.459,744.848c-34.172-39.565-85.51-48.141-132.428-60.231h-24.252v-78.771
	c27.518-12.252,52.268-27.068,59.631-36.461c10.553-13.464,30.309-50.645,42.084-107.189c0.43,0.08,0.854,0.166,1.287,0.225
	c21.09,2.886,40.752-19.506,43.916-50.017c3.158-30.456-11.322-57.491-32.346-60.478c7.316-22.658,9.941-49.59-0.1-78.173
	c-53.395-152.017,7.254-179.154,7.254-179.154s-59.051-2.642-104.855,35.272c31.588-48.969,45.805-61.611,45.805-61.611
	s-66.336-14.212-137.414,58.447c15.793-39.49,34.748-59.571,34.748-59.571s-148.48,1.124-202.188,108.54
	C302,236.872,299.625,303.168,307.024,353.294c-17.988,6.494-29.731,31.383-26.857,59.108c3.158,30.51,22.828,52.902,43.917,50.017
	c0.433-0.059,0.858-0.145,1.286-0.225c11.772,56.545,31.529,93.726,42.086,107.189c7.364,9.395,32.118,24.215,59.641,36.467v86.697
	c-0.457-2.595-0.712-5.239-0.712-7.932h-0.232H401.02c-46.918,12.091-98.309,20.666-132.48,60.231
	c-21.291,24.652-58.273,230.719-58.273,230.719h89.462H500h200.271h89.463C789.734,975.566,752.752,769.5,731.459,744.848z
	 M686.906,351.697c-0.379-0.02-0.76-0.028-1.137-0.031c0-0.001,0-0.003,0-0.004C686.146,351.665,686.527,351.678,686.906,351.697z
	 M689.229,351.904c-0.596-0.082-1.191-0.137-1.787-0.179C688.037,351.767,688.633,351.822,689.229,351.904z M316.097,351.667
	c-0.401,0.003-0.804,0.011-1.207,0.032c0.403-0.021,0.806-0.031,1.207-0.034C316.097,351.665,316.097,351.666,316.097,351.667z
	 M311.148,352.163c0.491-0.102,0.986-0.19,1.487-0.259c0.571-0.079,1.143-0.131,1.712-0.171c-0.569,0.042-1.141,0.093-1.712,0.171
	C312.135,351.972,311.642,352.068,311.148,352.163z"/>
</svg>
