<?xml version="1.0" encoding="utf-8"?>
<!-- Generator: Adobe Illustrator 16.0.0, SVG Export Plug-In . SVG Version: 6.00 Build 0)  -->
<!DOCTYPE svg PUBLIC "-//W3C//DTD SVG 1.1//EN" "http://www.w3.org/Graphics/SVG/1.1/DTD/svg11.dtd">
<svg version="1.1" id="Layer_1" xmlns="http://www.w3.org/2000/svg" xmlns:xlink="http://www.w3.org/1999/xlink" x="0px" y="0px"
	 width="1000px" height="1000px" viewBox="0 0 1000 1000" enable-background="new 0 0 1000 1000" xml:space="preserve">
<g>
	<path fill="#90B2CC" d="M974.089,825.601c0,82.5-67.5,150-150,150H174.646c-82.5,0-150-67.5-150-150V174.966
		c0-82.5,67.5-150,150-150h649.442c82.5,0,150,67.5,150,150V825.601z"/>
</g>
<path fill="#475A6D" d="M718.448,766.99c-23.487-36.705-120.887-72.357-139.304-78.838l-1.035-1.051l-0.19,0.078V625.65
	c23.252-16.172,43.504-34.063,50.247-42.664c9.911-12.648,31.143-38.563,44.618-84.875c1.505,0.492,3.044,0.9,4.633,1.119
	c20.376,2.786,39.369-18.837,42.418-48.306c2.25-21.685-4.778-41.54-16.748-51.651c10.75-25.465,16.692-53.451,16.692-82.828
	c0-117.736-95.44-213.182-213.177-213.182c-21.422,0-42.091,3.195-61.596,9.074C406.99,71.145,322.822,6.754,225.389,101.942
	c-132.945,129.896,20.72,370.46-59.38,408.339c87.425-11.309,108.986-135.082,100.416-244.026
	c-6.256-79.571,50.259-125.117,107.159-116.343c-48.845,39.066-80.166,99.126-80.166,166.534c0,29.376,5.945,57.365,16.692,82.83
	c-11.97,10.112-18.995,29.964-16.752,51.649c3.056,29.469,22.052,51.092,42.43,48.306c1.407-0.196,2.778-0.521,4.122-0.929
	c13.472,46.188,34.656,72.054,44.556,84.685c6.799,8.668,27.32,26.783,50.813,43.061v61.055c0,0-0.409,0.139-1.077,0.369
	l-0.921-0.369l-1.038,1.051c-18.437,6.492-115.813,42.139-139.3,78.838c-21.618,64.344-27.541,208.576-27.541,208.576h240.295
	h240.295C745.991,975.566,740.071,831.334,718.448,766.99z"/>
<g>
	<path fill="#90B2CC" d="M392.632,772.525c17.924,0,32.776,6.486,44.56,19.459c10.712,11.834,16.068,25.842,16.068,42.021
		c0,16.254-5.661,30.457-16.978,42.611c-11.319,12.154-25.87,18.229-43.65,18.229c-17.853,0-32.438-6.074-43.755-18.229
		c-11.319-12.154-16.978-26.357-16.978-42.611c0-16.107,5.354-30.08,16.066-41.914C359.749,779.047,374.638,772.525,392.632,772.525
		z M392.579,787.172c-12.446,0-23.143,4.6-32.084,13.795c-8.942,9.195-13.413,20.316-13.413,33.361
		c0,8.41,2.039,16.252,6.117,23.523c4.077,7.27,9.584,12.883,16.524,16.84c6.938,3.957,14.557,5.936,22.855,5.936
		c8.297,0,15.915-1.979,22.855-5.936c6.938-3.957,12.446-9.57,16.524-16.84c4.077-7.271,6.116-15.113,6.116-23.523
		c0-13.045-4.488-24.166-13.467-33.361S404.954,787.172,392.579,787.172z"/>
	<path fill="#90B2CC" d="M475.286,775.518h15.29v17.002c4.561-6.701,9.372-11.709,14.436-15.023
		c5.059-3.314,10.334-4.971,15.824-4.971c4.134,0,8.555,1.318,13.26,3.955l-7.807,12.619c-3.139-1.355-5.773-2.033-7.912-2.033
		c-4.991,0-9.803,2.051-14.436,6.148c-4.634,4.1-8.163,10.461-10.585,19.086c-1.854,6.629-2.78,20.031-2.78,40.203v39.35h-15.29
		V775.518z"/>
	<path fill="#90B2CC" d="M647.113,775.518h14.97v92.705c0,16.324-1.426,28.264-4.277,35.82
		c-3.92,10.691-10.729,18.926-20.421,24.697c-9.696,5.775-21.351,8.664-34.965,8.664c-9.981,0-18.944-1.416-26.893-4.236
		c-7.949-2.824-14.418-6.613-19.407-11.367c-4.989-4.756-9.587-11.709-13.794-20.859h16.254c4.423,7.699,10.134,13.4,17.128,17.107
		c6.993,3.707,15.667,5.561,26.015,5.561c10.204,0,18.823-1.9,25.854-5.699c7.031-3.803,12.044-8.582,15.042-14.334
		c2.996-5.756,4.494-15.045,4.494-27.869v-5.988c-5.637,7.131-12.523,12.6-20.657,16.414c-8.135,3.814-16.77,5.721-25.901,5.721
		c-10.704,0-20.766-2.654-30.185-7.967c-9.42-5.309-16.697-12.457-21.834-21.439c-5.138-8.98-7.706-18.854-7.706-29.617
		c0-10.762,2.675-20.797,8.027-30.1s12.755-16.662,22.21-22.08c9.454-5.416,19.427-8.125,29.915-8.125
		c8.704,0,16.821,1.801,24.351,5.398c7.528,3.602,14.789,9.535,21.78,17.803V775.518z M602.954,786.959
		c-8.483,0-16.359,2.051-23.631,6.148c-7.27,4.1-12.975,9.768-17.107,17.002c-4.135,7.234-6.202,15.059-6.202,23.471
		c0,12.76,4.277,23.309,12.831,31.648c8.555,8.342,19.638,12.51,33.255,12.51c13.755,0,24.821-4.133,33.199-12.402
		c8.376-8.268,12.563-19.141,12.563-32.613c0-8.768-1.924-16.59-5.772-23.471c-3.851-6.877-9.304-12.313-16.36-16.305
		C618.672,788.955,611.08,786.959,602.954,786.959z"/>
</g>
</svg>
