<?xml version="1.0" encoding="UTF-8" standalone="no"?>
<svg
   xmlns:dc="http://purl.org/dc/elements/1.1/"
   xmlns:cc="http://creativecommons.org/ns#"
   xmlns:rdf="http://www.w3.org/1999/02/22-rdf-syntax-ns#"
   xmlns:svg="http://www.w3.org/2000/svg"
   xmlns="http://www.w3.org/2000/svg"
   xml:space="preserve"
   enable-background="new 0 0 1000 1000"
   viewBox="0 0 1000 1000"
   height="1000px"
   width="1000px"
   y="0px"
   x="0px"
   id="Layer_1"
   version="1.1"><metadata
     id="metadata13"><rdf:RDF><cc:Work
         rdf:about=""><dc:format>image/svg+xml</dc:format><dc:type
           rdf:resource="http://purl.org/dc/dcmitype/StillImage" /><dc:title></dc:title></cc:Work></rdf:RDF></metadata><defs
     id="defs11" /><rect
     y="0"
     x="0"
     height="1000"
     width="1000"
     id="rect4498"
     style="fill:#90b2cc;fill-opacity:1;stroke:none;stroke-width:14.58329582;stroke-miterlimit:4;stroke-dasharray:none" /><path
     id="path6"
     d="M 743.78424,756.9973 C 707.79257,715.32546 653.72081,706.29278 604.30442,693.55899 H 578.761 v -82.96557 c 28.98334,-12.90442 55.05128,-28.50938 62.80636,-38.40256 11.11495,-14.18096 31.92296,-53.34185 44.32498,-112.89683 0.4529,0.0843 0.89948,0.17484 1.35553,0.23698 22.21305,3.03968 42.92206,-20.5447 46.25454,-52.68042 3.32616,-32.07779 -11.9249,-60.5524 -34.06843,-63.69846 7.70558,-23.86455 10.47036,-52.23068 -0.10533,-82.33573 -56.23829,-160.11194 7.64028,-188.693987 7.64028,-188.693987 0,0 -62.19548,-2.782687 -110.43855,37.150237 33.27007,-51.576605 48.24413,-64.891794 48.24413,-64.891794 0,0 -69.86841,-14.968792 -144.73133,61.559314 16.63398,-41.59285 36.59834,-62.743168 36.59834,-62.743168 0,0 -156.38659,1.183854 -212.95455,114.319778 -32.23051,64.4547 -34.73198,134.28097 -26.93898,187.07619 -18.94587,6.83981 -31.31418,33.05415 -28.28714,62.25552 3.32616,32.13466 24.04359,55.71904 46.25559,52.68041 0.45606,-0.0621 0.90369,-0.15272 1.35448,-0.23698 12.39886,59.55603 33.20792,98.71693 44.32709,112.89684 7.75613,9.89528 33.82829,25.50445 62.81689,38.40887 v 91.31363 c -0.48133,-2.73318 -0.74991,-5.51797 -0.74991,-8.35438 H 422.22063 395.7493 C 346.3329,706.29173 292.20532,715.32335 256.21471,756.9952 233.78996,782.95992 194.83866,1000 194.83866,1000 H 289.06453 500 710.93547 805.16239 c 0,0 -38.9513,-217.03797 -61.37815,-243.0027 z M 696.85878,342.91093 c -0.39918,-0.0211 -0.80047,-0.0295 -1.19754,-0.0327 0,-10e-4 0,-0.003 0,-0.004 0.39707,0.003 0.79836,0.0169 1.19754,0.0369 z m 2.4467,0.21803 c -0.62774,-0.0864 -1.25442,-0.1443 -1.88216,-0.18854 0.62669,0.0442 1.25442,0.10217 1.88216,0.18854 z m -393.00135,-0.24962 c -0.42235,0.003 -0.84681,0.0116 -1.27127,0.0337 0.42446,-0.0221 0.84892,-0.0326 1.27127,-0.0358 0,0 0,0.001 0,0.002 z m -5.21254,0.52241 c 0.51715,-0.10743 1.03851,-0.20012 1.56619,-0.27279 0.6014,-0.0832 1.20386,-0.13798 1.80316,-0.18011 -0.5993,0.0442 -1.20176,0.0979 -1.80316,0.18011 -0.52663,0.0716 -1.04588,0.17273 -1.56619,0.27279 z"
     style="fill:#475a6e;stroke-width:1.05325019" /></svg>