<?xml version="1.0" encoding="utf-8"?>
<!-- Generator: Adobe Illustrator 16.0.0, SVG Export Plug-In . SVG Version: 6.00 Build 0)  -->
<!DOCTYPE svg PUBLIC "-//W3C//DTD SVG 1.1//EN" "http://www.w3.org/Graphics/SVG/1.1/DTD/svg11.dtd">
<svg version="1.1" id="Layer_1" xmlns="http://www.w3.org/2000/svg" xmlns:xlink="http://www.w3.org/1999/xlink" x="0px" y="0px"
	 width="1000px" height="1000px" viewBox="0 0 1000 1000" enable-background="new 0 0 1000 1000" xml:space="preserve">
<g>
	<path opacity="0.5" fill="#475A70" d="M974.068,825.566c0,82.5-67.5,150-150,150H174.615c-82.5,0-150-67.5-150-150V174.615
		c0-82.5,67.5-150,150-150h649.454c82.5,0,150,67.5,150,150V825.566z"/>
</g>
<path fill="#475A6E" d="M731.459,744.848c-34.172-39.565-85.51-48.141-132.428-60.231h-24.252v-78.771
	c27.518-12.252,52.268-27.068,59.631-36.461c10.553-13.464,30.309-50.645,42.084-107.189c0.43,0.08,0.854,0.166,1.287,0.225
	c21.09,2.886,40.752-19.506,43.916-50.017c3.158-30.456-11.322-57.491-32.346-60.478c7.316-22.658,9.941-49.59-0.1-78.173
	c-53.395-152.017,7.254-179.154,7.254-179.154s-59.051-2.642-104.855,35.272c31.588-48.969,45.805-61.611,45.805-61.611
	s-66.336-14.212-137.414,58.447c15.793-39.49,34.748-59.571,34.748-59.571s-148.48,1.124-202.188,108.54
	C302,236.872,299.625,303.168,307.024,353.294c-17.988,6.494-29.731,31.383-26.857,59.108c3.158,30.51,22.828,52.902,43.917,50.017
	c0.433-0.059,0.858-0.145,1.286-0.225c11.772,56.545,31.529,93.726,42.086,107.189c7.364,9.395,32.118,24.215,59.641,36.467v86.697
	c-0.457-2.595-0.712-5.239-0.712-7.932h-0.232H401.02c-46.918,12.091-98.309,20.666-132.48,60.231
	c-21.291,24.652-58.273,230.719-58.273,230.719h89.462H500h200.271h89.463C789.734,975.566,752.752,769.5,731.459,744.848z
	 M686.906,351.697c-0.379-0.02-0.76-0.028-1.137-0.031c0-0.001,0-0.003,0-0.004C686.146,351.665,686.527,351.678,686.906,351.697z
	 M689.229,351.904c-0.596-0.082-1.191-0.137-1.787-0.179C688.037,351.767,688.633,351.822,689.229,351.904z M316.097,351.667
	c-0.401,0.003-0.804,0.011-1.207,0.032c0.403-0.021,0.806-0.031,1.207-0.034C316.097,351.665,316.097,351.666,316.097,351.667z
	 M311.148,352.163c0.491-0.102,0.986-0.19,1.487-0.259c0.571-0.079,1.143-0.131,1.712-0.171c-0.569,0.042-1.141,0.093-1.712,0.171
	C312.135,351.972,311.642,352.068,311.148,352.163z"/>
<g>
	<path fill="#C2C6D2" d="M395.641,772.447c17.924,0,32.776,6.487,44.56,19.46c10.712,11.833,16.068,25.841,16.068,42.021
		c0,16.253-5.661,30.457-16.978,42.61c-11.319,12.154-25.87,18.229-43.65,18.229c-17.853,0-32.438-6.075-43.755-18.229
		c-11.319-12.153-16.978-26.357-16.978-42.61c0-16.108,5.354-30.081,16.066-41.914C362.758,778.969,377.646,772.447,395.641,772.447
		z M395.588,787.095c-12.446,0-23.143,4.599-32.084,13.794c-8.942,9.195-13.413,20.316-13.413,33.361
		c0,8.411,2.039,16.253,6.117,23.524c4.077,7.27,9.584,12.883,16.524,16.839c6.938,3.957,14.557,5.936,22.855,5.936
		c8.297,0,15.915-1.979,22.855-5.936c6.938-3.956,12.446-9.569,16.524-16.839c4.077-7.271,6.116-15.113,6.116-23.524
		c0-13.045-4.488-24.166-13.467-33.361S407.963,787.095,395.588,787.095z"/>
	<path fill="#C2C6D2" d="M478.295,775.44h15.29v17.002c4.561-6.701,9.372-11.709,14.436-15.023
		c5.059-3.315,10.334-4.972,15.824-4.972c4.134,0,8.555,1.319,13.26,3.955l-7.807,12.619c-3.139-1.354-5.773-2.033-7.912-2.033
		c-4.991,0-9.803,2.051-14.436,6.149c-4.634,4.099-8.163,10.461-10.585,19.085c-1.854,6.629-2.78,20.031-2.78,40.204v39.349h-15.29
		V775.44z"/>
	<path fill="#C2C6D2" d="M650.122,775.44h14.97v92.704c0,16.325-1.426,28.264-4.277,35.82c-3.92,10.692-10.729,18.926-20.421,24.698
		c-9.696,5.774-21.351,8.663-34.965,8.663c-9.981,0-18.944-1.415-26.893-4.236c-7.949-2.824-14.418-6.613-19.407-11.367
		c-4.989-4.756-9.587-11.708-13.794-20.858h16.254c4.423,7.698,10.134,13.4,17.128,17.107c6.993,3.706,15.667,5.561,26.015,5.561
		c10.204,0,18.823-1.9,25.854-5.7c7.031-3.803,12.044-8.581,15.042-14.333c2.996-5.756,4.494-15.045,4.494-27.87v-5.987
		c-5.637,7.13-12.523,12.6-20.657,16.413c-8.135,3.814-16.77,5.721-25.901,5.721c-10.704,0-20.766-2.654-30.185-7.966
		c-9.42-5.31-16.697-12.457-21.834-21.439c-5.138-8.981-7.706-18.854-7.706-29.617c0-10.763,2.675-20.797,8.027-30.1
		s12.755-16.662,22.21-22.08c9.454-5.417,19.427-8.126,29.915-8.126c8.704,0,16.821,1.801,24.351,5.399
		c7.528,3.602,14.789,9.535,21.78,17.803V775.44z M605.963,786.882c-8.483,0-16.359,2.05-23.631,6.148
		c-7.27,4.1-12.975,9.767-17.107,17.001c-4.135,7.235-6.202,15.059-6.202,23.471c0,12.76,4.277,23.309,12.831,31.649
		c8.555,8.341,19.638,12.509,33.255,12.509c13.755,0,24.821-4.132,33.199-12.401c8.376-8.269,12.563-19.141,12.563-32.613
		c0-8.768-1.924-16.59-5.772-23.471c-3.851-6.878-9.304-12.313-16.36-16.306C621.681,788.878,614.089,786.882,605.963,786.882z"/>
</g>
</svg>
