<?xml version="1.0" encoding="utf-8"?>
<!-- Generator: Adobe Illustrator 16.0.0, SVG Export Plug-In . SVG Version: 6.00 Build 0)  -->
<!DOCTYPE svg PUBLIC "-//W3C//DTD SVG 1.1//EN" "http://www.w3.org/Graphics/SVG/1.1/DTD/svg11.dtd">
<svg version="1.1" id="Layer_1" xmlns="http://www.w3.org/2000/svg" xmlns:xlink="http://www.w3.org/1999/xlink" x="0px" y="0px"
	 width="1000px" height="1000px" viewBox="0 0 1000 1000" enable-background="new 0 0 1000 1000" xml:space="preserve">
<g>
	<path fill="#90B2CC" d="M974.089,825.601c0,82.5-67.5,150-150,150H174.646c-82.5,0-150-67.5-150-150V174.966
		c0-82.5,67.5-150,150-150h649.442c82.5,0,150,67.5,150,150V825.601z"/>
</g>
<path fill="#475A6D" d="M718.448,766.99c-23.487-36.705-120.887-72.357-139.304-78.838l-1.035-1.051l-0.19,0.078V625.65
	c23.252-16.172,43.504-34.063,50.247-42.664c9.911-12.648,31.143-38.563,44.618-84.875c1.505,0.492,3.044,0.9,4.633,1.119
	c20.376,2.786,39.369-18.837,42.418-48.306c2.25-21.685-4.778-41.54-16.748-51.651c10.75-25.465,16.692-53.451,16.692-82.828
	c0-117.736-95.44-213.182-213.177-213.182c-21.422,0-42.091,3.195-61.596,9.074C406.99,71.145,322.822,6.754,225.389,101.942
	c-132.945,129.896,20.72,370.46-59.38,408.339c87.425-11.309,108.986-135.082,100.416-244.026
	c-6.256-79.571,50.259-125.117,107.159-116.343c-48.845,39.066-80.166,99.126-80.166,166.534c0,29.376,5.945,57.365,16.692,82.83
	c-11.97,10.112-18.995,29.964-16.752,51.649c3.056,29.469,22.052,51.092,42.43,48.306c1.407-0.196,2.778-0.521,4.122-0.929
	c13.472,46.188,34.656,72.054,44.556,84.685c6.799,8.668,27.32,26.783,50.813,43.061v61.055c0,0-0.409,0.139-1.077,0.369
	l-0.921-0.369l-1.038,1.051c-18.437,6.492-115.813,42.139-139.3,78.838c-21.618,64.344-27.541,208.576-27.541,208.576h240.295
	h240.295C745.991,975.566,740.071,831.334,718.448,766.99z"/>
</svg>
