<?xml version="1.0" encoding="UTF-8" standalone="no"?>
<svg
   xmlns:dc="http://purl.org/dc/elements/1.1/"
   xmlns:cc="http://creativecommons.org/ns#"
   xmlns:rdf="http://www.w3.org/1999/02/22-rdf-syntax-ns#"
   xmlns:svg="http://www.w3.org/2000/svg"
   xmlns="http://www.w3.org/2000/svg"
   xml:space="preserve"
   enable-background="new 0 0 1000 1000"
   viewBox="0 0 1000 1000"
   height="1000px"
   width="1000px"
   y="0px"
   x="0px"
   id="Layer_1"
   version="1.1"><metadata
     id="metadata21"><rdf:RDF><cc:Work
         rdf:about=""><dc:format>image/svg+xml</dc:format><dc:type
           rdf:resource="http://purl.org/dc/dcmitype/StillImage" /><dc:title></dc:title></cc:Work></rdf:RDF></metadata><defs
     id="defs19" /><rect
     y="0"
     x="0"
     height="1000"
     width="1000"
     id="rect4523"
     style="fill:#90b2cc;fill-opacity:1;stroke:none;stroke-width:16.8966465;stroke-miterlimit:4;stroke-dasharray:none" /><g
     id="g4521"><path
       style="fill:#475a6e;stroke-width:1.05165517"
       d="M 743.41506,757.36527 C 707.4779,715.75653 653.48802,706.73753 604.14647,694.02302 h -25.50475 v -82.83993 c 28.93945,-12.88488 54.96792,-28.4662 62.71126,-38.3444 11.09811,-14.15948 31.87461,-53.26108 44.25785,-112.72587 0.45221,0.0841 0.89812,0.17458 1.35348,0.23662 22.17941,3.03508 42.85706,-20.51358 46.18449,-52.60063 3.32113,-32.02921 -11.90684,-60.46071 -34.01684,-63.60201 7.69391,-23.8284 10.45451,-52.15158 -0.10516,-82.21104 -56.15313,-159.86947 7.62871,-188.408235 7.62871,-188.408235 0,0 -62.1013,-2.778473 -110.27131,37.093985 33.21968,-51.498506 48.17107,-64.793531 48.17107,-64.793531 0,0 -69.7626,-14.946124 -144.51215,61.466091 16.60879,-41.529863 36.54291,-62.648151 36.54291,-62.648151 0,0 -156.14976,1.18206 -212.63206,114.146651 -32.1817,64.3571 -34.67938,134.07763 -26.89818,186.7929 -18.91718,6.82945 -31.26676,33.00409 -28.24431,62.16123 3.32113,32.086 24.00719,55.63467 46.18554,52.60064 0.45537,-0.062 0.90232,-0.15249 1.35243,-0.23662 12.38009,59.46584 33.15764,98.56743 44.25996,112.72587 7.74439,9.8803 33.77706,25.46583 62.72177,38.35071 v 91.17535 c -0.48061,-2.72905 -0.74878,-5.50962 -0.74878,-8.34173 h -0.24398 -26.43125 C 346.56561,706.73648 292.52,715.75443 256.58389,757.36316 234.1931,783.28857 195.30078,1000 195.30078,1000 H 289.38396 500 710.61604 804.70027 c 0,0 -38.89231,-216.70933 -61.28521,-242.63473 z m -46.85439,-413.4593 c -0.39858,-0.021 -0.79926,-0.0294 -1.19574,-0.0326 0,-0.001 0,-0.003 0,-0.004 0.39648,0.003 0.79716,0.0168 1.19574,0.0368 z m 2.44299,0.2177 c -0.62678,-0.0862 -1.25252,-0.14408 -1.87931,-0.18825 0.62574,0.0442 1.25253,0.10201 1.87931,0.18825 z m -392.40621,-0.24925 c -0.42171,0.003 -0.84553,0.0116 -1.26934,0.0337 0.42381,-0.0221 0.84763,-0.0326 1.26934,-0.0358 0,0 0,10e-4 0,0.002 z m -5.20464,0.52163 c 0.51636,-0.10727 1.03693,-0.19982 1.56381,-0.27238 0.6005,-0.0831 1.20205,-0.13777 1.80044,-0.17984 -0.59839,0.0442 -1.19994,0.0978 -1.80044,0.17984 -0.52582,0.0715 -1.04429,0.17247 -1.56381,0.27238 z"
       id="path6" /><g
       id="g14"
       transform="matrix(1.0516552,0,0,1.0516552,-25.8276,-25.958005)"><path
         style="fill:#90b2cc"
         d="m 395.641,772.447 c 17.924,0 32.776,6.487 44.56,19.46 10.712,11.833 16.068,25.841 16.068,42.021 0,16.253 -5.661,30.457 -16.978,42.61 -11.319,12.154 -25.87,18.229 -43.65,18.229 -17.853,0 -32.438,-6.075 -43.755,-18.229 -11.319,-12.153 -16.978,-26.357 -16.978,-42.61 0,-16.108 5.354,-30.081 16.066,-41.914 11.784,-13.045 26.672,-19.567 44.667,-19.567 z m -0.053,14.648 c -12.446,0 -23.143,4.599 -32.084,13.794 -8.942,9.195 -13.413,20.316 -13.413,33.361 0,8.411 2.039,16.253 6.117,23.524 4.077,7.27 9.584,12.883 16.524,16.839 6.938,3.957 14.557,5.936 22.855,5.936 8.297,0 15.915,-1.979 22.855,-5.936 6.938,-3.956 12.446,-9.569 16.524,-16.839 4.077,-7.271 6.116,-15.113 6.116,-23.524 0,-13.045 -4.488,-24.166 -13.467,-33.361 -8.979,-9.195 -19.652,-13.794 -32.027,-13.794 z"
         id="path8" /><path
         style="fill:#90b2cc"
         d="m 478.295,775.44 h 15.29 v 17.002 c 4.561,-6.701 9.372,-11.709 14.436,-15.023 5.059,-3.315 10.334,-4.972 15.824,-4.972 4.134,0 8.555,1.319 13.26,3.955 l -7.807,12.619 c -3.139,-1.354 -5.773,-2.033 -7.912,-2.033 -4.991,0 -9.803,2.051 -14.436,6.149 -4.634,4.099 -8.163,10.461 -10.585,19.085 -1.854,6.629 -2.78,20.031 -2.78,40.204 v 39.349 h -15.29 z"
         id="path10" /><path
         style="fill:#90b2cc"
         d="m 650.122,775.44 h 14.97 v 92.704 c 0,16.325 -1.426,28.264 -4.277,35.82 -3.92,10.692 -10.729,18.926 -20.421,24.698 -9.696,5.774 -21.351,8.663 -34.965,8.663 -9.981,0 -18.944,-1.415 -26.893,-4.236 -7.949,-2.824 -14.418,-6.613 -19.407,-11.367 -4.989,-4.756 -9.587,-11.708 -13.794,-20.858 h 16.254 c 4.423,7.698 10.134,13.4 17.128,17.107 6.993,3.706 15.667,5.561 26.015,5.561 10.204,0 18.823,-1.9 25.854,-5.7 7.031,-3.803 12.044,-8.581 15.042,-14.333 2.996,-5.756 4.494,-15.045 4.494,-27.87 v -5.987 c -5.637,7.13 -12.523,12.6 -20.657,16.413 -8.135,3.814 -16.77,5.721 -25.901,5.721 -10.704,0 -20.766,-2.654 -30.185,-7.966 -9.42,-5.31 -16.697,-12.457 -21.834,-21.439 -5.138,-8.981 -7.706,-18.854 -7.706,-29.617 0,-10.763 2.675,-20.797 8.027,-30.1 5.352,-9.303 12.755,-16.662 22.21,-22.08 9.454,-5.417 19.427,-8.126 29.915,-8.126 8.704,0 16.821,1.801 24.351,5.399 7.528,3.602 14.789,9.535 21.78,17.803 z m -44.159,11.442 c -8.483,0 -16.359,2.05 -23.631,6.148 -7.27,4.1 -12.975,9.767 -17.107,17.001 -4.135,7.235 -6.202,15.059 -6.202,23.471 0,12.76 4.277,23.309 12.831,31.649 8.555,8.341 19.638,12.509 33.255,12.509 13.755,0 24.821,-4.132 33.199,-12.401 8.376,-8.269 12.563,-19.141 12.563,-32.613 0,-8.768 -1.924,-16.59 -5.772,-23.471 -3.851,-6.878 -9.304,-12.313 -16.36,-16.306 -7.058,-3.991 -14.65,-5.987 -22.776,-5.987 z"
         id="path12" /></g></g></svg>