<?xml version="1.0" encoding="UTF-8" standalone="no"?>
<svg
   xmlns:dc="http://purl.org/dc/elements/1.1/"
   xmlns:cc="http://creativecommons.org/ns#"
   xmlns:rdf="http://www.w3.org/1999/02/22-rdf-syntax-ns#"
   xmlns:svg="http://www.w3.org/2000/svg"
   xmlns="http://www.w3.org/2000/svg"
   xml:space="preserve"
   enable-background="new 0 0 1000 1000"
   viewBox="0 0 1000 1000"
   height="1000px"
   width="1000px"
   y="0px"
   x="0px"
   id="Layer_1"
   version="1.1"><metadata
     id="metadata21"><rdf:RDF><cc:Work
         rdf:about=""><dc:format>image/svg+xml</dc:format><dc:type
           rdf:resource="http://purl.org/dc/dcmitype/StillImage" /><dc:title></dc:title></cc:Work></rdf:RDF></metadata><defs
     id="defs19" /><rect
     y="0"
     x="0"
     height="1000"
     width="1000"
     id="rect4516"
     style="fill:#90b2cc;fill-opacity:1;stroke:none;stroke-width:7.65701723;stroke-miterlimit:4;stroke-dasharray:none" /><path
     id="path6"
     d="M 730.457,780.59088 C 705.75036,741.97985 603.29253,704.4765 583.91917,697.65895 l -1.08875,-1.10558 -0.19987,0.082 v -64.7241 c 24.45944,-17.01178 45.7631,-35.83184 52.85625,-44.87947 10.42566,-13.30479 32.76021,-40.56552 46.93494,-89.28242 1.58315,0.51754 3.20207,0.94673 4.87359,1.1771 21.43409,2.93068 41.41337,-19.81517 44.62069,-50.81445 2.36684,-22.81107 -5.02611,-43.69711 -17.61769,-54.33315 11.30823,-26.78736 17.55879,-56.22663 17.55879,-87.12913 0,-123.84984 -100.39605,-224.2522 -224.24694,-224.2522 -22.53441,0 -44.27672,3.360912 -64.79459,9.545199 C 402.82548,48.611764 314.28677,-19.122958 211.79424,81.008003 71.945614,217.64929 233.59019,470.7054 149.33073,510.55139 241.29557,498.65514 263.9762,368.4548 254.96117,253.85351 c -6.58087,-83.70299 52.86887,-131.61412 112.72359,-122.3845 -51.38144,41.09463 -84.32889,104.27345 -84.32889,175.18184 0,30.90145 6.25372,60.34388 17.55879,87.13123 -12.59158,10.6371 -19.98138,31.51998 -17.6219,54.33105 3.21469,30.99928 23.19712,53.74513 44.63332,50.81446 1.48006,-0.20618 2.92226,-0.54806 4.33605,-0.97725 14.17158,48.58647 36.45563,75.79565 46.86972,89.08256 7.15206,9.11812 28.73868,28.1738 53.45164,45.29709 v 64.22549 c 0,0 -0.43024,0.14622 -1.13293,0.38816 l -0.96883,-0.38816 -1.0919,1.10557 c -19.3944,6.82912 -121.82698,44.32722 -146.53362,82.93194 C 260.11562,848.27827 253.88505,1000 253.88505,1000 h 252.77313 252.77314 c -10e-4,-0.002 -6.22847,-151.72384 -28.97432,-219.40912 z"
     style="fill:#475a6d;stroke-width:1.0519284" /><g
     transform="matrix(1.0519284,0,0,1.0519284,-25.298855,-26.262422)"
     id="g14"><path
       id="path8"
       d="m 392.632,772.525 c 17.924,0 32.776,6.486 44.56,19.459 10.712,11.834 16.068,25.842 16.068,42.021 0,16.254 -5.661,30.457 -16.978,42.611 -11.319,12.154 -25.87,18.229 -43.65,18.229 -17.853,0 -32.438,-6.074 -43.755,-18.229 -11.319,-12.154 -16.978,-26.357 -16.978,-42.611 0,-16.107 5.354,-30.08 16.066,-41.914 11.784,-13.044 26.673,-19.566 44.667,-19.566 z m -0.053,14.647 c -12.446,0 -23.143,4.6 -32.084,13.795 -8.942,9.195 -13.413,20.316 -13.413,33.361 0,8.41 2.039,16.252 6.117,23.523 4.077,7.27 9.584,12.883 16.524,16.84 6.938,3.957 14.557,5.936 22.855,5.936 8.297,0 15.915,-1.979 22.855,-5.936 6.938,-3.957 12.446,-9.57 16.524,-16.84 4.077,-7.271 6.116,-15.113 6.116,-23.523 0,-13.045 -4.488,-24.166 -13.467,-33.361 -8.979,-9.195 -19.652,-13.795 -32.027,-13.795 z"
       style="fill:#90b2cc" /><path
       id="path10"
       d="m 475.286,775.518 h 15.29 v 17.002 c 4.561,-6.701 9.372,-11.709 14.436,-15.023 5.059,-3.314 10.334,-4.971 15.824,-4.971 4.134,0 8.555,1.318 13.26,3.955 l -7.807,12.619 c -3.139,-1.355 -5.773,-2.033 -7.912,-2.033 -4.991,0 -9.803,2.051 -14.436,6.148 -4.634,4.1 -8.163,10.461 -10.585,19.086 -1.854,6.629 -2.78,20.031 -2.78,40.203 v 39.35 h -15.29 z"
       style="fill:#90b2cc" /><path
       id="path12"
       d="m 647.113,775.518 h 14.97 v 92.705 c 0,16.324 -1.426,28.264 -4.277,35.82 -3.92,10.691 -10.729,18.926 -20.421,24.697 -9.696,5.775 -21.351,8.664 -34.965,8.664 -9.981,0 -18.944,-1.416 -26.893,-4.236 -7.949,-2.824 -14.418,-6.613 -19.407,-11.367 -4.989,-4.756 -9.587,-11.709 -13.794,-20.859 h 16.254 c 4.423,7.699 10.134,13.4 17.128,17.107 6.993,3.707 15.667,5.561 26.015,5.561 10.204,0 18.823,-1.9 25.854,-5.699 7.031,-3.803 12.044,-8.582 15.042,-14.334 2.996,-5.756 4.494,-15.045 4.494,-27.869 v -5.988 c -5.637,7.131 -12.523,12.6 -20.657,16.414 -8.135,3.814 -16.77,5.721 -25.901,5.721 -10.704,0 -20.766,-2.654 -30.185,-7.967 -9.42,-5.309 -16.697,-12.457 -21.834,-21.439 -5.138,-8.98 -7.706,-18.854 -7.706,-29.617 0,-10.762 2.675,-20.797 8.027,-30.1 5.352,-9.303 12.755,-16.662 22.21,-22.08 9.454,-5.416 19.427,-8.125 29.915,-8.125 8.704,0 16.821,1.801 24.351,5.398 7.528,3.602 14.789,9.535 21.78,17.803 z m -44.159,11.441 c -8.483,0 -16.359,2.051 -23.631,6.148 -7.27,4.1 -12.975,9.768 -17.107,17.002 -4.135,7.234 -6.202,15.059 -6.202,23.471 0,12.76 4.277,23.309 12.831,31.648 8.555,8.342 19.638,12.51 33.255,12.51 13.755,0 24.821,-4.133 33.199,-12.402 8.376,-8.268 12.563,-19.141 12.563,-32.613 0,-8.768 -1.924,-16.59 -5.772,-23.471 -3.851,-6.877 -9.304,-12.313 -16.36,-16.305 -7.058,-3.992 -14.65,-5.988 -22.776,-5.988 z"
       style="fill:#90b2cc" /></g></svg>