<?xml version="1.0" encoding="UTF-8" standalone="no"?>
<svg
   xmlns:dc="http://purl.org/dc/elements/1.1/"
   xmlns:cc="http://creativecommons.org/ns#"
   xmlns:rdf="http://www.w3.org/1999/02/22-rdf-syntax-ns#"
   xmlns:svg="http://www.w3.org/2000/svg"
   xmlns="http://www.w3.org/2000/svg"
   xml:space="preserve"
   enable-background="new 0 0 1000 1000"
   viewBox="0 0 1000 1000"
   height="1000px"
   width="1000px"
   y="0px"
   x="0px"
   id="Layer_1"
   version="1.1"><metadata
     id="metadata25"><rdf:RDF><cc:Work
         rdf:about=""><dc:format>image/svg+xml</dc:format><dc:type
           rdf:resource="http://purl.org/dc/dcmitype/StillImage" /><dc:title></dc:title></cc:Work></rdf:RDF></metadata><defs
     id="defs23" /><g
     id="layer1"><rect
       y="0"
       x="0"
       height="1000"
       width="1000"
       id="rect30"
       style="fill:#90b2cc;fill-opacity:1;stroke:none;stroke-width:13.41950989;stroke-miterlimit:4;stroke-dasharray:none" /></g><g
     id="layer2"><g
       style=""
       id="g18"><g
         id="g14"><g
           id="g8"><path
             fill="#475A6F"
             id="path6"
             d="M231.143,353.798c22.177,0,40.312-18.117,40.312-40.293v-1.74c0-22.193,18.135-40.311,40.293-40.311     h376.47c22.177,0,40.311,18.117,40.311,40.311v1.74c0,22.177,18.1,40.293,40.277,40.293h26.955     c22.177,0,40.311-18.117,40.311-40.293V204.223c0-22.159-18.134-40.294-40.311-40.294H204.223     c-22.159,0-40.294,18.135-40.294,40.294v109.282c0,22.177,18.135,40.293,40.294,40.293H231.143z" /></g><g
           id="g12"><path
             fill="#475A6F"
             id="path10"
             d="M768.806,646.186c-22.178,0-40.277,18.134-40.277,40.311v1.722c0,22.177-18.134,40.311-40.311,40.311     h-376.47c-22.158,0-40.293-18.134-40.293-40.311v-1.722c0-22.177-18.135-40.311-40.312-40.311h-26.92     c-22.159,0-40.294,18.134-40.294,40.311v109.282c0,22.159,18.135,40.293,40.294,40.293h591.538     c22.177,0,40.311-18.134,40.311-40.293V686.496c0-22.177-18.134-40.311-40.311-40.311H768.806z" /></g></g><path
         fill="#475A6F"
         id="path16"
         d="M661.174,513.461c0,22.158-18.134,40.293-40.311,40.293H379.138c-22.167,0-40.302-18.135-40.302-40.293   v-26.956c0-22.159,18.135-40.293,40.302-40.293h241.726c22.177,0,40.311,18.135,40.311,40.293V513.461z" /></g></g></svg>