<?xml version="1.0" encoding="utf-8"?>
<!-- Generator: Adobe Illustrator 16.0.0, SVG Export Plug-In . SVG Version: 6.00 Build 0)  -->
<!DOCTYPE svg PUBLIC "-//W3C//DTD SVG 1.1//EN" "http://www.w3.org/Graphics/SVG/1.1/DTD/svg11.dtd">
<svg version="1.1" id="Layer_1" xmlns="http://www.w3.org/2000/svg" xmlns:xlink="http://www.w3.org/1999/xlink" x="0px" y="0px"
	 width="1000px" height="1000px" viewBox="0 0 1000 1000" enable-background="new 0 0 1000 1000" xml:space="preserve">
<g>
	<path fill="#90B2CC" d="M974.721,825.317c0,82.5-67.5,150-150,150H175.279c-82.5,0-150-67.5-150-150V174.683
		c0-82.5,67.5-150,150-150h649.441c82.5,0,150,67.5,150,150V825.317z"/>
</g>
<g>
	<g>
		<g>
			<path fill="#475A6F" d="M231.143,353.798c22.177,0,40.312-18.117,40.312-40.293v-1.74c0-22.193,18.135-40.311,40.293-40.311
				h376.47c22.177,0,40.311,18.117,40.311,40.311v1.74c0,22.177,18.1,40.293,40.277,40.293h26.955
				c22.177,0,40.311-18.117,40.311-40.293V204.223c0-22.159-18.134-40.294-40.311-40.294H204.223
				c-22.159,0-40.294,18.135-40.294,40.294v109.282c0,22.177,18.135,40.293,40.294,40.293H231.143z"/>
		</g>
		<g>
			<path fill="#475A6F" d="M768.806,646.186c-22.178,0-40.277,18.134-40.277,40.311v1.722c0,22.177-18.134,40.311-40.311,40.311
				h-376.47c-22.158,0-40.293-18.134-40.293-40.311v-1.722c0-22.177-18.135-40.311-40.312-40.311h-26.92
				c-22.159,0-40.294,18.134-40.294,40.311v109.282c0,22.159,18.135,40.293,40.294,40.293h591.538
				c22.177,0,40.311-18.134,40.311-40.293V686.496c0-22.177-18.134-40.311-40.311-40.311H768.806z"/>
		</g>
	</g>
	<path fill="#475A6F" d="M661.174,513.461c0,22.158-18.134,40.293-40.311,40.293H379.138c-22.167,0-40.302-18.135-40.302-40.293
		v-26.956c0-22.159,18.135-40.293,40.302-40.293h241.726c22.177,0,40.311,18.135,40.311,40.293V513.461z"/>
</g>
</svg>
