<?xml version="1.0" encoding="utf-8"?>
<!-- Generator: Adobe Illustrator 16.0.0, SVG Export Plug-In . SVG Version: 6.00 Build 0)  -->
<!DOCTYPE svg PUBLIC "-//W3C//DTD SVG 1.1//EN" "http://www.w3.org/Graphics/SVG/1.1/DTD/svg11.dtd">
<svg version="1.1" id="Layer_1" xmlns="http://www.w3.org/2000/svg" xmlns:xlink="http://www.w3.org/1999/xlink" x="0px" y="0px"
	 width="1000px" height="1000px" viewBox="0 0 1000 1000" enable-background="new 0 0 1000 1000" xml:space="preserve">
<circle fill="#7A0511" cx="500" cy="502.999" r="473.937"/>
<circle fill="#D22333" cx="500" cy="500" r="418.439"/>
<circle fill="none" cx="500" cy="500" r="329"/>
<text transform="matrix(0.2934 -0.956 0.956 0.2934 179.4668 422.7656)" display="none" opacity="0.9"><tspan x="0" y="0" display="inline" fill="#FFFFFF" font-family="'Calibri-Bold'" font-size="85">Z</tspan><tspan x="40.983" y="0.458" display="inline" fill="#FFFFFF" font-family="'Calibri-Bold'" font-size="85" rotate="5.613">í</tspan><tspan x="63.989" y="2.313" display="inline" fill="#FFFFFF" font-family="'Calibri-Bold'" font-size="85" rotate="11.175">s</tspan><tspan x="103.422" y="9.893" display="inline" fill="#FFFFFF" font-family="'Calibri-Bold'" font-size="85" rotate="18.7">k</tspan><tspan x="147.313" y="24.92" display="inline" fill="#FFFFFF" font-family="'Calibri-Bold'" font-size="85" rotate="26.295">e</tspan><tspan x="184.543" y="43.725" display="inline" fill="#FFFFFF" font-family="'Calibri-Bold'" font-size="85" rotate="32.36">j</tspan><tspan x="208.791" y="59.313" display="inline" fill="#FFFFFF" font-family="'Calibri-Bold'" font-size="85" rotate="36.582"> </tspan><tspan x="224.962" y="70.307" display="inline" fill="#FFFFFF" font-family="'Calibri-Bold'" font-size="85" rotate="42.666">v</tspan><tspan x="261.593" y="104.525" display="inline" fill="#FFFFFF" font-family="'Calibri-Bold'" font-size="85" rotate="50.539">Š</tspan><tspan x="287.172" y="135.537" display="inline" fill="#FFFFFF" font-family="'Calibri-Bold'" font-size="85" rotate="57.697">e</tspan><tspan x="309.394" y="170.466" display="inline" fill="#FFFFFF" font-family="'Calibri-Bold'" font-size="85" rotate="65.238">c</tspan><tspan x="328.528" y="210.976" display="inline" fill="#FFFFFF" font-family="'Calibri-Bold'" font-size="85" rotate="73.868">h</tspan><tspan x="343.534" y="262.019" display="inline" fill="#FFFFFF" font-family="'Calibri-Bold'" font-size="85" rotate="83.078">n</tspan><tspan x="349.822" y="317.292" display="inline" fill="#FFFFFF" font-family="'Calibri-Bold'" font-size="85" rotate="91.784">y</tspan><tspan x="347.805" y="361.772" display="inline" fill="#FFFFFF" font-family="'Calibri-Bold'" font-size="85" rotate="97.405"> </tspan><tspan x="345.788" y="381.328" display="inline" fill="#FFFFFF" font-family="'Calibri-Bold'" font-size="85" rotate="102.828">T</tspan><tspan x="336.661" y="422.311" display="inline" fill="#FFFFFF" font-family="'Calibri-Bold'" font-size="85" rotate="110.614">r</tspan><tspan x="320.311" y="466.931" display="inline" fill="#FFFFFF" font-family="'Calibri-Bold'" font-size="85" rotate="119.652">o</tspan><tspan x="291.441" y="516.329" display="inline" fill="#FFFFFF" font-family="'Calibri-Bold'" font-size="85" rotate="127.962">f</tspan><tspan x="267.443" y="547.205" display="inline" fill="#FFFFFF" font-family="'Calibri-Bold'" font-size="85" rotate="134.975">e</tspan><tspan x="237.73" y="576.426" display="inline" fill="#FFFFFF" font-family="'Calibri-Bold'" font-size="85" rotate="141.1">j</tspan><tspan x="215.834" y="594.535" display="inline" fill="#FFFFFF" font-family="'Calibri-Bold'" font-size="85" rotate="147.246">e</tspan></text>
<g opacity="0.9">
	<path fill="#FFFFFF" d="M187.207,383.098c0.767,0.239,1.403,0.474,1.911,0.704c0.508,0.231,0.906,0.463,1.195,0.698
		c0.289,0.235,0.469,0.472,0.539,0.711c0.071,0.239,0.069,0.478-0.005,0.715l-9.414,30.236c-0.329,1.057-0.885,1.775-1.67,2.153
		c-0.784,0.379-1.757,0.387-2.92,0.025l-1.744-0.543c-0.528-0.165-1-0.348-1.416-0.549c-0.416-0.202-0.823-0.452-1.223-0.75
		c-0.4-0.298-0.816-0.681-1.25-1.15c-0.434-0.468-0.951-1.042-1.55-1.722l-25.35-29.714l-6.145,19.734
		c-0.099,0.317-0.255,0.565-0.471,0.745c-0.215,0.18-0.504,0.292-0.866,0.339c-0.362,0.047-0.817,0.021-1.367-0.078
		c-0.549-0.098-1.193-0.263-1.933-0.493c-0.792-0.247-1.449-0.487-1.97-0.722c-0.521-0.234-0.924-0.476-1.209-0.724
		c-0.285-0.248-0.458-0.504-0.521-0.771c-0.062-0.265-0.044-0.557,0.055-0.874l8.822-28.334c0.337-1.083,0.863-1.796,1.579-2.138
		c0.715-0.342,1.575-0.357,2.579-0.045l1.941,0.604c0.713,0.222,1.317,0.447,1.812,0.673c0.495,0.227,0.959,0.502,1.395,0.826
		c0.436,0.324,0.865,0.711,1.29,1.162c0.425,0.452,0.924,1.013,1.498,1.684l25.012,29.261l6.675-21.438
		c0.156-0.501,0.592-0.786,1.309-0.853C184.511,382.403,185.648,382.612,187.207,383.098z"/>
	<path fill="#FFFFFF" d="M134.993,343.143c-0.243-0.492-0.411-0.946-0.506-1.362c-0.095-0.416-0.111-0.873-0.05-1.373
		c0.061-0.5,0.207-1.076,0.438-1.73c0.23-0.653,0.545-1.451,0.944-2.395c0.495-1.172,0.957-2.051,1.384-2.637
		c0.428-0.585,0.813-0.947,1.158-1.087c0.345-0.14,0.643-0.082,0.895,0.175c0.252,0.257,0.469,0.634,0.649,1.13l4.06,11.718
		c0.122,0.352,0.209,0.696,0.262,1.034c0.053,0.337,0.055,0.722,0.009,1.152c-0.047,0.431-0.158,0.925-0.333,1.481
		c-0.175,0.557-0.43,1.23-0.764,2.021c-0.366,0.867-0.698,1.545-0.995,2.035c-0.297,0.49-0.574,0.809-0.832,0.955
		c-0.257,0.147-0.502,0.141-0.736-0.018c-0.233-0.158-0.463-0.466-0.691-0.923L134.993,343.143z M197.562,366.425
		c0.255,0.108,0.45,0.288,0.583,0.54c0.134,0.252,0.184,0.596,0.149,1.032c-0.034,0.437-0.147,0.989-0.34,1.659
		c-0.193,0.669-0.5,1.501-0.919,2.495c-0.409,0.969-0.789,1.762-1.14,2.379s-0.671,1.091-0.96,1.419
		c-0.289,0.329-0.57,0.533-0.844,0.612c-0.274,0.08-0.538,0.065-0.793-0.042l-46.719-19.739c-0.255-0.107-0.449-0.287-0.583-0.54
		c-0.134-0.251-0.181-0.602-0.142-1.051c0.04-0.449,0.156-1.008,0.349-1.678c0.192-0.669,0.494-1.488,0.903-2.457
		c0.42-0.994,0.803-1.793,1.148-2.398c0.346-0.604,0.663-1.071,0.952-1.4c0.289-0.328,0.57-0.532,0.844-0.612
		c0.274-0.079,0.539-0.065,0.793,0.042L197.562,366.425z"/>
	<path fill="#FFFFFF" d="M204.805,320.279c2.481,1.345,4.408,2.988,5.78,4.927c1.372,1.94,2.255,4.04,2.651,6.3
		c0.396,2.261,0.336,4.62-0.179,7.079s-1.425,4.893-2.73,7.301c-0.884,1.63-1.838,3.071-2.864,4.325
		c-1.026,1.254-2.017,2.314-2.975,3.179c-0.957,0.867-1.837,1.546-2.64,2.039c-0.802,0.494-1.448,0.813-1.935,0.958
		c-0.488,0.145-1.066,0.123-1.734-0.067c-0.668-0.189-1.562-0.587-2.681-1.194c-0.754-0.409-1.374-0.776-1.858-1.102
		s-0.855-0.629-1.112-0.91c-0.256-0.281-0.403-0.549-0.438-0.804s0.013-0.504,0.146-0.748c0.185-0.34,0.646-0.712,1.383-1.115
		c0.737-0.403,1.613-0.958,2.627-1.668c1.014-0.708,2.087-1.63,3.221-2.763c1.133-1.132,2.181-2.586,3.144-4.362
		c0.633-1.168,1.06-2.289,1.281-3.366c0.222-1.076,0.251-2.074,0.09-2.996c-0.162-0.921-0.527-1.756-1.097-2.506
		c-0.569-0.749-1.316-1.375-2.24-1.875c-1.07-0.581-2.147-0.786-3.229-0.618c-1.083,0.168-2.176,0.56-3.28,1.173
		c-1.104,0.614-2.24,1.375-3.409,2.283c-1.169,0.909-2.389,1.837-3.658,2.785c-1.27,0.949-2.598,1.818-3.986,2.607
		c-1.388,0.79-2.853,1.373-4.394,1.749c-1.542,0.376-3.176,0.474-4.903,0.292c-1.727-0.181-3.576-0.806-5.546-1.874
		c-2.262-1.227-4.023-2.724-5.283-4.493c-1.26-1.769-2.07-3.671-2.43-5.708c-0.359-2.036-0.294-4.172,0.194-6.41
		c0.489-2.237,1.32-4.438,2.494-6.603c0.606-1.119,1.298-2.191,2.075-3.218c0.777-1.026,1.575-1.947,2.395-2.762
		c0.819-0.814,1.616-1.5,2.389-2.057c0.774-0.556,1.349-0.89,1.724-1.001c0.375-0.111,0.671-0.163,0.887-0.156
		c0.216,0.008,0.481,0.057,0.793,0.147c0.313,0.091,0.689,0.24,1.127,0.446c0.439,0.207,0.975,0.481,1.607,0.824
		c0.706,0.383,1.292,0.724,1.758,1.024c0.467,0.3,0.835,0.579,1.105,0.835c0.27,0.257,0.435,0.503,0.496,0.741
		c0.06,0.237,0.018,0.49-0.127,0.757c-0.145,0.268-0.545,0.602-1.203,1c-0.657,0.399-1.417,0.916-2.28,1.549
		c-0.863,0.634-1.762,1.421-2.697,2.362c-0.935,0.941-1.765,2.081-2.49,3.418c-0.567,1.046-0.934,2.027-1.101,2.944
		c-0.167,0.917-0.167,1.759,0,2.526c0.167,0.768,0.497,1.45,0.991,2.048c0.494,0.599,1.094,1.089,1.799,1.471
		c1.046,0.567,2.107,0.772,3.183,0.616s2.173-0.553,3.29-1.191c1.117-0.638,2.267-1.423,3.449-2.356
		c1.183-0.932,2.408-1.873,3.678-2.822c1.27-0.948,2.605-1.829,4.006-2.644c1.401-0.813,2.876-1.415,4.424-1.803
		c1.548-0.388,3.18-0.495,4.895-0.321C201.102,318.649,202.908,319.251,204.805,320.279z"/>
	<path fill="#FFFFFF" d="M245.129,288.27c0.247,0.179,0.42,0.399,0.521,0.66c0.101,0.262,0.087,0.611-0.042,1.047
		c-0.129,0.437-0.379,0.981-0.751,1.635c-0.372,0.653-0.891,1.439-1.558,2.356c-1.057,1.456-1.873,2.461-2.448,3.018
		c-0.575,0.557-1.076,0.894-1.503,1.011c-0.427,0.118-0.854,0.141-1.282,0.07l-30.155-1.843l20.62,14.974
		c0.247,0.179,0.41,0.4,0.492,0.665c0.082,0.265,0.062,0.61-0.059,1.035c-0.121,0.425-0.351,0.942-0.69,1.551
		c-0.339,0.608-0.826,1.349-1.46,2.222c-0.618,0.851-1.167,1.538-1.649,2.06s-0.906,0.906-1.273,1.153
		c-0.367,0.247-0.693,0.377-0.978,0.393c-0.285,0.016-0.55-0.066-0.796-0.245l-40.938-29.729c-0.246-0.179-0.406-0.405-0.479-0.682
		c-0.073-0.275-0.044-0.622,0.088-1.039c0.132-0.417,0.372-0.936,0.719-1.555c0.347-0.62,0.83-1.354,1.448-2.206
		c0.634-0.873,1.188-1.565,1.662-2.076c0.473-0.511,0.888-0.894,1.244-1.148s0.672-0.384,0.949-0.388s0.538,0.083,0.784,0.262
		l18.504,13.438l-9.228-26.141c-0.177-0.368-0.279-0.733-0.307-1.095c-0.028-0.361,0.033-0.763,0.181-1.203
		c0.148-0.439,0.403-0.955,0.765-1.547c0.362-0.592,0.859-1.325,1.494-2.198c0.65-0.895,1.22-1.609,1.71-2.143
		c0.49-0.533,0.922-0.928,1.297-1.187c0.375-0.257,0.701-0.389,0.978-0.393c0.277-0.004,0.527,0.075,0.75,0.238
		c0.381,0.276,0.699,0.662,0.956,1.156s0.618,1.338,1.085,2.532l6.958,23.262l29.084,1.27c1.276,0.175,2.101,0.321,2.477,0.439
		S244.95,288.14,245.129,288.27z"/>
	<path fill="#FFFFFF" d="M270.248,257.982c0.582,0.554,1.043,1.041,1.387,1.463c0.343,0.422,0.587,0.798,0.732,1.127
		c0.145,0.33,0.202,0.622,0.168,0.876c-0.033,0.255-0.135,0.473-0.307,0.653l-18.599,19.541c-0.629,0.662-1.354,1.032-2.174,1.111
		c-0.82,0.079-1.671-0.301-2.553-1.141l-33.911-32.277c-0.882-0.839-1.304-1.67-1.265-2.493c0.038-0.823,0.372-1.565,1.001-2.227
		l18.485-19.421c0.171-0.18,0.374-0.292,0.608-0.338c0.234-0.044,0.523,0.002,0.87,0.14c0.346,0.139,0.738,0.368,1.176,0.69
		c0.438,0.322,0.958,0.769,1.56,1.341c0.561,0.534,1.013,1.013,1.356,1.435c0.343,0.422,0.587,0.798,0.732,1.127
		c0.145,0.329,0.206,0.617,0.183,0.861c-0.023,0.246-0.121,0.458-0.292,0.638l-13.22,13.889l9.5,9.042l11.188-11.755
		c0.172-0.18,0.384-0.293,0.637-0.339c0.254-0.045,0.543-0.008,0.869,0.111c0.326,0.12,0.708,0.34,1.146,0.662
		c0.438,0.322,0.938,0.75,1.5,1.284c0.582,0.553,1.039,1.037,1.372,1.449c0.333,0.413,0.567,0.779,0.702,1.098
		c0.135,0.32,0.181,0.602,0.138,0.848c-0.042,0.246-0.15,0.459-0.322,0.639l-11.188,11.755l10.973,10.444l13.334-14.01
		c0.172-0.18,0.385-0.293,0.638-0.338c0.253-0.045,0.547-0.003,0.884,0.125c0.335,0.129,0.723,0.354,1.162,0.676
		C269.156,256.992,269.667,257.429,270.248,257.982z"/>
	<path fill="#FFFFFF" d="M283.758,232.397c1.577,1.855,2.822,3.674,3.737,5.457s1.399,3.549,1.453,5.3
		c0.054,1.752-0.361,3.475-1.245,5.169c-0.884,1.695-2.317,3.385-4.299,5.068c-0.632,0.537-1.3,1.023-2.003,1.457
		s-1.375,0.796-2.017,1.087c-0.642,0.292-1.224,0.514-1.747,0.667c-0.523,0.154-0.906,0.216-1.149,0.186
		c-0.243-0.029-0.469-0.082-0.679-0.158c-0.209-0.075-0.449-0.208-0.718-0.397c-0.269-0.188-0.567-0.453-0.893-0.794
		c-0.326-0.34-0.721-0.785-1.187-1.333c-0.609-0.716-1.108-1.336-1.498-1.859c-0.389-0.522-0.668-0.957-0.836-1.305
		c-0.168-0.347-0.233-0.637-0.194-0.87c0.039-0.232,0.163-0.438,0.374-0.617c0.189-0.162,0.469-0.281,0.839-0.359
		c0.37-0.078,0.775-0.177,1.217-0.298c0.442-0.121,0.931-0.292,1.47-0.514c0.538-0.221,1.092-0.574,1.661-1.058
		c0.569-0.483,1.003-0.988,1.301-1.514c0.297-0.525,0.424-1.104,0.376-1.736c-0.046-0.632-0.274-1.337-0.682-2.117
		c-0.408-0.778-1.05-1.685-1.928-2.718l-23.889-28.12c-0.179-0.21-0.268-0.453-0.265-0.728c0.002-0.274,0.112-0.594,0.329-0.96
		c0.216-0.365,0.576-0.806,1.079-1.325c0.504-0.518,1.156-1.118,1.958-1.799c0.801-0.681,1.488-1.218,2.06-1.614
		c0.572-0.395,1.066-0.678,1.483-0.851c0.417-0.171,0.76-0.237,1.032-0.196c0.271,0.042,0.497,0.168,0.676,0.379L283.758,232.397z"
		/>
	<path fill="#FFFFFF" d="M341.005,209.625c0.116,0.477,0.15,0.896,0.104,1.258c-0.046,0.362-0.247,0.734-0.602,1.115
		c-0.355,0.381-0.894,0.805-1.615,1.27c-0.722,0.465-1.682,1.044-2.879,1.737c-0.958,0.555-1.782,1.022-2.472,1.406
		c-0.689,0.382-1.288,0.689-1.794,0.918c-0.507,0.229-0.938,0.383-1.292,0.46c-0.355,0.078-0.676,0.103-0.962,0.077
		c-0.287-0.026-0.543-0.109-0.769-0.251c-0.225-0.141-0.477-0.339-0.752-0.596l-37.667-33.208c-0.786-0.696-1.355-1.278-1.706-1.747
		c-0.351-0.468-0.45-0.915-0.295-1.34c0.154-0.424,0.573-0.875,1.257-1.35c0.684-0.475,1.672-1.087,2.966-1.835
		c1.102-0.637,1.978-1.111,2.628-1.424c0.65-0.312,1.178-0.505,1.583-0.58c0.404-0.074,0.742-0.029,1.012,0.134
		c0.27,0.164,0.569,0.39,0.896,0.68l32.056,29.31l0.036-0.021l-9.534-42.097c-0.14-0.462-0.21-0.861-0.212-1.196
		c-0.001-0.334,0.129-0.674,0.394-1.019s0.706-0.728,1.325-1.15c0.619-0.422,1.491-0.958,2.617-1.61
		c1.102-0.637,1.979-1.097,2.631-1.378c0.652-0.281,1.171-0.35,1.559-0.207c0.387,0.145,0.684,0.492,0.891,1.043
		c0.207,0.552,0.409,1.33,0.606,2.334L341.005,209.625z"/>
	<path fill="#FFFFFF" d="M353.892,142.061c-0.82,0.336-1.516,0.606-2.09,0.812c-0.574,0.206-1.083,0.332-1.526,0.379
		c-0.445,0.048-0.858,0.023-1.242-0.074c-0.384-0.097-0.811-0.243-1.279-0.44l-10.972-5.103c-0.49-0.248-0.817-0.479-0.98-0.697
		c-0.164-0.217-0.163-0.434,0.002-0.651c0.165-0.217,0.512-0.464,1.042-0.741c0.529-0.276,1.229-0.593,2.1-0.95
		c1.049-0.43,1.915-0.762,2.597-0.997c0.681-0.234,1.238-0.388,1.672-0.461c0.434-0.072,0.791-0.077,1.071-0.013
		c0.28,0.064,0.57,0.17,0.87,0.316l6.688,3.404l2.599-7.121c0.1-0.339,0.224-0.637,0.374-0.893c0.149-0.255,0.404-0.509,0.765-0.762
		c0.36-0.252,0.852-0.528,1.477-0.829c0.624-0.301,1.474-0.671,2.549-1.112c0.87-0.356,1.575-0.607,2.113-0.754
		c0.538-0.146,0.945-0.192,1.221-0.141c0.275,0.052,0.43,0.212,0.466,0.481c0.036,0.27-0.019,0.629-0.165,1.077l-4.121,11.288
		c-0.146,0.449-0.343,0.843-0.591,1.184c-0.249,0.342-0.574,0.662-0.975,0.96c-0.401,0.299-0.895,0.591-1.48,0.876
		C355.49,141.383,354.762,141.704,353.892,142.061z M385.498,173.872c1.07,2.612,1.522,5.103,1.357,7.473
		c-0.165,2.371-0.81,4.556-1.933,6.556c-1.124,2.001-2.663,3.791-4.618,5.369c-1.955,1.579-4.199,2.887-6.734,3.926
		c-1.716,0.703-3.367,1.215-4.955,1.537c-1.588,0.321-3.026,0.516-4.315,0.58c-1.29,0.065-2.401,0.035-3.334-0.091
		c-0.934-0.125-1.635-0.286-2.104-0.483c-0.469-0.196-0.903-0.579-1.301-1.149c-0.398-0.569-0.838-1.443-1.321-2.621
		c-0.325-0.793-0.573-1.47-0.742-2.029c-0.169-0.558-0.264-1.027-0.285-1.408c-0.021-0.38,0.035-0.68,0.169-0.899
		c0.135-0.219,0.33-0.382,0.585-0.487c0.358-0.146,0.951-0.143,1.777,0.012c0.826,0.155,1.856,0.279,3.09,0.371
		c1.234,0.093,2.648,0.059,4.242-0.101c1.594-0.16,3.325-0.623,5.194-1.389c1.229-0.503,2.27-1.102,3.122-1.795
		c0.852-0.692,1.507-1.447,1.965-2.263c0.458-0.815,0.704-1.693,0.737-2.634c0.033-0.94-0.149-1.897-0.548-2.87
		c-0.462-1.126-1.165-1.967-2.11-2.522c-0.945-0.555-2.039-0.943-3.281-1.167c-1.243-0.223-2.604-0.353-4.084-0.389
		c-1.48-0.036-3.012-0.089-4.595-0.158c-1.583-0.068-3.163-0.236-4.737-0.503c-1.575-0.266-3.078-0.742-4.509-1.426
		c-1.432-0.684-2.759-1.643-3.982-2.876c-1.223-1.233-2.259-2.887-3.109-4.96c-0.976-2.381-1.392-4.655-1.248-6.822
		c0.144-2.167,0.72-4.153,1.73-5.957c1.01-1.805,2.412-3.418,4.206-4.841c1.794-1.423,3.83-2.601,6.109-3.535
		c1.177-0.482,2.392-0.875,3.644-1.179c1.251-0.303,2.452-0.511,3.602-0.624s2.201-0.139,3.152-0.081
		c0.951,0.059,1.607,0.164,1.968,0.315c0.361,0.151,0.623,0.298,0.786,0.44c0.163,0.143,0.337,0.348,0.521,0.616
		c0.185,0.269,0.382,0.622,0.591,1.059c0.209,0.438,0.45,0.99,0.723,1.655c0.305,0.743,0.542,1.378,0.713,1.906
		c0.172,0.528,0.281,0.977,0.328,1.346c0.046,0.37,0.018,0.666-0.085,0.887c-0.104,0.222-0.296,0.391-0.578,0.506
		c-0.282,0.116-0.803,0.12-1.564,0.013c-0.761-0.106-1.677-0.188-2.746-0.243c-1.069-0.055-2.264-0.014-3.583,0.123
		c-1.319,0.137-2.684,0.494-4.091,1.071c-1.101,0.451-2.006,0.979-2.715,1.583c-0.709,0.605-1.242,1.257-1.598,1.956
		c-0.356,0.7-0.533,1.437-0.529,2.213c0.004,0.776,0.158,1.535,0.462,2.277c0.451,1.101,1.143,1.932,2.075,2.491
		c0.932,0.56,2.032,0.947,3.301,1.159c1.269,0.213,2.655,0.333,4.161,0.358c1.506,0.026,3.05,0.073,4.633,0.142
		c1.583,0.069,3.174,0.232,4.775,0.488c1.6,0.257,3.123,0.724,4.567,1.403c1.445,0.679,2.776,1.629,3.993,2.849
		C383.662,170.267,384.679,171.875,385.498,173.872z"/>
	<path fill="#FFFFFF" d="M429.188,173.82c0.209,0.775,0.351,1.432,0.425,1.971c0.074,0.539,0.087,0.986,0.041,1.343
		c-0.047,0.356-0.151,0.636-0.312,0.836c-0.161,0.201-0.361,0.334-0.602,0.399l-26.043,7.04c-0.881,0.238-1.693,0.178-2.435-0.18
		c-0.742-0.358-1.271-1.125-1.589-2.301l-12.216-45.194c-0.318-1.175-0.247-2.104,0.214-2.788c0.46-0.683,1.131-1.144,2.012-1.382
		l25.883-6.996c0.24-0.065,0.472-0.056,0.695,0.027c0.223,0.083,0.446,0.273,0.67,0.571s0.439,0.698,0.647,1.201
		c0.207,0.503,0.419,1.155,0.636,1.956c0.202,0.748,0.34,1.392,0.414,1.93c0.074,0.539,0.087,0.987,0.041,1.343
		c-0.047,0.357-0.144,0.634-0.291,0.832c-0.147,0.197-0.341,0.329-0.582,0.394l-18.511,5.003l3.422,12.661l15.666-4.234
		c0.24-0.065,0.48-0.051,0.72,0.042c0.24,0.093,0.468,0.275,0.685,0.546c0.216,0.271,0.429,0.658,0.636,1.161
		c0.207,0.503,0.413,1.129,0.615,1.876c0.209,0.775,0.349,1.425,0.419,1.95c0.07,0.525,0.081,0.96,0.03,1.303
		c-0.051,0.343-0.158,0.609-0.322,0.796c-0.165,0.188-0.367,0.314-0.607,0.379l-15.666,4.234l3.953,14.624l18.671-5.046
		c0.24-0.065,0.481-0.051,0.721,0.042c0.24,0.093,0.47,0.282,0.69,0.566c0.22,0.284,0.434,0.678,0.642,1.181
		C428.77,172.407,428.979,173.046,429.188,173.82z"/>
	<path fill="#FFFFFF" d="M474.193,163.215c0.094,0.686,0.153,1.271,0.177,1.756c0.024,0.486,0.019,0.905-0.016,1.259
		c-0.036,0.354-0.105,0.664-0.208,0.929c-0.104,0.266-0.285,0.577-0.543,0.933c-0.259,0.357-0.786,0.841-1.582,1.452
		c-0.796,0.612-1.787,1.229-2.972,1.852s-2.56,1.194-4.122,1.716c-1.563,0.521-3.276,0.909-5.14,1.164
		c-3.646,0.499-7.013,0.387-10.1-0.335c-3.087-0.722-5.812-2.06-8.173-4.013c-2.361-1.953-4.32-4.526-5.874-7.721
		c-1.555-3.194-2.635-7.012-3.243-11.453c-0.619-4.523-0.565-8.622,0.161-12.296c0.726-3.674,2.008-6.852,3.848-9.533
		c1.839-2.681,4.189-4.846,7.049-6.494c2.86-1.648,6.114-2.722,9.76-3.22c1.48-0.203,2.922-0.274,4.327-0.215
		c1.404,0.059,2.716,0.208,3.936,0.446c1.219,0.238,2.331,0.554,3.334,0.947c1.003,0.394,1.715,0.75,2.136,1.069
		c0.421,0.319,0.716,0.593,0.888,0.821c0.17,0.228,0.323,0.529,0.458,0.901c0.135,0.373,0.258,0.817,0.371,1.332
		c0.112,0.516,0.221,1.157,0.326,1.924c0.113,0.823,0.181,1.525,0.205,2.108c0.023,0.583-0.009,1.063-0.097,1.438
		c-0.089,0.375-0.218,0.658-0.387,0.849c-0.169,0.19-0.377,0.303-0.624,0.336c-0.411,0.056-0.965-0.112-1.661-0.506
		c-0.696-0.393-1.585-0.816-2.666-1.269c-1.082-0.453-2.347-0.824-3.797-1.114c-1.45-0.29-3.135-0.304-5.054-0.042
		c-2.111,0.289-3.937,0.979-5.477,2.069c-1.541,1.09-2.784,2.517-3.729,4.28c-0.946,1.763-1.565,3.824-1.856,6.182
		c-0.292,2.358-0.243,4.962,0.147,7.813c0.428,3.125,1.12,5.789,2.078,7.989c0.957,2.201,2.134,3.96,3.529,5.277
		c1.395,1.317,2.985,2.224,4.771,2.719c1.786,0.496,3.733,0.6,5.844,0.311c1.919-0.263,3.547-0.716,4.883-1.359
		c1.336-0.644,2.467-1.308,3.393-1.993c0.925-0.685,1.68-1.291,2.265-1.818c0.583-0.526,1.054-0.814,1.411-0.863
		c0.274-0.038,0.501-0.012,0.681,0.074c0.179,0.087,0.346,0.288,0.501,0.602c0.154,0.314,0.299,0.762,0.436,1.344
		C473.923,161.444,474.058,162.228,474.193,163.215z"/>
	<path fill="#FFFFFF" d="M524.836,169.868c-0.005,0.277-0.099,0.524-0.282,0.742c-0.184,0.219-0.483,0.394-0.9,0.525
		c-0.418,0.132-0.973,0.233-1.666,0.305c-0.692,0.072-1.565,0.099-2.616,0.082c-1.079-0.018-1.971-0.074-2.675-0.168
		c-0.704-0.095-1.256-0.214-1.654-0.359c-0.399-0.145-0.687-0.329-0.862-0.554c-0.177-0.224-0.263-0.475-0.258-0.751l0.352-21.704
		l-20.085-0.326l-0.352,21.704c-0.004,0.277-0.091,0.524-0.261,0.743c-0.169,0.219-0.463,0.394-0.88,0.525
		c-0.417,0.132-0.973,0.233-1.666,0.305c-0.693,0.072-1.579,0.099-2.658,0.082c-1.052-0.017-1.929-0.073-2.633-0.167
		c-0.704-0.095-1.263-0.214-1.675-0.359c-0.413-0.145-0.708-0.329-0.883-0.554c-0.177-0.224-0.262-0.474-0.258-0.751l0.822-50.711
		c0.004-0.276,0.098-0.523,0.282-0.742c0.184-0.218,0.484-0.393,0.901-0.525c0.417-0.131,0.979-0.233,1.686-0.305
		c0.707-0.071,1.585-0.099,2.637-0.082c1.079,0.018,1.963,0.073,2.654,0.167c0.69,0.094,1.242,0.214,1.654,0.359
		c0.413,0.146,0.7,0.33,0.863,0.554s0.241,0.475,0.237,0.751l-0.319,19.712l20.085,0.326l0.319-19.712
		c0.004-0.276,0.098-0.524,0.282-0.743c0.183-0.218,0.477-0.393,0.88-0.525c0.402-0.131,0.958-0.233,1.665-0.305
		c0.707-0.071,1.6-0.099,2.679-0.081c1.051,0.017,1.922,0.073,2.612,0.167s1.242,0.214,1.654,0.359
		c0.413,0.146,0.707,0.33,0.884,0.554c0.176,0.225,0.263,0.475,0.258,0.751L524.836,169.868z"/>
	<path fill="#FFFFFF" d="M580.248,176.16c-0.111,0.627-0.319,1.166-0.624,1.618c-0.305,0.452-0.67,0.809-1.096,1.071
		c-0.426,0.262-0.904,0.423-1.435,0.483c-0.531,0.06-1.055,0.045-1.572-0.047l-4.577-0.811c-0.954-0.169-1.761-0.41-2.422-0.724
		c-0.661-0.313-1.24-0.774-1.736-1.382c-0.497-0.607-0.941-1.389-1.334-2.344s-0.81-2.173-1.249-3.656l-8.779-27.056
		c-0.502-1.606-0.997-3.331-1.485-5.174c-0.489-1.843-0.904-3.623-1.246-5.342l-0.081-0.015c-0.239,1.981-0.504,3.951-0.794,5.908
		c-0.291,1.958-0.619,3.973-0.986,6.042l-4.901,27.667c-0.048,0.272-0.167,0.504-0.355,0.696c-0.188,0.192-0.479,0.33-0.874,0.414
		c-0.395,0.085-0.912,0.112-1.553,0.083c-0.642-0.029-1.452-0.13-2.434-0.304c-0.953-0.169-1.736-0.35-2.349-0.542
		c-0.612-0.193-1.082-0.396-1.409-0.608c-0.328-0.212-0.541-0.439-0.638-0.682c-0.099-0.242-0.123-0.5-0.074-0.772l8.42-47.529
		c0.227-1.28,0.771-2.175,1.635-2.682c0.862-0.507,1.838-0.665,2.929-0.472l5.762,1.021c1.035,0.184,1.892,0.427,2.568,0.729
		c0.677,0.303,1.259,0.708,1.745,1.215c0.485,0.508,0.91,1.167,1.272,1.975c0.363,0.809,0.709,1.79,1.038,2.944l6.874,21.155
		c0.392,1.278,0.78,2.534,1.166,3.769s0.75,2.465,1.096,3.692c0.344,1.228,0.679,2.432,1.003,3.613
		c0.324,1.182,0.636,2.361,0.934,3.538l0.041,0.007c0.256-1.921,0.547-3.921,0.873-6c0.325-2.077,0.655-4.057,0.988-5.937
		l4.395-24.807c0.048-0.272,0.174-0.503,0.376-0.692c0.201-0.188,0.508-0.332,0.918-0.427s0.935-0.122,1.574-0.08
		c0.638,0.043,1.448,0.151,2.429,0.325c0.926,0.164,1.696,0.336,2.312,0.515c0.614,0.18,1.077,0.381,1.39,0.604
		c0.312,0.224,0.516,0.457,0.613,0.699c0.098,0.243,0.122,0.5,0.074,0.772L580.248,176.16z"/>
	<path fill="#FFFFFF" d="M617.589,170.863l-6.072,17.881c-0.089,0.262-0.254,0.469-0.495,0.621
		c-0.242,0.152-0.581,0.227-1.019,0.224s-1.004-0.078-1.698-0.226c-0.695-0.148-1.54-0.392-2.536-0.73
		c-1.021-0.347-1.847-0.671-2.475-0.972c-0.629-0.301-1.124-0.586-1.485-0.855c-0.362-0.269-0.585-0.535-0.671-0.798
		c-0.087-0.263-0.085-0.525,0.004-0.788l6.072-17.881l-4.503-32.431c-0.169-1.138-0.234-2-0.196-2.586s0.255-0.966,0.649-1.138
		c0.395-0.173,1.01-0.154,1.844,0.056s1.973,0.56,3.414,1.049c1.204,0.409,2.158,0.763,2.861,1.06
		c0.702,0.297,1.239,0.589,1.609,0.875s0.613,0.581,0.73,0.883c0.116,0.302,0.203,0.668,0.263,1.097l1.415,14.419
		c0.141,1.392,0.253,2.847,0.337,4.366c0.083,1.519,0.15,3.105,0.202,4.759l0.079,0.027c0.978-1.246,1.956-2.448,2.934-3.606
		s1.92-2.255,2.827-3.292l9.798-10.524c0.273-0.374,0.551-0.653,0.832-0.835s0.645-0.285,1.091-0.309s1.019,0.054,1.718,0.233
		s1.612,0.459,2.739,0.842c1.493,0.507,2.641,0.934,3.444,1.279c0.803,0.346,1.309,0.707,1.517,1.084
		c0.207,0.377,0.14,0.814-0.205,1.312c-0.344,0.497-0.911,1.137-1.703,1.92L617.589,170.863z"/>
	<path fill="#FFFFFF" d="M705.539,181.788c-0.399,0.697-0.771,1.273-1.111,1.731c-0.343,0.458-0.659,0.802-0.951,1.034
		s-0.568,0.368-0.831,0.409c-0.263,0.041-0.502,0-0.719-0.125l-11.669-6.682l-21.512,37.565c-0.138,0.24-0.339,0.412-0.604,0.514
		c-0.268,0.103-0.614,0.111-1.043,0.025c-0.429-0.086-0.97-0.269-1.624-0.547c-0.653-0.278-1.437-0.679-2.349-1.201
		c-0.913-0.523-1.654-0.995-2.226-1.418c-0.57-0.422-1.002-0.797-1.293-1.124c-0.292-0.326-0.461-0.63-0.507-0.912
		c-0.046-0.281,0-0.542,0.138-0.782l21.511-37.565l-11.669-6.682c-0.24-0.138-0.403-0.327-0.489-0.567
		c-0.085-0.24-0.103-0.545-0.05-0.914c0.051-0.369,0.188-0.816,0.41-1.343c0.222-0.526,0.532-1.138,0.931-1.834
		c0.412-0.721,0.793-1.316,1.142-1.786s0.669-0.82,0.962-1.052c0.291-0.231,0.559-0.365,0.803-0.401
		c0.243-0.036,0.485,0.015,0.726,0.153l32.848,18.809c0.216,0.124,0.376,0.304,0.48,0.539c0.104,0.235,0.131,0.537,0.079,0.906
		s-0.192,0.822-0.421,1.361S705.951,181.068,705.539,181.788z"/>
	<path fill="#FFFFFF" d="M718.598,251.283c-0.186,0.241-0.386,0.41-0.6,0.507c-0.214,0.097-0.528,0.074-0.941-0.07
		c-0.413-0.144-0.954-0.438-1.624-0.883c-0.67-0.446-1.553-1.09-2.649-1.934c-0.921-0.709-1.639-1.296-2.152-1.762
		c-0.515-0.466-0.885-0.882-1.109-1.247c-0.226-0.365-0.332-0.692-0.32-0.979s0.075-0.597,0.19-0.927l3.5-12.442
		c0.366-1.429,0.651-2.729,0.854-3.899c0.202-1.171,0.25-2.243,0.144-3.215c-0.107-0.973-0.401-1.872-0.884-2.697
		c-0.482-0.825-1.184-1.592-2.104-2.301l-2.697-2.076l-12.479,16.215c-0.169,0.219-0.393,0.362-0.67,0.427
		c-0.278,0.066-0.623,0.027-1.036-0.117c-0.413-0.143-0.92-0.394-1.518-0.749c-0.6-0.356-1.326-0.863-2.182-1.521
		c-0.833-0.642-1.504-1.21-2.013-1.707c-0.508-0.496-0.885-0.925-1.129-1.288c-0.245-0.363-0.365-0.682-0.362-0.959
		c0.004-0.277,0.09-0.525,0.259-0.744l29.744-38.646c0.742-0.964,1.525-1.471,2.348-1.519s1.596,0.207,2.319,0.764l11.018,8.48
		c1.118,0.861,2.022,1.592,2.713,2.192c0.689,0.601,1.305,1.162,1.847,1.683c1.524,1.558,2.744,3.16,3.659,4.807
		c0.914,1.646,1.481,3.314,1.701,5.002s0.079,3.378-0.42,5.071c-0.5,1.693-1.399,3.384-2.699,5.072
		c-1.097,1.426-2.277,2.585-3.542,3.48c-1.265,0.895-2.603,1.532-4.013,1.913c-1.411,0.381-2.894,0.515-4.446,0.401
		c-1.555-0.114-3.149-0.468-4.785-1.064c0.399,0.796,0.71,1.629,0.932,2.498c0.222,0.869,0.339,1.806,0.352,2.811
		c0.012,1.004-0.071,2.076-0.248,3.213c-0.178,1.138-0.446,2.372-0.806,3.701l-2.87,11.146c-0.313,1.086-0.563,1.864-0.747,2.332
		C718.943,250.72,718.767,251.063,718.598,251.283z M729.674,213.824c1.08-1.403,1.674-2.832,1.78-4.287
		c0.106-1.454-0.411-2.936-1.555-4.444c-0.354-0.447-0.785-0.919-1.294-1.415s-1.256-1.124-2.243-1.883l-3.881-2.987l-9.29,12.07
		l4.407,3.392c1.228,0.945,2.416,1.624,3.564,2.037c1.149,0.413,2.236,0.587,3.265,0.522c1.027-0.065,1.981-0.352,2.862-0.861
		C728.17,215.46,728.966,214.745,729.674,213.824z"/>
	<path fill="#FFFFFF" d="M776.068,273.042c-3.23,3.067-6.502,5.409-9.812,7.026c-3.311,1.617-6.606,2.475-9.887,2.576
		c-3.281,0.101-6.498-0.575-9.65-2.027c-3.152-1.452-6.186-3.713-9.101-6.784c-2.877-3.03-4.99-6.05-6.341-9.06
		s-1.928-6.039-1.73-9.087c0.196-3.048,1.191-6.139,2.985-9.273c1.794-3.134,4.407-6.33,7.839-9.587
		c3.149-2.991,6.365-5.28,9.646-6.869c3.28-1.588,6.556-2.428,9.827-2.519c3.271-0.091,6.487,0.585,9.65,2.027
		c3.162,1.442,6.21,3.708,9.145,6.799c2.8,2.95,4.881,5.925,6.241,8.925s1.946,6.03,1.76,9.088c-0.188,3.058-1.153,6.15-2.897,9.275
		C781.997,266.679,779.44,269.842,776.068,273.042z M767.761,265.135c2.047-1.943,3.755-3.871,5.126-5.783
		c1.37-1.912,2.286-3.821,2.747-5.727c0.46-1.906,0.407-3.811-0.159-5.714c-0.568-1.903-1.766-3.818-3.595-5.745
		c-1.848-1.947-3.757-3.224-5.728-3.833c-1.971-0.609-3.949-0.734-5.935-0.375c-1.987,0.359-3.955,1.15-5.904,2.371
		c-1.95,1.222-3.838,2.699-5.664,4.433c-2.127,2.02-3.886,3.995-5.276,5.925c-1.392,1.931-2.327,3.849-2.807,5.754
		c-0.48,1.906-0.427,3.8,0.16,5.685c0.587,1.884,1.805,3.8,3.653,5.746c1.847,1.946,3.751,3.229,5.712,3.848
		c1.961,0.618,3.944,0.739,5.95,0.36c2.006-0.379,3.994-1.188,5.965-2.429C763.977,268.413,765.895,266.907,767.761,265.135z"/>
	<path fill="#FFFFFF" d="M818.734,295.643c-0.678,0.479-1.27,0.853-1.772,1.124s-0.935,0.439-1.293,0.506
		c-0.359,0.067-0.663,0.069-0.91,0.007c-0.247-0.063-0.442-0.196-0.586-0.399l-10.121-14.345l-11.802,8.326l9.499,13.464
		c0.144,0.203,0.214,0.424,0.213,0.662c-0.002,0.238-0.094,0.515-0.277,0.831c-0.184,0.315-0.481,0.662-0.894,1.037
		c-0.413,0.375-0.958,0.802-1.636,1.281c-0.679,0.479-1.265,0.849-1.756,1.112c-0.492,0.263-0.93,0.435-1.311,0.518
		c-0.382,0.083-0.691,0.089-0.927,0.019c-0.236-0.071-0.426-0.208-0.569-0.411l-9.498-13.464l-16.347,11.532
		c-0.249,0.176-0.512,0.259-0.788,0.251s-0.601-0.144-0.972-0.406c-0.372-0.263-0.791-0.653-1.258-1.17
		c-0.467-0.518-1.011-1.217-1.633-2.099c-0.606-0.859-1.078-1.601-1.417-2.225s-0.566-1.15-0.681-1.577
		c-0.116-0.426-0.135-0.777-0.057-1.052c0.076-0.275,0.239-0.5,0.488-0.675l39.78-28.065c0.995-0.702,1.893-0.954,2.692-0.756
		s1.463,0.669,1.989,1.416l14.57,20.653c0.144,0.204,0.209,0.429,0.196,0.674c-0.013,0.246-0.116,0.531-0.311,0.854
		c-0.196,0.324-0.511,0.681-0.945,1.073C819.97,294.729,819.413,295.164,818.734,295.643z"/>
	<path fill="#FFFFFF" d="M801.926,357.688c-0.707,0.379-1.315,0.666-1.823,0.86c-0.508,0.194-0.941,0.308-1.299,0.343
		c-0.358,0.035-0.653-0.003-0.886-0.114c-0.232-0.111-0.407-0.276-0.524-0.496l-12.747-23.776c-0.432-0.805-0.557-1.609-0.375-2.413
		c0.181-0.804,0.808-1.493,1.881-2.068l41.261-22.121c1.073-0.575,1.994-0.716,2.765-0.422c0.77,0.294,1.37,0.843,1.801,1.648
		l12.669,23.629c0.118,0.22,0.161,0.447,0.131,0.684c-0.031,0.236-0.166,0.497-0.404,0.782c-0.24,0.285-0.581,0.585-1.023,0.902
		c-0.443,0.315-1.03,0.67-1.762,1.062c-0.684,0.366-1.278,0.646-1.787,0.84c-0.508,0.193-0.941,0.308-1.299,0.343
		c-0.358,0.035-0.65,0.003-0.876-0.096c-0.226-0.099-0.396-0.258-0.515-0.478l-9.061-16.899l-11.559,6.197l7.668,14.302
		c0.118,0.219,0.158,0.457,0.122,0.711s-0.162,0.518-0.376,0.791c-0.216,0.272-0.544,0.566-0.987,0.882
		c-0.443,0.315-1.006,0.657-1.688,1.023c-0.707,0.379-1.31,0.662-1.805,0.85c-0.496,0.188-0.917,0.295-1.263,0.324
		c-0.346,0.028-0.629-0.016-0.849-0.134c-0.221-0.117-0.389-0.286-0.507-0.505l-7.668-14.302l-13.351,7.158l9.139,17.046
		c0.117,0.219,0.158,0.457,0.122,0.711s-0.168,0.521-0.395,0.8c-0.228,0.278-0.563,0.576-1.006,0.892
		C803.208,356.961,802.633,357.309,801.926,357.688z"/>
	<path fill="#FFFFFF" d="M821.98,378.53c-2.257,0.915-4.374,1.527-6.354,1.837c-1.979,0.31-3.809,0.215-5.489-0.283
		c-1.68-0.499-3.186-1.433-4.518-2.803c-1.332-1.371-2.487-3.262-3.464-5.672c-0.312-0.769-0.563-1.556-0.755-2.359
		c-0.191-0.803-0.324-1.556-0.399-2.256c-0.076-0.701-0.104-1.324-0.086-1.869c0.018-0.544,0.078-0.927,0.184-1.149
		c0.104-0.221,0.225-0.42,0.363-0.595c0.137-0.175,0.338-0.361,0.602-0.558s0.608-0.396,1.034-0.599
		c0.425-0.202,0.972-0.438,1.639-0.709c0.871-0.353,1.616-0.633,2.234-0.839c0.618-0.206,1.119-0.334,1.501-0.385
		c0.383-0.051,0.678-0.021,0.887,0.088c0.209,0.109,0.365,0.292,0.47,0.549c0.093,0.231,0.119,0.534,0.077,0.909
		c-0.042,0.375-0.075,0.792-0.099,1.249c-0.023,0.458-0.015,0.976,0.027,1.557c0.04,0.581,0.202,1.217,0.482,1.909
		c0.281,0.692,0.624,1.262,1.029,1.71c0.405,0.447,0.915,0.749,1.53,0.902c0.614,0.154,1.355,0.159,2.224,0.017
		c0.867-0.143,1.93-0.469,3.187-0.979l34.193-13.863c0.256-0.104,0.514-0.112,0.774-0.023c0.26,0.088,0.528,0.293,0.808,0.613
		c0.279,0.319,0.586,0.8,0.92,1.441c0.334,0.641,0.699,1.448,1.095,2.422c0.395,0.974,0.69,1.795,0.887,2.462
		c0.195,0.667,0.31,1.225,0.343,1.674c0.032,0.45-0.014,0.796-0.138,1.042c-0.125,0.244-0.315,0.419-0.572,0.522L821.98,378.53z"/>
	<path fill="#FFFFFF" d="M825.176,424.697c-0.772,0.22-1.427,0.371-1.965,0.453c-0.537,0.081-0.985,0.101-1.342,0.059
		c-0.357-0.042-0.639-0.142-0.841-0.299c-0.204-0.158-0.34-0.356-0.407-0.596l-7.401-25.942c-0.25-0.878-0.201-1.69,0.146-2.437
		c0.349-0.747,1.107-1.287,2.278-1.621l45.021-12.843c1.171-0.334,2.101-0.276,2.79,0.175c0.69,0.451,1.16,1.115,1.411,1.993
		l7.354,25.783c0.068,0.24,0.063,0.471-0.018,0.696c-0.08,0.224-0.268,0.45-0.562,0.678c-0.295,0.228-0.692,0.449-1.191,0.664
		c-0.5,0.214-1.149,0.436-1.947,0.663c-0.745,0.213-1.387,0.359-1.925,0.441c-0.538,0.081-0.985,0.101-1.343,0.059
		c-0.357-0.042-0.636-0.135-0.835-0.28s-0.333-0.336-0.401-0.576l-5.26-18.439l-12.612,3.598l4.451,15.605
		c0.068,0.239,0.058,0.48-0.031,0.721c-0.09,0.241-0.269,0.472-0.536,0.692c-0.269,0.22-0.652,0.438-1.152,0.652
		c-0.5,0.214-1.122,0.428-1.867,0.641c-0.771,0.22-1.42,0.369-1.944,0.446s-0.959,0.094-1.303,0.048
		c-0.344-0.046-0.61-0.149-0.801-0.311s-0.318-0.362-0.387-0.602l-4.452-15.605l-14.567,4.155l5.306,18.599
		c0.068,0.239,0.057,0.48-0.032,0.721c-0.09,0.241-0.274,0.474-0.556,0.698c-0.281,0.224-0.672,0.443-1.172,0.658
		C826.583,424.26,825.947,424.478,825.176,424.697z"/>
</g>
<g>
	<g>
		<path fill="#17A0B1" d="M635.939,554.951c-21.507,72.548-79.576,109.006-132.316,83.111l76.016,239.825l42.886-114.974
			l89.456,31.952L635.939,554.951z"/>
		<path fill="#17A0B1" d="M433.462,636.5c-27.19-14.659-47.599-43.399-58.636-78.042L309.063,799.89l88.112-38.631l47.199,111.579
			l64.313-236.118C485.287,649.187,458.668,650.089,433.462,636.5"/>
		<path fill="#0195B0" d="M519.448,687.986c51.812-1.254,101.839-18.517,143.214-48.728l-26.723-84.308
			c-21.507,72.548-79.576,109.006-132.316,83.111L519.448,687.986z"/>
		<path fill="#0195B0" d="M433.462,636.5c-27.19-14.659-47.599-43.399-58.636-78.042l-24.449,89.755
			c14.171,9.046,29.458,16.799,45.767,23.051c32.461,12.436,65.904,17.736,98.596,16.664l13.947-51.208
			C485.287,649.187,458.668,650.089,433.462,636.5"/>
	</g>
	<g>
		<path fill="#FFC92B" d="M706.46,514.386c43.691-114.026-13.322-241.878-127.345-285.575
			c-114.026-43.693-241.881,13.319-285.574,127.345c-43.695,114.021,13.321,241.877,127.345,285.573
			C534.91,685.424,662.769,628.408,706.46,514.386"/>
	</g>
	<polygon fill="#E8E6D4" points="479.258,389.007 478.646,389.007 439.598,406.396 430.752,365.517 487.491,340.502 
		532.335,340.502 532.335,538.794 479.258,538.794 	"/>
	<g>
		<path fill="#FBDF65" d="M683.851,485.19c-4.29,2.171-7.442,4.417-10.108,7.386c2.227-7.678,3.996-15.794,5.285-24.35
			c9.302,1.03,16.016-1.102,23.623-7.43c6.586-5.479,9.672-10.445,11.854-19.073c-9.898-1.01-16.603,1.046-24.511,7.505
			c-4.896,3.998-7.895,7.685-10.113,12.768c0.989-8.186,1.552-16.76,1.646-25.738c0.01-0.837,0.003-1.667,0.003-2.502
			c9.556-0.999,15.808-4.567,22.118-12.576c5.384-6.826,7.438-12.373,7.896-21.297c-9.874,1.214-16.033,4.714-22.521,12.8
			c-4.202,5.235-6.433,9.68-7.571,15.532c-0.293-10.001-1.329-19.68-3.069-28.991c8.772-3.121,14.043-7.988,18.562-17.019
			c3.94-7.88,4.875-13.757,3.592-22.593c-9.42,3.396-14.771,8.193-19.544,17.537c-2.598,5.084-3.942,9.312-4.3,14.07
			c-2.066-8.792-4.776-17.23-8.081-25.274c7.558-4.922,11.616-10.796,14.211-20.363c2.326-8.586,2.101-14.553-0.863-22.906
			c-8.559,5.422-12.861,11.3-15.718,21.51c-1.338,4.785-1.897,8.74-1.657,12.77c-3.615-7.45-7.767-14.524-12.417-21.184
			c6.286-6.433,9.07-13.045,9.739-22.877c0.616-8.915-0.758-14.695-5.286-22.207c-7.322,7.208-10.387,13.926-11.199,24.546
			c-0.375,4.861-0.164,8.783,0.787,12.587c-4.989-6.229-10.457-12.042-16.359-17.406c5.043-7.801,6.529-14.945,5.271-24.827
			c-1.131-8.853-3.602-14.204-9.481-20.536c-5.767,8.684-7.459,15.926-6.197,26.502c0.633,5.286,1.723,9.322,3.7,13.107
			c-6.28-5.075-12.988-9.679-20.094-13.779c3.655-9.012,3.785-16.445,0.565-26.027c-2.819-8.417-6.272-13.096-13.255-17.982
			c-3.955,9.772-4.206,17.247-0.922,27.308c1.851,5.657,3.958,9.64,7.202,13.2c-7.427-3.845-15.248-7.16-23.425-9.909
			c1.901-9.771,0.625-17.131-4.437-25.884c-4.389-7.592-8.674-11.408-16.453-14.631c-1.97,10.442-0.768,17.81,4.392,26.915
			c2.989,5.265,5.893,8.737,9.923,11.535c-2.65-0.775-5.325-1.5-8.042-2.156l-6.492,1.492c4.253,1.029,8.438,2.223,12.551,3.565
			c-6.565,1.238-11.683,4.41-17.015,10.29c-5.815,6.414-8.225,11.791-9.268,20.653c9.934-0.475,16.307-3.502,23.301-11.077
			c5.231-5.668,7.777-10.482,9.201-17.706c7.355,2.72,14.456,5.932,21.265,9.603c-5.702,0.237-10.749,2.234-16.378,6.272
			c-6.931,4.973-10.332,9.691-13.07,18.131c9.805,1.751,16.629,0.208,24.939-5.645c5.951-4.187,9.347-8.163,12.075-14.423
			c6.501,3.964,12.7,8.367,18.554,13.167c-5.354-0.835-10.484,0.036-16.494,2.615c-7.741,3.313-11.99,7.173-16.301,14.826
			c9.252,3.897,16.227,3.908,25.486,0.028c6.561-2.737,10.633-5.831,14.475-11.225c5.661,5.23,10.944,10.861,15.807,16.862
			c-5.101-2.041-10.308-2.344-16.718-1.162c-8.213,1.52-13.114,4.352-18.818,10.874c8.296,5.878,15.115,7.441,24.927,5.716
			c6.985-1.227,11.572-3.356,16.408-7.822c4.571,6.384,8.689,13.131,12.311,20.208c-4.642-3.225-9.727-4.72-16.321-4.99
			c-8.328-0.339-13.67,1.332-20.518,6.442c6.978,7.592,13.343,10.637,23.275,11.147c7.094,0.356,12.013-0.716,17.635-4.039
			c3.157,7.189,5.817,14.677,7.938,22.433c-3.891-4.117-8.545-6.681-14.874-8.397c-8.089-2.188-13.638-1.742-21.321,1.723
			c5.351,8.988,10.984,13.391,20.6,16.09c6.815,1.919,11.806,1.984,17.874,0.038c1.576,7.475,2.656,15.171,3.21,23.063
			c-2.973-4.592-6.938-7.967-12.561-10.937c-7.479-3.945-12.997-4.743-21.189-3.063c3.497,9.979,8.152,15.543,17.036,20.331
			c6.18,3.336,10.984,4.528,17.14,4.047c0.011,1.27,0.011,2.544,0,3.825c-0.074,6.717-0.411,13.19-1,19.426
			c-2.015-5.154-5.236-9.342-10.165-13.498c-6.553-5.527-11.795-7.538-20.131-7.716c1.482,10.532,4.96,17.017,12.719,23.681
			c5.512,4.728,10.048,6.963,16.352,7.83c-1.295,8.958-3.137,17.39-5.484,25.309c-0.605-6.72-3.009-12.279-7.698-18.311
			c-5.338-6.871-10.072-10.007-18.197-12.044c-0.594,10.639,1.555,17.759,7.854,26.002c4.759,6.234,8.992,9.452,15.663,11.727
			c-3.23,9.211-7.185,17.679-11.779,25.449c1.301-7.688,0.145-14.218-3.66-21.961c-3.889-7.905-7.915-12.032-15.466-15.832
			c-2.645,10.275-1.922,17.71,2.637,27.187c3.544,7.364,7.167,11.485,13.584,15.288c-4.885,7.529-10.406,14.363-16.485,20.526
			c2.255-6.697,2.247-13.021,0.17-20.888c-2.271-8.604-5.41-13.533-12.054-18.929c-4.582,9.458-5.321,16.892-2.696,27.173
			c1.958,7.672,4.565,12.44,9.669,17.356c-5.533,5.053-11.467,9.61-17.757,13.693c2.197-5.033,2.935-10.385,2.518-17.051
			c-0.548-8.927-2.663-14.446-8.116-21.207c-6.316,8.227-8.477,15.337-7.908,25.975c0.387,7.172,1.746,12.136,4.974,17.409
			c-7.179,3.995-14.753,7.445-22.649,10.382c3.282-4.516,5.118-9.677,6.031-16.472c1.188-8.853,0.193-14.724-3.833-22.547
			c-7.775,6.639-11.271,13.114-12.773,23.646c-1.03,7.227-0.634,12.439,1.604,18.451c-9.896,3.108-20.234,5.474-30.902,7.155
			c7.943-4.198,12.465-9.677,15.83-18.97c3.015-8.336,3.274-14.303,0.998-22.905c-8.969,4.603-13.73,10.068-17.408,19.967
			c-3.006,8.105-3.431,13.924-1.589,22.245c-0.503,0.075-1.011,0.143-1.518,0.214c-0.072-0.001-0.143-0.004-0.222-0.004l0.007,0.034
			c-5.818,0.822-11.73,1.448-17.717,1.879c-6.451,0.463-12.392,2.295-17.989,4.978c-5.564-2.653-11.466-4.464-17.875-4.925
			c-5.985-0.429-11.896-1.057-17.716-1.878l0.007-0.033c-0.074,0-0.143,0.003-0.219,0.003c-0.506-0.071-1.014-0.14-1.52-0.215
			c1.844-8.321,1.417-14.14-1.59-22.245c-3.678-9.896-8.438-15.365-17.408-19.966c-2.274,8.603-2.016,14.563,0.999,22.901
			c3.366,9.298,7.89,14.773,15.831,18.973c-10.667-1.682-21.008-4.046-30.902-7.158c2.238-6.007,2.632-11.221,1.601-18.447
			c-1.506-10.534-4.997-17.008-12.773-23.654c-4.023,7.833-5.02,13.701-3.831,22.554c0.914,6.797,2.746,11.957,6.031,16.473
			c-7.899-2.938-15.472-6.385-22.649-10.381c3.226-5.273,4.586-10.239,4.969-17.41c0.575-10.638-1.589-17.749-7.903-25.977
			c-5.455,6.763-7.57,12.284-8.121,21.206c-0.414,6.673,0.324,12.021,2.523,17.056c-6.293-4.084-12.227-8.644-17.759-13.693
			c5.105-4.918,7.709-9.688,9.669-17.357c2.623-10.281,1.885-17.713-2.697-27.177c-6.646,5.397-9.782,10.33-12.053,18.93
			c-2.078,7.868-2.088,14.193,0.172,20.89c-6.081-6.162-11.603-12.995-16.489-20.526c6.419-3.804,10.039-7.924,13.585-15.288
			c4.56-9.481,5.281-16.91,2.635-27.183c-7.548,3.795-11.576,7.923-15.465,15.827c-3.805,7.736-4.958,14.271-3.662,21.96
			c-4.595-7.768-8.547-16.235-11.775-25.448c6.668-2.274,10.902-5.491,15.663-11.724c6.296-8.247,8.444-15.366,7.848-26.003
			c-8.121,2.037-12.857,5.172-18.195,12.039c-4.688,6.035-7.091,11.596-7.698,18.315c-2.348-7.919-4.186-16.353-5.483-25.313
			c6.302-0.866,10.845-3.098,16.352-7.828c7.761-6.664,11.238-13.15,12.717-23.681c-8.336,0.178-13.577,2.189-20.13,7.718
			c-4.927,4.155-8.151,8.341-10.167,13.497c-0.583-6.235-0.923-12.708-0.993-19.427c-0.014-1.279-0.014-2.553,0-3.823
			c6.153,0.479,10.957-0.712,17.138-4.048c8.88-4.788,13.541-10.354,17.031-20.331c-8.189-1.68-13.706-0.886-21.187,3.063
			c-5.624,2.97-9.589,6.345-12.56,10.936c0.553-7.891,1.635-15.586,3.209-23.062c6.072,1.944,11.061,1.879,17.873-0.04
			c9.614-2.706,15.252-7.102,20.601-16.087c-7.682-3.466-13.233-3.921-21.318-1.724c-6.33,1.715-10.983,4.279-14.878,8.396
			c2.119-7.753,4.785-15.242,7.939-22.431c5.622,3.323,10.541,4.395,17.634,4.04c9.933-0.511,16.298-3.556,23.275-11.149
			c-6.844-5.109-12.187-6.79-20.517-6.441c-6.59,0.271-11.676,1.766-16.318,4.99c3.618-7.077,7.738-13.824,12.311-20.21
			c4.832,4.468,9.422,6.598,16.406,7.824c9.81,1.726,16.632,0.151,24.926-5.717c-5.704-6.52-10.604-9.354-18.821-10.871
			c-6.408-1.189-11.614-0.883-16.713,1.155c4.864-5.999,10.146-11.629,15.805-16.857c3.844,5.395,7.912,8.488,14.473,11.226
			c9.263,3.877,16.237,3.869,25.488-0.034c-4.315-7.648-8.56-11.507-16.301-14.821c-6.01-2.58-11.14-3.45-16.496-2.614
			c5.856-4.801,12.053-9.201,18.556-13.168c2.73,6.258,6.121,10.237,12.075,14.424c8.31,5.854,15.133,7.397,24.938,5.645
			c-2.739-8.442-6.139-13.167-13.07-18.131c-5.625-4.04-10.675-6.036-16.379-6.273c6.809-3.669,13.911-6.883,21.267-9.603
			c1.421,7.223,3.97,12.037,9.199,17.702c6.996,7.58,13.37,10.605,23.3,11.079c-1.042-8.871-3.452-14.246-9.267-20.651
			c-5.335-5.88-10.449-9.051-17.014-10.292c4.114-1.338,8.299-2.533,12.55-3.565l-6.494-1.49c-2.715,0.658-5.391,1.382-8.039,2.156
			c4.026-2.796,6.933-6.27,9.92-11.535c5.163-9.103,6.362-16.474,4.389-26.915c-7.776,3.224-12.057,7.039-16.45,14.632
			c-5.058,8.75-6.336,16.112-4.434,25.883c-8.177,2.748-15.997,6.064-23.429,9.909c3.245-3.56,5.352-7.541,7.203-13.201
			c3.288-10.059,3.034-17.536-0.92-27.307c-6.981,4.886-10.432,9.566-13.256,17.98c-3.218,9.583-3.084,17.016,0.565,26.03
			c-7.107,4.097-13.817,8.704-20.099,13.781c1.981-3.786,3.076-7.822,3.708-13.109c1.26-10.579-0.433-17.834-6.198-26.505
			c-5.883,6.332-8.352,11.683-9.48,20.536c-1.262,9.882,0.222,17.027,5.27,24.824c-5.904,5.366-11.371,11.178-16.365,17.41
			c0.955-3.804,1.165-7.725,0.792-12.584c-0.815-10.625-3.879-17.342-11.205-24.55c-4.521,7.513-5.898,13.292-5.286,22.207
			c0.673,9.832,3.454,16.444,9.744,22.879c-4.653,6.656-8.803,13.731-12.419,21.183c0.241-4.029-0.314-7.985-1.655-12.77
			c-2.855-10.209-7.158-16.088-15.718-21.51c-2.967,8.353-3.193,14.319-0.865,22.904c2.594,9.57,6.653,15.44,14.214,20.365
			c-3.308,8.041-6.014,16.479-8.083,25.27c-0.357-4.757-1.701-8.984-4.297-14.067c-4.773-9.343-10.124-14.14-19.547-17.535
			c-1.283,8.834-0.348,14.712,3.596,22.592c4.514,9.028,9.785,13.896,18.555,17.018c-1.736,9.311-2.775,18.99-3.064,28.99
			c-1.142-5.85-3.371-10.293-7.574-15.531c-6.485-8.083-12.646-11.584-22.52-12.798c0.458,8.925,2.515,14.471,7.895,21.294
			c6.314,8.013,12.564,11.573,22.119,12.578c-0.003,0.831-0.006,1.659,0.002,2.494c0.096,8.983,0.658,17.56,1.647,25.753
			c-2.218-5.089-5.218-8.778-10.113-12.774c-7.906-6.459-14.613-8.512-24.51-7.504c2.181,8.63,5.269,13.596,11.853,19.071
			c7.611,6.33,14.318,8.464,23.623,7.434c1.294,8.555,3.064,16.677,5.288,24.354c-2.667-2.971-5.818-5.219-10.111-7.391
			c-8.99-4.556-15.947-5.067-25.431-1.876c3.803,7.959,7.787,12.125,15.294,16.015c8.227,4.266,14.93,5.01,23.2,2.44
			c2.595,7.355,5.629,14.274,9.058,20.777c-2.622-1.533-5.547-2.638-9.143-3.545c-9.674-2.458-16.579-1.4-25.235,3.834
			c5.263,6.93,9.969,10.118,18.066,12.254c8.522,2.24,15.038,1.632,22.269-2.276c4.032,6.331,8.478,12.209,13.296,17.654
			c-2.725-0.813-5.657-1.204-9.142-1.291c-9.936-0.24-16.488,2.322-23.943,9.379c6.497,5.6,11.718,7.674,20.052,7.96
			c8.834,0.298,15.116-1.781,21.475-7.306c5.649,5.362,11.701,10.228,18.107,14.6c-3.383-0.475-6.841-0.248-11.002,0.594
			c-9.768,1.974-15.681,5.949-21.603,14.504c7.442,4.04,12.95,4.908,21.157,3.325c9.078-1.75,14.934-5.425,20.259-12.846
			c6.665,3.914,13.656,7.362,20.917,10.351c-2.59,0.481-5.233,1.367-8.204,2.7c-9.17,4.117-14.184,9.317-18.315,19.009
			c8.059,2.298,13.616,1.912,21.337-1.464c8.141-3.565,13.083-8.176,16.792-15.924c5.96,1.994,12.067,3.708,18.304,5.15
			c-0.81,0.55-1.634,1.152-2.486,1.805c-8.072,6.218-11.864,12.498-13.857,22.939c8.334,0.286,13.669-1.43,20.48-6.583
			c5.849-4.419,9.478-9.013,11.702-15.116c6.461,1.002,13.023,1.739,19.666,2.216c3.143,0.227,6.06,0.793,8.809,1.612
			c-12.809,8.485-24.117,20.302-36.294,28.046l9.717,4.351c13.565-8.623,23.096-21.17,35.772-28.418
			c12.727,7.242,22.267,19.827,35.865,28.472l9.722-4.351c-12.215-7.766-23.555-19.629-36.408-28.118
			c2.782-0.842,5.731-1.418,8.921-1.647c6.642-0.478,13.204-1.215,19.664-2.217c2.222,6.104,5.854,10.701,11.7,15.127
			c6.813,5.144,12.145,6.859,20.482,6.573c-1.995-10.442-5.785-16.723-13.857-22.937c-0.851-0.656-1.677-1.257-2.489-1.808
			c6.238-1.442,12.347-3.158,18.305-5.15c3.707,7.746,8.65,12.358,16.794,15.925c7.719,3.376,13.278,3.759,21.336,1.463
			c-4.13-9.691-9.141-14.891-18.315-19.008c-2.969-1.332-5.612-2.221-8.204-2.701c7.265-2.989,14.254-6.436,20.923-10.352
			c5.324,7.423,11.179,11.095,20.255,12.846c8.206,1.582,13.715,0.715,21.158-3.325c-5.926-8.554-11.833-12.529-21.604-14.503
			c-4.16-0.841-7.617-1.066-11.001-0.593c6.406-4.373,12.459-9.237,18.106-14.602c6.359,5.524,12.643,7.604,21.477,7.307
			c8.332-0.286,13.551-2.356,20.047-7.957c-7.449-7.06-14.003-9.624-23.942-9.382c-3.482,0.086-6.413,0.479-9.135,1.286
			c4.816-5.438,9.26-11.318,13.298-17.65c7.226,3.907,13.742,4.519,22.262,2.278c8.101-2.136,12.804-5.324,18.067-12.256
			c-8.653-5.236-15.565-6.29-25.237-3.832c-3.591,0.906-6.516,2.011-9.138,3.544c3.432-6.504,6.467-13.423,9.059-20.777
			c8.266,2.571,14.971,1.826,23.195-2.438c7.51-3.895,11.488-8.057,15.295-16.014C699.797,480.125,692.84,480.633,683.851,485.19"/>
	</g>
	<polygon fill="#FFFFFF" points="437.03,329.656 439.298,361.935 470.698,354.117 440.7,366.249 457.837,393.697 437.03,368.917 
		416.222,393.697 433.359,366.249 403.361,354.117 434.761,361.935 	"/>
	<g>
		<path fill="#498872" d="M649.625,598.122L649.625,598.122l13.037,41.137c-41.375,30.211-91.402,47.474-143.214,48.728
			l-10.07-31.761l70.261,221.662l42.886-114.974l89.458,31.952L649.625,598.122z"/>
		<path fill="#028073" d="M649.625,598.122c-38.301,35.13-88.114,55.866-140.244,58.104l10.067,31.761
			c51.812-1.254,101.839-18.517,143.214-48.728L649.625,598.122z"/>
		<path fill="#FBAB23" d="M505.037,214.169v126.333h27.3v198.292h-27.3v60.987c4.901-2.096,10.074-3.505,15.624-3.904
			c5.986-0.431,11.898-1.057,17.717-1.879l-0.007-0.034c0.079,0,0.149,0.003,0.222,0.003c0.507-0.07,1.015-0.138,1.518-0.213
			c-1.842-8.321-1.417-14.14,1.589-22.248c3.678-9.896,8.439-15.361,17.408-19.964c2.276,8.603,2.017,14.57-0.999,22.905
			c-3.364,9.296-7.886,14.771-15.829,18.97c10.668-1.683,21.006-4.047,30.902-7.155c-2.237-6.012-2.634-11.225-1.604-18.451
			c1.503-10.532,5.002-17.008,12.773-23.646c4.026,7.825,5.021,13.694,3.833,22.547c-0.916,6.795-2.746,11.953-6.031,16.472
			c7.896-2.937,15.471-6.387,22.649-10.382c-3.228-5.273-4.587-10.237-4.974-17.406c-0.568-10.641,1.592-17.751,7.908-25.978
			c5.453,6.761,7.568,12.28,8.116,21.207c0.417,6.666-0.32,12.018-2.518,17.051c6.29-4.083,12.224-8.641,17.757-13.688
			c-5.104-4.921-7.711-9.689-9.669-17.361c-2.625-10.281-1.886-17.713,2.696-27.173c6.647,5.396,9.783,10.325,12.054,18.929
			c2.077,7.866,2.085,14.19-0.17,20.888c6.079-6.163,11.601-12.997,16.485-20.526c-6.417-3.803-10.04-7.924-13.584-15.288
			c-4.559-9.477-5.281-16.911-2.637-27.187c7.551,3.8,11.577,7.927,15.466,15.832c3.805,7.743,4.961,14.273,3.66,21.961
			c4.595-7.771,8.549-16.238,11.779-25.449c-6.673-2.274-10.904-5.493-15.663-11.727c-6.299-8.243-8.447-15.364-7.854-26.002
			c8.125,2.037,12.859,5.173,18.197,12.044c4.689,6.03,7.093,11.591,7.698,18.311c2.348-7.919,4.189-16.353,5.484-25.309
			c-6.304-0.867-10.84-3.102-16.352-7.83c-7.759-6.665-11.236-13.149-12.719-23.681c8.336,0.178,13.578,2.188,20.131,7.716
			c4.929,4.156,8.15,8.343,10.165,13.499c0.589-6.236,0.926-12.71,1-19.429c0.011-1.277,0.011-2.553,0-3.823
			c-0.868,0.067-1.71,0.103-2.529,0.103c-5.006,0-9.299-1.286-14.61-4.15c-8.884-4.788-13.539-10.352-17.033-20.331
			c2.66-0.546,5.04-0.829,7.291-0.829c4.689,0,8.848,1.226,13.896,3.892c5.623,2.972,9.588,6.348,12.561,10.937
			c-0.554-7.892-1.634-15.588-3.21-23.061c-2.992,0.957-5.72,1.428-8.542,1.428c-2.891,0-5.877-0.497-9.332-1.469
			c-9.615-2.699-15.249-7.102-20.603-16.09c4.586-2.068,8.413-3.06,12.469-3.06c2.741,0,5.595,0.453,8.855,1.336
			c6.329,1.715,10.983,4.28,14.874,8.395c-2.12-7.753-4.78-15.242-7.938-22.431c-4.942,2.923-9.344,4.104-15.158,4.104
			c-0.798,0-1.622-0.022-2.477-0.065c-9.933-0.51-16.298-3.555-23.275-11.147c6.284-4.69,11.299-6.484,18.526-6.484
			c0.643,0,1.311,0.015,1.991,0.042c6.595,0.269,11.68,1.765,16.321,4.99c-3.621-7.077-7.739-13.824-12.311-20.21
			c-4.836,4.468-9.423,6.598-16.408,7.824c-2.475,0.436-4.761,0.661-6.928,0.661c-6.418,0-11.798-1.982-17.999-6.377
			c5.704-6.522,10.605-9.354,18.818-10.871c2.469-0.457,4.761-0.69,6.939-0.69c3.467,0,6.642,0.597,9.778,1.849
			c-4.862-6-10.146-11.63-15.807-16.86c-3.842,5.395-7.914,8.486-14.475,11.225c-4.617,1.936-8.668,2.902-12.717,2.902
			c-4.066,0-8.135-0.976-12.77-2.93c4.311-7.651,8.562-11.513,16.301-14.826c4.538-1.948,8.576-2.922,12.586-2.92
			c1.302,0,2.6,0.103,3.908,0.305c-5.854-4.799-12.053-9.203-18.554-13.167c-2.729,6.26-6.124,10.237-12.075,14.423
			c-6.187,4.356-11.546,6.325-17.929,6.325c-2.193,0-4.502-0.232-7.011-0.68c2.738-8.44,6.14-13.158,13.07-18.131
			c5.629-4.039,10.676-6.036,16.378-6.272c-6.809-3.67-13.909-6.883-21.265-9.603c-1.424,7.226-3.97,12.038-9.201,17.706
			c-6.994,7.574-13.367,10.604-23.301,11.077c1.043-8.863,3.452-14.24,9.268-20.653c5.332-5.879,10.449-9.051,17.015-10.292
			c-4.112-1.34-8.298-2.534-12.551-3.563l6.492-1.492c2.717,0.657,5.392,1.381,8.042,2.156c-4.03-2.794-6.934-6.27-9.919-11.535
			c-5.163-9.104-6.365-16.473-4.396-26.915c7.779,3.225,12.061,7.039,16.453,14.631c5.062,8.752,6.338,16.113,4.437,25.884
			c8.177,2.749,15.998,6.064,23.425,9.909c-3.244-3.56-5.352-7.543-7.202-13.2c-3.284-10.059-3.033-17.535,0.922-27.308
			c6.982,4.886,10.436,9.565,13.255,17.982c3.22,9.582,3.09,17.015-0.565,26.03c7.105,4.096,13.813,8.699,20.094,13.775
			c-1.978-3.785-3.067-7.821-3.7-13.107c-1.267-10.576,0.431-17.818,6.197-26.502c5.88,6.332,8.351,11.683,9.481,20.536
			c1.259,9.882-0.228,17.026-5.271,24.827c5.902,5.364,11.37,11.177,16.359,17.406c-0.951-3.804-1.162-7.726-0.787-12.587
			c0.813-10.62,3.877-17.338,11.199-24.546c4.528,7.512,5.902,13.292,5.286,22.207c-0.669,9.833-3.453,16.445-9.742,22.879
			c4.653,6.658,8.805,13.732,12.42,21.182c-0.24-4.032,0.319-7.985,1.657-12.77c2.856-10.21,7.159-16.087,15.718-21.51
			c2.964,8.353,3.189,14.319,0.863,22.906c-2.589,9.569-6.653,15.441-14.211,20.363c3.305,8.043,6.015,16.482,8.081,25.274
			c0.357-4.756,1.702-8.985,4.3-14.07c4.773-9.344,10.124-14.141,19.544-17.537c1.283,8.836,0.349,14.712-3.592,22.593
			c-4.519,9.031-9.789,13.898-18.56,17.019c1.738,9.312,2.774,18.991,3.067,28.991c1.139-5.852,3.369-10.297,7.571-15.532
			c6.487-8.083,12.646-11.585,22.521-12.8c-0.457,8.924-2.512,14.471-7.896,21.297c-6.311,8.009-12.563,11.577-22.118,12.578
			c0,0.831,0.007,1.663-0.003,2.5c-0.095,8.976-0.657,17.552-1.646,25.742c2.219-5.086,5.218-8.773,10.113-12.771
			c6.647-5.434,12.45-7.748,20.009-7.748c1.429,0,2.928,0.083,4.502,0.242c-2.182,8.631-5.268,13.595-11.854,19.074
			c-6.403,5.324-12.167,7.678-19.374,7.678c-1.362,0-2.773-0.083-4.249-0.248c-1.289,8.555-3.059,16.671-5.285,24.35
			c2.666-2.969,5.818-5.214,10.108-7.386c5.19-2.628,9.705-3.911,14.414-3.911c3.452,0,7.01,0.688,11.017,2.034
			c-3.807,7.961-7.785,12.124-15.295,16.019c-5.074,2.629-9.566,3.92-14.209,3.92c-2.881,0-5.82-0.498-8.986-1.48
			c-2.592,7.353-5.627,14.271-9.059,20.775c2.622-1.533,5.547-2.638,9.138-3.544c3.28-0.832,6.238-1.264,9.059-1.264
			c5.499,0.002,10.46,1.635,16.179,5.096c-5.264,6.933-9.967,10.12-18.067,12.256c-3.25,0.855-6.208,1.295-9.028,1.295
			c-4.568,0-8.765-1.157-13.233-3.573c-4.038,6.332-8.481,12.212-13.298,17.65c2.722-0.809,5.652-1.2,9.135-1.286
			c0.419-0.011,0.835-0.015,1.247-0.015c9.248,0,15.56,2.638,22.695,9.395c-6.496,5.603-11.715,7.673-20.047,7.959
			c-0.548,0.02-1.083,0.028-1.607,0.028c-8.003,0-13.899-2.152-19.869-7.335c-5.647,5.364-11.7,10.229-18.106,14.602
			c1.173-0.164,2.349-0.243,3.564-0.243c2.295,0,4.717,0.284,7.437,0.836c9.771,1.974,15.679,5.949,21.604,14.503
			c-5.146,2.794-9.362,4.071-14.188,4.071c-2.156,0-4.436-0.256-6.971-0.745c-9.076-1.752-14.931-5.424-20.255-12.847
			c-6.669,3.916-13.658,7.362-20.923,10.352c2.592,0.48,5.235,1.369,8.204,2.701c9.175,4.118,14.186,9.316,18.315,19.008
			c-3.368,0.96-6.303,1.451-9.139,1.451c-3.945,0-7.706-0.95-12.197-2.914c-8.144-3.566-13.087-8.179-16.794-15.925
			c-5.958,1.992-12.066,3.708-18.305,5.15c0.813,0.551,1.639,1.151,2.489,1.805c8.072,6.217,11.862,12.497,13.857,22.939
			c-0.581,0.019-1.15,0.029-1.702,0.029c-7.386,0-12.444-1.818-18.78-6.603c-5.847-4.426-9.479-9.022-11.7-15.127
			c-6.46,1.002-13.022,1.739-19.664,2.22c-3.189,0.227-6.139,0.803-8.921,1.645c12.854,8.489,24.193,20.353,36.408,28.118
			l-9.722,4.348c-12.748-8.101-21.93-19.665-33.511-27.047v44.832c1.454-0.032,2.895-0.08,4.341-0.142
			c52.133-2.237,101.946-22.974,140.247-58.104c24.423-22.412,44.168-50.679,56.835-83.736
			c43.691-114.023-13.318-241.881-127.345-285.575C554.732,219.471,529.724,214.731,505.037,214.169"/>
	</g>
	<rect x="505.037" y="340.502" fill="#E4B974" width="27.3" height="198.292"/>
	<g>
		<path fill="#F6BB3C" d="M552.322,236.957c-1.97,10.442-0.768,17.81,4.392,26.915c2.989,5.265,5.893,8.741,9.923,11.535
			c-2.65-0.775-5.327-1.5-8.042-2.156l-6.492,1.492c4.253,1.029,8.438,2.223,12.551,3.565c-6.565,1.238-11.683,4.41-17.015,10.29
			c-5.815,6.414-8.225,11.791-9.268,20.653c9.934-0.475,16.307-3.502,23.301-11.077c5.231-5.668,7.777-10.482,9.201-17.706
			c7.355,2.72,14.456,5.932,21.267,9.603c-5.707,0.237-10.753,2.234-16.384,6.272c-6.927,4.973-10.328,9.691-13.066,18.131
			c2.509,0.448,4.817,0.68,7.011,0.68c6.383,0,11.742-1.969,17.929-6.325c5.954-4.187,9.347-8.163,12.078-14.423
			c6.498,3.964,12.697,8.367,18.551,13.167c-1.309-0.202-2.606-0.305-3.908-0.305c-4.01,0-8.048,0.972-12.586,2.92
			c-7.741,3.313-11.99,7.173-16.301,14.826c4.635,1.954,8.703,2.93,12.77,2.93c4.049,0,8.1-0.97,12.717-2.902
			c6.561-2.737,10.633-5.831,14.475-11.225c5.661,5.23,10.944,10.861,15.807,16.862c-3.134-1.253-6.312-1.85-9.778-1.85
			c-2.179,0-4.471,0.234-6.939,0.688c-8.213,1.52-13.114,4.352-18.818,10.874c6.201,4.395,11.581,6.377,17.999,6.377
			c2.167,0,4.453-0.225,6.928-0.661c6.985-1.227,11.572-3.356,16.408-7.824c4.571,6.387,8.689,13.134,12.311,20.21
			c-4.645-3.225-9.725-4.72-16.318-4.99c-0.684-0.027-1.352-0.04-1.994-0.04c-7.228,0-12.242,1.792-18.526,6.481
			c6.978,7.592,13.343,10.637,23.275,11.147c0.854,0.043,1.679,0.065,2.477,0.065c5.814,0,10.216-1.181,15.158-4.104
			c3.157,7.189,5.817,14.677,7.938,22.433c-3.891-4.117-8.545-6.681-14.874-8.397c-3.261-0.883-6.109-1.335-8.855-1.335
			c-4.056,0-7.883,0.99-12.466,3.059c5.351,8.988,10.986,13.391,20.604,16.09c3.45,0.972,6.437,1.467,9.327,1.467
			c2.822,0,5.55-0.47,8.542-1.427c1.576,7.473,2.656,15.168,3.21,23.061c-2.973-4.592-6.938-7.965-12.561-10.937
			c-5.048-2.666-9.206-3.892-13.896-3.892c-2.251,0-4.633,0.283-7.294,0.829c3.497,9.979,8.152,15.543,17.036,20.331
			c5.312,2.864,9.604,4.15,14.61,4.15c0.819,0,1.661-0.036,2.529-0.103c0.011,1.27,0.011,2.545,0,3.825
			c-0.074,6.717-0.411,13.19-1,19.427c-2.015-5.155-5.236-9.343-10.165-13.499c-6.553-5.527-11.79-7.538-20.131-7.716
			c1.482,10.532,4.96,17.017,12.719,23.681c5.512,4.728,10.048,6.963,16.352,7.83c-1.295,8.957-3.137,17.39-5.484,25.309
			c-0.605-6.72-3.009-12.279-7.698-18.311c-5.338-6.871-10.072-10.007-18.197-12.044c-0.594,10.639,1.555,17.759,7.854,26.002
			c4.759,6.234,8.992,9.452,15.663,11.727c-3.23,9.211-7.185,17.679-11.779,25.452c1.301-7.69,0.145-14.221-3.66-21.964
			c-3.889-7.905-7.915-12.032-15.466-15.832c-2.645,10.275-1.922,17.71,2.637,27.187c3.544,7.364,7.167,11.485,13.584,15.287
			c-4.885,7.53-10.406,14.364-16.487,20.527c2.257-6.697,2.253-13.021,0.172-20.888c-2.271-8.604-5.41-13.533-12.054-18.929
			c-4.582,9.46-5.321,16.892-2.696,27.173c1.958,7.672,4.565,12.44,9.669,17.361c-5.533,5.048-11.467,9.605-17.757,13.688
			c2.197-5.033,2.935-10.385,2.518-17.051c-0.548-8.927-2.663-14.446-8.116-21.207c-6.316,8.227-8.477,15.337-7.908,25.978
			c0.387,7.169,1.746,12.133,4.974,17.406c-7.179,3.995-14.753,7.445-22.649,10.382c3.282-4.519,5.118-9.677,6.031-16.472
			c1.188-8.853,0.191-14.724-3.833-22.547c-7.775,6.639-11.271,13.114-12.773,23.648c-1.03,7.225-0.634,12.438,1.604,18.449
			c-9.896,3.108-20.237,5.474-30.902,7.155c7.943-4.198,12.465-9.677,15.83-18.97c3.015-8.335,3.274-14.303,0.998-22.905
			c-8.969,4.603-13.73,10.068-17.408,19.967c-3.006,8.105-3.431,13.924-1.589,22.245c-0.503,0.075-1.011,0.143-1.518,0.214
			c-0.074-0.001-0.143-0.004-0.222-0.004l0.007,0.034c-5.818,0.822-11.73,1.448-17.717,1.879c-5.55,0.399-10.723,1.809-15.624,3.904
			v11.754c11.581,7.382,20.763,18.946,33.514,27.047l9.719-4.348c-12.215-7.766-23.555-19.629-36.408-28.118
			c2.782-0.842,5.734-1.418,8.921-1.645c6.642-0.48,13.204-1.218,19.664-2.22c2.222,6.104,5.854,10.701,11.7,15.127
			c6.336,4.784,11.395,6.603,18.78,6.603c0.552,0,1.118-0.009,1.702-0.029c-1.995-10.442-5.785-16.723-13.857-22.939
			c-0.851-0.653-1.677-1.254-2.489-1.805c6.238-1.442,12.347-3.158,18.305-5.15c3.707,7.746,8.65,12.358,16.794,15.925
			c4.491,1.964,8.252,2.914,12.197,2.914c2.836,0,5.771-0.491,9.139-1.451c-4.13-9.691-9.141-14.891-18.315-19.008
			c-2.969-1.332-5.612-2.221-8.204-2.701c7.265-2.989,14.254-6.436,20.923-10.352c5.324,7.423,11.177,11.095,20.255,12.847
			c2.535,0.489,4.814,0.743,6.971,0.743c4.825,0,9.042-1.275,14.188-4.069c-5.923-8.554-11.833-12.529-21.604-14.503
			c-2.72-0.552-5.142-0.836-7.437-0.836c-1.216,0-2.392,0.079-3.564,0.243c6.406-4.373,12.459-9.237,18.106-14.602
			c5.97,5.183,11.866,7.335,19.869,7.335c0.524,0,1.06-0.011,1.607-0.028c8.336-0.286,13.551-2.356,20.047-7.957
			c-7.136-6.76-13.447-9.396-22.695-9.396c-0.412,0-0.828,0.004-1.247,0.015c-3.482,0.086-6.413,0.478-9.135,1.286
			c4.816-5.438,9.26-11.318,13.298-17.65c4.469,2.416,8.665,3.573,13.233,3.573c2.816,0,5.778-0.44,9.029-1.295
			c8.1-2.136,12.803-5.323,18.066-12.256c-5.719-3.461-10.68-5.094-16.179-5.096c-2.82,0-5.78,0.432-9.059,1.264
			c-3.591,0.906-6.516,2.011-9.138,3.544c3.432-6.504,6.467-13.423,9.059-20.775c3.168,0.982,6.103,1.48,8.986,1.48
			c4.643,0,9.135-1.291,14.209-3.92c7.51-3.895,11.488-8.057,15.295-16.014c-4.007-1.351-7.564-2.039-11.017-2.039
			c-4.709,0-9.224,1.283-14.414,3.911c-4.29,2.171-7.442,4.417-10.108,7.386c2.227-7.678,3.996-15.794,5.285-24.35
			c1.476,0.164,2.887,0.248,4.249,0.248c7.207,0,12.971-2.354,19.374-7.678c6.586-5.479,9.672-10.443,11.854-19.073
			c-1.574-0.16-3.073-0.243-4.502-0.243c-7.559,0-13.361,2.318-20.009,7.748c-4.896,3.998-7.895,7.685-10.113,12.771
			c0.989-8.189,1.552-16.764,1.646-25.742c0.01-0.837,0.003-1.667,0.003-2.502c9.556-0.999,15.808-4.567,22.118-12.576
			c5.384-6.826,7.438-12.373,7.896-21.297c-9.874,1.214-16.036,4.716-22.521,12.8c-4.202,5.235-6.433,9.68-7.571,15.532
			c-0.293-10-1.329-19.68-3.069-28.991c8.772-3.125,14.043-7.988,18.562-17.019c3.94-7.88,4.875-13.757,3.592-22.59
			c-9.42,3.394-14.771,8.19-19.544,17.535c-2.598,5.084-3.942,9.312-4.3,14.07c-2.066-8.792-4.776-17.23-8.081-25.274
			c7.553-4.922,11.616-10.794,14.211-20.363c2.326-8.586,2.101-14.553-0.863-22.906c-8.559,5.422-12.861,11.3-15.718,21.51
			c-1.338,4.785-1.897,8.74-1.657,12.77c-3.615-7.45-7.767-14.524-12.42-21.184c6.289-6.433,9.073-13.045,9.742-22.877
			c0.616-8.915-0.758-14.695-5.286-22.207c-7.322,7.208-10.385,13.928-11.199,24.546c-0.375,4.861-0.164,8.783,0.787,12.587
			c-4.989-6.231-10.457-12.042-16.361-17.406c5.045-7.801,6.531-14.945,5.272-24.827c-1.131-8.853-3.602-14.204-9.481-20.536
			c-5.767,8.684-7.464,15.926-6.197,26.502c0.63,5.286,1.725,9.322,3.7,13.107c-6.28-5.075-12.988-9.679-20.09-13.779
			c3.647-9.012,3.781-16.445,0.562-26.027c-2.819-8.417-6.272-13.096-13.255-17.982c-3.955,9.772-4.206,17.247-0.922,27.308
			c1.851,5.657,3.958,9.64,7.202,13.2c-7.427-3.845-15.25-7.16-23.425-9.909c1.901-9.771,0.621-17.131-4.437-25.883
			C564.387,243.995,560.102,240.18,552.322,236.957"/>
	</g>
</g>
</svg>
