<?xml version="1.0" encoding="utf-8"?>
<!-- Generator: Adobe Illustrator 16.0.0, SVG Export Plug-In . SVG Version: 6.00 Build 0)  -->
<!DOCTYPE svg PUBLIC "-//W3C//DTD SVG 1.1//EN" "http://www.w3.org/Graphics/SVG/1.1/DTD/svg11.dtd">
<svg version="1.1" id="Layer_1" xmlns="http://www.w3.org/2000/svg" xmlns:xlink="http://www.w3.org/1999/xlink" x="0px" y="0px"
	 width="1000px" height="1000px" viewBox="0 0 1000 1000" enable-background="new 0 0 1000 1000" xml:space="preserve">
<circle fill="#2080AB" cx="500" cy="502.999" r="473.937"/>
<circle fill="#27AAE1" cx="500" cy="500" r="418.439"/>
<circle fill="none" cx="453" cy="473" r="329"/>
<text transform="matrix(0.3748 -0.9271 0.9271 0.3748 139.3784 370.7427)" display="none" opacity="0.9"><tspan x="0" y="0" display="inline" fill="#FFFFFF" font-family="'Calibri-Bold'" font-size="85">P</tspan><tspan x="44.939" y="-0.496" display="inline" fill="#FFFFFF" font-family="'Calibri-Bold'" font-size="85" rotate="8.901">o</tspan><tspan x="101.301" y="8.794" display="inline" fill="#FFFFFF" font-family="'Calibri-Bold'" font-size="85" rotate="17.725">c</tspan><tspan x="144.049" y="22.106" display="inline" fill="#FFFFFF" font-family="'Calibri-Bold'" font-size="85" rotate="26.204">h</tspan><tspan x="191.828" y="45.392" display="inline" fill="#FFFFFF" font-family="'Calibri-Bold'" font-size="85" rotate="35.736">o</tspan><tspan x="237.939" y="79.116" display="inline" fill="#FFFFFF" font-family="'Calibri-Bold'" font-size="85" rotate="44.631">p</tspan><tspan x="269.896" y="111.598" display="inline" fill="#FFFFFF" font-family="'Calibri-Bold'" font-size="85" rotate="50.341"> </tspan><tspan x="282.689" y="126.981" display="inline" fill="#FFFFFF" font-family="'Calibri-Bold'" font-size="85" rotate="54.154">i</tspan><tspan x="296.845" y="144.885" display="inline" fill="#FFFFFF" font-family="'Calibri-Bold'" font-size="85" rotate="61.034">n</tspan><tspan x="323.322" y="193.955" display="inline" fill="#FFFFFF" font-family="'Calibri-Bold'" font-size="85" rotate="69.164">f</tspan><tspan x="337.796" y="230.036" display="inline" fill="#FFFFFF" font-family="'Calibri-Bold'" font-size="85" rotate="77.472">o</tspan><tspan x="349.832" y="285.804" display="inline" fill="#FFFFFF" font-family="'Calibri-Bold'" font-size="85" rotate="86.614">r</tspan><tspan x="353.889" y="332.94" display="inline" fill="#FFFFFF" font-family="'Calibri-Bold'" font-size="85" rotate="97.159">m</tspan><tspan x="343.734" y="405.73" display="inline" fill="#FFFFFF" font-family="'Calibri-Bold'" font-size="85" rotate="107.934">a</tspan><tspan x="327.622" y="454.47" display="inline" fill="#FFFFFF" font-family="'Calibri-Bold'" font-size="85" rotate="115.995">t</tspan><tspan x="308.593" y="492.366" display="inline" fill="#FFFFFF" font-family="'Calibri-Bold'" font-size="85" rotate="121.66">i</tspan><tspan x="297.052" y="512.25" display="inline" fill="#FFFFFF" font-family="'Calibri-Bold'" font-size="85" rotate="127.718">k</tspan><tspan x="269.098" y="549.01" display="inline" fill="#FFFFFF" font-family="'Calibri-Bold'" font-size="85" rotate="136.558">u</tspan></text>
<g opacity="0.9">
	<path fill="#FFFFFF" d="M169.609,340.171c2.782,1.165,5.063,2.63,6.844,4.395c1.781,1.766,3.058,3.785,3.831,6.058
		c0.773,2.274,1.038,4.776,0.794,7.509c-0.244,2.732-1.05,5.732-2.417,8.999l-1.73,4.135l15.812,6.618
		c0.255,0.107,0.451,0.287,0.585,0.538c0.135,0.252,0.186,0.595,0.153,1.031c-0.032,0.437-0.145,0.99-0.335,1.66
		c-0.19,0.67-0.494,1.503-0.911,2.499c-0.406,0.97-0.783,1.764-1.132,2.383c-0.349,0.619-0.667,1.093-0.955,1.422
		c-0.288,0.33-0.566,0.528-0.834,0.596c-0.268,0.068-0.53,0.048-0.785-0.059l-44.564-18.653c-1.199-0.502-1.968-1.191-2.306-2.067
		s-0.294-1.825,0.134-2.846l4.888-11.677c0.491-1.173,1.003-2.271,1.536-3.294c0.533-1.021,1.256-2.211,2.168-3.569
		c0.914-1.357,2.083-2.629,3.51-3.817c1.427-1.187,2.971-2.063,4.632-2.628c1.661-0.564,3.42-0.788,5.275-0.671
		C165.657,338.848,167.594,339.328,169.609,340.171z M165.93,351.004c-1.735-0.726-3.293-1.018-4.673-0.876
		c-1.379,0.143-2.524,0.548-3.434,1.217c-0.91,0.669-1.641,1.466-2.192,2.389c-0.551,0.924-1.046,1.91-1.484,2.956l-1.795,4.288
		l16.808,7.035l1.891-4.518c0.673-1.608,1.02-3.045,1.04-4.312c0.02-1.266-0.214-2.407-0.705-3.422
		c-0.49-1.015-1.202-1.927-2.138-2.739C168.312,352.212,167.207,351.539,165.93,351.004z"/>
	<path fill="#FFFFFF" d="M209.524,291.765c3.794,2.335,6.897,4.895,9.31,7.678c2.413,2.785,4.089,5.75,5.029,8.894
		c0.94,3.145,1.113,6.428,0.52,9.847c-0.594,3.42-2,6.932-4.219,10.538c-2.189,3.559-4.566,6.376-7.128,8.455
		c-2.562,2.078-5.341,3.414-8.337,4.006c-2.997,0.593-6.239,0.425-9.729-0.504c-3.489-0.929-7.249-2.633-11.278-5.113
		c-3.699-2.276-6.738-4.796-9.116-7.559c-2.377-2.762-4.03-5.712-4.958-8.851c-0.928-3.137-1.101-6.419-0.519-9.847
		c0.582-3.426,1.989-6.955,4.223-10.584c2.131-3.464,4.473-6.239,7.023-8.324s5.327-3.43,8.331-4.035
		c3.003-0.604,6.24-0.465,9.708,0.418C201.852,287.669,205.565,289.328,209.524,291.765z M204.016,301.825
		c-2.404-1.479-4.706-2.635-6.905-3.469c-2.199-0.833-4.28-1.228-6.24-1.184c-1.96,0.045-3.788,0.585-5.481,1.622
		c-1.694,1.037-3.237,2.686-4.629,4.948c-1.407,2.286-2.151,4.459-2.233,6.521c-0.083,2.062,0.305,4.005,1.162,5.832
		c0.857,1.828,2.127,3.526,3.808,5.097c1.682,1.571,3.594,3.016,5.738,4.335c2.498,1.538,4.858,2.73,7.082,3.579
		c2.224,0.849,4.317,1.26,6.283,1.234c1.965-0.025,3.782-0.564,5.453-1.615c1.67-1.051,3.209-2.72,4.616-5.006
		c1.406-2.285,2.157-4.455,2.251-6.509c0.094-2.054-0.299-4.001-1.18-5.843c-0.881-1.841-2.174-3.555-3.879-5.14
		C208.155,304.641,206.207,303.173,204.016,301.825z"/>
	<path fill="#FFFFFF" d="M256.563,265.871c0.527,0.449,0.961,0.846,1.302,1.191c0.342,0.346,0.617,0.663,0.827,0.95
		c0.21,0.288,0.364,0.565,0.464,0.832c0.1,0.267,0.172,0.62,0.217,1.057c0.044,0.438-0.026,1.15-0.212,2.137
		c-0.187,0.986-0.514,2.107-0.983,3.361c-0.469,1.255-1.113,2.596-1.93,4.026c-0.818,1.429-1.837,2.86-3.058,4.292
		c-2.387,2.801-4.972,4.961-7.755,6.479c-2.784,1.518-5.707,2.335-8.769,2.453c-3.062,0.117-6.237-0.497-9.524-1.844
		c-3.287-1.347-6.637-3.474-10.049-6.381c-3.476-2.96-6.166-6.052-8.073-9.276c-1.906-3.223-3.067-6.448-3.481-9.673
		c-0.415-3.225-0.105-6.405,0.93-9.54c1.035-3.135,2.746-6.103,5.132-8.904c0.969-1.137,1.997-2.151,3.083-3.043
		c1.087-0.891,2.165-1.654,3.232-2.29c1.068-0.635,2.107-1.14,3.117-1.515c1.01-0.375,1.779-0.584,2.306-0.626
		c0.526-0.042,0.929-0.035,1.208,0.021c0.279,0.057,0.594,0.179,0.942,0.367c0.349,0.188,0.737,0.437,1.164,0.746
		c0.427,0.31,0.936,0.716,1.525,1.218c0.632,0.539,1.151,1.017,1.558,1.436c0.406,0.419,0.702,0.798,0.886,1.136
		c0.184,0.339,0.276,0.636,0.277,0.891c0,0.255-0.08,0.478-0.241,0.667c-0.269,0.316-0.794,0.56-1.576,0.729
		c-0.781,0.171-1.726,0.447-2.833,0.83c-1.108,0.383-2.299,0.95-3.574,1.699c-1.274,0.75-2.54,1.862-3.796,3.336
		c-1.382,1.622-2.284,3.353-2.706,5.192c-0.422,1.84-0.398,3.732,0.071,5.676c0.469,1.945,1.381,3.894,2.734,5.847
		c1.354,1.953,3.125,3.862,5.316,5.728c2.401,2.046,4.692,3.571,6.872,4.574c2.18,1.004,4.229,1.531,6.147,1.584
		s3.708-0.33,5.369-1.15c1.662-0.82,3.183-2.04,4.565-3.662c1.256-1.474,2.168-2.897,2.735-4.267
		c0.568-1.37,0.968-2.619,1.202-3.747c0.234-1.127,0.393-2.083,0.478-2.865c0.085-0.781,0.244-1.31,0.477-1.583
		c0.179-0.21,0.365-0.343,0.557-0.398s0.45-0.016,0.774,0.115c0.324,0.131,0.731,0.369,1.22,0.712
		C255.181,264.73,255.804,265.225,256.563,265.871z"/>
	<path fill="#FFFFFF" d="M298.645,237.072c0.182,0.208,0.278,0.456,0.288,0.74c0.01,0.286-0.096,0.616-0.318,0.993
		c-0.221,0.377-0.566,0.824-1.033,1.341c-0.467,0.518-1.096,1.122-1.889,1.813c-0.813,0.709-1.513,1.265-2.099,1.666
		c-0.586,0.401-1.076,0.682-1.469,0.841c-0.393,0.16-0.73,0.215-1.012,0.166c-0.281-0.048-0.512-0.177-0.694-0.385L276.15,227.89
		l-15.138,13.205l14.269,16.358c0.182,0.208,0.283,0.451,0.303,0.727c0.021,0.276-0.08,0.603-0.302,0.979
		c-0.221,0.377-0.566,0.825-1.033,1.341c-0.467,0.518-1.106,1.131-1.92,1.84c-0.792,0.691-1.481,1.237-2.068,1.638
		c-0.586,0.401-1.081,0.687-1.485,0.855c-0.404,0.169-0.746,0.229-1.027,0.18c-0.281-0.048-0.512-0.177-0.694-0.386l-33.339-38.221
		c-0.182-0.208-0.278-0.455-0.288-0.74c-0.01-0.285,0.096-0.616,0.318-0.993c0.222-0.377,0.571-0.829,1.048-1.355
		c0.478-0.526,1.112-1.135,1.904-1.826c0.813-0.709,1.508-1.26,2.083-1.652s1.066-0.672,1.47-0.841
		c0.404-0.168,0.741-0.224,1.011-0.166c0.271,0.058,0.497,0.191,0.679,0.399l12.959,14.856l15.138-13.205l-12.959-14.856
		c-0.182-0.208-0.278-0.455-0.288-0.74c-0.01-0.285,0.091-0.611,0.302-0.979c0.211-0.368,0.556-0.815,1.033-1.341
		c0.478-0.526,1.123-1.145,1.936-1.854c0.792-0.691,1.477-1.233,2.052-1.625s1.066-0.672,1.47-0.841
		c0.404-0.168,0.746-0.228,1.027-0.18c0.281,0.049,0.513,0.178,0.694,0.386L298.645,237.072z"/>
	<path fill="#FFFFFF" d="M335.363,182.722c2.332,3.796,3.945,7.481,4.84,11.055c0.896,3.574,1.053,6.976,0.472,10.206
		c-0.582,3.231-1.909,6.238-3.982,9.021c-2.074,2.783-4.914,5.282-8.521,7.498c-3.561,2.187-6.953,3.628-10.177,4.326
		c-3.225,0.697-6.308,0.634-9.249-0.19c-2.941-0.824-5.759-2.438-8.453-4.842c-2.694-2.404-5.279-5.623-7.755-9.654
		c-2.273-3.702-3.847-7.322-4.721-10.86c-0.874-3.538-1.017-6.917-0.428-10.135c0.588-3.218,1.916-6.225,3.982-9.021
		c2.066-2.795,4.915-5.308,8.546-7.538c3.466-2.128,6.808-3.547,10.025-4.256c3.217-0.709,6.302-0.656,9.255,0.161
		c2.953,0.816,5.777,2.402,8.474,4.756C330.366,175.604,332.931,178.761,335.363,182.722z M325.906,189.212
		c-1.477-2.405-3.009-4.476-4.595-6.213c-1.586-1.737-3.265-3.028-5.034-3.874c-1.769-0.845-3.644-1.188-5.623-1.027
		c-1.979,0.161-4.101,0.936-6.365,2.325c-2.287,1.405-3.933,3.008-4.937,4.81c-1.004,1.802-1.536,3.712-1.596,5.729
		c-0.06,2.018,0.306,4.107,1.097,6.267c0.791,2.161,1.845,4.314,3.163,6.459c1.535,2.5,3.103,4.629,4.704,6.39
		c1.601,1.761,3.283,3.073,5.048,3.938c1.765,0.865,3.629,1.205,5.595,1.021c1.965-0.184,4.091-0.978,6.378-2.383
		c2.287-1.404,3.936-3.001,4.948-4.792c1.011-1.79,1.54-3.705,1.585-5.747c0.045-2.041-0.335-4.153-1.14-6.337
		C328.328,193.593,327.252,191.404,325.906,189.212z"/>
	<path fill="#FFFFFF" d="M377.408,154.045c1.162,2.784,1.756,5.429,1.784,7.936c0.027,2.507-0.483,4.841-1.529,7.002
		c-1.047,2.161-2.617,4.128-4.71,5.901c-2.093,1.773-4.774,3.342-8.042,4.706l-4.136,1.727l6.603,15.818
		c0.106,0.255,0.12,0.52,0.039,0.793c-0.081,0.274-0.286,0.554-0.615,0.842c-0.33,0.288-0.798,0.603-1.404,0.946
		c-0.606,0.343-1.407,0.723-2.403,1.138c-0.971,0.405-1.797,0.705-2.48,0.9s-1.243,0.31-1.679,0.341
		c-0.436,0.032-0.773-0.021-1.012-0.162c-0.238-0.14-0.411-0.338-0.518-0.594l-18.61-44.582c-0.501-1.2-0.564-2.23-0.189-3.092
		c0.375-0.861,1.073-1.505,2.095-1.931l11.682-4.876c1.174-0.49,2.311-0.912,3.408-1.265c1.097-0.353,2.447-0.691,4.05-1.016
		c1.604-0.324,3.331-0.408,5.18-0.251c1.849,0.158,3.564,0.619,5.143,1.384c1.579,0.765,2.987,1.841,4.226,3.228
		C375.525,150.327,376.566,152.028,377.408,154.045z M367.179,159.169c-0.725-1.736-1.628-3.038-2.709-3.906
		c-1.082-0.868-2.182-1.383-3.299-1.546c-1.118-0.163-2.197-0.109-3.239,0.16c-1.042,0.271-2.086,0.624-3.133,1.061l-4.29,1.791
		l7.019,16.814l4.519-1.887c1.609-0.672,2.865-1.45,3.769-2.338c0.904-0.887,1.539-1.864,1.902-2.931
		c0.365-1.066,0.499-2.216,0.403-3.452C368.026,161.702,367.712,160.447,367.179,159.169z"/>
	<path fill="#FFFFFF" d="M429.918,176.905c0.063,0.27,0.032,0.533-0.093,0.789c-0.125,0.257-0.374,0.5-0.746,0.728
		c-0.373,0.229-0.887,0.463-1.542,0.701c-0.655,0.238-1.507,0.48-2.558,0.725c-1.024,0.239-1.889,0.398-2.595,0.478
		c-0.706,0.08-1.276,0.1-1.712,0.059c-0.436-0.04-0.766-0.147-0.991-0.323c-0.226-0.174-0.37-0.396-0.433-0.666l-11.528-49.39
		c-0.063-0.269-0.032-0.532,0.093-0.789c0.125-0.256,0.38-0.5,0.767-0.733c0.386-0.232,0.907-0.467,1.562-0.706
		c0.654-0.238,1.494-0.476,2.518-0.715c1.051-0.245,1.922-0.406,2.615-0.482c0.692-0.077,1.257-0.094,1.692-0.054
		c0.436,0.041,0.766,0.148,0.992,0.323c0.225,0.175,0.37,0.397,0.433,0.666L429.918,176.905z"/>
	<path fill="#FFFFFF" d="M485.301,166.769c0.07,0.633,0.021,1.208-0.144,1.728c-0.167,0.52-0.417,0.964-0.751,1.335
		c-0.335,0.371-0.749,0.66-1.241,0.867c-0.493,0.207-1,0.339-1.522,0.396l-4.621,0.507c-0.963,0.106-1.805,0.101-2.528-0.015
		c-0.722-0.115-1.407-0.395-2.054-0.839c-0.648-0.444-1.294-1.069-1.938-1.875c-0.646-0.806-1.388-1.858-2.226-3.159l-16.023-23.502
		c-0.934-1.4-1.893-2.917-2.879-4.548c-0.987-1.631-1.885-3.223-2.695-4.777l-0.083,0.009c0.327,1.968,0.626,3.933,0.897,5.893
		c0.271,1.961,0.521,3.986,0.75,6.077l3.064,27.93c0.03,0.275-0.019,0.531-0.146,0.768c-0.127,0.237-0.368,0.451-0.723,0.643
		c-0.354,0.192-0.844,0.364-1.467,0.516c-0.624,0.152-1.43,0.282-2.42,0.391c-0.963,0.105-1.765,0.152-2.407,0.139
		c-0.642-0.013-1.15-0.075-1.523-0.188c-0.375-0.112-0.642-0.27-0.804-0.476c-0.162-0.205-0.258-0.445-0.288-0.72l-5.265-47.981
		c-0.142-1.292,0.129-2.303,0.815-3.033c0.685-0.729,1.578-1.155,2.678-1.275l5.817-0.638c1.045-0.115,1.935-0.122,2.669-0.021
		c0.735,0.101,1.407,0.326,2.016,0.676c0.608,0.351,1.201,0.864,1.776,1.538c0.575,0.675,1.183,1.52,1.823,2.535l12.538,18.374
		c0.735,1.116,1.46,2.213,2.177,3.289c0.717,1.077,1.412,2.156,2.088,3.236c0.675,1.082,1.334,2.144,1.978,3.186
		c0.643,1.043,1.273,2.087,1.889,3.133l0.042-0.004c-0.294-1.916-0.576-3.917-0.847-6.003c-0.271-2.085-0.51-4.078-0.718-5.976
		l-2.748-25.042c-0.03-0.274,0.025-0.531,0.166-0.77c0.141-0.238,0.395-0.46,0.762-0.668c0.367-0.207,0.863-0.38,1.488-0.518
		c0.625-0.138,1.433-0.262,2.423-0.37c0.935-0.103,1.723-0.154,2.363-0.155c0.64,0,1.141,0.063,1.503,0.19
		c0.362,0.127,0.623,0.294,0.785,0.499c0.162,0.206,0.258,0.445,0.288,0.72L485.301,166.769z"/>
	<path fill="#FFFFFF" d="M528.936,122.513c-0.025,0.83-0.084,1.527-0.17,2.091c-0.088,0.565-0.215,1.011-0.377,1.337
		c-0.162,0.327-0.344,0.57-0.543,0.73s-0.422,0.235-0.672,0.228l-17.547-0.57l-0.469,14.436l16.469,0.534
		c0.25,0.008,0.469,0.085,0.658,0.229c0.188,0.145,0.354,0.385,0.494,0.722c0.143,0.337,0.238,0.783,0.289,1.338
		c0.051,0.556,0.064,1.248,0.037,2.077s-0.084,1.52-0.172,2.071c-0.086,0.551-0.213,1.004-0.375,1.358
		c-0.164,0.354-0.346,0.605-0.545,0.75c-0.197,0.146-0.422,0.215-0.67,0.207l-16.469-0.535l-0.648,19.995
		c-0.01,0.304-0.102,0.564-0.275,0.78c-0.174,0.216-0.477,0.394-0.91,0.531c-0.434,0.138-0.998,0.237-1.691,0.298
		s-1.58,0.073-2.658,0.039c-1.051-0.034-1.928-0.104-2.63-0.21c-0.703-0.106-1.259-0.242-1.668-0.407
		c-0.41-0.165-0.702-0.361-0.874-0.589c-0.173-0.227-0.254-0.493-0.244-0.797l1.58-48.659c0.04-1.217,0.379-2.085,1.019-2.604
		s1.416-0.764,2.328-0.734l25.264,0.82c0.248,0.008,0.467,0.092,0.656,0.25c0.188,0.158,0.352,0.413,0.494,0.763
		c0.141,0.351,0.236,0.817,0.287,1.4C528.951,120.977,528.963,121.684,528.936,122.513z"/>
	<path fill="#FFFFFF" d="M587.756,153.476c-0.779,4.387-2.021,8.213-3.725,11.479c-1.705,3.267-3.848,5.914-6.428,7.943
		s-5.57,3.395-8.969,4.098s-7.182,0.685-11.35-0.056c-4.114-0.731-7.607-1.907-10.481-3.527s-5.136-3.715-6.787-6.285
		c-1.651-2.569-2.686-5.647-3.103-9.234c-0.417-3.587-0.211-7.709,0.616-12.368c0.76-4.277,1.987-8.028,3.685-11.254
		c1.696-3.225,3.834-5.845,6.413-7.861c2.577-2.015,5.566-3.38,8.969-4.098c3.4-0.716,7.199-0.703,11.395,0.042
		c4.005,0.711,7.445,1.871,10.321,3.478c2.876,1.606,5.146,3.696,6.812,6.268c1.665,2.572,2.723,5.634,3.174,9.184
		C588.749,144.835,588.568,148.899,587.756,153.476z M576.376,152.044c0.493-2.779,0.724-5.344,0.692-7.696
		c-0.032-2.352-0.429-4.432-1.189-6.239c-0.761-1.807-1.935-3.308-3.521-4.503c-1.587-1.195-3.688-2.025-6.303-2.489
		c-2.643-0.47-4.938-0.364-6.885,0.315c-1.948,0.68-3.614,1.754-4.998,3.222c-1.386,1.469-2.5,3.273-3.344,5.413
		c-0.844,2.141-1.486,4.451-1.926,6.93c-0.514,2.888-0.757,5.521-0.729,7.901s0.413,4.478,1.158,6.296
		c0.745,1.819,1.913,3.312,3.504,4.479c1.591,1.168,3.708,1.986,6.351,2.456c2.643,0.469,4.936,0.371,6.882-0.295
		c1.944-0.667,3.611-1.747,5.002-3.243c1.389-1.495,2.509-3.327,3.357-5.495C575.276,156.929,575.926,154.578,576.376,152.044z"/>
	<path fill="#FFFFFF" d="M629.37,195.093c-0.101,0.288-0.237,0.511-0.41,0.67c-0.173,0.159-0.478,0.236-0.915,0.23
		c-0.438-0.006-1.044-0.115-1.82-0.327c-0.776-0.212-1.817-0.546-3.123-1.001c-1.098-0.383-1.964-0.714-2.599-0.994
		c-0.635-0.28-1.117-0.558-1.445-0.833c-0.329-0.275-0.533-0.552-0.612-0.829c-0.079-0.276-0.117-0.59-0.111-0.94l-0.598-12.911
		c-0.103-1.471-0.242-2.794-0.418-3.97c-0.177-1.175-0.469-2.208-0.876-3.097c-0.408-0.89-0.971-1.649-1.688-2.281
		c-0.718-0.631-1.625-1.138-2.723-1.521l-3.214-1.121l-6.735,19.321c-0.092,0.261-0.259,0.467-0.501,0.617
		c-0.243,0.15-0.583,0.222-1.021,0.215c-0.438-0.005-0.997-0.083-1.677-0.233c-0.681-0.149-1.53-0.401-2.549-0.757
		c-0.993-0.346-1.809-0.674-2.448-0.985c-0.639-0.311-1.132-0.599-1.478-0.867c-0.347-0.267-0.562-0.532-0.646-0.796
		c-0.084-0.264-0.08-0.526,0.011-0.788l16.055-46.048c0.401-1.149,0.984-1.876,1.75-2.181s1.579-0.307,2.441-0.006l13.129,4.577
		c1.332,0.465,2.42,0.874,3.265,1.226c0.844,0.354,1.604,0.691,2.283,1.016c1.938,0.998,3.6,2.134,4.986,3.409
		s2.451,2.679,3.191,4.211s1.139,3.182,1.198,4.945c0.059,1.764-0.262,3.652-0.964,5.664c-0.592,1.699-1.347,3.171-2.266,4.418
		c-0.918,1.248-1.987,2.274-3.205,3.08c-1.22,0.806-2.584,1.4-4.094,1.782c-1.511,0.382-3.136,0.548-4.877,0.498
		c0.63,0.63,1.188,1.322,1.672,2.077c0.483,0.755,0.89,1.607,1.219,2.557c0.328,0.95,0.587,1.993,0.777,3.128
		c0.189,1.136,0.323,2.392,0.4,3.766l0.788,11.483c0.045,1.13,0.054,1.946,0.025,2.448
		C629.521,194.45,629.461,194.833,629.37,195.093z M628.081,156.052c0.583-1.672,0.696-3.215,0.339-4.629
		c-0.357-1.414-1.315-2.656-2.876-3.728c-0.477-0.313-1.034-0.625-1.674-0.935c-0.639-0.311-1.546-0.671-2.722-1.081l-4.624-1.612
		l-5.015,14.383l5.251,1.831c1.463,0.51,2.805,0.78,4.025,0.81s2.308-0.147,3.263-0.533c0.954-0.385,1.77-0.958,2.445-1.719
		C627.169,158.079,627.698,157.149,628.081,156.052z"/>
	<path fill="#FFFFFF" d="M690.995,228.441c-0.137,0.241-0.327,0.419-0.568,0.535c-0.243,0.117-0.572,0.136-0.988,0.057
		c-0.418-0.079-0.935-0.248-1.553-0.505c-0.617-0.257-1.371-0.641-2.259-1.148c-0.865-0.495-1.565-0.943-2.101-1.344
		c-0.535-0.402-0.937-0.759-1.204-1.071s-0.419-0.605-0.452-0.88c-0.035-0.274,0.017-0.532,0.154-0.772l21.696-37.938l-0.072-0.041
		l-35.187,30.175c-0.274,0.257-0.578,0.427-0.911,0.507c-0.333,0.081-0.72,0.075-1.161-0.019c-0.44-0.093-0.96-0.286-1.557-0.58
		c-0.597-0.293-1.305-0.674-2.12-1.141c-0.817-0.467-1.496-0.896-2.039-1.285c-0.542-0.39-0.961-0.757-1.258-1.102
		c-0.297-0.345-0.498-0.675-0.604-0.991s-0.12-0.626-0.041-0.932l8.633-45.36l-0.071-0.042L645.636,202.5
		c-0.138,0.241-0.327,0.419-0.569,0.536s-0.577,0.132-1.006,0.046c-0.43-0.086-0.947-0.254-1.553-0.505
		c-0.605-0.25-1.353-0.63-2.241-1.138c-0.864-0.495-1.564-0.943-2.1-1.344c-0.535-0.402-0.943-0.762-1.223-1.082
		s-0.431-0.613-0.452-0.88c-0.022-0.268,0.035-0.521,0.172-0.762l23.757-41.541c0.7-1.225,1.561-1.977,2.58-2.254
		c1.02-0.278,2.069-0.107,3.15,0.511l6.196,3.544c1.104,0.631,2.003,1.264,2.692,1.898c0.689,0.633,1.202,1.325,1.538,2.075
		c0.336,0.75,0.5,1.577,0.493,2.481s-0.154,1.943-0.443,3.117l-5.798,33.547l0.145,0.083l26.292-21.731
		c0.889-0.83,1.719-1.487,2.49-1.971c0.771-0.483,1.525-0.801,2.266-0.952c0.739-0.151,1.497-0.124,2.272,0.081
		s1.607,0.561,2.496,1.069l6.377,3.647c0.648,0.371,1.159,0.774,1.531,1.21c0.372,0.437,0.615,0.902,0.73,1.398
		s0.116,1.022,0.005,1.581c-0.112,0.558-0.34,1.137-0.683,1.737L690.995,228.441z"/>
	<path fill="#FFFFFF" d="M734.671,262.426c-0.396,0.973-0.75,1.707-1.064,2.203s-0.683,0.755-1.103,0.778
		c-0.42,0.022-0.947-0.191-1.581-0.642c-0.633-0.451-1.466-1.117-2.496-1.998c-1.072-0.917-1.895-1.648-2.467-2.192
		s-0.976-0.999-1.21-1.363c-0.235-0.364-0.344-0.684-0.325-0.96c0.018-0.276,0.101-0.587,0.251-0.932l4.269-10.548l-15.329-13.11
		l-9.411,5.768c-0.337,0.223-0.658,0.375-0.965,0.458c-0.309,0.083-0.664,0.052-1.067-0.093c-0.403-0.146-0.902-0.436-1.495-0.87
		c-0.594-0.435-1.343-1.039-2.247-1.812c-0.967-0.827-1.697-1.506-2.189-2.037c-0.493-0.531-0.741-1.007-0.744-1.429
		c-0.004-0.421,0.215-0.826,0.655-1.214s1.102-0.841,1.984-1.362l43.552-25.448c0.433-0.25,0.826-0.413,1.184-0.49
		c0.357-0.077,0.769-0.016,1.236,0.183c0.466,0.199,1.039,0.562,1.719,1.087c0.679,0.526,1.555,1.248,2.627,2.165
		c1.24,1.061,2.215,1.921,2.924,2.583c0.709,0.661,1.22,1.225,1.53,1.691c0.312,0.466,0.457,0.892,0.438,1.275
		c-0.02,0.384-0.137,0.831-0.352,1.337L734.671,262.426z M741.533,216.469l-0.031-0.027l-20.608,12.412l11.576,9.9L741.533,216.469z
		"/>
	<path fill="#FFFFFF" d="M792.764,259.648c-0.592,0.542-1.12,0.979-1.585,1.312c-0.465,0.332-0.871,0.564-1.22,0.696
		s-0.653,0.177-0.916,0.136c-0.263-0.041-0.479-0.153-0.646-0.336l-9.086-9.913l-31.912,29.25c-0.204,0.187-0.449,0.289-0.733,0.306
		c-0.285,0.017-0.618-0.081-1-0.293c-0.383-0.212-0.843-0.551-1.381-1.015c-0.538-0.464-1.162-1.083-1.873-1.858
		c-0.71-0.775-1.273-1.451-1.688-2.027c-0.416-0.576-0.713-1.063-0.892-1.463c-0.178-0.399-0.247-0.74-0.205-1.022
		s0.165-0.517,0.369-0.704l31.911-29.25l-9.086-9.913c-0.187-0.204-0.285-0.434-0.293-0.688c-0.009-0.255,0.067-0.55,0.229-0.886
		c0.161-0.336,0.428-0.721,0.8-1.155c0.37-0.434,0.853-0.922,1.444-1.464c0.611-0.561,1.155-1.012,1.63-1.354
		s0.887-0.578,1.235-0.71c0.349-0.131,0.645-0.177,0.888-0.137c0.242,0.04,0.458,0.162,0.645,0.366l25.576,27.904
		c0.168,0.184,0.266,0.403,0.294,0.659c0.028,0.256-0.039,0.552-0.2,0.888c-0.161,0.335-0.433,0.725-0.814,1.169
		C793.872,258.584,793.376,259.087,792.764,259.648z"/>
	<path fill="#FFFFFF" d="M767.936,306.395c-0.222,0.166-0.476,0.243-0.76,0.232c-0.285-0.012-0.607-0.142-0.967-0.391
		c-0.36-0.249-0.78-0.626-1.262-1.129c-0.481-0.504-1.045-1.188-1.692-2.051c-0.631-0.842-1.124-1.569-1.48-2.184
		c-0.356-0.615-0.604-1.129-0.742-1.544c-0.139-0.415-0.173-0.761-0.104-1.038s0.215-0.498,0.437-0.664l40.588-30.413
		c0.221-0.166,0.474-0.243,0.759-0.232s0.611,0.146,0.979,0.407c0.368,0.26,0.793,0.642,1.273,1.146
		c0.481,0.503,1.037,1.176,1.668,2.018c0.647,0.864,1.145,1.597,1.493,2.201c0.349,0.603,0.592,1.112,0.729,1.527
		c0.138,0.416,0.173,0.761,0.104,1.038s-0.215,0.499-0.436,0.664L767.936,306.395z"/>
	<path fill="#FFFFFF" d="M795.391,349.745c-0.262,0.156-0.532,0.228-0.812,0.218c-0.28-0.01-0.596-0.161-0.945-0.451
		c-0.351-0.291-0.753-0.735-1.206-1.334c-0.454-0.599-0.972-1.386-1.552-2.361c-0.921-1.545-1.523-2.691-1.809-3.44
		c-0.285-0.748-0.397-1.342-0.336-1.78c0.06-0.439,0.207-0.841,0.441-1.205l13.583-26.986l-21.891,13.045
		c-0.262,0.156-0.53,0.219-0.805,0.189c-0.275-0.029-0.585-0.183-0.928-0.462c-0.344-0.278-0.728-0.694-1.153-1.245
		c-0.425-0.552-0.914-1.292-1.467-2.218c-0.538-0.904-0.952-1.679-1.242-2.328c-0.289-0.649-0.476-1.19-0.557-1.625
		c-0.082-0.435-0.074-0.786,0.024-1.054c0.098-0.268,0.277-0.479,0.539-0.635l43.461-25.899c0.262-0.156,0.533-0.213,0.816-0.172
		c0.281,0.041,0.588,0.205,0.92,0.49c0.331,0.286,0.713,0.71,1.146,1.274s0.918,1.297,1.456,2.2c0.553,0.927,0.97,1.708,1.253,2.346
		c0.282,0.636,0.471,1.169,0.564,1.596s0.088,0.769-0.017,1.025c-0.106,0.256-0.289,0.462-0.551,0.618l-19.645,11.707l27.662,1.827
		c0.407-0.018,0.783,0.032,1.127,0.149c0.344,0.117,0.688,0.331,1.034,0.64c0.345,0.309,0.719,0.747,1.121,1.313
		c0.4,0.565,0.878,1.312,1.431,2.239c0.566,0.95,0.998,1.756,1.295,2.417c0.297,0.66,0.489,1.213,0.579,1.66
		c0.089,0.446,0.08,0.797-0.024,1.053c-0.105,0.256-0.277,0.455-0.515,0.596c-0.404,0.241-0.884,0.382-1.438,0.423
		c-0.556,0.041-1.475,0.041-2.755-0.001l-24.121-2.777l-12.635,26.227c-0.664,1.104-1.123,1.805-1.381,2.103
		C795.805,349.425,795.581,349.631,795.391,349.745z"/>
	<path fill="#FFFFFF" d="M831.669,388.884c-3.05,1.241-5.962,1.902-8.736,1.985c-2.774,0.083-5.349-0.408-7.723-1.473
		c-2.376-1.065-4.521-2.702-6.434-4.911c-1.914-2.208-3.549-4.979-4.904-8.311c-1.272-3.127-2.022-6.093-2.252-8.896
		c-0.23-2.804,0.1-5.388,0.991-7.752c0.89-2.364,2.335-4.483,4.337-6.356c2-1.875,4.589-3.458,7.768-4.751l30.256-12.308
		c0.256-0.104,0.518-0.121,0.786-0.051c0.268,0.07,0.546,0.278,0.836,0.623c0.289,0.345,0.604,0.822,0.94,1.432
		c0.338,0.609,0.71,1.414,1.117,2.414c0.396,0.974,0.686,1.796,0.869,2.469c0.184,0.671,0.29,1.227,0.318,1.663
		c0.027,0.437-0.026,0.779-0.164,1.03c-0.138,0.25-0.334,0.427-0.59,0.531l-29.372,11.948c-1.974,0.803-3.586,1.742-4.835,2.818
		c-1.25,1.076-2.165,2.262-2.742,3.557c-0.579,1.295-0.847,2.674-0.805,4.136c0.042,1.461,0.381,2.974,1.018,4.537
		c0.646,1.589,1.468,2.913,2.466,3.97c0.997,1.058,2.142,1.832,3.432,2.323c1.29,0.49,2.717,0.694,4.281,0.611
		c1.563-0.084,3.217-0.48,4.96-1.189l29.949-12.183c0.256-0.104,0.518-0.121,0.785-0.051c0.268,0.071,0.544,0.272,0.828,0.604
		c0.285,0.333,0.599,0.81,0.941,1.432c0.343,0.622,0.712,1.42,1.108,2.394s0.684,1.791,0.862,2.45
		c0.178,0.659,0.281,1.208,0.31,1.644s-0.028,0.773-0.171,1.011s-0.343,0.408-0.599,0.512L831.669,388.884z"/>
</g>
<g>
	<path opacity="0.9" fill="#FFFFFF" d="M336.583,656.886v134.349H500V308.766H336.583v66.341l-51.657-29.893l-0.021,21.947
		l-45.701-0.042v192.5H358.74l131.516,54.475v42.79H336.583z M356.75,541.993h-99.92V384.762l28.06,0.026l-0.021,21.948
		l51.715-29.799v66.178h153.774v43.537L356.75,541.993z"/>
	<polygon opacity="0.9" fill="#CAEBFB" points="507.982,486.652 507.982,443.116 661.754,443.116 661.754,308.766 500,308.766 
		500,791.234 661.754,791.234 661.754,656.886 507.883,656.886 507.883,614.178 646.688,556.68 743.17,556.68 743.17,713.914 
		715.11,713.889 715.131,691.939 661.833,722.651 715.075,753.461 715.095,731.516 760.796,731.557 760.796,539.056 
		634.493,539.056 	"/>
</g>
</svg>
