<?xml version="1.0" encoding="utf-8"?>
<!-- Generator: Adobe Illustrator 16.0.0, SVG Export Plug-In . SVG Version: 6.00 Build 0)  -->
<!DOCTYPE svg PUBLIC "-//W3C//DTD SVG 1.1//EN" "http://www.w3.org/Graphics/SVG/1.1/DTD/svg11.dtd">
<svg version="1.1" id="Layer_1" xmlns="http://www.w3.org/2000/svg" xmlns:xlink="http://www.w3.org/1999/xlink" x="0px" y="0px"
	 width="1000px" height="1000px" viewBox="0 0 1000 1000" enable-background="new 0 0 1000 1000" xml:space="preserve">
<circle fill="#007F3E" cx="500" cy="502.999" r="473.937"/>
<circle fill="#00A64F" cx="500" cy="500" r="418.439"/>
<g id="men_5">
	<g>
		<defs>
			<path id="SVGID_1_" d="M972.897,503.505C972.897,242.038,761.17,30.079,500,30.079c-261.179,0-472.897,211.959-472.897,473.426
				c0,261.468,211.718,473.433,472.897,473.433C761.17,976.938,972.897,764.973,972.897,503.505z"/>
		</defs>
		<clipPath id="SVGID_2_">
			<use xlink:href="#SVGID_1_"  overflow="visible"/>
		</clipPath>
		<g clip-path="url(#SVGID_2_)">
			<rect x="432.509" y="622.906" fill="#D9A88C" width="138.491" height="152.026"/>
			<path fill="#C74244" d="M570.126,703.791h23.617c43.998,11.352,92.139,19.403,124.183,56.546
				c19.969,23.146,54.646,216.601,54.646,216.601h-83.892H500.874V799.756v-41.838C539.119,757.918,570.126,733.688,570.126,703.791
				z"/>
			<path fill="#C74244" d="M431.624,703.791h-23.569c-43.997,11.352-92.188,19.403-124.233,56.546
				c-19.965,23.146-54.645,216.601-54.645,216.601h83.892h187.805V799.756v-41.838C462.63,757.918,431.624,733.688,431.624,703.791z
				"/>
			<g>
				<path fill="#E9C0A7" d="M501.748,187.891c67.241,0,173.577,38.269,173.577,217.588c0,103.542-33.715,171.369-48.408,190.135
					c-13.52,17.263-89.514,54.049-125.169,54.049C501.748,468.435,501.748,187.891,501.748,187.891z"/>
				<path fill="#E9C0A7" d="M708.771,448.238c2.97-28.649-10.671-54.079-30.445-56.797c-19.793-2.714-38.228,18.314-41.202,46.967
					c-2.962,28.645,10.675,54.068,30.464,56.786C687.366,497.902,705.805,476.881,708.771,448.238z"/>
			</g>
			<g>
				<path fill="#F2D8BC" d="M501.748,187.891c-67.237,0-173.575,38.269-173.575,217.588c0,103.542,33.712,171.369,48.408,190.135
					c13.518,17.263,89.51,54.049,125.167,54.049C501.748,468.435,501.748,187.891,501.748,187.891z"/>
				<path fill="#F2D8BC" d="M294.728,448.238c-2.967-28.649,10.67-54.079,30.446-56.797c19.787-2.714,38.229,18.314,41.193,46.967
					c2.972,28.645-10.67,54.068-30.458,56.786C316.133,497.902,297.688,476.881,294.728,448.238z"/>
			</g>
			<path fill="#FFFFFF" d="M501.748,582.016c31.345,0,56.751-10.368,56.751-23.15H445.005
				C445.005,571.647,470.41,582.016,501.748,582.016z"/>
			<path fill="#563929" d="M641.63,419.697c7.236-18.493,21.558-30.335,36.695-28.256c0.033,0.007,0.076,0.016,0.111,0.028
				c6.867-21.273,9.326-46.561-0.09-73.396c-50.071-142.713,6.802-168.19,6.802-168.19s-55.373-2.48-98.328,33.113
				c29.623-45.971,42.955-57.84,42.955-57.84s-62.211-13.342-128.862,54.87c14.811-37.073,32.589-55.926,32.589-55.926
				s-139.241,1.056-189.604,101.897c-28.709,57.476-30.926,119.744-23.978,166.809c1.7-0.614,3.44-1.114,5.254-1.365
				c6.57-0.897,12.973,0.854,18.724,4.596c0-21.746,0-40.978,0-43.993c26.665-11.867,54.808-26.694,53.324-86.015
				c62.216,0,96.28,0,96.28,0h99.242c0,0-4.445,66.74,48.887,83.046C641.63,376.904,641.63,401.46,641.63,419.697z"/>
			<path fill="#0F958D" d="M500.9,775.477c51.267,0,92.843-32.092,92.843-71.686h-23.786c0,29.84-30.905,54.039-69.057,54.121
				c-38.16-0.082-69.058-24.281-69.058-54.121h-23.788C408.055,743.385,449.625,775.477,500.9,775.477z"/>
		</g>
	</g>
</g>
<circle fill="none" cx="500" cy="500" r="329"/>
<text transform="matrix(-0.39 -0.9208 0.9208 -0.39 204.8389 646.9131)" display="none" opacity="0.9"><tspan x="0" y="0" display="inline" fill="#FFFFFF" font-family="'Calibri-Bold'" font-size="85">Z</tspan><tspan x="40.459" y="-0.558" display="inline" fill="#FFFFFF" font-family="'Calibri-Bold'" font-size="85" rotate="8.381">ú</tspan><tspan x="94.965" y="7.857" display="inline" fill="#FFFFFF" font-family="'Calibri-Bold'" font-size="85" rotate="17.088">č</tspan><tspan x="137.861" y="20.793" display="inline" fill="#FFFFFF" font-family="'Calibri-Bold'" font-size="85" rotate="25.329">a</tspan><tspan x="184.108" y="43.094" display="inline" fill="#FFFFFF" font-family="'Calibri-Bold'" font-size="85" rotate="33.25">s</tspan><tspan x="217.774" y="65.095" display="inline" fill="#FFFFFF" font-family="'Calibri-Bold'" font-size="85" rotate="40.459">t</tspan><tspan x="249.967" y="91.849" display="inline" fill="#FFFFFF" font-family="'Calibri-Bold'" font-size="85" rotate="48.992">n</tspan><tspan x="285.976" y="134.793" display="inline" fill="#FFFFFF" font-family="'Calibri-Bold'" font-size="85" rotate="55.861">i</tspan><tspan x="299.061" y="154.24" display="inline" fill="#FFFFFF" font-family="'Calibri-Bold'" font-size="85" rotate="59.633"> </tspan><tspan x="309.421" y="171.022" display="inline" fill="#FFFFFF" font-family="'Calibri-Bold'" font-size="85" rotate="64.859">s</tspan><tspan x="326.539" y="207.406" display="inline" fill="#FFFFFF" font-family="'Calibri-Bold'" font-size="85" rotate="71.921">e</tspan><tspan x="339.024" y="247.377" display="inline" fill="#FFFFFF" font-family="'Calibri-Bold'" font-size="85" rotate="77.252"> </tspan><tspan x="343.816" y="266.481" display="inline" fill="#FFFFFF" font-family="'Calibri-Bold'" font-size="85" rotate="82.492">s</tspan><tspan x="349.694" y="306.039" display="inline" fill="#FFFFFF" font-family="'Calibri-Bold'" font-size="85" rotate="90.972">o</tspan><tspan x="348.687" y="362.989" display="inline" fill="#FFFFFF" font-family="'Calibri-Bold'" font-size="85" rotate="100.767">u</tspan><tspan x="337.837" y="417.139" display="inline" fill="#FFFFFF" font-family="'Calibri-Bold'" font-size="85" rotate="109.045">s</tspan><tspan x="324.759" y="455.19" display="inline" fill="#FFFFFF" font-family="'Calibri-Bold'" font-size="85" rotate="116.1">t</tspan><tspan x="306.464" y="493.01" display="inline" fill="#FFFFFF" font-family="'Calibri-Bold'" font-size="85" rotate="123.891">Ř</tspan><tspan x="279.689" y="532.499" display="inline" fill="#FFFFFF" font-family="'Calibri-Bold'" font-size="85" rotate="131.689">e</tspan><tspan x="252.553" y="563.641" display="inline" fill="#FFFFFF" font-family="'Calibri-Bold'" font-size="85" rotate="139.967">d</tspan><tspan x="211.436" y="597.632" display="inline" fill="#FFFFFF" font-family="'Calibri-Bold'" font-size="85" rotate="148.195">ě</tspan><tspan x="176.656" y="619.842" display="inline" fill="#FFFFFF" font-family="'Calibri-Bold'" font-size="85" rotate="156.583">n</tspan><tspan x="124.841" y="641.198" display="inline" fill="#FFFFFF" font-family="'Calibri-Bold'" font-size="85" rotate="163.401">í</tspan><tspan x="102.326" y="647.822" display="inline" fill="#FFFFFF" font-family="'Calibri-Bold'" font-size="85" rotate="167.171"> </tspan><tspan x="83.509" y="652.99" display="inline" fill="#FFFFFF" font-family="'Calibri-Bold'" font-size="85" rotate="173.358">a</tspan><tspan x="32.071" y="658.089" display="inline" fill="#FFFFFF" font-family="'Calibri-Bold'" font-size="85" rotate="179.573"> </tspan><tspan x="12.492" y="658.908" display="inline" fill="#FFFFFF" font-family="'Calibri-Bold'" font-size="85" rotate="-174.612">k</tspan><tspan x="-33.716" y="654.342" display="inline" fill="#FFFFFF" font-family="'Calibri-Bold'" font-size="85" rotate="-167.033">s</tspan><tspan x="-73.121" y="644.814" display="inline" fill="#FFFFFF" font-family="'Calibri-Bold'" font-size="85" rotate="-161.504">í</tspan><tspan x="-95.111" y="637.844" display="inline" fill="#FFFFFF" font-family="'Calibri-Bold'" font-size="85" rotate="-156.117">l</tspan><tspan x="-128.297" y="623.423" display="inline" fill="#FFFFFF" font-family="'Calibri-Bold'" font-size="85" rotate="-149.7">e</tspan><tspan x="-164.096" y="602.531" display="inline" fill="#FFFFFF" font-family="'Calibri-Bold'" font-size="85" rotate="-142.406">t</tspan><tspan x="-197.583" y="577.396" display="inline" fill="#FFFFFF" font-family="'Calibri-Bold'" font-size="85" rotate="-133.905">ů</tspan></text>
<g opacity="0.9">
	<path fill="#FFFFFF" d="M185.339,611.777c0.74-0.311,1.379-0.54,1.916-0.691c0.538-0.149,0.992-0.229,1.364-0.234
		c0.373-0.006,0.663,0.06,0.871,0.197c0.208,0.138,0.36,0.321,0.456,0.551l12.252,29.202c0.428,1.021,0.464,1.928,0.107,2.723
		c-0.356,0.795-1.096,1.428-2.219,1.898l-1.684,0.707c-0.51,0.214-0.989,0.378-1.437,0.49c-0.448,0.113-0.92,0.184-1.419,0.213
		c-0.498,0.028-1.063,0.004-1.697-0.076c-0.633-0.079-1.398-0.186-2.295-0.319l-38.525-6.431l7.997,19.06
		c0.128,0.306,0.168,0.598,0.119,0.873c-0.049,0.275-0.197,0.548-0.445,0.816c-0.247,0.27-0.612,0.543-1.096,0.82
		c-0.483,0.278-1.083,0.566-1.797,0.866c-0.766,0.321-1.423,0.56-1.973,0.716c-0.549,0.155-1.013,0.229-1.392,0.224
		c-0.377-0.007-0.676-0.092-0.895-0.255c-0.218-0.163-0.392-0.398-0.521-0.704l-11.481-27.364c-0.439-1.046-0.495-1.931-0.168-2.653
		c0.327-0.722,0.976-1.287,1.945-1.693l1.875-0.787c0.689-0.289,1.295-0.506,1.82-0.65c0.524-0.146,1.057-0.233,1.599-0.267
		c0.542-0.031,1.12-0.012,1.735,0.06c0.615,0.072,1.358,0.181,2.229,0.325l37.976,6.301l-8.688-20.705
		c-0.203-0.484-0.052-0.983,0.453-1.495S183.834,612.409,185.339,611.777z"/>
	<path fill="#FFFFFF" d="M114.494,596.001c-0.491-0.245-0.9-0.504-1.228-0.777s-0.618-0.627-0.873-1.062
		c-0.254-0.435-0.487-0.982-0.699-1.642c-0.212-0.66-0.445-1.485-0.7-2.478c-0.316-1.232-0.481-2.212-0.496-2.937
		c-0.014-0.725,0.073-1.246,0.263-1.566s0.462-0.454,0.818-0.403c0.356,0.053,0.757,0.221,1.201,0.507l10.33,6.862
		c0.31,0.207,0.588,0.428,0.834,0.665c0.247,0.236,0.481,0.54,0.705,0.911c0.224,0.371,0.435,0.831,0.633,1.381
		c0.198,0.549,0.403,1.239,0.616,2.069c0.234,0.912,0.381,1.652,0.441,2.223s0.034,0.991-0.083,1.264
		c-0.115,0.272-0.314,0.416-0.596,0.432c-0.281,0.015-0.651-0.091-1.109-0.315L114.494,596.001z M156.468,565.698
		c3.19-0.818,6.165-1.081,8.924-0.789c2.76,0.292,5.245,1.126,7.455,2.502c2.21,1.376,4.114,3.287,5.712,5.733
		s2.845,5.412,3.738,8.896c0.839,3.271,1.183,6.311,1.032,9.119c-0.15,2.81-0.826,5.325-2.028,7.547
		c-1.201,2.223-2.919,4.127-5.154,5.714c-2.235,1.588-5.014,2.807-8.338,3.659l-31.64,8.114c-0.268,0.069-0.529,0.051-0.786-0.056
		c-0.255-0.105-0.503-0.349-0.744-0.73c-0.24-0.381-0.487-0.896-0.739-1.545s-0.513-1.497-0.781-2.542
		c-0.261-1.019-0.437-1.873-0.529-2.564c-0.091-0.69-0.122-1.254-0.091-1.69c0.031-0.437,0.132-0.769,0.301-0.998
		c0.17-0.229,0.389-0.379,0.656-0.447l30.715-7.877c2.064-0.529,3.788-1.242,5.171-2.141c1.384-0.896,2.45-1.949,3.197-3.154
		c0.748-1.206,1.199-2.536,1.355-3.99s0.023-2.998-0.396-4.633c-0.426-1.661-1.062-3.084-1.909-4.267
		c-0.845-1.183-1.875-2.104-3.087-2.765c-1.211-0.66-2.598-1.055-4.16-1.183c-1.561-0.128-3.252,0.041-5.075,0.509l-31.318,8.032
		c-0.268,0.068-0.53,0.05-0.786-0.056c-0.255-0.106-0.501-0.343-0.739-0.711c-0.237-0.367-0.483-0.883-0.739-1.545
		c-0.255-0.663-0.514-1.504-0.775-2.522c-0.261-1.019-0.436-1.866-0.523-2.544c-0.088-0.677-0.117-1.233-0.086-1.67
		c0.031-0.437,0.133-0.763,0.306-0.979c0.174-0.216,0.394-0.358,0.662-0.427L156.468,565.698z"/>
	<path fill="#FFFFFF" d="M115.027,535.021c0.087,0.882,0.148,1.626,0.18,2.234c0.033,0.608,0.008,1.133-0.073,1.571
		c-0.082,0.439-0.223,0.829-0.426,1.168c-0.202,0.341-0.465,0.707-0.787,1.101l-8.026,9.056c-0.377,0.399-0.693,0.646-0.948,0.74
		c-0.254,0.096-0.462,0.032-0.624-0.188c-0.161-0.221-0.298-0.624-0.412-1.211c-0.114-0.586-0.217-1.348-0.311-2.283
		c-0.112-1.129-0.183-2.054-0.213-2.773s-0.018-1.298,0.036-1.734c0.055-0.437,0.152-0.78,0.294-1.03s0.326-0.498,0.552-0.743
		l5.174-5.436l-6.08-4.526c-0.297-0.192-0.547-0.397-0.75-0.613c-0.202-0.216-0.372-0.533-0.511-0.95
		c-0.139-0.417-0.263-0.968-0.373-1.652c-0.11-0.684-0.222-1.604-0.337-2.761c-0.093-0.937-0.132-1.683-0.119-2.241
		c0.015-0.557,0.086-0.96,0.213-1.21c0.128-0.248,0.327-0.352,0.595-0.309s0.597,0.197,0.984,0.465l9.639,7.176
		c0.388,0.268,0.71,0.569,0.966,0.904c0.256,0.337,0.47,0.739,0.642,1.209c0.171,0.47,0.31,1.026,0.416,1.668
		C114.835,533.295,114.934,534.085,115.027,535.021z M162.504,513.327c0.689-0.068,1.276-0.105,1.762-0.112
		c0.486-0.006,0.905,0.015,1.257,0.063c0.353,0.048,0.659,0.129,0.921,0.241c0.262,0.114,0.566,0.306,0.912,0.577
		c0.347,0.271,0.811,0.816,1.393,1.634c0.582,0.818,1.162,1.832,1.741,3.039c0.579,1.208,1.099,2.602,1.563,4.183
		c0.463,1.58,0.788,3.307,0.974,5.179c0.364,3.662,0.127,7.022-0.708,10.081s-2.273,5.731-4.313,8.02
		c-2.039,2.287-4.683,4.149-7.933,5.584c-3.25,1.436-7.105,2.375-11.565,2.817c-4.543,0.452-8.636,0.247-12.281-0.614
		c-3.645-0.861-6.773-2.261-9.385-4.198c-2.611-1.937-4.688-4.364-6.229-7.284c-1.542-2.919-2.494-6.21-2.858-9.872
		c-0.148-1.487-0.166-2.931-0.055-4.332c0.111-1.401,0.309-2.707,0.591-3.917c0.283-1.21,0.64-2.309,1.07-3.297
		c0.43-0.987,0.813-1.687,1.147-2.095c0.334-0.409,0.619-0.694,0.853-0.856c0.234-0.162,0.54-0.305,0.917-0.425
		c0.377-0.121,0.826-0.229,1.344-0.321c0.519-0.094,1.165-0.179,1.935-0.255c0.826-0.082,1.531-0.124,2.114-0.127
		c0.584-0.002,1.062,0.048,1.433,0.149c0.372,0.103,0.65,0.242,0.834,0.418c0.185,0.177,0.289,0.388,0.313,0.636
		c0.041,0.413-0.147,0.961-0.567,1.642c-0.418,0.682-0.874,1.554-1.367,2.617c-0.492,1.064-0.91,2.315-1.253,3.753
		c-0.343,1.438-0.42,3.122-0.229,5.049c0.211,2.12,0.833,3.97,1.866,5.55c1.033,1.58,2.413,2.874,4.14,3.885
		c1.727,1.01,3.763,1.704,6.108,2.083c2.346,0.379,4.95,0.426,7.813,0.141c3.139-0.312,5.826-0.905,8.061-1.78
		c2.235-0.875,4.036-1.986,5.404-3.332s2.333-2.901,2.894-4.667c0.562-1.766,0.737-3.708,0.526-5.828
		c-0.191-1.928-0.584-3.571-1.178-4.93c-0.594-1.359-1.216-2.514-1.867-3.465c-0.65-0.949-1.228-1.727-1.733-2.33
		c-0.504-0.603-0.775-1.083-0.811-1.441c-0.027-0.275,0.006-0.501,0.1-0.678c0.094-0.176,0.3-0.335,0.62-0.479
		c0.319-0.143,0.772-0.271,1.359-0.385C160.725,513.532,161.513,513.426,162.504,513.327z"/>
	<path fill="#FFFFFF" d="M168.349,460.774c1.01-0.287,1.807-0.459,2.391-0.516c0.584-0.057,1.015,0.073,1.291,0.39
		c0.277,0.317,0.432,0.864,0.467,1.641c0.034,0.777,0.021,1.843-0.04,3.197c-0.063,1.41-0.133,2.507-0.21,3.293
		c-0.077,0.786-0.187,1.383-0.33,1.792c-0.143,0.409-0.328,0.691-0.557,0.847c-0.229,0.156-0.525,0.282-0.889,0.376l-10.942,3.124
		l-0.903,20.151l10.338,3.87c0.382,0.128,0.701,0.288,0.955,0.479c0.255,0.192,0.449,0.492,0.583,0.899
		c0.134,0.408,0.212,0.979,0.235,1.713c0.022,0.735,0.007,1.697-0.046,2.886c-0.057,1.271-0.143,2.265-0.258,2.979
		c-0.115,0.716-0.337,1.204-0.668,1.466c-0.33,0.263-0.784,0.339-1.36,0.229c-0.577-0.108-1.341-0.351-2.294-0.726l-46.857-18.676
		c-0.462-0.187-0.834-0.397-1.114-0.631c-0.28-0.234-0.485-0.596-0.616-1.087c-0.13-0.49-0.197-1.165-0.2-2.024
		c-0.003-0.858,0.027-1.993,0.09-3.403c0.073-1.63,0.152-2.929,0.237-3.895c0.085-0.965,0.216-1.714,0.392-2.247
		c0.176-0.532,0.421-0.909,0.736-1.13c0.315-0.221,0.739-0.403,1.271-0.545L168.349,460.774z M127.898,483.641l-0.002,0.042
		l22.464,8.609l0.682-15.217L127.898,483.641z"/>
	<path fill="#FFFFFF" d="M163.875,419.503c2.775,0.514,5.115,1.482,7.018,2.903c1.904,1.422,3.392,3.146,4.466,5.174
		c1.074,2.028,1.746,4.291,2.015,6.789s0.155,5.094-0.344,7.787c-0.338,1.823-0.801,3.489-1.39,4.998
		c-0.589,1.509-1.205,2.823-1.848,3.942c-0.643,1.12-1.271,2.038-1.882,2.754c-0.611,0.717-1.126,1.22-1.545,1.508
		c-0.418,0.289-0.976,0.446-1.67,0.472c-0.694,0.027-1.667-0.076-2.919-0.308c-0.843-0.156-1.546-0.313-2.107-0.474
		c-0.561-0.16-1.007-0.334-1.338-0.522c-0.331-0.188-0.552-0.397-0.665-0.629c-0.111-0.231-0.143-0.483-0.092-0.756
		c0.071-0.38,0.395-0.876,0.972-1.487c0.577-0.61,1.239-1.41,1.984-2.397c0.746-0.987,1.482-2.194,2.211-3.622
		c0.729-1.427,1.276-3.133,1.644-5.12c0.242-1.306,0.302-2.504,0.18-3.596c-0.121-1.092-0.401-2.051-0.839-2.878
		c-0.438-0.826-1.043-1.508-1.816-2.046c-0.772-0.537-1.676-0.901-2.71-1.092c-1.197-0.222-2.285-0.085-3.263,0.409
		c-0.978,0.494-1.896,1.204-2.757,2.127c-0.86,0.924-1.706,1.999-2.539,3.224c-0.832,1.225-1.705,2.484-2.62,3.778
		c-0.915,1.294-1.91,2.531-2.987,3.71c-1.076,1.18-2.29,2.187-3.64,3.019c-1.35,0.834-2.875,1.431-4.574,1.792
		c-1.698,0.361-3.65,0.337-5.854-0.07c-2.53-0.468-4.667-1.35-6.412-2.643c-1.745-1.294-3.102-2.854-4.072-4.679
		c-0.971-1.826-1.568-3.878-1.794-6.157c-0.225-2.279-0.114-4.628,0.334-7.05c0.231-1.251,0.559-2.485,0.98-3.702
		c0.422-1.216,0.897-2.338,1.425-3.366c0.528-1.027,1.074-1.925,1.638-2.693c0.564-0.768,1.008-1.263,1.33-1.484
		c0.323-0.221,0.588-0.362,0.796-0.423c0.208-0.06,0.476-0.095,0.8-0.105c0.326-0.01,0.729,0.016,1.21,0.076
		c0.481,0.062,1.076,0.157,1.783,0.288c0.79,0.146,1.452,0.29,1.989,0.431s0.973,0.293,1.309,0.454
		c0.336,0.161,0.569,0.345,0.7,0.551c0.13,0.208,0.168,0.46,0.113,0.76c-0.056,0.3-0.334,0.74-0.836,1.323
		c-0.501,0.583-1.065,1.308-1.69,2.177c-0.625,0.87-1.237,1.896-1.836,3.079c-0.599,1.184-1.037,2.524-1.314,4.02
		c-0.216,1.17-0.262,2.217-0.138,3.14c0.124,0.924,0.384,1.725,0.779,2.403c0.396,0.678,0.92,1.226,1.574,1.642
		c0.655,0.417,1.376,0.698,2.165,0.844c1.17,0.217,2.243,0.085,3.218-0.396c0.975-0.48,1.896-1.196,2.761-2.148
		c0.866-0.951,1.717-2.053,2.553-3.305c0.837-1.252,1.713-2.525,2.627-3.819c0.915-1.293,1.914-2.544,2.995-3.751
		c1.082-1.207,2.299-2.234,3.652-3.081c1.353-0.847,2.872-1.452,4.557-1.815C159.849,419.096,161.752,419.11,163.875,419.503z"/>
	<path fill="#FFFFFF" d="M145.529,366.223c0.766,0.242,1.408,0.482,1.928,0.719c0.52,0.237,0.924,0.474,1.212,0.71
		c0.288,0.237,0.48,0.479,0.576,0.726c0.096,0.248,0.106,0.491,0.031,0.728l-4.056,12.821l41.272,13.057
		c0.264,0.083,0.474,0.244,0.631,0.482c0.157,0.239,0.239,0.576,0.245,1.013c0.007,0.438-0.057,1.005-0.19,1.703
		c-0.133,0.698-0.359,1.548-0.676,2.55c-0.317,1.003-0.622,1.828-0.914,2.475s-0.566,1.148-0.823,1.502
		c-0.257,0.354-0.518,0.583-0.784,0.688c-0.265,0.105-0.53,0.116-0.793,0.032l-41.273-13.056l-4.056,12.821
		c-0.083,0.264-0.234,0.463-0.45,0.598c-0.217,0.135-0.511,0.216-0.882,0.243c-0.372,0.028-0.838-0.011-1.4-0.116
		c-0.562-0.105-1.225-0.279-1.99-0.521c-0.791-0.25-1.454-0.496-1.987-0.738c-0.533-0.241-0.943-0.479-1.231-0.716
		c-0.288-0.236-0.475-0.469-0.562-0.7c-0.086-0.23-0.088-0.478-0.005-0.742l11.417-36.089c0.075-0.237,0.217-0.432,0.424-0.584
		c0.208-0.152,0.497-0.241,0.869-0.269c0.372-0.027,0.845,0.013,1.419,0.123S144.738,365.973,145.529,366.223z"/>
	<path fill="#FFFFFF" d="M210.649,333.948c0.572,0.28,1.032,0.629,1.382,1.047s0.592,0.867,0.726,1.349s0.157,0.986,0.068,1.512
		c-0.089,0.527-0.249,1.026-0.479,1.499l-2.044,4.175c-0.426,0.87-0.881,1.579-1.365,2.127c-0.484,0.549-1.086,0.978-1.808,1.287
		c-0.722,0.31-1.595,0.521-2.622,0.634c-1.026,0.114-2.312,0.178-3.859,0.19l-28.429,0.961c-1.683,0.039-3.477,0.039-5.383-0.001
		c-1.906-0.04-3.732-0.133-5.478-0.279l-0.037,0.075c1.838,0.777,3.658,1.576,5.458,2.395c1.801,0.821,3.646,1.693,5.535,2.618
		l25.236,12.355c0.249,0.122,0.438,0.3,0.571,0.534c0.132,0.234,0.184,0.552,0.156,0.955c-0.027,0.402-0.144,0.908-0.349,1.516
		c-0.206,0.608-0.527,1.359-0.965,2.254c-0.426,0.87-0.816,1.573-1.17,2.107c-0.354,0.536-0.679,0.931-0.974,1.187
		c-0.294,0.256-0.572,0.398-0.832,0.424c-0.26,0.027-0.514-0.021-0.762-0.142L149.874,353.5c-1.168-0.572-1.876-1.342-2.126-2.312
		c-0.249-0.969-0.131-1.951,0.356-2.945l2.573-5.256c0.462-0.944,0.933-1.699,1.41-2.267c0.479-0.566,1.028-1.014,1.65-1.341
		c0.622-0.327,1.372-0.553,2.25-0.678c0.878-0.125,1.917-0.186,3.117-0.184l22.231-0.761c1.336-0.023,2.651-0.049,3.943-0.079
		c1.293-0.029,2.577-0.04,3.852-0.032c1.274,0.008,2.525,0.02,3.75,0.034c1.225,0.015,2.445,0.042,3.657,0.081l0.019-0.038
		c-1.776-0.777-3.617-1.609-5.524-2.497c-1.907-0.887-3.718-1.751-5.433-2.591l-22.626-11.078c-0.248-0.121-0.435-0.305-0.561-0.552
		s-0.179-0.58-0.157-1.001s0.141-0.932,0.358-1.535c0.218-0.602,0.546-1.35,0.984-2.245c0.414-0.845,0.792-1.538,1.133-2.079
		c0.342-0.541,0.664-0.93,0.965-1.168c0.301-0.237,0.582-0.369,0.841-0.396c0.26-0.027,0.514,0.021,0.762,0.142L210.649,333.948z"/>
	<path fill="#FFFFFF" d="M225.463,315.857c0.232,0.15,0.392,0.361,0.48,0.632c0.088,0.272,0.077,0.619-0.033,1.042
		c-0.109,0.424-0.318,0.948-0.625,1.574s-0.753,1.391-1.34,2.296c-0.572,0.883-1.084,1.597-1.538,2.144s-0.851,0.957-1.193,1.229
		c-0.342,0.273-0.654,0.425-0.938,0.456c-0.283,0.031-0.541-0.03-0.773-0.18l-42.557-27.59c-0.232-0.15-0.392-0.361-0.48-0.633
		c-0.088-0.271-0.073-0.624,0.044-1.06c0.117-0.435,0.329-0.965,0.636-1.591s0.746-1.379,1.318-2.262
		c0.587-0.906,1.104-1.626,1.549-2.161s0.84-0.939,1.182-1.212c0.342-0.273,0.655-0.424,0.938-0.456
		c0.284-0.03,0.542,0.03,0.773,0.18L225.463,315.857z"/>
	<path fill="#FFFFFF" d="M255.036,256.285c2.099,1.887,3.589,3.933,4.471,6.139c0.882,2.207,1.251,4.455,1.109,6.745
		c-0.143,2.291-0.751,4.571-1.825,6.842c-1.075,2.271-2.527,4.426-4.358,6.463c-1.239,1.379-2.504,2.558-3.794,3.538
		c-1.291,0.98-2.501,1.779-3.634,2.397c-1.133,0.62-2.147,1.075-3.042,1.367c-0.896,0.293-1.598,0.453-2.105,0.479
		c-0.508,0.027-1.065-0.129-1.671-0.469c-0.606-0.34-1.382-0.936-2.329-1.787c-0.638-0.573-1.155-1.075-1.549-1.504
		c-0.396-0.43-0.685-0.811-0.869-1.144s-0.264-0.627-0.238-0.884c0.026-0.256,0.131-0.487,0.316-0.693
		c0.259-0.288,0.794-0.542,1.605-0.761c0.812-0.22,1.793-0.556,2.944-1.009c1.151-0.453,2.41-1.099,3.776-1.935
		c1.366-0.837,2.724-2.006,4.074-3.509c0.888-0.988,1.565-1.979,2.031-2.974c0.467-0.994,0.729-1.958,0.787-2.893
		c0.058-0.934-0.103-1.831-0.481-2.693c-0.379-0.861-0.959-1.644-1.741-2.347c-0.905-0.813-1.904-1.265-2.997-1.354
		c-1.092-0.089-2.246,0.037-3.462,0.375c-1.216,0.339-2.499,0.814-3.848,1.424c-1.349,0.611-2.751,1.229-4.207,1.855
		c-1.456,0.626-2.951,1.162-4.485,1.605c-1.534,0.445-3.094,0.67-4.681,0.676c-1.586,0.006-3.198-0.28-4.836-0.859
		c-1.637-0.579-3.29-1.618-4.957-3.116c-1.914-1.72-3.277-3.587-4.089-5.601s-1.156-4.053-1.031-6.117
		c0.125-2.064,0.687-4.126,1.684-6.188s2.318-4.007,3.965-5.839c0.85-0.946,1.774-1.828,2.769-2.646
		c0.995-0.816,1.985-1.526,2.973-2.127c0.986-0.601,1.921-1.082,2.803-1.442c0.882-0.36,1.519-0.55,1.909-0.572
		c0.391-0.021,0.69-0.002,0.899,0.055c0.208,0.058,0.455,0.167,0.737,0.328c0.283,0.162,0.614,0.394,0.992,0.696
		c0.378,0.304,0.836,0.695,1.371,1.176c0.597,0.537,1.087,1.005,1.471,1.406c0.384,0.401,0.677,0.758,0.88,1.07
		c0.203,0.313,0.306,0.591,0.309,0.836c0.003,0.245-0.097,0.48-0.3,0.707c-0.204,0.227-0.671,0.458-1.403,0.692
		c-0.732,0.235-1.592,0.56-2.578,0.975c-0.987,0.415-2.045,0.971-3.174,1.668s-2.202,1.611-3.219,2.743
		c-0.795,0.885-1.381,1.754-1.757,2.606c-0.376,0.853-0.572,1.671-0.589,2.456c-0.017,0.785,0.145,1.525,0.486,2.222
		c0.341,0.697,0.81,1.314,1.406,1.85c0.885,0.795,1.869,1.243,2.952,1.342c1.083,0.1,2.242-0.031,3.477-0.391
		c1.235-0.359,2.536-0.855,3.903-1.486c1.368-0.631,2.779-1.26,4.234-1.886c1.456-0.625,2.96-1.171,4.513-1.636
		c1.552-0.464,3.126-0.705,4.723-0.722c1.596-0.016,3.208,0.261,4.834,0.83C251.815,253.836,253.431,254.842,255.036,256.285z"/>
	<path fill="#FFFFFF" d="M294.34,237.185c0.527,0.606,0.94,1.135,1.242,1.587c0.302,0.453,0.509,0.85,0.623,1.191
		c0.113,0.342,0.142,0.638,0.084,0.889c-0.057,0.251-0.179,0.458-0.367,0.621l-20.366,17.692c-0.689,0.599-1.446,0.899-2.27,0.9
		s-1.635-0.458-2.434-1.377l-30.702-35.343c-0.798-0.919-1.14-1.787-1.023-2.602s0.519-1.523,1.208-2.122l20.241-17.583
		c0.188-0.163,0.4-0.256,0.638-0.279c0.237-0.022,0.521,0.052,0.852,0.222c0.332,0.171,0.7,0.437,1.106,0.798
		c0.406,0.362,0.881,0.856,1.426,1.483c0.508,0.585,0.913,1.104,1.214,1.557s0.509,0.85,0.623,1.191
		c0.113,0.342,0.146,0.634,0.1,0.875c-0.046,0.242-0.164,0.445-0.352,0.608l-14.476,12.575l8.601,9.901l12.251-10.643
		c0.188-0.163,0.411-0.255,0.667-0.277c0.257-0.021,0.542,0.044,0.854,0.193c0.313,0.149,0.672,0.405,1.079,0.767
		c0.406,0.362,0.864,0.835,1.372,1.42c0.526,0.606,0.936,1.13,1.228,1.572c0.292,0.442,0.491,0.829,0.595,1.16
		c0.104,0.332,0.124,0.617,0.057,0.857c-0.065,0.241-0.193,0.442-0.381,0.605l-12.251,10.643l9.935,11.437l14.601-12.684
		c0.188-0.163,0.411-0.255,0.667-0.276c0.256-0.021,0.545,0.048,0.868,0.208c0.322,0.16,0.686,0.421,1.092,0.783
		C293.348,236.096,293.814,236.58,294.34,237.185z"/>
	<path fill="#FFFFFF" d="M340.741,193.259c1.429,2.434,2.229,4.836,2.4,7.206c0.171,2.37-0.158,4.624-0.987,6.763
		c-0.83,2.14-2.101,4.128-3.813,5.967c-1.712,1.838-3.749,3.452-6.112,4.838c-1.599,0.938-3.162,1.679-4.688,2.222
		c-1.526,0.542-2.922,0.938-4.189,1.184c-1.268,0.247-2.372,0.374-3.314,0.381c-0.942,0.008-1.659-0.052-2.151-0.181
		c-0.492-0.127-0.976-0.445-1.45-0.954c-0.474-0.507-1.033-1.31-1.678-2.408c-0.434-0.74-0.775-1.374-1.021-1.903
		s-0.407-0.98-0.481-1.354c-0.074-0.373-0.061-0.678,0.041-0.914c0.102-0.236,0.272-0.424,0.511-0.564
		c0.334-0.196,0.921-0.276,1.761-0.239c0.839,0.037,1.876,0.014,3.111-0.069c1.234-0.083,2.629-0.316,4.185-0.7
		c1.556-0.384,3.204-1.086,4.946-2.109c1.146-0.672,2.091-1.411,2.837-2.218c0.746-0.806,1.288-1.646,1.626-2.519
		c0.338-0.872,0.457-1.776,0.357-2.712c-0.1-0.936-0.416-1.857-0.948-2.764c-0.616-1.05-1.431-1.783-2.445-2.198
		c-1.014-0.416-2.152-0.646-3.414-0.691c-1.262-0.045-2.628,0.019-4.098,0.191c-1.471,0.174-2.995,0.338-4.571,0.493
		c-1.577,0.156-3.164,0.213-4.76,0.171c-1.597-0.041-3.152-0.299-4.666-0.775c-1.514-0.475-2.963-1.236-4.348-2.284
		c-1.385-1.048-2.645-2.539-3.779-4.471c-1.302-2.219-2.036-4.412-2.2-6.577s0.126-4.213,0.871-6.142
		c0.745-1.929,1.905-3.724,3.479-5.387c1.575-1.662,3.424-3.116,5.548-4.363c1.097-0.644,2.245-1.205,3.44-1.682
		c1.195-0.477,2.354-0.853,3.477-1.126s2.159-0.449,3.109-0.525c0.949-0.076,1.614-0.064,1.993,0.034
		c0.378,0.099,0.659,0.208,0.84,0.325c0.182,0.118,0.383,0.297,0.604,0.536c0.22,0.24,0.465,0.561,0.734,0.964
		c0.269,0.404,0.586,0.916,0.95,1.536c0.406,0.692,0.731,1.287,0.976,1.785c0.245,0.499,0.416,0.928,0.514,1.287
		c0.099,0.359,0.112,0.656,0.042,0.89c-0.072,0.234-0.238,0.428-0.5,0.582c-0.263,0.154-0.778,0.233-1.547,0.234
		c-0.769,0.002-1.687,0.051-2.752,0.147c-1.067,0.097-2.243,0.306-3.53,0.628c-1.287,0.322-2.587,0.869-3.899,1.639
		c-1.026,0.602-1.848,1.253-2.464,1.951c-0.617,0.699-1.052,1.42-1.306,2.162c-0.254,0.743-0.324,1.498-0.21,2.265
		c0.114,0.768,0.374,1.498,0.78,2.189c0.602,1.026,1.404,1.75,2.406,2.173c1.001,0.423,2.146,0.65,3.431,0.681
		c1.286,0.032,2.676-0.046,4.17-0.234c1.495-0.187,3.03-0.358,4.607-0.514c1.577-0.155,3.176-0.219,4.796-0.192
		c1.62,0.028,3.193,0.276,4.719,0.744c1.526,0.468,2.978,1.22,4.355,2.256C338.414,189.949,339.649,191.397,340.741,193.259z"/>
	<path fill="#FFFFFF" d="M390.498,159.709c1.664,4.133,2.639,8.036,2.925,11.708c0.286,3.673-0.128,7.054-1.241,10.142
		c-1.113,3.088-2.925,5.831-5.434,8.229c-2.51,2.397-5.728,4.387-9.655,5.968c-3.876,1.561-7.461,2.416-10.757,2.564
		c-3.295,0.149-6.325-0.429-9.087-1.732c-2.762-1.304-5.27-3.366-7.524-6.187s-4.265-6.426-6.033-10.815
		c-1.622-4.029-2.569-7.861-2.839-11.496c-0.271-3.634,0.153-6.989,1.272-10.064c1.118-3.075,2.929-5.817,5.434-8.229
		c2.504-2.41,5.733-4.411,9.686-6.003c3.773-1.519,7.305-2.359,10.596-2.521c3.291-0.162,6.323,0.407,9.098,1.706
		c2.775,1.299,5.294,3.334,7.559,6.106C386.761,151.855,388.762,155.397,390.498,159.709z M380.089,164.527
		c-1.054-2.618-2.218-4.916-3.492-6.894c-1.273-1.978-2.712-3.531-4.315-4.661c-1.603-1.129-3.394-1.78-5.373-1.953
		c-1.979-0.172-4.2,0.237-6.664,1.229c-2.49,1.002-4.38,2.309-5.671,3.917c-1.292,1.609-2.135,3.403-2.531,5.382
		c-0.396,1.979-0.385,4.1,0.034,6.362c0.419,2.263,1.099,4.562,2.039,6.897c1.095,2.721,2.285,5.083,3.569,7.086
		c1.284,2.004,2.724,3.579,4.319,4.726c1.595,1.147,3.377,1.794,5.345,1.941c1.968,0.147,4.197-0.28,6.687-1.283
		c2.489-1.002,4.382-2.301,5.679-3.897s2.138-3.396,2.523-5.401c0.386-2.004,0.364-4.151-0.065-6.439
		C381.745,169.251,381.05,166.914,380.089,164.527z"/>
	<path fill="#FFFFFF" d="M447.74,154.186c0.692,3.219,0.838,6.202,0.438,8.948c-0.4,2.747-1.331,5.197-2.792,7.35
		c-1.461,2.155-3.446,3.982-5.953,5.483c-2.508,1.501-5.52,2.63-9.036,3.387c-3.3,0.71-6.351,0.934-9.152,0.673
		c-2.801-0.26-5.289-1.034-7.461-2.322c-2.173-1.287-4.009-3.079-5.507-5.375c-1.499-2.295-2.608-5.121-3.33-8.475l-6.867-31.934
		c-0.058-0.27-0.029-0.531,0.086-0.783c0.116-0.251,0.369-0.489,0.759-0.715c0.39-0.225,0.914-0.451,1.573-0.678
		c0.659-0.227,1.516-0.453,2.571-0.68c1.028-0.221,1.889-0.364,2.583-0.428c0.693-0.064,1.258-0.072,1.693-0.024
		c0.435,0.049,0.763,0.162,0.986,0.34c0.222,0.179,0.363,0.404,0.421,0.674l6.666,31c0.448,2.083,1.093,3.833,1.936,5.251
		c0.842,1.418,1.852,2.524,3.027,3.318c1.175,0.795,2.487,1.298,3.933,1.51c1.447,0.213,2.995,0.142,4.645-0.213
		c1.677-0.361,3.123-0.94,4.338-1.74c1.215-0.798,2.176-1.791,2.884-2.976c0.707-1.185,1.155-2.555,1.345-4.11
		c0.189-1.555,0.086-3.251-0.31-5.091l-6.797-31.609c-0.058-0.27-0.029-0.531,0.086-0.783c0.116-0.251,0.362-0.488,0.739-0.71
		c0.376-0.222,0.901-0.449,1.573-0.678c0.672-0.229,1.522-0.455,2.551-0.676c1.028-0.221,1.881-0.362,2.562-0.423
		c0.68-0.062,1.238-0.068,1.673-0.02c0.435,0.048,0.756,0.163,0.965,0.344s0.342,0.408,0.4,0.678L447.74,154.186z"/>
	<path fill="#FFFFFF" d="M494.003,154.504c0.19,2.816-0.168,5.322-1.074,7.519c-0.906,2.197-2.208,4.066-3.906,5.609
		c-1.699,1.543-3.725,2.754-6.078,3.634c-2.353,0.879-4.896,1.412-7.629,1.596c-1.85,0.125-3.579,0.088-5.187-0.108
		c-1.608-0.197-3.034-0.467-4.277-0.814c-1.244-0.346-2.289-0.726-3.134-1.141c-0.846-0.414-1.461-0.789-1.844-1.124
		c-0.383-0.334-0.674-0.834-0.871-1.501c-0.197-0.666-0.339-1.634-0.424-2.904c-0.058-0.855-0.079-1.575-0.063-2.159
		c0.016-0.583,0.074-1.059,0.174-1.426c0.1-0.367,0.248-0.633,0.445-0.799c0.197-0.166,0.433-0.258,0.709-0.277
		c0.386-0.026,0.947,0.165,1.682,0.573c0.735,0.408,1.673,0.852,2.814,1.329c1.141,0.478,2.494,0.893,4.057,1.245
		c1.563,0.353,3.352,0.46,5.367,0.325c1.325-0.089,2.501-0.328,3.529-0.717c1.027-0.388,1.887-0.896,2.58-1.526
		c0.692-0.629,1.203-1.384,1.532-2.266c0.329-0.882,0.458-1.847,0.387-2.896c-0.082-1.214-0.484-2.234-1.205-3.06
		c-0.721-0.825-1.636-1.539-2.744-2.145c-1.109-0.604-2.36-1.157-3.752-1.66c-1.393-0.502-2.83-1.036-4.31-1.602
		c-1.48-0.566-2.925-1.224-4.334-1.975c-1.41-0.75-2.686-1.677-3.827-2.779c-1.143-1.101-2.099-2.43-2.869-3.987
		c-0.771-1.556-1.231-3.453-1.382-5.689c-0.173-2.567,0.151-4.856,0.972-6.867c0.821-2.01,1.996-3.712,3.524-5.104
		s3.369-2.48,5.521-3.264c2.152-0.783,4.456-1.257,6.913-1.423c1.27-0.085,2.546-0.074,3.83,0.033
		c1.282,0.108,2.487,0.29,3.614,0.547c1.126,0.257,2.131,0.563,3.016,0.919c0.883,0.356,1.473,0.664,1.768,0.921
		c0.294,0.258,0.496,0.48,0.606,0.667c0.109,0.187,0.209,0.437,0.3,0.749c0.09,0.313,0.166,0.71,0.226,1.191
		c0.06,0.481,0.115,1.081,0.163,1.798c0.054,0.801,0.079,1.479,0.075,2.033c-0.004,0.555-0.042,1.016-0.115,1.38
		c-0.073,0.366-0.193,0.637-0.361,0.815c-0.168,0.178-0.404,0.277-0.708,0.297s-0.799-0.14-1.488-0.482
		c-0.688-0.342-1.532-0.708-2.528-1.098c-0.998-0.391-2.144-0.729-3.438-1.016c-1.295-0.287-2.702-0.379-4.22-0.277
		c-1.187,0.08-2.212,0.294-3.076,0.644c-0.864,0.35-1.576,0.8-2.135,1.351s-0.959,1.195-1.201,1.932
		c-0.241,0.738-0.335,1.507-0.281,2.307c0.08,1.188,0.474,2.193,1.181,3.02c0.707,0.826,1.629,1.54,2.766,2.143
		c1.136,0.603,2.414,1.154,3.834,1.655c1.42,0.5,2.871,1.033,4.351,1.599c1.479,0.566,2.938,1.223,4.376,1.972
		c1.437,0.75,2.733,1.674,3.889,2.774c1.156,1.101,2.119,2.423,2.888,3.965C493.4,150.503,493.858,152.351,494.003,154.504z"/>
	<path fill="#FFFFFF" d="M540.992,123.42c-0.043,0.802-0.114,1.483-0.213,2.046c-0.1,0.563-0.228,1.013-0.384,1.351
		c-0.157,0.338-0.343,0.584-0.56,0.739c-0.216,0.154-0.448,0.225-0.697,0.212l-13.428-0.718l-2.312,43.227
		c-0.015,0.276-0.117,0.521-0.309,0.732c-0.192,0.211-0.498,0.375-0.92,0.491c-0.422,0.117-0.987,0.197-1.696,0.242
		c-0.709,0.045-1.589,0.04-2.639-0.017s-1.925-0.145-2.625-0.265s-1.254-0.26-1.661-0.421c-0.406-0.16-0.694-0.355-0.862-0.586
		c-0.168-0.23-0.244-0.484-0.229-0.76l2.312-43.227l-13.428-0.718c-0.277-0.015-0.507-0.11-0.691-0.286
		c-0.185-0.176-0.337-0.44-0.457-0.793c-0.12-0.353-0.199-0.814-0.238-1.384c-0.039-0.57-0.037-1.255,0.006-2.057
		c0.044-0.829,0.116-1.532,0.216-2.108c0.1-0.577,0.228-1.034,0.385-1.372c0.156-0.337,0.335-0.578,0.538-0.719
		c0.201-0.141,0.439-0.205,0.717-0.19l37.797,2.021c0.249,0.013,0.473,0.102,0.672,0.265c0.199,0.163,0.358,0.421,0.479,0.773
		c0.119,0.354,0.198,0.821,0.236,1.405C541.039,121.885,541.037,122.591,540.992,123.42z"/>
	<path fill="#FFFFFF" d="M583.926,179.597c-0.057,0.299-0.16,0.54-0.307,0.723c-0.148,0.183-0.438,0.303-0.872,0.361
		c-0.435,0.058-1.051,0.038-1.849-0.058c-0.799-0.097-1.877-0.275-3.236-0.536c-1.141-0.219-2.047-0.42-2.715-0.604
		c-0.669-0.185-1.187-0.39-1.552-0.614c-0.365-0.225-0.607-0.468-0.727-0.731c-0.118-0.262-0.201-0.567-0.247-0.914l-2.472-12.687
		c-0.315-1.44-0.646-2.729-0.991-3.867c-0.347-1.136-0.785-2.115-1.318-2.936c-0.533-0.821-1.201-1.491-2.002-2.011
		c-0.803-0.52-1.774-0.889-2.915-1.108l-3.343-0.641l-3.851,20.096c-0.052,0.272-0.188,0.5-0.405,0.683
		c-0.219,0.184-0.544,0.305-0.978,0.362c-0.435,0.058-0.999,0.062-1.693,0.014c-0.695-0.049-1.572-0.175-2.633-0.377
		c-1.032-0.198-1.887-0.404-2.564-0.619c-0.678-0.214-1.207-0.428-1.589-0.642c-0.381-0.214-0.633-0.445-0.754-0.694
		c-0.122-0.249-0.156-0.509-0.104-0.781l9.177-47.896c0.229-1.195,0.7-2,1.413-2.413c0.714-0.413,1.519-0.533,2.415-0.361
		l13.655,2.616c1.386,0.266,2.522,0.512,3.408,0.738c0.887,0.227,1.689,0.45,2.407,0.672c2.063,0.706,3.872,1.587,5.431,2.646
		c1.557,1.059,2.814,2.293,3.77,3.701c0.956,1.409,1.591,2.982,1.906,4.718c0.315,1.737,0.272,3.651-0.128,5.744
		c-0.339,1.767-0.871,3.334-1.599,4.701c-0.727,1.368-1.635,2.54-2.723,3.514c-1.089,0.975-2.352,1.761-3.79,2.359
		c-1.439,0.598-3.023,0.999-4.752,1.202c0.715,0.532,1.366,1.136,1.955,1.812c0.589,0.677,1.115,1.46,1.578,2.352
		s0.871,1.886,1.225,2.981c0.354,1.097,0.669,2.319,0.945,3.667l2.452,11.246c0.209,1.111,0.336,1.917,0.382,2.419
		C583.981,178.939,583.979,179.326,583.926,179.597z M572.637,120.3c-0.87-0.167-1.601-0.321-2.193-0.462s-1.088-0.314-1.485-0.517
		c-0.398-0.203-0.731-0.45-0.999-0.741c-0.269-0.291-0.546-0.647-0.831-1.068l-6.399-10.27c-0.275-0.476-0.423-0.848-0.44-1.12
		c-0.019-0.271,0.101-0.453,0.357-0.544c0.257-0.091,0.683-0.108,1.277-0.051s1.354,0.175,2.278,0.352
		c1.114,0.213,2.021,0.408,2.72,0.584c0.698,0.176,1.249,0.353,1.652,0.528c0.402,0.176,0.704,0.368,0.904,0.575
		c0.199,0.208,0.384,0.454,0.556,0.741l3.739,6.506l6.068-4.542c0.27-0.229,0.536-0.411,0.802-0.543
		c0.264-0.132,0.616-0.206,1.057-0.22c0.438-0.014,1.002,0.023,1.689,0.112c0.687,0.089,1.602,0.244,2.743,0.462
		c0.923,0.177,1.65,0.352,2.182,0.523c0.53,0.172,0.896,0.355,1.099,0.549c0.202,0.194,0.244,0.413,0.128,0.658
		c-0.118,0.246-0.36,0.516-0.727,0.812l-9.62,7.2c-0.367,0.296-0.747,0.519-1.142,0.669c-0.396,0.15-0.843,0.24-1.341,0.271
		c-0.5,0.031-1.072,0.006-1.719-0.076S573.561,120.477,572.637,120.3z M576.965,141.16c0.333-1.739,0.221-3.282-0.339-4.629
		c-0.559-1.346-1.688-2.437-3.388-3.269c-0.518-0.24-1.115-0.467-1.792-0.682c-0.678-0.214-1.628-0.438-2.851-0.673l-4.81-0.921
		l-2.867,14.959l5.463,1.047c1.521,0.292,2.889,0.363,4.1,0.215c1.212-0.148,2.262-0.482,3.15-1.002
		c0.888-0.52,1.611-1.206,2.169-2.057C576.358,143.298,576.746,142.302,576.965,141.16z"/>
	<path fill="#FFFFFF" d="M622.683,189.566c-0.257,0.761-0.504,1.385-0.742,1.874s-0.476,0.869-0.713,1.139s-0.479,0.445-0.724,0.522
		c-0.245,0.078-0.485,0.077-0.722-0.003l-25.562-8.625c-0.865-0.292-1.507-0.793-1.924-1.503s-0.432-1.642-0.042-2.796
		l14.968-44.359c0.39-1.153,0.966-1.887,1.728-2.199c0.763-0.312,1.576-0.322,2.441-0.03l25.404,8.572
		c0.236,0.08,0.424,0.216,0.563,0.409c0.139,0.193,0.219,0.476,0.24,0.848c0.021,0.372-0.023,0.825-0.13,1.358
		c-0.107,0.533-0.293,1.193-0.559,1.98c-0.248,0.734-0.491,1.345-0.729,1.834c-0.238,0.489-0.476,0.869-0.713,1.139
		c-0.237,0.271-0.473,0.447-0.704,0.529c-0.232,0.082-0.467,0.083-0.702,0.004l-18.168-6.131l-4.193,12.427l15.376,5.188
		c0.235,0.08,0.428,0.225,0.576,0.436c0.147,0.21,0.235,0.489,0.266,0.834c0.029,0.346-0.01,0.785-0.116,1.318
		c-0.107,0.533-0.285,1.167-0.532,1.901c-0.257,0.761-0.502,1.378-0.735,1.854s-0.467,0.843-0.699,1.1
		c-0.233,0.257-0.47,0.418-0.711,0.483c-0.241,0.065-0.479,0.058-0.715-0.022l-15.377-5.188l-4.843,14.354l18.325,6.184
		c0.236,0.08,0.428,0.225,0.576,0.436c0.147,0.21,0.233,0.495,0.259,0.854s-0.016,0.805-0.123,1.338
		C623.12,188.159,622.939,188.806,622.683,189.566z"/>
	<path fill="#FFFFFF" d="M682.406,192.56c-2.23,4.391-4.712,7.856-7.443,10.394c-2.732,2.539-5.673,4.25-8.821,5.133
		c-3.148,0.884-6.493,1.008-10.035,0.373c-3.541-0.635-7.434-2.03-11.677-4.185l-11.434-5.808c-0.814-0.413-1.377-1.001-1.688-1.765
		c-0.311-0.763-0.19-1.687,0.36-2.772l21.2-41.741c0.551-1.085,1.227-1.728,2.026-1.927c0.799-0.199,1.605-0.092,2.42,0.322
		l12.285,6.24c4.269,2.167,7.635,4.505,10.101,7.015c2.465,2.509,4.217,5.261,5.256,8.256s1.356,6.205,0.951,9.63
		C685.503,185.148,684.336,188.761,682.406,192.56z M672.172,187.781c1.152-2.27,1.959-4.514,2.418-6.732
		c0.459-2.218,0.467-4.34,0.021-6.366s-1.383-3.907-2.813-5.642c-1.431-1.735-3.639-3.361-6.623-4.877l-4.922-2.5l-16.539,32.564
		l5.069,2.575c2.664,1.353,5.084,2.148,7.262,2.384c2.176,0.237,4.229-0.032,6.158-0.806c1.929-0.773,3.722-2.043,5.379-3.809
		C669.238,192.808,670.769,190.544,672.172,187.781z"/>
	<path fill="#FFFFFF" d="M705.54,237.09c-0.463,0.657-0.877,1.185-1.244,1.586s-0.703,0.698-1.008,0.89
		c-0.304,0.191-0.585,0.291-0.842,0.295c-0.258,0.005-0.488-0.064-0.691-0.208l-22.057-15.534c-0.747-0.525-1.219-1.188-1.418-1.988
		c-0.198-0.8,0.053-1.697,0.755-2.692l26.956-38.277c0.701-0.995,1.461-1.534,2.281-1.617c0.819-0.083,1.603,0.139,2.349,0.665
		l21.921,15.438c0.204,0.144,0.345,0.328,0.424,0.552c0.078,0.225,0.074,0.518-0.011,0.88c-0.087,0.363-0.257,0.784-0.511,1.265
		s-0.62,1.061-1.098,1.74c-0.446,0.633-0.854,1.15-1.22,1.552c-0.368,0.401-0.703,0.698-1.008,0.89s-0.58,0.294-0.825,0.307
		c-0.246,0.013-0.471-0.052-0.675-0.196l-15.677-11.041l-7.552,10.723l13.268,9.344c0.204,0.144,0.347,0.337,0.429,0.581
		c0.082,0.244,0.088,0.536,0.019,0.875c-0.071,0.34-0.232,0.75-0.486,1.231c-0.255,0.48-0.604,1.038-1.051,1.671
		c-0.462,0.656-0.873,1.179-1.231,1.569c-0.36,0.39-0.688,0.676-0.983,0.856c-0.297,0.181-0.569,0.268-0.818,0.261
		c-0.25-0.006-0.477-0.082-0.68-0.225l-13.269-9.344l-8.723,12.386l15.813,11.136c0.203,0.144,0.346,0.337,0.429,0.581
		c0.082,0.244,0.083,0.542,0.006,0.893c-0.078,0.351-0.244,0.767-0.498,1.248C706.359,235.866,706.002,236.435,705.54,237.09z
		 M723,184.258c-0.725-0.51-1.327-0.952-1.809-1.325c-0.482-0.373-0.862-0.734-1.141-1.083c-0.279-0.349-0.481-0.711-0.605-1.086
		c-0.126-0.375-0.231-0.814-0.318-1.315l-1.604-11.994c-0.056-0.546-0.036-0.947,0.06-1.202c0.095-0.255,0.277-0.371,0.55-0.349
		c0.271,0.022,0.667,0.182,1.186,0.479c0.518,0.297,1.162,0.717,1.932,1.259c0.927,0.653,1.673,1.204,2.237,1.652
		s0.993,0.835,1.289,1.162c0.294,0.326,0.49,0.625,0.587,0.896c0.097,0.271,0.164,0.572,0.201,0.903l0.73,7.469l7.4-1.642
		c0.34-0.099,0.657-0.154,0.954-0.166c0.295-0.012,0.646,0.067,1.053,0.234c0.406,0.168,0.904,0.434,1.494,0.798
		c0.589,0.364,1.359,0.881,2.31,1.55c0.769,0.541,1.359,1,1.772,1.375c0.412,0.375,0.671,0.693,0.776,0.953
		c0.104,0.26,0.053,0.477-0.155,0.652s-0.54,0.322-0.996,0.441l-11.73,2.602c-0.457,0.119-0.896,0.166-1.316,0.139
		c-0.422-0.026-0.866-0.128-1.334-0.305c-0.468-0.177-0.979-0.436-1.534-0.776C724.432,185.24,723.769,184.799,723,184.258z"/>
	<path fill="#FFFFFF" d="M745.291,273.972c-0.439,0.461-0.91,0.796-1.413,1.005c-0.504,0.208-1.005,0.304-1.505,0.288
		c-0.499-0.017-0.987-0.146-1.463-0.388c-0.476-0.243-0.904-0.545-1.285-0.907l-3.37-3.203c-0.702-0.667-1.242-1.313-1.619-1.94
		c-0.379-0.626-0.607-1.33-0.686-2.111c-0.079-0.781-0.019-1.678,0.182-2.691c0.198-1.013,0.523-2.259,0.977-3.738l7.61-27.408
		c0.468-1.617,1.007-3.328,1.616-5.135c0.609-1.806,1.246-3.52,1.91-5.142l-0.061-0.057c-1.292,1.52-2.601,3.017-3.923,4.489
		s-2.708,2.971-4.156,4.495l-19.357,20.367c-0.19,0.201-0.418,0.329-0.68,0.384c-0.264,0.056-0.583,0.01-0.958-0.137
		c-0.376-0.147-0.822-0.41-1.341-0.788s-1.139-0.91-1.861-1.597c-0.702-0.667-1.255-1.25-1.659-1.749
		c-0.404-0.499-0.685-0.927-0.84-1.285c-0.156-0.358-0.208-0.665-0.155-0.92c0.052-0.256,0.174-0.484,0.364-0.685l33.253-34.988
		c0.896-0.942,1.843-1.388,2.843-1.334c0.999,0.053,1.9,0.46,2.702,1.223l4.242,4.031c0.762,0.724,1.342,1.399,1.739,2.025
		c0.397,0.626,0.659,1.285,0.784,1.977c0.125,0.691,0.116,1.475-0.028,2.349c-0.144,0.875-0.397,1.884-0.759,3.028l-5.943,21.435
		c-0.379,1.282-0.748,2.544-1.107,3.786c-0.36,1.242-0.735,2.47-1.124,3.684c-0.391,1.213-0.776,2.403-1.157,3.567
		c-0.382,1.164-0.773,2.32-1.175,3.465l0.03,0.028c1.274-1.461,2.62-2.968,4.039-4.521c1.418-1.552,2.785-3.021,4.101-4.405
		l17.355-18.261c0.19-0.2,0.422-0.324,0.695-0.37c0.272-0.046,0.606,0.004,1.002,0.151c0.396,0.146,0.847,0.414,1.356,0.802
		c0.509,0.389,1.124,0.926,1.847,1.612c0.682,0.648,1.229,1.216,1.643,1.705s0.688,0.912,0.825,1.271s0.178,0.666,0.126,0.922
		c-0.053,0.256-0.174,0.484-0.364,0.685L745.291,273.972z"/>
	<path fill="#FFFFFF" d="M758.124,293.515c-0.214,0.177-0.463,0.266-0.747,0.269c-0.286,0.002-0.614-0.112-0.985-0.343
		c-0.371-0.231-0.81-0.587-1.314-1.066c-0.506-0.48-1.103-1.135-1.791-1.966c-0.671-0.81-1.199-1.513-1.585-2.109
		c-0.387-0.596-0.659-1.098-0.816-1.506c-0.159-0.408-0.21-0.751-0.154-1.031s0.19-0.508,0.403-0.685l39.057-32.355
		c0.213-0.176,0.462-0.266,0.748-0.269c0.284-0.002,0.617,0.117,0.998,0.359c0.38,0.242,0.822,0.603,1.327,1.083
		c0.506,0.479,1.094,1.124,1.765,1.934c0.688,0.831,1.221,1.539,1.599,2.125c0.377,0.585,0.645,1.083,0.803,1.49
		c0.158,0.408,0.21,0.751,0.154,1.031c-0.057,0.28-0.19,0.508-0.403,0.685L758.124,293.515z M807.633,248.729
		c0.549,0.012,1.029,0.072,1.441,0.18c0.413,0.107,0.826,0.303,1.242,0.588c0.415,0.285,0.859,0.68,1.333,1.187
		c0.473,0.506,1.036,1.153,1.689,1.942c0.812,0.979,1.379,1.794,1.701,2.444s0.466,1.159,0.432,1.529
		c-0.035,0.37-0.225,0.607-0.568,0.713c-0.344,0.105-0.778,0.124-1.302,0.055l-12.271-1.8c-0.368-0.055-0.714-0.136-1.038-0.245
		c-0.324-0.108-0.666-0.284-1.026-0.523c-0.361-0.24-0.748-0.566-1.161-0.979c-0.414-0.412-0.894-0.949-1.44-1.609
		c-0.601-0.725-1.05-1.332-1.348-1.821c-0.298-0.49-0.453-0.882-0.464-1.178c-0.012-0.296,0.106-0.511,0.355-0.645
		c0.248-0.134,0.627-0.196,1.138-0.188L807.633,248.729z"/>
	<path fill="#FFFFFF" d="M801.492,356.233c-0.701,0.781-1.284,1.352-1.747,1.712c-0.464,0.36-0.897,0.479-1.301,0.359
		c-0.403-0.121-0.826-0.501-1.271-1.139c-0.443-0.639-1.001-1.548-1.672-2.725c-0.699-1.226-1.226-2.192-1.58-2.897
		s-0.58-1.27-0.678-1.692s-0.092-0.76,0.019-1.014s0.294-0.518,0.552-0.792l7.587-8.481l-9.988-17.524l-10.808,2.243
		c-0.392,0.096-0.746,0.13-1.063,0.104c-0.318-0.026-0.643-0.176-0.973-0.449c-0.33-0.273-0.701-0.715-1.113-1.324
		c-0.41-0.61-0.911-1.432-1.5-2.465c-0.631-1.106-1.088-1.992-1.372-2.658c-0.284-0.667-0.356-1.199-0.217-1.596
		c0.139-0.398,0.482-0.705,1.028-0.92s1.321-0.419,2.327-0.61l49.595-9.208c0.491-0.088,0.917-0.109,1.279-0.061
		c0.362,0.048,0.729,0.246,1.102,0.591c0.371,0.345,0.788,0.88,1.249,1.605c0.461,0.724,1.041,1.7,1.739,2.926
		c0.809,1.418,1.435,2.558,1.878,3.42c0.443,0.862,0.732,1.565,0.868,2.109c0.135,0.544,0.128,0.994-0.02,1.349
		c-0.148,0.355-0.41,0.735-0.784,1.14L801.492,356.233z M823.502,315.311l-0.021-0.036l-23.593,4.705l7.543,13.233L823.502,315.311z
		"/>
	<path fill="#FFFFFF" d="M821.727,420.428c-0.29,0.092-0.57,0.102-0.841,0.028s-0.543-0.292-0.817-0.654
		c-0.275-0.363-0.565-0.887-0.871-1.574s-0.631-1.571-0.975-2.651c-0.546-1.714-0.872-2.968-0.979-3.761
		c-0.107-0.793-0.082-1.397,0.077-1.811c0.158-0.414,0.393-0.771,0.704-1.073l19.361-23.192l-24.283,7.729
		c-0.29,0.092-0.565,0.093-0.827,0.002c-0.262-0.091-0.527-0.311-0.798-0.661c-0.271-0.349-0.551-0.841-0.84-1.475
		c-0.289-0.634-0.597-1.465-0.924-2.493c-0.319-1.002-0.546-1.852-0.681-2.549c-0.135-0.697-0.193-1.267-0.174-1.708
		c0.019-0.442,0.106-0.782,0.264-1.021c0.155-0.239,0.379-0.404,0.669-0.496l48.211-15.344c0.29-0.092,0.567-0.086,0.833,0.018
		c0.266,0.104,0.526,0.333,0.785,0.687c0.257,0.354,0.533,0.854,0.826,1.501c0.293,0.647,0.599,1.471,0.918,2.474
		c0.327,1.028,0.556,1.884,0.687,2.569c0.131,0.684,0.193,1.246,0.188,1.683c-0.007,0.438-0.09,0.769-0.25,0.995
		c-0.161,0.225-0.387,0.384-0.676,0.476l-21.792,6.936l26.522,8.066c0.401,0.075,0.756,0.209,1.064,0.402
		c0.308,0.192,0.595,0.478,0.861,0.858c0.266,0.38,0.53,0.891,0.793,1.534c0.262,0.642,0.558,1.478,0.885,2.506
		c0.335,1.054,0.572,1.937,0.712,2.648c0.139,0.71,0.2,1.293,0.187,1.749c-0.016,0.455-0.104,0.795-0.264,1.02
		c-0.161,0.226-0.373,0.38-0.637,0.464c-0.448,0.143-0.947,0.171-1.497,0.084c-0.55-0.086-1.444-0.295-2.683-0.627l-22.858-8.187
		l-18.266,22.669c-0.896,0.924-1.503,1.502-1.821,1.734S821.938,420.361,821.727,420.428z"/>
	<path fill="#FFFFFF" d="M842.765,455.918c-2.777,0.499-5.309,0.419-7.591-0.239c-2.283-0.659-4.285-1.747-6.005-3.265
		c-1.722-1.519-3.148-3.398-4.281-5.641c-1.134-2.242-1.943-4.711-2.428-7.407c-0.327-1.825-0.481-3.547-0.464-5.167
		c0.019-1.62,0.131-3.067,0.338-4.341c0.206-1.274,0.469-2.354,0.788-3.241c0.318-0.887,0.623-1.539,0.914-1.957
		c0.29-0.417,0.755-0.761,1.396-1.031c0.641-0.27,1.587-0.517,2.84-0.742c0.844-0.151,1.558-0.252,2.139-0.3
		c0.582-0.048,1.061-0.043,1.437,0.016s0.657,0.177,0.844,0.354s0.305,0.402,0.354,0.674c0.068,0.381-0.06,0.959-0.384,1.735
		c-0.325,0.775-0.662,1.756-1.011,2.943c-0.35,1.187-0.612,2.577-0.79,4.169c-0.178,1.592-0.089,3.382,0.269,5.371
		c0.235,1.307,0.602,2.45,1.101,3.429c0.499,0.979,1.1,1.777,1.801,2.396c0.702,0.618,1.509,1.042,2.422,1.272
		c0.912,0.229,1.886,0.252,2.921,0.066c1.198-0.215,2.168-0.727,2.908-1.535c0.741-0.808,1.35-1.796,1.829-2.964
		c0.479-1.168,0.891-2.473,1.237-3.912c0.346-1.44,0.718-2.927,1.117-4.459c0.399-1.534,0.894-3.042,1.485-4.526
		c0.591-1.484,1.37-2.854,2.34-4.11c0.969-1.256,2.185-2.353,3.647-3.291c1.461-0.937,3.296-1.604,5.502-2
		c2.532-0.455,4.843-0.385,6.932,0.21c2.089,0.594,3.909,1.575,5.462,2.94s2.836,3.075,3.852,5.127
		c1.016,2.053,1.741,4.291,2.177,6.715c0.225,1.252,0.354,2.522,0.389,3.81c0.034,1.287-0.014,2.504-0.146,3.652
		c-0.131,1.147-0.324,2.181-0.581,3.099c-0.258,0.917-0.498,1.537-0.721,1.858c-0.224,0.321-0.423,0.546-0.596,0.676
		c-0.174,0.129-0.411,0.257-0.712,0.381s-0.688,0.243-1.158,0.356c-0.473,0.112-1.063,0.233-1.77,0.36
		c-0.791,0.142-1.461,0.241-2.013,0.298c-0.553,0.057-1.015,0.07-1.385,0.038c-0.372-0.032-0.654-0.122-0.85-0.269
		c-0.195-0.148-0.32-0.372-0.374-0.671c-0.054-0.3,0.051-0.81,0.315-1.532c0.264-0.722,0.534-1.601,0.813-2.634
		c0.278-1.034,0.488-2.21,0.632-3.529c0.143-1.319,0.079-2.728-0.19-4.225c-0.21-1.171-0.536-2.167-0.979-2.987
		c-0.443-0.82-0.969-1.478-1.577-1.973c-0.61-0.495-1.294-0.822-2.053-0.98c-0.76-0.159-1.534-0.167-2.324-0.025
		c-1.171,0.21-2.128,0.712-2.871,1.507c-0.743,0.793-1.352,1.789-1.825,2.984c-0.475,1.195-0.882,2.526-1.223,3.994
		c-0.341,1.467-0.711,2.967-1.109,4.5c-0.399,1.533-0.893,3.055-1.479,4.567c-0.586,1.511-1.362,2.901-2.329,4.171
		c-0.967,1.271-2.174,2.373-3.622,3.308C846.675,454.879,844.889,455.537,842.765,455.918z"/>
	<path fill="#FFFFFF" d="M829.838,478.298c-0.276,0.022-0.532-0.047-0.767-0.208c-0.236-0.162-0.439-0.443-0.61-0.846
		c-0.172-0.402-0.327-0.945-0.466-1.628s-0.252-1.562-0.339-2.637c-0.086-1.048-0.115-1.927-0.09-2.637s0.09-1.278,0.194-1.703
		s0.259-0.736,0.466-0.933c0.206-0.198,0.446-0.307,0.723-0.33l50.551-4.112c0.275-0.022,0.53,0.047,0.767,0.208
		c0.234,0.161,0.438,0.45,0.611,0.866c0.173,0.416,0.329,0.965,0.468,1.648c0.139,0.682,0.251,1.548,0.336,2.596
		c0.087,1.075,0.118,1.961,0.091,2.657c-0.026,0.696-0.092,1.257-0.196,1.682c-0.104,0.425-0.26,0.736-0.465,0.933
		c-0.207,0.197-0.447,0.307-0.723,0.33L829.838,478.298z M896.079,469.994c0.442,0.325,0.803,0.649,1.079,0.974
		c0.275,0.324,0.502,0.723,0.68,1.194c0.177,0.471,0.314,1.05,0.412,1.736c0.098,0.686,0.188,1.539,0.271,2.56
		c0.104,1.269,0.101,2.261-0.008,2.978s-0.283,1.216-0.523,1.5c-0.241,0.283-0.532,0.37-0.874,0.259
		c-0.342-0.111-0.709-0.345-1.098-0.702l-9.021-8.51c-0.271-0.256-0.507-0.521-0.71-0.796s-0.383-0.614-0.541-1.018
		c-0.157-0.403-0.287-0.893-0.39-1.467c-0.103-0.574-0.188-1.29-0.258-2.144c-0.076-0.938-0.096-1.693-0.06-2.265
		c0.037-0.572,0.135-0.983,0.296-1.232c0.16-0.249,0.38-0.357,0.66-0.324c0.28,0.033,0.627,0.199,1.04,0.499L896.079,469.994z"/>
	<path fill="#FFFFFF" d="M833.271,520.021c-0.829-0.014-1.528-0.059-2.094-0.137c-0.566-0.078-1.034-0.191-1.405-0.334
		c-0.372-0.145-0.639-0.322-0.802-0.533c-0.162-0.209-0.241-0.453-0.236-0.73l0.398-24.607c0.015-0.913,0.297-1.677,0.847-2.29
		c0.55-0.614,1.433-0.911,2.65-0.891l48.761,0.791c0.276,0.004,0.523,0.098,0.742,0.282c0.219,0.183,0.394,0.484,0.525,0.901
		c0.131,0.417,0.233,0.979,0.305,1.686c0.071,0.707,0.099,1.585,0.082,2.637c-0.018,1.079-0.073,1.963-0.168,2.654
		c-0.094,0.69-0.214,1.242-0.358,1.655c-0.146,0.412-0.33,0.707-0.555,0.883s-0.475,0.264-0.751,0.258l-43.2-0.7l-0.273,16.89
		c-0.005,0.277-0.085,0.518-0.24,0.723s-0.407,0.373-0.755,0.508c-0.349,0.131-0.807,0.229-1.375,0.289
		C834.801,520.012,834.102,520.035,833.271,520.021z"/>
	<path fill="#FFFFFF" d="M828.552,558.742c-0.797-0.101-1.458-0.219-1.984-0.354c-0.527-0.137-0.946-0.294-1.259-0.472
		c-0.313-0.18-0.531-0.381-0.656-0.605s-0.172-0.461-0.141-0.708l3.359-26.768c0.113-0.906,0.477-1.634,1.09-2.185
		s1.522-0.75,2.731-0.599l46.452,5.83c1.207,0.152,2.04,0.57,2.498,1.255c0.458,0.686,0.63,1.48,0.517,2.387l-3.339,26.603
		c-0.031,0.247-0.128,0.458-0.289,0.633c-0.162,0.175-0.423,0.31-0.782,0.404c-0.361,0.094-0.813,0.142-1.357,0.144
		c-0.544,0.001-1.228-0.05-2.051-0.153c-0.77-0.097-1.417-0.213-1.943-0.349s-0.946-0.293-1.259-0.472
		c-0.312-0.179-0.532-0.374-0.658-0.584c-0.127-0.212-0.175-0.44-0.144-0.688l2.388-19.025l-13.013-1.634l-2.021,16.102
		c-0.031,0.247-0.136,0.465-0.312,0.651c-0.178,0.187-0.433,0.329-0.765,0.427c-0.333,0.098-0.771,0.147-1.315,0.148
		s-1.201-0.046-1.969-0.143c-0.797-0.1-1.451-0.217-1.964-0.351c-0.514-0.135-0.92-0.29-1.218-0.467
		c-0.299-0.177-0.504-0.377-0.614-0.6c-0.112-0.224-0.152-0.458-0.121-0.705l2.021-16.103l-15.031-1.887l-2.409,19.19
		c-0.03,0.247-0.135,0.464-0.312,0.651c-0.177,0.187-0.438,0.328-0.785,0.424s-0.792,0.145-1.336,0.146
		C830.018,558.891,829.348,558.842,828.552,558.742z"/>
	<path fill="#FFFFFF" d="M861.148,614.523c-0.777-0.2-1.432-0.405-1.963-0.613c-0.532-0.209-0.948-0.423-1.249-0.643
		c-0.301-0.221-0.505-0.452-0.614-0.694c-0.108-0.242-0.132-0.484-0.07-0.726l3.356-13.021l-41.919-10.803
		c-0.269-0.069-0.487-0.219-0.656-0.447c-0.17-0.23-0.27-0.563-0.3-0.999c-0.031-0.437,0.002-1.007,0.098-1.711
		s0.274-1.564,0.537-2.583s0.521-1.858,0.778-2.521c0.256-0.663,0.503-1.178,0.741-1.545c0.237-0.368,0.485-0.611,0.745-0.729
		c0.259-0.12,0.522-0.145,0.79-0.075l41.92,10.803l3.355-13.021c0.069-0.269,0.208-0.476,0.417-0.621
		c0.209-0.146,0.498-0.244,0.868-0.291c0.369-0.048,0.837-0.035,1.403,0.04c0.566,0.074,1.238,0.212,2.016,0.412
		c0.804,0.207,1.479,0.417,2.023,0.629c0.546,0.212,0.969,0.428,1.27,0.648c0.3,0.22,0.5,0.443,0.599,0.669
		c0.099,0.225,0.114,0.472,0.045,0.74l-9.445,36.654c-0.063,0.24-0.193,0.442-0.393,0.605s-0.483,0.268-0.853,0.316
		c-0.37,0.047-0.844,0.032-1.424-0.046S861.952,614.73,861.148,614.523z"/>
	<path fill="#FFFFFF" d="M812.966,656.176c-3.032-1.283-5.557-2.879-7.574-4.784c-2.018-1.906-3.487-4.076-4.41-6.51
		c-0.923-2.435-1.277-5.108-1.064-8.022c0.213-2.915,1.02-6.029,2.422-9.341c1.316-3.109,2.887-5.734,4.71-7.876
		c1.823-2.144,3.887-3.733,6.189-4.771s4.823-1.511,7.563-1.417c2.739,0.093,5.689,0.809,8.849,2.146l30.079,12.735
		c0.254,0.108,0.451,0.281,0.591,0.521c0.139,0.239,0.188,0.583,0.148,1.032s-0.156,1.008-0.35,1.678
		c-0.193,0.669-0.5,1.501-0.921,2.494c-0.41,0.969-0.788,1.755-1.134,2.359c-0.347,0.604-0.664,1.071-0.953,1.399
		c-0.29,0.328-0.571,0.531-0.845,0.611c-0.274,0.079-0.539,0.065-0.794-0.043l-29.199-12.363c-1.962-0.831-3.766-1.31-5.409-1.435
		c-1.645-0.126-3.13,0.064-4.456,0.57c-1.325,0.505-2.491,1.289-3.496,2.351c-1.006,1.062-1.837,2.369-2.495,3.924
		c-0.669,1.579-1.026,3.096-1.07,4.55c-0.045,1.453,0.214,2.81,0.777,4.07c0.563,1.26,1.427,2.414,2.591,3.463
		c1.163,1.048,2.611,1.939,4.344,2.673l29.772,12.606c0.255,0.107,0.452,0.281,0.592,0.521c0.139,0.239,0.19,0.577,0.156,1.013
		c-0.034,0.437-0.15,0.996-0.35,1.678c-0.198,0.682-0.503,1.507-0.913,2.476c-0.409,0.968-0.785,1.748-1.126,2.34
		s-0.655,1.052-0.944,1.381c-0.29,0.327-0.568,0.525-0.837,0.592c-0.27,0.066-0.53,0.046-0.785-0.063L812.966,656.176z
		 M858.815,662.429c-1.224-0.518-2.23-1.192-3.021-2.022s-1.346-1.771-1.666-2.824c-0.32-1.052-0.414-2.233-0.279-3.543
		c0.134-1.312,0.514-2.705,1.14-4.183c0.637-1.504,1.354-2.739,2.155-3.707c0.8-0.969,1.676-1.688,2.626-2.156
		c0.949-0.47,1.968-0.692,3.054-0.667c1.087,0.024,2.229,0.29,3.426,0.797c1.224,0.518,2.227,1.183,3.01,1.995
		c0.782,0.812,1.338,1.753,1.666,2.824c0.328,1.069,0.424,2.245,0.288,3.524c-0.137,1.279-0.518,2.658-1.144,4.136
		c-1.251,2.956-2.828,4.925-4.731,5.906C863.436,663.491,861.261,663.465,858.815,662.429z M861.1,656.5
		c0.994,0.421,1.904,0.506,2.731,0.256c0.828-0.252,1.495-0.976,2.002-2.173c0.442-1.045,0.496-1.953,0.162-2.726
		s-1.011-1.374-2.029-1.806c-1.07-0.453-2.006-0.55-2.808-0.288c-0.803,0.262-1.456,0.991-1.964,2.188
		c-0.453,1.07-0.497,1.99-0.132,2.762C859.427,655.483,860.106,656.079,861.1,656.5z"/>
</g>
</svg>
