<?xml version="1.0" encoding="UTF-8" standalone="no"?>
<!-- Generator: Adobe Illustrator 15.0.0, SVG Export Plug-In . SVG Version: 6.00 Build 0)  -->

<svg
   xmlns:dc="http://purl.org/dc/elements/1.1/"
   xmlns:cc="http://creativecommons.org/ns#"
   xmlns:rdf="http://www.w3.org/1999/02/22-rdf-syntax-ns#"
   xmlns:svg="http://www.w3.org/2000/svg"
   xmlns="http://www.w3.org/2000/svg"
   xmlns:sodipodi="http://sodipodi.sourceforge.net/DTD/sodipodi-0.dtd"
   xmlns:inkscape="http://www.inkscape.org/namespaces/inkscape"
   version="1.1"
   x="0px"
   y="0px"
   width="426.66666"
   height="427.2023"
   viewBox="0 0 400 400.50217"
   enable-background="new 0 0 600 600"
   xml:space="preserve"
   id="svg2"
   inkscape:version="0.92.1 r15371"
   sodipodi:docname="karlik_start.svg"><metadata
     id="metadata271"><rdf:RDF><cc:Work
         rdf:about=""><dc:format>image/svg+xml</dc:format><dc:type
           rdf:resource="http://purl.org/dc/dcmitype/StillImage" /><dc:title></dc:title></cc:Work></rdf:RDF></metadata><defs
     id="defs269" /><sodipodi:namedview
     pagecolor="#ffffff"
     bordercolor="#666666"
     borderopacity="1"
     objecttolerance="10"
     gridtolerance="10"
     guidetolerance="10"
     inkscape:pageopacity="0"
     inkscape:pageshadow="2"
     inkscape:window-width="1536"
     inkscape:window-height="1135"
     id="namedview267"
     showgrid="false"
     fit-margin-top="0"
     fit-margin-left="0"
     fit-margin-right="0"
     fit-margin-bottom="0"
     inkscape:zoom="0.78666666"
     inkscape:cx="182.23646"
     inkscape:cy="214.29889"
     inkscape:window-x="-11"
     inkscape:window-y="-11"
     inkscape:window-maximized="1"
     inkscape:current-layer="layer2" /><g
     id="Layer_1"
     display="none"
     style="display:none"
     transform="translate(-100,-99.748915)"><g
       display="inline"
       id="g5"
       style="display:inline"><path
         d="m 123.125,304.11 c 1.566,-2.261 1.566,-5.96 0,-8.221 l -2.235,-3.228 c -1.566,-2.261 -1.344,-5.785 0.493,-7.832 l 2.621,-2.92 c 1.837,-2.047 2.3,-5.717 1.031,-8.157 l -1.812,-3.481 c -1.27,-2.439 -0.608,-5.908 1.471,-7.708 l 2.966,-2.569 c 2.079,-1.8 2.999,-5.384 2.045,-7.963 l -1.362,-3.682 c -0.954,-2.579 0.137,-5.938 2.425,-7.463 l 3.265,-2.177 c 2.288,-1.525 3.649,-4.965 3.026,-7.644 l -0.89,-3.823 c -0.623,-2.678 0.88,-5.874 3.342,-7.1 l 3.512,-1.751 c 2.461,-1.227 4.244,-4.469 3.961,-7.204 l -0.403,-3.904 c -0.283,-2.735 1.609,-5.717 4.205,-6.626 l 3.704,-1.297 c 2.596,-0.909 4.77,-3.902 4.833,-6.651 l 0.089,-3.924 c 0.063,-2.749 2.313,-5.47 5.002,-6.046 l 3.836,-0.823 c 2.689,-0.576 5.222,-3.273 5.628,-5.993 l 0.58,-3.881 c 0.407,-2.72 2.981,-5.137 5.721,-5.372 l 3.91,-0.335 c 2.74,-0.235 5.591,-2.593 6.334,-5.24 l 1.062,-3.778 c 0.744,-2.647 3.601,-4.723 6.349,-4.613 l 3.922,0.157 c 2.748,0.11 5.872,-1.872 6.941,-4.405 l 1.526,-3.614 c 1.07,-2.533 4.165,-4.235 6.877,-3.781 l 3.871,0.647 c 2.712,0.454 6.06,-1.122 7.439,-3.5 l 1.968,-3.396 c 1.379,-2.379 4.663,-3.679 7.296,-2.889 l 3.759,1.128 c 2.634,0.791 6.152,-0.353 7.819,-2.541 l 2.378,-3.122 c 1.667,-2.188 5.087,-3.066 7.601,-1.952 l 3.587,1.589 c 2.514,1.114 6.148,0.421 8.076,-1.541 l 2.751,-2.799 c 1.927,-1.961 5.431,-2.404 7.786,-0.983 l 3.36,2.027 c 2.354,1.421 6.047,1.188 8.205,-0.516 l 3.08,-2.432 c 2.158,-1.705 5.689,-1.705 7.848,0 l 3.08,2.432 c 2.158,1.705 5.851,1.937 8.205,0.516 l 3.36,-2.027 c 2.354,-1.421 5.858,-0.978 7.785,0.983 l 2.751,2.799 c 1.927,1.961 5.561,2.655 8.075,1.541 l 3.587,-1.589 c 2.515,-1.114 5.935,-0.236 7.602,1.952 l 2.378,3.122 c 1.667,2.188 5.186,3.331 7.819,2.541 l 3.761,-1.128 c 2.634,-0.791 5.917,0.51 7.296,2.889 l 1.968,3.395 c 1.379,2.379 4.726,3.955 7.438,3.501 l 3.871,-0.647 c 2.713,-0.454 5.807,1.248 6.877,3.781 l 1.525,3.614 c 1.07,2.533 4.193,4.516 6.941,4.405 l 3.921,-0.157 c 2.748,-0.11 5.605,1.965 6.35,4.613 l 1.062,3.778 c 0.744,2.647 3.596,5.006 6.335,5.24 l 3.91,0.335 c 2.739,0.235 5.314,2.652 5.721,5.372 l 0.581,3.882 c 0.406,2.72 2.939,5.417 5.628,5.993 l 3.838,0.823 c 2.688,0.576 4.939,3.297 5.002,6.046 l 0.088,3.924 c 0.063,2.749 2.237,5.742 4.832,6.651 l 3.704,1.297 c 2.595,0.909 4.487,3.891 4.204,6.626 l -0.403,3.904 c -0.283,2.735 1.499,5.978 3.96,7.204 l 3.513,1.751 c 2.461,1.227 3.965,4.422 3.342,7.101 l -0.89,3.822 c -0.623,2.679 0.739,6.118 3.027,7.644 l 3.265,2.177 c 2.288,1.526 3.38,4.884 2.425,7.463 l -1.361,3.682 c -0.955,2.579 -0.034,6.163 2.044,7.963 l 2.967,2.569 c 2.078,1.8 2.74,5.269 1.47,7.708 l -1.812,3.48 c -1.271,2.439 -0.807,6.109 1.03,8.156 l 2.621,2.921 c 1.837,2.046 2.059,5.571 0.493,7.832 l -2.234,3.227 c -1.565,2.261 -1.565,5.96 0,8.221 l 2.234,3.228 c 1.565,2.261 1.344,5.785 -0.493,7.831 l -2.621,2.922 c -1.837,2.046 -2.301,5.717 -1.031,8.155 l 1.813,3.483 c 1.27,2.438 0.607,5.907 -1.471,7.708 l -2.967,2.569 c -2.078,1.801 -2.998,5.384 -2.044,7.963 l 1.361,3.681 c 0.954,2.579 -0.137,5.938 -2.425,7.463 l -3.265,2.178 c -2.288,1.525 -3.65,4.965 -3.027,7.644 l 0.89,3.822 c 0.623,2.679 -0.881,5.874 -3.342,7.101 l -3.513,1.751 c -2.461,1.227 -4.243,4.469 -3.96,7.204 l 0.403,3.903 c 0.283,2.735 -1.608,5.718 -4.204,6.626 l -3.705,1.298 c -2.596,0.909 -4.77,3.901 -4.831,6.651 l -0.089,3.922 c -0.062,2.75 -2.313,5.471 -5.001,6.047 l -3.838,0.823 c -2.688,0.576 -5.222,3.273 -5.628,5.993 l -0.581,3.881 c -0.406,2.72 -2.981,5.137 -5.721,5.372 l -3.91,0.334 c -2.739,0.235 -5.59,2.593 -6.334,5.24 l -1.063,3.78 c -0.744,2.647 -3.601,4.723 -6.349,4.612 l -3.921,-0.158 c -2.748,-0.11 -5.871,1.872 -6.94,4.405 l -1.527,3.615 c -1.069,2.533 -4.163,4.234 -6.876,3.78 l -3.871,-0.647 c -2.713,-0.455 -6.06,1.121 -7.438,3.5 l -1.968,3.396 c -1.379,2.38 -4.662,3.68 -7.296,2.89 l -3.762,-1.129 c -2.634,-0.79 -6.152,0.354 -7.818,2.541 l -2.379,3.122 c -1.666,2.188 -5.086,3.065 -7.601,1.951 l -3.587,-1.591 c -2.515,-1.114 -6.148,-0.421 -8.075,1.54 l -2.751,2.801 c -1.927,1.961 -5.431,2.404 -7.785,0.983 l -3.36,-2.027 c -2.354,-1.421 -6.047,-1.188 -8.205,0.516 l -3.08,2.433 c -2.158,1.704 -5.689,1.704 -7.848,0 l -3.08,-2.433 c -2.158,-1.704 -5.851,-1.937 -8.205,-0.516 l -3.36,2.027 c -2.355,1.421 -5.858,0.979 -7.786,-0.983 l -2.751,-2.801 c -1.928,-1.962 -5.562,-2.654 -8.075,-1.54 l -3.588,1.591 c -2.514,1.114 -5.934,0.236 -7.601,-1.951 l -2.378,-3.122 c -1.667,-2.188 -5.185,-3.331 -7.819,-2.541 l -3.759,1.129 c -2.634,0.79 -5.917,-0.51 -7.296,-2.89 l -1.968,-3.396 c -1.379,-2.38 -4.727,-3.954 -7.438,-3.5 l -3.872,0.647 c -2.712,0.454 -5.806,-1.247 -6.876,-3.78 l -1.527,-3.616 c -1.07,-2.533 -4.193,-4.516 -6.941,-4.405 l -3.922,0.159 c -2.748,0.11 -5.604,-1.965 -6.349,-4.612 l -1.062,-3.78 c -0.744,-2.647 -3.594,-5.005 -6.334,-5.24 l -3.91,-0.334 c -2.74,-0.235 -5.314,-2.652 -5.721,-5.372 l -0.58,-3.881 c -0.407,-2.72 -2.939,-5.417 -5.628,-5.993 l -3.837,-0.823 c -2.688,-0.576 -4.939,-3.297 -5.002,-6.047 l -0.088,-3.922 c -0.063,-2.75 -2.237,-5.742 -4.833,-6.651 l -3.705,-1.298 c -2.596,-0.909 -4.488,-3.891 -4.205,-6.626 l 0.404,-3.904 c 0.283,-2.735 -1.5,-5.978 -3.961,-7.204 l -3.512,-1.75 c -2.461,-1.227 -3.965,-4.422 -3.342,-7.101 l 0.89,-3.822 c 0.623,-2.679 -0.739,-6.118 -3.026,-7.645 l -3.265,-2.177 c -2.288,-1.526 -3.379,-4.885 -2.425,-7.464 l 1.362,-3.682 c 0.954,-2.579 0.034,-6.162 -2.045,-7.963 l -2.966,-2.568 c -2.079,-1.801 -2.741,-5.27 -1.471,-7.709 l 1.812,-3.48 c 1.27,-2.439 0.806,-6.11 -1.031,-8.157 l -2.621,-2.92 c -1.836,-2.047 -2.059,-5.571 -0.493,-7.832 z"
         id="path7"
         inkscape:connector-curvature="0"
         style="fill:#fbb041" /></g></g><g
     id="text"
     display="none"
     style="display:none"
     transform="translate(-100,-99.748915)"><path
       display="inline"
       d="M 517.881,229.782 C 556.583,347.097 492.855,473.575 375.537,512.278 258.219,550.983 131.742,487.255 93.042,369.935 54.34,252.618 118.069,126.139 235.383,87.439 352.7,48.735 479.178,112.464 517.881,229.782 Z"
       id="path43"
       inkscape:connector-curvature="0"
       style="display:inline;fill:none" /><text
       transform="matrix(-0.4622,-0.8868,0.8868,-0.4622,112.1924,413.0596)"
       display="inline"
       id="text45"
       style="line-height:0%;display:inline"><tspan
         x="0"
         y="0"
         font-size="43"
         id="tspan47"
         style="font-size:43px;font-family:SyntaxLTCE-Roman">•</tspan><tspan
         x="20.98"
         y="0.156"
         font-size="43"
         rotate="4.1469998"
         id="tspan49"
         style="font-size:43px;font-family:SyntaxLTCE-Roman" /><tspan
         x="32.283001"
         y="0.76700002"
         font-size="43"
         rotate="8.3439999"
         id="tspan51"
         style="font-size:43px;font-family:SyntaxLTCE-Roman">K</tspan><tspan
         x="57.507"
         y="4.1830001"
         font-size="43"
         rotate="16.465"
         id="tspan53"
         style="font-size:43px;font-family:SyntaxLTCE-Roman">o</tspan><tspan
         x="90.917999"
         y="14.327"
         font-size="43"
         rotate="24.207001"
         id="tspan55"
         style="font-size:43px;font-family:SyntaxLTCE-Roman">r</tspan><tspan
         x="114.18"
         y="24.879"
         font-size="43"
         rotate="30.181"
         id="tspan57"
         style="font-size:43px;font-family:SyntaxLTCE-Roman">e</tspan><tspan
         x="132.205"
         y="35.327"
         font-size="43"
         rotate="35.543999"
         id="tspan59"
         style="font-size:43px;font-family:SyntaxLTCE-Roman">s</tspan><tspan
         x="149.20599"
         y="47.360001"
         font-size="43"
         rotate="41.192001"
         id="tspan61"
         style="font-size:43px;font-family:SyntaxLTCE-Roman">p</tspan><tspan
         x="166.83099"
         y="62.199001"
         font-size="43"
         rotate="48.584"
         id="tspan63"
         style="font-size:43px;font-family:SyntaxLTCE-Roman">o</tspan><tspan
         x="189.82401"
         y="88.419998"
         font-size="43"
         rotate="56.838001"
         id="tspan65"
         style="font-size:43px;font-family:SyntaxLTCE-Roman">n</tspan><tspan
         x="206.358"
         y="113.608"
         font-size="43"
         rotate="64.509003"
         id="tspan67"
         style="font-size:43px;font-family:SyntaxLTCE-Roman">d</tspan><tspan
         x="219.172"
         y="141.00999"
         font-size="43"
         rotate="71.029999"
         id="tspan69"
         style="font-size:43px;font-family:SyntaxLTCE-Roman">e</tspan><tspan
         x="226.211"
         y="160.50301"
         font-size="43"
         rotate="77.581001"
         id="tspan71"
         style="font-size:43px;font-family:SyntaxLTCE-Roman">n</tspan><tspan
         x="232.674"
         y="189.936"
         font-size="43"
         rotate="85.043999"
         id="tspan73"
         style="font-size:43px;font-family:SyntaxLTCE-Roman">č</tspan><tspan
         x="235.207"
         y="217.623"
         font-size="43"
         rotate="92.485001"
         id="tspan75"
         style="font-size:43px;font-family:SyntaxLTCE-Roman">n</tspan><tspan
         x="233.478"
         y="247.94099"
         font-size="43"
         rotate="97.776001"
         id="tspan77"
         style="font-size:43px;font-family:SyntaxLTCE-Roman">í</tspan><tspan
         x="231.92"
         y="259.43201"
         font-size="43"
         rotate="100.688"
         id="tspan79"
         style="font-size:43px;font-family:SyntaxLTCE-Roman" /><tspan
         x="229.983"
         y="270.716"
         font-size="43"
         rotate="104.799"
         id="tspan81"
         style="font-size:43px;font-family:SyntaxLTCE-Roman">S</tspan><tspan
         x="224.686"
         y="290.88699"
         font-size="43"
         rotate="110.14"
         id="tspan83"
         style="font-size:43px;font-family:SyntaxLTCE-Roman">e</tspan><tspan
         x="218.248"
         y="310.49899"
         font-size="43"
         rotate="117.9"
         id="tspan85"
         style="font-size:43px;font-family:SyntaxLTCE-Roman">m</tspan><tspan
         x="198.972"
         y="345.25201"
         font-size="43"
         rotate="124.457"
         id="tspan87"
         style="font-size:43px;font-family:SyntaxLTCE-Roman">i</tspan><tspan
         x="192.95599"
         y="354.85901"
         font-size="43"
         rotate="129.80901"
         id="tspan89"
         style="font-size:43px;font-family:SyntaxLTCE-Roman">n</tspan><tspan
         x="173.625"
         y="378.01999"
         font-size="43"
         rotate="137.209"
         id="tspan91"
         style="font-size:43px;font-family:SyntaxLTCE-Roman">á</tspan><tspan
         x="153.189"
         y="396.91"
         font-size="43"
         rotate="143.983"
         id="tspan93"
         style="font-size:43px;font-family:SyntaxLTCE-Roman">ř</tspan><tspan
         x="132.248"
         y="411.79901"
         font-size="43"
         rotate="148.703"
         id="tspan95"
         style="font-size:43px;font-family:SyntaxLTCE-Roman" /><tspan
         x="122.618"
         y="417.948"
         font-size="43"
         rotate="153.13499"
         id="tspan97"
         style="font-size:43px;font-family:SyntaxLTCE-Roman">z</tspan><tspan
         x="101.69"
         y="428.31601"
         font-size="43"
         rotate="157.578"
         id="tspan99"
         style="font-size:43px;font-family:SyntaxLTCE-Roman" /><tspan
         x="91.001999"
         y="432.73599"
         font-size="43"
         rotate="160.54201"
         id="tspan101"
         style="font-size:43px;font-family:SyntaxLTCE-Roman">I</tspan><tspan
         x="80.482002"
         y="436.95801"
         font-size="43"
         rotate="165.901"
         id="tspan103"
         style="font-size:43px;font-family:SyntaxLTCE-Roman">n</tspan><tspan
         x="51.105"
         y="444.103"
         font-size="43"
         rotate="172.466"
         id="tspan105"
         style="font-size:43px;font-family:SyntaxLTCE-Roman">f</tspan><tspan
         x="30.681999"
         y="447.30801"
         font-size="43"
         rotate="179.627"
         id="tspan107"
         style="font-size:43px;font-family:SyntaxLTCE-Roman">o</tspan><tspan
         x="-4.243"
         y="447.26999"
         font-size="43"
         rotate="-172.696"
         id="tspan109"
         style="font-size:43px;font-family:SyntaxLTCE-Roman">r</tspan><tspan
         x="-29.459"
         y="444.63"
         font-size="43"
         rotate="-164.5"
         id="tspan111"
         style="font-size:43px;font-family:SyntaxLTCE-Roman">m</tspan><tspan
         x="-67.458"
         y="433.71301"
         font-size="43"
         rotate="-155.87601"
         id="tspan113"
         style="font-size:43px;font-family:SyntaxLTCE-Roman">a</tspan><tspan
         x="-92.863998"
         y="422.23499"
         font-size="43"
         rotate="-149.302"
         id="tspan115"
         style="font-size:43px;font-family:SyntaxLTCE-Roman">t</tspan><tspan
         x="-112.832"
         y="410.134"
         font-size="43"
         rotate="-144.827"
         id="tspan117"
         style="font-size:43px;font-family:SyntaxLTCE-Roman">i</tspan><tspan
         x="-122.323"
         y="403.83801"
         font-size="43"
         rotate="-140.07201"
         id="tspan119"
         style="font-size:43px;font-family:SyntaxLTCE-Roman">k</tspan><tspan
         x="-141.896"
         y="387.51199"
         font-size="43"
         rotate="-133.562"
         id="tspan121"
         style="font-size:43px;font-family:SyntaxLTCE-Roman">y</tspan><tspan
         x="-159.38699"
         y="368.729"
         font-size="43"
         rotate="-128.845"
         id="tspan123"
         style="font-size:43px;font-family:SyntaxLTCE-Roman" /><tspan
         x="-166.728"
         y="359.91501"
         font-size="43"
         rotate="-124.715"
         id="tspan125"
         style="font-size:43px;font-family:SyntaxLTCE-Roman">•</tspan><tspan
         x="-178.54201"
         y="342.59799"
         font-size="43"
         rotate="-120.592"
         id="tspan127"
         style="font-size:43px;font-family:SyntaxLTCE-Roman" /></text>
</g><g
     id="Layer_6"
     display="none"
     style="display:none"
     transform="translate(-100,-99.748915)"><path
       display="inline"
       d="m 95.321,300 c 0,113.035 91.632,204.667 204.666,204.667 113.035,0 204.667,-91.632 204.667,-204.667"
       id="path130"
       inkscape:connector-curvature="0"
       style="display:inline;fill:none" /><text
       transform="matrix(0.3002,0.9539,-0.9539,0.3002,77.1504,360.501)"
       display="inline"
       id="text132"
       style="line-height:0%;display:inline"><tspan
         x="0"
         y="0"
         font-size="37"
         id="tspan134"
         style="font-size:37px;font-family:SyntaxLTCE-Roman">•</tspan><tspan
         x="24.499001"
         y="0.15700001"
         font-size="37"
         rotate="-8.1569996"
         id="tspan136"
         style="font-size:37px;font-family:SyntaxLTCE-Roman">M</tspan><tspan
         x="65.046997"
         y="-6.5489998"
         font-size="37"
         rotate="-17.098"
         id="tspan138"
         style="font-size:37px;font-family:SyntaxLTCE-Roman">A</tspan><tspan
         x="92.600998"
         y="-15.457"
         font-size="37"
         rotate="-23.497999"
         id="tspan140"
         style="font-size:37px;font-family:SyntaxLTCE-Roman">s</tspan><tspan
         x="113.48"
         y="-24.608"
         font-size="37"
         rotate="-29.888"
         id="tspan142"
         style="font-size:37px;font-family:SyntaxLTCE-Roman">a</tspan><tspan
         x="138.838"
         y="-39.591999"
         font-size="37"
         rotate="-36.911999"
         id="tspan144"
         style="font-size:37px;font-family:SyntaxLTCE-Roman">r</tspan><tspan
         x="160.383"
         y="-56.108002"
         font-size="37"
         rotate="-43.646999"
         id="tspan146"
         style="font-size:37px;font-family:SyntaxLTCE-Roman">y</tspan><tspan
         x="179.87399"
         y="-75.073997"
         font-size="37"
         rotate="-50.424999"
         id="tspan148"
         style="font-size:37px;font-family:SyntaxLTCE-Roman">k</tspan><tspan
         x="197.745"
         y="-96.853996"
         font-size="37"
         rotate="-58.491001"
         id="tspan150"
         style="font-size:37px;font-family:SyntaxLTCE-Roman">o</tspan><tspan
         x="216.298"
         y="-128.351"
         font-size="37"
         rotate="-66.82"
         id="tspan152"
         style="font-size:37px;font-family:SyntaxLTCE-Roman">v</tspan><tspan
         x="227.63"
         y="-155.603"
         font-size="37"
         rotate="-74.058998"
         id="tspan154"
         style="font-size:37px;font-family:SyntaxLTCE-Roman">á</tspan><tspan
         x="234.882"
         y="-182.72701"
         font-size="37"
         rotate="-79.208"
         id="tspan156"
         style="font-size:37px;font-family:SyntaxLTCE-Roman" /><tspan
         x="237.71201"
         y="-196.39301"
         font-size="37"
         rotate="-84.721001"
         id="tspan158"
         style="font-size:37px;font-family:SyntaxLTCE-Roman">u</tspan><tspan
         x="240.29201"
         y="-228.511"
         font-size="37"
         rotate="-92.771004"
         id="tspan160"
         style="font-size:37px;font-family:SyntaxLTCE-Roman">n</tspan><tspan
         x="238.25101"
         y="-258.81"
         font-size="37"
         rotate="-98.305"
         id="tspan162"
         style="font-size:37px;font-family:SyntaxLTCE-Roman">i</tspan><tspan
         x="236.435"
         y="-272.42599"
         font-size="37"
         rotate="-103.509"
         id="tspan164"
         style="font-size:37px;font-family:SyntaxLTCE-Roman">v</tspan><tspan
         x="229.257"
         y="-300.517"
         font-size="37"
         rotate="-109.93"
         id="tspan166"
         style="font-size:37px;font-family:SyntaxLTCE-Roman">e</tspan><tspan
         x="221.464"
         y="-321.69601"
         font-size="37"
         rotate="-116.013"
         id="tspan168"
         style="font-size:37px;font-family:SyntaxLTCE-Roman">r</tspan><tspan
         x="209.39301"
         y="-345.75299"
         font-size="37"
         rotate="-122.408"
         id="tspan170"
         style="font-size:37px;font-family:SyntaxLTCE-Roman">z</tspan><tspan
         x="196.534"
         y="-365.41501"
         font-size="37"
         rotate="-126.95"
         id="tspan172"
         style="font-size:37px;font-family:SyntaxLTCE-Roman">i</tspan><tspan
         x="188.623"
         y="-376.07401"
         font-size="37"
         rotate="-131.515"
         id="tspan174"
         style="font-size:37px;font-family:SyntaxLTCE-Roman">t</tspan><tspan
         x="171.849"
         y="-394.80099"
         font-size="37"
         rotate="-138.282"
         id="tspan176"
         style="font-size:37px;font-family:SyntaxLTCE-Roman">A</tspan><tspan
         x="149.90401"
         y="-413.80301"
         font-size="37"
         rotate="-144.763"
         id="tspan178"
         style="font-size:37px;font-family:SyntaxLTCE-Roman">•</tspan></text>
<circle
       display="inline"
       cx="299.987"
       cy="300"
       r="204.666"
       id="circle180"
       style="display:inline;fill:none" /><text
       transform="matrix(-0.176,-0.9844,0.9844,-0.176,100.5146,347.3955)"
       display="inline"
       id="text182"
       style="line-height:0%;display:inline"><tspan
         x="0"
         y="0"
         font-size="37"
         id="tspan184"
         style="font-size:37px;font-family:SyntaxLTCE-Roman">k</tspan><tspan
         x="21.521999"
         y="-0.32100001"
         font-size="37"
         rotate="7.1459999"
         id="tspan186"
         style="font-size:37px;font-family:SyntaxLTCE-Roman">o</tspan><tspan
         x="51.021"
         y="3.5639999"
         font-size="37"
         rotate="14.207"
         id="tspan188"
         style="font-size:37px;font-family:SyntaxLTCE-Roman">r</tspan><tspan
         x="72.003998"
         y="8.9289999"
         font-size="37"
         rotate="19.681999"
         id="tspan190"
         style="font-size:37px;font-family:SyntaxLTCE-Roman">e</tspan><tspan
         x="88.593002"
         y="14.821"
         font-size="37"
         rotate="24.634001"
         id="tspan192"
         style="font-size:37px;font-family:SyntaxLTCE-Roman">s</tspan><tspan
         x="104.602"
         y="22.063"
         font-size="37"
         rotate="29.879"
         id="tspan194"
         style="font-size:37px;font-family:SyntaxLTCE-Roman">p</tspan><tspan
         x="121.695"
         y="31.451"
         font-size="37"
         rotate="36.803001"
         id="tspan196"
         style="font-size:37px;font-family:SyntaxLTCE-Roman">o</tspan><tspan
         x="145.433"
         y="49.290001"
         font-size="37"
         rotate="44.530998"
         id="tspan198"
         style="font-size:37px;font-family:SyntaxLTCE-Roman">n</tspan><tspan
         x="163.73599"
         y="67.199997"
         font-size="37"
         rotate="51.658001"
         id="tspan200"
         style="font-size:37px;font-family:SyntaxLTCE-Roman">d</tspan><tspan
         x="179.562"
         y="87.473"
         font-size="37"
         rotate="57.667999"
         id="tspan202"
         style="font-size:37px;font-family:SyntaxLTCE-Roman">e</tspan><tspan
         x="189.15199"
         y="102.124"
         font-size="37"
         rotate="63.68"
         id="tspan204"
         style="font-size:37px;font-family:SyntaxLTCE-Roman">n</tspan><tspan
         x="200.52"
         y="125.092"
         font-size="37"
         rotate="70.553001"
         id="tspan206"
         style="font-size:37px;font-family:SyntaxLTCE-Roman">č</tspan><tspan
         x="208.5"
         y="147.312"
         font-size="37"
         rotate="77.464996"
         id="tspan208"
         style="font-size:37px;font-family:SyntaxLTCE-Roman">n</tspan><tspan
         x="213.787"
         y="172.541"
         font-size="37"
         rotate="82.417999"
         id="tspan210"
         style="font-size:37px;font-family:SyntaxLTCE-Roman">í</tspan><tspan
         x="215.076"
         y="182.11"
         font-size="37"
         rotate="85.140999"
         id="tspan212"
         style="font-size:37px;font-family:SyntaxLTCE-Roman" /><tspan
         x="216.04401"
         y="191.56"
         font-size="37"
         rotate="88.972"
         id="tspan214"
         style="font-size:37px;font-family:SyntaxLTCE-Roman">s</tspan><tspan
         x="216.397"
         y="209.161"
         font-size="37"
         rotate="93.904999"
         id="tspan216"
         style="font-size:37px;font-family:SyntaxLTCE-Roman">e</tspan><tspan
         x="215.80701"
         y="226.577"
         font-size="37"
         rotate="101.068"
         id="tspan218"
         style="font-size:37px;font-family:SyntaxLTCE-Roman">m</tspan><tspan
         x="208.746"
         y="259.754"
         font-size="37"
         rotate="106.965"
         id="tspan220"
         style="font-size:37px;font-family:SyntaxLTCE-Roman">i</tspan><tspan
         x="206.37399"
         y="268.87399"
         font-size="37"
         rotate="111.905"
         id="tspan222"
         style="font-size:37px;font-family:SyntaxLTCE-Roman">n</tspan><tspan
         x="196.82201"
         y="292.64401"
         font-size="37"
         rotate="118.835"
         id="tspan224"
         style="font-size:37px;font-family:SyntaxLTCE-Roman">á</tspan><tspan
         x="185.41701"
         y="313.35901"
         font-size="37"
         rotate="125.2"
         id="tspan226"
         style="font-size:37px;font-family:SyntaxLTCE-Roman">ř</tspan><tspan
         x="172.702"
         y="331.02899"
         font-size="37"
         rotate="129.58299"
         id="tspan228"
         style="font-size:37px;font-family:SyntaxLTCE-Roman" /><tspan
         x="166.819"
         y="338.47699"
         font-size="37"
         rotate="133.67599"
         id="tspan230"
         style="font-size:37px;font-family:SyntaxLTCE-Roman">z</tspan><tspan
         x="153.062"
         y="352.66101"
         font-size="37"
         rotate="137.755"
         id="tspan232"
         style="font-size:37px;font-family:SyntaxLTCE-Roman" /><tspan
         x="145.94901"
         y="359.14301"
         font-size="37"
         rotate="140.435"
         id="tspan234"
         style="font-size:37px;font-family:SyntaxLTCE-Roman">i</tspan><tspan
         x="138.94501"
         y="365.43399"
         font-size="37"
         rotate="145.33099"
         id="tspan236"
         style="font-size:37px;font-family:SyntaxLTCE-Roman">n</tspan><tspan
         x="117.695"
         y="379.931"
         font-size="37"
         rotate="151.345"
         id="tspan238"
         style="font-size:37px;font-family:SyntaxLTCE-Roman">f</tspan><tspan
         x="102.58"
         y="388.66599"
         font-size="37"
         rotate="157.927"
         id="tspan240"
         style="font-size:37px;font-family:SyntaxLTCE-Roman">o</tspan><tspan
         x="74.939003"
         y="399.67099"
         font-size="37"
         rotate="165.11"
         id="tspan242"
         style="font-size:37px;font-family:SyntaxLTCE-Roman">r</tspan><tspan
         x="54.334999"
         y="405.66501"
         font-size="37"
         rotate="172.87199"
         id="tspan244"
         style="font-size:37px;font-family:SyntaxLTCE-Roman">m</tspan><tspan
         x="20.834"
         y="409.57401"
         font-size="37"
         rotate="-179.078"
         id="tspan246"
         style="font-size:37px;font-family:SyntaxLTCE-Roman">a</tspan><tspan
         x="-2.826"
         y="409.13599"
         font-size="37"
         rotate="-173.052"
         id="tspan248"
         style="font-size:37px;font-family:SyntaxLTCE-Roman">t</tspan><tspan
         x="-22.426001"
         y="406.60101"
         font-size="37"
         rotate="-168.933"
         id="tspan250"
         style="font-size:37px;font-family:SyntaxLTCE-Roman">i</tspan><tspan
         x="-31.768999"
         y="405.04999"
         font-size="37"
         rotate="-164.70599"
         id="tspan252"
         style="font-size:37px;font-family:SyntaxLTCE-Roman">k</tspan><tspan
         x="-52.643002"
         y="399.39899"
         font-size="37"
         rotate="-158.655"
         id="tspan254"
         style="font-size:37px;font-family:SyntaxLTCE-Roman">y</tspan></text>
</g><g
     inkscape:groupmode="layer"
     id="layer1"
     inkscape:label="bg"
     transform="translate(-100,-99.748915)"><path
       id="path5"
       d="m 500,437.05606 c 0,34.75727 -28.43782,63.19502 -63.19501,63.19502 H 163.19501 C 128.43774,500.25108 100,471.81333 100,437.05606 V 162.94392 c 0,-34.75724 28.43774,-63.195005 63.19501,-63.195005 h 273.60956 c 34.75722,0 63.195,28.437765 63.195,63.195005 v 274.11214 z"
       inkscape:connector-curvature="0"
       style="fill:#fbaf41" /></g><g
     inkscape:groupmode="layer"
     id="layer2"
     inkscape:label="fg"
     transform="translate(-100,-99.748915)"><g
       id="ksi"
       transform="matrix(0.95187486,0,0,0.95199719,91.738332,26.643813)"
       style="stroke-width:1.05049086"><g
         id="g10"
         style="stroke-width:1.05049086"><path
           style="fill:#ffffff;stroke:#000000;stroke-width:1.05049086"
           inkscape:connector-curvature="0"
           d="m 389.161,315.186 c -6.132,-9.19 -33.549,-29.602 -37.53,-35.684 -3.979,-6.083 -3.513,-8.41 -3.549,-12.007 0.276,-14.964 9.482,-30.428 9.482,-43.859 0,-6.974 -0.352,-13.908 -2.605,-20.493 -6.265,-18.307 -18.338,-34.775 -36.276,-40.924 -5.067,-1.739 -12.81,-1.913 -18.475,-1.924 v -10e-4 c -0.072,0 -0.148,0 -0.22,0 -0.071,0 -0.147,0 -0.22,0 v 10e-4 c -5.665,0.011 -13.405,0.185 -18.476,1.924 -17.938,6.149 -30.01,22.617 -36.276,40.924 -2.252,6.585 -2.604,13.519 -2.604,20.493 0,13.432 9.206,28.895 9.483,43.859 -0.037,3.597 0.429,5.924 -3.551,12.007 -3.98,6.082 -31.397,26.493 -37.528,35.684 -9.296,13.938 -7.299,20.808 3.085,17.414 3.795,-1.24 14.133,-4.256 14.133,-4.256 0,0 5.16,25.927 5.16,38.54 0,52.563 27.209,67.214 66.574,67.389 v 0.004 c 0.074,0 0.147,-0.003 0.22,-0.003 0.073,0 0.146,0.003 0.22,0.003 v -0.004 c 39.364,-0.175 69.547,-14.826 69.547,-67.389 0,-12.613 2.187,-38.54 2.187,-38.54 0,0 10.339,3.016 14.133,4.256 10.384,3.393 12.381,-3.477 3.086,-17.414 z"
           id="path12" /><path
           style="fill:#fbb041;stroke-width:1.05049086"
           inkscape:connector-curvature="0"
           d="m 302.944,253.471 c -1.626,2.218 -4.286,2.218 -5.912,0 l -6.451,-8.8 c -1.626,-2.218 -0.706,-4.033 2.044,-4.033 h 14.725 c 2.75,0 3.67,1.815 2.044,4.033 z"
           id="path14" /><g
           id="g16"
           style="stroke-width:1.05049086"><circle
             cx="321.52899"
             cy="219.019"
             r="5.599"
             id="circle18"
             style="stroke-width:1.05049086" /><circle
             cx="278.90201"
             cy="219.019"
             r="5.598"
             id="circle20"
             style="stroke-width:1.05049086" /><path
             inkscape:connector-curvature="0"
             d="m 350.434,207.994 c -4.437,1.632 -8.872,3.264 -13.309,4.896 -1.798,-5.904 -7.857,-9.893 -14.016,-10.224 -6.08,-0.327 -10.897,3.66 -13.156,8.82 -2.535,-2.188 -5.996,-2.799 -9.51,-2.858 -0.081,-10e-4 -0.152,0.012 -0.227,0.019 -0.076,-0.007 -0.146,-0.02 -0.228,-0.019 -3.495,0.059 -6.936,0.664 -9.468,2.82 -2.237,-5.099 -7.059,-8.452 -13.199,-8.782 -6.663,-0.358 -11.815,4.458 -13.739,10.327 -4.528,-1.666 -9.057,-3.332 -13.585,-4.998 -2.275,-0.837 -3.247,2.789 -0.997,3.616 4.611,1.697 9.223,3.393 13.834,5.09 -0.014,0.167 -0.041,0.333 -0.049,0.5 -0.442,8.21 6.975,14.128 14.536,14.535 8.007,0.431 13.819,-6.614 14.48,-13.976 0.041,-0.171 0.066,-0.353 0.055,-0.559 0.011,-0.203 -0.014,-0.381 -0.053,-0.55 -0.024,-0.293 -0.045,-0.589 -0.084,-0.876 1.766,-2.963 5.087,-3.343 8.269,-3.396 0.081,-0.001 0.152,-0.017 0.228,-0.026 0.075,0.009 0.146,0.025 0.227,0.026 3.184,0.054 6.508,0.433 8.272,3.403 -0.041,0.286 -0.06,0.573 -0.085,0.86 -0.041,0.171 -0.066,0.353 -0.056,0.559 -0.011,0.202 0.014,0.381 0.053,0.55 0.672,7.934 6.442,13.553 14.482,13.985 8.21,0.442 14.127,-6.975 14.534,-14.535 0.01,-0.175 -0.005,-0.344 -0.003,-0.517 4.597,-1.691 9.193,-3.382 13.789,-5.073 2.251,-0.829 1.279,-4.454 -0.995,-3.617 z m -83.898,9.205 c -0.329,-6.103 5.163,-10.481 10.786,-10.784 6.102,-0.329 10.482,5.162 10.785,10.784 -0.749,13.9 -20.822,13.9 -21.571,0 z m 56.573,10.785 c -6.102,0.329 -10.482,-5.163 -10.785,-10.785 0.749,-13.899 20.821,-13.899 21.569,0 0.329,6.102 -5.161,10.483 -10.784,10.785 z"
             id="path22"
             style="stroke-width:1.05049086" /></g><path
           style="stroke:#000000;stroke-width:1.05049086"
           inkscape:connector-curvature="0"
           d="m 392.713,315.839 c -6.354,-9.526 -34.771,-30.683 -38.897,-36.986 -4.126,-6.303 -3.641,-8.718 -3.68,-12.444 0.288,-15.51 9.829,-31.539 9.829,-45.459 0,-7.228 -0.364,-14.416 -2.699,-21.24 -6.493,-18.975 -15.041,-45.102 -56.977,-45.156 -0.099,0 -0.194,0.002 -0.289,0.004 -0.095,-0.002 -0.19,-0.005 -0.289,-0.004 -41.936,0.054 -50.483,26.181 -56.977,45.156 -2.335,6.825 -2.7,14.013 -2.7,21.24 0,13.921 9.543,29.95 9.829,45.459 -0.038,3.728 0.446,6.142 -3.68,12.444 -4.125,6.304 -32.542,27.46 -38.897,36.986 -9.635,14.445 -7.564,21.566 3.198,18.049 3.933,-1.286 14.648,-4.41 14.648,-4.41 0,0 3.101,26.871 3.101,39.944 0,26.027 17.556,48.29 10.052,51.512 -7.504,3.22 -8.192,3.266 -13.15,6.086 -4.958,2.82 -7.416,11.837 5.719,11.81 13.134,-0.026 16.171,-0.053 16.171,-0.053 0,0 34.556,0.287 39.747,0.739 6.109,0.533 11.744,-0.028 13.228,-0.196 1.483,0.168 7.119,0.729 13.227,0.196 5.191,-0.452 39.746,-0.739 39.746,-0.739 0,0 3.037,0.026 16.172,0.053 13.136,0.027 10.678,-8.989 5.72,-11.81 -4.959,-2.82 -5.647,-2.866 -13.15,-6.086 -7.504,-3.222 10.052,-25.484 10.052,-51.512 0,-13.073 3.103,-39.944 3.103,-39.944 0,0 10.715,3.124 14.647,4.41 10.761,3.517 12.833,-3.604 3.196,-18.049 z m -49.64,103.448 c -18.371,15.47 -42.922,13.941 -43.012,13.944 -0.002,0 -0.036,0.001 -0.062,0.002 -0.025,-10e-4 -0.059,-0.002 -0.061,-0.002 -0.09,-0.003 -24.642,1.525 -43.012,-13.944 -11.201,-9.436 -17.13,-25.188 -16.785,-51.462 0.909,-69.365 14.54,-70.73 17.95,-96.201 0,0 0.228,-10.007 -0.454,-15.238 -0.432,-3.318 -6.709,-18.421 -5.686,-37.069 1.024,-18.649 8.074,-29.452 19.559,-36.389 10.385,-6.272 25.416,-6.408 28.2,-6.376 v 0.005 c 0.075,0.001 0.125,0.002 0.125,0.002 0,0 0.059,-0.002 0.153,-0.004 0.114,0.002 0.178,0.004 0.178,0.004 0,0 0.049,-0.002 0.124,-0.003 v -0.006 c 2.783,-0.032 17.813,0.105 28.2,6.377 11.483,6.937 18.533,17.739 19.557,36.388 1.024,18.649 -5.252,33.751 -5.685,37.07 -0.682,5.231 -0.454,15.239 -0.454,15.239 3.411,25.471 17.04,26.835 17.95,96.201 0.344,26.275 -5.585,42.027 -16.785,51.462 z"
           id="path24" /><g
           id="g26"
           style="stroke-width:1.05049086"><g
             id="g28"
             style="stroke-width:1.05049086"><path
               style="fill:#fbb041;stroke-width:1.05049086"
               inkscape:connector-curvature="0"
               d="m 279.976,346.444 c 1.65,0 3,-1.35 3,-3 v -0.13 c 0,-1.65 1.35,-3 3,-3 h 28.023 c 1.65,0 3,1.35 3,3 v 0.13 c 0,1.65 1.35,3 3,3 h 2.006 c 1.65,0 3,-1.35 3,-3 v -8.134 c 0,-1.65 -1.35,-3 -3,-3 h -44.034 c -1.65,0 -3,1.35 -3,3 v 8.134 c 0,1.65 1.35,3 3,3 z"
               id="path30" /></g><g
             id="g32"
             style="stroke-width:1.05049086"><path
               style="fill:#fbb041;stroke-width:1.05049086"
               inkscape:connector-curvature="0"
               d="m 319.999,368.209 c -1.65,0 -3,1.35 -3,3 v 0.129 c 0,1.65 -1.35,3 -3,3 h -28.023 c -1.65,0 -3,-1.35 -3,-3 v -0.129 c 0,-1.65 -1.35,-3 -3,-3 h -2.005 c -1.65,0 -3,1.35 -3,3 v 8.135 c 0,1.65 1.35,3 3,3 h 44.034 c 1.65,0 3,-1.35 3,-3 v -8.135 c 0,-1.65 -1.35,-3 -3,-3 z"
               id="path34" /></g></g><path
           style="fill:#fbb041;stroke-width:1.05049086"
           inkscape:connector-curvature="0"
           d="m 311.984,358.329 c 0,1.65 -1.35,3 -3,3 h -17.993 c -1.65,0 -3,-1.35 -3,-3 v -2.006 c 0,-1.65 1.35,-3 3,-3 h 17.993 c 1.65,0 3,1.35 3,3 z"
           id="path36" /></g><g
         id="karlik"
         style="stroke-width:1.05049086"><path
           style="display:none;fill:#ffffff;stroke:#000000;stroke-width:2.10098171"
           inkscape:connector-curvature="0"
           display="none"
           d="m 345.75,280.75 c 0,0 -0.25,-11 0.5,-16.75 0.476,-3.647 7.375,-20.25 6.25,-40.75 -1.125,-20.5 -8.875,-32.375 -21.5,-40 -12.625,-7.625 -31,-7 -31,-7 0,0 -18.375,-0.625 -31,7 -12.625,7.625 -20.375,19.5 -21.5,40 -1.125,20.5 5.774,37.103 6.25,40.75 0.75,5.75 0.5,16.75 0.5,16.75 -3.75,28 -22,29.5 -23,105.75 -1,76.25 68.75,73.162 68.75,73.162 0,0 69.75,3.088 68.75,-73.162 -1,-76.25 -19.25,-77.75 -23,-105.75 z"
           id="path39" /><g
           id="brile"
           style="stroke-width:1.05049086" /></g></g><g
       id="g5086"
       transform="matrix(1.0227422,0,0,1.0227555,6.5338792,1.3701495)"
       style="stroke-width:0.97775716"><rect
         transform="matrix(0.93098868,-0.36504804,0.36410095,0.93135949,0,0)"
         ry="3.2082498"
         rx="6.5082226"
         y="242.44522"
         x="138.63939"
         height="185.00426"
         width="8.5128622"
         id="rect974"
         style="opacity:1;fill:#000000;fill-opacity:1;fill-rule:nonzero;stroke:none;stroke-width:1.73224747;stroke-miterlimit:4;stroke-dasharray:none;stroke-opacity:1" /><rect
         transform="matrix(0.93147621,-0.36380225,0.36363602,0.93154111,0,0)"
         ry="7.3331428"
         rx="7.3332133"
         y="242.24803"
         x="25.168116"
         height="83.13121"
         width="121.68038"
         id="rect976"
         style="opacity:1;fill:#000101;fill-opacity:1;fill-rule:nonzero;stroke:none;stroke-width:1.73224688;stroke-miterlimit:4;stroke-dasharray:none;stroke-opacity:1" /><g
         transform="rotate(-21.292454,101.65435,190.30495)"
         id="g5063"
         style="stroke-width:0.97775716"><rect
           style="opacity:1;fill:#ffffff;fill-opacity:1;fill-rule:nonzero;stroke:none;stroke-width:1.73224699;stroke-miterlimit:4;stroke-dasharray:none;stroke-opacity:1"
           id="rect4660-8-9"
           width="14.746998"
           height="13.482969"
           x="109.5446"
           y="225.60191"
           transform="rotate(-0.03596219)" /><rect
           style="opacity:1;fill:#ffffff;fill-opacity:1;fill-rule:nonzero;stroke:none;stroke-width:1.73224699;stroke-miterlimit:4;stroke-dasharray:none;stroke-opacity:1"
           id="rect4660-8-1"
           width="14.746998"
           height="13.482969"
           x="139.03862"
           y="225.60191"
           transform="rotate(-0.03596219)" /><rect
           style="opacity:1;fill:#ffffff;fill-opacity:1;fill-rule:nonzero;stroke:none;stroke-width:1.73224699;stroke-miterlimit:4;stroke-dasharray:none;stroke-opacity:1"
           id="rect4660-8-6"
           width="14.746998"
           height="13.482969"
           x="168.53264"
           y="225.60191"
           transform="rotate(-0.03596219)" /><rect
           style="opacity:1;fill:#ffffff;fill-opacity:1;fill-rule:nonzero;stroke:none;stroke-width:1.73224699;stroke-miterlimit:4;stroke-dasharray:none;stroke-opacity:1"
           id="rect4660-8-92"
           width="14.746998"
           height="13.482969"
           x="198.02666"
           y="225.60191"
           transform="rotate(-0.03596219)" /><rect
           style="opacity:1;fill:#ffffff;fill-opacity:1;fill-rule:nonzero;stroke:none;stroke-width:1.73224699;stroke-miterlimit:4;stroke-dasharray:none;stroke-opacity:1"
           id="rect4660-8-69"
           width="14.746998"
           height="13.482969"
           x="124.29161"
           y="239.08488"
           transform="rotate(-0.03596219)" /><rect
           style="opacity:1;fill:#ffffff;fill-opacity:1;fill-rule:nonzero;stroke:none;stroke-width:1.73224699;stroke-miterlimit:4;stroke-dasharray:none;stroke-opacity:1"
           id="rect4660-8-2"
           width="14.746998"
           height="13.482969"
           x="153.78563"
           y="239.08488"
           transform="rotate(-0.03596219)" /><rect
           style="opacity:1;fill:#ffffff;fill-opacity:1;fill-rule:nonzero;stroke:none;stroke-width:1.73224699;stroke-miterlimit:4;stroke-dasharray:none;stroke-opacity:1"
           id="rect4660-8-5"
           width="14.746998"
           height="13.482969"
           x="183.27965"
           y="239.08488"
           transform="rotate(-0.03596219)" /><rect
           style="opacity:1;fill:#ffffff;fill-opacity:1;fill-rule:nonzero;stroke:none;stroke-width:1.73224699;stroke-miterlimit:4;stroke-dasharray:none;stroke-opacity:1"
           id="rect4660-8-35"
           width="14.746998"
           height="13.482969"
           x="109.5446"
           y="252.56786"
           transform="rotate(-0.03596219)" /><rect
           style="opacity:1;fill:#ffffff;fill-opacity:1;fill-rule:nonzero;stroke:none;stroke-width:1.73224699;stroke-miterlimit:4;stroke-dasharray:none;stroke-opacity:1"
           id="rect4660-8-7"
           width="14.746998"
           height="13.482969"
           x="139.03862"
           y="252.56786"
           transform="rotate(-0.03596219)" /><rect
           style="opacity:1;fill:#ffffff;fill-opacity:1;fill-rule:nonzero;stroke:none;stroke-width:1.73224699;stroke-miterlimit:4;stroke-dasharray:none;stroke-opacity:1"
           id="rect4660-8-57"
           width="14.746998"
           height="13.482969"
           x="168.53264"
           y="252.56786"
           transform="rotate(-0.03596219)" /><rect
           style="opacity:1;fill:#ffffff;fill-opacity:1;fill-rule:nonzero;stroke:none;stroke-width:1.73224699;stroke-miterlimit:4;stroke-dasharray:none;stroke-opacity:1"
           id="rect4660-8-65"
           width="14.746998"
           height="13.482969"
           x="198.02666"
           y="252.56786"
           transform="rotate(-0.03596219)" /><rect
           style="opacity:1;fill:#ffffff;fill-opacity:1;fill-rule:nonzero;stroke:none;stroke-width:1.73224699;stroke-miterlimit:4;stroke-dasharray:none;stroke-opacity:1"
           id="rect4660-8-28"
           width="14.746998"
           height="13.482969"
           x="124.29161"
           y="266.05084"
           transform="rotate(-0.03596219)" /><rect
           style="opacity:1;fill:#ffffff;fill-opacity:1;fill-rule:nonzero;stroke:none;stroke-width:1.73224699;stroke-miterlimit:4;stroke-dasharray:none;stroke-opacity:1"
           id="rect4660-8-653"
           width="14.746998"
           height="13.482969"
           x="153.78563"
           y="266.05084"
           transform="rotate(-0.03596219)" /><rect
           style="opacity:1;fill:#ffffff;fill-opacity:1;fill-rule:nonzero;stroke:none;stroke-width:1.73224699;stroke-miterlimit:4;stroke-dasharray:none;stroke-opacity:1"
           id="rect4660-8-61"
           width="14.746998"
           height="13.482969"
           x="183.27965"
           y="266.05084"
           transform="rotate(-0.03596219)" /><rect
           style="opacity:1;fill:#ffffff;fill-opacity:1;fill-rule:nonzero;stroke:none;stroke-width:1.73224699;stroke-miterlimit:4;stroke-dasharray:none;stroke-opacity:1"
           id="rect4660-8-51-6"
           width="14.746998"
           height="13.482969"
           x="109.5446"
           y="279.53378"
           transform="rotate(-0.03596219)" /><rect
           style="opacity:1;fill:#ffffff;fill-opacity:1;fill-rule:nonzero;stroke:none;stroke-width:1.73224699;stroke-miterlimit:4;stroke-dasharray:none;stroke-opacity:1"
           id="rect4660-8-51-8"
           width="14.746998"
           height="13.482969"
           x="139.03862"
           y="279.53378"
           transform="rotate(-0.03596219)" /><rect
           style="opacity:1;fill:#ffffff;fill-opacity:1;fill-rule:nonzero;stroke:none;stroke-width:1.73224699;stroke-miterlimit:4;stroke-dasharray:none;stroke-opacity:1"
           id="rect4660-8-51-3"
           width="14.746998"
           height="13.482969"
           x="168.53264"
           y="279.53378"
           transform="rotate(-0.03596219)" /><rect
           style="opacity:1;fill:#ffffff;fill-opacity:1;fill-rule:nonzero;stroke:none;stroke-width:1.73224699;stroke-miterlimit:4;stroke-dasharray:none;stroke-opacity:1"
           id="rect4660-8-51-7"
           width="14.746998"
           height="13.482969"
           x="198.02666"
           y="279.53378"
           transform="rotate(-0.03596219)" /></g></g></g></svg>