<?xml version="1.0" encoding="utf-8"?>
<!-- Generator: Adobe Illustrator 16.0.0, SVG Export Plug-In . SVG Version: 6.00 Build 0)  -->
<!DOCTYPE svg PUBLIC "-//W3C//DTD SVG 1.1//EN" "http://www.w3.org/Graphics/SVG/1.1/DTD/svg11.dtd">
<svg version="1.1" id="Layer_1" xmlns="http://www.w3.org/2000/svg" xmlns:xlink="http://www.w3.org/1999/xlink" x="0px" y="0px"
	 width="1000px" height="1000px" viewBox="0 0 1000 1000" enable-background="new 0 0 1000 1000" xml:space="preserve">
<circle fill="#2080AA" cx="500" cy="500" r="473.937"/>
<circle fill="#29A8E0" cx="500" cy="500" r="418.439"/>
<g>
	<path opacity="0.9" fill="#FFFFFF" d="M322.358,616.19v146.043H500V237.767H322.358v72.117l-56.154-32.495l-0.022,23.858
		l-49.68-0.046v209.257h129.942l142.964,59.218v46.515H322.358z M344.281,491.296H235.663V320.378l30.502,0.029l-0.023,23.859
		l56.216-32.393v71.938h167.16v47.327L344.281,491.296z"/>
	<polygon opacity="0.9" fill="#CAEBFB" points="508.678,431.138 508.678,383.811 675.834,383.811 675.834,237.767 500,237.767 
		500,762.233 675.834,762.233 675.834,616.19 508.57,616.19 508.57,569.764 659.457,507.262 764.338,507.262 764.338,678.182 
		733.836,678.154 733.857,654.295 675.92,687.681 733.799,721.172 733.818,697.316 783.498,697.36 783.498,488.103 646.201,488.103 
			"/>
</g>
</svg>
