<?xml version="1.0" encoding="utf-8"?>
<!-- Generator: Adobe Illustrator 17.1.0, SVG Export Plug-In . SVG Version: 6.00 Build 0)  -->
<!DOCTYPE svg PUBLIC "-//W3C//DTD SVG 1.1//EN" "http://www.w3.org/Graphics/SVG/1.1/DTD/svg11.dtd">
<svg version="1.1" id="Layer_1" xmlns="http://www.w3.org/2000/svg" xmlns:xlink="http://www.w3.org/1999/xlink" x="0px" y="0px"
	 viewBox="0 0 280 279.5" enable-background="new 0 0 280 279.5" xml:space="preserve">
<path fill="#90B2CC" d="M280,228.8c0,28-22.7,50.8-50.8,50.8h-178c-28,0-50.8-22.7-50.8-50.8v-178C0.5,22.7,23.2,0,51.3,0h178
	c28,0,50.8,22.7,50.8,50.8V228.8z"/>
<g id="Vrstva_2">
	<g>
		<path fill="#2D3F51" d="M72.7,263.4c-1.1,0-2.2,0-3.3,0c-0.8-0.2-1.6-0.4-2.4-0.6c-3.9-1.1-5.6-3.8-4-7.5c1-2.5,2.6-4.8,4.3-6.9
			c1.9-2.3,4.2-4.1,6.4-6.3c-0.2-0.1-0.4-0.3-0.6-0.4c-7.9-4.2-13.4-10.5-17.3-18.4c-7.9-16.1-11.5-33.3-12-51.2
			c-0.4-12.7,2.1-24.9,6.1-36.9c4.6-14,9.9-27.8,14.3-42c3.6-11.7,10-21.3,19.2-29.2c9.4-8.1,20.1-13.9,31.5-18.5
			c26-10.5,53.2-15.5,81-17.7c1.3-0.1,1.6,0.5,1.9,1.4c9.7,24.4,19,49,22.9,75.2c1.1,7.3,3.8,14.4,6.1,21.5
			c3.6,11.2,7.3,22.3,8.8,34c0.3,2.5,0.6,5.1,0.9,7.6c0,3.2,0,6.4,0,9.6c-0.1,0.4-0.3,0.8-0.3,1.2c-0.7,10.1-3.3,19.7-7.6,28.9
			c-5.5,11.6-13.1,21.7-22.3,30.9c0.9,0.9,1.9,1.7,2.7,2.6c3.1,3.3,5.9,6.7,7.2,11.1c1.1,3.9-0.5,6.8-4.5,7.2c-3,0.3-6.1,0-9-0.7
			c-8.8-2.2-16.4-6.8-23.5-12.4c-0.7-0.5-1.6-1-2.4-1.2c-6.8-1-13.6-2-20.3-2.9c-9.7-1.3-19.2-1.3-28.7,1.5
			c-6.3,1.9-13,2.5-19.6,3.8c-0.8,0.1-1.8,0.5-2.4,1c-6.8,5.6-14.2,9.9-22.6,12.6C79.7,262,76.1,262.6,72.7,263.4z M110.4,200.2
			c-14.4,8.4-30.7,8.2-47.2,4.4c2.5,9.9,10.3,21.3,23.7,26.4c15.7,5.6,33.3,6.4,50,7c17.8,0.7,35.3-1.7,52.2-7.3
			c4.7-1.6,9.6-2.9,13.8-5.5c5.7-3.5,13.4-9.9,17.3-18.3c-20-0.6-30.2,1.2-43.2-3.7c9.8-15,15.7-28.9,25.3-43.6
			c-0.1,0.9-0.5,1.7-0.8,2.4c-3.2,7.3-6.6,14.4-9.5,21.8c-1.2,3.1-1.8,6.5-2.1,9.8c-0.3,3.9,1.4,5.8,5.3,6.3
			c1.6,0.2,3.2,0.3,4.7,0.2c8.3-0.5,16.2-2.9,24-5.7c0.7-0.2,1.3-1.1,1.6-1.8c5.4-14.5,6.1-29.2,2.3-44.2
			c-3.6-14.2-10.8-26.7-19.7-38.2c-2.6-3.4-5.8-5.9-9.6-7.8c-6.1-3-12.6-4.7-19.2-5.8c-12.1-2.1-24.4-2.5-36.7-2.3
			c-18.5,0.4-36.9,2.1-54.9,6.4c-5.1,1.2-10,3-15,4.8c-3.2,1.2-5.2,3.4-6.3,6.9c-4.5,14.1-8.2,28.4-9.8,43.2
			c-1.1,11.1-1.1,22.1,1.3,33c0.1,0.7,0.9,1.7,1.6,1.9c6.5,2,13,4.1,19.7,5.8c4.3,1.1,8.8,1.5,13.3,0.5c2.7-0.6,4-1.9,4-4.7
			c-0.1-3.1-0.4-6.2-1.3-9.2c-2.4-8.7-6.5-16.7-10.7-24.7c-0.2-0.3-0.3-0.8-0.5-1.1c0.1,0,0.2-0.1,0.3-0.1
			C93.9,171.8,100.7,185.3,110.4,200.2z M208.9,97.6c0-0.3,0.1-0.5,0-0.7c-2-9.5-3.8-19-6.1-28.4c-1.7-6.9-4.6-13.4-9.2-19
			c-3.7-4.5-8.4-7.2-14.4-7.1c-3.9,0.1-7.9,0.1-11.9,0.3c-13.2,0.5-26.2,2-39,5.2c-12.9,3.2-25.2,7.9-35.8,16.2
			C84,70.8,77.6,78.9,74.8,89.4c-0.7,2.7-1.4,5.5-0.8,8.5c0.6-0.1,1-0.2,1.4-0.3c14.8-4.9,29.9-8.8,45.3-11.2
			c13.4-2.1,26.9-3.1,40.4-2.1C177.8,85.2,194.1,88.5,208.9,97.6z"/>
		<path fill="#2D3F51" d="M144.2,164.3c-6-6.9-12.2-13.3-15.2-21.5c-4.1,1.4-8.2,3-12.5,4c-5.5,1.3-11.1,1.7-16.7,0.4
			c-8.5-2-12.6-8.3-11.9-16.8c1.3-17.2,17.7-28.1,34.7-23.5c5.6,1.5,10.5,4.1,14,8.8c4.2,5.6,4.7,11.5,1.4,17.7
			c-0.2,0.3-0.3,0.6-0.5,0.9c3.9,0,7.8,0,11.6,0c-0.5-2.2-1.3-4.2-1.5-6.3c-0.5-5.4,1.8-9.9,5.6-13.7c9.2-8.9,26.5-13.1,39.3-0.9
			c4.9,4.6,7.9,10.3,8,17.2c0.1,7.9-3.8,13.4-11.5,15.4c-9.8,2.5-19.5,1.9-28.8-2.4c-0.5-0.2-1.1-0.5-1.7-0.8
			C155.5,150.9,149.9,157.4,144.2,164.3z M115.7,110.2c-5.7,0-11.2,1.8-15.1,4.8c-4.9,3.9-6.4,9.6-3.9,15.3
			c5.9,13.4,23.5,16.5,33.5,6c7.2-7.6,5.5-18.4-3.6-23.4C123.2,111,119.6,110.2,115.7,110.2z M171.3,109.9c-2.5,0.1-5.1,0.7-7.5,1.6
			c-5.5,1.9-9.8,5.2-11,11.2c-1.4,6.6,1.4,11.8,6.4,15.7c11.7,9.1,24.7,2.3,29.8-5.8c4.5-7,2.8-14.4-4.3-18.8
			C180.7,111.3,176.1,109.6,171.3,109.9z M143.5,154.2c3.5-3,6.5-5.8,8.6-9.5c1.9-3.4,1-5.4-2.7-6.4c-3.6-0.9-7.1-0.9-10.7,0
			c-4.3,1.2-5.4,3.5-2.7,7.1C138.1,148.5,140.9,151.2,143.5,154.2z"/>
		<path fill="#2D3F51" d="M125.7,126.8c0,4-3.1,7.1-7.1,7.1c-3.9,0-7-3.2-7-7c0-3.9,3.2-7.1,7.1-7.1
			C122.7,119.8,125.8,123,125.7,126.8z"/>
		<path fill="#2D3F51" d="M166.3,133.9c-3.9,0-6.9-3.2-6.9-7.1c0-3.9,3.3-7,7.2-7c3.9,0,6.9,3.2,6.9,7.1
			C173.5,130.8,170.2,133.9,166.3,133.9z"/>
	</g>
	<circle fill="#2D3F51" cx="195.5" cy="30.1" r="14"/>
</g>
</svg>
