<?xml version="1.0" encoding="utf-8"?>
<!-- Generator: Adobe Illustrator 16.0.0, SVG Export Plug-In . SVG Version: 6.00 Build 0)  -->
<!DOCTYPE svg PUBLIC "-//W3C//DTD SVG 1.1//EN" "http://www.w3.org/Graphics/SVG/1.1/DTD/svg11.dtd">
<svg version="1.1" id="Layer_1" xmlns="http://www.w3.org/2000/svg" xmlns:xlink="http://www.w3.org/1999/xlink" x="0px" y="0px"
	 width="1000px" height="1000px" viewBox="0 0 1000 1000" enable-background="new 0 0 1000 1000" xml:space="preserve">
<g>
	<path fill="#FAAC40" d="M974.721,825.317c0,82.5-67.5,150-150,150H175.279c-82.5,0-150-67.5-150-150V174.683
		c0-82.5,67.5-150,150-150h649.441c82.5,0,150,67.5,150,150V825.317z"/>
</g>
<g>
	<path fill="#2C3E50" d="M839.692,249.017H160.31c-15.02,0-27.198,12.174-27.198,27.196v463.57c0,15.021,12.178,27.2,27.198,27.2
		h679.383c15.018,0,27.196-12.179,27.196-27.2v-463.57C866.889,261.191,854.71,249.017,839.692,249.017z M187.506,327.71
		l184.761,126.065L187.506,666.894V327.71L187.506,327.71z M500.007,475.076L248.42,303.41h503.158L500.007,475.076z
		 M417.512,484.641l67.158,45.828c4.637,3.147,9.989,4.728,15.337,4.728c5.356,0,10.707-1.58,15.327-4.728l67.169-45.828
		l197.633,227.946H219.897L417.512,484.641z M627.745,453.775L812.496,327.71v339.153L627.745,453.775z"/>
</g>
</svg>
