<?xml version="1.0" encoding="UTF-8" standalone="no"?>
<!-- Generator: Adobe Illustrator 16.0.0, SVG Export Plug-In . SVG Version: 6.00 Build 0)  -->

<svg
   xmlns:dc="http://purl.org/dc/elements/1.1/"
   xmlns:cc="http://creativecommons.org/ns#"
   xmlns:rdf="http://www.w3.org/1999/02/22-rdf-syntax-ns#"
   xmlns:svg="http://www.w3.org/2000/svg"
   xmlns="http://www.w3.org/2000/svg"
   xmlns:sodipodi="http://sodipodi.sourceforge.net/DTD/sodipodi-0.dtd"
   xmlns:inkscape="http://www.inkscape.org/namespaces/inkscape"
   version="1.1"
   id="Layer_1"
   x="0px"
   y="0px"
   width="1000px"
   height="1000px"
   viewBox="0 0 1000 1000"
   enable-background="new 0 0 1000 1000"
   xml:space="preserve"
   inkscape:version="0.91 r13725"
   sodipodi:docname="fi-test.svg"><metadata
     id="metadata27"><rdf:RDF><cc:Work
         rdf:about=""><dc:format>image/svg+xml</dc:format><dc:type
           rdf:resource="http://purl.org/dc/dcmitype/StillImage" /><dc:title></dc:title></cc:Work></rdf:RDF></metadata><defs
     id="defs25" /><sodipodi:namedview
     pagecolor="#ffffff"
     bordercolor="#666666"
     borderopacity="1"
     objecttolerance="10"
     gridtolerance="10"
     guidetolerance="10"
     inkscape:pageopacity="0"
     inkscape:pageshadow="2"
     inkscape:window-width="640"
     inkscape:window-height="480"
     id="namedview23"
     showgrid="false"
     inkscape:zoom="0.30145312"
     inkscape:cx="441.94786"
     inkscape:cy="500"
     inkscape:window-x="0"
     inkscape:window-y="0"
     inkscape:window-maximized="0"
     inkscape:current-layer="layer1_1_" /><g
     id="g3"><path
       fill="#90B2CC"
       d="M974.721,825.317c0,82.5-67.5,150-150,150H175.279c-82.5,0-150-67.5-150-150V174.683   c0-82.5,67.5-150,150-150h649.441c82.5,0,150,67.5,150,150V825.317z"
       id="path5" /></g><g
     id="layer1_1_"
     transform="translate(0,-520.86482)"
     inkscape:label="Layer 1"
     inkscape:groupmode="layer"><path
       id="path3005_1_"
       inkscape:connector-curvature="0"
       fill="#3B3B3B"
       d="M875.11,1044.945c4.957-0.184,9.117,3.683,9.303,8.631   c0.179,4.951-3.685,9.117-8.636,9.298c-4.947,0.185-9.114-3.68-9.293-8.63C866.3,1049.291,870.162,1045.128,875.11,1044.945" /><path
       id="path3009"
       inkscape:connector-curvature="0"
       fill="#3B3B3B"
       stroke="#231F20"
       stroke-width="0.6731"
       stroke-miterlimit="22.926"
       d="   M875.11,1044.945c4.957-0.184,9.117,3.683,9.303,8.631c0.179,4.951-3.685,9.117-8.636,9.298c-4.947,0.185-9.114-3.68-9.293-8.63   C866.3,1049.291,870.162,1045.128,875.11,1044.945z" /><path
       id="path3013"
       inkscape:connector-curvature="0"
       fill="#3B3B3B"
       d="M121.549,1044.945c4.946-0.184,9.113,3.683,9.297,8.631   c0.181,4.951-3.683,9.117-8.635,9.298c-4.947,0.185-9.113-3.68-9.299-8.63C112.732,1049.291,116.597,1045.128,121.549,1044.945" /><path
       id="path3017"
       inkscape:connector-curvature="0"
       fill="#3B3B3B"
       stroke="#231F20"
       stroke-width="0.6731"
       stroke-miterlimit="22.926"
       d="   M121.549,1044.945c4.946-0.184,9.113,3.683,9.297,8.631c0.181,4.951-3.683,9.117-8.635,9.298c-4.947,0.185-9.113-3.68-9.299-8.63   C112.732,1049.291,116.597,1045.128,121.549,1044.945z" /><path
       id="path3021"
       inkscape:connector-curvature="0"
       fill="#3B3B3B"
       d="M114.28,984.574l-15.557,1.387l-1.315,37.789l2.129,0.07   l0.058-1.651c0.186-5.298,0.946-5.406,3.428-5.321l36.069,1.26c2.477,0.09,3.229,0.25,3.045,5.553l-0.057,1.647l2.131,0.077   c-0.125-2.416,0.065-7.783,0.16-10.469c0.095-2.822,0.317-9.09,0.611-11.555l-2.137-0.078l-0.074,2.273   c-0.231,6.537-1.128,6.51-3.537,6.424l-16.935-0.592l0.209-5.921c0.231-6.605,2.457-7.217,8.308-7.013l0.062-1.723l-18.24-0.635   l-0.063,1.719c5.781,0.203,8.03,0.971,7.803,7.574l-0.209,5.918l-17.415-0.601c-2.273-0.08-2.748-0.237-2.634-3.47l0.289-8.262   c0.359-10.325,4.274-11.912,13.811-12.684L114.28,984.574z M152.614,941.83l-2.098-0.37l-0.219,1.217   c-0.713,4.075-1.363,4.938-3.731,5.292l-44.973,7.172c-0.944,0.186-1.439,0.238-1.636,1.322c-0.188,1.085,0.182,1.363,1.076,1.869   l38.081,21.196c3.244,1.822,3.784,4.72,3.205,8.394l2.103,0.369l1.02-6.954l1.575-7.766l-2.103-0.368   c-0.596,3.389-2.595,4.787-4.354,4.479c-0.204-0.037-0.872-0.228-0.994-0.313l-8.332-4.691l2.952-16.755l11.01-1.765   c0.283-0.02,0.713-0.082,0.987-0.035c2.031,0.361,1.364,4.158,1.037,5.99l2.107,0.369c0.227-2.477,1.061-7.226,1.52-9.8   L152.614,941.83z M131.949,956.296l-2.689,15.263l-20.702-11.483L131.949,956.296z M150.261,893.066   c-0.663-0.198-1.121-0.341-1.383,0.512c-0.222,0.729,0.176,0.848,0.811,1.117c9.26,3.404,12.508,12.105,10.31,19.283   c-1.229,4.019-7.413,16.247-27.041,10.244c-19.694-6.027-18.009-19.552-16.779-23.571c2.197-7.178,9.981-11.206,19.999-9.581   c0.966,0.145,1.164,0.207,1.443-0.711c0.322-1.055,0.123-1.117-1.26-1.543l-15.608-4.768c-1.123-0.347-1.581-0.483-1.804,0.236   c-0.08,0.266-0.16,0.529,0.469,1.299l3.868,4.785c-3.116,1.708-7.438,4.062-9.368,10.387c-3.769,12.314,3.464,26.118,16.899,30.229   c13.635,4.17,27.246-3.333,30.995-15.585C165.092,904.66,157.896,895.4,150.261,893.066 M146.729,830.362l-1.931-0.903   l-3.249,7.457l-3.654,7.336l1.937,0.904c3.001-6.434,5.932-5.06,7.617-4.273l21.664,10.098c8.862,4.133,11.036,12.521,8.266,18.448   c-1.369,2.935-6.363,9.568-18.222,4.038l-23.779-11.092c-2.249-1.041-2.879-1.492-0.641-6.297l0.701-1.495l-1.937-0.899   c-0.833,2.268-2.981,6.888-4.09,9.26c-1.108,2.373-3.289,7.054-4.497,9.15l1.937,0.904l0.695-1.501   c2.243-4.804,2.991-4.61,5.236-3.563l23.532,10.979c8.802,4.1,18.994,0.037,22.952-8.451c3.348-7.178,0.151-15.51-6.472-19.889   c-1.16-0.771-1.718-1.027-4.218-2.197l-19.974-9.311C146.54,838.102,143.733,836.791,146.729,830.362 M195.326,803.903   l-0.935,1.443c5.478,4.458,12.172,9.959,5.573,20.125l-3.077,4.738c-1.766,2.713-2.239,2.564-4.151,1.33l-30.782-19.997   c-1.965-1.273-2.774-1.804,0.785-7.286l1.24-1.908l-1.79-1.16c-1.178,2.191-4.59,7.447-6.13,9.814   c-1.463,2.25-4.389,6.759-5.876,8.667l1.79,1.16l0.9-1.387c2.892-4.445,3.603-4.146,5.686-2.797l30.436,19.769   c2.079,1.351,2.643,1.88-0.25,6.327l-0.895,1.385l1.784,1.16l19.543-30.09L195.326,803.903z M214.764,759.363l-12.716-8.961   l-27.046,32.24l11.024,10.964l1.108-1.322c-7.874-7.864-8.948-10.117-2.269-18.085c0.802-0.951,1.953-2.32,2.502-2.766   c1.14-0.926,1.718-0.435,2.929,0.583l27.814,23.331c1.789,1.504,2.528,2.125-2.12,7.659l-1.776,2.117l1.639,1.368   c1.657-2.295,6.173-7.675,8.209-10.103c2.035-2.429,6.594-7.863,8.572-9.895l-1.638-1.369l-1.774,2.106   c-4.644,5.54-5.378,4.92-7.172,3.418l-27.811-23.335c-1.06-0.879-1.789-1.5-1.206-2.626c0.378-0.673,1.577-2.098,2.414-3.101   c6.686-7.964,9.089-7.296,18.203-0.905L214.764,759.363z M271.65,747.396l-1.454-1.564l-0.908,0.849   c-3.021,2.822-4.054,3.125-6.16,1.979l-40.24-21.338c-0.856-0.421-1.288-0.677-2.097,0.077c-0.806,0.748-0.678,1.193-0.271,2.133   l17.67,39.843c1.484,3.418,0.178,6.05-2.496,8.637l1.454,1.562l4.998-4.943l5.933-5.25l-1.453-1.562   c-2.525,2.349-4.958,2.262-6.178,0.957c-0.138-0.151-0.56-0.702-0.603-0.853l-3.834-8.758l12.44-11.6l9.856,5.213   c0.237,0.156,0.62,0.364,0.811,0.563c1.406,1.515-1.416,4.143-2.774,5.417l1.453,1.558c1.671-1.842,5.202-5.133,7.116-6.917   L271.65,747.396z M246.44,746.519l-11.338,10.566l-9.62-21.63L246.44,746.519z M293.3,715.746   c-3.948-5.647-10.908-7.659-16.437-5.472l-8.441,3.309c-4.1,1.601-8.428,0.091-10.719-3.175c-2.766-3.95-2.124-9.525,2.273-12.603   c9.424-6.605,17.143,1.783,19.258,4.08c0.288,0.303,0.531,0.638,1.151,0.208c0.729-0.517,0.534-0.8-0.22-1.87l-7.938-11.338   c-0.674-0.961-0.946-1.354-1.572-0.918c-0.393,0.274-0.407,0.37-0.331,1.321l0.278,4.601c-2.841-0.448-6.77-1.146-11.793,2.373   c-6.259,4.384-7.527,12.663-3.337,18.648c3.28,4.683,9.155,6.709,14.618,5.151c0.782-0.214,4.134-1.549,8.754-3.358   c1.8-0.672,3.769-1.463,6.809-0.478c2.211,0.64,4.082,2.103,5.383,3.963c2.808,4.009,2.831,10.042-1.908,13.368   c-1.638,1.142-6.121,3.863-11.046,3.193c-5.409-0.758-8.104-4.248-9.586-6.241c-0.449-0.521-0.899-0.208-1.065-0.09   c-0.743,0.516-0.464,0.91,0.246,1.921l7.901,11.282c0.682,0.977,0.957,1.368,1.577,0.934c0.393-0.279,0.369-0.426,0.336-1.325   c0,0,0.01-0.347-0.231-4.65c3.096,0.696,8.137,0.208,13.156-3.309C297.021,730.645,297.65,721.948,293.3,715.746 M367.831,690.048   l-0.872-1.949l-1.136,0.501c-3.772,1.681-4.853,1.633-6.463-0.132l-31.108-33.271c-0.672-0.683-0.998-1.071-2.007-0.62   c-1.003,0.454-1.022,0.908-0.947,1.932l3.731,43.426c0.297,3.712-1.804,5.781-5.17,7.352l0.861,1.951l6.339-3.049l7.32-3.03   l-0.872-1.945c-3.143,1.396-5.416,0.525-6.146-1.113c-0.085-0.19-0.297-0.847-0.294-0.999l-0.774-9.531l15.541-6.917l7.622,8.134   c0.175,0.229,0.465,0.549,0.582,0.801c0.833,1.889-2.688,3.456-4.383,4.214l0.86,1.95c2.184-1.197,6.597-3.157,8.982-4.227   L367.831,690.048z M344.277,681.007l-14.158,6.306l-2.06-23.584L344.277,681.007z M415.764,668.249   c-0.123-0.398-0.346-1.124-1.203-0.862c-0.724,0.223-0.543,0.814-0.463,1.297c1.033,4.795-0.904,6.694-2.552,7.206   c-3.229,0.984-4.791-2.226-7.585-8.067l-2.465-5.015c-2.473-3.849-6.369-5.036-10.375-5.184c5.91-3.531,9.819-9.117,8.248-14.253   c-1.93-6.325-11.135-9.563-20.816-6.6l-20.684,6.32l0.63,2.041l1.577-0.483c5.069-1.547,5.426-0.861,6.154,1.51l10.609,34.707   c0.724,2.372,0.813,3.139-4.256,4.688l-1.581,0.482l0.624,2.04c2.311-0.918,6.984-2.353,9.554-3.133   c2.569-0.787,7.248-2.217,9.677-2.747l-0.625-2.04l-1.581,0.484c-5.065,1.552-5.42,0.865-6.149-1.508l-5.094-16.659l7.574-2.314   c1.051-0.326,3.82-1.169,6.813,0.365c3.229,1.604,3.85,3.644,5.199,8.062c1.311,4.279,2.115,6.911,5.582,8.588   c3.427,1.558,7.166,0.847,9.145,0.24C416.863,675.842,416.328,670.09,415.764,668.249 M392.582,645.443   c1.391,4.546,1.441,10.363-8.307,13.347l-7.313,2.229l-5.213-17.057c-0.464-1.516-0.705-2.306,0.682-2.945   c0.62-0.336,2.528-0.918,3.85-1.32C382.207,637.883,389.664,635.895,392.582,645.443 M453.727,636.879l-3.715-15.102l-41.563,6.585   l1.127,15.509l1.699-0.265c-0.779-11.106-0.112-13.516,10.154-15.14c1.232-0.194,2.998-0.473,3.697-0.445   c1.474,0.043,1.591,0.795,1.844,2.357l5.676,35.853c0.365,2.309,0.517,3.261-6.629,4.398l-2.721,0.426l0.335,2.111   c2.757-0.648,9.7-1.742,12.825-2.243c3.131-0.493,10.132-1.605,12.959-1.843l-0.338-2.107l-2.717,0.432   c-7.145,1.132-7.296,0.179-7.664-2.131l-5.677-35.857c-0.218-1.359-0.364-2.31,0.819-2.774c0.719-0.255,2.561-0.549,3.854-0.753   c10.273-1.623,11.643,0.46,14.335,11.258L453.727,636.879z M484.383,665.138l-0.148-2.125l-1.789,0.128   c-5.431,0.378-5.689-0.365-5.861-2.837l-2.532-36.211c-0.175-2.472-0.019-3.243,5.411-3.622l1.785-0.128l-0.151-2.13   c-2.391,0.375-7.816,0.753-10.429,0.938c-2.68,0.189-8.11,0.568-10.52,0.531l0.141,2.13l1.789-0.123   c5.426-0.379,5.688,0.359,5.862,2.831l2.528,36.212c0.169,2.472,0.018,3.243-5.406,3.622l-1.789,0.128l0.15,2.126   c2.391-0.371,7.816-0.754,10.425-0.933C476.533,665.485,481.959,665.105,484.383,665.138 M520.721,653.155   c0.119-6.887-4.326-12.611-10.083-14.088l-8.781-2.292c-4.251-1.107-6.87-4.872-6.804-8.867c0.085-4.82,3.877-8.953,9.25-8.863   c11.5,0.204,12.822,11.524,13.181,14.629c0.057,0.417,0.052,0.829,0.805,0.842c0.896,0.014,0.905-0.332,0.923-1.638l0.246-13.843   c0.023-1.174,0.029-1.657-0.725-1.662c-0.486-0.01-0.558,0.052-1.05,0.871l-2.48,3.882c-2.027-2.031-4.806-4.904-10.933-5.009   c-7.645-0.137-13.533,5.823-13.667,13.123c-0.1,5.714,3.47,10.803,8.806,12.763c0.752,0.284,4.251,1.174,9.052,2.424   c1.846,0.521,3.905,1.037,5.785,3.616c1.417,1.819,2.069,4.101,2.026,6.378c-0.082,4.886-3.617,9.78-9.394,9.687   c-1.997-0.034-7.233-0.475-10.817-3.911c-3.929-3.788-4.061-8.2-4.09-10.681c-0.053-0.691-0.605-0.701-0.813-0.701   c-0.896-0.019-0.905,0.464-0.925,1.699l-0.241,13.778c-0.019,1.184-0.026,1.662,0.734,1.676c0.479,0.009,0.549-0.129,1.042-0.876   c0,0,0.211-0.27,2.551-3.896c2.094,2.381,6.459,4.948,12.59,5.057C514.965,667.396,520.589,660.731,520.721,653.155    M569.328,671.711l0.331-2.107l-1.766-0.285c-5.368-0.852-5.454-1.633-5.071-4.08l5.683-35.848   c0.389-2.453,0.709-3.168,6.077-2.315l1.777,0.279l0.329-2.106c-2.412-0.176-7.786-1.023-10.371-1.435   c-2.655-0.421-8.029-1.274-10.378-1.856l-0.331,2.112l1.766,0.279c5.378,0.853,5.463,1.634,5.074,4.081l-5.677,35.852   c-0.387,2.447-0.714,3.162-6.083,2.31l-1.771-0.279l-0.336,2.111c2.415,0.175,7.789,1.028,10.373,1.429   C561.605,670.274,566.979,671.127,569.328,671.711 M631.095,641.993l0.593-2.055l-7.803-2.026l-7.693-2.415l-0.586,2.049   c6.816,1.956,5.926,5.071,5.409,6.855l-8.109,28.272l-13.515-41.069c-0.365-0.96-0.413-1.046-1.677-1.406l-11.254-3.224   l-0.586,2.045l1.921,0.554c0.991,0.283,2.302,0.734,3.271,1.079c1.468,0.64,1.516,0.725,1.156,1.979l-9.914,34.559   c-0.506,1.791-1.406,4.901-8.218,2.945l-0.593,2.055l7.802,2.016l7.688,2.425l0.588-2.051c-6.816-1.96-5.924-5.07-5.411-6.86   l9.87-34.421c0.241,0.426,0.285,0.507,0.437,0.984l15.617,47.465c0.37,0.966,0.417,1.052,0.882,1.184   c0.927,0.266,1.059-0.194,1.42-1.449l10.481-36.552C623.383,643.148,624.277,640.038,631.095,641.993 M671.805,674.488   l4.546-14.941l-34.546-15.376l-0.873,1.951l1.511,0.667c4.843,2.16,4.664,2.908,3.655,5.17l-14.681,32.975   c-1.008,2.267-1.439,2.896-6.286,0.742l-1.506-0.672l-0.871,1.951c2.286,0.791,7.195,2.978,9.644,4.067   c2.579,1.15,8.309,3.697,10.485,4.895l0.871-1.95l-2.074-0.923c-5.979-2.662-5.614-3.476-4.634-5.683l6.892-15.48l5.407,2.416   c6.041,2.684,5.777,4.979,3.395,10.329l1.572,0.701l7.428-16.674l-1.571-0.7c-2.357,5.283-3.916,7.077-9.951,4.393l-5.406-2.41   l7.086-15.921c0.92-2.079,1.24-2.463,4.2-1.141l7.55,3.36c9.437,4.2,9.441,8.427,6.587,17.555L671.805,674.488z M714.805,707.59   c6.809-12.29,3.124-27.089-7.843-33.168c-10.781-5.975-25.343-1.445-32.217,10.964c-6.852,12.347-2.783,26.895,7.938,32.837   C693.646,724.301,708.054,719.758,714.805,707.59 M709.063,703.31c-8.849,15.958-19.908,16.442-25.445,13.374   c-5.782-3.205-10.918-12.981-2.201-28.703c8.644-15.6,19.712-14.822,24.716-12.054C711.368,678.835,717.613,687.885,709.063,703.31    M748.352,758.564c0.266-0.317,0.748-0.901,0.063-1.473c-0.583-0.487-0.98-0.014-1.34,0.313c-3.457,3.479-6.112,2.889-7.429,1.785   c-2.585-2.169-0.743-5.227,2.632-10.75l2.859-4.801c1.88-4.167,0.758-8.082-1.301-11.52c6.178,3.027,12.995,3.263,16.446-0.852   c4.251-5.065,1.955-14.543-5.8-21.053l-16.565-13.899l-1.377,1.634l1.269,1.065c4.063,3.404,3.678,4.076,2.088,5.975   l-23.325,27.804c-1.601,1.902-2.191,2.395-6.254-1.014l-1.264-1.065l-1.374,1.638c2.026,1.435,5.776,4.574,7.837,6.306   c2.06,1.723,5.803,4.868,7.572,6.619l1.37-1.633l-1.269-1.061c-4.059-3.412-3.68-4.08-2.083-5.979l11.195-13.35l6.07,5.089   c0.842,0.711,3.062,2.571,3.403,5.914c0.406,3.583-0.962,5.221-3.929,8.753c-2.88,3.427-4.654,5.539-4.171,9.359   c0.563,3.721,3.198,6.472,4.785,7.801C742.576,763.618,747.111,760.04,748.352,758.564 M754.852,726.701   c-3.058,3.646-7.906,6.861-15.718,0.303l-5.854-4.914l11.466-13.662c1.018-1.216,1.552-1.852,2.84-1.033   c0.615,0.333,2.154,1.619,3.204,2.505C755.539,713.885,761.268,719.056,754.852,726.701 M785.785,807.473l1.586-1.431l-1.108-1.231   c-3.546-3.938-3.071-4.549-1.229-6.202l26.97-24.291c1.846-1.662,2.496-2.065,6.046,1.875l1.107,1.23l1.586-1.429l-7.788-8.65   c-1.202-1.331-1.249-1.283-2.494-0.814l-38.911,14.737l18.663-36.913c0.714-1.476,0.573-1.627-0.483-2.807l-7.792-8.649   l-1.586,1.43l1.112,1.226c3.546,3.939,3.073,4.55,1.231,6.212l-25.598,23.042c-1.378,1.244-3.783,3.413-8.531-1.86l-1.582,1.424   l5.539,5.856l5.24,6.126l1.592-1.43c-4.749-5.269-2.344-7.436-0.961-8.682l27.586-24.84l0.048,0.052L765.3,782.457   c-0.435,0.853-0.668,1.52-0.208,2.031c0.506,0.564,1.055,0.35,1.805,0.047l43.738-16.579l0.048,0.05l-29.386,26.456   c-1.841,1.651-2.5,2.06-6.051-1.88l-1.098-1.225l-1.591,1.424c1.856,1.756,4.994,5.24,6.784,7.234   C781.146,802.008,784.237,805.44,785.785,807.473 M813.064,852.111l1.784-1.164l-0.672-1.037c-2.254-3.469-2.372-4.535-0.882-6.416   l27.999-35.917c0.568-0.777,0.899-1.156,0.298-2.079c-0.601-0.924-1.064-0.877-2.059-0.633l-42.306,10.472   c-3.622,0.876-5.988-0.877-8.071-3.958l-1.79,1.165l4,5.781l4.143,6.754l1.785-1.168c-1.869-2.883-1.372-5.265,0.138-6.24   c0.171-0.113,0.785-0.432,0.937-0.449l9.294-2.255l9.266,14.265l-6.846,8.801c-0.194,0.214-0.469,0.549-0.702,0.7   c-1.732,1.128-3.829-2.11-4.843-3.667l-1.789,1.164c1.52,1.965,4.146,6.012,5.577,8.2L813.064,852.111z M818.309,827.437   l-8.44-13.001l22.971-5.72L818.309,827.437z M859.369,878.177l13.487-7.73l-17.782-38.143l-14.6,5.363l0.729,1.563   c10.459-3.816,12.953-3.84,17.348,5.586c0.525,1.126,1.281,2.75,1.452,3.432c0.36,1.426-0.326,1.742-1.761,2.416l-32.897,15.338   c-2.126,0.989-3.002,1.397-6.056-5.156l-1.164-2.494l-1.932,0.899c1.378,2.472,4.346,8.843,5.686,11.712s4.336,9.299,5.346,11.943   l1.932-0.898l-1.16-2.494c-3.059-6.557-2.188-6.965-0.063-7.954l32.893-15.339c1.251-0.582,2.127-0.989,2.902,0.019   c0.44,0.626,1.228,2.312,1.78,3.498c4.394,9.421,2.774,11.321-6.869,16.878L859.369,878.177z M838.874,915.847l2.026-0.658   l-0.549-1.704c-1.681-5.175-1.028-5.605,1.331-6.368l34.521-11.213c2.357-0.771,3.145-0.807,4.825,4.364l0.554,1.704l2.031-0.662   c-0.938-2.232-2.623-7.4-3.432-9.891c-0.834-2.558-2.511-7.731-3.06-10.089l-2.031,0.663l0.555,1.699   c1.681,5.175,1.022,5.611-1.335,6.377l-34.522,11.217c-2.357,0.761-3.144,0.799-4.823-4.376l-0.555-1.698l-2.025,0.656   c0.941,2.227,2.621,7.406,3.427,9.895C836.645,908.32,838.325,913.491,838.874,915.847 M865.854,958.01   c0.668-0.167,1.132-0.284,0.914-1.149c-0.18-0.734-0.583-0.635-1.264-0.536c-9.691,1.847-16.954-3.938-18.771-11.22   c-1.019-4.077-2.008-17.744,17.909-22.709c19.979-4.982,25.503,7.483,26.517,11.561c1.813,7.285-2.783,14.751-12.205,18.52   c-0.903,0.365-1.108,0.417-0.871,1.354c0.266,1.062,0.469,1.019,1.87,0.663l15.836-3.949c1.137-0.279,1.605-0.398,1.42-1.137   c-0.066-0.26-0.127-0.529-1.064-0.86l-5.776-2.112c1.785-3.072,4.28-7.318,2.68-13.729c-3.114-12.498-16.428-20.607-30.063-17.21   c-13.828,3.451-21.635,16.896-18.534,29.329C847.169,955.714,858.096,959.948,865.854,958.01 M873.771,1024.085l-0.147-1.713   c-10.31-0.824-15.807-1.245-16.815-12.773l-0.568-6.52c-0.283-3.218,0.186-3.403,2.448-3.602l16.607-1.45l0.507,5.828   c0.567,6.454-1.643,7.267-7.41,7.774l0.151,1.713l18.18-1.59l-0.146-1.713c-5.762,0.501-8.08,0.08-8.645-6.369l-0.516-5.828   l18.387-1.609c2.269-0.199,2.762-0.107,3.045,3.121l0.572,6.519c0.848,9.742-3.015,11.462-12.248,13.374l0.153,1.719l15.267-3.271   l-3.36-38.425l-2.13,0.186l0.274,3.088c0.08,0.893,0.095,1.86,0.164,2.749l-39.127-10.263c-2.756-0.73-4.858-2.552-5.274-7.354   l-2.125,0.19c0.199,1.5,0.577,4.231,0.814,6.978l0.491,7.906l2.126-0.186c-0.231-3.432,1.269-5.227,2.988-5.383   c0.543-0.043,0.609-0.045,1.532,0.215l14.86,3.891l0.973,11.045l-16.268,1.42c-3.088,0.27-3.152-0.482-3.551-5.014l-2.126,0.19   l2.959,33.82L873.771,1024.085z M876.923,992.15l-0.903-10.294l21.512,5.653c0.175,2.816-1.671,2.982-2.774,3.076L876.923,992.15z" /><path
       id="path3025"
       inkscape:connector-curvature="0"
       fill="#3B3B3B"
       d="M155.149,1122.126l2.088-0.445l-1.889-7.907l-1.506-8.058   l-2.088,0.44c1.479,6.941-1.694,7.613-3.507,7.996l-23.379,4.97c-9.566,2.037-16.347-3.352-17.706-9.752   c-0.677-3.166-0.681-11.475,12.12-14.192l25.669-5.459c2.425-0.517,3.196-0.54,4.3,4.65l0.34,1.618l2.088-0.445   c-0.7-2.314-1.762-7.299-2.306-9.861c-0.543-2.557-1.619-7.617-1.917-10.012l-2.088,0.438l0.346,1.62   c1.103,5.188,0.389,5.479-2.041,5.997l-25.397,5.397c-9.493,2.017-15.193,11.401-13.244,20.557   c1.648,7.749,9.214,12.479,17.14,11.991c1.392-0.08,1.997-0.212,4.686-0.785l21.561-4.578   C150.644,1115.83,153.674,1115.185,155.149,1122.126 M173.187,1168.956l1.994-0.768l-3.077-7.446l-2.7-7.594l-1.991,0.763   c2.542,6.623-0.479,7.783-2.216,8.451l-27.454,10.537l24.655-35.506c0.549-0.875,0.592-0.966,0.123-2.187l-4.198-10.933   l-1.988,0.768l0.714,1.865c0.37,0.966,0.795,2.272,1.104,3.263c0.374,1.552,0.335,1.642-0.885,2.111l-33.566,12.881   c-1.737,0.672-4.757,1.828-7.3-4.791l-1.994,0.768l3.077,7.446l2.7,7.589l1.993-0.763c-2.542-6.617,0.478-7.777,2.215-8.445   l33.438-12.833c-0.198,0.443-0.235,0.529-0.525,0.936l-28.509,41.042c-0.549,0.875-0.587,0.966-0.417,1.415   c0.346,0.904,0.796,0.729,2.017,0.26l35.493-13.625C167.625,1163.493,170.644,1162.333,173.187,1168.956 M144.891,1212.478   l1.903-0.971l-0.814-1.595c-2.466-4.845-1.885-5.374,0.323-6.502l32.338-16.479c2.211-1.121,2.979-1.283,5.45,3.562l0.814,1.6   l1.902-0.971c-1.278-2.051-3.75-6.902-4.938-9.231c-1.221-2.396-3.688-7.243-4.603-9.488l-1.897,0.971l0.811,1.596   c2.47,4.852,1.889,5.383-0.317,6.505l-32.345,16.479c-2.206,1.123-2.978,1.283-5.449-3.564l-0.813-1.596l-1.898,0.972   c1.278,2.049,3.744,6.897,4.938,9.231C141.511,1205.39,143.982,1210.233,144.891,1212.478 M213.271,1238.43l1.814-1.126   c-1.251-1.737-2.766-4.034-3.718-5.558l-3.985-6.766l-1.813,1.132c1.842,3.072,1.094,5.244-0.252,6.088   c-0.469,0.293-0.932,0.33-1.353,0.436l-34.83,6.906l22.521-29.589c0.601-0.86,0.833-1.007,0.833-1.007   c1.694-1.062,3.777,2.267,4.691,3.729l1.808-1.132c-1.489-1.992-4.005-6.026-5.392-8.246l-4.465-7.522l-1.809,1.131   c2.371,3.796,3.068,4.904,1.354,7.111l-27.392,35.961c-0.867,1.106-0.856,1.505-0.383,2.268c0.62,0.993,0.985,0.927,1.983,0.704   l42.494-8.44C208.051,1233.981,210.73,1234.497,213.271,1238.43 M222.929,1290.09l-1.106-1.32   c-9.231,5.5-14.104,7.522-21.716-1.554l-5.89-7.016c-2.079-2.481-1.796-2.898-0.057-4.355l14.083-11.821l3.987,4.747   c4.298,5.119,3.092,7.116-1.388,10.876l1.104,1.32l13.979-11.731l-1.103-1.316c-4.54,3.806-6.66,4.597-10.96-0.521l-3.982-4.748   l12.661-10.629c1.746-1.458,2.197-1.661,4.283,0.814l5.711,6.809c6.774,8.071,5.064,11.929-1.559,18.932l1.103,1.316l10.634-11.438   l-24.925-29.703l-1.635,1.374l1.061,1.264c3.408,4.065,2.922,4.657,1.019,6.248l-27.648,23.198   c-1.898,1.595-2.565,1.974-5.974-2.083l-1.061-1.269l-1.639,1.368l25.546,30.445L222.929,1290.09z M257.205,1335.562   c0.275-0.313,0.771-0.886,0.09-1.472c-0.568-0.497-0.975-0.029-1.344,0.288c-3.518,3.423-6.159,2.783-7.457,1.657   c-2.548-2.215-0.653-5.24,2.822-10.703l2.938-4.749c1.962-4.139,0.899-8.067-1.102-11.542c6.13,3.138,12.938,3.488,16.466-0.563   c4.336-4.99,2.206-14.506-5.436-21.147l-16.318-14.194l-1.406,1.616l1.25,1.083c4,3.479,3.607,4.143,1.982,6.014l-23.816,27.391   c-1.624,1.874-2.226,2.354-6.226-1.127l-1.25-1.083l-1.402,1.609c2.009,1.472,5.7,4.682,7.727,6.442   c2.031,1.761,5.719,4.977,7.457,6.757l1.396-1.614l-1.245-1.085c-4.006-3.479-3.608-4.143-1.979-6.012l11.427-13.152l5.985,5.198   c0.823,0.72,3.006,2.617,3.291,5.971c0.35,3.587-1.052,5.197-4.082,8.683c-2.938,3.38-4.738,5.454-4.328,9.287   c0.493,3.73,3.088,6.528,4.645,7.883C251.345,1340.519,255.94,1337.021,257.205,1335.562 M264.258,1303.824   c-3.114,3.589-8.018,6.713-15.712,0.029l-5.771-5.023l11.699-13.459c1.046-1.198,1.581-1.818,2.864-0.984   c0.611,0.354,2.116,1.661,3.157,2.561C265.172,1291.018,270.816,1296.288,264.258,1303.824 M293.852,1352.709   c4.049-5.571,3.694-12.811-0.178-17.327l-5.876-6.907c-2.85-3.348-2.836-7.935-0.487-11.163c2.835-3.905,8.313-5.117,12.66-1.961   c9.303,6.762,3.89,16.793,2.403,19.539c-0.184,0.378-0.431,0.715,0.181,1.16c0.725,0.525,0.928,0.246,1.694-0.811l8.139-11.206   c0.687-0.946,0.97-1.335,0.36-1.784c-0.389-0.279-0.488-0.26-1.359,0.123l-4.261,1.757c-0.497-2.831-1.122-6.774-6.089-10.373   c-6.179-4.497-14.42-2.992-18.714,2.911c-3.36,4.626-3.36,10.842-0.108,15.5c0.454,0.672,2.812,3.403,6.017,7.183   c1.221,1.48,2.609,3.086,2.675,6.286c0.112,2.297-0.662,4.54-1.997,6.382c-2.879,3.958-8.574,5.938-13.257,2.543   c-1.614-1.174-5.648-4.531-6.612-9.407c-1.048-5.354,1.376-9.047,2.777-11.087c0.347-0.603-0.099-0.929-0.265-1.046   c-0.724-0.527-1.009-0.139-1.737,0.86l-8.097,11.149c-0.7,0.956-0.975,1.345-0.364,1.79c0.389,0.283,0.526,0.212,1.358-0.114   c0,0,0.333-0.104,4.324-1.733c0.344,3.153,2.45,7.76,7.409,11.363C280.966,1361.076,289.397,1358.839,293.852,1352.709    M314.831,1379.136l1.068-1.852l-1.552-0.895c-4.711-2.718-4.508-3.475-3.268-5.625l18.147-31.435   c1.235-2.146,1.793-2.698,6.509,0.02l1.553,0.895l1.062-1.847c-2.193-1.027-6.899-3.745-9.16-5.056   c-2.33-1.346-7.045-4.062-9.03-5.449l-1.069,1.846l1.553,0.9c4.71,2.717,4.511,3.479,3.271,5.623l-18.149,31.437   c-1.236,2.148-1.79,2.697-6.51-0.023l-1.549-0.891l-1.065,1.846c2.193,1.028,6.902,3.745,9.171,5.061   C308.131,1375.031,312.852,1377.753,314.831,1379.136 M378.041,1373.858l5.359-14.602l-38.14-17.781l-7.735,13.492l1.566,0.726   c5.556-9.64,7.453-11.269,16.879-6.869c1.121,0.521,2.744,1.277,3.314,1.694c1.192,0.861,0.869,1.547,0.203,2.981l-15.34,32.898   c-0.988,2.126-1.396,2.997-7.952-0.057l-2.496-1.169l-0.905,1.94c2.647,1.004,9.016,3.972,11.889,5.312   c2.868,1.335,9.299,4.337,11.771,5.72l0.903-1.937l-2.491-1.169c-6.556-3.054-6.148-3.931-5.16-6.051l15.34-32.897   c0.583-1.246,0.99-2.117,2.23-1.847c0.741,0.194,2.427,0.98,3.61,1.533c9.431,4.398,9.407,6.894,5.591,17.351L378.041,1373.858z    M415.205,1415.025l0.587-2.049l-1.192-0.346c-3.968-1.137-4.763-1.865-4.867-4.257l-2.434-45.485   c-0.092-0.952-0.086-1.453-1.142-1.761c-1.065-0.304-1.377,0.037-1.969,0.871l-25.058,35.661c-2.164,3.036-5.1,3.272-8.689,2.307   l-0.587,2.055l6.804,1.737l7.562,2.381l0.587-2.049c-3.31-0.952-4.483-3.083-3.996-4.801c0.056-0.199,0.313-0.843,0.416-0.951   l5.536-7.808l16.351,4.696l0.602,11.131c-0.009,0.289,0.01,0.72-0.066,0.984c-0.568,1.988-4.274,0.923-6.064,0.411l-0.587,2.055   c2.442,0.484,7.077,1.809,9.591,2.533L415.205,1415.025z M402.977,1392.96l-14.899-4.271l13.583-19.392L402.977,1392.96z    M458.873,1408.664c0.956-6.818-2.76-13.043-8.299-15.211l-8.428-3.348c-4.084-1.614-6.225-5.672-5.672-9.629   c0.668-4.772,4.938-8.418,10.256-7.671c11.39,1.605,11.318,13.001,11.299,16.125c0.011,0.421-0.047,0.829,0.701,0.938   c0.89,0.123,0.933-0.217,1.118-1.515l1.926-13.711c0.166-1.154,0.229-1.638-0.52-1.737c-0.475-0.069-0.555-0.009-1.146,0.739   l-2.931,3.551c-1.766-2.268-4.17-5.448-10.244-6.307c-7.574-1.064-14.142,4.134-15.154,11.362   c-0.801,5.662,2.117,11.15,7.172,13.739c0.715,0.378,4.082,1.686,8.693,3.518c1.77,0.734,3.753,1.496,5.305,4.289   c1.18,1.974,1.545,4.322,1.232,6.576c-0.678,4.838-4.781,9.274-10.512,8.469c-1.977-0.279-7.115-1.349-10.258-5.202   c-3.436-4.237-3.029-8.63-2.755-11.098c0.028-0.686-0.517-0.767-0.72-0.795c-0.891-0.123-0.952,0.355-1.127,1.577l-1.918,13.644   c-0.166,1.169-0.227,1.647,0.521,1.751c0.479,0.066,0.563-0.057,1.146-0.737c0,0,0.24-0.247,3.006-3.557   c1.789,2.618,5.805,5.696,11.879,6.548C451.422,1422.093,457.822,1416.162,458.873,1408.664 M556.063,1419.556l-0.186-2.124   l-1.648,0.141c-5.277,0.464-5.48-0.279-5.703-2.751l-3.163-36.158c-0.214-2.468-0.143-3.234,5.143-3.703l1.641-0.142l-0.185-2.126   l-11.593,1.018c-1.785,0.156-1.78,0.219-2.154,1.496l-11.642,39.947l-18.25-37.121c-0.753-1.459-0.962-1.439-2.539-1.301   l-11.594,1.018l0.185,2.124l1.648-0.146c5.283-0.464,5.486,0.284,5.704,2.75l2.997,34.31c0.167,1.854,0.45,5.074-6.622,5.694   l0.184,2.131l8.015-0.914l8.049-0.492l-0.189-2.131c-7.068,0.62-7.348-2.603-7.513-4.459l-3.234-36.979l0.071-0.005l20.268,41.23   c0.421,0.855,0.818,1.443,1.504,1.392c0.754-0.071,0.91-0.635,1.123-1.416l13.076-44.914l0.071-0.004l3.442,39.389   c0.222,2.466,0.146,3.232-5.137,3.697l-1.648,0.143l0.188,2.125c2.52-0.422,7.187-0.833,9.857-1.065   C548.908,1419.973,553.511,1419.571,556.063,1419.556 M612.071,1407.522l-0.482-2.074l-1.206,0.274   c-4.025,0.934-5.077,0.679-6.326-1.367l-24.179-38.594c-0.534-0.795-0.774-1.234-1.85-0.988c-1.076,0.251-1.183,0.695-1.302,1.718   l-4.626,43.337c-0.421,3.702-2.874,5.326-6.48,6.23l0.482,2.078l6.794-1.78l7.769-1.581l-0.482-2.078   c-3.357,0.776-5.417-0.516-5.823-2.264c-0.048-0.199-0.133-0.884-0.1-1.031l1.061-9.507l16.574-3.83l5.932,9.445   c0.123,0.255,0.352,0.625,0.417,0.899c0.46,2.012-3.295,2.878-5.104,3.295l0.475,2.083c2.371-0.763,7.066-1.841,9.619-2.433   L612.071,1407.522z M590.678,1394.158l-15.096,3.484l2.475-23.543L590.678,1394.158z M647.721,1380.798   c-2.581-6.388-8.91-9.923-14.795-9.034l-8.971,1.326c-4.347,0.64-8.229-1.8-9.724-5.501c-1.81-4.474,0.065-9.762,5.046-11.775   c10.666-4.311,16.3,5.597,17.848,8.315c0.218,0.358,0.374,0.737,1.071,0.458c0.832-0.335,0.704-0.657,0.212-1.869l-5.188-12.84   c-0.431-1.079-0.611-1.528-1.32-1.245c-0.445,0.185-0.478,0.271-0.62,1.222l-0.763,4.54c-2.665-1.079-6.339-2.637-12.025-0.346   c-7.088,2.869-10.178,10.652-7.442,17.423c2.135,5.301,7.405,8.592,13.086,8.309c0.8-0.034,4.37-0.579,9.279-1.303   c1.906-0.246,4-0.577,6.74,1.064c2.012,1.117,3.509,2.97,4.356,5.076c1.832,4.534,0.497,10.42-4.871,12.588   c-1.852,0.754-6.832,2.392-11.477,0.63c-5.104-1.95-6.945-5.961-7.935-8.232c-0.32-0.616-0.828-0.408-1.026-0.326   c-0.828,0.33-0.645,0.78-0.185,1.926l5.16,12.772c0.445,1.098,0.62,1.543,1.325,1.26c0.449-0.18,0.459-0.337,0.62-1.217   c0,0,0.091-0.332,0.829-4.583c2.858,1.372,7.877,2.031,13.553-0.26C647.985,1396.156,650.561,1387.819,647.721,1380.798    M705.529,1367.215l-1.004-1.889l-1.092,0.581c-3.65,1.942-4.73,1.966-6.468,0.317l-33.343-31.021   c-0.721-0.631-1.071-0.99-2.041-0.476c-0.975,0.521-0.962,0.977-0.813,1.994l6.751,43.059c0.549,3.682-1.397,5.889-4.654,7.697   l1.004,1.884l6.107-3.479l7.092-3.537l-1.005-1.889c-3.034,1.619-5.367,0.91-6.206-0.672c-0.104-0.18-0.358-0.823-0.365-0.977   l-1.438-9.453l15.022-7.987l8.166,7.589c0.194,0.214,0.506,0.512,0.64,0.759c0.966,1.821-2.442,3.63-4.077,4.507l1,1.879   c2.092-1.345,6.349-3.607,8.663-4.832L705.529,1367.215z M681.403,1359.839l-13.681,7.271l-3.702-23.383L681.403,1359.839z    M749.653,1328.996c-0.247-0.331-0.688-0.946-1.416-0.422c-0.611,0.45-0.246,0.953-0.019,1.379   c2.543,4.203,1.324,6.632-0.067,7.646c-2.731,1.983-5.249-0.549-9.8-5.16l-3.952-3.929c-3.598-2.842-7.669-2.699-11.5-1.53   c4.432-5.264,6.312-11.821,3.154-16.167c-3.888-5.345-13.642-5.411-21.836,0.539l-17.492,12.711l1.254,1.729l1.341-0.975   c4.288-3.115,4.843-2.58,6.3-0.577l21.339,29.365c1.457,2.003,1.793,2.698-2.496,5.819l-1.344,0.97l1.26,1.724   c1.884-1.62,5.836-4.498,8.01-6.08c2.172-1.575,6.131-4.449,8.262-5.741l-1.256-1.725l-1.34,0.972   c-4.293,3.115-4.847,2.585-6.306,0.578l-10.24-14.094l6.405-4.659c0.896-0.644,3.234-2.349,6.563-1.869   c3.574,0.463,4.823,2.196,7.546,5.927c2.623,3.621,4.242,5.851,8.072,6.311c3.745,0.354,7.054-1.539,8.72-2.751   C753.166,1335.828,750.783,1330.558,749.653,1328.996 M720.314,1314.982c2.794,3.845,4.734,9.332-3.513,15.325l-6.188,4.492   l-10.486-14.435c-0.928-1.277-1.416-1.949-0.308-3.006c0.474-0.517,2.094-1.689,3.205-2.5   C708.039,1311.213,714.445,1306.902,720.314,1314.982 M759.548,1266.31l-1.478-1.534c-1.444,1.582-3.376,3.546-4.72,4.834   l-5.833,5.354l1.482,1.534c2.029-1.96,3.734-1.785,4.686-0.791c0.526,0.545,0.849,1.472,0.942,1.96l4.64,21.177l-23.079-5.962   c-0.819-0.155-0.914-0.255-1.155-0.501c-1.008-1.042,0.043-2.438,2.272-4.592l-1.486-1.534c-1.638,1.871-5.256,5.363-7.188,7.229   l-6.584,6.074l1.486,1.539l0.885-0.867c3.37-3.252,4.293-3.092,6.335-2.571l26.763,6.898l9.331,9.663   c1.724,1.784,2.149,2.423-1.666,6.106l-1.188,1.146l1.481,1.543c1.647-1.874,5.16-5.272,7.092-7.134   c1.933-1.87,5.448-5.27,7.381-6.841l-1.487-1.534l-1.141,1.103c-3.816,3.684-4.44,3.334-6.306,1.402l-9.236-9.564l-5.464-24.792   C755.234,1270.861,757.966,1267.839,759.548,1266.31 M826.934,1254.721l-1.68-1.32c-2.288,2.935-3.395,3.904-7.055,3.669   l-28.25-1.885l-1.755-17.105c-0.095-0.771-0.615-5.809,2.765-10.249l-1.686-1.312c-0.938,1.534-2.296,3.271-3.437,4.739   c-1.529,1.951-3.949,5.047-5.549,6.761l1.681,1.316c1.746-2.126,3.252-1.479,3.739-1.1c0.866,0.683,0.985,1.648,1.032,2.377   l2.95,29.669l-17.253-13.486c-1.953-1.525-2.47-2.099,0.797-6.277l1.012-1.303l-1.68-1.316c-1.321,2.026-4.455,6.046-6.064,8.105   c-1.614,2.063-4.796,6.135-6.448,7.905l1.686,1.317l1.018-1.308c3.267-4.176,3.948-3.815,5.903-2.292l28.604,22.351   c1.95,1.525,2.463,2.098-0.8,6.278l-1.018,1.302l1.681,1.312c1.32-2.022,4.46-6.042,6.074-8.105c1.609-2.06,4.786-6.126,6.433-7.9   l-1.681-1.316l-1.018,1.306c-3.266,4.177-3.948,3.816-5.899,2.292l-9.495-7.42l-1.057-10.964l22.223,1.54   c0.748,0.057,1.828,0.121,2.48,0.629c1.629,1.273-0.023,3.391-0.875,4.478l1.686,1.312c1.32-2.024,4.287-5.827,5.897-7.887   L826.934,1254.721z M841.951,1232.513l-1.813-1.132l-0.947,1.52c-2.88,4.615-3.632,4.384-5.738,3.072l-30.782-19.234   c-2.097-1.312-2.632-1.889,0.251-6.506l0.947-1.515l-1.809-1.131c-1.107,2.154-3.986,6.766-5.373,8.985   c-1.425,2.277-4.303,6.889-5.757,8.825l1.804,1.136l0.951-1.524c2.883-4.607,3.637-4.385,5.743-3.073l30.78,19.236   c2.099,1.315,2.634,1.893-0.25,6.509l-0.951,1.515l1.813,1.132c1.099-2.154,3.987-6.77,5.37-8.985   C837.614,1239.061,840.502,1234.45,841.951,1232.513 M867.203,1185.929l-1.898-0.977l-0.563,1.108   c-1.875,3.678-2.742,4.321-5.108,3.967l-45.117-6.288c-0.952-0.104-1.439-0.198-1.94,0.787c-0.503,0.98-0.233,1.35,0.473,2.098   l30.228,31.402c2.566,2.692,2.234,5.618,0.606,8.961l1.908,0.971l3.006-6.349l3.773-6.965l-1.899-0.97   c-1.563,3.068-3.882,3.82-5.472,3.012c-0.186-0.1-0.768-0.474-0.862-0.592l-6.6-6.922l7.722-15.154l11.046,1.528   c0.278,0.058,0.709,0.123,0.955,0.257c1.837,0.932,0.091,4.369-0.757,6.026l1.902,0.971c0.942-2.302,3.135-6.604,4.317-8.934   L867.203,1185.929z M843.215,1193.721l-7.035,13.804l-16.446-17.032L843.215,1193.721z M844.412,1120.961l-1.992-0.768   l-2.694,7.594l-3.081,7.451l1.987,0.767c2.544-6.623,5.567-5.463,7.306-4.795l27.453,10.543l-42.082,9.88   c-1,0.285-1.08,0.326-1.553,1.549l-4.199,10.926l1.992,0.768l0.72-1.86c0.37-0.967,0.929-2.23,1.363-3.168   c0.763-1.405,0.848-1.448,2.07-0.975l33.565,12.881c1.732,0.668,4.758,1.828,2.215,8.451l1.998,0.768l2.688-7.6l3.077-7.451   l-1.983-0.763c-2.548,6.618-5.566,5.458-7.304,4.797l-33.438-12.836c0.444-0.192,0.533-0.235,1.018-0.35l48.652-11.423   c0.99-0.28,1.085-0.322,1.256-0.771c0.346-0.9-0.11-1.071-1.327-1.539l-35.492-13.63   C844.891,1128.739,841.871,1127.579,844.412,1120.961 M898.133,1085.382l-2.079-0.478l-0.279,1.212   c-0.929,4.02-1.614,4.852-3.995,5.08l-45.293,4.814c-0.952,0.133-1.449,0.16-1.695,1.23c-0.251,1.076,0.1,1.369,0.966,1.918   l36.928,23.159c3.144,1.999,3.53,4.92,2.759,8.56l2.079,0.473l1.383-6.887l1.979-7.675l-2.079-0.479   c-0.777,3.353-2.841,4.645-4.587,4.242c-0.199-0.048-0.854-0.271-0.971-0.365l-8.082-5.112l3.825-16.579l11.088-1.184   c0.289-0.009,0.724-0.052,0.989,0.015c2.012,0.459,1.146,4.218,0.729,6.031l2.079,0.482c0.354-2.466,1.443-7.162,2.03-9.709   L898.133,1085.382z M876.742,1098.752l-3.483,15.102l-20.077-12.55L876.742,1098.752z" /><path
       id="path3029"
       inkscape:connector-curvature="0"
       fill="#FFFFFF"
       d="M241.383,892.586h360.055l22.426-38.466L263.6,854.053   L241.383,892.586z" /><path
       id="path3033"
       inkscape:connector-curvature="0"
       fill="#FBFCFC"
       d="M603.022,893.738l9.672,45.055l15.425-26.705   l-2.974-16.154l6.272-10.828l-6.258-29.626L603.022,893.738z" /><path
       id="path3037"
       inkscape:connector-curvature="0"
       fill="#FFFFFF"
       d="M635.806,939.492l15.798-0.045l24.533-42.481   l-48.549-0.015L635.806,939.492z" /><path
       id="path3041"
       inkscape:connector-curvature="0"
       fill="#FFFFFF"
       d="M408.348,1043.562l135.833,0.143l22.379-40.709H431.771   L408.348,1043.562z" /><path
       id="path3045"
       inkscape:connector-curvature="0"
       fill="#FBFCFC"
       d="M545.454,1044.671l6.604,33.404l22.856-39.605   l-7.015-34.338L545.454,1044.671z" /><path
       id="path3049"
       inkscape:connector-curvature="0"
       fill="#FFFFFF"
       d="M507.932,1259.139l22.573-39.084l-80.55-138.179H427.44   l-21.877-37.902l11.742-20.338l-48.148-81.816l-44.415,0.016L507.932,1259.139z" /><path
       id="path3053"
       inkscape:connector-curvature="0"
       fill="#FFFFFF"
       d="M516.961,1273.102l20.585,36.146l238.637-413.314   l-18.771-41.813L516.961,1273.102z" /><path
       id="path3057"
       inkscape:connector-curvature="0"
       fill="#FBFCFC"
       d="M481.504,1309.838l54.587-0.014l-20.542-35.877h-54.766   L481.504,1309.838z" /><path
       id="path3061"
       inkscape:connector-curvature="0"
       fill="#3B3B3B"
       d="M481.504,1309.838c0,0-20.682-35.814-20.721-35.891h54.766   l20.542,35.877L481.504,1309.838z M545.454,1044.67l22.451-40.538c1.84,9.557,5.092,24.627,7.006,34.341l-22.857,39.603   L545.454,1044.67z M431.777,1002.996h134.786l-22.383,40.709l-135.833-0.143L431.777,1002.996z M530.505,1220.048   c-6.131,9.896-17.404,30.238-22.573,39.091L324.742,941.836l44.42-0.016c0.998,1.748,47.915,81.268,48.143,81.816   c0,0-11.784,20.437-11.741,20.338c6.954,12.674,17.032,29.434,21.876,37.902h22.516   C467.383,1113.302,499.641,1165.062,530.505,1220.048 M613.211,941.843c1.538-2.617,12.729-22.07,15.429-26.643l5.165,26.723   l16.299-0.014l-138.602,240.204l-57.876-100.237l97.817,0.186l25.123-43.512l-7.896-37.15H430.14c0,0-8.309,13.871-11.481,19.898   l-45.893-79.479L613.211,941.843z M757.409,854.12c2.306,5.988,16.987,37.296,18.768,41.812l-238.634,413.315l-20.588-36.146   C548.319,1218.212,749.986,866.978,757.409,854.12 M627.585,896.949l48.549,0.014l-24.528,42.486l-15.794,0.042L627.585,896.949z    M625.16,855.478c0.866,4.094,4.928,23.371,6.258,29.63c0,0-3.679,6.478-6.268,10.823c1.018,5.411,2.03,11.764,2.969,16.153   c-0.176,0.309-15.425,26.706-15.425,26.706l-9.668-45.057L625.16,855.478z M263.604,854.058l360.25,0.062l-22.417,38.465H241.382   L263.604,854.058z M452.701,1262.724l12.281-0.034l-6.15,10.657c3.367,4.782,22.082,38.097,22.082,38.097l57.199-0.028   L777.99,895.931c-2.33-5.908-19.325-43.986-19.325-43.986H650.54c0,0-15.301,26.849-17.829,31.043l-6.6-31.089   c-120.457,0.005-243.211,0.037-363.663,0.046c0,0-23.454,40.62-23.468,40.64L452.701,1262.724z" /></g></svg>