<?xml version="1.0" encoding="utf-8"?>
<!-- Generator: Adobe Illustrator 17.1.0, SVG Export Plug-In . SVG Version: 6.00 Build 0)  -->
<!DOCTYPE svg PUBLIC "-//W3C//DTD SVG 1.1//EN" "http://www.w3.org/Graphics/SVG/1.1/DTD/svg11.dtd">
<svg version="1.1" id="Layer_1" xmlns="http://www.w3.org/2000/svg" xmlns:xlink="http://www.w3.org/1999/xlink" x="0px" y="0px"
	 viewBox="0 0 280 279.5" enable-background="new 0 0 280 279.5" xml:space="preserve">
<path fill="#90B2CC" d="M280,229.5c0,27.6-22.4,50-50,50H50.5c-27.6,0-50-22.4-50-50V50c0-27.6,22.4-50,50-50H230
	c27.6,0,50,22.4,50,50V229.5z"/>
<g id="g2220">
	<g id="g2222">
		<g id="g2224">
			<g id="id3">
				<rect id="rect2227" x="87.4" y="134.1" fill="none" width="50.6" height="58.3"/>
				<path id="path2229" fill="none" stroke="#FFFFFF" stroke-width="0.3866" d="M137.6,177.6l-24.9,14.3l-24.8-14.3V149l24.8-14.3
					l24.9,14.3V177.6z"/>
			</g>
		</g>
		<g id="g2231">
			<g id="id4">
				<rect id="rect2234" x="62.5" y="91.1" fill="none" width="50.6" height="58.3"/>
				<path id="path2236" fill="none" stroke="#FFFFFF" stroke-width="0.3866" d="M112.7,134.5l-24.9,14.3L63,134.5V106l24.8-14.3
					l24.9,14.3V134.5z"/>
			</g>
		</g>
		<g id="g2238">
			<g id="id5">
				<rect id="rect2241" x="37.7" y="134.1" fill="none" width="50.6" height="58.3"/>
				<path id="path2243" fill="none" stroke="#FFFFFF" stroke-width="0.3866" d="M87.9,177.6L63,191.9l-24.8-14.3V149L63,134.6
					L87.9,149V177.6z"/>
			</g>
		</g>
		<g id="g2245">
			<g id="id6">
				<rect id="rect2248" x="87.4" y="48.1" fill="none" width="50.6" height="58.3"/>
				<path id="path2250" fill="none" stroke="#FFFFFF" stroke-width="0.3866" d="M137.6,91.5l-24.9,14.3L87.8,91.5V62.9l24.8-14.3
					l24.9,14.3L137.6,91.5L137.6,91.5z"/>
			</g>
		</g>
		<g id="g2252">
			<g id="id7">
				<rect id="rect2255" x="107.2" y="37.3" fill="none" width="162.4" height="203.6"/>
				<path id="path2257" fill="#2D3F51" d="M265.6,171.3c-5.2-2.2-12.1-5.6-22.8-8c-0.3-0.1-0.6-0.2-0.8-0.5
					c-1.2-1.5-6.5-7.2-18.5-0.9c-0.1,0-0.1,0.1-0.2,0.1c-1.1,0.8-14.5,7.4-31.7-9.9c0,0-16.8-12.3-8.5-53.6c0.1-0.3,0-0.7-0.2-1
					c-1.5-2.4-8.8-13.6-12.3-14.7c-0.4-0.1-0.8-0.4-1-0.8c-0.9-2-6.2-9.6-34.7-36.7c0,0,0,0-0.1-0.1c-0.5-0.4-5.7-4.7-7.7-7.4
					c-0.6-0.8-1.7-0.8-2.2,0c-3.1,4.7-8.7,17.3-0.2,40.7c0,0,1.7,2.6-5-2.1c-0.8-0.6-2-0.1-2.1,0.9c-1.4,8.9-4.7,40.2,9.3,48.6
					c0,0,8.5,0.8,7,35.6c0,0-0.5,3.3,3.3,1.7c0,0-3.7,2.7-1.9,4.3c0.6,0.6,0.7,1.5,0,2c-3.4,3-12,10.1-17.2,11c-0.5,0.1-0.9,0.5-1,1
					c-0.3,1.2-1,3.2-2.3,5.3c-0.5,0.8-0.1,1.9,0.8,2.1c4.8,1,17.4,2.3,32-8.1c0,0-14.3,8.9-16.1,11.4c-0.1,0.1-0.1,0.2-0.2,0.4
					c-0.7,2.4-8.1,25.9-10.4,27.3c0,0-5.3,5.6-7.2,9c-0.2,0.4-0.8,1.4-0.7,1.8c0.2,0.8,0.4,1.2-2.9,3.2c-0.3,0.2-0.6,0.4-0.7,0.8
					l-2.3,6.1c0,0.3,0.4,0.6,0.6,0.4c2.4-1.8,10.1-8.4,12.7-9.1c0.4-0.1,0.8-0.5,0.9-0.9c1.6-5.1,10.1-31.7,11.3-34.2
					c0.8-1.6,1.2-2.4,1.4-2.8c0.1-0.2,0.3-0.4,0.6-0.6c2.2-1.2,13.5-7.2,15.4-8.5c0.1-0.1,0.2-0.1,0.4-0.2c2.6-0.8,29.9-8.8,34.7-12
					c0.1,0,0.1-0.1,0.2-0.1c0.8-0.3,5.1-1.8,11-1.9c3.9-0.1,8,0.2,12.9,0.9h0.1c0.4,0,3.8,0.2,7.5,0.9c5.2,1,23.9-0.2,25.8-2.5
					c0.2-0.3,0.5-0.5,0.8-0.5c2.5,0,11.9-0.2,20.9,3.9c1.2,0.5,5.4,1.6,5.1,0.8C269.1,172.7,267.5,172.1,265.6,171.3z"/>
			</g>
		</g>
		<g id="g2259">
			<g id="id8">
				<rect id="rect2262" x="13" y="91.7" fill="none" width="50.4" height="57.8"/>
				<path id="path2264" fill="none" stroke="#FFFFFF" stroke-width="0.3866" d="M13.2,106.1l24-13.8l25.7,13.8v28.7L38,149.1
					l-24.8-14.3"/>
			</g>
		</g>
		<g id="g2266">
			<g id="id9">
				<rect id="rect2269" x="83.8" y="88.1" fill="none" width="8.3" height="8.3"/>
				<path id="path2271" fill="#FFFFFF" d="M91.5,92.2c0,2-1.6,3.7-3.7,3.7c-2.1,0-3.7-1.6-3.7-3.7c0-2.1,1.6-3.7,3.7-3.7
					C89.9,88.5,91.5,90.2,91.5,92.2z"/>
				<path id="path2273" fill="none" stroke="#FFFFFF" stroke-width="0.3866" d="M91.5,92.2c0,2-1.6,3.7-3.7,3.7
					c-2.1,0-3.7-1.6-3.7-3.7c0-2.1,1.6-3.7,3.7-3.7C89.9,88.5,91.5,90.2,91.5,92.2z"/>
			</g>
		</g>
		<g id="g2275">
			<g id="id10">
				<rect id="rect2278" x="108.6" y="130.6" fill="none" width="8.3" height="8.3"/>
				<path id="path2280" fill="#FFFFFF" d="M116.4,134.6c0,2-1.6,3.7-3.7,3.7c-2.1,0-3.7-1.6-3.7-3.7s1.6-3.7,3.7-3.7
					C114.7,131,116.4,132.5,116.4,134.6z"/>
				<path id="path2282" fill="none" stroke="#FFFFFF" stroke-width="0.3866" d="M116.4,134.6c0,2-1.6,3.7-3.7,3.7
					c-2.1,0-3.7-1.6-3.7-3.7s1.6-3.7,3.7-3.7C114.7,131,116.4,132.5,116.4,134.6z"/>
			</g>
		</g>
		<g id="g2284">
			<g id="id11">
				<rect id="rect2287" x="108.6" y="45.9" fill="none" width="8.3" height="8.3"/>
				<path id="path2289" fill="#FFFFFF" d="M116.4,50c0,2-1.6,3.7-3.7,3.7c-2.1,0-3.7-1.6-3.7-3.7c0-2.1,1.6-3.7,3.7-3.7
					C114.7,46.3,116.4,48,116.4,50z"/>
				<path id="path2291" fill="none" stroke="#FFFFFF" stroke-width="0.3866" d="M116.4,50c0,2-1.6,3.7-3.7,3.7
					c-2.1,0-3.7-1.6-3.7-3.7c0-2.1,1.6-3.7,3.7-3.7C114.7,46.3,116.4,48,116.4,50z"/>
			</g>
		</g>
		<g id="g2293">
			<g id="id12">
				<rect id="rect2296" x="59" y="102" fill="none" width="8.3" height="8.3"/>
				<path id="path2298" fill="#FFFFFF" d="M66.7,106.1c0,2-1.6,3.7-3.7,3.7c-2.1,0-3.7-1.6-3.7-3.7c0-2.1,1.6-3.7,3.7-3.7
					C65,102.4,66.7,104,66.7,106.1z"/>
				<path id="path2300" fill="none" stroke="#FFFFFF" stroke-width="0.3866" d="M66.7,106.1c0,2-1.6,3.7-3.7,3.7
					c-2.1,0-3.7-1.6-3.7-3.7c0-2.1,1.6-3.7,3.7-3.7C65,102.4,66.7,104,66.7,106.1z"/>
			</g>
		</g>
		<g id="g2302">
			<g id="id13">
				<rect id="rect2305" x="83.8" y="144.8" fill="none" width="8.3" height="8.3"/>
				<path id="path2307" fill="#FFFFFF" d="M91.5,149c0,2-1.6,3.7-3.7,3.7c-2.1,0-3.7-1.6-3.7-3.7s1.6-3.7,3.7-3.7
					C89.9,145.3,91.5,146.9,91.5,149z"/>
				<path id="path2309" fill="none" stroke="#FFFFFF" stroke-width="0.3866" d="M91.5,149c0,2-1.6,3.7-3.7,3.7
					c-2.1,0-3.7-1.6-3.7-3.7s1.6-3.7,3.7-3.7C89.9,145.3,91.5,146.9,91.5,149z"/>
			</g>
		</g>
		<g id="g2311">
			<g id="id14">
				<rect id="rect2314" x="57.7" y="130.6" fill="none" width="8.3" height="8.3"/>
				<path id="path2316" fill="#FFFFFF" d="M65.4,134.6c0,2-1.6,3.7-3.7,3.7s-3.7-1.6-3.7-3.7s1.6-3.7,3.7-3.7
					C63.8,131,65.4,132.5,65.4,134.6z"/>
				<path id="path2318" fill="none" stroke="#FFFFFF" stroke-width="0.3866" d="M65.4,134.6c0,2-1.6,3.7-3.7,3.7s-3.7-1.6-3.7-3.7
					s1.6-3.7,3.7-3.7C63.8,131,65.4,132.5,65.4,134.6z"/>
			</g>
		</g>
		<g id="g2320">
			<g id="id15">
				<rect id="rect2323" x="34.1" y="144.8" fill="none" width="8.3" height="8.3"/>
				<path id="path2325" fill="#FFFFFF" d="M41.8,149c0,2-1.6,3.7-3.7,3.7c-2.1,0-3.7-1.6-3.7-3.7s1.6-3.7,3.7-3.7
					C40.2,145.3,41.8,146.9,41.8,149z"/>
				<path id="path2327" fill="none" stroke="#FFFFFF" stroke-width="0.3866" d="M41.8,149c0,2-1.6,3.7-3.7,3.7
					c-2.1,0-3.7-1.6-3.7-3.7s1.6-3.7,3.7-3.7C40.2,145.3,41.8,146.9,41.8,149z"/>
			</g>
		</g>
		<g id="g2329">
			<g id="id16">
				<rect id="rect2332" x="9.2" y="130.6" fill="none" width="8.3" height="8.3"/>
				<path id="path2334" fill="#FFFFFF" d="M16.9,134.6c0,2-1.6,3.7-3.7,3.7s-3.7-1.6-3.7-3.7s1.6-3.7,3.7-3.7S16.9,132.5,16.9,134.6
					z"/>
				<path id="path2336" fill="none" stroke="#FFFFFF" stroke-width="0.3866" d="M16.9,134.6c0,2-1.6,3.7-3.7,3.7s-3.7-1.6-3.7-3.7
					s1.6-3.7,3.7-3.7S16.9,132.5,16.9,134.6z"/>
			</g>
		</g>
		<g id="g2338">
			<g id="id17">
				<rect id="rect2341" x="9.2" y="102" fill="none" width="8.3" height="8.3"/>
				<path id="path2343" fill="#FFFFFF" d="M16.9,106.1c0,2-1.6,3.7-3.7,3.7s-3.7-1.6-3.7-3.7c0-2.1,1.6-3.7,3.7-3.7
					S16.9,104,16.9,106.1z"/>
				<path id="path2345" fill="none" stroke="#FFFFFF" stroke-width="0.3866" d="M16.9,106.1c0,2-1.6,3.7-3.7,3.7s-3.7-1.6-3.7-3.7
					c0-2.1,1.6-3.7,3.7-3.7S16.9,104,16.9,106.1z"/>
			</g>
		</g>
		<g id="g2347">
			<g id="id18">
				<rect id="rect2350" x="108.6" y="101.7" fill="none" width="8.3" height="8.3"/>
				<path id="path2352" fill="#FFFFFF" d="M116.4,105.8c0,2-1.6,3.7-3.7,3.7c-2.1,0-3.7-1.6-3.7-3.7c0-2.1,1.6-3.7,3.7-3.7
					C114.7,102.2,116.4,103.8,116.4,105.8z"/>
				<path id="path2354" fill="none" stroke="#FFFFFF" stroke-width="0.3866" d="M116.4,105.8c0,2-1.6,3.7-3.7,3.7
					c-2.1,0-3.7-1.6-3.7-3.7c0-2.1,1.6-3.7,3.7-3.7C114.7,102.2,116.4,103.8,116.4,105.8z"/>
			</g>
		</g>
		<g id="g2356">
			<g id="id19">
				<rect id="rect2359" x="33.3" y="88.1" fill="none" width="8.3" height="8.3"/>
				<path id="path2361" fill="#FFFFFF" d="M41,92.2c0,2-1.6,3.7-3.7,3.7c-2.1,0-3.7-1.6-3.7-3.7c0-2.1,1.6-3.7,3.7-3.7
					C39.3,88.5,41,90.2,41,92.2z"/>
				<path id="path2363" fill="none" stroke="#FFFFFF" stroke-width="0.3866" d="M41,92.2c0,2-1.6,3.7-3.7,3.7
					c-2.1,0-3.7-1.6-3.7-3.7c0-2.1,1.6-3.7,3.7-3.7C39.3,88.5,41,90.2,41,92.2z"/>
			</g>
		</g>
		<g id="g2365">
			<g id="id20">
				<rect id="rect2368" x="83.8" y="58.9" fill="none" width="8.3" height="8.3"/>
				<path id="path2370" fill="#FFFFFF" d="M91.5,62.9c0,2-1.6,3.7-3.7,3.7c-2.1,0-3.7-1.6-3.7-3.7s1.6-3.7,3.7-3.7
					C89.9,59.3,91.5,60.8,91.5,62.9z"/>
				<path id="path2372" fill="none" stroke="#FFFFFF" stroke-width="0.3866" d="M91.5,62.9c0,2-1.6,3.7-3.7,3.7
					c-2.1,0-3.7-1.6-3.7-3.7s1.6-3.7,3.7-3.7C89.9,59.3,91.5,60.8,91.5,62.9z"/>
			</g>
		</g>
		<g id="g2374">
			<g id="id21">
				<rect id="rect2377" x="109.3" y="187.7" fill="none" width="8.3" height="8.3"/>
				<path id="path2379" fill="#FFFFFF" d="M117.1,191.9c0,2-1.6,3.7-3.7,3.7c-2.1,0-3.7-1.6-3.7-3.7s1.6-3.7,3.7-3.7
					C115.5,188.2,117.1,189.8,117.1,191.9z"/>
				<path id="path2381" fill="none" stroke="#FFFFFF" stroke-width="0.3866" d="M117.1,191.9c0,2-1.6,3.7-3.7,3.7
					c-2.1,0-3.7-1.6-3.7-3.7s1.6-3.7,3.7-3.7C115.5,188.2,117.1,189.8,117.1,191.9z"/>
			</g>
		</g>
		<g id="g2383">
			<g id="id22">
				<rect id="rect2386" x="34.1" y="173.5" fill="none" width="8.3" height="8.3"/>
				<path id="path2388" fill="#FFFFFF" d="M41.8,177.6c0,2-1.6,3.7-3.7,3.7c-2.1,0-3.7-1.6-3.7-3.7s1.6-3.7,3.7-3.7
					S41.8,175.5,41.8,177.6z"/>
				<path id="path2390" fill="none" stroke="#FFFFFF" stroke-width="0.3866" d="M41.8,177.6c0,2-1.6,3.7-3.7,3.7
					c-2.1,0-3.7-1.6-3.7-3.7s1.6-3.7,3.7-3.7S41.8,175.5,41.8,177.6z"/>
			</g>
		</g>
		<g id="g2392">
			<g id="id23">
				<rect id="rect2395" x="59" y="187.7" fill="none" width="8.3" height="8.3"/>
				<path id="path2397" fill="#FFFFFF" d="M66.7,191.9c0,2-1.6,3.7-3.7,3.7c-2.1,0-3.7-1.6-3.7-3.7s1.6-3.7,3.7-3.7
					C65,188.2,66.7,189.8,66.7,191.9z"/>
				<path id="path2399" fill="none" stroke="#FFFFFF" stroke-width="0.3866" d="M66.7,191.9c0,2-1.6,3.7-3.7,3.7
					c-2.1,0-3.7-1.6-3.7-3.7s1.6-3.7,3.7-3.7C65,188.2,66.7,189.8,66.7,191.9z"/>
			</g>
		</g>
		<g id="g2401">
			<g id="id24">
				<rect id="rect2404" x="83.8" y="173.6" fill="none" width="8.3" height="8.3"/>
				<path id="path2406" fill="#FFFFFF" d="M91.5,177.7c0,2-1.6,3.7-3.7,3.7c-2.1,0-3.7-1.6-3.7-3.7c0-2.1,1.6-3.7,3.7-3.7
					C89.9,174,91.5,175.6,91.5,177.7z"/>
				<path id="path2408" fill="none" stroke="#FFFFFF" stroke-width="0.3866" d="M91.5,177.7c0,2-1.6,3.7-3.7,3.7
					c-2.1,0-3.7-1.6-3.7-3.7c0-2.1,1.6-3.7,3.7-3.7C89.9,174,91.5,175.6,91.5,177.7z"/>
			</g>
		</g>
	</g>
</g>
</svg>
