<?xml version="1.0" encoding="utf-8"?>
<!-- Generator: Adobe Illustrator 17.1.0, SVG Export Plug-In . SVG Version: 6.00 Build 0)  -->
<!DOCTYPE svg PUBLIC "-//W3C//DTD SVG 1.1//EN" "http://www.w3.org/Graphics/SVG/1.1/DTD/svg11.dtd">
<svg version="1.1" id="Layer_1" xmlns="http://www.w3.org/2000/svg" xmlns:xlink="http://www.w3.org/1999/xlink" x="0px" y="0px"
	 viewBox="0 0 280 279.5" enable-background="new 0 0 280 279.5" xml:space="preserve">
<path fill="#FAAC40" d="M280,229.5c0,27.6-22.4,50-50,50H50c-27.6,0-50-22.4-50-50V50C0,22.4,22.4,0,50,0h180c27.6,0,50,22.4,50,50
	V229.5z"/>
<path fill="#2C3E50" d="M85.4,32.7c-1.2,1.6-2.9,5.7-3.7,8.8c-1,4.4-1.3,10.6-0.7,15.9c0.6,4.8,2.2,11.8,3.8,16.1
	c0.2,0.7,0.4,1.2,0.3,1.3C85,75,83.9,74.4,81.8,73c-2.1-1.4-2.6-1.5-3.3-1c-0.5,0.4-0.8,2.2-1.4,8.1c-0.5,5-0.5,16.7,0,20.6
	c1.2,9.6,3.7,15.8,7.7,19.8c0.9,0.9,2,1.7,2.7,2c1.5,0.7,2.6,1.8,3.6,3.8c2.7,5.2,4,14.6,3.7,27.6c-0.1,7.1-0.1,7.1,1.7,7.1h0.9
	l-0.6,0.7c-1.3,1.3-1.4,2.3-0.6,3.5c0.7,1,0.6,1.4-1.5,3.1c-6.5,5.5-12.1,9-15.8,9.9c-1,0.2-1.2,0.5-1.7,2.1c-0.2,0.6-0.8,1.9-1.3,3
	c-1.5,2.8-1.3,3.4,1.7,3.9c6,1.1,14.4,0,20.9-2.8c1-0.4,1.7-0.7,1.8-0.7c0,0-0.6,0.5-1.4,1.1c-2.5,1.7-5.4,3.9-6.1,4.6
	c-0.5,0.6-1,1.7-2.4,6c-3.1,9.5-6.1,17.7-7.7,20.9c-0.3,0.7-1.3,1.9-2.1,2.8c-2.3,2.5-5.2,6.2-6.3,7.9c-0.7,1.2-1,1.7-1,2.4
	c0,0.8-0.1,1-0.9,1.6c-0.5,0.4-1.3,1-1.8,1.3c-0.8,0.5-0.9,0.7-1.6,2.5c-0.4,1.1-1,2.6-1.2,3.2c-1.1,2.7-0.5,2.6,3.6-0.6
	c4.4-3.5,6.5-5,8.7-6.1l1.8-1l2.3-7.3c5.3-16.6,8.7-26.7,9.8-29l1.1-2.3l5.8-3.1c3.2-1.7,6.9-3.7,8.2-4.5c2.3-1.3,2.9-1.5,8.9-3.4
	c13.2-4,23.1-7.4,27.8-9.6c4.6-2.2,7.9-2.8,14.7-2.7c2.5,0,5.8,0.2,7.4,0.4c1.7,0.2,4.1,0.4,5.4,0.6c1.3,0.1,3.6,0.4,5.1,0.6
	c4.6,0.7,13.8,0.5,20.7-0.5c4.4-0.6,6.2-1.2,7.2-2.1c0.4-0.4,0.6-0.4,3.6-0.3c6.4,0.3,11.6,1.3,16.7,3.3c3.2,1.3,6.2,2,6.6,1.6
	c0.4-0.4-0.2-1.4-1.1-2c-0.4-0.2-2.2-1.1-4.1-1.9c-8-3.4-13.2-5.4-18.9-6.8l-3.3-0.8l-1.3-1.2c-4.3-4-10.4-4.1-17.9-0.3
	c-3.2,1.6-4.5,2-8,2.1c-4.5,0.2-7.6-0.5-12.2-2.7c-4.3-2.1-7.8-4.6-12.3-9c-4.1-3.9-6.5-7.8-8.4-13.8c-3.4-10.3-3.7-23-1-38.2
	l0.6-3.6l-1.8-2.7c-4.5-6.7-8.4-11.3-10.6-12.5c-0.8-0.5-1.4-0.9-1.6-1.3c-0.8-1.5-4-5.5-7.9-9.8c-6.4-7-23.6-24.1-28.8-28.6
	c-3-2.6-5-4.6-6.2-6c-0.7-0.8-0.9-0.9-1.6-0.9C86.1,32.1,85.9,32.2,85.4,32.7z"/>
<path d="M69.8,99.1C69.5,99.5,69.5,99.5,69.8,99.1c0.4-0.2,0.5-0.4,0.4-0.4C70.1,98.8,69.9,98.9,69.8,99.1z"/>
</svg>
