<?xml version="1.0" encoding="utf-8"?>
<!-- Generator: Adobe Illustrator 16.0.0, SVG Export Plug-In . SVG Version: 6.00 Build 0)  -->
<!DOCTYPE svg PUBLIC "-//W3C//DTD SVG 1.1//EN" "http://www.w3.org/Graphics/SVG/1.1/DTD/svg11.dtd">
<svg version="1.1" id="Layer_1" xmlns="http://www.w3.org/2000/svg" xmlns:xlink="http://www.w3.org/1999/xlink" x="0px" y="0px"
	 width="1000px" height="1000px" viewBox="0 0 1000 1000" enable-background="new 0 0 1000 1000" xml:space="preserve">
<g>
	<path fill="#FAAC40" d="M974.721,825.317c0,82.5-67.5,150-150,150H175.279c-82.5,0-150-67.5-150-150V174.683
		c0-82.5,67.5-150,150-150h649.441c82.5,0,150,67.5,150,150V825.317z"/>
</g>
<g id="Layer_x0020_1">
	<path fill="#2C3E50" d="M670.652,190.063c-7.624-7.896-20.336-1.724-22.987,7.75c-8.448,22.501,1.001,46.658,8.828,67.975
		c1.524,10.678-5.652,20.204-11.071,28.779c-14.101,17.495-38.962,17.267-59.375,15.937c-10.479,0.306-23.744,1.598-29.251,11.989
		c-4.04,6.905,1.457,15.485,8.42,17.67c17.529,6.39,36.456,3.36,54.616,5.317c7.129,0.413,9.139,8.196,10.645,13.868
		c3.875,15.756,8.808,31.222,14.839,46.279c3.175,6.511-3.681,11.717-8.1,15.378c-12.984,8.881-27.522,15.378-42.507,20.059
		c-27.328,8.007-56.093,4.594-84.119,4.934c-23.871-1.359-47.79-1.127-71.67-1.632c-68.795,1.578-137.61,0.325-206.396,0.772
		c-22.642,1.51-45.537,0.752-68.004-2.564c-10.372-0.986-7.055-17.102-18.053-17.315c-15.971-2.749-28.047,11.843-26.954,27.002
		c-0.106,89.685,19.544,177.757,34.776,265.737c5.152,27.575,10.119,55.229,16.835,82.488c1.524,4.826,2.423,12.862,9.221,12.309
		c6.099-1.418,5.885-9.187,5.958-14.14c-2.01-80.75-4.899-161.48-7.337-242.226c0.787-14.159-4.399-29.091,1.811-42.584
		c27.187-2.909,53.67,5.472,80.604,7.337c16.043,1.689,32.174,1.85,48.271,1.598c50.509,0.325,100.357-14.334,150.925-9.653
		c14.339,0.811,18.606,16.941,19.219,28.765c3.375,86.149-0.394,172.586,7.234,258.575c0.933,5.186,1.578,14.873,9.207,12.794
		c6.205-3.248,4.127-12.294,5.38-18.141c1.583-74.18,4.419-148.398,2.854-222.56c0.146-17.908-2.068-36.142,2.477-53.709
		c23.434-1.078,47.906,4.04,70.34-5.151c34.543-14.028,61.443-40.73,91.17-62.372c27.766,12.814,49.528,37.04,79.498,45.488
		c5.059,1.578,12.683-0.539,12.702-6.817c0.593-11.916-9.459-20.53-16.655-28.746c-25.939-27.939-60.182-50.786-73.35-88.213
		c-5.778-18.845-8.09-40.229-0.185-58.821c7.254-16.471,24.385-25.425,40.642-30.863c25.93-7.308,53.675-1.025,77.847,9.42
		c13.246,6.405,28.318,13.926,33.533,28.78c4.292,9.299,4.146,21.714,13.751,27.634c11.605,5.297,25.765-0.233,32.834-10.387
		c8.76-12.416,13.548-28.352,10.625-43.478c-1.545-8.095-8.002-17.427-17.374-15.776c-9.799,0.972-18.141,14.232-28.348,7.575
		c-11.722-16.063,6.886-37.398-5.904-53.35c-6.157-9.42-19.85-4.919-24.026,3.967c-5.331,6.963-3.622,21.603-15.236,21.462
		c-13.635-1.224-27.416-4.938-39.516-11.396c-6.924-12.509-1.612-28.406-9.76-40.589c-4.749-10.066-20.977-17.655-29.047-7.25
		c-10.683,16.543,10.08,34.65,1.418,51.572c-7.809,7.497-24.104,6.71-27.979-4.812C674.109,228.966,686.977,204.901,670.652,190.063
		L670.652,190.063z"/>
</g>
</svg>
