<?xml version="1.0" encoding="UTF-8" standalone="no"?>
<!-- Generator: Adobe Illustrator 16.0.0, SVG Export Plug-In . SVG Version: 6.00 Build 0)  -->

<svg
   xmlns:dc="http://purl.org/dc/elements/1.1/"
   xmlns:cc="http://creativecommons.org/ns#"
   xmlns:rdf="http://www.w3.org/1999/02/22-rdf-syntax-ns#"
   xmlns:svg="http://www.w3.org/2000/svg"
   xmlns="http://www.w3.org/2000/svg"
   xmlns:sodipodi="http://sodipodi.sourceforge.net/DTD/sodipodi-0.dtd"
   xmlns:inkscape="http://www.inkscape.org/namespaces/inkscape"
   version="1.1"
   id="Layer_1"
   x="0px"
   y="0px"
   width="1000px"
   height="1000px"
   viewBox="0 0 1000 1000"
   enable-background="new 0 0 1000 1000"
   xml:space="preserve"
   inkscape:version="0.91 r13725"
   sodipodi:docname="kscuk.svg"><metadata
     id="metadata13"><rdf:RDF><cc:Work
         rdf:about=""><dc:format>image/svg+xml</dc:format><dc:type
           rdf:resource="http://purl.org/dc/dcmitype/StillImage" /></cc:Work></rdf:RDF></metadata><defs
     id="defs11"><style
       id="style3466"
       type="text/css"><![CDATA[
    .str0 {stroke:black;stroke-width:0.196378}
    .fil1 {fill:black}
    .fil0 {fill:black}
    .fil3 {fill:white}
    .fil2 {fill:black;fill-rule:nonzero}
   ]]></style></defs><sodipodi:namedview
     pagecolor="#ffffff"
     bordercolor="#666666"
     borderopacity="1"
     objecttolerance="10"
     gridtolerance="10"
     guidetolerance="10"
     inkscape:pageopacity="0"
     inkscape:pageshadow="2"
     inkscape:window-width="1280"
     inkscape:window-height="1024"
     id="namedview9"
     showgrid="false"
     inkscape:zoom="0.48252204"
     inkscape:cx="353.04778"
     inkscape:cy="670.36444"
     inkscape:window-x="0"
     inkscape:window-y="0"
     inkscape:window-maximized="1"
     inkscape:current-layer="Layer_1" /><g
     id="g3"><path
       fill="#90B2CC"
       d="M974.721,825.317c0,82.5-67.5,150-150,150H175.279c-82.5,0-150-67.5-150-150V174.683   c0-82.5,67.5-150,150-150h649.441c82.5,0,150,67.5,150,150V825.317z"
       id="path5" /></g><polygon
     style="fill:#2c3e50;fill-opacity:1"
     points="653.307,897.336 806.604,897.336 806.604,744.029 562.567,499.996 806.604,255.966 806.474,102.664 653.307,102.664 410.194,345.771 410.194,246.926 410.194,102.664 193.396,102.664 193.396,246.926 193.396,753.069 193.396,897.336 410.194,897.336 410.194,753.069 410.194,654.229 "
     id="polygon3"
     transform="matrix(0.89692241,0,0,0.89692241,51.538795,51.538795)" /></svg>