<?xml version="1.0" encoding="UTF-8" standalone="no"?>
<!-- Generator: Adobe Illustrator 16.0.0, SVG Export Plug-In . SVG Version: 6.00 Build 0)  -->

<svg
   xmlns:dc="http://purl.org/dc/elements/1.1/"
   xmlns:cc="http://creativecommons.org/ns#"
   xmlns:rdf="http://www.w3.org/1999/02/22-rdf-syntax-ns#"
   xmlns:svg="http://www.w3.org/2000/svg"
   xmlns="http://www.w3.org/2000/svg"
   xmlns:sodipodi="http://sodipodi.sourceforge.net/DTD/sodipodi-0.dtd"
   xmlns:inkscape="http://www.inkscape.org/namespaces/inkscape"
   version="1.1"
   id="Layer_1"
   x="0px"
   y="0px"
   width="1000px"
   height="1000px"
   viewBox="0 0 1000 1000"
   enable-background="new 0 0 1000 1000"
   xml:space="preserve"
   inkscape:version="0.91 r13725"
   sodipodi:docname="ksp.svg"><metadata
     id="metadata14"><rdf:RDF><cc:Work
         rdf:about=""><dc:format>image/svg+xml</dc:format><dc:type
           rdf:resource="http://purl.org/dc/dcmitype/StillImage" /></cc:Work></rdf:RDF></metadata><defs
     id="defs12"><clipPath
       id="clipPath3379"
       clipPathUnits="userSpaceOnUse"><path
         inkscape:connector-curvature="0"
         id="path3381"
         d="M 0,0 557,0 557,779 0,779 0,0 Z" /></clipPath></defs><sodipodi:namedview
     pagecolor="#ffffff"
     bordercolor="#666666"
     borderopacity="1"
     objecttolerance="10"
     gridtolerance="10"
     guidetolerance="10"
     inkscape:pageopacity="0"
     inkscape:pageshadow="2"
     inkscape:window-width="1366"
     inkscape:window-height="749"
     id="namedview10"
     showgrid="false"
     inkscape:zoom="0.66245361"
     inkscape:cx="471.3761"
     inkscape:cy="520.27763"
     inkscape:window-x="0"
     inkscape:window-y="0"
     inkscape:window-maximized="1"
     inkscape:current-layer="Layer_1" /><g
     id="g3"><path
       fill="#90B2CC"
       d="M974.721,825.317c0,82.5-67.5,150-150,150H175.279c-82.5,0-150-67.5-150-150V174.683   c0-82.5,67.5-150,150-150h649.441c82.5,0,150,67.5,150,150V825.317z"
       id="path5" /></g><g
     transform="matrix(1.0250295,0,0,-1.0250295,214.66691,899.22574)"
     inkscape:label="hippo_sitting"
     id="g3369"
     style="fill:#2c3e50;fill-opacity:1"><g
       id="g3371"
       style="fill:#2c3e50;fill-opacity:1"><g
         id="g3373"
         style="fill:#2c3e50;fill-opacity:1"><g
           id="g3375"
           style="fill:#2c3e50;fill-opacity:1"><g
             clip-path="url(#clipPath3379)"
             id="g3377"
             style="fill:#2c3e50;fill-opacity:1"><g
               id="g3383"
               style="fill:#2c3e50;fill-opacity:1"><path
                 inkscape:connector-curvature="0"
                 id="path3385"
                 style="fill:#2c3e50;fill-opacity:1;fill-rule:nonzero;stroke:none"
                 d="m 170,641 c -10.488,-2.484 -19.031,-8.188 -28,-14 -47.527,-29.805 -72,-90.184 -59.156,-145 3.453,-15 10.75,-28.148 18.633,-41.074 1.859,-3.043 10.316,-9.926 9.062,-13.649 C 109.617,424.465 103.398,424 101,423.328 92.516,420.57 84.266,416.668 76,413.352 60.598,407.172 44.875,396.793 34.336,384 31.906,381 27,378.453 25.832,374.816 24,369.754 28.195,365.488 29.434,360.984 31.957,351.805 30.773,344.961 35,336 -7.684,319.57 -6.59,255 13.559,223 18.539,215 25.211,210.973 33,206.188 36.332,204 42.359,201.332 43,196.984 43.898,190.945 36.922,180.406 35.684,174 32,155.523 32.227,122.629 44.934,107.574 c 3.668,-4.344 7.699,1.84 11.781,-1.082 C 63.418,101.695 69,92 74.961,86 77,83.805 80.957,78.469 84.629,81 c 3.707,2.652 -2.457,7.938 -4.035,10 -5.012,6.543 -12.032,20 -20.594,21 1.836,6.516 7.746,9 13,12.719 11.918,8.203 29,19.148 44,19.281 -8.258,-8.34 -25,-27.477 -19,-40 l 24,31 c 0.488,-10.828 -10.152,-24.785 -12.547,-36 -5.07,-23.789 3.309,-53.676 15.547,-74 -8.777,-0.391 -19.379,10.562 -23,18 -1.031,2.262 -3.473,9.652 -7.387,6.914 C 89,46 99.531,33.699 102,31 113.98,18.234 130.52,8.848 148,5.469 168.434,1.516 187,-2.895 207,5.898 243.746,22 261.387,77.695 252.254,115 249.785,125 243.242,132.332 238,141 l 1,1 c 23.945,-9.223 45.602,-17.305 72,-13.82 11.84,1.562 22,9.715 34,9.82 -1,-2.828 -2.684,-4.621 -4.188,-7.172 -2.093,-3.551 -1.812,-14.828 4.54,-9.219 6.351,5.582 7.136,14.989 14.648,20.391 L 348.453,83 351.379,48 357,31 c -9.43,3.664 -16.145,10.57 -20.148,20 -1.852,4.285 -3.36,14.363 -9.852,14.363 -5,0 -1.578,-8.105 -0.691,-10.363 4.273,-11 8.523,-18.438 17.527,-26.484 C 353.34,20 364.238,16.555 376,12.352 402.918,2.73 434.762,-5.914 461.961,9.875 481.742,21.359 495.535,41.914 500.5,64 c 3.793,16.867 -0.5,32.57 14.5,44.797 4.48,3.633 11.84,-1.184 18,1.203 L 525.301,141 513,185 c 43,17.293 52.793,74.746 35.664,114 -2.664,5.91 -7.41,15 -11.891,19.676 -3.187,3.246 -9.925,5.961 -11.433,10.519 -0.75,2.278 1.66,4.703 2.351,6.805 1.582,6.293 9.309,21.402 7.664,27 C 532.977,370.75 522,380.375 516,385.574 500.426,399 484.645,411.277 467.613,422.801 459.348,428.395 450.32,436.316 440,437 c 1.852,6.805 7.492,11.172 10.93,17 4.07,7.383 8.019,17.891 10.449,26 6.25,20.852 2.84,42.398 -2.027,63 -4.555,19.285 -8.368,35.387 -20.512,52 -9.254,12.656 -24.524,22.484 -37.84,30.602 -4,2.398 -16.281,8.011 -17.547,12.66 -0.801,2.937 2.285,6.972 3.192,9.738 2.539,7.73 5.667,16.754 5.25,25 -0.532,10.562 -5.227,25.383 -9.645,35 -2.57,5.598 -7.055,9.812 -8.25,16 22.426,0.477 46,40.598 18.574,51.262 C 379,780.461 361,775.375 353.879,763 c -2.438,-4.18 -5.711,-21.363 -10.93,-21.363 -8.094,0 -3.543,14.648 -8.226,19.043 -5.305,4.976 -9.313,-2.305 -14.344,-0.379 -4.399,1.687 -5.172,7.699 -10.383,9.265 -7.258,1.957 -9.742,-5.566 -15.996,-5.871 -3.516,-0.211 -15.605,1.043 -18.676,2.5 C 268.52,769.43 266.871,775 258,771 c -6.66,-3.047 -4.809,-16 -10.211,-17.168 -5.789,-1.371 -4.387,8.012 -6.105,10.824 C 239,768.969 228,768.934 224,766.805 c -8.363,-4.399 -2.004,-16.95 -13,-21.805 -2.328,9.781 0,19.527 -7.766,27.582 C 189.957,786 164.211,773 160.527,757 c -1.898,-8.273 -1.832,-17.52 4.739,-23.625 2.679,-2.492 10.359,-4.441 10.734,-8.504 0.504,-3.168 -3.242,-6.601 -5,-8.871 -4.191,-5.453 -8,-11.141 -9.23,-18 -3.911,-20.613 3.613,-37.508 8.23,-57 z m 27,109 c -5.137,0.867 -13.73,2.582 -12.547,-6 0.375,-2.73 6.051,-9.758 1.356,-11.211 -3.532,-1.094 -7.985,2.418 -10.809,4.086 -23.574,13.945 13.652,49.609 22,22.125 1,-3.164 0.742,-6 0,-9 z m 177,-13 c 1.805,3.488 5.914,5.348 7.238,9 1.938,5.445 -3.394,9.371 -8.238,6.754 C 366.742,749.258 361.324,740.23 358,734 l -2,0 -1,1 c 1.238,6.594 0.395,13.879 3.426,20 4.285,8.648 24.574,23 32.543,9.773 C 396.887,754.836 383.32,738.359 374,737 Z m -112,29.523 c 7.938,1.864 9,-9.949 1.98,-11.945 -8.789,-2.578 -8.71,10.317 -1.98,11.945 z m 44,-3.234 c 5.527,0.977 13.992,-10.551 5.941,-12.059 -9.242,-1.726 -16.519,10.18 -5.941,12.059 z M 292,758 c -3.789,-12.371 -16.309,5.449 -4.043,1.664 1.352,-0.418 2.738,-1.133 4.043,-1.664 z m -58.777,1.262 c 4.98,1.738 5.316,-7.551 0.711,-8.34 -3.75,-0.645 -3.668,7.277 -0.711,8.34 z m 94.726,-5.016 c 3.883,1.043 4.891,-5.273 1.621,-6.586 -4.609,-1.844 -6.57,5.293 -1.621,6.586 z M 283,740 c 3,5.68 8.473,4.309 11,-1 9.945,10.496 32,0 43,-5.398 C 362.457,720.883 383,702 382.922,671 382.891,661 377.43,651.844 377,642 c -10.164,1.812 -19.824,7.473 -30,9.898 -3,0.7 -8,1.368 -9.398,4.407 -2.911,6.125 1.398,14.633 2.398,20.695 2.18,11.879 -6.738,26.172 -18,30.18 -20.367,7.254 -29.336,-16.621 -31.422,-31.18 -0.625,-4.375 2.863,-15.488 -2.637,-16.594 -3.316,-0.664 -16.757,-0.523 -18.941,2.196 -2.246,2.871 -1,8.921 -1.465,12.398 -1.887,10.48 -5.539,21.777 -14.535,28.211 C 237,713.578 218.383,696.18 215.465,680 213.918,671.414 217,663.234 219,655 c -9,-2.719 -18.801,-4 -28,-5.805 -3.137,-0.664 -7.754,-3.195 -11,-1.957 -5.797,2.321 -8.129,12.36 -9.473,17.762 -4.992,20 -2.05,35.801 10.989,51.996 7.484,9.301 23.183,20.004 35.445,21.477 3.496,0.375 5.687,-3.473 8.844,-2.86 3.058,0.387 4.883,4.364 8.195,5.114 7.922,1.781 13.516,0.156 21,-0.012 11.352,-0.262 16.367,3.652 28,-0.715 z m -39,-82 -1,1 -1,16 -4,1 c 1.828,2.754 3.613,12.664 5.586,13.824 C 247,691.906 249.363,684 250,682 c 3.609,-10.781 7.711,-21.406 -6,-24 z m 77,0 -2,0 c -9.113,9 -7.539,17.676 0,28 9.867,-3.262 3.797,-21 2,-28 z m 6,-272 c 7.332,7.734 21,12.391 30,18.926 11.254,8.254 18.254,18.469 27,28.926 2.238,2.621 6.48,3.148 8,6.148 4.977,9 -21.371,10.457 -25.422,5.77 -6.23,-7.215 4.067,-6.856 8.422,-6.77 -1.434,-10.773 -10.828,-19.379 -19,-25.59 C 338.441,400 318.988,391 297,388.895 c -11,-1.125 -23.039,-5.27 -34,-5.329 -26.637,-0.132 -50.684,6.34 -76,14.215 -29.035,9.031 -60.344,21.52 -78,48.219 -42.246,64.406 -15.145,152.316 54,184.512 35.234,16.402 77.293,20.176 115,19.254 15.355,-0.375 30.453,1.234 46,-0.938 C 361.609,643.406 399,624 425.816,596.824 439.59,582.828 446.664,564.23 450.816,546 455,527.328 459.5,508.352 455.621,489 454,481 449.387,475 446.277,468 429,428.836 392.32,402.285 351,391.418 343,389.324 335.312,386.172 327,386 Z m -55,207.57 c -16.094,-1.836 -32.23,-1.136 -48,-5.769 -2.277,-0.801 -18.656,-4.602 -12.379,-9.606 3.289,-2.621 11.777,1.805 15.379,2.805 12.664,3.234 24.992,4.598 38,5.828 3.754,0.36 10.555,-2.285 13.68,-0.828 6.953,3.742 -3.145,7.977 -6.68,7.57 z M 322,585 c -2.309,0.914 -4.645,1.781 -7.004,2.574 -1.637,0.426 -3.269,1.055 -4.996,1.235 C 294.773,590.43 317.195,573 322,585 Z M 196,521 c 4,1.445 7.816,3.824 11.941,1 3.059,-2 5.024,-10.402 9.836,-8 6.008,3.191 2.141,11.492 -1.82,14.297 -6.16,4.359 -16.586,5.109 -22.957,0.703 -5.434,-3.582 -9.066,-13 -2,-17.199 6.613,-3.895 5.633,5.785 5,9.199 z m 138,2.379 c -4.711,-1.074 -10.512,-3.379 -13.258,-7.422 -2.437,-3.719 -1.871,-9.66 3.258,-10.578 6.328,-1.137 5.496,10.226 13.996,9.301 5.004,-0.68 7.711,-10.141 11.961,-8.926 4.043,1.191 3.043,7.551 1.441,10.23 -3.464,5.325 -11.128,8.821 -17.398,7.395 z M 431,427 l 1,-1 c -3.602,-12.5 -13.094,-25 -21.016,-35 -2.55,-3.266 -10.675,-9.363 -10.062,-14 1.078,-8 8.43,5.812 9.078,7 8.281,14.73 21.613,26.492 30,41 10.191,-1.812 18.75,-9 27,-14.703 15.711,-11.047 44.27,-22.828 50,-43.297 l -19,0 c 3.887,-7.039 20.176,0.98 22.246,-6.316 C 522.586,352.453 503,345.941 498,343.367 481.816,335.305 465.793,328 449,321.535 438.453,317.398 427.609,312.199 416,312 c -9,-0.059 -8.824,7.18 -10.762,14 -0.73,2.574 -2.426,7.262 -6.011,6.246 -4.825,-1.359 -1.778,-12.039 -0.957,-15.246 4.093,-16.004 10.324,-17.434 24.73,-22 l 0,-3 c -18.352,-7.152 -33.008,-34.781 -30,-54 2.203,-13.598 9.941,-24 20,-32.824 16,-14.356 47.402,-25.41 69,-26.176 8,-0.105 15.969,2.836 24,3 1.785,-9.617 0.805,-22 4.59,-31 3.09,-7.312 9.832,-9.418 7.41,-19 l -43,30 16,-18 c -30,5 -45.652,34 -77,35.789 -12.336,0.699 -25,-4.512 -35,-11.309 -4.676,-3.152 -10.379,-10.48 -16,-11.48 -3.176,-0.547 -5.828,2.211 -9,2.207 -12.578,0 -24.422,-1.387 -37,1.516 -6.809,1.574 -13,5.668 -20,7.277 9.387,-9.484 32,-17 45,-17 -6,-10.398 -13.051,-2 -21,-1.738 -27.23,0.531 -52.539,6.449 -73,26.738 -0.004,-9.363 11,-13 18,-16.527 5.895,-3.125 10.852,-9.575 17,-11.871 9.199,-3.407 25,-3.79 35,-4.602 -4.465,-6 -14.672,-3.594 -21,-3.086 -6.457,0.52 -12,-2.062 -18,-1.726 -11.238,0.624 -18.652,8.117 -28,13.296 -8,4.352 -18.383,10.063 -24,0.516 -12.473,3.566 -22.742,12.207 -36,13.816 -13.234,1.606 -30.262,0.801 -43,-3.023 -7,-2.07 -13.086,-6.203 -20,-8.156 -13,-3.641 -25.391,-3.836 -38,-9.758 C 78,139.285 67,131 55,126 c 5.887,21.18 41.461,24.734 45,49 L 70,153 c 0,2.656 -0.672,7.477 -4.578,5.246 -4.828,-2.758 -10.481,-17.383 -17.106,-15.492 -3.695,1.051 -2.433,9.512 -1.992,12.246 1.442,8.898 3.242,30.676 11.071,36.305 5.003,3.601 18.105,-3.746 23.605,-4.946 18.887,-4.105 36.762,-6.699 56,-2.539 8.68,1.875 14.93,8.11 21,14.18 18.754,18.754 29.84,49.555 18.637,75 -4.77,10.84 -17.754,15.785 -22.637,25.434 -2.461,5.125 9,9.183 3.637,14.023 -3.297,2.961 -7.34,-1.184 -10.637,-2.027 -6.805,-1.742 -16.141,-0.43 -23,0.57 -18.379,2.938 -39.812,15.785 -55,26 -7.367,5 -16,12 -21.672,19 -1.84,2.211 -5.527,6.523 -4.086,9.684 C 45,369.809 57,369.832 61,370 l -10,4 0,3 c 10.414,1.516 22.812,8.68 33,12.414 1.559,0.57 10.691,3.586 7.246,6.586 C 89,398 82.273,394 80,393.219 68.922,389.215 58.336,383 47,380 c 1.91,6.797 8.609,10 14,14 13.219,9.891 29.285,17.527 45,22.246 4,1.246 12.547,4.102 16.777,2.942 3.223,-0.887 5.223,-5.891 8.223,-7.723 9.801,-5.973 20.188,-10.992 31,-14.922 65.801,-23.902 136.617,-32.551 204,-9.543 16.848,5.879 32.602,15.984 47,26.297 6,4.371 11,10.558 18,13.703 z M 257,320 c 9.922,-4 20.375,-7 31,-4.105 5.23,1.347 11.258,4.765 10.258,11.105 -1.707,10.805 -16.996,12.621 -16.258,25 2.449,-2 3.906,-4.66 6.258,-6.668 5.129,-4.371 11.742,1.996 9.148,7.668 -5.508,11.469 -27.531,15.273 -29.406,-1 -0.602,-7.055 3.43,-14.551 8.32,-19.336 1.309,-1.277 6.254,-4.336 4.645,-6.695 -2.012,-2.969 -8.586,-0.16 -10.965,0.761 -6.297,2.442 -9.797,1.27 -13,-4.73 -4.059,4 -17.293,13 -18.793,18.184 -1.488,4.816 8.523,10.203 10.008,14.816 1.566,4.887 -3.403,9 -8.215,7.383 C 233.777,360 231.695,349.547 225,346 c -0.41,3.688 0.172,7.305 -0.047,11 -0.289,4.996 -8.605,14.875 -12.211,6.852 -1.879,-4.188 0.235,-10.387 0.258,-14.852 0,-10.09 -1.828,-19.133 -2.773,-29 -0.332,-3.469 1.168,-7.27 4.773,-8.34 12.781,-3.762 2.941,19.34 12,18.602 8.859,-0.727 23.863,-27.727 30,-10.262 z m 60,43.445 c -14.008,-2.633 -7.828,-15.484 -8.02,-26.445 -0.089,-5.156 -2.304,-10 -2.808,-15 -0.406,-4.098 0.019,-10.316 5.828,-9.215 7.93,1.504 3,8.594 6.605,12.899 4.872,5.89 15.395,3.316 21,11.316 9.297,13.234 -9.996,28.812 -22.605,26.445 z M 353,323 c 4.594,-4.48 8.348,0.391 12,4 8.973,8.867 19.344,15.859 29,23.922 2.652,2.078 9.746,6.605 9,10.754 -1,5.836 -10.676,-3.778 -12.016,-4.875 -2.679,-2.203 -5.347,-4.414 -7.984,-6.801 -4.254,-3.508 -8.547,-7 -12.426,-11 C 365,333.344 358.641,328.594 353,323 Z m -31,28.352 c 7.777,2.648 12,-9.352 3.98,-12.184 -7.75,-2.844 -9.695,10.059 -3.98,12.184 z M 42,343 l -2,0 -1,5 c 3,-1 3.492,-2 3,-5 z m 479,0 c -0.66,-5.07 -8.328,-11.41 -7.363,-15.004 2.363,-9.383 18.121,-16.629 23.601,-24.996 12.313,-18.793 14.184,-50.68 8.133,-72 C 538.656,207.336 513.762,189 489,188.457 473.84,188 459.844,193 446,198.535 c -14.664,5.738 -30.027,11.832 -38.098,26.465 -14.597,26.473 6.524,64.609 38.098,64.66 10.453,0.02 16.809,-3.972 26,-7.957 2.328,-1.008 5.309,-1.523 6.418,1.297 2.055,5.664 -6.418,10.301 -10.418,11.508 -11.344,3.308 -21.637,1.808 -33,2.492 -2.809,0.316 -8.527,1.535 -9.078,5 -0.512,3.227 17.855,8.316 21.078,9.57 17.441,6.785 34.93,12.43 52,20.289 7.332,3.329 13.926,10.141 22,11.141 z M 117,301 c -5.176,-0.449 -12.77,-1.289 -17,-4.574 -3.789,-3.031 -4.156,-8.106 1,-10.114 4.418,-1.707 12.516,4.196 17,5.481 9.48,2.723 24.555,2.207 33,-3.266 34.438,-22.757 24.559,-75.351 -10,-93.605 -14.273,-7.543 -33.414,-4.633 -48,-1.727 C 52,201.352 9.215,220.883 9,269 8.973,275 8.371,282 9.469,288 12.629,305 24,317.609 37,328.41 c 3.746,3.137 11.781,9.172 17,8.59 4.223,-0.25 8.625,-5 12,-7.254 7.328,-4.953 15.25,-9.035 23,-13.269 7.711,-4.211 23.371,-8.055 28,-15.477 z m 54.32,3.879 C 163,300.254 182,293.984 186.508,297 c 5.492,4 -11.946,9.695 -15.188,7.879 z M 326,277 c -2.465,0.188 -13.5,-0.48 -6.676,-5 5.098,-3.324 7.926,2.461 11.934,3.715 2.68,0.836 15.14,-5.77 12.988,3.246 -0.844,3.543 -5.246,4.715 -8.246,5.613 -8.438,2.426 -17.348,5.422 -26,7.051 -24.418,4.594 -49.09,-0.176 -73,-5.285 -3.789,-0.813 -27.402,-5.699 -19.383,-13.723 2.117,-2.113 5.18,-0.679 7.383,0.383 6.848,3.484 13.438,6 21,7.629 20.391,4.051 42.594,8.371 63,2.66 5.598,-1.582 12.875,-2.027 17,-6.289 z m -113,-38 31,17.613 57,17.387 0,2 c -20.266,5.988 -52.758,-11.102 -70,-20.785 -7,-3.844 -19.027,-6.895 -18,-16.215 z m 75,-18 2.316,-6.293 9.684,0.676 34,-1.383 c -3.246,4.41 -9,3.988 -14,4 -10.773,0 -21.297,2.91 -32,3 z m 77,-8 c 5,-4.551 31.531,-13.223 35,-7 -9.793,3.754 -24.59,10 -35,7 z m -32,-6 c 8.266,-8 27,-7.809 38,-11 4.426,-1.168 9.457,-4.402 13.941,-5 3.059,-0.199 3.668,2.566 4.059,5 l -36,8.477 -20,2.523 z m -132,-9 c 4.219,-8.578 16,-13 25,-14 -2.289,7 -18.18,12 -25,14 z m 220,-27.793 c 4,0.395 7.305,-2.281 11,-3.512 C 448.656,161 458.254,147.387 469.262,133.996 477.688,123.746 491.398,110.289 494.473,97 504.395,54 470.438,14.215 429,10.367 410.566,8.652 388.934,11.73 375,25.172 360.988,38.859 357,60.188 357,79 c 0,40.672 17.344,86.727 64,91.207 z M 187,157.535 c 27.914,0.641 53,-25.871 58,-51.535 7.816,-40 -18.59,-96 -63,-97 -43,-1.023 -68.742,42.844 -64.828,82 2.262,22.648 17.078,50 38.828,59.539 3.527,1.461 6.578,-0.855 10,0.258 7.172,2.203 12.984,6.558 21,6.738 z M 128,140 l -3,-3 1,3 2,0 z m 382,-21 -9,-14 c -8.555,6.355 -21.555,24.859 -25,35 10.906,-1.457 24.66,-14.82 34,-21 z m 8,6 -4,1 4,-1 z m -189,-44 2,0 c 2,3.844 10.617,19.367 4.852,21.824 C 327.441,106.406 327.977,84.949 329,81 Z M 91,62 l 2,0 c 2.621,8.871 2.359,17.879 5.406,27 0.821,2.461 2.028,6.219 -0.84,7.914 C 93.305,99.43 91,92.863 90.43,90 88.258,80.879 88,70.945 91,62 Z M 322.996,39.242 C 318,38.746 314,35.395 309,35 c -10,-0.461 -20,1.66 -30,0.91 -5.195,-0.39 -9.727,-3.348 -15,-2.226 -2.766,0.589 -18.363,9.316 -18.363,2.105 0,-7.48 15.539,-7.414 20.363,-7.961 15.172,-1.828 24.992,-1.098 40,1.027 5.883,0.836 15.668,0.559 20.664,4.145 3.699,2.699 -0.289,6.59 -3.668,6.242" /></g></g></g></g></g></g></svg>