<?xml version="1.0" encoding="utf-8"?>
<!-- Generator: Adobe Illustrator 16.0.0, SVG Export Plug-In . SVG Version: 6.00 Build 0)  -->
<!DOCTYPE svg PUBLIC "-//W3C//DTD SVG 1.1//EN" "http://www.w3.org/Graphics/SVG/1.1/DTD/svg11.dtd">
<svg version="1.1" id="Layer_1" xmlns="http://www.w3.org/2000/svg" xmlns:xlink="http://www.w3.org/1999/xlink" x="0px" y="0px"
	 width="1000px" height="1000px" viewBox="0 0 1000 1000" enable-background="new 0 0 1000 1000" xml:space="preserve">
<g>
	<path fill="#FAAC40" d="M974.721,825.317c0,82.5-67.5,150-150,150H175.279c-82.5,0-150-67.5-150-150V174.683
		c0-82.5,67.5-150,150-150h649.441c82.5,0,150,67.5,150,150V825.317z"/>
</g>
<g id="Layer_x0020_1">
	<path id="_116693816" fill="#2C3E50" d="M174.738,866.971h431.77l113.274-134.98V462.392
		c137.292-136.807,186.722-266.056,64.107-310.854c-45.998-16.805-58.903-25.649-77.799,5.708
		c-17.495,29.028,29.561,56.436,54.153,90.728c-26.552-2.591-89.775-61.188-110.407-20.664
		c-20.631,40.525,53.104,63.022,69.945,89.568c-28.504-1.287-84.405-55.682-104.914-13.801
		c-20.516,41.879,84.265,64.4,73.824,102.972c-5.985,30.831-28.313,50.52-53.629,50.52H368.938c-27.291,0-55.19-46.04-41.617-75.778
		c9.535-32.513,80.389-40.876,69.552-78.529c-11.816-41.036-46.28-17.292-94.199-3.693c25.176-23.834,79.387-49.708,59.134-77.691
		c-15.766-21.765-42.859-6.229-100.863,21.27c43.854-41.284,63.877-63.098,33.353-89.126
		c-41.972-35.792-69.518-18.408-95.196,12.119c-19.447,23.11-82.807,111.391,95.196,291.43l0.007,270.051L174.738,866.971z
		 M346.252,696.54l-0.006-183.178h316.733V696.54H346.252L346.252,696.54z M297.818,808.682l48.434-56.804h286.93l-50.345,56.804
		H265.508H297.818z"/>
</g>
</svg>
