<?xml version="1.0" encoding="UTF-8" standalone="no"?>
<!-- Generator: Adobe Illustrator 16.0.0, SVG Export Plug-In . SVG Version: 6.00 Build 0)  -->

<svg
   xmlns:dc="http://purl.org/dc/elements/1.1/"
   xmlns:cc="http://creativecommons.org/ns#"
   xmlns:rdf="http://www.w3.org/1999/02/22-rdf-syntax-ns#"
   xmlns:svg="http://www.w3.org/2000/svg"
   xmlns="http://www.w3.org/2000/svg"
   xmlns:sodipodi="http://sodipodi.sourceforge.net/DTD/sodipodi-0.dtd"
   xmlns:inkscape="http://www.inkscape.org/namespaces/inkscape"
   version="1.1"
   id="Layer_1"
   x="0px"
   y="0px"
   width="1000px"
   height="1000px"
   viewBox="0 0 1000 1000"
   enable-background="new 0 0 1000 1000"
   xml:space="preserve"
   inkscape:version="0.91 r13725"
   sodipodi:docname="mu-hover.svg"><metadata
     id="metadata15"><rdf:RDF><cc:Work
         rdf:about=""><dc:format>image/svg+xml</dc:format><dc:type
           rdf:resource="http://purl.org/dc/dcmitype/StillImage" /><dc:title></dc:title></cc:Work></rdf:RDF></metadata><defs
     id="defs13" /><sodipodi:namedview
     pagecolor="#ffffff"
     bordercolor="#666666"
     borderopacity="1"
     objecttolerance="10"
     gridtolerance="10"
     guidetolerance="10"
     inkscape:pageopacity="0"
     inkscape:pageshadow="2"
     inkscape:window-width="683"
     inkscape:window-height="749"
     id="namedview11"
     showgrid="false"
     inkscape:zoom="0.24429687"
     inkscape:cx="485.00607"
     inkscape:cy="500"
     inkscape:window-x="0"
     inkscape:window-y="0"
     inkscape:window-maximized="0"
     inkscape:current-layer="Layer_1" /><path
     style="fill:#faac40;fill-opacity:1"
     inkscape:connector-curvature="0"
     id="path5"
     d="m 974.721,825.317 c 0,82.5 -67.5,150 -150,150 l -649.442,0 c -82.5,0 -150,-67.5 -150,-150 l 0,-650.634 c 0,-82.5 67.5,-150 150,-150 l 649.441,0 c 82.5,0 150,67.5 150,150 l 0,650.634 z" /><g
     transform="matrix(3.123167,0,0,-3.123167,56.856036,941.91537)"
     inkscape:label="ink_ext_XXXXXX"
     id="g3473"
     style="fill:#2c3e50;fill-opacity:1"><g
       transform="scale(0.1,0.1)"
       id="g3475"
       style="fill:#2c3e50;fill-opacity:1"><path
         inkscape:connector-curvature="0"
         id="path3477"
         style="fill:#2c3e50;fill-opacity:1;fill-rule:nonzero;stroke:none"
         d="m 2018.48,2182.73 c -61.79,0 -111.91,-49.47 -111.91,-110.47 l 0,-999.37 c 0,-90.456 -33.71,-172.285 -91.19,-238.222 l 0,1239.492 c 0,53.38 -39.77,98.64 -93.3,106.21 -53.52,7.57 -106.72,-23.44 -119.71,-76.11 -183.34,-742.45 -184.77,-748.26 -184.78,-748.3 -0.02,0.04 -1.45,5.85 -185.36,748.39 -13.02,52.56 -66.23,83.6 -119.73,76.02 -53.53,-7.59 -93.25,-52.85 -93.25,-106.21 l 0,-1239.492 c -57.492,65.937 -91.203,147.766 -91.203,238.222 l 0,999.37 c 0,61 -50.109,110.47 -111.906,110.47 -61.805,0 -107.305,-49.47 -107.305,-110.47 l 0,-999.37 c 0,-351.386 312.744,-597.206 708.474,-597.206 395.73,0 708.48,245.82 708.48,597.206 l 0,999.37 c 0,61 -45.51,110.47 -107.31,110.47 z m -791.06,-1483.023 0,631.333 c 0.46,-2.75 9.01,-40.16 129.59,-504.204 5.73,-22.051 24.34,-46.231 60.79,-46.231 37.66,0 54.2,21.036 60.72,46.231 37.11,143.312 128.58,502.274 128.58,502.274 l 0.1,-629.403 c -58.25,-19.59 -122.37,-30.293 -189.89,-30.293 -67.52,0 -131.64,10.703 -189.89,30.293 z M 172.5,1927.81 l 1.492,-19.66 c 1.133,-13.01 2.442,-14.83 13.117,-19.58 50.321,-22.93 134.629,-55.58 159.598,-62.46 6.074,-1.67 10.43,-0.33 14.563,5.43 l 12.382,17.28 4.727,-1.3 c -7.297,-21.22 -14.543,-43.56 -20.449,-63.71 -58.742,-6.33 -117.453,-15.21 -176.262,-24.43 44.289,-40.87 90.859,-78.74 137.707,-115.61 -5.148,-20 -10.273,-42.54 -15.148,-65.53 l -4.727,1.31 -1.641,16.42 c -1.589,15.32 -2.871,18.58 -8.941,20.26 -23.285,6.4 -150.539,25.47 -172.824,27.61 -10.926,1.2 -14.406,-2.2 -18.9963,-9.65 l -10.0782,-16.83 -4.7265,1.3 c 5.625,15.15 11.3476,30.64 15.7148,46.5 4.3672,15.86 7.2852,31.75 10.2152,47.65 l 4.726,-1.31 1.18,-18.11 c 0.547,-12.49 4.348,-17.17 7.383,-18 16.875,-4.65 149.465,-24.1 166.652,-26.29 l 0.184,0.68 c -55.594,47.25 -106.571,88.88 -161.356,131.19 l 1.199,4.39 c 70.715,6.3 139.934,17.74 209.211,28.06 l 0.184,0.68 c -43.328,16.65 -136.727,49.26 -159.336,55.49 -7.75,2.14 -11.973,0.03 -17.605,-8.58 l -10.911,-15.88 -4.714,1.31 c 5.339,14.13 10.593,27.93 14.589,42.44 3.621,13.16 5.899,26.69 8.172,40.23 l 4.719,-1.3 z M 86.5625,1583.57 c 2.8789,-8.5 6.4141,-18.41 10.6914,-26.95 70.7541,-32.72 150.0121,-73.05 212.1801,-100.24 l -0.246,-7.7 c -73.649,-25.67 -147.411,-54.84 -219.3755,-82.32 l -11.0742,-29.06 -4.9024,0.15 c 1.9961,18.5 3.9649,36.64 4.5625,55.18 0.4961,15.75 -0.4101,31.18 -1.3086,46.96 l 4.8907,-0.15 c 1.8281,-8.81 5.8906,-24 9.7578,-34.62 14.8247,3.73 48.0667,13.88 58.7107,18.44 0.821,14.68 1.649,29.71 2.117,44.4 0.461,14.7 0.567,29.05 0.684,43.75 -17.539,10.02 -37.996,16.27 -57.4297,21.79 l -11.8086,-29.74 -4.8906,0.15 c 1.8242,13.6 3.6602,27.2 4.1094,41.19 0.4101,12.95 -0.586,25.93 -1.5703,38.92 l 4.9023,-0.15 z m 172.3045,-120.68 -91.426,43.17 -2.5,-78.71 93.926,35.54 z m -115.117,-167.36 0.711,-4.85 -42.949,-18.32 c -4.3636,-11.25 -4.0511,-27.84 -2.7815,-36.5 4.0625,-27.71 20.2345,-51.15 52.4415,-46.43 49.168,7.21 29.121,115 94.226,124.53 41.907,6.15 68.02,-29.64 73.508,-67.03 2.129,-14.56 0.879,-37.38 -3.566,-52.89 l -47.754,-4.87 -0.555,3.81 36.465,19.14 c 2.774,12.43 3.172,24.16 1.445,35.94 -3.191,21.81 -23.117,39.41 -46.308,36.01 -54.375,-7.98 -24.629,-114.34 -96.309,-124.84 -30.129,-4.43 -68.0584,13 -78.0662,81.23 -2.4336,16.62 -2.539,31.82 2.1875,52.68 l 57.3047,2.39 z m -31.094,-189.75 c 5.676,-6.94 12.461,-14.99 19.461,-21.49 77.727,-5.84 166.094,-15.85 233.848,-19.52 l 2.473,-7.3 C 308.445,1007.62 249.59,954.445 191.816,903.484 l -0.187,-31.101 -4.637,-1.563 c -4.617,18.02 -9.133,35.703 -15.078,53.274 -5.051,14.922 -11.309,29.058 -17.687,43.535 l 4.648,1.562 c 4.789,-7.609 13.926,-20.414 21.27,-29.003 12.578,8.679 40.148,29.839 48.527,37.847 -4.383,14.035 -8.879,28.405 -13.586,42.325 -4.707,13.93 -9.637,27.41 -14.688,41.22 -19.929,3.22 -41.289,1.92 -61.425,0.28 l -0.633,-32 -4.641,-1.57 c -3.047,13.38 -6.094,26.76 -10.586,40.02 -4.148,12.26 -9.629,24.08 -15.105,35.91 l 4.648,1.56 z m 203.66,-52.64 -100.75,8.39 25.243,-74.585 75.507,66.195 z M 207.559,840.734 228.984,822.031 c 7.657,-6.883 9.571,-7.383 32.852,6.184 l 109.473,63.789 c 28.425,16.562 30.019,18.699 28.261,26.59 l -6.34,30.332 4.231,2.472 c 5.312,-11.894 12.383,-26.82 21.902,-43.144 9.16,-15.727 21.621,-31.555 34.133,-53.027 23.262,-39.914 22.09,-75.442 -8.156,-93.059 -30.547,-17.793 -57.742,-4.48 -78.496,20.691 l -37.977,-78.023 c -16.086,-32.871 -17.324,-35.617 -10.48,-54.316 l -4.227,-2.461 c -3.457,7.3 -7.078,14.91 -11.133,21.875 -4.23,7.254 -9.238,14.461 -14.25,21.668 21.391,38.386 44.414,87.851 57.981,120.878 l -13.567,23.282 -34.773,-20.266 C 259.102,792.59 252.676,787.629 254.832,778.359 l 5.938,-28.957 -4.239,-2.457 c -6.363,13.707 -16.961,34.664 -23.125,45.25 -8.992,15.434 -20.418,32.258 -30.086,46.078 l 4.239,2.461 z m 135.613,0.836 11.984,-20.554 c 16.387,-28.125 36.074,-51.493 69.336,-32.11 26.61,15.508 27.352,40.657 10.789,69.082 -5.633,9.668 -11.218,18.567 -16.511,27.637 L 343.172,841.57 Z m 28.859,-256.836 14.219,-9 c 15.398,-9.836 20.793,-10.734 30.867,-2.062 l 41.106,35.398 c 25.41,64.368 37.781,97.2 48.476,134.125 -0.469,6.981 -3.828,15.172 -6.308,21.817 l 3.711,3.191 c 8.757,-12.312 17.519,-24.637 27.566,-36.308 10.273,-11.934 21.387,-22.684 32.727,-33.711 l -3.711,-3.196 c -16.965,12.192 -23.684,15.168 -29.52,10.149 -6.105,-5.254 -38.898,-88.926 -42.328,-101.571 30.578,7.391 102.785,23.844 109.414,29.547 4.25,3.664 -3.336,18.371 -8.562,28.196 l 3.71,3.195 c 6.934,-10.195 14.09,-20.656 22.09,-29.941 7.305,-8.489 15.45,-15.793 23.582,-23.11 l -3.711,-3.191 c -11.375,10.527 -24.195,8.261 -44.16,3.547 L 476.875,586.34 436.297,551.398 c -10.078,-8.683 -9.988,-14.14 -2.547,-30.832 l 6.797,-15.402 -3.723,-3.191 c -8.984,12.578 -21.172,28.879 -31.668,41.074 -11.426,13.262 -25.734,27.734 -36.836,38.484 l 3.711,3.203 z m 140.449,-156.668 26.934,-9.121 c 8.867,-2.812 10.555,-2.336 27.188,18.868 13.027,16.472 26.55,33.007 39.296,49.699 12.754,16.687 25.157,34.082 37.625,50.972 19.415,26.575 20.625,28.735 16.829,34.719 l -17.414,25.637 2.98,3.894 c 12.5,-11.32 25.273,-22.839 40.848,-34.738 13.906,-10.625 28.379,-19.922 43.136,-29.43 l -2.968,-3.898 -29.317,10.059 c -6.769,2.089 -8.535,0.363 -29.062,-25.364 -13.028,-16.472 -26.543,-33.015 -39.297,-49.695 -12.746,-16.688 -25.149,-34.082 -37.617,-50.984 -16.086,-21.621 -16.102,-23.371 -11.067,-31.196 l 15.899,-23.582 -2.977,-3.894 c -12.226,11.093 -27.5,24.527 -39.738,33.886 -13.906,10.614 -30.887,21.825 -44.258,30.282 l 2.98,3.886 z m 114.864,-87.753 c 18.972,-7.442 25.039,-9.883 26.531,-7.93 1.699,2.226 0.742,5.597 0.375,10.281 l -11.875,129.758 99.48,8.562 c 17.02,1.528 27.051,3.118 29.168,5.903 2.344,3.054 -4.168,10.672 -12.664,23.765 l 2.977,3.899 c 11.105,-10.242 22.492,-20.711 34.457,-29.844 10.289,-7.859 21.422,-14.609 32.566,-21.367 l -2.968,-3.887 c -9.004,3.789 -23.301,9.863 -41.368,8.692 l -109.902,-7.207 15.262,-149.524 c 0.402,-2.945 1.808,-9.742 2.433,-10.66 1.719,-3.52 6.883,-12.316 12.567,-19.301 l -2.977,-3.883 c -12.5,11.309 -25.558,23.043 -39.179,33.457 -12.247,9.344 -25.051,17.371 -37.864,25.399 l 2.981,3.887 z m 120.605,-79.891 28.074,-4.543 c 9.211,-1.301 10.793,-0.547 23.684,23.113 10.117,18.41 20.703,36.965 30.508,55.539 9.805,18.574 19.148,37.774 28.64,56.516 14.747,29.414 15.579,31.746 10.84,37.019 l -21.425,22.395 2.296,4.336 c 14.2,-9.082 28.711,-18.332 46.043,-27.481 15.481,-8.175 31.301,-14.945 47.422,-21.875 l -2.281,-4.328 -30.578,5.059 c -7.024,0.937 -8.477,-1.063 -24.453,-29.832 -10.117,-18.41 -20.703,-36.965 -30.508,-55.539 -9.805,-18.567 -19.152,-37.774 -28.645,-56.504 -12.273,-24.004 -12,-25.731 -5.73,-32.598 l 19.582,-20.633 -2.289,-4.328 c -13.895,8.914 -31.191,19.629 -44.805,26.817 -15.476,8.175 -34.082,16.418 -48.672,22.531 l 2.297,4.336 z m 115.008,-64.531 c 8.965,0.222 19.484,0.64 28.918,2.183 52.285,57.805 114.395,121.457 158.855,172.715 l 7.27,-2.527 c 2.59,-77.949 8.47,-157.051 13.29,-233.938 l 24.44,-19.226 -1.6,-4.629 c -17.07,7.414 -33.81,14.695 -51.33,20.781 -14.88,5.164 -29.89,8.887 -45.222,12.734 l 1.602,4.629 c 8.95,-0.886 24.67,-1.523 35.96,-0.996 0.86,15.266 1.06,50.02 -0.12,61.543 -13.78,5.149 -27.88,10.41 -41.77,15.235 -13.887,4.816 -27.559,9.191 -41.562,13.679 -14.774,-13.765 -26.836,-31.433 -37.891,-48.347 l 24.875,-20.118 -1.602,-4.629 c -12.441,5.801 -24.875,11.59 -38.105,16.18 -12.227,4.25 -24.922,7.18 -37.617,10.102 l 1.609,4.629 z m 166.503,128.562 -68.437,-74.426 74.397,-25.816 -5.96,100.242 z m 367.27,-35.566 -24.31,-5.442 c -7.99,-1.824 -11.89,-4.859 -13.03,-11.074 -4.55,-27.996 -14.99,-89.129 -17.5,-109.266 -1.77,-14.246 -6.75,-54.179 -11,-93.8667 l -8.33,1.043 c -18.12,35.7657 -38.14,70.3637 -57.77,105.2537 l -58.69,103.617 -0.69,0.078 -4.84,-38.898 c -5.73,-45.84 -13.56,-114.348 -13.34,-121.074 0.35,-5.692 2.43,-8.77 12.11,-13.153 l 22.02,-10.148 -0.61,-4.8632 c -15.11,3.2929 -30.57,6.6328 -45.85,8.5351 -14.93,1.8631 -29.7,2.2971 -44.8,2.7661 l 0.6,4.863 27.66,6.773 c 5.08,1.133 8.59,3.871 9.34,6.953 2.77,10.942 11.64,62.383 17.19,106.848 l 8.57,68.762 -3.64,7.508 c -10.16,6.211 -20.44,11.367 -31.13,16.23 l 0.61,4.863 c 10.93,-2.773 21.88,-5.554 32.99,-6.941 10.42,-1.301 21.01,-1.203 31.6,-1.113 5.08,-12.981 10.99,-25 17.95,-37.161 l 81.82,-144.238 0.78,0.617 10.49,84.043 c 2.08,16.668 3.85,33.731 4.93,50.875 0.52,9.817 -1.91,12.942 -11.46,18.371 l -21.76,12.227 0.61,4.863 c 14.07,-3.164 28.48,-6.367 42.72,-8.144 15.62,-1.953 31.42,-2.508 47.58,-3.114 l -0.82,-6.593 z m 9.01,-212.4729 c 8.12,3.8281 17.57,8.4804 25.56,13.7031 24.45,74.0038 55.5,157.3438 75.43,222.2068 l 7.67,0.625 c 33.9,-70.246 71.28,-140.207 106.77,-208.574 l 30.14,-7.6953 0.4,-4.8828 c -18.6,-0.125 -36.86,-0.2344 -55.34,-1.7578 -15.7,-1.3008 -30.93,-3.9532 -46.52,-6.6485 l -0.4,4.8828 c 8.55,2.8125 23.18,8.5821 33.29,13.6286 -5.39,14.309 -19.26,46.172 -25.01,56.243 -14.68,-0.86 -29.7,-1.747 -44.35,-2.957 -14.65,-1.211 -28.93,-2.739 -43.55,-4.297 -7.95,-18.567 -11.83,-39.614 -15.1,-59.5433 l 30.9,-8.3399 0.39,-4.8828 c -13.72,0.2734 -27.44,0.5469 -41.39,-0.6055 -12.9,-1.0664 -25.7,-3.5273 -38.48,-5.9882 l -0.41,4.8828 z m 100.28,184.9259 -32.48,-95.742 78.48,6.472 -46,89.27 z m 264.76,40.047 c -11.85,30.691 -13.7,32.605 -21.77,32.121 l -30.96,-1.438 -1.76,4.571 c 18.46,5.625 35.62,10.742 48.69,15.781 13.06,5.039 36.86,17.219 55.48,24.402 34.94,13.481 76.13,11.731 91.25,-27.449 10.45,-27.109 -12.76,-54.441 -42.33,-69.227 l 0.25,-0.644 c 33.21,10.176 75.43,12.586 90.29,-25.949 11.58,-30.047 -2.1,-64.578 -49.12,-82.727 -24.82,-9.566 -51.3,-16.785 -71.54,-24.59 -15.35,-5.925 -27.91,-12.261 -42.1,-19.234 l -1.76,4.566 21.87,18.188 c 8,6.465 8.8,8.277 -0.89,33.426 l -45.6,118.203 z m 45.18,-35.457 25.15,9.695 c 21.56,8.313 53.48,24.758 39.12,61.984 -12.35,32 -39.62,34.61 -67.37,23.907 -10.45,-4.036 -17.31,-6.68 -28.15,-11.614 5.13,-15.273 8.46,-24.875 14.13,-39.558 l 17.12,-44.414 z m 28.1,-72.825 c 3.91,-10.117 8.01,-19.792 12.57,-29.667 8.94,3.078 17.03,5.449 25.19,8.593 31.68,12.227 61.23,31.875 46.37,70.41 -13.73,35.594 -48.31,35.762 -84.88,21.653 l -23.18,-8.946 23.93,-62.043 z m 207.42,43.68 17.65,22.309 c 6.5,7.976 6.91,9.91 -7.75,32.515 l -68.99,106.274 c -17.92,27.597 -20.12,29.082 -27.92,26.941 l -30,-7.785 -2.67,4.106 c 11.63,5.878 26.19,13.66 42.04,23.953 15.27,9.914 30.48,23.117 51.32,36.648 38.76,25.156 74.29,25.695 93.34,-3.66 19.25,-29.656 7.26,-57.473 -16.89,-79.402 l 79.78,-34.18 c 33.6,-14.484 36.4,-15.59 54.74,-7.852 l 2.68,-4.113 c -7.14,-3.789 -14.56,-7.781 -21.32,-12.156 -7.04,-4.582 -14.01,-9.934 -20.96,-15.285 -39.37,19.511 -89.89,40.129 -123.52,52.09 l -22.61,-14.668 21.91,-33.758 c 24.78,-38.164 30.04,-44.348 39.19,-41.739 l 28.64,7.313 2.66,-4.109 c -13.38,-7.024 -33.81,-18.618 -44.09,-25.286 -14.97,-9.714 -31.23,-21.945 -44.56,-32.265 l -2.67,4.109 z m -7.37,135.422 19.96,12.957 c 27.31,17.719 49.69,38.52 28.73,70.805 -16.76,25.84 -41.92,25.371 -69.52,7.449 -9.39,-6.094 -18.01,-12.098 -26.82,-17.82 l 47.65,-73.391 z m 253.12,341.27 -6.6,-15.125 c -3.68,-9.172 -4.89,-14.868 0.09,-20.293 13.43,-14.289 34.31,-33.996 78.07,-78.34 47.74,-48.293 42.23,-89.649 5.53,-126.692 -35.73,-36.054 -76.27,-45.644 -114.3,-7.949 l -69.86,69.231 c -20.89,20.691 -26.6,24.871 -36.23,20.625 l -24.7,-11.008 -3.48,3.445 c 13.07,11.203 25.64,21.899 37.22,33.586 13.05,13.176 24.87,27.09 36.93,41.25 l 3.48,-3.445 -7.1,-15.625 c -8.33,-18.852 -9.31,-21.828 -1.1,-30.942 13.93,-15.281 35.31,-36.472 73.6,-74.414 31.81,-31.519 59.84,-45.008 99.01,-5.476 25.87,26.101 25.24,57.773 -4.6,87.343 -30.58,30.293 -70.36,69.219 -89.48,84.231 -4.97,3.934 -10.66,2.176 -19.54,-2.316 l -17.78,-9.493 -3.48,3.45 c 11.59,9.707 23.17,19.414 34.01,30.347 9.37,9.453 17.98,20.129 26.84,31.067 l 3.47,-3.457 z m 136.53,212.507 -5.3,-24.332 c -1.71,-8.019 -0.6,-12.843 4.56,-16.476 23.48,-15.906 74.54,-51.113 91.75,-61.863 12.17,-7.61 46.31,-28.938 80.52,-49.485 l -4.45,-7.117 c -40.07,-1.391 -79.88,-4.992 -119.8,-8.106 l -118.68,-9.628 -0.37,-0.598 33.25,-20.77 c 39.18,-24.484 98.02,-60.421 104.22,-63.058 5.31,-2.071 8.98,-1.477 17.03,5.461 l 18.47,15.691 4.16,-2.59 c -9.35,-12.324 -18.89,-24.937 -27.04,-37.996 -7.98,-12.762 -14.58,-25.976 -21.37,-39.48 l -4.15,2.597 5.48,27.938 c 1.11,5.09 0.12,9.426 -2.37,11.387 -8.76,7.129 -51.68,36.836 -89.68,60.578 l -58.77,36.718 -8.35,-0.148 c -9.9,-6.609 -18.92,-13.769 -27.82,-21.418 l -4.15,2.602 c 7.12,8.757 14.24,17.507 20.17,27.011 5.57,8.907 9.95,18.551 14.32,28.203 13.91,-0.863 27.31,-0.558 41.25,0.633 l 165.28,13.528 -0.22,0.964 -71.84,44.883 c -14.23,8.899 -28.97,17.688 -44.07,25.891 -8.68,4.598 -12.54,3.699 -21.49,-2.68 l -20.25,-14.59 -4.15,2.602 c 8.79,11.434 17.77,23.152 25.37,35.32 8.34,13.36 15.5,27.461 22.84,41.856 l 5.65,-3.528 z m 60.24,33.43 c -30.91,11.262 -33.57,11.113 -38.51,4.719 l -19.27,-24.27 -4.61,1.668 c 11.26,26.821 21.68,51.328 30.79,76.329 11.38,31.24 21.33,62.63 30.56,92.05 8.09,-3.33 19.7,-8.3 24.63,-10.09 4.93,-1.8 16.36,-5.21 24.03,-7.64 l -1.67,-4.6 -27.78,0.43 c -10.4,0.06 -11.37,-2.56 -25.14,-40.38 -6.95,-19.08 -12.14,-34.32 -16.24,-46.61 11.27,-4.848 23.08,-10.266 36.89,-15.305 l 40.45,-14.738 12.46,34.203 c 14.5,39.79 15.16,43.65 9,49.25 l -20.23,17.05 1.68,4.61 c 12.37,-4.89 24.75,-9.77 36.92,-14.2 13.47,-4.92 26.09,-9.14 40.03,-13.84 l -1.68,-4.6 -28.11,0.55 c -8.31,-0.32 -10.29,-3.7 -24.78,-43.49 l -12.46,-34.201 44.72,-16.297 c 15.13,-5.508 30.62,-10.032 44.66,-14.407 5.97,15.333 12.58,30.43 17.97,45.223 12.82,35.202 14.29,40.242 11.54,44.972 -3.49,5.74 -12.69,13.19 -29.94,26.18 l 1.67,4.61 c 9.3,-4.14 18.68,-9.04 28.22,-12.52 l 24.99,-9.11 c -7.54,-16.62 -27.3,-66.776 -34.01,-85.194 -10.55,-28.938 -20.73,-60.989 -28.05,-85.149 l -4.6,1.684 0.68,28.433 c 0.39,10.286 -0.44,12.082 -25.76,21.301 L 2494,959.414 Z m 51.34,419.976 5.07,-24.39 c 1.7,-8.01 4.68,-11.96 10.87,-13.18 27.93,-4.98 88.89,-16.37 108.99,-19.19 14.21,-1.99 54.07,-7.59 93.68,-12.43 l -1.16,-8.32 c -36.05,-17.57 -70.95,-37.06 -106.14,-56.16 l -104.49,-57.08 -0.1,-0.69 38.82,-5.44 c 45.75,-6.42 114.13,-15.31 120.86,-15.19 5.69,0.25 8.8,2.29 13.33,11.9 l 10.48,21.85 4.86,-0.67 c -3.53,-15.06 -7.1,-30.46 -9.24,-45.71 -2.09,-14.9 -2.75,-29.66 -3.46,-44.76 l -4.85,0.68 -6.35,27.76 c -1.05,5.1 -3.74,8.65 -6.8,9.43 -10.9,2.94 -62.2,12.62 -106.57,18.85 l -68.63,9.63 -7.56,-3.54 c -6.36,-10.05 -11.69,-20.27 -16.71,-30.88 l -4.85,0.69 c 2.95,10.9 5.89,21.79 7.44,32.88 1.47,10.4 1.53,21 1.61,31.58 13.06,4.88 25.17,10.61 37.43,17.38 l 145.47,79.59 -0.59,0.8 -83.88,11.77 c -16.64,2.34 -33.67,4.37 -50.8,5.72 -9.8,0.66 -12.97,-1.72 -18.53,-11.18 l -12.58,-21.57 -4.85,0.68 c 3.38,14.02 6.81,28.37 8.81,42.59 2.19,15.6 2.99,31.39 3.84,47.52 l 6.58,-0.92 z m 151.21,46.23 -0.27,4.89 44.39,14.45 c 5.35,10.83 6.51,27.38 6,36.11 -1.59,27.95 -15.63,52.74 -48.13,50.89 -49.61,-2.84 -39.17,-111.97 -104.87,-115.73 -42.28,-2.41 -65.13,35.55 -67.28,73.29 -0.84,14.68 2.42,37.3 8.22,52.35 l 48,0.64 0.21,-3.84 -38.01,-15.85 c -3.86,-12.14 -5.3,-23.79 -4.61,-35.67 1.25,-22.01 19.53,-41.3 42.94,-39.96 54.86,3.13 34.63,111.7 106.97,115.84 30.4,1.73 66.64,-18.99 70.57,-87.82 0.96,-16.77 -0.28,-31.92 -6.83,-52.28 l -57.3,2.69 z m 40.56,202.87 -14.2,24.65 c -4.8,7.96 -6.39,8.71 -32.88,3.77 -20.66,-3.77 -41.74,-7.26 -62.32,-11.38 -20.6,-4.12 -41.4,-8.98 -61.93,-13.44 -32.12,-7.13 -34.45,-7.96 -35.56,-14.96 l -3.84,-30.75 -4.81,-0.96 c -1.91,16.75 -3.9,33.84 -7.74,53.06 -3.43,17.16 -8.17,33.7 -12.97,50.59 l 4.8,0.96 15.38,-26.91 c 3.71,-6.04 6.17,-5.9 38.57,-0.14 20.66,3.77 41.74,7.26 62.33,11.38 20.59,4.12 41.39,8.98 61.92,13.44 26.35,5.63 27.53,6.93 28.89,16.13 l 3.64,28.21 4.81,0.96 c 1.85,-16.4 4.46,-36.58 7.48,-51.69 3.43,-17.16 8.78,-36.79 13.23,-51.96 l -4.8,-0.96 z m -92.69,151.67 -1.62,4.63 38.63,26.23 c 2.11,11.88 -1.37,28.09 -4.28,36.34 -9.31,26.41 -29.69,46.32 -60.39,35.5 -46.87,-16.53 -6.49,-118.45 -68.55,-140.32 -39.94,-14.09 -72.44,16.02 -85.01,51.67 -4.89,13.86 -8.04,36.5 -6.66,52.57 l 45.92,13.97 1.28,-3.64 -32.1,-25.79 c -0.33,-12.73 1.52,-24.32 5.48,-35.54 7.33,-20.8 30.25,-34.24 52.37,-26.45 51.83,18.27 2.2,116.94 70.53,141.02 28.71,10.13 69.28,0.31 92.21,-64.72 5.58,-15.84 8.61,-30.73 7.98,-52.11 l -55.79,-13.36 z M 463.535,2358.2 458.32,2342.53 c -2.82,-9.47 -3.515,-15.25 1.934,-20.2 14.668,-13.02 37.254,-30.74 84.863,-70.93 51.926,-43.76 50.203,-85.44 17.012,-125.67 -32.305,-39.14 -71.809,-52.37 -113.117,-18.29 l -75.848,62.6 c -22.687,18.71 -28.75,22.35 -37.957,17.24 l -23.598,-13.2 -3.777,3.12 c 11.992,12.34 23.543,24.13 34.012,36.82 11.808,14.31 22.304,29.24 33.039,44.44 l 3.781,-3.12 -5.656,-16.2 c -6.582,-19.53 -7.285,-22.58 1.719,-30.92 15.253,-13.95 38.464,-33.11 80.046,-67.42 34.551,-28.5 63.692,-39.39 99.102,3.54 23.398,28.34 19.883,59.83 -12.52,86.56 -33.203,27.4 -76.347,62.55 -96.757,75.76 -5.301,3.47 -10.801,1.2 -19.246,-4.09 l -16.848,-11.05 -3.777,3.11 c 10.664,10.72 21.316,21.44 31.121,33.32 8.468,10.25 16.074,21.68 23.906,33.36 l 3.781,-3.11 z m 232.352,186.33 -13.367,-21.02 c -4.368,-6.94 -4.981,-11.85 -1.395,-17.04 16.559,-23.03 52.352,-73.68 64.801,-89.71 8.801,-11.33 33.488,-43.12 58.515,-74.21 l -6.64,-5.15 c -38.086,12.52 -76.688,22.87 -115.242,33.7 l -114.719,31.88 -0.555,-0.43 24.043,-30.96 c 28.34,-36.49 71.192,-90.51 76.094,-95.12 4.266,-3.78 7.918,-4.49 17.871,-0.75 l 22.746,8.36 3.004,-3.87 c -13.016,-8.33 -26.316,-16.89 -38.477,-26.34 -11.882,-9.23 -22.636,-19.35 -33.671,-29.69 l -2.997,3.87 14.774,24.33 c 2.805,4.39 3.359,8.81 1.703,11.52 -5.766,9.7 -35.824,52.39 -63.293,87.77 l -42.512,54.73 -7.89,2.74 c -11.571,-2.78 -22.5,-6.4 -33.496,-10.51 l -3.008,3.87 c 9.707,5.77 19.414,11.53 28.254,18.4 8.3,6.44 15.734,13.99 23.164,21.54 12.761,-5.6 25.437,-9.94 38.945,-13.63 l 159.805,-44.29 0.125,0.99 -51.953,66.89 c -10.301,13.27 -21.102,26.6 -32.45,39.5 -6.562,7.31 -10.488,7.8 -21.086,4.9 l -24.042,-6.71 -3.008,3.87 c 12.199,7.7 24.668,15.61 35.996,24.41 12.441,9.66 24.023,20.42 35.879,31.41 l 4.082,-5.25 z m 142.648,-167.19 19.356,20.84 c 6.199,6.93 6.453,8.66 -6.075,32.52 -9.687,18.64 -19.238,37.74 -29.25,56.21 -10,18.47 -20.777,36.9 -31.082,55.2 -16.289,28.6 -17.765,30.59 -24.777,29.57 l -30.516,-5.38 -2.336,4.31 c 15.442,6.77 31.184,13.71 48.418,23.04 15.395,8.33 29.809,17.73 44.524,27.3 l 2.332,-4.31 -21.18,-22.62 c -4.679,-5.32 -3.82,-7.64 11.231,-36.91 9.695,-18.63 19.246,-37.73 29.246,-56.2 10,-18.46 20.781,-36.91 31.094,-55.2 13.136,-23.54 14.73,-24.26 23.925,-22.87 l 28.028,4.84 2.336,-4.32 c -15.129,-6.6 -33.653,-15.04 -47.188,-22.37 -15.391,-8.33 -32.578,-19.23 -45.754,-27.96 l -2.332,4.31 z m 27.422,266.14 c 15.652,4.03 31.629,8.18 46.816,13.53 13.868,4.88 27.598,11.2 40.997,17.41 l 1.621,-4.62 -10.391,-7.37 c -13.672,-9.65 -16.055,-12.34 -14.777,-15.97 2.445,-6.93 80.867,-94.71 108.707,-124.23 3.16,55.29 4.9,109.34 3.54,150.05 -0.12,6.64 -0.07,10.73 -1.35,14.36 -1.29,3.64 -12.79,3.66 -28.94,3.16 l -1.63,4.63 c 13,3.09 26.01,6.2 38.56,10.61 10.23,3.61 19.67,8.42 29.1,13.23 l 1.63,-4.62 c -12.91,-8.63 -16.26,-13.89 -17.57,-26.97 -4.87,-52.56 -8.03,-126.78 -9.32,-220 l -7.6,-2.68 c -42.63,52.52 -105.604,123.84 -143.268,164.38 -9.582,10.35 -12.25,10.53 -24.082,10.43 l -10.414,0.05 -1.629,4.62 z m 309.063,39.43 c -4.59,32.57 -5.98,34.86 -13.95,36.21 l -30.48,5.6 -0.68,4.85 c 28.97,2.66 55.5,4.99 81.84,8.71 32.93,4.63 65.31,10.61 95.61,16.29 0.87,-8.71 1.94,-21.28 2.67,-26.48 0.73,-5.2 3.08,-16.88 4.56,-24.8 l -4.86,-0.69 -12.67,24.72 c -4.83,9.22 -7.61,8.83 -47.46,3.21 -20.1,-2.83 -36,-5.42 -48.77,-7.58 1.01,-12.23 1.79,-25.2 3.84,-39.75 l 6,-42.63 36.05,5.08 c 41.93,5.91 45.64,7.14 47.69,15.21 l 5.54,25.87 4.85,0.68 c 1.52,-13.21 3.02,-26.43 4.83,-39.26 2,-14.2 4.21,-27.33 6.61,-41.83 l -4.85,-0.69 -12.73,25.07 c -4.2,7.19 -8.11,7.34 -50.04,1.43 l -36.04,-5.08 6.64,-47.13 c 2.24,-15.94 5.53,-31.74 8.28,-46.2 16.34,1.95 32.77,3.21 48.37,5.41 37.08,5.22 42.24,6.3 45.11,10.95 3.42,5.78 5.68,17.41 9.03,38.74 l 4.85,0.68 c 0.73,-10.15 0.8,-20.74 2.22,-30.79 l 3.71,-26.34 c -18.21,-1.16 -71.78,-7.29 -91.19,-10.03 -30.5,-4.29 -63.58,-10.37 -88.33,-15.27 l -0.68,4.85 25.41,12.77 c 9.26,4.49 10.45,6.07 6.7,32.76 l -17.68,125.46 z m 195.98,-141.68 27.42,7.58 c 9.96,2.61 11.43,3.92 12.93,30.83 l 7.03,126.51 c 1.82,32.85 0.92,35.35 -6.64,38.23 l -28.81,11.41 0.27,4.89 c 12.85,-2.11 29.2,-4.43 48.07,-5.47 18.17,-1.01 38.24,0.67 63.05,-0.7 46.14,-2.57 75.14,-23.11 73.2,-58.05 -1.97,-35.3 -28.06,-50.68 -60.5,-54.13 l 44.22,-74.67 c 18.58,-31.53 20.19,-34.07 39.57,-38.66 l -0.27,-4.89 c -8,1.14 -16.35,2.31 -24.39,2.76 -8.39,0.47 -17.16,0.25 -25.94,0.04 -20.26,38.98 -48.88,85.45 -68.97,114.95 l -26.9,1.5 -2.24,-40.18 c -2.53,-45.43 -1.92,-53.53 7,-56.83 l 27.43,-10.99 -0.27,-4.9 c -14.94,2.24 -38.28,4.93 -50.51,5.61 -17.82,1 -38.17,0.73 -55.02,0.26 l 0.27,4.9 z m 73.97,113.66 23.77,-1.32 c 32.49,-1.81 62.84,1.77 64.98,40.2 1.71,30.76 -18.88,45.23 -51.72,47.05 -11.18,0.62 -21.69,0.86 -32.17,1.44 l -4.86,-87.37 z m 194.82,-79.35 4.75,-1.19 0.6,-46.69 c 8.75,-8.32 24.2,-14.34 32.69,-16.46 27.16,-6.79 55,-0.75 62.89,30.82 12.05,48.22 -95.25,70.69 -79.3,134.53 10.26,41.09 53.29,51.63 89.97,42.47 14.26,-3.57 34.89,-13.41 47.54,-23.43 l -13.66,-46.01 -3.74,0.93 -3.82,41.01 c -10.44,7.29 -21.14,12.13 -32.68,15.01 -21.4,5.35 -45.24,-6.37 -50.93,-29.12 -13.32,-53.31 96.36,-66.28 78.8,-136.57 -7.38,-29.54 -37.94,-57.98 -104.83,-41.27 -16.3,4.07 -30.39,9.75 -47.89,22.06 l 19.61,53.91 z m 149.49,-100.56 28.4,-1.71 c 9.28,-0.38 10.78,0.53 21.25,25.37 8.22,19.32 16.9,38.84 24.8,58.3 7.9,19.46 15.28,39.5 22.86,59.09 11.73,30.74 12.33,33.15 7.09,37.92 l -23.55,20.14 1.84,4.54 c 15.04,-7.62 30.4,-15.37 48.57,-22.74 16.21,-6.59 32.62,-11.74 49.36,-17.03 l -1.83,-4.54 -30.93,1.98 c -7.09,0.23 -8.33,-1.91 -21.36,-32.12 -8.22,-19.32 -16.9,-38.85 -24.8,-58.3 -7.91,-19.46 -15.29,-39.5 -22.87,-59.09 -9.81,-25.11 -9.37,-26.79 -2.45,-33 l 21.55,-18.58 -1.84,-4.53 c -14.72,7.48 -33,16.41 -47.26,22.21 -16.22,6.58 -35.55,12.92 -50.68,17.55 l 1.85,4.54 z m 221.38,146.86 c 25.63,-16.51 50.95,-32.84 77.28,-48.14 26.33,-15.3 53.06,-29.21 80.09,-43.3 l -29.9,-51.44 -4.24,2.46 5,29.48 c 1.74,12.75 -0.59,15.72 -45.98,42.1 l -76.67,-131.94 c -8.79,-15.13 -12.76,-23.35 -13.4,-28.64 -0.48,-4.99 3.77,-12.32 22.37,-33.24 l -2.46,-4.24 c -13.52,9.47 -26.13,18.42 -44.89,29.32 -18.77,10.91 -32.78,17.43 -47.7,24.49 l 2.46,4.23 c 27.39,-5.8 36.16,-6.03 39.96,-2.98 4.28,3.18 9.45,10.7 18.24,25.83 l 76.67,131.94 c -45.39,26.37 -49.12,26.93 -59.34,19.1 l -23.14,-18.94 -4.24,2.46 29.89,51.45 z m 40.22,-273.18 c 8.44,-3.07 18.39,-6.51 27.72,-8.51 69.78,34.73 150.82,71.35 210.92,102.85 l 5.85,-5 c -26.03,-73.53 -49.41,-149.33 -72.97,-222.66 l 15.74,-26.82 -3.18,-3.73 c -13.18,13.12 -26.11,26.01 -40.21,38.07 -11.97,10.24 -24.58,19.18 -37.46,28.35 l 3.19,3.73 c 8,-4.1 22.4,-10.42 33.11,-14.05 6.36,13.91 19.23,46.18 22.34,57.35 -10.95,9.82 -22.16,19.87 -33.33,29.42 -11.17,9.56 -22.31,18.61 -33.71,27.9 -18.78,-7.42 -36.46,-19.47 -52.93,-31.18 l 15.84,-27.82 -3.19,-3.72 c -9.46,9.93 -18.92,19.87 -29.57,28.97 -9.84,8.42 -20.59,15.77 -31.34,23.12 l 3.18,3.73 z m 201.93,58.96 -90.87,-44.33 59.86,-51.18 31.01,95.51 z m 49.18,-210.7 3.03,-3.85 -28.11,-37.29 c 1.83,-11.93 10.36,-26.15 15.77,-33.02 17.33,-22 43.03,-34.28 68.61,-14.13 39.04,30.75 -32.05,114.21 19.64,154.92 33.27,26.21 73.75,8.2 97.14,-21.5 9.09,-11.55 19.38,-31.96 23.25,-47.62 l -38.97,-28.02 -2.38,3.02 22.07,34.77 c -3.79,12.16 -9.29,22.53 -16.65,31.88 -13.64,17.32 -39.68,22.65 -58.1,8.14 -43.16,-33.99 35.62,-111.39 -21.29,-156.22 -23.92,-18.84 -65.49,-22.63 -108.16,31.54 -10.39,13.19 -18.05,26.32 -24.36,46.75 l 48.51,30.63 z m 250.99,-187.69 c 0,-19.56 -15.86,-35.43 -35.43,-35.43 -19.57,0 -35.43,15.87 -35.43,35.43 0,19.57 15.86,35.44 35.43,35.44 19.57,0 35.43,-15.87 35.43,-35.44 z m -2196.664,0 c 0,-19.56 -15.859,-35.43 -35.429,-35.43 -19.571,0 -35.43,15.87 -35.43,35.43 0,19.57 15.859,35.44 35.43,35.44 19.57,0 35.429,-15.87 35.429,-35.44" /></g></g></svg>