<?xml version="1.0" encoding="UTF-8" standalone="no"?>
<!-- Generator: Adobe Illustrator 16.0.0, SVG Export Plug-In . SVG Version: 6.00 Build 0)  -->

<svg
   xmlns:dc="http://purl.org/dc/elements/1.1/"
   xmlns:cc="http://creativecommons.org/ns#"
   xmlns:rdf="http://www.w3.org/1999/02/22-rdf-syntax-ns#"
   xmlns:svg="http://www.w3.org/2000/svg"
   xmlns="http://www.w3.org/2000/svg"
   xmlns:sodipodi="http://sodipodi.sourceforge.net/DTD/sodipodi-0.dtd"
   xmlns:inkscape="http://www.inkscape.org/namespaces/inkscape"
   version="1.1"
   id="Layer_1"
   x="0px"
   y="0px"
   width="1000px"
   height="1000px"
   viewBox="0 0 1000 1000"
   enable-background="new 0 0 1000 1000"
   xml:space="preserve"
   inkscape:version="0.91 r13725"
   sodipodi:docname="mu.svg"><metadata
     id="metadata13"><rdf:RDF><cc:Work
         rdf:about=""><dc:format>image/svg+xml</dc:format><dc:type
           rdf:resource="http://purl.org/dc/dcmitype/StillImage" /><dc:title></dc:title></cc:Work></rdf:RDF></metadata><defs
     id="defs11" /><sodipodi:namedview
     pagecolor="#ffffff"
     bordercolor="#666666"
     borderopacity="1"
     objecttolerance="10"
     gridtolerance="10"
     guidetolerance="10"
     inkscape:pageopacity="0"
     inkscape:pageshadow="2"
     inkscape:window-width="640"
     inkscape:window-height="480"
     id="namedview9"
     showgrid="false"
     inkscape:zoom="0.30145312"
     inkscape:cx="441.94786"
     inkscape:cy="500"
     inkscape:window-x="0"
     inkscape:window-y="0"
     inkscape:window-maximized="0"
     inkscape:current-layer="layer1" /><g
     id="g3"><path
       fill="#90B2CC"
       d="M974.721,825.317c0,82.5-67.5,150-150,150H175.279c-82.5,0-150-67.5-150-150V174.683   c0-82.5,67.5-150,150-150h649.441c82.5,0,150,67.5,150,150V825.317z"
       id="path5" /></g><g
     id="layer1"
     inkscape:label="Layer 1"
     inkscape:groupmode="layer"><path
       id="path3005"
       inkscape:connector-curvature="0"
       fill="#2C3E50"
       d="M179.465,320.731c0,5.904-4.784,10.688-10.688,10.688   s-10.688-4.784-10.688-10.688c0-5.903,4.784-10.688,10.688-10.688S179.465,314.828,179.465,320.731 M842.107,320.731   c0,5.904-4.783,10.688-10.686,10.688c-5.905,0-10.689-4.784-10.689-10.688c0-5.903,4.784-10.688,10.689-10.688   C837.324,310.043,842.107,314.828,842.107,320.731 M766.397,264.111l0.915,1.164l-8.48,11.246c0.552,3.599,3.126,7.888,4.761,9.962   c5.224,6.636,12.978,10.341,20.69,4.266c11.779-9.281-9.665-34.456,5.925-46.736c10.035-7.906,22.247-2.472,29.304,6.486   c2.743,3.483,5.845,9.642,7.014,14.364l-11.751,8.456l-0.721-0.915l6.655-10.485c-1.146-3.67-2.8-6.799-5.024-9.62   c-4.115-5.225-11.968-6.832-17.521-2.456c-13.023,10.256,10.742,33.604-6.424,47.127c-7.217,5.684-19.757,6.825-32.629-9.514   c-3.135-3.98-5.444-7.94-7.344-14.105L766.397,264.111z M751.561,200.555l-27.409,13.372l18.058,15.438L751.561,200.555z    M690.648,218.341c2.545,0.924,5.547,1.96,8.366,2.566c21.046-10.48,45.494-21.526,63.622-31.026l1.763,1.508   c-7.853,22.179-14.899,45.044-22.012,67.169l4.751,8.091l-0.962,1.122c-3.978-3.957-7.876-7.846-12.127-11.484   c-3.615-3.085-7.42-5.786-11.304-8.553l0.962-1.122c2.418,1.235,6.759,3.142,9.992,4.235c1.914-4.192,5.798-13.93,6.736-17.3   c-3.304-2.962-6.684-5.991-10.054-8.873c-3.37-2.883-6.731-5.614-10.167-8.418c-5.666,2.239-11.002,5.877-15.965,9.41l4.774,8.388   l-0.961,1.124c-2.856-2.995-5.708-5.996-8.923-8.741c-2.97-2.536-6.212-4.753-9.455-6.974L690.648,218.341z M678.516,135.931   c7.73,4.98,15.37,9.905,23.313,14.522c7.942,4.615,16.002,8.814,24.157,13.061l-9.018,15.521l-1.277-0.743l1.504-8.896   c0.528-3.846-0.175-4.742-13.866-12.698l-23.13,39.798c-2.653,4.567-3.846,7.044-4.044,8.644   c-0.142,1.504,1.141,3.712,6.754,10.026l-0.744,1.279c-4.082-2.859-7.887-5.56-13.542-8.847c-5.665-3.288-9.889-5.258-14.391-7.386   l0.74-1.277c8.263,1.749,10.907,1.821,12.058,0.898c1.291-0.959,2.846-3.225,5.5-7.792l23.129-39.801   c-13.692-7.956-14.819-8.121-17.896-5.762l-6.986,5.713l-1.276-0.743L678.516,135.931z M611.731,180.232l8.568,0.516   c2.8,0.113,3.257-0.16,6.411-7.652c2.479-5.83,5.1-11.718,7.479-17.588c2.386-5.868,4.614-11.916,6.896-17.826   c3.54-9.271,3.719-9.997,2.141-11.435l-7.104-6.076l0.556-1.369c4.534,2.295,9.168,4.633,14.65,6.856   c4.887,1.989,9.841,3.542,14.889,5.138l-0.552,1.369l-9.332-0.596c-2.135-0.071-2.512,0.575-6.443,9.688   c-2.479,5.831-5.095,11.72-7.48,17.586c-2.38,5.871-4.609,11.92-6.895,17.829c-2.961,7.572-2.828,8.081-0.74,9.955l6.504,5.602   l-0.561,1.37c-4.436-2.258-9.955-4.952-14.254-6.7c-4.893-1.985-10.728-3.9-15.29-5.296L611.731,180.232z M566.638,149.899   l1.433,0.361l0.184,14.081c2.637,2.51,7.296,4.325,9.857,4.968c8.195,2.046,16.592,0.227,18.973-9.299   c3.639-14.548-28.733-21.326-23.923-40.583c3.096-12.396,16.079-15.573,27.142-12.809c4.306,1.075,10.525,4.044,14.346,7.065   l-4.121,13.878l-1.132-0.28l-1.15-12.369c-3.151-2.203-6.379-3.66-9.861-4.532c-6.454-1.614-13.646,1.923-15.362,8.788   c-4.019,16.083,29.068,19.995,23.77,41.196c-2.225,8.911-11.444,17.491-31.623,12.45c-4.916-1.228-9.167-2.943-14.441-6.658   L566.638,149.899z M507.867,125.959l7.172,0.398c9.799,0.547,18.955-0.53,19.601-12.125c0.516-9.276-5.69-13.643-15.602-14.195   c-3.372-0.186-6.545-0.257-9.702-0.431L507.867,125.959z M485.556,160.25l8.268-2.291c3.007-0.783,3.453-1.181,3.903-9.3   l2.121-38.16c0.552-9.91,0.278-10.667-2.003-11.531l-8.692-3.446l0.08-1.475c3.879,0.639,8.81,1.336,14.504,1.654   c5.481,0.304,11.533-0.207,19.021,0.21c13.916,0.773,22.664,6.969,22.079,17.513c-0.593,10.648-8.464,15.283-18.25,16.325   l13.339,22.528c5.607,9.512,6.095,10.278,11.936,11.659l-0.081,1.476c-2.413-0.345-4.931-0.698-7.357-0.832   c-2.526-0.139-5.174-0.076-7.822-0.012c-6.115-11.76-14.748-25.775-20.808-34.677l-8.117-0.453l-0.674,12.123   c-0.763,13.705-0.579,16.146,2.112,17.146l8.274,3.313l-0.082,1.475c-4.507-0.671-11.549-1.487-15.237-1.692   c-5.375-0.299-11.515-0.217-16.598-0.078L485.556,160.25z M426.433,117.511c-1.383-9.828-1.803-10.516-4.205-10.924l-9.195-1.689   l-0.208-1.466c8.739-0.801,16.742-1.505,24.689-2.623c9.934-1.4,19.7-3.205,28.841-4.918c0.262,2.628,0.584,6.42,0.806,7.989   c0.219,1.568,0.931,5.095,1.374,7.482l-1.463,0.206l-3.825-7.457c-1.457-2.779-2.296-2.661-14.317-0.969   c-6.062,0.855-10.855,1.638-14.711,2.289c0.307,3.688,0.54,7.6,1.157,11.993l1.814,12.856l10.872-1.532   c12.648-1.779,13.768-2.152,14.387-4.586l1.668-7.805l1.466-0.206c0.458,3.988,0.91,7.975,1.454,11.843   c0.603,4.287,1.27,8.244,1.994,12.62l-1.461,0.205l-3.842-7.56c-1.266-2.168-2.443-2.215-15.095-0.434l-10.872,1.534l2.003,14.221   c0.679,4.808,1.671,9.571,2.498,13.933c4.928-0.589,9.889-0.968,14.591-1.628c11.185-1.579,12.743-1.904,13.607-3.304   c1.035-1.747,1.714-5.256,2.725-11.688l1.463-0.207c0.219,3.062,0.243,6.257,0.669,9.288l1.12,7.95   c-5.493,0.346-21.651,2.196-27.51,3.024c-9.201,1.296-19.174,3.127-26.645,4.604l-0.205-1.463l7.668-3.851   c2.793-1.355,3.153-1.832,2.018-9.879L426.433,117.511z M333.203,129.402c4.721-1.216,9.541-2.465,14.124-4.079   c4.181-1.476,8.322-3.382,12.363-5.255l0.49,1.395l-3.134,2.224c-4.125,2.908-4.843,3.724-4.457,4.82   c0.735,2.09,24.395,28.568,32.794,37.474c0.95-16.678,1.475-32.984,1.065-45.268c-0.033-1.999-0.021-3.236-0.408-4.332   c-0.387-1.093-3.858-1.103-8.729-0.952l-0.493-1.397c3.924-0.931,7.846-1.867,11.633-3.201c3.085-1.088,5.934-2.54,8.779-3.989   l0.493,1.393c-3.894,2.604-4.905,4.192-5.303,8.138c-1.468,15.854-2.423,38.243-2.812,66.366l-2.293,0.806   c-12.856-15.842-31.854-37.354-43.218-49.588c-2.89-3.121-3.693-3.172-7.263-3.146l-3.142-0.012L333.203,129.402z M324.931,209.687   l5.838-6.286c1.869-2.09,1.947-2.614-1.831-9.811c-2.925-5.621-5.805-11.385-8.824-16.957c-3.017-5.569-6.269-11.133-9.377-16.653   c-4.914-8.628-5.359-9.227-7.473-8.92l-9.208,1.624l-0.703-1.301c4.657-2.039,9.406-4.134,14.607-6.95   c4.64-2.512,8.989-5.35,13.429-8.232l0.702,1.296l-6.389,6.825c-1.412,1.605-1.153,2.308,3.389,11.133   c2.925,5.621,5.807,11.385,8.824,16.954c3.017,5.572,6.269,11.134,9.377,16.655c3.964,7.096,4.444,7.317,7.219,6.896l8.456-1.459   l0.703,1.3c-4.563,1.992-10.15,4.537-14.235,6.748c-4.643,2.517-9.828,5.804-13.801,8.439L324.931,209.687z M281.9,159.255   l-4.035,6.34c-1.315,2.09-1.501,3.573-0.422,5.138c4.999,6.95,15.795,22.226,19.552,27.064   c2.654,3.417,10.101,13.007,17.652,22.384l-2.005,1.553c-11.487-3.778-23.134-6.896-34.764-10.167l-34.606-9.615l-0.165,0.129   l7.252,9.34c8.548,11.006,21.475,27.303,22.952,28.693c1.289,1.141,2.39,1.355,5.392,0.229l6.863-2.524l0.908,1.167   c-3.927,2.518-7.94,5.095-11.607,7.947c-3.585,2.783-6.83,5.84-10.158,8.955l-0.905-1.167l4.459-7.341   c0.843-1.322,1.011-2.656,0.509-3.472c-1.737-2.93-10.805-15.806-19.092-26.48l-12.823-16.509l-2.38-0.827   c-3.49,0.841-6.787,1.93-10.103,3.169l-0.907-1.167c2.929-1.737,5.854-3.479,8.522-5.55c2.503-1.942,4.744-4.218,6.988-6.495   c3.851,1.687,7.673,2.995,11.748,4.107l48.207,13.362l0.038-0.296l-15.672-20.181c-3.106-4.004-6.366-8.025-9.788-11.916   c-1.979-2.206-3.165-2.352-6.363-1.475l-7.251,2.024l-0.908-1.171c3.679-2.319,7.44-4.706,10.86-7.362   c3.752-2.911,7.244-6.161,10.822-9.471L281.9,159.255z M211.809,215.463l-1.574,4.723c-0.851,2.856-1.061,4.605,0.584,6.094   c4.421,3.927,11.236,9.276,25.599,21.399c15.663,13.198,15.144,25.776,5.13,37.908c-9.742,11.807-21.661,15.797-34.121,5.517   l-22.881-18.882c-6.844-5.645-8.673-6.745-11.449-5.204l-7.12,3.983l-1.141-0.941c3.62-3.721,7.103-7.28,10.262-11.107   c3.561-4.317,6.728-8.821,9.963-13.402l1.142,0.938l-1.705,4.888c-1.984,5.89-2.199,6.813,0.519,9.326   c4.601,4.212,11.604,9.988,24.149,20.338c10.421,8.6,19.212,11.883,29.893-1.065c7.061-8.552,5.998-18.052-3.775-26.115   c-10.016-8.265-23.032-18.865-29.19-22.851c-1.598-1.046-3.257-0.365-5.807,1.23l-5.079,3.337l-1.141-0.943   c3.217-3.233,6.432-6.467,9.387-10.046c2.557-3.094,4.852-6.54,7.214-10.068L211.809,215.463z M869.695,389.833l-0.489-1.395   l11.651-7.914c0.641-3.585-0.415-8.475-1.292-10.963c-2.809-7.966-8.955-13.971-18.218-10.707   c-14.14,4.984-1.956,35.73-20.678,42.329c-12.048,4.249-21.852-4.836-25.646-15.59c-1.476-4.181-2.423-11.006-2.008-15.859   l13.853-4.211l0.387,1.096l-9.687,7.779c-0.1,3.842,0.462,7.339,1.655,10.726c2.21,6.271,9.125,10.327,15.799,7.975   c15.635-5.512,0.665-35.272,21.276-42.541c8.659-3.054,20.899-0.092,27.814,19.523c1.683,4.782,2.597,9.274,2.413,15.722   L869.695,389.833z M897.655,435.584l-4.284-7.434c-1.446-2.404-1.928-2.63-9.921-1.138c-6.232,1.136-12.591,2.189-18.798,3.431   c-6.212,1.245-12.49,2.713-18.684,4.056c-9.687,2.154-10.389,2.399-10.725,4.511l-1.159,9.276l-1.451,0.29   c-0.574-5.048-1.179-10.207-2.333-16.004c-1.037-5.178-2.465-10.167-3.912-15.262l1.447-0.29l4.638,8.119   c1.117,1.821,1.866,1.782,11.638,0.042c6.231-1.136,12.59-2.191,18.802-3.434c6.207-1.24,12.485-2.708,18.679-4.054   c7.952-1.697,8.301-2.091,8.716-4.867l1.099-8.51l1.446-0.29c0.561,4.951,1.349,11.038,2.259,15.594   c1.036,5.175,2.648,11.098,3.991,15.677L897.655,435.584z M885.42,496.783l-0.085-1.476l13.396-4.36   c1.612-3.266,1.961-8.255,1.806-10.893c-0.476-8.432-4.71-15.91-14.514-15.347c-14.97,0.853-11.821,33.772-31.641,34.908   c-12.75,0.731-19.642-10.723-20.297-22.106c-0.249-4.428,0.731-11.253,2.484-15.794l14.48-0.193l0.061,1.162l-11.464,4.777   c-1.168,3.662-1.602,7.176-1.395,10.76c0.377,6.642,5.893,12.458,12.958,12.057c16.544-0.947,10.444-33.699,32.269-34.946   c9.167-0.523,20.098,5.727,21.29,26.49c0.282,5.063-0.09,9.63-2.065,15.771L885.42,496.783z M839.804,510.73l1.531,7.357   c0.514,2.414,1.409,3.61,3.275,3.979c8.429,1.503,26.815,4.935,32.882,5.788c4.283,0.599,16.308,2.286,28.257,3.751l-0.354,2.508   c-10.869,5.303-21.395,11.176-32.014,16.94l-31.52,17.218l-0.033,0.208l11.714,1.641c13.801,1.941,34.427,4.624,36.459,4.586   c1.715-0.076,2.652-0.692,4.021-3.592l3.162-6.594l1.466,0.202c-1.064,4.544-2.145,9.191-2.791,13.791   c-0.626,4.497-0.829,8.946-1.037,13.5l-1.465-0.202l-1.914-8.377c-0.32-1.536-1.131-2.61-2.055-2.842   c-3.29-0.89-18.764-3.809-32.146-5.688L836.536,572l-2.281,1.065c-1.918,3.036-3.521,6.118-5.038,9.318l-1.466-0.207   c0.891-3.285,1.776-6.57,2.248-9.922c0.443-3.134,0.462-6.33,0.485-9.525c3.936-1.472,7.593-3.196,11.288-5.241l43.888-24.011   l-0.185-0.241l-25.301-3.549c-5.021-0.707-10.157-1.314-15.323-1.726c-2.956-0.202-3.913,0.519-5.591,3.375l-3.79,6.5l-1.465-0.198   c1.018-4.232,2.05-8.563,2.652-12.854c0.666-4.703,0.905-9.469,1.16-14.333L839.804,510.73z M824.318,637.424   c-9.326-3.399-10.129-3.356-11.617-1.429l-5.813,7.324l-1.391-0.504c3.394-8.094,6.537-15.484,9.286-23.025   c3.431-9.428,6.434-18.892,9.219-27.767c2.442,1.004,5.944,2.502,7.429,3.044c1.49,0.543,4.936,1.57,7.249,2.306l-0.504,1.386   l-8.381-0.128c-3.135-0.023-3.426,0.77-7.583,12.181c-2.094,5.754-3.663,10.351-4.898,14.06c3.399,1.462,6.963,3.097,11.134,4.614   l12.198,4.45l3.756-10.318c4.375-12.005,4.572-13.169,2.716-14.857l-6.099-5.146l0.504-1.385c3.733,1.47,7.467,2.945,11.139,4.278   c4.066,1.485,7.87,2.759,12.075,4.177l-0.509,1.391l-8.48-0.169c-2.508,0.093-3.101,1.116-7.475,13.121l-3.757,10.313l13.494,4.916   c4.558,1.664,9.234,3.025,13.467,4.346c1.8-4.624,3.794-9.177,5.42-13.641c3.87-10.619,4.313-12.143,3.488-13.564   c-1.056-1.735-3.832-3.984-9.036-7.901l0.505-1.39c2.805,1.249,5.638,2.729,8.512,3.775l7.542,2.748   c-2.277,5.016-8.239,20.146-10.266,25.702c-3.177,8.729-6.25,18.396-8.456,25.684l-1.39-0.505l0.201-8.578   c0.119-3.105-0.132-3.643-7.767-6.425L824.318,637.424z M806.145,647.506l-1.598,7.338c-0.519,2.418-0.18,3.875,1.376,4.974   c7.084,4.797,22.482,15.417,27.677,18.66c3.672,2.296,13.971,8.729,24.289,14.927l-1.344,2.146   c-12.085,0.419-24.091,1.508-36.133,2.446l-35.804,2.907l-0.113,0.175l10.03,6.27c11.821,7.386,29.567,18.227,31.438,19.023   c1.603,0.621,2.711,0.442,5.138-1.65l5.571-4.732l1.254,0.783c-2.818,3.714-5.693,7.522-8.153,11.462   c-2.409,3.847-4.402,7.835-6.449,11.907l-1.254-0.783l1.655-8.428c0.339-1.536,0.038-2.842-0.717-3.436   c-2.64-2.149-15.587-11.109-27.05-18.274l-17.726-11.076l-2.522,0.047c-2.982,1.994-5.702,4.152-8.39,6.457l-1.254-0.781   c2.15-2.645,4.295-5.284,6.091-8.15c1.673-2.682,2.998-5.595,4.313-8.508c4.199,0.26,8.236,0.17,12.441-0.188l49.863-4.081   l-0.07-0.293l-21.668-13.537c-4.295-2.687-8.744-5.336-13.297-7.81c-2.616-1.392-3.785-1.117-6.481,0.806l-6.108,4.402   l-1.254-0.783c2.654-3.454,5.359-6.984,7.654-10.656c2.518-4.03,4.677-8.281,6.892-12.628L806.145,647.506z M764.965,711.613   l-1.993,4.558c-1.113,2.767-1.476,4.486,0.028,6.128c4.049,4.303,10.346,10.252,23.546,23.628   c14.399,14.569,12.74,27.046,1.669,38.217c-10.772,10.879-23.005,13.769-34.478,2.398l-21.073-20.88   c-6.302-6.245-8.023-7.509-10.931-6.227l-7.452,3.322l-1.052-1.041c3.946-3.38,7.735-6.604,11.233-10.129   c3.935-3.979,7.499-8.174,11.137-12.444l1.052,1.037l-2.146,4.714c-2.511,5.688-2.804,6.584-0.329,9.338   c4.204,4.609,10.652,11.001,22.2,22.444c9.602,9.508,18.053,13.575,29.867,1.655c7.805-7.877,7.611-17.431-1.386-26.354   c-9.222-9.135-21.223-20.875-26.991-25.404c-1.5-1.189-3.215-0.656-5.897,0.697l-5.358,2.86l-1.051-1.037   c3.492-2.927,6.989-5.858,10.26-9.158c2.823-2.852,5.421-6.07,8.094-9.37L764.965,711.613z M688.607,814.56l6.019-3.908   c8.239-5.349,14.989-11.623,8.669-21.361c-5.059-7.791-12.646-7.649-20.976-2.243c-2.828,1.834-5.43,3.648-8.083,5.374   L688.607,814.56z M690.832,855.411l5.321-6.731c1.961-2.408,2.088-2.988-2.337-9.809l-20.815-32.061   c-5.402-8.324-6.066-8.771-8.419-8.126l-9.049,2.348l-0.807-1.235c3.508-1.777,7.9-4.12,12.68-7.226   c4.609-2.993,9.195-6.977,15.484-11.058c11.688-7.589,22.406-7.749,28.157,1.106c5.808,8.946,2.187,17.337-5.095,23.949   l24.062,10.314c10.139,4.364,10.983,4.703,16.516,2.365l0.807,1.239c-2.154,1.146-4.393,2.353-6.43,3.668   c-2.126,1.386-4.223,2.998-6.325,4.614c-11.873-5.887-27.116-12.104-37.26-15.716l-6.82,4.422l6.613,10.186   c7.47,11.516,9.063,13.383,11.821,12.59l8.635-2.201l0.806,1.24c-4.034,2.115-10.199,5.613-13.301,7.626   c-4.516,2.933-9.423,6.618-13.443,9.733L690.832,855.411z M628.256,868.585c1.184,3.055,2.418,5.972,3.794,8.95   c2.697-0.928,5.139-1.645,7.604-2.592c9.55-3.686,18.467-9.615,13.985-21.238c-4.144-10.737-14.575-10.79-25.608-6.533l-6.99,2.701   L628.256,868.585z M619.786,846.62l7.584-2.927c6.5-2.508,16.129-7.471,11.803-18.698c-3.729-9.653-11.953-10.44-20.325-7.212   c-3.153,1.217-5.222,2.018-8.493,3.502c1.551,4.605,2.555,7.504,4.261,11.935L619.786,846.62z M606.152,835.921   c-3.57-9.258-4.134-9.837-6.564-9.687l-9.341,0.429l-0.532-1.376c5.57-1.696,10.746-3.242,14.687-4.761   c3.94-1.521,11.124-5.194,16.737-7.362c10.539-4.063,22.964-3.535,27.526,8.282c3.153,8.177-3.851,16.421-12.769,20.885   l0.075,0.193c10.017-3.068,22.752-3.799,27.234,7.829c3.497,9.063-0.631,19.48-14.813,24.952   c-7.49,2.886-15.479,5.063-21.584,7.415c-4.629,1.791-8.418,3.705-12.697,5.807l-0.533-1.381l6.6-5.481   c2.413-1.952,2.658-2.498-0.27-10.087L606.152,835.921z M526.288,848.006l-9.803,28.879l23.677-1.956L526.288,848.006z    M496.034,903.789c2.449-1.159,5.298-2.559,7.712-4.133c7.374-22.328,16.742-47.47,22.752-67.035l2.318-0.188   c10.223,21.19,21.502,42.293,32.203,62.919l9.092,2.319l0.122,1.476c-5.611,0.038-11.117,0.07-16.695,0.527   c-4.731,0.392-9.327,1.197-14.029,2.008l-0.125-1.475c2.581-0.845,6.995-2.589,10.047-4.11c-1.626-4.318-5.81-13.929-7.544-16.964   c-4.431,0.259-8.963,0.527-13.382,0.891c-4.421,0.367-8.729,0.825-13.136,1.296c-2.397,5.6-3.57,11.949-4.558,17.964l9.323,2.517   l0.12,1.47c-4.142-0.084-8.279-0.164-12.488,0.18c-3.894,0.325-7.749,1.065-11.609,1.811L496.034,903.789z M493.314,839.691   l-7.334,1.645c-2.406,0.548-3.584,1.467-3.926,3.338c-1.374,8.446-4.522,26.885-5.279,32.961   c-0.538,4.298-2.039,16.347-3.321,28.318l-2.515-0.315c-5.463-10.79-11.5-21.226-17.426-31.75l-17.701-31.26l-0.212-0.023   l-1.458,11.736c-1.727,13.825-4.091,34.493-4.025,36.524c0.105,1.716,0.732,2.645,3.655,3.964l6.642,3.064l-0.184,1.466   c-4.556-0.995-9.22-1.999-13.832-2.579c-4.504-0.561-8.956-0.688-13.516-0.829l0.182-1.466l8.345-2.046   c1.532-0.339,2.59-1.169,2.816-2.097c0.837-3.301,3.514-18.821,5.188-32.23L432,837.367l-1.098-2.267   c-3.069-1.871-6.17-3.427-9.395-4.893l0.184-1.467c3.3,0.836,6.601,1.674,9.955,2.093c3.145,0.392,6.335,0.363,9.533,0.336   c1.532,3.916,3.311,7.541,5.411,11.208l24.682,43.51l0.239-0.184l3.162-25.354c0.627-5.03,1.162-10.176,1.487-15.348   c0.156-2.96-0.578-3.902-3.458-5.542l-6.563-3.686l0.183-1.467c4.245,0.952,8.591,1.919,12.887,2.456   c4.714,0.589,9.481,0.759,14.353,0.938L493.314,839.691z M382.525,828.963l-20.642,22.451l22.438,7.787L382.525,828.963z    M332.298,867.746c2.706-0.066,5.875-0.193,8.722-0.66c15.771-17.439,34.508-36.638,47.919-52.102l2.194,0.763   c0.78,23.516,2.557,47.375,4.009,70.569l7.372,5.803l-0.483,1.396c-5.149-2.239-10.198-4.431-15.484-6.27   c-4.49-1.556-9.017-2.683-13.641-3.841l0.483-1.396c2.703,0.269,7.44,0.457,10.85,0.302c0.257-4.61,0.316-15.093-0.04-18.566   c-4.158-1.551-8.409-3.145-12.599-4.596c-4.188-1.456-8.313-2.771-12.538-4.129c-4.457,4.157-8.093,9.483-11.43,14.588l7.501,6.066   l-0.48,1.396c-3.755-1.749-7.504-3.498-11.494-4.879c-3.69-1.282-7.52-2.168-11.35-3.05L332.298,867.746z M297.603,848.279   l8.473,1.367c2.776,0.396,3.254,0.17,7.143-6.972c3.052-5.552,6.243-11.146,9.203-16.752c2.955-5.604,5.776-11.392,8.64-17.048   c4.449-8.875,4.699-9.577,3.268-11.166l-6.464-6.76l0.695-1.306c4.282,2.739,8.661,5.529,13.888,8.291   c4.668,2.465,9.441,4.507,14.306,6.6l-0.688,1.306l-9.227-1.527c-2.116-0.283-2.555,0.32-7.374,9.003   c-3.054,5.548-6.246,11.147-9.203,16.751c-2.958,5.6-5.779,11.393-8.64,17.044c-3.705,7.24-3.62,7.763-1.73,9.832l5.906,6.227   l-0.69,1.306c-4.19-2.691-9.408-5.92-13.513-8.088c-4.671-2.471-10.28-4.954-14.683-6.797L297.603,848.279z M261.222,824.179   c5.725,2.245,7.551,2.979,8.003,2.391c0.514-0.669,0.224-1.688,0.113-3.098l-3.584-39.145l30.013-2.583   c5.133-0.462,8.16-0.942,8.8-1.782c0.705-0.918-1.258-3.219-3.823-7.169l0.898-1.173c3.349,3.092,6.785,6.249,10.394,9.003   c3.105,2.37,6.464,4.407,9.825,6.442l-0.896,1.174c-2.715-1.146-7.03-2.975-12.476-2.621l-33.157,2.174l4.607,45.107   c0.121,0.887,0.542,2.937,0.733,3.215c0.518,1.06,2.073,3.714,3.792,5.821l-0.9,1.173c-3.771-3.412-7.712-6.952-11.819-10.096   c-3.695-2.819-7.556-5.241-11.42-7.659L261.222,824.179z M226.571,797.709l8.126,2.752c2.674,0.844,3.184,0.703,8.199-5.693   c3.931-4.969,8.013-9.96,11.856-14.994c3.846-5.033,7.589-10.279,11.353-15.374c5.854-8.019,6.219-8.669,5.072-10.475l-5.251-7.729   l0.898-1.178c3.771,3.416,7.624,6.891,12.324,10.478c4.197,3.205,8.562,6.01,13.011,8.88l-0.894,1.179l-8.844-3.036   c-2.043-0.631-2.576-0.108-8.768,7.65c-3.928,4.968-8.008,9.959-11.854,14.993c-3.844,5.029-7.586,10.28-11.348,15.376   c-4.853,6.523-4.857,7.051-3.337,9.407l4.795,7.118l-0.897,1.173c-3.691-3.347-8.296-7.399-11.989-10.219   c-4.193-3.205-9.319-6.585-13.351-9.139L226.571,797.709z M184.204,750.447l4.289,2.715c4.646,2.965,6.271,3.237,9.312,0.622   l12.399-10.681c7.664-19.415,11.399-29.322,14.624-40.456c-0.142-2.107-1.155-4.582-1.902-6.584l1.118-0.962   c2.644,3.714,5.286,7.434,8.316,10.954c3.102,3.597,6.453,6.839,9.875,10.167l-1.12,0.962c-5.119-3.672-7.146-4.572-8.908-3.06   c-1.841,1.583-11.732,26.824-12.767,30.642c9.224-2.229,31.005-7.192,33.006-8.912c1.282-1.108-1.008-5.544-2.583-8.509   l1.119-0.961c2.09,3.078,4.25,6.231,6.663,9.03c2.204,2.561,4.662,4.761,7.115,6.972l-1.12,0.961   c-3.431-3.177-7.301-2.492-13.322-1.064l-34.486,7.684l-12.241,10.539c-3.04,2.615-3.015,4.266-0.769,9.299l2.05,4.648   l-1.122,0.961c-2.713-3.794-6.387-8.715-9.554-12.392c-3.448-4.002-7.761-8.366-11.112-11.608L184.204,750.447z M175.5,672.967   l3.613,6.204c4.942,8.483,10.88,15.53,20.914,9.686c8.031-4.676,8.253-12.265,3.257-20.839c-1.699-2.917-3.387-5.599-4.982-8.338   L175.5,672.967z M134.588,673.221l6.464,5.643c2.31,2.079,2.887,2.226,9.911-1.866l33.022-19.24   c8.576-4.996,9.057-5.643,8.527-8.022l-1.914-9.148l1.277-0.745c1.605,3.588,3.735,8.089,6.608,13.014   c2.765,4.742,6.521,9.517,10.296,15.998c7.016,12.038,6.663,22.756-2.462,28.073c-9.212,5.363-17.418,1.348-23.678-6.246   l-11.456,23.54c-4.853,9.912-5.228,10.742-3.16,16.384l-1.278,0.744c-1.044-2.206-2.135-4.501-3.355-6.604   c-1.277-2.188-2.788-4.359-4.299-6.537c6.45-11.581,13.396-26.5,17.489-36.464l-4.094-7.022l-10.49,6.113   c-11.861,6.914-13.796,8.408-13.146,11.204l1.789,8.733l-1.277,0.745c-1.92-4.139-5.116-10.459-6.976-13.65   c-2.712-4.656-6.16-9.732-9.076-13.905L134.588,673.221z M167.398,609.146l-30.393-2.53l7.612,22.502L167.398,609.146z    M105.961,593.268c1.711,2.098,3.759,4.521,5.871,6.486c23.447,1.763,50.104,4.779,70.544,5.886l0.745,2.202   c-18.097,15.04-35.853,31.08-53.278,46.451l-0.059,9.38l-1.4,0.471c-1.393-5.43-2.753-10.771-4.546-16.068   c-1.523-4.501-3.411-8.767-5.336-13.131l1.402-0.472c1.443,2.295,4.2,6.156,6.417,8.748c3.794-2.615,12.109-9.003,14.635-11.416   c-1.32-4.237-2.674-8.569-4.096-12.769c-1.421-4.2-2.908-8.268-4.431-12.434c-6.012-0.972-12.455-0.581-18.528-0.086l-0.193,9.653   l-1.4,0.472c-0.917-4.034-1.836-8.069-3.191-12.071c-1.251-3.7-2.906-7.264-4.558-10.831L105.961,593.268z M115.34,536.027   l0.215,1.466l-12.955,5.524c-1.317,3.393-1.223,8.395-0.841,11.01c1.226,8.357,6.106,15.433,15.818,14.01   c14.833-2.179,8.786-34.691,28.427-37.571c12.641-1.853,20.518,8.945,22.174,20.225c0.644,4.389,0.267,11.274-1.077,15.951   l-14.404,1.47l-0.167-1.149l11.001-5.773c0.834-3.748,0.955-7.288,0.434-10.837c-0.961-6.584-6.971-11.892-13.97-10.869   c-16.401,2.408-7.426,34.493-29.049,37.66c-9.09,1.338-20.532-3.922-23.551-24.505c-0.733-5.011-0.766-9.597,0.66-15.89   L115.34,536.027z M150.067,485.542l-27.581-13.026l-0.754,23.744L150.067,485.542z M98.087,449.135   c0.87,2.564,1.938,5.557,3.229,8.133c21.343,9.868,45.252,22.036,64.007,30.239l-0.076,2.319   c-22.217,7.749-44.467,16.549-66.174,24.835l-3.344,8.768l-1.478-0.048c0.601-5.575,1.195-11.053,1.376-16.643   c0.151-4.756-0.125-9.409-0.396-14.169l1.475,0.047c0.552,2.654,1.777,7.24,2.943,10.445c4.471-1.127,14.501-4.186,17.711-5.563   c0.247-4.43,0.498-8.965,0.641-13.397c0.139-4.433,0.172-8.765,0.205-13.198c-5.291-3.021-11.461-4.909-17.325-6.57l-3.561,8.972   l-1.478-0.049c0.551-4.104,1.105-8.206,1.239-12.424c0.125-3.908-0.174-7.822-0.474-11.742L98.087,449.135z M124.014,345.295   l0.453,5.927c0.339,3.926,0.735,4.473,3.954,5.905c15.18,6.917,40.611,16.771,48.146,18.842c1.831,0.505,3.146,0.104,4.391-1.635   l3.735-5.215l1.426,0.394c-2.199,6.401-4.386,13.139-6.167,19.217c-17.72,1.911-35.431,4.589-53.172,7.37   c13.363,12.333,27.411,23.755,41.542,34.877c-1.553,6.033-3.102,12.834-4.57,19.765l-1.425-0.391l-0.496-4.957   c-0.48-4.621-0.867-5.604-2.698-6.108c-7.021-1.935-45.412-7.685-52.133-8.331c-3.297-0.361-4.346,0.665-5.731,2.911l-3.04,5.078   l-1.423-0.393c1.694-4.572,3.422-9.243,4.739-14.027c1.315-4.784,2.196-9.578,3.08-14.372l1.426,0.392l0.356,5.463   c0.167,3.769,1.313,5.18,2.229,5.432c5.091,1.4,45.086,7.269,50.271,7.928l0.055-0.2c-16.769-14.258-32.146-26.812-48.676-39.579   l0.363-1.322c21.333-1.902,42.213-5.35,63.11-8.468l0.057-0.205c-13.07-5.022-41.245-14.859-48.065-16.737   c-2.338-0.646-3.611-0.009-5.31,2.59l-3.292,4.786l-1.423-0.391c1.612-4.266,3.198-8.427,4.402-12.806   c1.091-3.969,1.779-8.051,2.465-12.133L124.014,345.295z M442.24,715.766V525.318c0.139,0.825,2.722,12.109,39.093,152.099   c1.732,6.65,7.341,13.942,18.34,13.942c11.359,0,16.348-6.344,18.319-13.942c11.194-43.232,38.785-151.519,38.785-151.519   l0.027,189.867c-17.567,5.91-36.911,9.139-57.278,9.139C479.156,724.904,459.816,721.676,442.24,715.766 M680.877,268.393   c-18.642,0-33.762,14.923-33.762,33.327v301.47c0,27.286-10.168,51.971-27.508,71.865V301.144c0-16.104-11.996-29.756-28.146-32.04   c-16.142-2.284-32.193,7.073-36.112,22.961c-55.306,223.972-55.737,225.72-55.741,225.735c-0.005-0.015-0.437-1.763-55.914-225.761   c-3.929-15.858-19.978-25.222-36.119-22.936c-16.146,2.288-28.13,15.943-28.13,32.04v373.911   c-17.343-19.895-27.512-44.579-27.512-71.865v-301.47c0-18.403-15.117-33.327-33.758-33.327c-18.644,0-32.37,14.923-32.37,33.327   v301.47c0,106,94.342,180.152,213.722,180.152c119.374,0,213.717-74.152,213.717-180.152v-301.47   C713.244,283.316,699.514,268.393,680.877,268.393" /></g></svg>