<?xml version="1.0" encoding="utf-8"?>
<!-- Generator: Adobe Illustrator 16.0.0, SVG Export Plug-In . SVG Version: 6.00 Build 0)  -->
<!DOCTYPE svg PUBLIC "-//W3C//DTD SVG 1.1//EN" "http://www.w3.org/Graphics/SVG/1.1/DTD/svg11.dtd">
<svg version="1.1" id="Layer_1" xmlns="http://www.w3.org/2000/svg" xmlns:xlink="http://www.w3.org/1999/xlink" x="0px" y="0px"
	 width="1000px" height="1000px" viewBox="0 0 1000 1000" enable-background="new 0 0 1000 1000" xml:space="preserve">
<g>
	<path fill="#FAAC40" d="M974.721,825.317c0,82.5-67.5,150-150,150H175.279c-82.5,0-150-67.5-150-150V174.683
		c0-82.5,67.5-150,150-150h649.441c82.5,0,150,67.5,150,150V825.317z"/>
</g>
<path id="YouTube_2_" fill="#2C3E50" d="M736.056,689.563h-44.964l0.213-26.107c0-11.605,9.525-21.097,21.185-21.097h2.861
	c11.677,0,21.221,9.491,21.221,21.097L736.056,689.563z M567.465,633.614c-11.41,0-20.74,7.66-20.74,17.044v126.968
	c0,9.366,9.33,17.009,20.74,17.009c11.445,0,20.775-7.643,20.775-17.009V650.658C588.24,641.274,578.91,633.614,567.465,633.614z
	 M841.234,562.596v241.538c0,57.938-50.243,105.348-111.648,105.348H270.431c-61.44,0-111.666-47.409-111.666-105.348V562.596
	c0-57.939,50.226-105.357,111.666-105.357h459.155C790.991,457.239,841.234,504.656,841.234,562.596z M301.053,830.357
	l-0.035-254.434l56.926,0.019v-37.696l-151.725-0.23v37.064l47.364,0.133v255.145H301.053z M471.67,613.824h-47.453v135.863
	c0,19.656,1.191,29.484-0.071,32.95c-3.856,10.54-21.203,21.718-27.956,1.138c-1.155-3.6-0.142-14.476-0.16-33.146l-0.195-136.805
	h-47.187l0.142,134.646c0.036,20.633-0.462,36.033,0.16,43.027c1.155,12.352,0.747,26.756,12.21,34.967
	c21.345,15.392,62.257-2.293,72.494-24.277l-0.088,28.055l38.104,0.044V613.824z M623.484,769.415l-0.107-113.087
	c-0.035-43.1-32.275-68.914-76.049-34.044l0.195-84.073l-47.417,0.071l-0.231,290.183l38.975-0.578l3.555-18.074
	C592.24,855.541,623.555,824.227,623.484,769.415z M771.992,754.424l-35.581,0.187c-0.018,1.413-0.071,3.039-0.089,4.816v19.853
	c0,10.619-8.779,19.273-19.443,19.273h-6.967c-10.682,0-19.443-8.654-19.443-19.273v-2.204v-21.843v-28.178h81.471v-30.668
	c0-22.41-0.569-44.813-2.418-57.627c-5.829-40.531-62.719-46.965-91.457-26.215c-9.029,6.479-15.907,15.151-19.924,26.811
	c-4.053,11.658-6.043,27.582-6.043,47.809v67.42C652.098,866.676,788.236,850.832,771.992,754.424z M589.484,388.37
	c2.436,5.954,6.238,10.77,11.41,14.414c5.084,3.581,11.623,5.385,19.408,5.385c6.842,0,12.902-1.848,18.182-5.661
	c5.26-3.794,9.703-9.464,13.312-17.026l-0.889,18.617h52.892V179.15h-41.642v175.078c0,9.482-7.819,17.24-17.364,17.24
	c-9.49,0-17.328-7.758-17.328-17.24V179.15h-43.453v151.725c0,19.328,0.337,32.213,0.906,38.744
	C585.557,376.107,587.032,382.336,589.484,388.37z M429.176,261.313c0-21.594,1.813-38.451,5.385-50.608
	c3.59-12.112,10.077-21.851,19.443-29.191c9.348-7.375,21.309-11.072,35.865-11.072c12.229,0,22.714,2.399,31.476,7.109
	c8.798,4.728,15.587,10.877,20.296,18.457c4.799,7.606,8.051,15.427,9.793,23.424c1.777,8.104,2.648,20.341,2.648,36.834v56.89
	c0,20.865-0.836,36.221-2.453,45.96c-1.6,9.775-5.064,18.839-10.414,27.334c-5.279,8.407-12.104,14.698-20.367,18.706
	c-8.354,4.052-17.897,6.034-28.704,6.034c-12.05,0-22.215-1.662-30.586-5.145c-8.389-3.457-14.876-8.673-19.497-15.596
	c-4.674-6.931-7.962-15.382-9.935-25.228c-1.99-9.837-2.95-24.633-2.95-44.352V261.313z M470.604,350.674
	c0,12.743,9.49,23.14,21.025,23.14c11.553,0,20.989-10.397,20.989-23.14V230.922c0-12.726-9.437-23.123-20.989-23.123
	c-11.535,0-21.025,10.397-21.025,23.123V350.674z M324.21,411.146h49.906l0.053-172.528l58.97-147.797h-54.58l-31.351,109.782
	L315.413,90.519h-54.011l62.737,148.179L324.21,411.146z"/>
</svg>
