<?xml version="1.0" encoding="UTF-8" standalone="no"?>
<!-- Generator: Adobe Illustrator 16.0.0, SVG Export Plug-In . SVG Version: 6.00 Build 0)  -->

<svg
   xmlns:dc="http://purl.org/dc/elements/1.1/"
   xmlns:cc="http://creativecommons.org/ns#"
   xmlns:rdf="http://www.w3.org/1999/02/22-rdf-syntax-ns#"
   xmlns:svg="http://www.w3.org/2000/svg"
   xmlns="http://www.w3.org/2000/svg"
   xmlns:sodipodi="http://sodipodi.sourceforge.net/DTD/sodipodi-0.dtd"
   xmlns:inkscape="http://www.inkscape.org/namespaces/inkscape"
   version="1.1"
   id="Layer_1"
   x="0px"
   y="0px"
   width="1000px"
   height="1000px"
   viewBox="0 0 1000 1000"
   enable-background="new 0 0 1000 1000"
   xml:space="preserve"
   inkscape:version="0.91 r13725"
   sodipodi:docname="zverinec.svg"><metadata
     id="metadata13"><rdf:RDF><cc:Work
         rdf:about=""><dc:format>image/svg+xml</dc:format><dc:type
           rdf:resource="http://purl.org/dc/dcmitype/StillImage" /></cc:Work></rdf:RDF></metadata><defs
     id="defs11"><style
       id="style3466"
       type="text/css"><![CDATA[
    .str0 {stroke:black;stroke-width:0.196378}
    .fil1 {fill:black}
    .fil0 {fill:black}
    .fil3 {fill:white}
    .fil2 {fill:black;fill-rule:nonzero}
   ]]></style></defs><sodipodi:namedview
     pagecolor="#ffffff"
     bordercolor="#666666"
     borderopacity="1"
     objecttolerance="10"
     gridtolerance="10"
     guidetolerance="10"
     inkscape:pageopacity="0"
     inkscape:pageshadow="2"
     inkscape:window-width="1360"
     inkscape:window-height="750"
     id="namedview9"
     showgrid="false"
     inkscape:zoom="0.60925101"
     inkscape:cx="659.11328"
     inkscape:cy="587.18226"
     inkscape:window-x="1280"
     inkscape:window-y="256"
     inkscape:window-maximized="1"
     inkscape:current-layer="Layer_1" /><g
     id="g3"><path
       fill="#90B2CC"
       d="M974.721,825.317c0,82.5-67.5,150-150,150H175.279c-82.5,0-150-67.5-150-150V174.683   c0-82.5,67.5-150,150-150h649.441c82.5,0,150,67.5,150,150V825.317z"
       id="path5" /></g><g
     style="clip-rule:evenodd;fill:#2c3e50;fill-opacity:1;fill-rule:evenodd;image-rendering:optimizeQuality;shape-rendering:geometricPrecision;text-rendering:geometricPrecision"
     id="_221799480"
     transform="matrix(13.504711,0,0,13.504709,-137.03177,303.09134)"><path
       inkscape:connector-curvature="0"
       d="m 29.5387,0.823882 c 0.486344,-0.503339 1.29627,-0.109841 1.46571,0.494285 0.538889,1.43469 -0.0642,2.97469 -0.56301,4.33412 -0.0973,0.680718 0.360397,1.28804 0.705952,1.83516 0.899287,1.11541 2.48382,1.10056 3.78595,1.01596 0.668249,0.019371 1.51373,0.101826 1.86485,0.764286 0.257459,0.440478 -0.09255,0.987308 -0.536514,1.12684 -1.11778,0.407303 -2.32499,0.213967 -3.48278,0.338652 -0.454282,0.02649 -0.58238,0.522933 -0.678417,0.884443 -0.247142,1.00453 -0.561674,1.9908 -0.946192,2.95079 -0.202612,0.415318 0.234451,0.747068 0.51603,0.980406 0.828261,0.566498 1.75508,0.980703 2.71033,1.27935 1.41413,0.414056 2.88845,0.34882 4.34919,0.321211 0.0097,0.132255 0.01618,0.265994 0.0187,0.401588 -0.0056,0.548537 0.23126,0.793379 -0.376206,1.72072 -0.299168,0.457399 -1.3391,1.36849 -2.4286,2.34266 -0.151996,-0.04275 -0.302805,-0.09388 -0.452204,-0.155039 -2.20246,-0.894537 -3.91747,-2.59707 -5.81304,-3.97691 -1.77022,0.817054 -3.15801,2.36158 -5.06872,2.90047 -0.322473,0.100787 -0.808816,-0.03421 -0.809929,-0.434689 -0.03793,-0.759759 0.60279,-1.30896 1.0616,-1.83301 1.65459,-1.78136 3.83739,-3.23779 4.6773,-5.62453 0.368339,-1.20135 0.51603,-2.56523 0.01135,-3.7504 -0.462223,-1.05047 -1.55484,-1.62119 -2.59121,-1.96801 -1.65348,-0.465711 -3.42237,-0.065237 -4.96341,0.600638 -0.844366,0.408638 -1.80548,0.887857 -2.13826,1.83516 -0.273415,0.592696 -0.264435,1.38459 -0.876502,1.76198 -0.740166,0.337539 -1.64287,-0.01484 -2.09373,-0.66246 -0.558482,-0.791598 -0.863737,-1.80763 -0.677304,-2.77208 0.09841,-0.516105 0.510241,-1.11095 1.10747,-1.00564 0.624832,0.061749 1.15682,0.907228 1.80785,0.482633 0.747068,-1.0239 -0.439439,-2.38437 0.376354,-3.40136 0.392459,-0.600712 1.26547,-0.313492 1.53199,0.252709 0.339765,0.443892 0.231037,1.37769 0.971426,1.36841 0.869303,-0.077705 1.74818,-0.314531 2.51937,-0.726361 0.441517,-0.797461 0.102865,-1.81134 0.622383,-2.58809 0.303176,-0.642051 1.33739,-1.12572 1.85216,-0.462223 0.681015,1.05499 -0.642867,2.20936 -0.09017,3.28818 0.497476,0.478106 1.53651,0.428009 1.78373,-0.30659 0.625575,-1.13262 -0.194671,-2.66706 0.846518,-3.61325 z"
       class="fil0"
       id="path10"
       style="fill:#2c3e50;fill-opacity:1" /><path
       d="m 56.7032,9.92711 c 0.224877,-0.00126 0.45443,0.0098 0.68955,0.035698 2.01492,0.367151 4.54215,1.48849 6.67032,0.982113 0.238459,-0.194745 0.02835,-0.51937 -0.05781,-0.759017 0,-0.273861 0.241947,-0.51462 0.401365,-0.731853 1.61355,-0.630324 -0.306887,-0.636188 -0.986863,-1.54394 -0.983226,-0.723615 -2.14591,-1.64316 -2.28284,-2.93691 -0.344738,-0.747216 -0.992726,-1.45191 -0.72124,-2.26636 0,-0.437954 -0.934837,-2.34555 0.059,-1.84266 0.723615,0.203058 -0.01648,-1.2441 0.792043,-0.768442 1.14383,1.42237 1.57934,3.0325 3.63092,1.78484 0.30095,0 0.198308,0.858096 0.951313,0.655113 1.55106,-0.920735 0.347038,2.61934 1.05062,3.42556 1.55217,0.695264 -0.255009,1.8745 0.77193,2.62401 1.52746,0.448641 2.41272,-1.37042 3.48924,-1.98308 0.937212,-0.336351 0.220721,0.572509 0.921849,0.96675 1.52271,0.369526 -1.14019,1.94537 -1.60769,2.13188 -0.363515,0.112068 -2.10932,0.297461 -1.58995,1.09774 0.759017,0.347038 1.66788,0.585497 2.27935,1.16387 0.335238,0.126317 0.638637,-0.121567 1.01633,-0.03184 1.03993,0.553584 1.82136,0.346964 2.98404,0.376503 1.30429,0.233783 2.32655,1.1828 2.95688,2.31839 0.292712,1.05997 -0.454505,0.999776 -1.01395,1.5593 -0.917173,1.6632 -2.13893,0.223096 -3.42199,0.04015 -1.8414,0 -1.86381,0.299836 -2.76325,1.81898 -0.328187,0.302211 -0.499332,1.30199 -1.09425,1.0659 -0.456805,-0.462743 -0.938399,-0.908935 -1.41406,-1.38459 -0.964375,-0.609098 -2.8814,-0.420291 -3.58958,0.44968 -0.314012,0.249146 -0.734228,-0.04483 -1.0187,0.161793 -0.05663,0.45443 -0.762505,0.921849 -0.997401,1.34206 -0.232522,1.09188 -0.14643,1.31735 -0.947899,1.98196 -0.08735,0.152219 -0.140493,0.311637 -0.199495,0.476844 -0.359284,0.57058 -0.880436,0.966973 -1.31594,1.48887 -1.37212,-1.45421 -3.71411,-3.38949 -4.20521,-4.14004 -0.607317,-0.927341 -0.535995,-1.28277 -0.541487,-1.83108 0.04238,-2.28232 1.18242,-3.61385 1.18242,-5.66238 0,-0.555217 -0.0147,-1.31935 -0.07756,-2.0658307 z"
       class="fil1"
       id="_221776320"
       inkscape:connector-curvature="0"
       style="fill:#2c3e50;fill-opacity:1" /><g
       style="fill:#2c3e50;fill-opacity:1"
       id="g3473"><path
         d="m 47.5895,16.6069 c -0.215081,0.293454 -0.566869,0.293602 -0.782024,0 L 45.95413,15.44288 c -0.214932,-0.293454 -0.09322,-0.533397 0.270447,-0.533397 l 1.94782,0 c 0.363886,0 0.485379,0.240166 0.270372,0.533397 l -0.853272,1.16402 z"
         class="fil0"
         id="_221801232"
         inkscape:connector-curvature="0"
         style="fill:#2c3e50;fill-opacity:1" /><path
         d="m 50.7884,12.05 c 0,-0.408935 -0.331601,-0.740611 -0.740537,-0.740611 -0.40901,0 -0.740611,0.331676 -0.740611,0.740611 0,0.408935 0.331601,0.740611 0.740611,0.740611 0.408935,0 0.740537,-0.331676 0.740537,-0.740611 z"
         class="fil0"
         id="_221800896"
         inkscape:connector-curvature="0"
         style="fill:#2c3e50;fill-opacity:1" /><path
         d="m 45.1498,12.0501 c 0,-0.408935 -0.331527,-0.740462 -0.740462,-0.740462 -0.408861,0 -0.740314,0.331527 -0.740314,0.740462 0,0.408787 0.331453,0.740462 0.740314,0.740462 0.408935,0 0.740462,-0.331676 0.740462,-0.740462 z"
         class="fil0"
         id="_221801256"
         inkscape:connector-curvature="0"
         style="fill:#2c3e50;fill-opacity:1" /><path
         d="m 53.8713,10.5917 c -0.586833,0.215897 -1.17359,0.43172 -1.7602,0.647543 -0.238014,-0.780985 -1.03971,-1.30859 -1.85409,-1.35238 -0.804437,-0.043268 -1.44144,0.484117 -1.74031,1.16662 -0.335238,-0.289223 -0.79286,-0.370268 -1.25783,-0.37821 -0.01061,0 -0.01996,0.0017 -0.02998,0.0025 -0.01017,-8.16e-4 -0.01922,-0.0025 -0.03006,-0.0025 -0.463336,0.0079 -0.919399,0.08832 -1.25441,0.375167 -0.295087,-0.675152 -0.9312,-1.11979 -1.74365,-1.16357 -0.881326,-0.047499 -1.56279,0.589876 -1.81728,1.36596 -0.599079,-0.22035 -1.19808,-0.440774 -1.79701,-0.661125 -0.300727,-0.110657 -0.429493,0.368636 -0.131808,0.478328 0.609915,0.224358 1.21983,0.448716 1.82967,0.67337 -0.0018,0.02197 -0.0051,0.04371 -0.0064,0.0659 -0.05826,1.08602 0.922665,1.86886 1.92281,1.92266 1.05915,0.05707 1.82774,-0.874795 1.91524,-1.84867 0.0055,-0.02249 0.0088,-0.04676 0.0073,-0.074 0.0015,-0.02672 -0.0018,-0.05039 -0.007,-0.07288 -0.0032,-0.03763 -0.0091,-0.07422 -0.01395,-0.111177 0.232744,-0.396318 0.674038,-0.446786 1.09656,-0.453911 0.01076,-2.22e-4 0.02004,-0.0021 0.03006,-0.0036 0.01002,0.0016 0.0193,0.0034 0.02998,0.0036 0.421181,0.0071 0.860991,0.05707 1.09425,0.4502 -0.0052,0.0377 -0.0079,0.07578 -0.01121,0.113775 -0.0055,0.02256 -0.0088,0.04668 -0.0073,0.07392 -0.0017,0.02679 0.0017,0.05039 0.0069,0.07273 0.08891,1.04965 0.852159,1.79264 1.91547,1.84986 1.08602,0.05856 1.86893,-0.922442 1.92222,-1.92259 0.0016,-0.02308 -4.46e-4,-0.04549 -7.5e-5,-0.06835 0.607763,-0.223616 1.2159,-0.44738 1.82388,-0.670921 0.297461,-0.109544 0.169066,-0.588911 -0.131809,-0.478254 z m -11.0977,1.2176 c -0.04327,-0.807035 0.683019,-1.38645 1.42675,-1.42645 0.806961,-0.04334 1.38645,0.682944 1.42652,1.42645 -0.099,1.83858 -2.75426,1.83858 -2.85327,0 z m 7.48315,1.42652 c -0.807035,0.04356 -1.38637,-0.682796 -1.4266,-1.42652 0.099,-1.8385 2.75404,-1.83865 2.85297,0 0.04364,0.806961 -0.682499,1.38637 -1.42638,1.42652 z"
         class="fil0"
         id="_221800656"
         inkscape:connector-curvature="0"
         style="fill:#2c3e50;fill-opacity:1" /><path
         d="m 59.4634,24.8566 c -0.840358,-1.25998 -4.59922,-4.05833 -5.14494,-4.89216 -0.54594,-0.833679 -0.481816,-1.15318 -0.486715,-1.64606 0.038,-2.05158 1.30006,-4.17181 1.30006,-6.0132 0,-0.955988 -0.04817,-1.90663 -0.357206,-2.80933 -0.858913,-2.51009 -1.98931,-5.96571 -7.53643,-5.97305 -0.01299,0 -0.02568,3.711e-4 -0.03815,5.195e-4 -0.01247,-1.484e-4 -0.02516,-5.195e-4 -0.03807,-5.195e-4 -5.5469,0.0072 -6.67774,3.46289 -7.53673,5.97305 -0.308817,0.902701 -0.356983,1.85349 -0.356983,2.80933 0,1.8414 1.26243,3.96163 1.30013,6.0132 -0.0051,0.493023 0.05915,0.812379 -0.486789,1.64606 -0.545569,0.833827 -4.30458,3.63218 -5.14494,4.89216 -1.27453,1.91094 -1.00067,2.8529 0.422962,2.38748 0.520187,-0.170031 1.93758,-0.583271 1.93758,-0.583271 0,0 0.13552,1.17433 0.250853,2.50148 l 1.82255,0 c 0.390826,-6.67455 1.88162,-7.13344 2.28603,-10.1541 0,0 0.03013,-1.32351 -0.05997,-2.01551 -0.05715,-0.438919 -0.887486,-2.43662 -0.752189,-4.90336 0.135446,-2.46682 1.06791,-3.8958 2.5872,-4.81312 1.37376,-0.829523 3.36173,-0.847632 3.73007,-0.843476 l 0,5.937e-4 c 0.0097,2.227e-4 0.0164,4.453e-4 0.0164,4.453e-4 0,0 0.0079,-2.226e-4 0.02041,-5.937e-4 0.01492,3.711e-4 0.02353,5.937e-4 0.02353,5.937e-4 0,0 0.0064,-2.226e-4 0.01633,-4.453e-4 l 0,-5.937e-4 c 0.368264,-0.00416 2.35617,0.013804 3.73014,0.843476 1.51892,0.917396 2.45153,2.34629 2.58676,4.81304 0.13552,2.46667 -0.694522,4.46437 -0.751892,4.90336 -0.09025,0.692073 -0.06041,2.01566 -0.06041,2.01566 0.404631,3.02056 1.89535,3.47944 2.2864,10.154 l 1.82314,0 c 0.115259,-1.32715 0.250779,-2.50148 0.250779,-2.50148 0,0 1.41717,0.413388 1.93751,0.583271 1.42333,0.46534 1.69719,-0.476547 0.422591,-2.38748 z"
         class="fil0"
         id="_221798616"
         inkscape:connector-curvature="0"
         style="fill:#2c3e50;fill-opacity:1" /></g></g></svg>