<?xml version="1.0" encoding="utf-8"?>
<!-- Generator: Adobe Illustrator 16.0.0, SVG Export Plug-In . SVG Version: 6.00 Build 0)  -->
<!DOCTYPE svg PUBLIC "-//W3C//DTD SVG 1.1//EN" "http://www.w3.org/Graphics/SVG/1.1/DTD/svg11.dtd">
<svg version="1.1" id="Layer_1" xmlns="http://www.w3.org/2000/svg" xmlns:xlink="http://www.w3.org/1999/xlink" x="0px" y="0px"
	 width="1000px" height="1000px" viewBox="0 0 1000 1000" enable-background="new 0 0 1000 1000" xml:space="preserve">
<circle fill="#475A6E" cx="500" cy="502.999" r="473.937"/>
<circle fill="#D22333" cx="500" cy="500" r="418.439"/>
<g>
	<path fill="#FFFFFF" d="M276.805,535.67c0,8.056-1.483,15.226-4.448,21.51c-2.967,6.286-7.083,11.617-12.348,15.999
		c-5.268,4.382-11.465,7.681-18.589,9.892c-7.126,2.212-14.805,3.319-23.037,3.319c-5.755,0-11.086-0.487-15.999-1.46
		c-4.913-0.976-9.294-2.168-13.145-3.585c-3.851-1.415-7.083-2.876-9.692-4.382c-2.612-1.504-4.428-2.788-5.444-3.851
		c-1.019-1.063-1.771-2.41-2.257-4.05c-0.487-1.637-0.73-3.827-0.73-6.572c0-1.946,0.087-3.563,0.266-4.846
		c0.177-1.283,0.441-2.324,0.797-3.121c0.353-0.797,0.797-1.348,1.327-1.659c0.531-0.31,1.149-0.465,1.859-0.465
		c1.238,0,2.987,0.753,5.244,2.257c2.258,1.506,5.155,3.144,8.697,4.913c3.539,1.771,7.811,3.432,12.813,4.979
		c5,1.549,10.775,2.323,17.327,2.323c4.956,0,9.493-0.664,13.609-1.992c4.116-1.327,7.655-3.207,10.622-5.643
		c2.965-2.434,5.245-5.421,6.838-8.962c1.594-3.539,2.391-7.568,2.391-12.083c0-4.866-1.108-9.028-3.319-12.481
		c-2.214-3.451-5.135-6.482-8.764-9.094c-3.631-2.61-7.768-5-12.414-7.17c-4.647-2.168-9.406-4.382-14.273-6.639
		c-4.869-2.258-9.605-4.758-14.207-7.502c-4.604-2.743-8.72-5.976-12.349-9.693c-3.63-3.717-6.572-8.076-8.829-13.078
		c-2.257-5-3.386-10.997-3.386-17.991c0-7.17,1.305-13.563,3.917-19.186c2.609-5.62,6.24-10.334,10.888-14.141
		c4.646-3.805,10.178-6.705,16.597-8.697c6.417-1.991,13.344-2.987,20.779-2.987c3.805,0,7.635,0.332,11.485,0.996
		c3.85,0.664,7.479,1.55,10.887,2.655c3.407,1.108,6.44,2.347,9.096,3.718c2.655,1.374,4.402,2.479,5.244,3.319
		c0.841,0.843,1.395,1.507,1.66,1.992c0.266,0.487,0.485,1.107,0.664,1.858c0.176,0.753,0.309,1.66,0.398,2.722
		c0.087,1.063,0.133,2.436,0.133,4.116c0,1.594-0.066,3.011-0.199,4.249c-0.133,1.24-0.332,2.28-0.598,3.12
		c-0.266,0.843-0.644,1.461-1.129,1.858c-0.487,0.398-1.041,0.598-1.659,0.598c-0.976,0-2.503-0.618-4.581-1.858
		c-2.081-1.238-4.627-2.633-7.635-4.183c-3.01-1.548-6.572-2.965-10.688-4.249c-4.116-1.282-8.742-1.925-13.875-1.925
		c-4.78,0-8.941,0.643-12.48,1.925c-3.542,1.284-6.463,2.987-8.764,5.112c-2.303,2.124-4.028,4.646-5.178,7.568
		c-1.151,2.921-1.727,6.021-1.727,9.294c0,4.78,1.105,8.896,3.319,12.348c2.212,3.452,5.155,6.507,8.83,9.162
		c3.672,2.655,7.854,5.091,12.547,7.303c4.69,2.213,9.471,4.447,14.34,6.705c4.867,2.257,9.646,4.736,14.34,7.436
		c4.69,2.701,8.873,5.888,12.547,9.56c3.672,3.674,6.639,8.012,8.896,13.012C275.676,522.946,276.805,528.854,276.805,535.67z"/>
	<path fill="#FFFFFF" d="M415.289,421.882c0,1.683-0.09,3.143-0.266,4.381c-0.179,1.241-0.465,2.237-0.863,2.988
		c-0.398,0.753-0.886,1.307-1.46,1.659c-0.577,0.354-1.218,0.531-1.926,0.531h-48.33v148.974c0,0.71-0.179,1.328-0.531,1.858
		c-0.354,0.531-0.975,0.953-1.858,1.262c-0.886,0.312-2.059,0.575-3.519,0.797c-1.461,0.22-3.299,0.332-5.511,0.332
		c-2.124,0-3.939-0.112-5.443-0.332c-1.507-0.222-2.701-0.485-3.585-0.797c-0.886-0.309-1.506-0.73-1.859-1.262
		c-0.354-0.53-0.53-1.148-0.53-1.858V431.441h-48.331c-0.709,0-1.351-0.177-1.925-0.531c-0.577-0.353-1.042-0.906-1.395-1.659
		c-0.354-0.751-0.643-1.747-0.862-2.988c-0.223-1.238-0.332-2.698-0.332-4.381c0-1.681,0.109-3.164,0.332-4.448
		c0.22-1.282,0.508-2.323,0.862-3.12c0.353-0.797,0.817-1.371,1.395-1.727c0.574-0.353,1.216-0.53,1.925-0.53h119.498
		c0.708,0,1.349,0.178,1.926,0.53c0.574,0.355,1.062,0.93,1.46,1.727s0.685,1.838,0.863,3.12
		C415.199,418.718,415.289,420.201,415.289,421.882z"/>
	<path fill="#FFFFFF" d="M547.534,575.768c0.707,1.948,1.082,3.519,1.128,4.714c0.044,1.195-0.288,2.104-0.995,2.722
		c-0.71,0.62-1.883,1.017-3.52,1.195c-1.639,0.176-3.829,0.266-6.572,0.266c-2.744,0-4.936-0.066-6.572-0.199
		c-1.639-0.133-2.877-0.354-3.717-0.664c-0.843-0.31-1.461-0.73-1.859-1.262c-0.398-0.53-0.775-1.194-1.129-1.991l-14.738-41.824
		h-71.433l-14.074,41.293c-0.266,0.797-0.62,1.483-1.063,2.059c-0.444,0.576-1.085,1.062-1.925,1.46
		c-0.843,0.398-2.038,0.685-3.585,0.863c-1.55,0.176-3.564,0.266-6.042,0.266c-2.568,0-4.67-0.112-6.307-0.332
		c-1.639-0.222-2.788-0.642-3.452-1.262c-0.664-0.618-0.975-1.526-0.93-2.722c0.044-1.195,0.42-2.766,1.129-4.714l57.625-159.596
		c0.353-0.973,0.817-1.77,1.394-2.39c0.575-0.618,1.415-1.105,2.522-1.46c1.106-0.354,2.523-0.598,4.249-0.73
		c1.727-0.133,3.917-0.199,6.572-0.199c2.832,0,5.179,0.066,7.037,0.199c1.859,0.133,3.363,0.377,4.515,0.73
		c1.149,0.354,2.035,0.862,2.655,1.526c0.618,0.664,1.106,1.483,1.461,2.456L547.534,575.768z M473.578,434.894h-0.133
		l-29.609,85.64h59.749L473.578,434.894z"/>
	<path fill="#FFFFFF" d="M690.798,580.415c0,0.71-0.133,1.328-0.398,1.858c-0.266,0.531-0.842,0.976-1.727,1.328
		s-2.123,0.618-3.717,0.797c-1.594,0.176-3.719,0.266-6.373,0.266c-2.303,0-4.184-0.09-5.643-0.266
		c-1.461-0.179-2.635-0.465-3.52-0.863s-1.572-0.95-2.059-1.659c-0.486-0.708-0.908-1.594-1.26-2.656l-15.801-40.496
		c-1.859-4.602-3.785-8.829-5.775-12.681c-1.992-3.85-4.361-7.17-7.104-9.957c-2.746-2.789-5.975-4.957-9.693-6.506
		c-3.717-1.548-8.188-2.324-13.41-2.324h-15.27v73.159c0,0.71-0.199,1.328-0.598,1.858c-0.398,0.531-1.018,0.953-1.857,1.262
		c-0.844,0.312-1.992,0.575-3.453,0.797c-1.461,0.22-3.299,0.332-5.51,0.332c-2.215,0-4.051-0.112-5.51-0.332
		c-1.461-0.222-2.635-0.485-3.52-0.797c-0.885-0.309-1.506-0.73-1.859-1.262c-0.354-0.53-0.531-1.148-0.531-1.858V421.351
		c0-3.452,0.908-5.863,2.723-7.236c1.813-1.371,3.738-2.058,5.775-2.058h36.514c4.336,0,7.943,0.111,10.82,0.331
		c2.877,0.223,5.465,0.465,7.768,0.73c6.639,1.151,12.502,2.967,17.594,5.444c5.088,2.479,9.359,5.622,12.813,9.427
		c3.451,3.807,6.041,8.166,7.768,13.078c1.727,4.913,2.59,10.336,2.59,16.266c0,5.755-0.777,10.91-2.324,15.468
		c-1.551,4.561-3.785,8.587-6.705,12.083c-2.922,3.497-6.42,6.528-10.49,9.095c-4.072,2.568-8.629,4.736-13.676,6.506
		c2.832,1.241,5.398,2.812,7.701,4.714c2.301,1.904,4.449,4.183,6.439,6.838c1.992,2.655,3.871,5.709,5.643,9.161
		c1.77,3.452,3.541,7.348,5.313,11.684l15.4,37.842c1.24,3.187,2.035,5.423,2.391,6.705
		C690.62,578.712,690.798,579.708,690.798,580.415z M656.409,459.723c0-6.726-1.506-12.415-4.514-17.062
		c-3.012-4.647-8.057-7.987-15.137-10.024c-2.215-0.618-4.715-1.063-7.502-1.328c-2.789-0.266-6.439-0.398-10.955-0.398H599.05
		v57.891h22.307c6.018,0,11.219-0.73,15.602-2.191c4.381-1.46,8.033-3.495,10.953-6.107c2.922-2.61,5.066-5.687,6.439-9.228
		C655.722,467.734,656.409,463.884,656.409,459.723z"/>
	<path fill="#FFFFFF" d="M828.885,421.882c0,1.683-0.09,3.143-0.266,4.381c-0.179,1.241-0.465,2.237-0.863,2.988
		c-0.398,0.753-0.886,1.307-1.461,1.659c-0.576,0.354-1.218,0.531-1.925,0.531h-48.33v148.974c0,0.71-0.179,1.328-0.531,1.858
		c-0.354,0.531-0.976,0.953-1.859,1.262c-0.886,0.312-2.058,0.575-3.519,0.797c-1.46,0.22-3.298,0.332-5.51,0.332
		c-2.124,0-3.939-0.112-5.443-0.332c-1.507-0.222-2.701-0.485-3.585-0.797c-0.887-0.309-1.507-0.73-1.859-1.262
		c-0.354-0.53-0.531-1.148-0.531-1.858V431.441h-48.33c-0.709,0-1.351-0.177-1.925-0.531c-0.577-0.353-1.042-0.906-1.395-1.659
		c-0.354-0.751-0.643-1.747-0.863-2.988c-0.222-1.238-0.332-2.698-0.332-4.381c0-1.681,0.11-3.164,0.332-4.448
		c0.221-1.282,0.509-2.323,0.863-3.12c0.353-0.797,0.817-1.371,1.395-1.727c0.574-0.353,1.216-0.53,1.925-0.53H824.37
		c0.707,0,1.349,0.178,1.925,0.53c0.575,0.355,1.063,0.93,1.461,1.727s0.685,1.838,0.863,3.12
		C828.795,418.718,828.885,420.201,828.885,421.882z"/>
</g>
<circle opacity="0.7" fill="#90B2CC" cx="500" cy="500" r="418.439"/>
</svg>
